<svg xmlns="http://www.w3.org/2000/svg" width="682.43" height="375.884" viewBox="0 0 682.43 375.884">
  <g id="logo" opacity="0.52">
    <g id="Group_1" data-name="Group 1" transform="translate(0)">
      <path id="Path_1" data-name="Path 1" d="M182.11,100.162c-8.014-5.521-33.895-8.593-81.976-12.651-28.707-2.42-64.384-5.434-69.514-9.245-1.652-1.826-3.391-6.724-3.391-15.071,0-14.506,3.521-24.577,10.463-29.924,4.739-3.782,19.766-10.115,67.224-10.115a607.247,607.247,0,0,1,75.049,4.956,26.816,26.816,0,0,0,3.289.2c2.377,0,3.942-.362,4.768-1.1,1.13-1.014,1.188-3.029,1.1-4.869,0-.116-.015-.2-.015-.261,0-4.594-5-12.622-10.825-15.433C170.879,2.782,139.564,0,103.814,0,56.762,0,30.808,5.014,17.042,16.752,5.9,26.62,0,44.111,0,67.326c0,13.607,6.275,26.4,12.317,30.881,6.927,5.492,32.764,8.579,81.15,12.665,29.736,2.521,63.413,5.362,69.572,9.086,2.9,2.8,4.362,8.3,4.362,16.36,0,13.738-3.565,24.794-9.564,29.576l-.188.159C151,171.864,129.768,174.7,92.757,174.7a539.67,539.67,0,0,1-83.15-6.3l-.261-.029a7.017,7.017,0,0,0-.768-.043A6.373,6.373,0,0,0,2.2,174.69c0,4.231,4.333,11.781,8.782,15.288l.246.174c6.956,4.869,40.372,8.26,81.266,8.26,48.2,0,74.977-4.84,86.831-15.708,10.593-9.9,16.433-28.127,16.433-51.342C195.746,116.465,188.688,104.742,182.11,100.162Z" transform="translate(0)" fill="#d5d5d5"/>
      <path id="Path_2" data-name="Path 2" d="M3481.6,167.5h-.4l-.406.058a542.832,542.832,0,0,1-76.414,5.767c-46.949,0-68.744-3.826-80.4-14.114-10.852-9.8-16.129-29.3-16.129-59.6,0-29.069,6.93-50.791,19.492-61.138,12.838-9.8,38.313-14.766,75.7-14.766a553.009,553.009,0,0,1,75.846,5.347l.916.116a6.024,6.024,0,0,0,1.432.159,6.284,6.284,0,0,0,6.26-6.434c0-4.652-5.041-12.144-10.373-15.433l-.293-.174-.215-.1C3468.051,3.014,3436.43,0,3401.436,0c-45.793,0-76.137,6.825-92.773,20.882-18.025,15.39-27.562,43.285-27.562,80.657,0,36.72,7.059,61.181,21.58,74.774,15.982,14.9,43.818,20.983,96.09,20.983,37.328,0,69.324-3.1,77.771-7.535,5.158-2.579,11.521-11.506,11.521-16.187A6.3,6.3,0,0,0,3481.6,167.5Z" transform="translate(-2805.633)" fill="#d5d5d5"/>
    </g>
    <g id="Group_2" data-name="Group 2" transform="translate(221.83)">
      <path id="Path_3" data-name="Path 3" d="M1644.512,0c-62.7,0-113.712,50.69-113.712,112.987a112.844,112.844,0,0,0,38.112,84.425,12.085,12.085,0,0,0,8.086,3.072,12.266,12.266,0,0,0,9.128-4.086,11.877,11.877,0,0,0,3.044-8.68,12.019,12.019,0,0,0-4.072-8.347,88.709,88.709,0,0,1-29.968-66.4c0-48.994,40.1-88.845,89.367-88.845s89.366,39.85,89.366,88.845a88.8,88.8,0,0,1-30.012,66.427,12.02,12.02,0,0,0-1,17,12.209,12.209,0,0,0,17.2,1,112.753,112.753,0,0,0,38.142-84.425C1758.224,50.69,1707.214,0,1644.512,0Z" transform="translate(-1530.8)" fill="#d5d5d5"/>
      <path id="Path_4" data-name="Path 4" d="M2242.989,798.1a12.305,12.305,0,0,0-12.288,12.3V960.2a12.288,12.288,0,1,0,24.575,0V810.4A12.306,12.306,0,0,0,2242.989,798.1Z" transform="translate(-2129.279 -682.447)" fill="#d5d5d5"/>
    </g>
    <g id="Group_3" data-name="Group 3" transform="translate(0 234.567)">
      <path id="Path_5" data-name="Path 5" d="M4009.6,1682.229h0c-10.014.42-46.213.7-66.428.7-15.736,0-28.156,0-38.486-.1-3.16-.1-4.869-.579-4.869-2.781v-22.971c0-2.158.42-2.593,5.158-2.593h80.049a45.619,45.619,0,0,0,6.246-.217c1.289-.422,2.912-2.087,2.912-2.783,0-.42-.623-1.014-2-1.014H3904.82c-4.2,0-5-.073-5-2.29V1625.6c0-2.173.914-2.8,4.26-2.882,4.275-.088,10.26-.131,18.811-.131,3.709,0,7.432,0,10.867.014,2.955,0,5.711.015,8.057.015,15.535,0,51.633.218,63.225.348l4.9.059c1.059,0,1.7-.448,1.7-1.232-.16-.782-2.086-2.448-3.289-2.68-2.623-.406-45.734-.406-66.979-.406-17.678,0-30.445,0-42.922.2-3.16,0-5.043,1.159-5.043,3.1v60.038c0,3.23,1.551,4.606,5.188,4.606,13.346.2,27.055.3,44.445.3,22.07,0,62.426-.2,65.064-.623,1.273-.42,3.2-2.174,3.375-3.071l.014-.043-.027-.044A1.822,1.822,0,0,0,4009.6,1682.229Z" transform="translate(-3329.205 -1618.7)" fill="#d5d5d5"/>
      <path id="Path_6" data-name="Path 6" d="M2812.2,1618.99c-4.393,1.159-54.775,34.228-54.775,34.228s-50.387-33.083-54.777-34.228c-1.436-.376-4.246-.564-4.246,2.521v64.18c0,.8,0,1.667,1.219,1.667h2.576c2.857,0,2.424-.753,2.424-2.376l-.1-55.443s.014-3.754.014-3.4,52.879,33.649,52.879,33.649,52.879-33.3,52.879-33.649c0-.363.014,3.4.014,3.4l-.1,55.443c0,1.608-.436,2.376,2.422,2.376h2.578c1.217,0,1.217-.868,1.217-1.667v-64.18C2816.442,1618.426,2813.632,1618.614,2812.2,1618.99Z" transform="translate(-2307.371 -1618.773)" fill="#d5d5d5"/>
      <path id="Path_7" data-name="Path 7" d="M1263.6,1621.83c-5.231-2.479-13.4-3.13-39.763-3.13-14.361,0-55.386.2-64.791.492-2.4.1-3.347.754-3.347,2.3v63.95c0,.768.116,1.3,1.695,1.3h2.739c1.347,0,1.84-.348,1.84-1.3v-23.374c0-3.492,1.29-3.667,5-3.667l67.934.073,19.187,25.75c2.3,2.493,2.854,2.682,6.535,2.682h.449a1.946,1.946,0,0,0,1.348-.406.673.673,0,0,0,.029-.913l-19.954-27.142c8.448-.174,13.534-.826,17.084-2.028,6.275-2.043,12.97-8.014,12.97-18.592C1272.571,1630.1,1269.382,1624.424,1263.6,1621.83Zm-8.521,31.416c-3.318.855-8.97,1.188-20.127,1.188h-67.659c-4.507,0-5.3-.506-5.3-3.361v-26.518c0-1.015.769-1.479,2.436-1.479,7.665-.3,47.53-.392,58.963-.392,23.982,0,31.591.55,35.431,2.55,3.333,1.479,8.347,4.956,8.347,13.158C1267.151,1645.74,1261.891,1651.232,1255.079,1653.246Z" transform="translate(-988.227 -1618.7)" fill="#d5d5d5"/>
      <path id="Path_8" data-name="Path 8" d="M107.9,1621.83c-5.231-2.479-13.4-3.13-39.764-3.13-14.361,0-55.385.2-64.79.492-2.406.131-3.347.769-3.347,2.319v63.949c0,.768.116,1.3,1.7,1.3H4.434c1.348,0,1.84-.347,1.84-1.3v-23.375c0-3.492,1.29-3.666,5-3.666h70.4c11.564,0,18.012-.58,22.215-2.014,6.275-2.043,12.97-7.826,12.97-18.4C116.856,1630.293,113.683,1624.424,107.9,1621.83ZM99.365,1653.1c-3.318.854-8.97,1.188-20.128,1.188H11.593c-4.507,0-5.3-.507-5.3-3.361v-26.52c0-1.015.768-1.478,2.435-1.478,7.666-.3,47.531-.393,58.964-.393,23.983,0,31.591.553,35.431,2.552,3.333,1.479,8.347,4.956,8.347,13.156C111.451,1645.595,106.191,1651.088,99.365,1653.1Z" transform="translate(0 -1618.7)" fill="#d5d5d5"/>
    </g>
    <path id="Path_9" data-name="Path 9" d="M27.915,2382.543H25.741v-2.161a4.2,4.2,0,0,0-.8-2.912,3.77,3.77,0,0,0-2.811-.855H13.482a3.748,3.748,0,0,0-2.811.855,4.2,4.2,0,0,0-.8,2.912,5.663,5.663,0,0,0,.609,3.1,6.331,6.331,0,0,0,2.985,1.652l8.622,2.983c1.029.351,1.8.624,2.319.8a8.03,8.03,0,0,1,1.609.768,2.879,2.879,0,0,1,1.145,1.146,7.121,7.121,0,0,1,.551,1.606,11.05,11.05,0,0,1,.217,2.363,5.98,5.98,0,0,1-1.406,4.378,5.951,5.951,0,0,1-4.376,1.4H13.482a5.974,5.974,0,0,1-4.376-1.4A5.957,5.957,0,0,1,7.7,2394.8v-2.159H9.874v2.159a4.192,4.192,0,0,0,.8,2.912,3.762,3.762,0,0,0,2.811.855h8.666a3.749,3.749,0,0,0,2.811-.84,4.183,4.183,0,0,0,.8-2.9,5.452,5.452,0,0,0-.609-3.057,6.35,6.35,0,0,0-3-1.625l-8.666-2.9a29.014,29.014,0,0,1-2.782-1.029,5.95,5.95,0,0,1-1.7-1.173,3.525,3.525,0,0,1-1.043-1.827,12.474,12.474,0,0,1-.246-2.841,5.973,5.973,0,0,1,1.406-4.375A5.952,5.952,0,0,1,13.5,2374.6h8.666a5.974,5.974,0,0,1,4.376,1.405,5.948,5.948,0,0,1,1.406,4.375v2.162Z" transform="translate(-6.584 -2030.495)" fill="#d5d5d5"/>
    <path id="Path_10" data-name="Path 10" d="M249.481,2376.7H232.874v9.971h16.245v2.026H232.874v9.972h16.607v2.028H230.7v-26h18.781Z" transform="translate(-197.269 -2030.581)" fill="#d5d5d5"/>
    <path id="Path_11" data-name="Path 11" d="M459.356,2392.471h2.174v2.159a6.031,6.031,0,0,1-1.391,4.376,5.939,5.939,0,0,1-4.391,1.406h-8.666a5.939,5.939,0,0,1-4.391-1.406,6.008,6.008,0,0,1-1.391-4.376v-14.447a6.035,6.035,0,0,1,1.391-4.378,5.943,5.943,0,0,1,4.391-1.4h8.666a5.943,5.943,0,0,1,4.391,1.4,6.014,6.014,0,0,1,1.391,4.378v2.159h-2.174v-2.159a4.2,4.2,0,0,0-.8-2.914,3.769,3.769,0,0,0-2.811-.855h-8.666a3.748,3.748,0,0,0-2.811.855,4.2,4.2,0,0,0-.8,2.914v14.447a4.2,4.2,0,0,0,.8,2.912,3.77,3.77,0,0,0,2.811.855h8.666a3.747,3.747,0,0,0,2.811-.855,4.194,4.194,0,0,0,.8-2.912Z" transform="translate(-377.351 -2030.323)" fill="#d5d5d5"/>
    <path id="Path_12" data-name="Path 12" d="M682.356,2374.5h2.174v20.214a5.028,5.028,0,0,1-5.782,5.782h-8.666a5.027,5.027,0,0,1-5.782-5.782V2374.5h2.173v20.214a4.2,4.2,0,0,0,.8,2.914,3.771,3.771,0,0,0,2.812.855h8.666a3.747,3.747,0,0,0,2.811-.855,4.2,4.2,0,0,0,.8-2.914Z" transform="translate(-568.036 -2030.41)" fill="#d5d5d5"/>
    <path id="Path_13" data-name="Path 13" d="M910.029,2384.7a5.027,5.027,0,0,1-5.782,5.781H902.7l6.854,10.115h-2.594l-6.854-10.115h-8.129V2400.6H889.8v-26h14.448a5.029,5.029,0,0,1,5.782,5.781Zm-18.056,3.754h12.274a3.683,3.683,0,0,0,2.811-.855,4.2,4.2,0,0,0,.8-2.912v-4.335a4.191,4.191,0,0,0-.8-2.91,3.769,3.769,0,0,0-2.811-.855H891.974Z" transform="translate(-760.858 -2030.495)" fill="#d5d5d5"/>
    <path id="Path_14" data-name="Path 14" d="M1112.9,2400.6v-26h2.173v26Z" transform="translate(-951.629 -2030.495)" fill="#d5d5d5"/>
    <path id="Path_15" data-name="Path 15" d="M1221.53,2374.5v2.029H1212.5v23.982h-2.174V2376.53H1201.3V2374.5Z" transform="translate(-1027.218 -2030.41)" fill="#d5d5d5"/>
    <path id="Path_16" data-name="Path 16" d="M1423.679,2374.5l-9.824,17.4v8.593h-2.174V2391.9l-9.781-17.4h2.492l8.2,14.592h.363l8.23-14.592Z" transform="translate(-1198.749 -2030.41)" fill="#d5d5d5"/>
    <path id="Path_17" data-name="Path 17" d="M1764.747,2374.5a5.93,5.93,0,0,1,4.391,1.406,6,6,0,0,1,1.391,4.376v14.447a6.028,6.028,0,0,1-1.391,4.376,5.942,5.942,0,0,1-4.391,1.406H1761.5v5.781h-2.173v-5.781h-3.245a5.946,5.946,0,0,1-4.392-1.406,6.009,6.009,0,0,1-1.391-4.376v-14.447a6.023,6.023,0,0,1,1.391-4.376,5.934,5.934,0,0,1,4.392-1.406Zm3.609,20.229v-14.447a4.2,4.2,0,0,0-.8-2.914,3.769,3.769,0,0,0-2.812-.854h-8.665a3.748,3.748,0,0,0-2.812.854,4.194,4.194,0,0,0-.8,2.914v14.447a4.193,4.193,0,0,0,.8,2.912,3.769,3.769,0,0,0,2.812.855h8.665a3.748,3.748,0,0,0,2.812-.855A4.222,4.222,0,0,0,1768.356,2394.73Z" transform="translate(-1496.662 -2030.41)" fill="#d5d5d5"/>
    <path id="Path_18" data-name="Path 18" d="M1992.656,2374.5h2.173v20.214a5.027,5.027,0,0,1-5.781,5.782h-8.666a5.028,5.028,0,0,1-5.782-5.782V2374.5h2.175v20.214a4.193,4.193,0,0,0,.8,2.914,3.768,3.768,0,0,0,2.811.855h8.666a3.748,3.748,0,0,0,2.812-.855,4.2,4.2,0,0,0,.8-2.914Z" transform="translate(-1688.458 -2030.41)" fill="#d5d5d5"/>
    <path id="Path_19" data-name="Path 19" d="M2200.6,2374.5l9.493,26h-2.3l-2.783-7.65h-12.3l-2.795,7.65H2187.6l9.536-26Zm-7.159,16.332h10.825l-5.2-14.3h-.393Z" transform="translate(-1870.593 -2030.41)" fill="#d5d5d5"/>
    <path id="Path_20" data-name="Path 20" d="M2435.181,2398.569v2.027H2416.4v-26h2.173v23.969Z" transform="translate(-2066.24 -2030.495)" fill="#d5d5d5"/>
    <path id="Path_21" data-name="Path 21" d="M2619.5,2400.6v-26h2.159v26Z" transform="translate(-2239.906 -2030.495)" fill="#d5d5d5"/>
    <path id="Path_22" data-name="Path 22" d="M2728.215,2374.5v2.029h-9.027v23.982h-2.16V2376.53H2708V2374.5Z" transform="translate(-2315.581 -2030.41)" fill="#d5d5d5"/>
    <path id="Path_23" data-name="Path 23" d="M2930.368,2374.5l-9.826,17.4v8.593h-2.16V2391.9l-9.781-17.4h2.492l8.2,14.592h.363l8.23-14.592Z" transform="translate(-2487.113 -2030.41)" fill="#d5d5d5"/>
    <path id="Path_24" data-name="Path 24" d="M3274.869,2392.471h2.16v2.159a6.03,6.03,0,0,1-1.393,4.376,5.934,5.934,0,0,1-4.389,1.406h-8.666a5.936,5.936,0,0,1-4.391-1.406,6,6,0,0,1-1.391-4.376v-14.447a6.026,6.026,0,0,1,1.391-4.378,5.94,5.94,0,0,1,4.391-1.4h8.666a5.938,5.938,0,0,1,4.389,1.4,6.013,6.013,0,0,1,1.393,4.378v2.159h-2.16v-2.159a4.2,4.2,0,0,0-.8-2.914,3.767,3.767,0,0,0-2.811-.855H3262.6a3.754,3.754,0,0,0-2.812.855,4.206,4.206,0,0,0-.795,2.914v14.447a4.2,4.2,0,0,0,.795,2.912,3.775,3.775,0,0,0,2.813.855h8.666a3.745,3.745,0,0,0,2.811-.855,4.19,4.19,0,0,0,.8-2.912Z" transform="translate(-2784.855 -2030.323)" fill="#d5d5d5"/>
    <path id="Path_25" data-name="Path 25" d="M3493.146,2374.5a5.939,5.939,0,0,1,4.393,1.406,6.01,6.01,0,0,1,1.391,4.376v14.447a6.041,6.041,0,0,1-1.391,4.376,5.952,5.952,0,0,1-4.393,1.406h-8.666a5.938,5.938,0,0,1-4.389-1.406,6,6,0,0,1-1.391-4.376v-14.447a6.015,6.015,0,0,1,1.391-4.376,5.926,5.926,0,0,1,4.389-1.406Zm3.609,20.229v-14.447a4.194,4.194,0,0,0-.8-2.914,3.772,3.772,0,0,0-2.812-.854h-8.666a3.749,3.749,0,0,0-2.811.854,4.2,4.2,0,0,0-.795,2.914v14.447a4.2,4.2,0,0,0,.795,2.912,3.77,3.77,0,0,0,2.811.855h8.666a3.748,3.748,0,0,0,2.813-.855A4.217,4.217,0,0,0,3496.756,2394.73Z" transform="translate(-2974.6 -2030.41)" fill="#d5d5d5"/>
    <path id="Path_26" data-name="Path 26" d="M3721.057,2374.5h2.16v26.012h-3.8l-13.9-23.982h-.361v23.982H3703v-26h3.826l13.9,23.97h.348V2374.5Z" transform="translate(-3166.396 -2030.41)" fill="#d5d5d5"/>
    <path id="Path_27" data-name="Path 27" d="M3936.229,2374.5v2.029H3927.2v23.982h-2.158V2376.53H3916V2374.5Z" transform="translate(-3348.529 -2030.41)" fill="#d5d5d5"/>
    <path id="Path_28" data-name="Path 28" d="M4149.318,2384.7a5.028,5.028,0,0,1-5.785,5.781h-1.551l6.857,10.115h-2.6l-6.854-10.115h-8.131V2400.6H4129.1v-26h14.445a5.029,5.029,0,0,1,5.783,5.781v4.318Zm-18.059,3.754h12.273a3.676,3.676,0,0,0,2.811-.855,4.2,4.2,0,0,0,.8-2.912v-4.335a4.2,4.2,0,0,0-.8-2.91,3.764,3.764,0,0,0-2.811-.855H4131.26Z" transform="translate(-3530.75 -2030.495)" fill="#d5d5d5"/>
    <path id="Path_29" data-name="Path 29" d="M4365.246,2374.5a5.938,5.938,0,0,1,4.395,1.406,6.01,6.01,0,0,1,1.389,4.376v14.447a6.041,6.041,0,0,1-1.389,4.376,5.951,5.951,0,0,1-4.395,1.406h-8.664a5.93,5.93,0,0,1-4.387-1.406,5.993,5.993,0,0,1-1.395-4.376v-14.447a6.007,6.007,0,0,1,1.395-4.376,5.918,5.918,0,0,1,4.387-1.406Zm3.621,20.229v-14.447a4.205,4.205,0,0,0-.793-2.914,3.778,3.778,0,0,0-2.812-.854H4356.6a3.749,3.749,0,0,0-2.811.854,4.194,4.194,0,0,0-.8,2.914v14.447a4.193,4.193,0,0,0,.8,2.912,3.767,3.767,0,0,0,2.811.855h8.666a3.754,3.754,0,0,0,2.813-.855A4.31,4.31,0,0,0,4368.867,2394.73Z" transform="translate(-3720.321 -2030.41)" fill="#d5d5d5"/>
    <path id="Path_30" data-name="Path 30" d="M4593.881,2398.569v2.027H4575.1v-26h2.174v23.969Z" transform="translate(-3912.121 -2030.495)" fill="#d5d5d5"/>
  </g>
</svg>
