<?xml version="1.0" encoding="utf-8"?>
<!-- Generator: Adobe Illustrator 23.0.0, SVG Export Plug-In . SVG Version: 6.00 Build 0)  -->
<svg version="1.1" id="Слой_1" xmlns="http://www.w3.org/2000/svg" xmlns:xlink="http://www.w3.org/1999/xlink" x="0px" y="0px"
	 viewBox="0 0 32.5 26.8" style="enable-background:new 0 0 32.5 26.8;" xml:space="preserve">
<style type="text/css">
	.st0{display:none;fill:#AFBDE3;}
	.st1{fill:#0E0F0F;}
	.st2{fill:#1D1D1D;}
	.st3{fill:#272727;}
	.st4{fill:#1B1B1C;}
	.st5{fill:#3A3A3A;}
	.st6{fill:#727273;}
	.st7{fill:#A9A9A9;}
	.st8{fill:#E9EAE6;}
	.st9{fill:#737373;}
	.st10{fill:#949494;}
	.st11{fill:#575757;}
	.st12{fill:#CDCDCD;}
	.st13{fill:#DBDDD8;}
	.st14{fill:#DFDFE0;}
	.st15{fill:#181819;}
	.st16{fill:#2F2F2F;}
	.st17{fill:#222221;}
	.st18{fill:#676767;}
	.st19{fill:#92968C;}
	.st20{fill:#3F3F3F;}
	.st21{fill:#72786B;}
	.st22{fill:#373737;}
	.st23{fill:#161718;}
	.st24{fill:#A8A8A8;}
	.st25{fill:#646E7B;}
	.st26{fill:#C4C9D7;}
	.st27{fill:#242424;}
	.st28{fill:url(#SVGID_1_);}
	.st29{fill:#121314;}
	.st30{fill:url(#SVGID_2_);}
	.st31{fill:#2C2C2C;}
	.st32{fill:#1E1E1E;}
	.st33{fill:#151616;}
	.st34{fill:#BDC3D5;}
	.st35{fill:#C6C8CC;}
	.st36{fill:#BEE0E8;}
	.st37{clip-path:url(#SVGID_4_);fill:#272727;}
	.st38{clip-path:url(#SVGID_4_);}
	.st39{fill:#4D4D4D;}
	.st40{fill:#C3C4C4;}
	.st41{fill:#B0B4C5;}
	.st42{fill:#E3E9F4;}
	.st43{fill:#B2B7BE;}
	.st44{fill:url(#SVGID_5_);}
	.st45{fill:url(#SVGID_6_);}
	.st46{fill:#395161;}
	.st47{fill:#D6D5D5;}
	.st48{fill:#D05D44;}
	.st49{fill:#ECB05A;}
	.st50{fill:#5C5C5C;}
	.st51{fill:#7E7E7E;}
	.st52{fill:#B1B1B1;}
	.st53{fill:#414141;}
	.st54{fill:#585858;}
	.st55{fill:#4E4E4E;}
	.st56{fill:#131414;}
	.st57{fill:#2A2A2A;}
	.st58{fill:#464646;}
	.st59{fill:#B3B3B4;}
	.st60{fill:#292928;}
	.st61{fill:#513335;}
	.st62{fill:#D24A45;}
	.st63{fill:#DA6F63;}
	.st64{fill:#954C47;}
	.st65{fill:#E18E7F;}
	.st66{fill:#834642;}
	.st67{fill:#A54E45;}
	.st68{fill:url(#SVGID_7_);}
	.st69{fill:url(#SVGID_8_);}
	.st70{fill:url(#SVGID_9_);}
	.st71{fill:url(#SVGID_10_);}
	.st72{fill:url(#SVGID_11_);}
	.st73{fill:url(#SVGID_12_);}
	.st74{fill:#F3F4F4;}
	.st75{fill:#DEDEDE;}
	.st76{fill:#C0C0BF;}
	.st77{fill:#F8F8F8;}
	.st78{fill:#E39544;}
	.st79{fill:#F3F3F2;}
	.st80{fill:#181B19;}
	.st81{fill:#666666;}
	.st82{fill:#FFFFFF;}
</style>
<g>
	<g>
		<path class="st0" d="M32.2,20.9L7.1,9.1l-6.3,4c-0.7,0.5-0.7,1.5,0,2L20,26.2c1.3,0.8,3,0.8,4.3,0l7.9-4.4
			C32.6,21.6,32.6,21.1,32.2,20.9z"/>
		<g>
			<g>
				<g>
					<path class="st1" d="M17.9,19.1c-0.5-0.3-1-0.3-1.3-0.1l0,0l-1.4,0.8l2.7,4.6l1.4-0.8c0,0,0,0,0,0l0,0l0,0
						c0.3-0.2,0.5-0.6,0.5-1.2C19.7,21.1,18.9,19.7,17.9,19.1z"/>
					<path class="st2" d="M17.9,19.1c-0.1-0.1-0.2-0.1-0.3-0.2L15.6,20c0,0.2,0,0.5,0.1,0.7l1.4,2.4c0.2,0.2,0.4,0.3,0.6,0.4
						c0.2,0.1,0.3,0.2,0.5,0.2l1.5-0.9c0.1-0.2,0.1-0.4,0.1-0.6C19.7,21.1,18.9,19.7,17.9,19.1z"/>
					<path class="st3" d="M16.5,19.9c-1-0.6-1.9-0.1-1.9,1.1c0,1.2,0.8,2.6,1.9,3.2c1,0.6,1.9,0.1,1.9-1.1
						C18.4,21.9,17.5,20.5,16.5,19.9z"/>
					<path class="st4" d="M16.5,19.9c-1-0.6-1.8-0.1-1.8,1c0,1.1,0.8,2.5,1.8,3.1c1,0.6,1.8,0.1,1.8-1
						C18.3,21.9,17.5,20.5,16.5,19.9z"/>
					<path class="st5" d="M16.5,20.4c-0.8-0.5-1.4-0.1-1.4,0.8c0,0.9,0.6,2,1.4,2.4c0.8,0.5,1.4,0.1,1.4-0.8
						C17.9,21.9,17.3,20.9,16.5,20.4z"/>
					<path class="st6" d="M16.5,20.5c-0.7-0.4-1.3-0.1-1.3,0.7c0,0.8,0.6,1.8,1.3,2.3c0.7,0.4,1.3,0.1,1.3-0.7
						C17.8,22,17.2,20.9,16.5,20.5z"/>
					<path class="st7" d="M16.5,20.5l-1.3,0.8c0,0.8,0.6,1.8,1.3,2.2c0.1,0.1,0.2,0.1,0.3,0.1l1-0.6c0-0.1,0-0.2,0-0.3
						C17.8,22,17.2,21,16.5,20.5z"/>
					<path class="st8" d="M15.4,22.3c0.2,0.4,0.4,0.8,0.8,1l1.6-0.9c-0.1-0.4-0.3-0.8-0.5-1.2L15.4,22.3z"/>
					<path class="st8" d="M15.4,22.3c0.2,0.4,0.4,0.8,0.8,1l1.6-0.9c-0.1-0.4-0.3-0.8-0.5-1.2L15.4,22.3z"/>
					<path class="st9" d="M16.6,20.7c-0.6-0.3-1-0.1-1,0.6c0,0.7,0.5,1.5,1,1.8c0.6,0.3,1,0.1,1-0.6C17.7,21.8,17.2,21,16.6,20.7z"
						/>
					<path class="st10" d="M16.7,20.8c-0.5-0.3-0.9-0.1-0.9,0.5c0,0.6,0.4,1.3,0.9,1.5c0.5,0.3,0.9,0.1,0.9-0.5
						C17.6,21.8,17.2,21.1,16.7,20.8z"/>
					<path class="st11" d="M17.1,21.2c0,0.1,0,0.1,0.1,0.2c0,0,0.1,0,0.1,0C17.3,21.3,17.2,21.2,17.1,21.2
						C17.2,21.2,17.1,21.2,17.1,21.2z"/>
					<path class="st11" d="M15.8,21.6c-0.1,0-0.1,0.1,0,0.2c0.1,0.1,0.2,0.1,0.2,0.1c0.1,0,0.1-0.1,0-0.2
						C16,21.6,15.9,21.6,15.8,21.6z"/>
					<path class="st11" d="M17.3,22.3c0,0.1,0.1,0.2,0.2,0.3c0.1,0,0.1,0,0.1-0.1c0-0.1-0.1-0.2-0.2-0.3
						C17.4,22.2,17.3,22.2,17.3,22.3z"/>
					<path class="st11" d="M16.2,20.7c0,0.1,0,0.2,0,0.3c0.1,0.1,0.1,0.1,0.1,0c0-0.1,0-0.2,0-0.3C16.3,20.6,16.2,20.6,16.2,20.7z"
						/>
					<path class="st11" d="M17.4,21.5c-0.1,0-0.1,0.1,0,0.2c0,0,0.1,0.1,0.2,0.1C17.5,21.7,17.5,21.6,17.4,21.5
						C17.4,21.5,17.4,21.5,17.4,21.5z"/>
					<path class="st11" d="M17.2,22.6c0,0.1,0,0.2,0.1,0.3c0.1,0.1,0.1,0.1,0.1,0c0-0.1,0-0.2-0.1-0.3
						C17.2,22.5,17.2,22.5,17.2,22.6z"/>
					<path class="st11" d="M17.5,21.9c-0.1,0-0.1,0-0.1,0.1c0,0.1,0.2,0.2,0.2,0.2c0,0,0,0,0,0c0-0.1,0-0.2-0.1-0.3
						C17.6,21.9,17.5,21.9,17.5,21.9z"/>
					<path class="st11" d="M15.9,22c-0.1,0,0,0.1,0,0.2c0.1,0.1,0.2,0.1,0.2,0c0.1,0,0-0.1,0-0.2C16.1,22,16,22,15.9,22z"/>
					<path class="st11" d="M16.6,22.6c-0.1,0-0.1,0.1-0.1,0.2c0,0.1,0.1,0.1,0.1,0.1c0.1,0,0.1-0.1,0.1-0.2
						C16.8,22.6,16.7,22.5,16.6,22.6z"/>
					<path class="st11" d="M16.9,22.6c0,0.1-0.1,0.2,0,0.3C16.9,23,17,23,17,23c0-0.1,0.1-0.2,0-0.3C17,22.6,17,22.6,16.9,22.6z"/>
					<path class="st11" d="M16.4,22.4c-0.1,0-0.2,0-0.2,0.1c0,0.1,0,0.1,0.1,0.2c0.1,0,0.2,0,0.2-0.1C16.5,22.4,16.4,22.4,16.4,22.4
						z"/>
					<path class="st11" d="M15.9,20.9c0,0.1,0.1,0.2,0.1,0.3c0.1,0.1,0.1,0,0.1-0.1c0-0.1-0.1-0.2-0.1-0.3
						C15.9,20.8,15.9,20.8,15.9,20.9z"/>
					<path class="st11" d="M16.8,21c0,0.1,0,0.2,0.1,0.1c0,0,0.1,0,0.1-0.1C17,21,17,20.9,16.9,20.9C16.9,20.9,16.8,20.9,16.8,21z"
						/>
					<path class="st11" d="M15.8,21.2c-0.1,0-0.1,0-0.1,0.1c0,0.1,0.1,0.2,0.2,0.2c0.1,0,0.1,0,0.1-0.1C16,21.3,15.9,21.2,15.8,21.2
						z"/>
					<path class="st11" d="M16.6,20.7C16.6,20.6,16.6,20.6,16.6,20.7C16.6,20.6,16.6,20.6,16.6,20.7c-0.1,0-0.1,0.1-0.1,0.2
						c0,0.1,0.1,0.1,0.1,0.1C16.7,20.9,16.7,20.8,16.6,20.7C16.7,20.7,16.7,20.7,16.6,20.7C16.7,20.7,16.6,20.7,16.6,20.7z"/>
					<path class="st12" d="M16.7,21.2c-0.3-0.2-0.6,0-0.6,0.3c0,0.3,0.2,0.8,0.6,1c0.3,0.2,0.6,0,0.6-0.3
						C17.3,21.8,17,21.4,16.7,21.2z"/>
					<path class="st7" d="M16.7,21.2c-0.1,0-0.1,0-0.2-0.1l-0.2,0.5c0.1,0.3,0.1,0.4,0.3,0.6l0.5,0.1c0-0.1,0.1-0.1,0.1-0.2
						C17.3,21.8,17,21.4,16.7,21.2z"/>
					<path class="st13" d="M16.5,21.8c0,0.1,0.1,0.2,0.1,0.2c0.2-0.1,0.5-0.1,0.7-0.1c0-0.1-0.1-0.3-0.2-0.4
						C16.9,21.6,16.7,21.7,16.5,21.8z"/>
					<path class="st7" d="M16.6,21.5c-0.2-0.1-0.4,0-0.4,0.2c0,0.2,0.2,0.6,0.4,0.7c0.2,0.1,0.4,0,0.4-0.2
						C17,22,16.8,21.6,16.6,21.5z"/>
					<path class="st14" d="M16.3,21.9c0,0.1,0.1,0.3,0.2,0.4c0.1,0.1,0.2,0,0.2-0.1c0-0.1-0.1-0.3-0.2-0.4
						C16.4,21.7,16.3,21.8,16.3,21.9z"/>
					<path class="st1" d="M17.4,19.3c-0.5-0.3-1-0.3-1.3-0.1l0,0L16,19.2l0,0C16.3,19,16.8,19.1,17.4,19.3c1,0.7,1.8,2.1,1.8,3.3
						c0,0.6-0.2,1-0.5,1.2l0,0l0,0c0,0,0,0,0,0l-0.8,0.5l0,0l0.9-0.5c0,0,0,0,0,0l0,0l0,0c0.3-0.2,0.5-0.6,0.5-1.2
						C19.3,21.4,18.5,19.9,17.4,19.3z"/>
					<path class="st1" d="M17,19.6c-0.5-0.3-1-0.3-1.3-0.1l0,0l-0.1,0.1l0,0C15.9,19.3,16.4,19.3,17,19.6c1,0.7,1.8,2.1,1.8,3.3
						c0,0.6-0.2,1-0.5,1.2l0,0l0,0c0,0,0,0,0,0l-0.4,0.2l0,0l0.5-0.3c0,0,0,0,0,0l0,0l0,0c0.3-0.2,0.5-0.6,0.5-1.2
						C18.9,21.6,18,20.2,17,19.6z"/>
				</g>
				<g>
					<path class="st1" d="M21.6,21.3c-0.5-0.3-1-0.3-1.3-0.1l0,0l-1.4,0.8l2.7,4.6l1.4-0.8c0,0,0,0,0,0l0,0l0,0
						c0.3-0.2,0.5-0.6,0.5-1.2C23.5,23.3,22.6,21.9,21.6,21.3z"/>
					<path class="st2" d="M21.6,21.3c-0.1-0.1-0.2-0.1-0.3-0.2l-1.9,1.1c0,0.2,0,0.5,0.1,0.7l1.4,2.4c0.2,0.2,0.4,0.3,0.6,0.4
						c0.2,0.1,0.3,0.2,0.5,0.2l1.5-0.9c0.1-0.2,0.1-0.4,0.1-0.6C23.5,23.3,22.6,21.9,21.6,21.3z"/>
					<path class="st3" d="M20.2,22.1c-1-0.6-1.9-0.1-1.9,1.1s0.8,2.6,1.9,3.2c1,0.6,1.9,0.1,1.9-1.1C22.1,24.1,21.3,22.7,20.2,22.1z
						"/>
					<path class="st4" d="M20.2,22.1c-1-0.6-1.8-0.1-1.8,1c0,1.1,0.8,2.5,1.8,3.1c1,0.6,1.8,0.1,1.8-1S21.2,22.7,20.2,22.1z"/>
					<path class="st5" d="M20.2,22.6c-0.8-0.5-1.4-0.1-1.4,0.8c0,0.9,0.6,2,1.4,2.4c0.8,0.5,1.4,0.1,1.4-0.8
						C21.6,24.1,21,23.1,20.2,22.6z"/>
					<path class="st6" d="M20.2,22.7c-0.7-0.4-1.3-0.1-1.3,0.7c0,0.8,0.6,1.8,1.3,2.3c0.7,0.4,1.3,0.1,1.3-0.7
						C21.5,24.2,20.9,23.1,20.2,22.7z"/>
					<path class="st7" d="M20.2,22.7l-1.3,0.8c0,0.8,0.6,1.8,1.3,2.2c0.1,0.1,0.2,0.1,0.3,0.1l1-0.6c0-0.1,0-0.2,0-0.3
						C21.5,24.2,20.9,23.2,20.2,22.7z"/>
					<path class="st8" d="M19.1,24.5c0.2,0.4,0.4,0.8,0.8,1l1.6-0.9c-0.1-0.4-0.3-0.8-0.5-1.2L19.1,24.5z"/>
					<path class="st8" d="M19.1,24.5c0.2,0.4,0.4,0.8,0.8,1l1.6-0.9c-0.1-0.4-0.3-0.8-0.5-1.2L19.1,24.5z"/>
					<path class="st9" d="M20.4,22.9c-0.6-0.3-1-0.1-1,0.6c0,0.7,0.5,1.5,1,1.8c0.6,0.3,1,0.1,1-0.6C21.4,24,20.9,23.2,20.4,22.9z"
						/>
					<path class="st10" d="M20.4,23c-0.5-0.3-0.9-0.1-0.9,0.5c0,0.6,0.4,1.3,0.9,1.5c0.5,0.3,0.9,0.1,0.9-0.5
						C21.3,24,20.9,23.3,20.4,23z"/>
					<path class="st11" d="M20.9,23.4c0,0.1,0,0.1,0.1,0.2c0,0,0.1,0,0.1,0C21,23.5,21,23.4,20.9,23.4
						C20.9,23.4,20.9,23.4,20.9,23.4z"/>
					<path class="st11" d="M19.5,23.8c-0.1,0-0.1,0.1,0,0.2c0.1,0.1,0.2,0.1,0.2,0.1c0.1,0,0.1-0.1,0-0.2
						C19.7,23.8,19.6,23.8,19.5,23.8z"/>
					<path class="st11" d="M21.1,24.5c0,0.1,0.1,0.2,0.2,0.3c0.1,0,0.1,0,0.1-0.1c0-0.1-0.1-0.2-0.2-0.3
						C21.1,24.4,21.1,24.4,21.1,24.5z"/>
					<path class="st11" d="M19.9,22.9c0,0.1,0,0.2,0,0.3c0.1,0.1,0.1,0.1,0.1,0c0-0.1,0-0.2,0-0.3C20,22.8,20,22.8,19.9,22.9z"/>
					<path class="st11" d="M21.1,23.7c-0.1,0-0.1,0.1,0,0.2c0,0,0.1,0.1,0.2,0.1C21.2,23.9,21.2,23.8,21.1,23.7
						C21.1,23.7,21.1,23.7,21.1,23.7z"/>
					<path class="st11" d="M20.9,24.8c0,0.1,0,0.2,0.1,0.3c0.1,0.1,0.1,0.1,0.1,0c0-0.1,0-0.2-0.1-0.3S20.9,24.7,20.9,24.8z"/>
					<path class="st11" d="M21.2,24.1c-0.1,0-0.1,0-0.1,0.1c0,0.1,0.2,0.2,0.2,0.2c0,0,0,0,0,0c0-0.1,0-0.2-0.1-0.3
						C21.3,24.1,21.2,24.1,21.2,24.1z"/>
					<path class="st11" d="M19.6,24.2c-0.1,0,0,0.1,0,0.2c0.1,0.1,0.2,0.1,0.2,0c0.1,0,0-0.1,0-0.2C19.8,24.2,19.7,24.2,19.6,24.2z"
						/>
					<path class="st11" d="M20.4,24.8c-0.1,0-0.1,0.1-0.1,0.2c0,0.1,0.1,0.1,0.1,0.1c0.1,0,0.1-0.1,0.1-0.2
						C20.5,24.8,20.4,24.7,20.4,24.8z"/>
					<path class="st11" d="M20.7,24.8c0,0.1-0.1,0.2,0,0.3c0,0.1,0.1,0.1,0.1,0.1c0-0.1,0.1-0.2,0-0.3
						C20.8,24.8,20.7,24.8,20.7,24.8z"/>
					<path class="st11" d="M20.1,24.6c-0.1,0-0.2,0-0.2,0.1c0,0.1,0,0.1,0.1,0.2c0.1,0,0.2,0,0.2-0.1C20.2,24.6,20.2,24.6,20.1,24.6
						z"/>
					<path class="st11" d="M19.6,23.1c0,0.1,0.1,0.2,0.1,0.3c0.1,0.1,0.1,0,0.1-0.1c0-0.1-0.1-0.2-0.1-0.3
						C19.7,23,19.6,23,19.6,23.1z"/>
					<path class="st11" d="M20.6,23.2c0,0.1,0,0.2,0.1,0.1c0,0,0.1,0,0.1-0.1c-0.1-0.1-0.1-0.1-0.2-0.2
						C20.6,23.1,20.6,23.1,20.6,23.2z"/>
					<path class="st11" d="M19.6,23.4c-0.1,0-0.1,0-0.1,0.1c0,0.1,0.1,0.2,0.2,0.2c0.1,0,0.1,0,0.1-0.1
						C19.7,23.5,19.7,23.4,19.6,23.4z"/>
					<path class="st11" d="M20.4,22.9C20.3,22.8,20.3,22.8,20.4,22.9C20.3,22.8,20.3,22.8,20.4,22.9c-0.1,0-0.1,0.1-0.1,0.2
						c0,0.1,0.1,0.1,0.1,0.1C20.4,23.1,20.5,23,20.4,22.9C20.5,22.9,20.4,22.9,20.4,22.9C20.4,22.9,20.4,22.9,20.4,22.9z"/>
					<path class="st12" d="M20.5,23.4c-0.3-0.2-0.6,0-0.6,0.3c0,0.3,0.2,0.8,0.6,1c0.3,0.2,0.6,0,0.6-0.3C21,24,20.8,23.6,20.5,23.4
						z"/>
					<path class="st7" d="M20.5,23.4c-0.1,0-0.1,0-0.2-0.1l-0.2,0.5c0.1,0.2,0.1,0.4,0.3,0.6l0.5,0.1c0-0.1,0.1-0.1,0.1-0.2
						C21,24,20.8,23.6,20.5,23.4z"/>
					<path class="st13" d="M20.2,24c0,0.1,0.1,0.2,0.1,0.2c0.2-0.1,0.5-0.1,0.7-0.1c0-0.1-0.1-0.3-0.2-0.4
						C20.6,23.8,20.4,23.9,20.2,24z"/>
					<path class="st7" d="M20.3,23.7c-0.2-0.1-0.4,0-0.4,0.2c0,0.2,0.2,0.6,0.4,0.7c0.2,0.1,0.4,0,0.4-0.2
						C20.7,24.2,20.5,23.8,20.3,23.7z"/>
					<path class="st14" d="M20,24.1c0,0.1,0.1,0.3,0.2,0.4c0.1,0.1,0.2,0,0.2-0.1c0-0.1-0.1-0.3-0.2-0.4C20.1,23.9,20,24,20,24.1z"
						/>
					<path class="st1" d="M21.2,21.5c-0.5-0.3-1-0.3-1.3-0.1l0,0l-0.1,0.1l0,0C20.1,21.2,20.5,21.3,21.2,21.5c1,0.7,1.8,2.1,1.8,3.3
						c0,0.6-0.2,1-0.5,1.2l0,0l0,0c0,0,0,0,0,0l-0.8,0.5l0,0l0.9-0.5c0,0,0,0,0,0l0,0l0,0c0.3-0.2,0.5-0.6,0.5-1.2
						C23.1,23.6,22.2,22.1,21.2,21.5z"/>
					<path class="st1" d="M20.7,21.8c-0.5-0.3-1-0.3-1.3-0.1l0,0l-0.1,0.1l0,0C19.6,21.5,20.1,21.5,20.7,21.8c1,0.7,1.8,2.1,1.8,3.3
						c0,0.6-0.2,1-0.5,1.2l0,0l0,0c0,0,0,0,0,0l-0.4,0.2l0,0l0.5-0.3c0,0,0,0,0,0l0,0l0,0c0.3-0.2,0.5-0.6,0.5-1.2
						C22.6,23.8,21.8,22.4,20.7,21.8z"/>
				</g>
				<g>
					<polygon class="st15" points="14.2,19.6 14.2,19.8 15.1,19.5 16.8,18.5 15.8,18.8 					"/>
					<polygon class="st16" points="14.2,19.6 15.1,19.3 16.8,18.3 15.8,18.6 					"/>
					<polygon class="st15" points="15.1,19.5 22.2,23.6 23.9,22.6 16.8,18.5 					"/>
					<polygon class="st15" points="22.9,24.9 23.1,24.9 23.6,22.4 22,23.4 					"/>
					<polygon class="st17" points="15.1,19.3 22.2,23.4 23.9,22.4 16.8,18.3 					"/>
					<polygon class="st16" points="22.2,23.4 23.1,24.9 24.8,24 23.9,22.4 					"/>
				</g>
			</g>
			<g>
				<g>
					<path class="st1" d="M24.7,15.1c-0.5-0.3-1-0.3-1.3-0.1l0,0l-1.4,0.8l2.7,4.6l1.4-0.8c0,0,0,0,0,0l0,0l0,0
						c0.3-0.2,0.5-0.6,0.5-1.2C26.6,17.2,25.7,15.7,24.7,15.1z"/>
					<path class="st2" d="M24.7,15.1C24.6,15,24.5,15,24.3,15l-1.9,1.1c0,0.2,0,0.5,0.1,0.7l1.4,2.4c0.2,0.2,0.4,0.3,0.6,0.4
						c0.2,0.1,0.3,0.2,0.5,0.2l1.5-0.9c0.1-0.2,0.1-0.4,0.1-0.6C26.6,17.2,25.7,15.7,24.7,15.1z"/>
					<path class="st3" d="M23.3,15.9c-1-0.6-1.9-0.1-1.9,1.1s0.8,2.6,1.9,3.2c1,0.6,1.9,0.1,1.9-1.1C25.2,18,24.3,16.5,23.3,15.9z"
						/>
					<path class="st4" d="M23.3,16c-1-0.6-1.8-0.1-1.8,1c0,1.1,0.8,2.5,1.8,3.1c1,0.6,1.8,0.1,1.8-1C25.1,18,24.3,16.6,23.3,16z"/>
					<path class="st5" d="M23.3,16.5c-0.8-0.5-1.4-0.1-1.4,0.8c0,0.9,0.6,2,1.4,2.4c0.8,0.5,1.4,0.1,1.4-0.8S24.1,16.9,23.3,16.5z"
						/>
					<path class="st6" d="M23.3,16.6c-0.7-0.4-1.3-0.1-1.3,0.7c0,0.8,0.6,1.8,1.3,2.3c0.7,0.4,1.3,0.1,1.3-0.7
						C24.6,18,24,17,23.3,16.6z"/>
					<path class="st7" d="M23.3,16.6L22,17.3c0,0.8,0.6,1.8,1.3,2.2c0.1,0.1,0.2,0.1,0.3,0.1l1-0.6c0-0.1,0-0.2,0-0.3
						C24.6,18,24,17,23.3,16.6z"/>
					<path class="st8" d="M22.2,18.3c0.2,0.4,0.4,0.8,0.8,1l1.6-0.9c-0.1-0.4-0.3-0.8-0.5-1.2L22.2,18.3z"/>
					<path class="st8" d="M22.2,18.3c0.2,0.4,0.4,0.8,0.8,1l1.6-0.9c-0.1-0.4-0.3-0.8-0.5-1.2L22.2,18.3z"/>
					<path class="st9" d="M23.5,16.7c-0.6-0.3-1-0.1-1,0.6c0,0.7,0.5,1.5,1,1.8c0.6,0.3,1,0.1,1-0.6S24,17,23.5,16.7z"/>
					<path class="st10" d="M23.5,16.8c-0.5-0.3-0.9-0.1-0.9,0.5c0,0.6,0.4,1.3,0.9,1.5c0.5,0.3,0.9,0.1,0.9-0.5
						C24.4,17.8,24,17.1,23.5,16.8z"/>
					<path class="st11" d="M24,17.2c0,0.1,0,0.1,0.1,0.2c0,0,0.1,0,0.1,0C24.1,17.3,24.1,17.3,24,17.2C24,17.2,24,17.2,24,17.2z"/>
					<path class="st11" d="M22.6,17.6c-0.1,0-0.1,0.1,0,0.2c0.1,0.1,0.2,0.1,0.2,0.1c0.1,0,0.1-0.1,0-0.2
						C22.8,17.7,22.7,17.6,22.6,17.6z"/>
					<path class="st11" d="M24.2,18.4c0,0.1,0.1,0.2,0.2,0.3c0.1,0,0.1,0,0.1-0.1c0-0.1-0.1-0.2-0.2-0.3S24.2,18.3,24.2,18.4z"/>
					<path class="st11" d="M23,16.7c0,0.1,0,0.2,0,0.3c0.1,0.1,0.1,0.1,0.1,0c0-0.1,0-0.2,0-0.3C23.1,16.7,23,16.7,23,16.7z"/>
					<path class="st11" d="M24.2,17.6c-0.1,0-0.1,0.1,0,0.2c0,0,0.1,0.1,0.2,0.1C24.3,17.7,24.3,17.6,24.2,17.6
						C24.2,17.6,24.2,17.6,24.2,17.6z"/>
					<path class="st11" d="M24,18.6c0,0.1,0,0.2,0.1,0.3c0.1,0.1,0.1,0.1,0.1,0c0-0.1,0-0.2-0.1-0.3C24.1,18.5,24,18.5,24,18.6z"/>
					<path class="st11" d="M24.3,18c-0.1,0-0.1,0-0.1,0.1c0,0.1,0.2,0.2,0.2,0.2c0,0,0,0,0,0c0-0.1,0-0.2-0.1-0.3
						C24.4,18,24.3,18,24.3,18z"/>
					<path class="st11" d="M22.7,18.1c-0.1,0,0,0.1,0,0.2s0.2,0.1,0.2,0c0.1,0,0-0.1,0-0.2C22.9,18.1,22.8,18,22.7,18.1z"/>
					<path class="st11" d="M23.5,18.6c-0.1,0-0.1,0.1-0.1,0.2c0,0.1,0.1,0.1,0.1,0.1c0.1,0,0.1-0.1,0.1-0.2
						C23.6,18.6,23.5,18.6,23.5,18.6z"/>
					<path class="st11" d="M23.8,18.7c0,0.1-0.1,0.2,0,0.3c0,0.1,0.1,0.1,0.1,0.1c0-0.1,0.1-0.2,0-0.3
						C23.9,18.6,23.8,18.6,23.8,18.7z"/>
					<path class="st11" d="M23.2,18.4c-0.1,0-0.2,0-0.2,0.1c0,0.1,0,0.1,0.1,0.2c0.1,0,0.2,0,0.2-0.1C23.3,18.5,23.3,18.4,23.2,18.4
						z"/>
					<path class="st11" d="M22.7,17c0,0.1,0.1,0.2,0.1,0.3c0.1,0.1,0.1,0,0.1-0.1c0-0.1-0.1-0.2-0.1-0.3
						C22.8,16.9,22.7,16.9,22.7,17z"/>
					<path class="st11" d="M23.7,17c0,0.1,0,0.2,0.1,0.1c0,0,0.1,0,0.1-0.1c-0.1-0.1-0.1-0.1-0.2-0.2C23.7,16.9,23.7,17,23.7,17z"/>
					<path class="st11" d="M22.7,17.2c-0.1,0-0.1,0-0.1,0.1c0,0.1,0.1,0.2,0.2,0.2c0.1,0,0.1,0,0.1-0.1
						C22.8,17.4,22.7,17.3,22.7,17.2z"/>
					<path class="st11" d="M23.5,16.7C23.4,16.7,23.4,16.7,23.5,16.7C23.4,16.7,23.4,16.7,23.5,16.7c-0.1,0-0.1,0.1-0.1,0.2
						c0,0.1,0.1,0.1,0.1,0.1C23.5,17,23.6,16.9,23.5,16.7C23.5,16.8,23.5,16.8,23.5,16.7C23.5,16.7,23.5,16.7,23.5,16.7z"/>
					<path class="st12" d="M23.6,17.2c-0.3-0.2-0.6,0-0.6,0.3c0,0.3,0.2,0.8,0.6,1c0.3,0.2,0.6,0,0.6-0.3
						C24.1,17.8,23.9,17.4,23.6,17.2z"/>
					<path class="st7" d="M23.6,17.2c-0.1,0-0.1,0-0.2-0.1l-0.2,0.5c0.1,0.3,0.1,0.4,0.3,0.6l0.5,0.1c0-0.1,0.1-0.1,0.1-0.2
						C24.1,17.8,23.9,17.4,23.6,17.2z"/>
					<path class="st13" d="M23.3,17.9c0,0.1,0.1,0.2,0.1,0.2c0.2-0.1,0.4-0.1,0.7-0.1c0-0.1-0.1-0.3-0.2-0.4
						C23.7,17.7,23.5,17.8,23.3,17.9z"/>
					<path class="st7" d="M23.4,17.6c-0.2-0.1-0.4,0-0.4,0.2s0.2,0.6,0.4,0.7c0.2,0.1,0.4,0,0.4-0.2C23.8,18,23.6,17.7,23.4,17.6z"
						/>
					<path class="st14" d="M23.1,17.9c0,0.1,0.1,0.3,0.2,0.4c0.1,0.1,0.2,0,0.2-0.1s-0.1-0.3-0.2-0.4C23.2,17.8,23.1,17.8,23.1,17.9
						z"/>
					<path class="st1" d="M24.2,15.4c-0.5-0.3-1-0.3-1.3-0.1l0,0l-0.1,0.1l0,0C23.2,15.1,23.6,15.1,24.2,15.4c1,0.7,1.8,2.1,1.8,3.3
						c0,0.6-0.2,1-0.5,1.2l0,0l0,0c0,0,0,0,0,0l-0.8,0.5l0,0l0.9-0.5c0,0,0,0,0,0l0,0l0,0c0.3-0.2,0.5-0.6,0.5-1.2
						C26.1,17.4,25.3,16,24.2,15.4z"/>
					<path class="st1" d="M23.8,15.6c-0.5-0.3-1-0.3-1.3-0.1l0,0l-0.1,0.1l0,0C22.7,15.3,23.2,15.4,23.8,15.6c1,0.7,1.8,2.1,1.8,3.3
						c0,0.6-0.2,1-0.5,1.2l0,0l0,0c0,0,0,0,0,0l-0.4,0.2l0,0l0.5-0.3c0,0,0,0,0,0l0,0l0,0c0.3-0.2,0.5-0.6,0.5-1.2
						C25.7,17.7,24.9,16.2,23.8,15.6z"/>
				</g>
				<g>
					<path class="st1" d="M28.4,17.3c-0.5-0.3-1-0.3-1.3-0.1l0,0L25.7,18l2.7,4.6l1.4-0.8c0,0,0,0,0,0l0,0l0,0
						c0.3-0.2,0.5-0.6,0.5-1.2C30.3,19.4,29.5,17.9,28.4,17.3z"/>
					<path class="st2" d="M28.4,17.3c-0.1-0.1-0.2-0.1-0.3-0.2l-1.9,1.1c0,0.2,0,0.5,0.1,0.7l1.4,2.4c0.2,0.2,0.4,0.3,0.6,0.4
						c0.2,0.1,0.3,0.2,0.5,0.2l1.5-0.9c0.1-0.2,0.1-0.4,0.1-0.6C30.3,19.4,29.5,17.9,28.4,17.3z"/>
					<path class="st3" d="M27,18.1c-1-0.6-1.9-0.1-1.9,1.1c0,1.2,0.8,2.6,1.9,3.2c1,0.6,1.9,0.1,1.9-1.1S28.1,18.7,27,18.1z"/>
					<path class="st4" d="M27,18.2c-1-0.6-1.8-0.1-1.8,1s0.8,2.5,1.8,3.1c1,0.6,1.8,0.1,1.8-1S28.1,18.8,27,18.2z"/>
					<path class="st5" d="M27,18.7c-0.8-0.5-1.4-0.1-1.4,0.8c0,0.9,0.6,2,1.4,2.4c0.8,0.5,1.4,0.1,1.4-0.8
						C28.5,20.2,27.8,19.1,27,18.7z"/>
					<path class="st6" d="M27,18.8c-0.7-0.4-1.3-0.1-1.3,0.7c0,0.8,0.6,1.8,1.3,2.3c0.7,0.4,1.3,0.1,1.3-0.7
						C28.4,20.2,27.8,19.2,27,18.8z"/>
					<path class="st7" d="M27.1,18.8l-1.3,0.8c0,0.8,0.6,1.8,1.3,2.2c0.1,0.1,0.2,0.1,0.3,0.1l1-0.6c0-0.1,0-0.2,0-0.3
						C28.4,20.2,27.8,19.2,27.1,18.8z"/>
					<path class="st8" d="M26,20.5c0.2,0.4,0.4,0.8,0.8,1l1.6-0.9c-0.1-0.4-0.3-0.8-0.5-1.2L26,20.5z"/>
					<path class="st8" d="M26,20.5c0.2,0.4,0.4,0.8,0.8,1l1.6-0.9c-0.1-0.4-0.3-0.8-0.5-1.2L26,20.5z"/>
					<path class="st9" d="M27.2,18.9c-0.6-0.3-1-0.1-1,0.6c0,0.7,0.5,1.5,1,1.8c0.6,0.3,1,0.1,1-0.6C28.2,20,27.8,19.2,27.2,18.9z"
						/>
					<path class="st10" d="M27.2,19c-0.5-0.3-0.9-0.1-0.9,0.5c0,0.6,0.4,1.3,0.9,1.5c0.5,0.3,0.9,0.1,0.9-0.5
						C28.1,20,27.7,19.3,27.2,19z"/>
					<path class="st11" d="M27.7,19.4c0,0.1,0,0.1,0.1,0.2c0,0,0.1,0,0.1,0C27.9,19.5,27.8,19.5,27.7,19.4
						C27.7,19.4,27.7,19.4,27.7,19.4z"/>
					<path class="st11" d="M26.4,19.8c-0.1,0-0.1,0.1,0,0.2c0.1,0.1,0.2,0.1,0.2,0.1c0.1,0,0.1-0.1,0-0.2S26.4,19.8,26.4,19.8z"/>
					<path class="st11" d="M27.9,20.6c0,0.1,0.1,0.2,0.2,0.3s0.1,0,0.1-0.1c0-0.1-0.1-0.2-0.2-0.3C27.9,20.5,27.9,20.5,27.9,20.6z"
						/>
					<path class="st11" d="M26.8,18.9c0,0.1,0,0.2,0,0.3c0.1,0.1,0.1,0.1,0.1,0c0-0.1,0-0.2,0-0.3C26.9,18.9,26.8,18.9,26.8,18.9z"
						/>
					<path class="st11" d="M27.9,19.8c-0.1,0-0.1,0.1,0,0.2c0,0,0.1,0.1,0.2,0.1C28.1,19.9,28,19.8,27.9,19.8
						C28,19.8,27.9,19.8,27.9,19.8z"/>
					<path class="st11" d="M27.7,20.8c0,0.1,0,0.2,0.1,0.3s0.1,0.1,0.1,0c0-0.1,0-0.2-0.1-0.3C27.8,20.7,27.8,20.7,27.7,20.8z"/>
					<path class="st11" d="M28,20.2c-0.1,0-0.1,0-0.1,0.1c0,0.1,0.2,0.2,0.2,0.2c0,0,0,0,0,0c0-0.1,0-0.2-0.1-0.3
						C28.1,20.2,28.1,20.2,28,20.2z"/>
					<path class="st11" d="M26.5,20.3c-0.1,0,0,0.1,0,0.2c0.1,0.1,0.2,0.1,0.2,0s0-0.1,0-0.2C26.6,20.3,26.5,20.2,26.5,20.3z"/>
					<path class="st11" d="M27.2,20.8c-0.1,0-0.1,0.1-0.1,0.2c0,0.1,0.1,0.1,0.1,0.1c0.1,0,0.1-0.1,0.1-0.2
						C27.3,20.8,27.3,20.8,27.2,20.8z"/>
					<path class="st11" d="M27.5,20.9c0,0.1-0.1,0.2,0,0.3c0,0.1,0.1,0.1,0.1,0.1c0-0.1,0.1-0.2,0-0.3
						C27.6,20.8,27.5,20.8,27.5,20.9z"/>
					<path class="st11" d="M26.9,20.6c-0.1,0-0.2,0-0.2,0.1c0,0.1,0,0.1,0.1,0.2c0.1,0,0.2,0,0.2-0.1C27,20.7,27,20.6,26.9,20.6z"/>
					<path class="st11" d="M26.5,19.2c0,0.1,0.1,0.2,0.1,0.3c0.1,0.1,0.1,0,0.1-0.1c0-0.1-0.1-0.2-0.1-0.3
						C26.5,19.1,26.5,19.1,26.5,19.2z"/>
					<path class="st11" d="M27.4,19.2c0,0.1,0,0.2,0.1,0.1c0,0,0.1,0,0.1-0.1c-0.1-0.1-0.1-0.1-0.2-0.2
						C27.4,19.1,27.4,19.2,27.4,19.2z"/>
					<path class="st11" d="M26.4,19.4c-0.1,0-0.1,0-0.1,0.1s0.1,0.2,0.2,0.2c0.1,0,0.1,0,0.1-0.1C26.6,19.6,26.5,19.5,26.4,19.4z"/>
					<path class="st11" d="M27.2,18.9C27.2,18.9,27.2,18.9,27.2,18.9C27.2,18.9,27.1,18.9,27.2,18.9c-0.1,0-0.1,0.1-0.1,0.2
						c0,0.1,0.1,0.1,0.1,0.1C27.3,19.2,27.3,19.1,27.2,18.9C27.3,19,27.3,19,27.2,18.9C27.3,18.9,27.2,18.9,27.2,18.9z"/>
					<path class="st12" d="M27.3,19.4c-0.3-0.2-0.6,0-0.6,0.3c0,0.3,0.2,0.8,0.6,1c0.3,0.2,0.6,0,0.6-0.3
						C27.9,20,27.6,19.6,27.3,19.4z"/>
					<path class="st7" d="M27.3,19.4c-0.1,0-0.1,0-0.2-0.1L27,19.9c0.1,0.2,0.1,0.4,0.3,0.6l0.5,0.1c0-0.1,0.1-0.1,0.1-0.2
						C27.9,20,27.6,19.6,27.3,19.4z"/>
					<path class="st13" d="M27,20.1c0,0.1,0.1,0.2,0.1,0.2c0.2-0.1,0.5-0.1,0.7-0.1c0-0.1-0.1-0.3-0.2-0.4
						C27.4,19.9,27.2,20,27,20.1z"/>
					<path class="st7" d="M27.1,19.8c-0.2-0.1-0.4,0-0.4,0.2c0,0.2,0.2,0.6,0.4,0.7c0.2,0.1,0.4,0,0.4-0.2S27.4,19.9,27.1,19.8z"/>
					<path class="st14" d="M26.9,20.1c0,0.1,0.1,0.3,0.2,0.4c0.1,0.1,0.2,0,0.2-0.1c0-0.1-0.1-0.3-0.2-0.4C27,20,26.9,20,26.9,20.1z
						"/>
					<path class="st1" d="M28,17.6c-0.5-0.3-1-0.3-1.3-0.1l0,0l-0.1,0.1l0,0C26.9,17.3,27.4,17.3,28,17.6c1,0.7,1.8,2.1,1.8,3.3
						c0,0.6-0.2,1-0.5,1.2l0,0l0,0c0,0,0,0,0,0l-0.8,0.5l0,0l0.9-0.5c0,0,0,0,0,0l0,0l0,0c0.3-0.2,0.5-0.6,0.5-1.2
						C29.9,19.6,29,18.2,28,17.6z"/>
					<path class="st1" d="M27.6,17.8c-0.5-0.3-1-0.3-1.3-0.1l0,0l-0.1,0.1l0,0C26.5,17.5,26.9,17.6,27.6,17.8c1,0.7,1.8,2.1,1.8,3.3
						c0,0.6-0.2,1-0.5,1.2l0,0l0,0c0,0,0,0,0,0l-0.4,0.2l0,0l0.5-0.3c0,0,0,0,0,0l0,0l0,0c0.3-0.2,0.5-0.6,0.5-1.2
						C29.5,19.9,28.6,18.4,27.6,17.8z"/>
				</g>
				<g>
					<polygon class="st15" points="21,15.7 21,15.9 21.9,15.5 23.6,14.6 22.7,14.9 					"/>
					<polygon class="st16" points="21,15.7 21.9,15.3 23.6,14.4 22.7,14.7 					"/>
					<polygon class="st15" points="21.9,15.5 29.1,19.6 30.7,18.7 23.6,14.6 					"/>
					<polygon class="st15" points="29.7,21 30,21 30.5,18.4 28.8,19.4 					"/>
					<polygon class="st17" points="21.9,15.3 29.1,19.4 30.7,18.4 23.6,14.4 					"/>
					<polygon class="st16" points="29.1,19.4 30,21 31.7,20 30.7,18.4 					"/>
				</g>
			</g>
			<g>
				<g>
					<g>
						<g>
							<polygon class="st18" points="10.5,1.5 11.8,4.6 12.7,4.1 11.4,1 							"/>
							<polygon class="st19" points="10.8,1.6 12,4.4 12.6,4 11.4,1.3 							"/>
							<polygon class="st8" points="10.8,1.6 11.4,1.3 11.4,1 10.5,1.5 							"/>
							<polygon class="st20" points="12,4.4 11.8,4.6 12.7,4.1 12.6,4 							"/>
						</g>
						<path class="st18" d="M12.2,4.5c-0.3,0.2-0.5,0.5-0.5,0.8c0,0.3,0.2,0.4,0.5,0.2c0.3-0.2,0.5-0.5,0.5-0.8
							C12.7,4.4,12.5,4.3,12.2,4.5z"/>
						<path class="st20" d="M12.1,5.5c0,0,0.1,0,0.1-0.1c0.1-0.1,0.2-0.1,0.3-0.2c0,0-0.1,0-0.2,0.1C12.2,5.4,12.1,5.4,12.1,5.5z"/>
						<path class="st8" d="M12.2,4.5c-0.1,0-0.2,0.1-0.2,0.2c0.1,0.1,0.2,0.2,0.3,0.2c0.2,0,0.3-0.2,0.3-0.4c0,0,0,0,0,0
							C12.5,4.4,12.4,4.4,12.2,4.5z"/>
						<path class="st19" d="M12.3,4.7C12.1,4.8,12,5,12,5.2c0,0.2,0.1,0.3,0.3,0.1c0.2-0.1,0.3-0.4,0.3-0.5S12.5,4.5,12.3,4.7z"/>
						<g>
							<polygon class="st21" points="12.2,3.5 12.2,3.8 12.3,3.9 12.5,3.8 12.5,3.4 12.3,3.5 							"/>
							<polygon class="st18" points="12.3,3.8 12.5,3.7 12.5,3.3 12.3,3.4 							"/>
							<polygon class="st8" points="12.2,3.4 12.3,3.4 12.5,3.3 12.4,3.3 							"/>
							<polygon class="st20" points="12.2,3.7 12.3,3.8 12.3,3.4 12.2,3.4 							"/>
						</g>
						<g>
							<polygon class="st21" points="12.2,5 12.2,5.2 12.3,5.2 12.5,5.1 12.5,4.9 12.3,5 							"/>
							<polygon class="st18" points="12.3,5.1 12.5,5 12.5,4.8 12.3,4.9 							"/>
							<polygon class="st8" points="12.2,4.9 12.3,4.9 12.5,4.8 12.4,4.8 							"/>
							<polygon class="st20" points="12.2,5.1 12.3,5.1 12.3,4.9 12.2,4.9 							"/>
						</g>
						<g>
							<polygon class="st22" points="10.3,0.7 10.3,0.8 11.1,0.6 12.3,5.5 11.5,6.2 11.5,6.4 12.4,5.6 11.2,0.5 							"/>
						</g>
					</g>
					<g>
						<polygon class="st23" points="0.3,10.9 0.3,10.1 0,10.8 						"/>
						<g>
							<path class="st24" d="M6,14.6v-2.1c0-0.1,0.1-0.2,0.1-0.2c0.1,0,0.2,0,0.3,0l0.1,0l0,0l-0.1,0c-0.1-0.1-0.2-0.1-0.3,0
								C6,12.3,6,12.4,6,12.6L6,14.6c-0.1,0.2,0,0.4,0.2,0.5l0.3,0.2l0,0L6.3,15C6.1,14.9,6,14.8,6,14.6z"/>
						</g>
						<path class="st25" d="M4.6,12.5c-0.4-0.2-0.8-0.3-1.1-0.3V14l3.2,1.8C6.6,14.6,5.7,13.1,4.6,12.5z"/>
						<polygon class="st26" points="0.3,8.7 0.3,11.9 6.5,15.5 6.5,8.3 1.8,5.5 						"/>
						<path class="st27" d="M1.7,5.6l-0.9,2l0.2,1.1l3,1.9c1,0.6,2.4-0.1,2.4-1.3V8.8c0-0.3-0.1-0.5-0.4-0.6L1.7,5.6z"/>
						
							<linearGradient id="SVGID_1_" gradientUnits="userSpaceOnUse" x1="-1169.7773" y1="13.184" x2="-1167.7097" y2="8.5769" gradientTransform="matrix(1 0 0 1 1171.6968 0)">
							<stop  offset="8.374380e-02" style="stop-color:#425F73"/>
							<stop  offset="0.6181" style="stop-color:#313F4A"/>
							<stop  offset="0.9409" style="stop-color:#262E36"/>
						</linearGradient>
						<path class="st28" d="M4.3,10.3l0-1.7L3.7,8.8L3,9.3L2.8,9.4C2.6,9.4,2.5,9.5,2.4,9.5l0.7,0.4L4,10.5c0.1,0,0.2,0,0.2,0
							C4.3,10.4,4.3,10.3,4.3,10.3z"/>
						<path class="st29" d="M3.6,10.8c-0.1,0.1-0.1,0.3-0.1,0.3l0.6,0.4V11C4.1,11,3.7,10.7,3.6,10.8z"/>
						
							<linearGradient id="SVGID_2_" gradientUnits="userSpaceOnUse" x1="-1170.2957" y1="10.7079" x2="-1168.6887" y2="10.7079" gradientTransform="matrix(1 0 0 1 1171.6968 0)">
							<stop  offset="8.374380e-02" style="stop-color:#425F73"/>
							<stop  offset="0.9409" style="stop-color:#384B60"/>
						</linearGradient>
						<path class="st30" d="M1.6,9.7l1.1,0.7C2.9,10.5,3,10.6,3,10.8v0.8c0,0.1-0.2,0.2-0.3,0.2L1.6,11c-0.1-0.1-0.2-0.2-0.2-0.3
							V9.9C1.4,9.7,1.5,9.7,1.6,9.7z"/>
						<g>
							<path class="st24" d="M2,5.8L1,7.9v3.2l3.7,2.1l0-5.9L2,5.8L2,5.8z M4.6,7.4l0,5.8L1,11.1V7.9l1-2L4.6,7.4z"/>
						</g>
						<path class="st31" d="M0,11.8c0,0.5,0.3,1,0.7,1.2l3.9,2.2l0-0.2v-1.6L0,10.8V11.8z"/>
						<polygon class="st23" points="0,10.8 0,10.9 3.5,12.9 3.5,12.8 0.3,10.9 						"/>
						<polygon class="st32" points="1.3,13.1 3.9,14.6 3.9,14.1 1.3,12.6 						"/>
						<polygon class="st32" points="1.3,12.5 1.3,12.5 3.9,14 3.9,13.5 1.3,12 						"/>
						<path class="st33" d="M1.3,13.1l1.5,0.7c0.3,0,0.6,0.1,0.7,0.3l0.4,0.5v-0.5l-2.6-1.5V13.1z"/>
						<path class="st33" d="M1.3,12.5l1.4,0.7c0.3,0,0.6,0.1,0.8,0.4L3.9,14v-0.5L1.3,12V12.5z"/>
						<path class="st26" d="M2,4.4c0,0-0.3,0.4-0.3,0.4C1.5,5.1,1.6,5.4,1.8,5.6l4.7,2.7l8.3-4.8l-0.6-0.5L2,4.4z"/>
						<polygon class="st34" points="6.3,7.6 6.5,8.3 14.9,3.5 14.3,2.9 						"/>
						<path class="st35" d="M1.6,4.9C1.5,5.1,1.6,5.3,1.7,5.5c0,0,0,0,0,0c0.1-0.1,0.1-0.2,0.2-0.3C2,5,2,4.9,2,4.9
							c0-0.2,0-0.3,0-0.4l0,0C2,4.4,1.7,4.8,1.6,4.9z"/>
						<path class="st36" d="M13.8,5.8C13.8,5.8,13.8,5.8,13.8,5.8L13.8,5.8L13.8,5.8z"/>
						<g>
							<defs>
								<path id="SVGID_3_" d="M5.8,17.8l-2.2-1.2l-0.7-2.5l-0.1-0.8l0.4-0.9L4.1,12c0.3-0.1,0.7,0,1.1,0.3c1.1,0.6,1.2,1.2,1.9,2.5
									L8.5,14l-0.2,2.2L5.8,17.8z"/>
							</defs>
							<clipPath id="SVGID_4_">
								<use xlink:href="#SVGID_3_"  style="overflow:visible;"/>
							</clipPath>
							<polygon class="st37" points="3.6,12.3 3,13.1 3,14.3 5.4,12.9 5.4,12.3 5.4,12.1 							"/>
							<g class="st38">
								<path class="st1" d="M6.4,12.2c-0.5-0.3-1-0.3-1.3-0.1l0,0l-1.4,0.8l2.7,4.5l1.4-0.8c0,0,0,0,0,0l0,0l0,0
									C8,16.4,8.2,16,8.2,15.4C8.2,14.2,7.4,12.8,6.4,12.2z"/>
								<path class="st2" d="M6.4,12.2C6.2,12.1,6.1,12.1,6,12l-1.9,1.1c0,0.2,0,0.5,0.1,0.7l1.4,2.4c0.2,0.2,0.4,0.3,0.6,0.4
									c0.2,0.1,0.3,0.2,0.5,0.2L8.2,16c0.1-0.2,0.1-0.4,0.1-0.6C8.2,14.2,7.4,12.8,6.4,12.2z"/>
								<path class="st3" d="M5,13c-1-0.6-1.9-0.1-1.9,1.1S4,16.7,5,17.3c1,0.6,1.9,0.1,1.9-1.1C6.9,15,6,13.6,5,13z"/>
								<path class="st4" d="M5,13.1c-1-0.6-1.8-0.1-1.8,1c0,1.1,0.8,2.5,1.8,3.1c1,0.6,1.8,0.1,1.8-1C6.8,15,6,13.6,5,13.1z"/>
								<path class="st5" d="M5,13.5c-0.8-0.4-1.4-0.1-1.4,0.8c0,0.9,0.6,2,1.4,2.4c0.8,0.4,1.4,0.1,1.4-0.8C6.4,15,5.8,14,5,13.5z"
									/>
								<path class="st6" d="M5,13.6c-0.7-0.4-1.3-0.1-1.3,0.7c0,0.8,0.6,1.8,1.3,2.2c0.7,0.4,1.3,0.1,1.3-0.7C6.3,15,5.7,14,5,13.6
									z"/>
								<path class="st7" d="M5,13.6l-1.3,0.8c0,0.8,0.6,1.8,1.3,2.2c0.1,0.1,0.2,0.1,0.3,0.1l1-0.6c0-0.1,0-0.2,0-0.3
									C6.3,15.1,5.7,14.1,5,13.6z"/>
								<path class="st8" d="M3.9,15.3c0.2,0.4,0.4,0.8,0.7,1l1.6-0.9c-0.1-0.4-0.3-0.8-0.5-1.1L3.9,15.3z"/>
								<path class="st8" d="M3.9,15.3c0.2,0.4,0.4,0.8,0.7,1l1.6-0.9c-0.1-0.4-0.3-0.8-0.5-1.1L3.9,15.3z"/>
								<path class="st39" d="M5.1,13.8c-0.6-0.3-1-0.1-1,0.6c0,0.7,0.5,1.4,1,1.8c0.6,0.3,1,0.1,1-0.6S5.7,14.1,5.1,13.8z"/>
								<path class="st10" d="M5.2,13.9c-0.5-0.3-0.9-0.1-0.9,0.5c0,0.6,0.4,1.2,0.9,1.5c0.5,0.3,0.9,0.1,0.9-0.5
									C6.1,14.9,5.7,14.2,5.2,13.9z"/>
								<g>
									<path class="st6" d="M5.6,14.3c0,0.1,0,0.1,0.1,0.2c0,0,0.1,0,0.1,0C5.8,14.4,5.7,14.3,5.6,14.3
										C5.7,14.3,5.7,14.3,5.6,14.3z"/>
									<path class="st6" d="M4.3,14.7c-0.1,0-0.1,0.1,0,0.2C4.4,14.9,4.5,15,4.5,15c0.1,0,0.1-0.1,0-0.2
										C4.5,14.7,4.4,14.7,4.3,14.7z"/>
									<path class="st6" d="M5.9,15.4c0,0.1,0.1,0.2,0.2,0.3c0.1,0,0.1,0,0.1-0.1c0-0.1-0.1-0.2-0.2-0.3S5.8,15.3,5.9,15.4z"/>
									<path class="st6" d="M4.7,13.8c0,0.1,0,0.2,0,0.3c0.1,0.1,0.1,0.1,0.1,0c0-0.1,0-0.2,0-0.3C4.8,13.7,4.7,13.7,4.7,13.8z"/>
									<path class="st6" d="M5.9,14.6c-0.1,0-0.1,0.1,0,0.2c0,0,0.1,0.1,0.2,0.1C6,14.8,6,14.7,5.9,14.6
										C5.9,14.6,5.9,14.6,5.9,14.6z"/>
									<path class="st6" d="M5.7,15.6c0,0.1,0,0.2,0.1,0.3c0.1,0.1,0.1,0.1,0.1,0c0-0.1,0-0.2-0.1-0.3C5.8,15.6,5.7,15.6,5.7,15.6
										z"/>
									<path class="st6" d="M6,15c-0.1,0-0.1,0-0.1,0.1c0,0.1,0.2,0.2,0.2,0.2c0,0,0,0,0,0c0-0.1,0-0.2-0.1-0.3C6.1,15,6,15,6,15z
										"/>
									<path class="st6" d="M4.4,15.1c-0.1,0,0,0.1,0,0.2c0.1,0,0.2,0.1,0.2,0c0.1,0,0-0.1,0-0.2C4.6,15.1,4.5,15.1,4.4,15.1z"/>
									<path class="st6" d="M5.2,15.7c-0.1,0-0.1,0.1-0.1,0.2C5,16,5.1,16,5.2,16c0.1,0,0.1-0.1,0.1-0.2
										C5.3,15.7,5.2,15.6,5.2,15.7z"/>
									<path class="st6" d="M5.4,15.7c0,0.1,0,0.2,0,0.3c0,0.1,0.1,0.1,0.1,0.1c0-0.1,0-0.2,0-0.3C5.5,15.7,5.5,15.7,5.4,15.7z"/>
									<path class="st6" d="M4.9,15.5c-0.1,0-0.2,0-0.2,0.1c0,0.1,0,0.1,0.1,0.2c0.1,0,0.2,0,0.2-0.1C5,15.5,5,15.5,4.9,15.5z"/>
									<path class="st6" d="M4.4,14c0,0.1,0.1,0.2,0.1,0.3c0.1,0.1,0.1,0,0.1-0.1c0-0.1-0.1-0.2-0.1-0.3C4.5,13.9,4.4,13.9,4.4,14
										z"/>
									<path class="st6" d="M5.3,14.1c0,0.1,0,0.1,0.1,0.1c0,0,0.1,0,0.1-0.1C5.5,14.1,5.5,14,5.4,14C5.4,14,5.4,14,5.3,14.1z"/>
									<path class="st6" d="M4.4,14.3c-0.1,0-0.1,0-0.1,0.1c0,0.1,0.1,0.2,0.2,0.2c0.1,0,0.1,0,0.1-0.1
										C4.5,14.4,4.4,14.3,4.4,14.3z"/>
									<path class="st6" d="M5.1,13.8C5.1,13.8,5.1,13.8,5.1,13.8C5.1,13.7,5.1,13.7,5.1,13.8C5,13.8,5,13.9,5,14
										c0,0.1,0.1,0.1,0.1,0.1C5.2,14,5.3,13.9,5.1,13.8C5.2,13.8,5.2,13.8,5.1,13.8C5.2,13.8,5.2,13.8,5.1,13.8z"/>
								</g>
								<path class="st6" d="M5.3,14.3c-0.3-0.2-0.6,0-0.6,0.3c0,0.3,0.2,0.8,0.6,0.9c0.3,0.2,0.6,0,0.6-0.3S5.6,14.5,5.3,14.3z"/>
								<path class="st7" d="M5.3,14.3c-0.1,0-0.1,0-0.2-0.1l-0.2,0.5C5,15,5.1,15.2,5.2,15.4l0.5,0.1c0-0.1,0.1-0.1,0.1-0.2
									C5.8,14.9,5.6,14.5,5.3,14.3z"/>
								<path class="st13" d="M5,14.9C5,15,5,15.1,5.1,15.1C5.3,15.1,5.5,15,5.8,15c0-0.1-0.1-0.3-0.2-0.4C5.4,14.7,5.2,14.8,5,14.9
									z"/>
								<path class="st40" d="M5.1,14.6c-0.2-0.1-0.4,0-0.4,0.2c0,0.2,0.2,0.5,0.4,0.7c0.2,0.1,0.4,0,0.4-0.2S5.3,14.7,5.1,14.6z"/>
								<path class="st14" d="M4.8,15c0,0.1,0.1,0.3,0.2,0.4c0.1,0.1,0.2,0,0.2-0.1c0-0.1-0.1-0.3-0.2-0.4C4.9,14.8,4.8,14.9,4.8,15
									z"/>
								<path class="st1" d="M5.9,12.4c-0.5-0.3-1-0.3-1.3-0.1l0,0l-0.1,0.1l0,0C4.9,12.2,5.3,12.2,5.9,12.4
									c0.9,0.7,1.8,2.1,1.8,3.3c0,0.6-0.2,1-0.5,1.2l0,0l0,0c0,0,0,0,0,0l-0.8,0.5l0,0l0.9-0.5c0,0,0,0,0,0l0,0l0,0
									c0.3-0.2,0.5-0.6,0.5-1.2C7.8,14.5,7,13,5.9,12.4z"/>
								<path class="st1" d="M5.4,12.7c-0.5-0.3-1-0.3-1.3-0.1l0,0L4,12.6l0,0C4.3,12.5,4.8,12.5,5.4,12.7c0.9,0.7,1.8,2.1,1.8,3.3
									c0,0.6-0.2,1-0.5,1.2l0,0l0,0c0,0,0,0,0,0l-0.3,0.2l0,0l0.5-0.3l0,0c0.3-0.2,0.5-0.6,0.5-1.2C7.3,14.8,6.4,13.3,5.4,12.7z"
									/>
							</g>
						</g>
						<polygon class="st41" points="6.5,13.9 7.1,14.8 14.9,10.3 14.9,3.5 6.5,8.3 						"/>
						<path class="st42" d="M2.1,4.3C1.8,4.5,1.8,5,2.1,5.2l4.2,2.4l8-4.6L9.4,0.1L2.1,4.3z"/>
						<path class="st43" d="M14.9,3.5l-5-2.9L14.9,3.5z"/>
						<g>
							<polygon class="st8" points="0.3,11.8 0.3,11.8 0.3,11.8 							"/>
						</g>
						
							<linearGradient id="SVGID_5_" gradientUnits="userSpaceOnUse" x1="-1171.3247" y1="12.4897" x2="-1169.2571" y2="7.8825" gradientTransform="matrix(1 0 0 1 1171.6968 0)">
							<stop  offset="8.374380e-02" style="stop-color:#425F73"/>
							<stop  offset="0.6181" style="stop-color:#313F4A"/>
							<stop  offset="0.9409" style="stop-color:#262E36"/>
						</linearGradient>
						<path class="st44" d="M3.2,7.5L2.5,7.9l0.1,0.2L2.2,8.4C2.1,8.4,2,8.5,1.9,8.5c-0.1,0-0.2,0-0.3-0.1l0.1,0.3L1.6,8.8l-0.1,0
							v0.1C1.4,8.8,1.4,8.7,1.4,8.6h0c0,0,0,0,0,0c0,0,0-0.1,0-0.1c0-0.1,0-0.2,0-0.2c0,0,0,0,0-0.1c0-0.1,0.1-0.2,0.1-0.3
							c0,0,0-0.1,0-0.1c0,0,0-0.1,0.1-0.1c0.1-0.2,0.2-0.5,0.3-0.7C1.9,7,1.9,7,2,6.9C2,6.8,2,6.8,2.1,6.7v0c0,0,0,0,0,0
							c0,0,0,0,0,0c0,0,0,0,0,0c0.1-0.1,0.2-0.2,0.3-0.1L3,6.9v0l0.7,0.4L3.2,7.5z"/>
						
							<linearGradient id="SVGID_6_" gradientUnits="userSpaceOnUse" x1="-1169.3926" y1="8.6706" x2="-1168.7644" y2="6.1583" gradientTransform="matrix(1 0 0 1 1171.6968 0)">
							<stop  offset="0" style="stop-color:#90C0B4"/>
							<stop  offset="0.9409" style="stop-color:#6E787A"/>
						</linearGradient>
						<path class="st45" d="M3.7,7.2L3,6.9v0L2.5,6.5c-0.1-0.1-0.3,0-0.3,0.1c0,0,0,0,0,0c0,0,0,0,0,0c0,0,0,0,0,0v0
							C2,6.8,2,6.8,2,6.9C1.9,7,1.9,7,1.9,7.1C1.8,7.3,1.7,7.5,1.6,7.8c0,0,0,0.1-0.1,0.1c0,0,0,0.1,0,0.1l0,0c0,0,0,0,0,0
							c0,0.2,0,0.3,0.1,0.4c0.1,0.1,0.2,0.1,0.3,0.1c0.1,0,0.2,0,0.3-0.1l0.4-0.2L2.5,7.9l0.8-0.4L3.7,7.2z"/>
						<path class="st46" d="M4.1,7.5C4.1,7.5,4,7.4,4.1,7.5L4.1,7.5L3.9,7.4h0L3.7,7.2L3.2,7.5L2.5,7.9L1.9,8.2v0.2
							c-0.1,0-0.2,0-0.3-0.1l0.1,0.3L1.6,8.8l-0.1,0v0.1C1.5,9,1.6,9,1.6,9.1c0,0,0,0,0.1,0c0,0,0.1,0.1,0.1,0.1l0.1,0.1l0.5,0.3
							c0.1,0,0.2-0.1,0.3-0.1L3,9.3l0.8-0.4l0.6-0.3l0-0.7C4.3,7.7,4.2,7.5,4.1,7.5z"/>
						<path class="st17" d="M5.4,12.3c-0.5-0.3-1-0.4-1.4-0.3c-0.1,0-0.5,0.2-0.6,0.3c0.4-0.1,1.1-0.2,1.7,0.1
							c0.9,0.5,1.6,1.6,2,2.7L7.4,15C7,13.9,6.3,12.8,5.4,12.3z"/>
						<path class="st1" d="M5.1,12.5c-1.2-0.7-2.2-0.2-2.2,1.3c0,0,0,0.4,0,0.4L3,14.3v-0.5c0-0.9,0.4-1.4,1-1.4
							c0.3,0,0.6,0.1,0.9,0.3c0.7,0.4,1.4,1.3,1.8,2.3l0.1,0.2l0.2,0C6.7,14.1,6,13,5.1,12.5z"/>
					</g>
					<g>
						<g>
							<polygon class="st18" points="0.2,9.6 1.1,9.1 1.1,6.8 0.2,7.3 							"/>
							<g>
								<polygon class="st1" points="2.2,5.9 2.1,5.8 0.5,6.8 0.5,10.3 1.4,11.2 1.4,11 0.6,10.3 0.6,7 								"/>
							</g>
							<polygon class="st19" points="0.4,9.4 1,9 1,7 0.4,7.4 							"/>
							<polygon class="st8" points="0.4,7.4 1,7 1.1,6.8 0.2,7.3 							"/>
							<polygon class="st20" points="0.4,9.4 0.2,9.6 1.1,9.1 1,9 							"/>
						</g>
						<path class="st18" d="M0.6,9.5C0.4,9.6,0.2,10,0.2,10.3c0,0.3,0.2,0.4,0.5,0.2c0.3-0.2,0.5-0.5,0.5-0.8
							C1.1,9.4,0.9,9.3,0.6,9.5z"/>
						<path class="st20" d="M0.5,10.5c0,0,0.1,0,0.1-0.1c0.1-0.1,0.2-0.1,0.3-0.2c0,0-0.1,0-0.2,0.1C0.6,10.4,0.6,10.4,0.5,10.5z"/>
						<path class="st8" d="M0.6,9.5c-0.1,0-0.2,0.1-0.2,0.2c0.1,0.1,0.2,0.2,0.3,0.2C0.9,9.9,1,9.7,1,9.5c0,0,0,0,0,0
							C0.9,9.4,0.8,9.4,0.6,9.5z"/>
						<path class="st19" d="M0.7,9.7C0.6,9.8,0.4,10,0.4,10.2c0,0.2,0.1,0.3,0.3,0.1c0.2-0.1,0.3-0.4,0.3-0.5S0.9,9.5,0.7,9.7z"/>
					</g>
				</g>
				<path class="st47" d="M8.9,2.5c-0.2-0.1-0.4-0.1-0.4,0c-0.1,0.1,0,0.3,0.2,0.4C8.9,3,9.1,3,9.2,2.9C9.2,2.8,9.1,2.7,8.9,2.5z"/>
				<path class="st47" d="M7.6,3.3c-0.2-0.1-0.4-0.1-0.4,0c-0.1,0.1,0,0.3,0.2,0.4c0.2,0.1,0.4,0.1,0.4,0S7.8,3.4,7.6,3.3z"/>
				<path class="st47" d="M6.3,4.1C6.1,4,5.9,3.9,5.9,4c-0.1,0.1,0,0.3,0.2,0.4c0.2,0.1,0.4,0.1,0.4,0C6.6,4.3,6.5,4.2,6.3,4.1z"/>
				<path class="st48" d="M9.1,2.5C9,2.4,8.8,2.4,8.7,2.5c-0.1,0.1,0,0.3,0.2,0.4C9.1,3,9.3,3,9.4,2.9C9.4,2.8,9.3,2.7,9.1,2.5z"/>
				<path class="st48" d="M7.8,3.3c-0.2-0.1-0.4-0.1-0.4,0c-0.1,0.1,0,0.3,0.2,0.4c0.2,0.1,0.4,0.1,0.4,0S8,3.4,7.8,3.3z"/>
				<path class="st48" d="M6.5,4.1C6.3,4,6.1,3.9,6.1,4C6,4.1,6.1,4.3,6.3,4.4c0.2,0.1,0.4,0.1,0.4,0C6.8,4.3,6.7,4.2,6.5,4.1z"/>
				<path class="st49" d="M6.5,4.1C6.4,4,6.3,4,6.2,4.1c0,0.1,0,0.1,0.1,0.2c0.1,0.1,0.2,0.1,0.2,0C6.6,4.2,6.5,4.1,6.5,4.1z"/>
				<path class="st49" d="M7.8,3.3c-0.1-0.1-0.2-0.1-0.2,0c0,0.1,0,0.1,0.1,0.2c0.1,0.1,0.2,0.1,0.2,0C7.9,3.4,7.9,3.4,7.8,3.3z"/>
				<path class="st49" d="M9.1,2.5C9,2.5,8.9,2.5,8.9,2.5c0,0.1,0,0.1,0.1,0.2c0.1,0.1,0.2,0.1,0.2,0C9.3,2.7,9.2,2.6,9.1,2.5z"/>
			</g>
			<g>
				<path class="st50" d="M13.9,17l-1.5-0.9c-0.1,0-0.1-0.1-0.2-0.1c-0.1,0-0.2-0.1-0.3-0.1c-0.1,0,0.5,0.5,0.4,0.6L8.8,15
					c-0.2,0.1-0.4,0.3-0.5,0.4c-0.2,0.2-0.3,0.5-0.4,0.7c0,0.1-0.1,0.3-0.1,0.4c0,0.1,0,0.1,0,0.2C7.9,16.9,7.9,17,8,17
					c0.1,0.1,3.3,2,3.4,2.1l0,0l1.4,0.8l0.2-0.2l0.3-0.5l0.5-0.7l0.4-0.6l0.2-0.3l0.2-0.3l-0.3-0.2L13.9,17z"/>
				<path class="st51" d="M12.4,16.1c-0.1,0-0.1-0.1-0.2-0.1c-0.1,0-0.2-0.1-0.3-0.1c-0.1,0,0.5,0.5,0.4,0.6L8.8,15
					c-0.2,0.1-0.4,0.3-0.5,0.4c-0.2,0.2-0.3,0.5-0.4,0.7c0,0.1-0.1,0.3-0.1,0.4c0,0.1,0,0.1,0,0.2l5.1,2.8l0.3-0.5l0.5-0.7l0.4-0.6
					l-0.2-1L12.4,16.1z"/>
				<path class="st52" d="M13.9,17l-1.5-0.9c-0.1,0-0.1-0.1-0.2-0.1c-0.1,0-0.2-0.1-0.3-0.1c-0.1,0,0.5,0.5,0.4,0.6L8.8,15
					c-0.2,0.1-0.4,0.3-0.5,0.4c-0.2,0.2-0.3,0.5-0.4,0.7l5.4,3l0.5-0.7l0.4-0.6l0.2-0.3l-0.1-0.5L13.9,17z"/>
				<path class="st53" d="M13.9,17l-1.5-0.9c-0.1,0-2.5-1.5-2.5-1.5C9,14.7,8.8,15,8.8,15c-0.2,0.1-0.4,0.3-0.5,0.4l5.5,3.1l0.4-0.6
					l0.2-0.3l0.2-0.3l-0.3-0.2L13.9,17z"/>
				<path class="st54" d="M13.8,17.4l-0.5,0.3c-0.6,0.3-0.9,0.9-0.9,1.6c0,0.6,0.6,1,1.2,0.7l0.5-0.3c0.6-0.3,0.9-0.9,0.9-1.6
					C15,17.4,14.3,17.1,13.8,17.4z"/>
				<path class="st55" d="M14,18.9l-0.5,0.3c-0.4,0.2-0.8,0.1-1-0.2c0,0.1,0,0.2,0,0.3c0,0.6,0.6,1,1.2,0.7l0.5-0.3
					c0.6-0.3,0.9-0.9,0.9-1.6c0-0.2-0.1-0.3-0.1-0.4C14.7,18.1,14.4,18.6,14,18.9z"/>
				<g>
					<polygon class="st56" points="8.5,14.7 21.9,22.5 28,18.9 8.5,14.1 					"/>
					<polygon class="st2" points="8.5,14.1 21.9,21.9 28.8,17.9 15.4,10.1 					"/>
				</g>
			</g>
			<path class="st57" d="M24.4,25.4l0.3,0.2l6.1-4.4v-2.5l-6.4,3.7V25.4z M24.7,22.4l5.8-3.3v1.8l-5.8,3.3V22.4z"/>
			<path class="st58" d="M24.7,25.5l6.4-3.7v-3.1l-6.4,3.7V25.5z M25,22.6l5.8-3.3V21L25,24.4V22.6z"/>
			<g>
				<path class="st53" d="M25.7,24.1l-0.5,0.3c-0.1,0.1-0.2,0.2-0.2,0.3v0.5c0,0.1,0.1,0.1,0.2,0.1l0.5-0.3c0.1-0.1,0.2-0.2,0.2-0.3
					v-0.5C25.8,24,25.7,24,25.7,24.1z"/>
				<path class="st59" d="M25,25L25,25c0,0.1,0.1,0.2,0.2,0.1l0.5-0.3c0.1-0.1,0.2-0.2,0.2-0.3v-0.1l-0.4,0L25,25z"/>
				<path class="st60" d="M25.7,24.1l-0.5,0.3c-0.1,0.1-0.2,0.2-0.2,0.3v0.1l0.4,0l0.4-0.4v-0.1C25.8,24,25.7,24,25.7,24.1z"/>
				<path class="st61" d="M25.3,24.3c-0.2,0.1-0.3,0.4-0.3,0.5c0,0.2,0.2,0.3,0.3,0.1c0.2-0.1,0.3-0.4,0.3-0.5
					C25.7,24.2,25.5,24.1,25.3,24.3z"/>
				<g>
					<path class="st62" d="M25.3,24.3c-0.1,0.1-0.3,0.3-0.3,0.4c0,0.1,0.1,0.2,0.3,0.1c0.1-0.1,0.3-0.3,0.3-0.4
						C25.5,24.3,25.4,24.2,25.3,24.3z"/>
					<path class="st63" d="M25.3,24.8c0.1-0.1,0.2-0.2,0.2-0.4l-0.4,0.3C25.1,24.8,25.2,24.9,25.3,24.8z"/>
					<path class="st64" d="M25.1,24.5v0.3c0,0,0,0,0,0c0,0,0,0,0,0L25.1,24.5C25.2,24.5,25.2,24.4,25.1,24.5
						C25.1,24.5,25.1,24.5,25.1,24.5z"/>
					<path class="st64" d="M25.3,24.4v0.3c0,0,0,0,0,0c0,0,0,0,0,0L25.3,24.4C25.3,24.4,25.3,24.4,25.3,24.4
						C25.3,24.4,25.3,24.4,25.3,24.4z"/>
					<path class="st64" d="M25.4,24.4v0.3c0,0,0,0,0,0c0,0,0,0,0,0L25.4,24.4C25.4,24.3,25.4,24.3,25.4,24.4
						C25.4,24.3,25.4,24.3,25.4,24.4z"/>
					<path class="st65" d="M25.1,24.8C25.1,24.8,25.1,24.8,25.1,24.8C25.2,24.8,25.2,24.8,25.1,24.8C25.2,24.8,25.2,24.8,25.1,24.8
						l0.1-0.2l-0.1,0V24.8z"/>
					<path class="st65" d="M25.3,24.7C25.3,24.8,25.3,24.8,25.3,24.7C25.3,24.7,25.3,24.7,25.3,24.7l0.1-0.2l-0.1,0V24.7z"/>
					<path class="st65" d="M25.4,24.7C25.4,24.7,25.4,24.7,25.4,24.7C25.4,24.7,25.4,24.7,25.4,24.7C25.4,24.7,25.4,24.7,25.4,24.7
						l0.1-0.2l-0.1,0V24.7z"/>
				</g>
			</g>
			<g>
				<path class="st53" d="M30.6,21.2l-0.5,0.3C30,21.6,30,21.7,30,21.8v0.5c0,0.1,0.1,0.1,0.2,0.1l0.5-0.3c0.1-0.1,0.2-0.2,0.2-0.3
					v-0.5C30.8,21.2,30.7,21.2,30.6,21.2z"/>
				<path class="st59" d="M30,22.2L30,22.2c0,0.1,0.1,0.2,0.2,0.1l0.5-0.3c0.1-0.1,0.2-0.2,0.2-0.3v-0.1l-0.4,0L30,22.2z"/>
				<path class="st60" d="M30.6,21.2l-0.5,0.3C30,21.6,30,21.7,30,21.8v0.1l0.4,0l0.4-0.4v-0.1C30.8,21.2,30.7,21.2,30.6,21.2z"/>
				<path class="st61" d="M30.3,21.4c-0.2,0.1-0.3,0.4-0.3,0.5c0,0.2,0.2,0.3,0.3,0.1c0.2-0.1,0.3-0.4,0.3-0.5S30.5,21.3,30.3,21.4z
					"/>
				<g>
					<path class="st62" d="M30.2,21.5c-0.1,0.1-0.3,0.3-0.3,0.4c0,0.1,0.1,0.2,0.3,0.1c0.1-0.1,0.3-0.3,0.3-0.4
						C30.5,21.5,30.4,21.4,30.2,21.5z"/>
					<path class="st63" d="M30.2,22c0.1-0.1,0.2-0.2,0.2-0.4L30,21.9C30,22,30.1,22,30.2,22z"/>
					<path class="st64" d="M30.1,21.7V22c0,0,0,0,0,0c0,0,0,0,0,0L30.1,21.7C30.1,21.6,30.1,21.6,30.1,21.7
						C30.1,21.6,30.1,21.7,30.1,21.7z"/>
					<path class="st64" d="M30.2,21.6v0.3c0,0,0,0,0,0c0,0,0,0,0,0L30.2,21.6C30.3,21.6,30.3,21.5,30.2,21.6
						C30.2,21.6,30.2,21.6,30.2,21.6z"/>
					<path class="st64" d="M30.3,21.5v0.3c0,0,0,0,0,0c0,0,0,0,0,0L30.3,21.5C30.4,21.5,30.4,21.5,30.3,21.5
						C30.4,21.5,30.3,21.5,30.3,21.5z"/>
					<path class="st65" d="M30.1,22C30.1,22,30.1,22,30.1,22C30.1,22,30.1,22,30.1,22C30.1,22,30.1,22,30.1,22l0.1-0.2l-0.1,0V22z"
						/>
					<path class="st65" d="M30.2,21.9C30.2,21.9,30.2,21.9,30.2,21.9C30.3,21.9,30.3,21.9,30.2,21.9l0.1-0.2l-0.1,0V21.9z"/>
					<path class="st65" d="M30.3,21.8C30.3,21.9,30.4,21.9,30.3,21.8C30.4,21.9,30.4,21.9,30.3,21.8C30.4,21.8,30.4,21.8,30.3,21.8
						l0.1-0.2l-0.1,0V21.8z"/>
				</g>
			</g>
			<g>
				<path class="st66" d="M27.8,11L16.7,4.6c-0.2-0.2-0.5-0.3-0.8-0.4c-0.3-0.1-0.7-0.2-1.1-0.2c-0.5,0-1,0.1-1.5,0.4l-1.9,1.1
					c-0.8,0.4-1.4,1-1.9,1.7C8.9,7.9,8.4,8.9,8.2,9.9C8,10.4,7.9,11,7.9,11.6c0,0.3,0,0.5,0.1,0.8c0.1,0.3,0.2,0.6,0.4,0.8
					c0.3,0.5,0.7,0.8,1.2,1.1l0,0l13.7,8l0.6-0.9l1.2-1.8l1.7-2.6l1.5-2.2l0.7-1.1l0.9-1.3l-1.3-0.7L27.8,11z"/>
				<g>
					<path class="st67" d="M16.7,4.6c-0.2-0.2-0.5-0.3-0.8-0.4c-0.3-0.1-0.7-0.2-1.1-0.2c-0.5,0-1,0.1-1.5,0.4l-1.9,1.1
						c-0.8,0.4-1.4,1-1.9,1.7C8.9,7.9,8.4,8.9,8.2,9.9C8,10.4,7.9,11,7.9,11.6c0,0.3,0,0.5,0.1,0.8l15.9,9l1.2-1.8l1.7-2.6l1.5-2.2
						L27.8,11L16.7,4.6z"/>
					<g>
						
							<linearGradient id="SVGID_7_" gradientUnits="userSpaceOnUse" x1="46.7626" y1="7.5564" x2="45.158" y2="4.5953" gradientTransform="matrix(1 0 0 1 -33.8379 0)">
							<stop  offset="7.389160e-02" style="stop-color:#553537"/>
							<stop  offset="0.5123" style="stop-color:#A24E46"/>
							<stop  offset="0.8768" style="stop-color:#DB7470"/>
						</linearGradient>
						<path class="st68" d="M14.3,4.7c-0.1-0.2-0.3-0.3-0.5-0.5l-0.5-0.3c-0.1,0-0.2-0.1-0.2-0.1c0,0,0,0,0,0c-0.1,0-0.1,0-0.2,0
							c-0.1,0-0.2,0-0.3,0.1c-0.1,0-0.1,0.1-0.2,0.1L9.6,5.5L9.4,5.7L9,5.9l0.3,0.4l0.2,0.3l0.4,0.6l0.5,0.7l4.3-2.4
							C14.6,5.2,14.5,4.9,14.3,4.7z"/>
						
							<linearGradient id="SVGID_8_" gradientUnits="userSpaceOnUse" x1="43.5315" y1="7.6252" x2="44.5671" y2="5.6706" gradientTransform="matrix(1 0 0 1 -33.8379 0)">
							<stop  offset="7.389160e-02" style="stop-color:#553537"/>
							<stop  offset="0.5123" style="stop-color:#A24E46"/>
							<stop  offset="0.8768" style="stop-color:#DB7470"/>
						</linearGradient>
						<path class="st69" d="M10.3,6.2L9.7,5.9C9.2,5.6,8.5,6,8.5,6.6l0,0c0,0.7,0.4,1.4,1,1.7L10,8.7c0.6,0.3,1.3-0.1,1.3-0.7l0,0
							C11.3,7.2,10.9,6.6,10.3,6.2z"/>
						
							<linearGradient id="SVGID_9_" gradientUnits="userSpaceOnUse" x1="43.1746" y1="8.3226" x2="45.0125" y2="4.7781" gradientTransform="matrix(1 0 0 1 -33.8379 0)">
							<stop  offset="7.389160e-02" style="stop-color:#3D292B"/>
							<stop  offset="0.5123" style="stop-color:#663B3D"/>
							<stop  offset="0.8768" style="stop-color:#DB7470"/>
						</linearGradient>
						<path class="st70" d="M8.6,6.1c0.1,0.6,0.4,1.1,1,1.4l0.5,0.3c0.4,0.2,0.9,0.1,1.1-0.2c0,0.1,0,0.2,0,0.3c0,0.6-0.7,1-1.3,0.7
							L9.5,8.3c-0.6-0.4-1-1-1-1.7C8.5,6.4,8.5,6.3,8.6,6.1z"/>
					</g>
					
						<linearGradient id="SVGID_10_" gradientUnits="userSpaceOnUse" x1="1104.2753" y1="17.9904" x2="1098.4952" y2="7.3237" gradientTransform="matrix(-1 0 0 1 1119.5444 0)">
						<stop  offset="0" style="stop-color:#784243"/>
						<stop  offset="0.122" style="stop-color:#934E45"/>
						<stop  offset="0.283" style="stop-color:#B45E47"/>
						<stop  offset="0.4232" style="stop-color:#CD6948"/>
						<stop  offset="0.5261" style="stop-color:#D96E49"/>
						<stop  offset="0.6278" style="stop-color:#D46B48"/>
						<stop  offset="0.75" style="stop-color:#CA6447"/>
						<stop  offset="0.8822" style="stop-color:#BB5A46"/>
						<stop  offset="1" style="stop-color:#AB4F45"/>
					</linearGradient>
					<path class="st71" d="M9.5,7.1c0.5-0.7,1.2-1.2,1.9-1.7l1.9-1.1c0.3-0.2,0.6-0.3,0.9-0.3c0,0,0.1,0,0.1,0
						c0.2,0,0.4-0.1,0.5-0.1c0.4,0,0.7,0.1,1.1,0.2c0.3,0.1,0.5,0.2,0.8,0.4L27.8,11l1,0.6l1.3,0.7l-0.9,1.3l-0.7,1.1L27,16.9
						l-1.7,2.6L8.2,9.9C8.4,8.9,8.9,7.9,9.5,7.1z"/>
					
						<linearGradient id="SVGID_11_" gradientUnits="userSpaceOnUse" x1="1091.9255" y1="18.6475" x2="1095.6145" y2="11.6853" gradientTransform="matrix(-1 0 0 1 1119.5444 0)">
						<stop  offset="7.389160e-02" style="stop-color:#C46146"/>
						<stop  offset="0.5123" style="stop-color:#DA7343"/>
						<stop  offset="0.8768" style="stop-color:#E69E5A"/>
					</linearGradient>
					<path class="st72" d="M22,19.7L22,19.7c0,2.3,2.5,3.7,4.5,2.6l1.9-1.1c2.2-1.3,3.5-3.6,3.5-6.1l0,0c0-2.3-2.5-3.7-4.5-2.6
						l-1.9,1.1C23.4,14.9,22,17.2,22,19.7z"/>
					
						<linearGradient id="SVGID_12_" gradientUnits="userSpaceOnUse" x1="1090.2456" y1="21.92" x2="1096.7921" y2="9.2945" gradientTransform="matrix(-1 0 0 1 1119.5444 0)">
						<stop  offset="7.389160e-02" style="stop-color:#864841"/>
						<stop  offset="0.5123" style="stop-color:#DA7343"/>
						<stop  offset="0.8768" style="stop-color:#E69E5A"/>
					</linearGradient>
					<path class="st73" d="M31.4,13.4c-0.4,2-1.6,3.8-3.4,4.9l-1.9,1.1c-1.4,0.8-3.1,0.3-3.9-0.9c-0.1,0.4-0.1,0.8-0.1,1.2
						c0,2.3,2.5,3.7,4.5,2.6l1.9-1.1c2.2-1.3,3.5-3.6,3.5-6.1C31.9,14.4,31.7,13.9,31.4,13.4z"/>
				</g>
			</g>
		</g>
	</g>
	<g>
		<path class="st74" d="M17.4,8.5c0,0.1,0,0.1,0,0.2c0,0,0,0,0,0c0,0,0,0,0,0c0,0,0,0,0,0c0,0,0,0.1,0,0.1c0,0,0,0,0,0.1
			c0,0,0,0.1,0.1,0.1c0,0,0.1,0.1,0.1,0.1c0,0,0,0,0,0c0.1,0,0.1,0.1,0.2,0.1c0,0,0,0,0.1,0c0,0,0.1,0.1,0.1,0.1c0,0,0,0,0.1,0
			c0.1,0,0.1,0.1,0.2,0.1c0,0,0.1,0,0.1,0c0.1,0,0.1,0,0.2,0.1c0,0,0.1,0,0.1,0c0,0,0,0,0.1,0c0,0,0.1,0,0.1,0c0.1,0,0.1,0,0.2,0
			c0,0,0.1,0,0.1,0c0,0,0.1,0,0.1,0c0,0,0.1,0,0.1,0c0,0,0.1,0,0.1,0c0.1,0,0.1,0,0.2,0c0,0,0,0,0.1,0c0,0,0,0,0.1,0
			c0,0,0.1,0,0.1,0c0.1,0,0.1,0,0.2-0.1c0.6-0.2,1.1-0.5,1.1-1V8.1h-3.8V8.5z"/>
		<path class="st75" d="M18.4,9.5c0.1,0,0.1,0,0.2,0.1c0,0,0.1,0,0.1,0c0,0,0,0,0.1,0c0,0,0.1,0,0.1,0c0.1,0,0.1,0,0.2,0
			c0,0,0.1,0,0.1,0c0,0,0.1,0,0.1,0c0,0,0.1,0,0.1,0c0,0,0.1,0,0.1,0c0.1,0,0.1,0,0.2,0c0,0,0,0,0.1,0c0,0,0,0,0.1,0
			c0,0,0.1,0,0.1,0c0.1,0,0.1,0,0.2-0.1V8.1h-1.7V9.5z"/>
		<path class="st76" d="M17.4,8.5c0,0.1,0,0.1,0,0.2c0,0,0,0,0,0c0,0,0,0,0,0c0,0,0,0,0,0c0,0,0,0.1,0,0.1c0,0,0,0,0,0.1
			c0,0,0,0.1,0.1,0.1c0,0,0.1,0.1,0.1,0.1c0,0,0,0,0,0c0.1,0,0.1,0.1,0.2,0.1c0,0,0,0,0.1,0c0,0,0.1,0.1,0.1,0.1c0,0,0,0,0.1,0
			c0.1,0,0.1,0.1,0.2,0.1c0,0,0.1,0,0.1,0V8.1h-1.1V8.5z"/>
		<path class="st77" d="M20.1,7.1C19.8,7,19.6,7,19.3,7s-0.6,0-0.8,0.1c0,0-0.1,0-0.1,0c-0.1,0-0.1,0-0.2,0.1
			c-0.5,0.2-0.8,0.5-0.8,0.9c0,0.4,0.4,0.8,1.1,1c0.3,0.1,0.5,0.1,0.8,0.1s0.6,0,0.8-0.1c0.6-0.2,1.1-0.5,1.1-1
			C21.2,7.6,20.7,7.3,20.1,7.1z"/>
	</g>
	<g>
		<g>
			<g>
				<polygon class="st78" points="15.5,15.4 16.2,16.8 16.9,16.2 16.2,14.9 				"/>
				<path class="st79" d="M16.2,14.8L16.2,14.8l-0.7,0.6l0,0.1l0.7,1.4l0,0l0.7-0.6l0-0.1L16.2,14.8z M16.2,16.7l-0.6-1.2l0.7-0.5
					l0.6,1.2L16.2,16.7z"/>
			</g>
			<path class="st80" d="M15.8,15.7c0,0.2,0.2,0.5,0.4,0.6c0.2,0.1,0.4,0,0.4-0.2s-0.3-1-0.3-1S15.8,15.5,15.8,15.7z"/>
			<path class="st57" d="M15.9,15.6c0,0.2,0.1,0.4,0.3,0.5c0.2,0.1,0.3,0,0.3-0.1c0-0.2-0.2-0.8-0.2-0.8S15.9,15.5,15.9,15.6z"/>
			<path class="st81" d="M16,15.6c0,0.1,0,0.2,0,0.2c0,0.1,0.1,0.1,0.2,0c0-0.1,0-0.2,0-0.2C16.2,15.5,16.1,15.5,16,15.6z"/>
		</g>
		<g>
			<path class="st82" d="M14.3,13.9c-0.1-0.1-0.2-0.1-0.3,0c-0.1,0.1-0.1,0.3-0.1,0.5s0,0.5,0.1,0.7c0.1,0.2,0.2,0.3,0.3,0.4
				c0.1,0.1,0.2,0.1,0.3,0c0.1-0.1,0.1-0.3,0.1-0.5c0-0.3,0-0.5-0.1-0.7C14.5,14.1,14.4,14,14.3,13.9z M14.4,15.2
				c0,0.1-0.1,0.1-0.2,0c-0.1-0.1-0.2-0.3-0.2-0.7s0.1-0.5,0.2-0.4c0.1,0,0.1,0.1,0.2,0.2c0,0.1,0.1,0.3,0.1,0.4
				C14.5,15,14.5,15.1,14.4,15.2z"/>
			<polygon class="st82" points="13,14.7 13.2,14.8 13.2,13.3 13,13.1 			"/>
			<polygon class="st82" points="12.1,13.8 11.8,13.6 11.8,13.9 12.3,14.2 12.3,12.7 12.1,12.6 			"/>
		</g>
	</g>
</g>
</svg>
