<?xml version="1.0" encoding="utf-8"?>
<!-- Generator: Adobe Illustrator 23.0.0, SVG Export Plug-In . SVG Version: 6.00 Build 0)  -->
<svg version="1.1" id="Слой_1" xmlns="http://www.w3.org/2000/svg" xmlns:xlink="http://www.w3.org/1999/xlink" x="0px" y="0px"
	 viewBox="0 0 30.7 26.9" style="enable-background:new 0 0 30.7 26.9;" xml:space="preserve">
<style type="text/css">
	.st0{display:none;fill:#AFBDE3;}
	.st1{fill:#2F2F2F;}
	.st2{fill:#444545;}
	.st3{fill:#0E0F0F;}
	.st4{fill:#1D1D1D;}
	.st5{fill:#272727;}
	.st6{fill:#1B1B1C;}
	.st7{fill:#3A3A3A;}
	.st8{fill:#5C5C5C;}
	.st9{fill:#A9A9A9;}
	.st10{fill:#E9EAE6;}
	.st11{fill:#737373;}
	.st12{fill:#949494;}
	.st13{fill:#575757;}
	.st14{fill:#CDCDCD;}
	.st15{fill:#DBDDD8;}
	.st16{fill:#DFDFE0;}
	.st17{fill:#7E7E7E;}
	.st18{fill:#B1B1B1;}
	.st19{fill:#535353;}
	.st20{fill:#585858;}
	.st21{fill:#4E4E4E;}
	.st22{fill:#131414;}
	.st23{fill:#333333;}
	.st24{fill:#141516;}
	.st25{fill:#CCCCCC;}
	.st26{fill:#CA4C44;}
	.st27{fill:#161617;}
	.st28{fill:#834642;}
	.st29{fill:#A54E45;}
	.st30{fill:url(#SVGID_1_);}
	.st31{fill:url(#SVGID_2_);}
	.st32{fill:url(#SVGID_3_);}
	.st33{fill:#513235;}
	.st34{fill:#713F41;}
	.st35{fill:url(#SVGID_4_);}
	.st36{fill:url(#SVGID_5_);}
	.st37{fill:url(#SVGID_6_);}
	.st38{fill:#2C2C2C;}
	.st39{fill:#BEE0E8;}
	.st40{fill:#181819;}
	.st41{fill:#222221;}
	.st42{fill:#121313;}
	.st43{fill:#191A1A;}
	.st44{fill:#6C6C6C;}
	.st45{fill:#3F3F3F;}
	.st46{fill:#676767;}
	.st47{fill:#92968C;}
	.st48{fill:#72786B;}
	.st49{fill:#858585;}
	.st50{fill:#AAAAAA;}
	.st51{fill:#242424;}
	.st52{fill:#121314;}
	.st53{fill:#616161;}
	.st54{fill:#151616;}
	.st55{fill:url(#SVGID_7_);}
	.st56{fill:#657F88;}
	.st57{fill:#A7D7F5;}
	.st58{fill:url(#SVGID_8_);}
	.st59{clip-path:url(#SVGID_10_);fill:#0E0F0F;}
	.st60{clip-path:url(#SVGID_10_);fill:#1D1D1D;}
	.st61{clip-path:url(#SVGID_10_);fill:#272727;}
	.st62{clip-path:url(#SVGID_10_);fill:#191A1D;}
	.st63{clip-path:url(#SVGID_10_);fill:#3A3A3A;}
	.st64{clip-path:url(#SVGID_10_);fill:#5C5C5C;}
	.st65{clip-path:url(#SVGID_10_);fill:#A9A9A9;}
	.st66{clip-path:url(#SVGID_10_);fill:#E9EAE6;}
	.st67{clip-path:url(#SVGID_10_);fill:#737373;}
	.st68{clip-path:url(#SVGID_10_);fill:#949494;}
	.st69{clip-path:url(#SVGID_10_);}
	.st70{clip-path:url(#SVGID_10_);fill:#CDCDCD;}
	.st71{clip-path:url(#SVGID_10_);fill:#DBDDD8;}
	.st72{clip-path:url(#SVGID_10_);fill:#DFDFE0;}
	.st73{fill:#161718;}
	.st74{fill:#1E1E1E;}
	.st75{fill:#DD8044;}
	.st76{fill:#3C3C3C;}
	.st77{fill:#666666;}
	.st78{fill:#FFFFFF;}
	.st79{fill:#DFDFDF;}
	.st80{fill:#CACACA;}
	.st81{fill:#6E919F;}
	.st82{fill:#C2C2C2;}
	.st83{fill:#AFAFAF;}
	.st84{fill:#E8E8E8;}
	.st85{fill:url(#SVGID_11_);}
	.st86{fill:url(#SVGID_12_);}
	.st87{fill:#D05D44;}
	.st88{fill:#ECB05A;}
	.st89{fill:#141515;}
	.st90{fill:#212121;}
	.st91{fill:#171818;}
	.st92{fill:#D7E0EA;}
	.st93{fill:#ADC0D3;}
	.st94{fill:#E18F4D;}
	.st95{fill:#FDF0D1;}
	.st96{fill:url(#SVGID_13_);}
	.st97{fill:#F3F4F4;}
	.st98{fill:#DEDEDE;}
	.st99{fill:#C0C0BF;}
	.st100{fill:#F8F8F8;}
	.st101{fill:#E39544;}
	.st102{fill:#F3F3F2;}
	.st103{fill:#181B19;}
	.st104{fill:#2A2A2A;}
</style>
<g>
	<path class="st0" d="M31.8,14.2l-6.3-4L0.3,22c-0.4,0.2-0.4,0.7,0,0.9l7.9,4.4c1.3,0.7,3,0.7,4.3,0l19.2-11.2
		C32.5,15.7,32.5,14.7,31.8,14.2z"/>
	<g>
		<g>
			<polygon class="st1" points="20.1,7.9 22.4,9.2 23.4,9.6 21,8.2 			"/>
			<polygon class="st2" points="12.6,12.1 14.9,13.5 22.4,9.2 20.1,7.9 			"/>
			<polygon class="st1" points="14,11.3 14.6,12 17,13.4 16.3,12.7 			"/>
			<polygon class="st3" points="23.9,19.2 24.3,18.7 21.1,16.8 			"/>
			<polygon class="st3" points="15.6,13.6 21.1,16.8 16.8,13.3 			"/>
			<g>
				<path class="st3" d="M28.1,12.7c-0.4-0.2-0.9-0.2-1.4,0.2c-1.1,0.6-2,2.2-2,3.4c0,0.6,0.2,1,0.5,1.2l0,0l0,0c0,0,0,0,0,0
					l1.4,0.8l2.9-4.8L28.1,12.7L28.1,12.7z"/>
				<path class="st4" d="M26.7,12.9c-1.1,0.6-2,2.2-2,3.4c0,0.2,0,0.4,0.1,0.6l1.6,0.9c0.2,0,0.3-0.1,0.5-0.2
					c0.2-0.1,0.4-0.3,0.6-0.4l1.5-2.5c0.1-0.2,0.1-0.5,0.1-0.7l-2-1.2C26.9,12.8,26.8,12.8,26.7,12.9z"/>
				<path class="st5" d="M28.1,13.7c-1.1,0.6-2,2.2-2,3.4c0,1.2,0.9,1.7,2,1.1c1.1-0.6,2-2.2,2-3.4C30.1,13.6,29.2,13.1,28.1,13.7z"
					/>
				<path class="st6" d="M28.1,13.8c-1.1,0.6-1.9,2.1-1.9,3.3c0,1.2,0.9,1.7,1.9,1.1c1.1-0.6,1.9-2.1,1.9-3.3
					C30,13.7,29.2,13.2,28.1,13.8z"/>
				<path class="st7" d="M28.1,14.3c-0.8,0.5-1.5,1.6-1.5,2.5c0,0.9,0.7,1.3,1.5,0.8c0.8-0.5,1.5-1.6,1.5-2.5
					C29.6,14.2,28.9,13.8,28.1,14.3z"/>
				<path class="st8" d="M28.1,14.4c-0.8,0.4-1.4,1.5-1.4,2.4c0,0.9,0.6,1.2,1.4,0.8c0.8-0.4,1.4-1.5,1.4-2.4
					C29.5,14.3,28.9,14,28.1,14.4z"/>
				<path class="st9" d="M26.7,16.8c0,0.1,0,0.2,0,0.3l1,0.6c0.1,0,0.2-0.1,0.3-0.1c0.8-0.4,1.4-1.5,1.4-2.3l-1.4-0.8
					C27.3,14.9,26.7,15.9,26.7,16.8z"/>
				<path class="st10" d="M26.8,16.3l1.7,1c0.3-0.3,0.6-0.7,0.8-1.1l-1.9-1.1C27.1,15.5,26.9,15.9,26.8,16.3z"/>
				<path class="st10" d="M26.8,16.3l1.7,1c0.3-0.3,0.6-0.7,0.8-1.1l-1.9-1.1C27.1,15.5,26.9,15.9,26.8,16.3z"/>
				<path class="st11" d="M28,14.6c-0.6,0.3-1.1,1.2-1.1,1.9c0,0.7,0.5,1,1.1,0.6c0.6-0.3,1.1-1.2,1.1-1.9
					C29.1,14.5,28.6,14.2,28,14.6z"/>
				<path class="st12" d="M27.9,14.7c-0.5,0.3-0.9,1-0.9,1.6c0,0.6,0.4,0.8,0.9,0.5c0.5-0.3,0.9-1,0.9-1.6
					C28.9,14.6,28.4,14.4,27.9,14.7z"/>
				<path class="st13" d="M27.4,15.1c-0.1,0.1-0.1,0.1-0.2,0.2c0,0,0.1,0,0.1,0C27.4,15.3,27.5,15.2,27.4,15.1
					C27.4,15.1,27.4,15.1,27.4,15.1z"/>
				<path class="st13" d="M28.6,15.7c-0.1,0.1,0,0.2,0,0.2c0.1,0,0.2-0.1,0.3-0.1c0.1-0.1,0-0.2,0-0.2
					C28.7,15.5,28.6,15.6,28.6,15.7z"/>
				<path class="st13" d="M27.1,16.2c-0.1,0.1-0.2,0.2-0.2,0.3c0,0.1,0,0.1,0.1,0.1c0.1-0.1,0.2-0.2,0.2-0.3
					C27.2,16.2,27.2,16.2,27.1,16.2z"/>
				<path class="st13" d="M28.3,14.6c-0.1,0.1-0.1,0.2,0,0.3c0,0.1,0.1,0.1,0.1,0c0.1-0.1,0.1-0.2,0-0.3
					C28.4,14.5,28.3,14.5,28.3,14.6z"/>
				<path class="st13" d="M27.1,15.5c0,0.1-0.1,0.2-0.1,0.3c0.1,0,0.1,0,0.2-0.1C27.3,15.6,27.3,15.5,27.1,15.5
					C27.2,15.5,27.1,15.5,27.1,15.5z"/>
				<path class="st13" d="M27.2,16.5c-0.1,0.1-0.1,0.2-0.1,0.3c0,0.1,0.1,0.1,0.1,0c0.1-0.1,0.1-0.2,0.1-0.3
					C27.4,16.4,27.3,16.4,27.2,16.5z"/>
				<path class="st13" d="M26.9,15.9c0,0.1,0,0.2-0.1,0.3c0,0,0,0,0,0c0.1,0,0.2-0.1,0.2-0.2c0.1-0.1,0-0.2-0.1-0.1
					C27,15.9,27,15.9,26.9,15.9z"/>
				<path class="st13" d="M28.4,16c-0.1,0.1-0.1,0.1,0,0.2c0.1,0,0.2,0,0.3,0c0.1-0.1,0.1-0.1,0-0.2C28.6,16,28.5,16,28.4,16z"/>
				<path class="st13" d="M27.9,16.5c-0.1,0-0.1,0-0.1,0.1c0,0.1,0.1,0.2,0.1,0.2c0.1,0,0.1,0,0.1-0.1C28.1,16.7,28,16.6,27.9,16.5z
					"/>
				<path class="st13" d="M27.5,16.7c0,0.1,0,0.2,0,0.3c0,0.1,0.1,0,0.2-0.1c0-0.1,0-0.2,0-0.3C27.6,16.6,27.5,16.6,27.5,16.7z"/>
				<path class="st13" d="M28.2,16.3c-0.1,0-0.1,0.1-0.1,0.2c0,0.1,0.1,0.1,0.2,0.1c0.1,0,0.1-0.1,0.1-0.2
					C28.4,16.4,28.3,16.3,28.2,16.3z"/>
				<path class="st13" d="M28.6,14.8c-0.1,0.1-0.1,0.2-0.1,0.3c0,0.1,0.1,0.1,0.1,0.1c0.1-0.1,0.1-0.2,0.1-0.3
					C28.7,14.7,28.7,14.7,28.6,14.8z"/>
				<path class="st13" d="M27.5,14.9c0,0.1,0.1,0.1,0.1,0.1c0.1,0,0.1-0.1,0.1-0.1c0,0,0-0.1-0.1-0.1C27.6,14.8,27.5,14.9,27.5,14.9
					z"/>
				<path class="st13" d="M28.6,15.3c0,0.1,0,0.2,0.1,0.1c0.1,0,0.2-0.1,0.2-0.2c0-0.1,0-0.2-0.1-0.1C28.7,15.1,28.6,15.3,28.6,15.3
					z"/>
				<path class="st13" d="M28,14.5C28,14.5,28,14.5,28,14.5c-0.1,0-0.1,0.1-0.1,0.1c0,0,0,0,0,0c0,0.1,0,0.2,0.1,0.3
					c0.1,0,0.1,0,0.1-0.1C28.1,14.7,28.1,14.6,28,14.5C28,14.5,28,14.5,28,14.5z"/>
				<path class="st14" d="M27.8,15.1c-0.3,0.2-0.6,0.6-0.6,1c0,0.4,0.3,0.5,0.6,0.3c0.3-0.2,0.6-0.6,0.6-1
					C28.4,15.1,28.2,14.9,27.8,15.1z"/>
				<path class="st9" d="M27.8,15.1c-0.3,0.2-0.6,0.6-0.6,1c0,0.1,0,0.2,0.1,0.2l0.5-0.1c0.2-0.2,0.2-0.4,0.4-0.6L28,15
					C27.9,15,27.9,15.1,27.8,15.1z"/>
				<path class="st15" d="M27.3,15.9c0.3,0,0.5,0.1,0.7,0.1c0-0.1,0.1-0.1,0.1-0.2c-0.2-0.1-0.4-0.2-0.6-0.4
					C27.4,15.5,27.3,15.7,27.3,15.9z"/>
				<path class="st9" d="M28,15.5c-0.2,0.1-0.4,0.4-0.4,0.7c0,0.3,0.2,0.4,0.4,0.2c0.2-0.1,0.4-0.4,0.4-0.7
					C28.4,15.4,28.2,15.3,28,15.5z"/>
				<path class="st16" d="M28.1,15.7c-0.1,0.1-0.2,0.2-0.2,0.4c0,0.1,0.1,0.2,0.2,0.1c0.1-0.1,0.2-0.2,0.2-0.4
					C28.3,15.7,28.2,15.7,28.1,15.7z"/>
				<path class="st3" d="M28.5,13c-0.4-0.2-0.9-0.2-1.4,0.2c-1.1,0.6-2,2.2-2,3.4c0,0.6,0.2,1,0.5,1.2l0,0l0,0c0,0,0,0,0,0l1,0.6
					l0,0l-0.9-0.5c0,0,0,0,0,0l0,0l0,0c-0.3-0.2-0.5-0.6-0.5-1.2c0-1.2,0.9-2.8,2-3.4C27.8,12.9,28.3,12.9,28.5,13l0.1,0.1L28.5,13
					L28.5,13z"/>
				<path class="st3" d="M29,13.3c-0.4-0.2-0.9-0.2-1.4,0.2c-1.1,0.6-2,2.2-2,3.4c0,0.6,0.2,1,0.5,1.2l0,0l0,0c0,0,0,0,0,0l0.5,0.3
					l0,0l-0.4-0.2c0,0,0,0,0,0l0,0l0,0c-0.3-0.2-0.5-0.6-0.5-1.2c0-1.2,0.9-2.8,2-3.4C28.2,13.1,28.7,13.1,29,13.3l0.1,0.1L29,13.3
					L29,13.3z"/>
			</g>
			<g>
				<path class="st3" d="M24.1,15c-0.4-0.2-0.9-0.2-1.4,0.2c-1.1,0.6-2,2.2-2,3.4c0,0.6,0.2,1,0.5,1.2l0,0l0,0c0,0,0,0,0,0l1.4,0.8
					l2.9-4.8L24.1,15L24.1,15z"/>
				<path class="st4" d="M22.7,15.2c-1.1,0.6-2,2.2-2,3.4c0,0.2,0,0.4,0.1,0.6l1.6,0.9c0.2,0,0.3-0.1,0.5-0.2
					c0.2-0.1,0.4-0.3,0.6-0.4l1.5-2.5c0.1-0.2,0.1-0.5,0.1-0.7l-2-1.2C23,15.1,22.9,15.1,22.7,15.2z"/>
				<path class="st5" d="M24.2,16c-1.1,0.6-2,2.2-2,3.4c0,1.2,0.9,1.7,2,1.1c1.1-0.6,2-2.2,2-3.4C26.2,15.9,25.3,15.4,24.2,16z"/>
				<path class="st6" d="M24.2,16.1c-1.1,0.6-1.9,2.1-1.9,3.3c0,1.2,0.9,1.7,1.9,1.1c1.1-0.6,1.9-2.1,1.9-3.3
					C26.1,16,25.2,15.5,24.2,16.1z"/>
				<path class="st7" d="M24.2,16.6c-0.8,0.5-1.5,1.6-1.5,2.5c0,0.9,0.7,1.3,1.5,0.8c0.8-0.5,1.5-1.6,1.5-2.5
					C25.7,16.5,25,16.1,24.2,16.6z"/>
				<path class="st8" d="M24.2,16.7c-0.8,0.4-1.4,1.5-1.4,2.4c0,0.9,0.6,1.2,1.4,0.8c0.8-0.4,1.4-1.5,1.4-2.4S25,16.3,24.2,16.7z"/>
				<path class="st9" d="M22.8,19.1c0,0.1,0,0.2,0,0.3l1,0.6c0.1,0,0.2-0.1,0.3-0.1c0.8-0.4,1.4-1.5,1.4-2.3l-1.4-0.8
					C23.4,17.2,22.8,18.2,22.8,19.1z"/>
				<path class="st10" d="M22.9,18.6l1.7,1c0.3-0.3,0.6-0.7,0.8-1.1l-1.9-1.1C23.1,17.8,22.9,18.2,22.9,18.6z"/>
				<path class="st10" d="M22.9,18.6l1.7,1c0.3-0.3,0.6-0.7,0.8-1.1l-1.9-1.1C23.1,17.8,22.9,18.2,22.9,18.6z"/>
				<path class="st11" d="M24,16.9c-0.6,0.3-1.1,1.2-1.1,1.9c0,0.7,0.5,1,1.1,0.6c0.6-0.3,1.1-1.2,1.1-1.9
					C25.1,16.8,24.6,16.5,24,16.9z"/>
				<path class="st12" d="M24,17c-0.5,0.3-0.9,1-0.9,1.6c0,0.6,0.4,0.8,0.9,0.5c0.5-0.3,0.9-1,0.9-1.6C24.9,16.9,24.5,16.7,24,17z"
					/>
				<path class="st13" d="M23.5,17.4c-0.1,0.1-0.1,0.1-0.2,0.2c0,0,0.1,0,0.1,0C23.5,17.6,23.6,17.5,23.5,17.4
					C23.5,17.4,23.5,17.4,23.5,17.4z"/>
				<path class="st13" d="M24.6,18c-0.1,0.1,0,0.2,0,0.2c0.1,0,0.2-0.1,0.3-0.1c0.1-0.1,0-0.2,0-0.2C24.8,17.8,24.7,17.9,24.6,18z"
					/>
				<path class="st13" d="M23.2,18.5c-0.1,0.1-0.2,0.2-0.2,0.3c0,0.1,0,0.1,0.1,0.1c0.1-0.1,0.2-0.2,0.2-0.3
					C23.3,18.5,23.2,18.5,23.2,18.5z"/>
				<path class="st13" d="M24.3,16.9c-0.1,0.1-0.1,0.2,0,0.3c0,0.1,0.1,0.1,0.1,0c0.1-0.1,0.1-0.2,0-0.3
					C24.5,16.8,24.4,16.8,24.3,16.9z"/>
				<path class="st13" d="M23.2,17.8c0,0.1-0.1,0.2-0.1,0.3c0.1,0,0.1,0,0.2-0.1C23.3,17.9,23.3,17.8,23.2,17.8
					C23.3,17.8,23.2,17.8,23.2,17.8z"/>
				<path class="st13" d="M23.3,18.8c-0.1,0.1-0.1,0.2-0.1,0.3c0,0.1,0.1,0.1,0.1,0c0.1-0.1,0.1-0.2,0.1-0.3
					C23.4,18.8,23.4,18.7,23.3,18.8z"/>
				<path class="st13" d="M23,18.2c0,0.1,0,0.2-0.1,0.3c0,0,0,0,0,0c0.1,0,0.2-0.1,0.2-0.2c0.1-0.1,0-0.2-0.1-0.1
					C23.1,18.2,23.1,18.2,23,18.2z"/>
				<path class="st13" d="M24.5,18.3c-0.1,0.1-0.1,0.1,0,0.2c0.1,0,0.2,0,0.3,0c0.1-0.1,0.1-0.1,0-0.2
					C24.7,18.3,24.6,18.3,24.5,18.3z"/>
				<path class="st13" d="M24,18.8c-0.1,0-0.1,0-0.1,0.1c0,0.1,0.1,0.2,0.1,0.2c0.1,0,0.1,0,0.1-0.1C24.1,19,24.1,18.9,24,18.8z"/>
				<path class="st13" d="M23.6,19c0,0.1,0,0.2,0,0.3c0,0.1,0.1,0,0.2-0.1c0-0.1,0-0.2,0-0.3C23.7,18.9,23.6,18.9,23.6,19z"/>
				<path class="st13" d="M24.3,18.6c-0.1,0-0.1,0.1-0.1,0.2c0,0.1,0.1,0.1,0.2,0.1c0.1,0,0.1-0.1,0.1-0.2
					C24.5,18.7,24.4,18.6,24.3,18.6z"/>
				<path class="st13" d="M24.7,17.1c-0.1,0.1-0.1,0.2-0.1,0.3c0,0.1,0.1,0.1,0.1,0.1c0.1-0.1,0.1-0.2,0.1-0.3
					C24.8,17,24.7,17,24.7,17.1z"/>
				<path class="st13" d="M23.6,17.2c0,0.1,0.1,0.1,0.1,0.1c0.1,0,0.1-0.1,0.1-0.1c0,0,0-0.1-0.1-0.1C23.7,17.1,23.6,17.2,23.6,17.2
					z"/>
				<path class="st13" d="M24.6,17.7c0,0.1,0,0.2,0.1,0.1c0.1,0,0.2-0.1,0.2-0.2s0-0.2-0.1-0.1C24.8,17.5,24.7,17.6,24.6,17.7z"/>
				<path class="st13" d="M24.1,16.8C24.1,16.8,24,16.8,24.1,16.8c-0.1,0-0.1,0.1-0.1,0.1c0,0,0,0,0,0c0,0.1,0,0.2,0.1,0.3
					c0.1,0,0.1,0,0.1-0.1C24.2,17,24.1,16.9,24.1,16.8C24.1,16.8,24.1,16.8,24.1,16.8z"/>
				<path class="st14" d="M23.9,17.4c-0.3,0.2-0.6,0.6-0.6,1c0,0.4,0.3,0.5,0.6,0.3c0.3-0.2,0.6-0.6,0.6-1
					C24.5,17.4,24.2,17.2,23.9,17.4z"/>
				<path class="st9" d="M23.9,17.4c-0.3,0.2-0.6,0.6-0.6,1c0,0.1,0,0.2,0.1,0.2l0.5-0.1c0.2-0.2,0.2-0.4,0.4-0.6l-0.2-0.6
					C24,17.4,24,17.4,23.9,17.4z"/>
				<path class="st15" d="M23.4,18.2c0.3,0,0.5,0.1,0.7,0.1c0-0.1,0.1-0.1,0.1-0.2c-0.2-0.1-0.4-0.2-0.6-0.4
					C23.5,17.9,23.4,18,23.4,18.2z"/>
				<path class="st9" d="M24.1,17.8c-0.2,0.1-0.4,0.4-0.4,0.7c0,0.3,0.2,0.4,0.4,0.2c0.2-0.1,0.4-0.4,0.4-0.7
					C24.5,17.7,24.3,17.6,24.1,17.8z"/>
				<path class="st16" d="M24.2,18c-0.1,0.1-0.2,0.2-0.2,0.4c0,0.1,0.1,0.2,0.2,0.1c0.1-0.1,0.2-0.2,0.2-0.4
					C24.4,18,24.3,18,24.2,18z"/>
				<path class="st3" d="M24.6,15.3c-0.4-0.2-0.9-0.2-1.4,0.2c-1.1,0.6-2,2.2-2,3.4c0,0.6,0.2,1,0.5,1.2l0,0l0,0c0,0,0,0,0,0l1,0.6
					l0,0l-0.9-0.5c0,0,0,0,0,0l0,0l0,0c-0.3-0.2-0.5-0.6-0.5-1.2c0-1.2,0.9-2.8,2-3.4C23.8,15.2,24.3,15.2,24.6,15.3l0.1,0.1
					L24.6,15.3L24.6,15.3z"/>
				<path class="st3" d="M25,15.6c-0.4-0.2-0.9-0.2-1.4,0.2c-1.1,0.6-2,2.2-2,3.4c0,0.6,0.2,1,0.5,1.2l0,0l0,0c0,0,0,0,0,0l0.5,0.3
					l0,0l-0.4-0.2c0,0,0,0,0,0l0,0l0,0c-0.3-0.2-0.5-0.6-0.5-1.2c0-1.2,0.9-2.8,2-3.4C24.3,15.5,24.8,15.4,25,15.6l0.1,0.1L25,15.6
					L25,15.6z"/>
			</g>
			<g>
				<path class="st8" d="M19.3,16.4c-0.1,0-0.2,0-0.3,0.1c-0.1,0-0.1,0.1-0.2,0.1L16.3,18l-1.3,0.8L14.6,19l0.2,0.4l0.2,0.3l0.4,0.6
					l0.5,0.7l0.3,0.5l0.2,0.2l2.7-1.6l0,0c0.1-0.1,0.3-0.2,0.3-0.3c0-0.1,0.1-0.1,0.1-0.2c0-0.1,0-0.1,0-0.2c0-0.2,0-0.3-0.1-0.5
					c-0.1-0.3-0.2-0.5-0.4-0.8c-0.1-0.2-0.3-0.3-0.5-0.5l1.1-1.2C19.6,16.4,19.4,16.4,19.3,16.4z"/>
				<path class="st17" d="M19.3,16.4c-0.1,0-0.2,0-0.3,0.1c-0.1,0-0.1,0.1-0.2,0.1L16.3,18L15,19.7l0.4,0.6l0.5,0.7l0.3,0.5l3.3-1.8
					c0-0.1,0-0.1,0-0.2c0-0.2,0-0.3-0.1-0.5c-0.1-0.3-0.2-0.5-0.4-0.8c-0.1-0.2-0.3-0.3-0.5-0.5l1.1-1.2
					C19.6,16.4,19.4,16.4,19.3,16.4z"/>
				<path class="st18" d="M19.3,16.4c-0.1,0-0.2,0-0.3,0.1c-0.1,0-0.1,0.1-0.2,0.1L16.3,18l-1.3,0.8l-0.1,0.6l0.2,0.3l0.4,0.6
					l0.5,0.7l3.6-2c-0.1-0.3-0.2-0.5-0.4-0.8c-0.1-0.2-0.3-0.3-0.5-0.5l1.1-1.2C19.6,16.4,19.4,16.4,19.3,16.4z"/>
				<path class="st19" d="M19.3,16.4c-0.1,0-0.2,0-0.3,0.1c-0.1,0-0.1,0.1-0.2,0.1L16.3,18l-1.3,0.8L14.6,19l0.2,0.4l0.2,0.3
					l0.4,0.6l3.7-2.1c-0.1-0.2-0.3-0.3-0.5-0.5l1.1-1.2C19.6,16.4,19.4,16.4,19.3,16.4z"/>
				<path class="st20" d="M15.8,19.3L15.3,19c-0.5-0.3-1.2,0.1-1.2,0.7c0,0.7,0.4,1.3,1,1.7l0.5,0.3c0.5,0.3,1.2-0.1,1.2-0.7
					C16.8,20.3,16.4,19.7,15.8,19.3z"/>
				<path class="st21" d="M15.7,20.9l-0.5-0.3c-0.5-0.3-0.8-0.8-0.9-1.3c-0.1,0.1-0.1,0.3-0.1,0.5c0,0.7,0.4,1.3,1,1.7l0.5,0.3
					c0.5,0.3,1.2-0.1,1.2-0.7c0-0.1,0-0.2,0-0.3C16.5,21,16.1,21.1,15.7,20.9z"/>
			</g>
			<polygon class="st22" points="14.8,20.5 28.9,12.4 28.9,11.8 8.9,17.1 			"/>
			<polygon class="st4" points="8.1,16 14.8,19.9 28.9,11.8 22.2,8 			"/>
			<polygon class="st23" points="14.5,19.1 28.1,11 28.1,10.4 14.2,17.9 			"/>
			<polygon class="st24" points="13.3,19.5 28.1,10.9 28.1,9.4 14.9,16.9 			"/>
			<g>
				<g>
					<polygon class="st25" points="25.7,11.8 25.7,11.8 25.4,12 25.4,12 25,12.2 24.7,12.4 24.3,12.6 24,12.8 23.6,13 23.3,13.2 
						23,13.4 22.7,13.5 22.5,13.7 22.4,14 22.6,13.9 22.8,13.7 23.2,13.5 23.5,13.3 23.9,13.1 24.2,12.9 24.6,12.7 24.9,12.6 
						25.2,12.3 25.3,12.3 25.5,12.2 25.6,12.1 25.9,11.9 26,11.9 26.2,11.5 26.1,11.6 					"/>
					<g>
						<polygon class="st26" points="22.6,13.9 22.8,13.7 23,13.4 22.7,13.5 						"/>
						<polygon class="st26" points="24.6,12.6 24.6,12.7 24.9,12.6 25,12.2 24.7,12.4 						"/>
						<polygon class="st26" points="23.2,13.5 23.5,13.3 23.6,13 23.3,13.2 						"/>
						<polygon class="st26" points="23.9,13.1 24.2,12.9 24.3,12.6 24,12.8 						"/>
						<polygon class="st26" points="25.4,12 25.4,12.1 25.3,12.3 25.5,12.2 25.6,12.1 25.7,11.8 25.7,11.8 						"/>
						<polygon class="st26" points="26,11.8 25.9,11.9 26,11.9 26.2,11.5 26.1,11.6 						"/>
					</g>
				</g>
				<polygon class="st27" points="21.6,11.9 23,13.3 26.2,11.4 24.4,10.4 				"/>
			</g>
			<g>
				<path class="st28" d="M29.2,3.1c-0.5-0.6-1.2-1.2-1.9-1.6l-1.8-1.1C25,0.1,24.5,0,24,0c-0.4,0-0.7,0.1-1.1,0.2
					c-0.3,0.1-0.5,0.2-0.7,0.4L10.9,7.2l-1,0.6L8.7,8.4l0.9,1.3l0.7,1l1.4,2.1l1.7,2.5l1.2,1.8l0.6,0.9l13.9-8l0,0
					c0.5-0.2,0.9-0.6,1.2-1c0.2-0.2,0.3-0.5,0.4-0.8c0.1-0.2,0.1-0.5,0.1-0.8c0-0.6-0.1-1.1-0.2-1.6C30.3,4.7,29.8,3.8,29.2,3.1z"/>
				<g>
					<path class="st29" d="M29.2,3.1c-0.5-0.6-1.2-1.2-1.9-1.6l-1.8-1.1C25,0.1,24.5,0,24,0c-0.4,0-0.7,0.1-1.1,0.2
						c-0.3,0.1-0.5,0.2-0.7,0.4L10.9,7.2l-0.6,3.6l1.4,2.1l1.7,2.5l1.2,1.8l16.1-9c0.1-0.2,0.1-0.5,0.1-0.8c0-0.6-0.1-1.1-0.2-1.6
						C30.3,4.7,29.8,3.8,29.2,3.1z"/>
					
						<linearGradient id="SVGID_1_" gradientUnits="userSpaceOnUse" x1="113.8763" y1="13.7159" x2="108.3015" y2="3.4279" gradientTransform="matrix(1 0 0 1 -90.5482 0)">
						<stop  offset="0" style="stop-color:#784243"/>
						<stop  offset="0.122" style="stop-color:#934E45"/>
						<stop  offset="0.283" style="stop-color:#B45E47"/>
						<stop  offset="0.4232" style="stop-color:#CD6948"/>
						<stop  offset="0.5261" style="stop-color:#D96E49"/>
						<stop  offset="0.6278" style="stop-color:#D46B48"/>
						<stop  offset="0.75" style="stop-color:#CA6447"/>
						<stop  offset="0.8822" style="stop-color:#BB5A46"/>
						<stop  offset="1" style="stop-color:#AB4F45"/>
					</linearGradient>
					<path class="st30" d="M29.2,3.1c-0.5-0.6-1.2-1.2-1.9-1.6l-1.8-1.1c-0.3-0.2-0.5-0.3-0.8-0.3c0,0-0.1,0-0.1,0
						C24.4,0,24.2,0,24,0c-0.4,0-0.7,0.1-1.1,0.2c-0.3,0.1-0.5,0.2-0.7,0.4L10.9,7.2l-1,0.6L8.7,8.4l0.9,1.3l0.7,1l1.4,2.1l1.7,2.5
						l17.2-9.6C30.3,4.7,29.8,3.8,29.2,3.1z"/>
					
						<linearGradient id="SVGID_2_" gradientUnits="userSpaceOnUse" x1="101.6258" y1="14.5257" x2="105.1975" y2="7.7847" gradientTransform="matrix(1 0 0 1 -90.5482 0)">
						<stop  offset="7.389160e-02" style="stop-color:#C46146"/>
						<stop  offset="0.5123" style="stop-color:#DA7343"/>
						<stop  offset="0.8768" style="stop-color:#E69E5A"/>
					</linearGradient>
					<path class="st31" d="M13.1,9.6l-1.8-1.1c-1.9-1.1-4.3,0.3-4.3,2.5l0,0c0,2.4,1.3,4.7,3.4,5.9l1.8,1.1c1.9,1.1,4.3-0.3,4.3-2.5
						l0,0C16.5,13.1,15.2,10.9,13.1,9.6z"/>
					
						<linearGradient id="SVGID_3_" gradientUnits="userSpaceOnUse" x1="100.3951" y1="16.9308" x2="106.7336" y2="4.7066" gradientTransform="matrix(1 0 0 1 -90.5482 0)">
						<stop  offset="7.389160e-02" style="stop-color:#954B44"/>
						<stop  offset="0.5123" style="stop-color:#AE4F45"/>
						<stop  offset="0.8768" style="stop-color:#E39673"/>
					</linearGradient>
					<path class="st32" d="M7.4,9.4c0.4,2,1.5,3.7,3.3,4.7l1.8,1.1c1.4,0.8,3,0.3,3.8-0.8c0.1,0.4,0.1,0.8,0.1,1.2
						c0,2.2-2.4,3.6-4.3,2.5L10.3,17c-2.1-1.2-3.4-3.5-3.4-5.9C6.9,10.4,7.1,9.9,7.4,9.4z"/>
				</g>
			</g>
			<g>
				<path class="st33" d="M13.9,12.2l-2.6-1.5c-0.1,0-0.1-0.1-0.2-0.1c-0.1,0-0.2-0.1-0.3-0.1c-0.1,0-0.3,0-0.4,0.1l-0.5,0.3
					c-0.2,0.1-0.4,0.3-0.5,0.5C9.1,11.6,9,11.9,9,12.1c0,0.1-0.1,0.3-0.1,0.5c0,0.1,0,0.1,0,0.2C8.9,12.9,9,13,9,13
					c0.1,0.1,0.2,0.2,0.3,0.3l0,0l3.3,1.9l0.2-0.2l0.3-0.5l0.5-0.7l0.4-0.6l0.2-0.3l0.2-0.4l-0.3-0.2L13.9,12.2z"/>
				<g>
					<path class="st34" d="M11.3,10.7c-0.1,0-0.1-0.1-0.2-0.1c-0.1,0-0.2-0.1-0.3-0.1c-0.1,0-0.3,0-0.4,0.1l-0.5,0.3
						c-0.2,0.1-0.4,0.3-0.5,0.5C9.1,11.6,9,11.9,9,12.1c0,0.1-0.1,0.3-0.1,0.5c0,0.1,0,0.1,0,0.2l3.9,2.2l0.3-0.5l0.5-0.7l0.4-0.6
						l-0.2-1L11.3,10.7z"/>
					
						<linearGradient id="SVGID_4_" gradientUnits="userSpaceOnUse" x1="1053.094" y1="14.1877" x2="1051.5404" y2="11.3207" gradientTransform="matrix(-1 0 0 1 1063.7725 0)">
						<stop  offset="7.389160e-02" style="stop-color:#553537"/>
						<stop  offset="0.5123" style="stop-color:#A24E46"/>
						<stop  offset="0.8768" style="stop-color:#DB7470"/>
					</linearGradient>
					<path class="st35" d="M9.3,11.4c0.1-0.2,0.3-0.3,0.5-0.5l0.5-0.3c0.1,0,0.2-0.1,0.2-0.1c0,0,0,0,0,0c0,0,0.1,0,0.1,0
						c0.1,0,0.2,0,0.3,0.1c0.1,0,0.1,0.1,0.2,0.1l2.6,1.5l0.3,0.2l0.3,0.2l-0.2,0.4L14,13.2l-0.4,0.6l-0.5,0.7L9,12.1
						C9,11.9,9.1,11.6,9.3,11.4z"/>
					
						<linearGradient id="SVGID_5_" gradientUnits="userSpaceOnUse" x1="1049.9657" y1="14.2544" x2="1050.9684" y2="12.3619" gradientTransform="matrix(-1 0 0 1 1063.7725 0)">
						<stop  offset="7.389160e-02" style="stop-color:#553537"/>
						<stop  offset="0.5123" style="stop-color:#A24E46"/>
						<stop  offset="0.8768" style="stop-color:#DB7470"/>
					</linearGradient>
					<path class="st36" d="M12.3,14.5L12.3,14.5c0,0.6,0.7,1,1.2,0.7l0.5-0.3c0.6-0.3,1-1,1-1.7l0,0c0-0.6-0.7-1-1.2-0.7l-0.5,0.3
						C12.7,13.2,12.3,13.9,12.3,14.5z"/>
					
						<linearGradient id="SVGID_6_" gradientUnits="userSpaceOnUse" x1="1049.6201" y1="14.9297" x2="1051.3997" y2="11.4977" gradientTransform="matrix(-1 0 0 1 1063.7725 0)">
						<stop  offset="7.389160e-02" style="stop-color:#3D292B"/>
						<stop  offset="0.5123" style="stop-color:#663B3D"/>
						<stop  offset="0.8768" style="stop-color:#DB7470"/>
					</linearGradient>
					<path class="st37" d="M14.8,12.8c-0.1,0.6-0.4,1-0.9,1.3l-0.5,0.3c-0.4,0.2-0.8,0.1-1.1-0.2c0,0.1,0,0.2,0,0.3
						c0,0.6,0.7,1,1.2,0.7l0.5-0.3c0.6-0.3,1-1,1-1.7C15,13.1,14.9,13,14.8,12.8z"/>
				</g>
			</g>
			<path class="st38" d="M15.1,15.4C15.1,15.4,15,15.4,15.1,15.4C15,15.4,15,15.4,15.1,15.4z"/>
			<path class="st38" d="M14.9,15.3c0,0-0.1,0-0.1,0C14.9,15.2,14.9,15.2,14.9,15.3z"/>
			<path class="st38" d="M14.8,15.3C14.8,15.3,14.8,15.3,14.8,15.3C14.8,15.3,14.8,15.3,14.8,15.3z"/>
			<path class="st39" d="M3.2,14.8v-0.1V14.8C3.2,14.8,3.2,14.8,3.2,14.8z"/>
			<g>
				<polygon class="st40" points="27.5,12.4 29.2,13.4 30.2,13.7 30.2,13.5 28.5,12.7 				"/>
				<polygon class="st1" points="27.5,12.2 29.2,13.2 30.2,13.5 28.5,12.5 				"/>
				<polygon class="st40" points="20.1,16.6 21.8,17.7 29.2,13.4 27.5,12.4 				"/>
				<polygon class="st40" points="20.9,19.1 21.1,19.1 22.1,17.4 20.3,16.4 				"/>
				<polygon class="st41" points="20.1,16.4 21.8,17.4 29.2,13.2 27.5,12.2 				"/>
				<polygon class="st1" points="19.1,18.1 20.9,19.1 21.8,17.4 20.1,16.4 				"/>
			</g>
		</g>
		<g>
			<g>
				<polygon class="st42" points="1,15.6 1.9,16.1 1.9,13.6 1,13.1 				"/>
				<polygon class="st43" points="1.1,15.5 1.7,15.9 1.7,13.7 1.1,13.4 				"/>
				<polygon class="st44" points="1.1,13.4 1.7,13.7 1.9,13.6 1,13.1 				"/>
				<polygon class="st45" points="1.1,15.5 1,15.6 1.9,16.1 1.7,15.9 				"/>
				<path class="st46" d="M1.5,16C1.2,15.8,1,15.9,1,16.2c0,0.3,0.2,0.7,0.5,0.9C1.8,17.2,2,17.1,2,16.8S1.8,16.1,1.5,16z"/>
				<path class="st45" d="M1.2,16.8c0.1,0.1,0.2,0.2,0.3,0.3c0,0,0.1,0,0.1,0.1c-0.1-0.1-0.1-0.2-0.2-0.3
					C1.3,16.8,1.3,16.8,1.2,16.8z"/>
				<path class="st10" d="M1.1,15.9C1.1,16,1.1,16,1.1,15.9c0,0.3,0.2,0.5,0.3,0.5c0.1,0,0.2-0.1,0.3-0.2C1.6,16.1,1.6,16,1.5,16
					C1.3,15.9,1.2,15.9,1.1,15.9z"/>
				<path class="st47" d="M1.4,16.2c-0.2-0.1-0.3,0-0.3,0.2s0.2,0.5,0.3,0.6c0.2,0.1,0.3,0,0.3-0.2C1.7,16.6,1.6,16.3,1.4,16.2z"/>
				<polygon class="st48" points="1.2,14.8 1.2,15.2 1.4,15.3 1.5,15.3 1.5,14.9 1.4,15 				"/>
				<polygon class="st46" points="1.2,15.1 1.4,15.2 1.4,14.9 1.2,14.7 				"/>
				<polygon class="st10" points="1.2,14.7 1.4,14.9 1.5,14.8 1.3,14.7 				"/>
				<polygon class="st45" points="1.4,15.2 1.5,15.2 1.5,14.8 1.4,14.9 				"/>
				<polygon class="st48" points="1.2,16.4 1.2,16.7 1.4,16.8 1.5,16.8 1.5,16.5 1.4,16.5 				"/>
				<polygon class="st46" points="1.2,16.6 1.4,16.7 1.4,16.4 1.2,16.3 				"/>
				<polygon class="st10" points="1.2,16.3 1.4,16.4 1.5,16.4 1.3,16.3 				"/>
				<polygon class="st45" points="1.4,16.7 1.5,16.7 1.5,16.4 1.4,16.4 				"/>
				<polygon class="st3" points="1.4,17.1 1.4,12.7 1.6,12.5 1.6,12.4 1.2,12.6 1.2,17.1 2.2,18 2.2,17.9 				"/>
				<polygon class="st49" points="9,26.2 15.1,22.6 15.1,14.9 9,18.5 				"/>
				<polygon class="st50" points="9,22.8 8.6,24.2 8.7,26.1 8.8,26.1 9,26.1 9.6,25.8 9.6,22.2 9.4,21.7 				"/>
				<path class="st38" d="M13.1,16.5c0,0,0-0.1,0-0.1C13.1,16.5,13.1,16.5,13.1,16.5z"/>
				<path class="st38" d="M13,16.4c0,0-0.1,0-0.1,0C12.9,16.3,13,16.3,13,16.4z"/>
				<path class="st38" d="M12.9,16.4C12.9,16.4,12.9,16.4,12.9,16.4C12.9,16.4,12.9,16.4,12.9,16.4z"/>
				<path class="st51" d="M14.9,15.2l-4,2.4l-1.1,3.6l0,0.8l2.8-1.8c1.5-0.9,2.4-2.6,2.4-4.4v-0.6C15.1,15.2,15,15.2,14.9,15.2z"/>
				<polygon class="st38" points="10.9,17.5 10.6,17.6 9.2,22.2 9.8,22 9.7,21.2 9.7,21.2 				"/>
				<path class="st52" d="M12.3,21.2v0.2l0.7-0.4v-0.5l-0.4,0.3C12.4,20.9,12.3,21,12.3,21.2z"/>
				<polygon class="st50" points="13.1,22.4 11.9,23.2 9.9,24.2 9.8,22 9.8,22 9.8,22 9.8,24.3 11.9,23.2 13.1,22.5 13.1,19.9 
					13.1,19.9 				"/>
				<path class="st53" d="M13.1,16.4C13.1,16.4,13.1,16.4,13.1,16.4C13,16.4,13,16.4,13.1,16.4c-0.1-0.1-0.2-0.1-0.2-0.1
					c0,0,0,0,0,0l-2,1.2l0,0l-1.1,3.6v0l0,0.9l0,0l0,0l0-0.8l1.1-3.6l2-1.2c0.1,0,0.2,0,0.2,0.1v3.4l0.1,0v-3.4
					C13.1,16.5,13.1,16.5,13.1,16.4C13.1,16.4,13.1,16.4,13.1,16.4z"/>
				<path class="st54" d="M14.1,20.9c-1.2,0.7-2.1,2.2-2.2,3.6l3.4-1.9v-1.9C15,20.6,14.5,20.7,14.1,20.9z"/>
				<polygon class="st3" points="2.9,20 2.9,20 3.9,16.9 3.9,16.9 				"/>
				<polygon class="st3" points="5.7,21.8 5.7,21.8 6.7,18.7 6.7,18.7 				"/>
				<polygon class="st3" points="0.5,16.5 9.4,21.7 10.6,17.6 1.7,12.5 				"/>
				<path class="st39" d="M1.2,15.9v-0.1V15.9C1.2,15.9,1.2,15.9,1.2,15.9z"/>
				
					<linearGradient id="SVGID_7_" gradientUnits="userSpaceOnUse" x1="882.548" y1="15.5752" x2="884.0539" y2="12.6346" gradientTransform="matrix(-1 0 0 1 885.4793 0)">
					<stop  offset="0" style="stop-color:#90C0B4"/>
					<stop  offset="0.9409" style="stop-color:#6E787A"/>
				</linearGradient>
				<path class="st55" d="M4.2,14.7C4.1,14.8,4,15,3.8,15.1l-2,1.2c0-0.1-0.1-0.1-0.2-0.2c0,0,0,0,0,0c0,0-0.1-0.1-0.1-0.1
					c0,0-0.1,0-0.1,0c0,0,0,0,0,0c0,0,0,0,0,0v-0.1l0.6,0.3v-1.8l0.7-0.5L4.2,14.7z"/>
				<path class="st56" d="M1.6,14.6l-0.3,1.2v0.1c0,0,0,0,0,0l-0.1,0.3c0,0.2,0.1,0.3,0.3,0.2l0.4-0.2c0-0.1-0.1-0.1-0.2-0.2
					c0,0,0,0,0,0c0,0-0.1-0.1-0.1-0.1c0,0-0.1,0-0.1,0c0,0,0,0,0,0c0,0,0,0,0,0v-0.1l0.6,0.3v-2.5l-0.1-0.1L1.6,14.6z"/>
				<polygon class="st57" points="1.9,13.6 1.9,13.6 1.9,14.3 2.7,13.8 1.9,13.3 				"/>
				
					<linearGradient id="SVGID_8_" gradientUnits="userSpaceOnUse" x1="880.8033" y1="18.6966" x2="879.5159" y2="16.0558" gradientTransform="matrix(-1 0 0 1 885.4793 0)">
					<stop  offset="8.374380e-02" style="stop-color:#587B8C"/>
					<stop  offset="0.5247" style="stop-color:#4A606B"/>
					<stop  offset="0.9409" style="stop-color:#3B4A51"/>
				</linearGradient>
				<path class="st58" d="M0.9,15.8l0.3-0.9l0.4-0.3l-0.4,1.6c0,0.2,0.1,0.3,0.3,0.2l2.4-1.4C4,15,4.1,14.8,4.2,14.7l-1.5-0.9
					l-1.6,1.2L1.7,13c0-0.1,0.2-0.2,0.3-0.1l1.1,0.6l-0.2,0.2l0.2-0.2l2.3,1.3l0,0l2.2,1.3v0l2.3,1.3l0,0c0.3,0.2,0.4,0.5,0.3,0.8
					l-0.7,2.3c0,0,0,0.1,0,0.1c-0.2,0.4-0.7,0.6-1.1,0.4l-1.8-1l0.8-0.6L8,18.8l-0.8-0.5l-0.7,0.4L5.1,18l-0.8,0.6l-2.2-1.3l0.8-0.6
					l-0.1-0.1c-0.3-0.2-0.7-0.2-1.1-0.1l-0.5,0.2C0.9,16.6,0.8,16.2,0.9,15.8z"/>
				<g>
					<defs>
						<path id="SVGID_9_" d="M13.5,26.8l2.4-1.3l0.8-3.5l-1.4-1.2v-0.2c-0.3-0.1-0.8,0-1.2,0.3c-1.2,0.7-2.1,2.2-2.2,3.6l-1.1,0.7
							L13.5,26.8z"/>
					</defs>
					<clipPath id="SVGID_10_">
						<use xlink:href="#SVGID_9_"  style="overflow:visible;"/>
					</clipPath>
					<path class="st59" d="M14.3,20.7c-0.4-0.2-0.9-0.2-1.4,0.2c-1.1,0.6-2,2.2-2,3.4c0,0.6,0.2,1,0.5,1.2l0,0l0,0c0,0,0,0,0,0
						l1.4,0.8l2.9-4.8L14.3,20.7L14.3,20.7z"/>
					<path class="st60" d="M12.9,20.9c-1.1,0.6-2,2.2-2,3.4c0,0.2,0,0.4,0.1,0.6l1.6,0.9c0.2-0.1,0.3-0.1,0.5-0.2
						c0.2-0.1,0.4-0.3,0.6-0.4l1.5-2.5c0.1-0.2,0.1-0.5,0.1-0.7l-2-1.2C13.1,20.7,13,20.8,12.9,20.9z"/>
					<path class="st61" d="M14.3,21.7c-1.1,0.6-2,2.2-2,3.4s0.9,1.8,2,1.1c1.1-0.6,2-2.2,2-3.4C16.3,21.6,15.5,21.1,14.3,21.7z"/>
					<path class="st62" d="M14.3,21.8c-1.1,0.6-1.9,2.1-1.9,3.3c0,1.2,0.9,1.7,1.9,1.1c1.1-0.6,1.9-2.1,1.9-3.3S15.4,21.2,14.3,21.8
						z"/>
					<path class="st63" d="M14.3,22.3c-0.8,0.5-1.5,1.6-1.5,2.6c0,0.9,0.7,1.3,1.5,0.8c0.8-0.5,1.5-1.6,1.5-2.6
						C15.8,22.2,15.2,21.8,14.3,22.3z"/>
					<path class="st64" d="M14.3,22.4c-0.8,0.4-1.4,1.5-1.4,2.4c0,0.9,0.6,1.2,1.4,0.8c0.8-0.4,1.4-1.5,1.4-2.4
						C15.7,22.3,15.1,21.9,14.3,22.4z"/>
					<path class="st65" d="M13,24.8c0,0.1,0,0.2,0,0.3l1,0.6c0.1,0,0.2-0.1,0.3-0.1c0.8-0.4,1.4-1.5,1.4-2.3l-1.4-0.8
						C13.6,22.8,13,23.9,13,24.8z"/>
					<path class="st66" d="M13,24.3l1.7,1c0.3-0.3,0.6-0.7,0.8-1.1l-1.9-1.1C13.3,23.5,13.1,23.9,13,24.3z"/>
					<path class="st66" d="M13,24.3l1.7,1c0.3-0.3,0.6-0.7,0.8-1.1l-1.9-1.1C13.3,23.5,13.1,23.9,13,24.3z"/>
					<path class="st67" d="M14.2,22.5c-0.6,0.4-1.1,1.2-1.1,1.9c0,0.7,0.5,1,1.1,0.6c0.6-0.4,1.1-1.2,1.1-1.9
						C15.3,22.5,14.8,22.2,14.2,22.5z"/>
					<path class="st68" d="M14.1,22.7c-0.5,0.3-0.9,1-0.9,1.6s0.4,0.8,0.9,0.5c0.5-0.3,0.9-1,0.9-1.6C15.1,22.6,14.7,22.4,14.1,22.7
						z"/>
					<g class="st69">
						<path class="st13" d="M13.6,23.1c-0.1,0.1-0.1,0.1-0.2,0.2c0,0,0.1,0,0.1,0C13.7,23.2,13.7,23.2,13.6,23.1
							C13.6,23.1,13.6,23.1,13.6,23.1z"/>
						<path class="st13" d="M14.8,23.6c-0.1,0.1-0.1,0.2,0,0.2c0.1,0,0.2-0.1,0.3-0.1c0.1-0.1,0.1-0.2,0-0.2
							C15,23.5,14.9,23.6,14.8,23.6z"/>
						<path class="st13" d="M13.3,24.2c-0.1,0.1-0.2,0.2-0.2,0.3c0,0.1,0,0.1,0.1,0.1c0.1-0.1,0.2-0.2,0.2-0.3
							C13.4,24.2,13.4,24.2,13.3,24.2z"/>
						<path class="st13" d="M14.5,22.6c-0.1,0.1-0.1,0.2,0,0.3c0,0.1,0.1,0.1,0.1,0c0.1-0.1,0.1-0.2,0-0.3
							C14.6,22.5,14.5,22.5,14.5,22.6z"/>
						<path class="st13" d="M13.4,23.4c0,0.1-0.1,0.2-0.1,0.3c0.1,0,0.1,0,0.2-0.1C13.5,23.6,13.5,23.5,13.4,23.4
							C13.4,23.4,13.4,23.4,13.4,23.4z"/>
						<path class="st13" d="M13.5,24.5c-0.1,0.1-0.1,0.2-0.1,0.3c0,0.1,0.1,0.1,0.1,0c0.1-0.1,0.1-0.2,0.1-0.3
							C13.6,24.4,13.5,24.4,13.5,24.5z"/>
						<path class="st13" d="M13.2,23.9c0,0.1,0,0.2-0.1,0.3c0,0,0,0,0,0c0.1,0,0.2-0.1,0.2-0.2c0.1-0.1,0-0.2-0.1-0.1
							C13.3,23.8,13.2,23.9,13.2,23.9z"/>
						<path class="st13" d="M14.7,24c-0.1,0.1-0.1,0.1,0,0.2c0.1,0,0.2,0,0.3,0c0.1-0.1,0.1-0.1,0-0.2C14.9,23.9,14.8,23.9,14.7,24z
							"/>
						<path class="st13" d="M14.2,24.5c-0.1,0-0.1,0-0.1,0.1c0,0.1,0.1,0.2,0.1,0.2c0.1,0,0.1,0,0.1-0.1
							C14.3,24.7,14.2,24.6,14.2,24.5z"/>
						<path class="st13" d="M13.7,24.7c0,0.1,0,0.2,0,0.3c0,0.1,0.1,0,0.2-0.1c0-0.1,0-0.2,0-0.3C13.8,24.5,13.8,24.6,13.7,24.7z"/>
						<path class="st13" d="M14.5,24.3c-0.1,0-0.1,0.1-0.1,0.2c0,0.1,0.1,0.1,0.2,0.1c0.1,0,0.1-0.1,0.1-0.2
							C14.6,24.4,14.5,24.3,14.5,24.3z"/>
						<path class="st13" d="M14.8,22.8c-0.1,0.1-0.1,0.2-0.1,0.3c0,0.1,0.1,0.1,0.1,0.1c0.1-0.1,0.1-0.2,0.1-0.3
							C15,22.7,14.9,22.7,14.8,22.8z"/>
						<path class="st13" d="M13.7,22.9c0,0.1,0.1,0.1,0.1,0.1c0.1,0,0.1-0.1,0.1-0.1c0-0.1,0-0.1-0.1-0.1
							C13.8,22.8,13.8,22.8,13.7,22.9z"/>
						<path class="st13" d="M14.8,23.3c0,0.1,0,0.2,0.1,0.1c0.1,0,0.2-0.1,0.2-0.2c0-0.1,0-0.2-0.1-0.1
							C14.9,23.1,14.8,23.2,14.8,23.3z"/>
						<path class="st13" d="M14.2,22.5C14.2,22.5,14.2,22.5,14.2,22.5c-0.1,0-0.1,0.1-0.1,0.1c0,0,0,0,0,0c0,0.1,0,0.2,0.1,0.3
							c0.1,0,0.1,0,0.1-0.1C14.3,22.7,14.3,22.6,14.2,22.5C14.2,22.5,14.2,22.5,14.2,22.5z"/>
					</g>
					<path class="st70" d="M14.1,23.1c-0.3,0.2-0.6,0.6-0.6,1c0,0.4,0.3,0.5,0.6,0.3c0.3-0.2,0.6-0.6,0.6-1
						C14.7,23,14.4,22.9,14.1,23.1z"/>
					<path class="st65" d="M14.1,23.1c-0.3,0.2-0.6,0.6-0.6,1c0,0.1,0,0.2,0.1,0.2l0.5-0.1c0.2-0.2,0.2-0.4,0.4-0.6L14.2,23
						C14.2,23,14.1,23,14.1,23.1z"/>
					<path class="st71" d="M13.5,23.8c0.3,0,0.5,0.1,0.7,0.1c0-0.1,0.1-0.2,0.1-0.2c-0.2-0.1-0.4-0.2-0.6-0.4
						C13.6,23.5,13.6,23.7,13.5,23.8z"/>
					<path class="st65" d="M14.2,23.4c-0.2,0.1-0.4,0.5-0.4,0.7c0,0.3,0.2,0.4,0.4,0.2c0.2-0.1,0.4-0.5,0.4-0.7
						C14.7,23.4,14.5,23.3,14.2,23.4z"/>
					<path class="st72" d="M14.3,23.7c-0.1,0.1-0.2,0.2-0.2,0.4s0.1,0.2,0.2,0.1c0.1-0.1,0.2-0.2,0.2-0.4S14.4,23.6,14.3,23.7z"/>
					<path class="st59" d="M14.8,21c-0.4-0.2-0.9-0.2-1.4,0.2c-1.1,0.6-2,2.2-2,3.4c0,0.6,0.2,1,0.5,1.2l0,0l0,0c0,0,0,0,0,0l1,0.6
						l0,0L12,25.9c0,0,0,0,0,0l0,0l0,0c-0.3-0.2-0.5-0.6-0.5-1.2c0-1.3,0.9-2.8,2-3.4C14,20.9,14.5,20.8,14.8,21l0.1,0.1L14.8,21
						L14.8,21z"/>
					<path class="st59" d="M15.2,21.2c-0.4-0.2-0.9-0.2-1.4,0.2c-1.1,0.6-2,2.2-2,3.4c0,0.6,0.2,1,0.5,1.2l0,0l0,0c0,0,0,0,0,0
						l0.5,0.3l0,0l-0.4-0.2c0,0,0,0,0,0l0,0l0,0c-0.3-0.2-0.5-0.6-0.5-1.2c0-1.3,0.9-2.8,2-3.4C14.4,21.1,14.9,21.1,15.2,21.2
						l0.1,0.1L15.2,21.2L15.2,21.2z"/>
				</g>
				<polygon class="st73" points="8.7,24.6 8,25.5 8.1,26.7 9.3,26.7 11.8,25.3 12.1,23.1 9.4,24.5 				"/>
				<polygon class="st38" points="8.6,24.8 7.9,25.7 8,26.8 9.2,26.9 11.7,25.5 12.1,23.2 9.3,24.7 				"/>
				<polygon class="st74" points="9.8,26.4 11.6,25.3 11.6,24.7 9.8,25.7 				"/>
				<path class="st54" d="M9.8,26.4l0.5-0.6c0.2-0.3,0.6-0.5,1-0.4l0.3,0v-0.7l-1.8,1.1V26.4z"/>
				<polygon class="st74" points="9.8,25.5 11.6,24.4 11.6,23.7 9.8,24.8 				"/>
				<path class="st54" d="M9.8,25.5l0.5-0.6c0.2-0.3,0.6-0.5,1-0.4l0.3,0v-0.7l-1.8,1.1V25.5z"/>
				<polygon class="st75" points="1.8,18.7 0.3,17.8 1.7,18.9 1.7,22 6.5,24.8 6.5,21.7 9,22.8 6.5,21.4 				"/>
				<polygon class="st76" points="7.2,20.9 2.2,18.2 0.7,17.2 0.7,18.2 1.7,22.3 2.4,22.7 2.5,22.7 2.8,22.9 3.9,23.5 4,23.6 
					4.2,23.7 5.3,24.3 5.4,24.4 5.5,24.5 6.5,25.1 8.9,22 8.4,21.7 				"/>
				<path class="st77" d="M7.1,22.4c-0.3,0.2-0.6,0.6-0.6,0.9l-0.1,1.1c0.1,0,0.1,0,0.1-0.1c0,0,0.1-0.1,0.1-0.2v-0.5L8.3,22
					l0.1-0.1C8,21.8,7.5,22,7.1,22.4C7.1,22.4,7.1,22.4,7.1,22.4z"/>
				<path class="st77" d="M0.9,17.5l0.9,3.3l0.1-1.3C1.8,18.8,1.5,18,0.9,17.5C0.9,17.6,0.9,17.5,0.9,17.5z"/>
				<path class="st78" d="M0.9,17.5c0,0-0.1-0.1-0.1-0.1l-0.4-0.3H0.2l-0.1,3.9L1.7,22l0.1-1.2v0l0.1-1.3C1.8,18.8,1.5,18,0.9,17.5
					C0.9,17.6,0.9,17.5,0.9,17.5z"/>
				<path class="st79" d="M0.7,17.5l-0.4-0.3l-0.1,2.3v1.7L1.6,22l0.1-2.5C1.7,18.7,1.3,17.9,0.7,17.5z"/>
				<path class="st80" d="M0.2,18.3l-0.1,1.2v1.7l1,0.6l0.1-1.4C1.2,19.5,0.8,18.8,0.2,18.3z"/>
				<path class="st78" d="M8.6,21.9c-0.1,0-0.1,0-0.2-0.1C8,21.8,7.5,22,7.1,22.4c0,0,0,0,0,0c-0.3,0.2-0.4,0.5-0.4,0.8l0,0.5v0
					l-0.1,0.7l0,0.4L8.7,26l0-1.1l0-0.6l0.5-2.1L8.6,21.9z"/>
				<path class="st79" d="M8.5,22c-0.1,0-0.1,0-0.2-0.1c-0.4-0.1-0.8,0.1-1.2,0.4c0,0,0,0,0,0c-0.3,0.2-0.6,0.6-0.6,0.9l-0.1,1.1
					l0,0.4L8.7,26l0-1.2l0-0.6l0.5-1.9L8.5,22z"/>
				<path class="st80" d="M8.7,23.1c-0.7-0.3-2,0.5-2,1.2l-0.1,0.8l2.1,1l-0.1-1.8l0.3-1.1L8.7,23.1z"/>
				<path class="st73" d="M0.1,19.7L0,19.8l0.1,1.3c0,0.6,0.2,1.1,0.6,1.3l7.2,4.1c0.3,0.2,0.8-0.1,0.8-0.4l0-1.5L0.1,19.7z"/>
				<path class="st77" d="M0.9,17.6c0.3,0.2,0.5,0.6,0.7,0.9l0,0c0.2,0.3,0.2,0.7,0.2,1.1l0,0.3l0,1v0l0,0.6c0,0.2,0.1,0.4,0.3,0.6
					l1,0.8C3.7,23.3,4.3,23.7,5,24l1.2,0.5c0.1,0,0.1,0,0.1,0l0.2-0.8c0-0.2,0.1-0.6,0.2-1l0,0c0.1-0.1,0.1-0.2,0.2-0.3c0,0,0,0,0,0
					C7.3,22.2,7.6,22,7.8,22l0,0c0.2-0.1,0.4-0.1,0.6-0.1l0,0l-4.1-1.8L0.9,17.6z"/>
				<path class="st52" d="M7,22.2l-0.2,0.5l0,0l0,0c0.1-0.1,0.1-0.2,0.2-0.3c0,0,0,0,0,0C7.3,22.2,7.6,22,7.8,22l0,0l0,0l-0.4-0.1
					C7.2,21.9,7,22,7,22.2z"/>
				<path class="st52" d="M1.6,18.4c0.2,0.3,0.2,0.7,0.2,1.1l0,0.3L2,19.2c0-0.2,0-0.3-0.1-0.4L1.6,18.4z"/>
				<polygon class="st76" points="0.4,17.1 1.8,18.2 4.4,20.1 6.6,21.1 9.2,22.2 9.4,21.7 0.5,16.5 				"/>
				<path class="st81" d="M9.5,19.7L8,18.8l-0.8-0.5l-0.7,0.4L5.1,18l-2.2-1.3l-0.1-0.1c-0.3-0.2-0.7-0.2-1.1-0.1l-0.5,0.2l0.9,0.5
					l2.2,1.3l2.3,1.3l1.8,1c0.4,0.2,0.9,0.1,1.1-0.4l0,0L9.5,19.7z"/>
				<path class="st49" d="M10.5,17c0,0.1,0.1,0.2,0.1,0.4c0,0.1,0,0.1,0,0.2l4.6-2.7l-0.3-0.4L10.5,17z"/>
				<path class="st82" d="M6.3,9.8l-4.6,2.4c0,0,0,0,0,0c-0.1,0-0.3,0.4-0.3,0.4c-0.1,0.1,0,0.3,0.1,0.4l7.9,4.6c0,0,0.1,0,0.1,0
					c0.1,0,0.1,0.1,0.2,0.1c0.1,0,0.1,0,0.2,0c0.2,0,0.3,0,0.5-0.1l0.1-0.1c0-0.1,0-0.1,0-0.2c0-0.1,0-0.3-0.1-0.4l4.4-2.5L6.3,9.8z
					"/>
				<path class="st83" d="M10,16.6c-0.3,0-0.5,0.2-0.5,0.6c0,0.1,0,0.1,0,0.2c0,0.1,0,0.2,0,0.3c0.1,0,0.1,0.1,0.2,0.1
					c0.1,0,0.1,0,0.2,0c0.2,0,0.3,0,0.5-0.1l0.1-0.1c0-0.1,0-0.1,0-0.2c0-0.1,0-0.3-0.1-0.4C10.4,16.8,10.2,16.6,10,16.6z"/>
				<path class="st84" d="M1.8,12.2C1.8,12.2,1.7,12.2,1.8,12.2C1.7,12.3,1.7,12.3,1.8,12.2c-0.2,0.2-0.2,0.4,0,0.5l7.6,4.4
					c0,0,0.1,0,0.1,0.1c0.3,0.1,0.6,0.1,0.9-0.1l0.2-0.1l4.4-2.5L6.3,9.6L1.8,12.2z"/>
				<path class="st83" d="M6.2,12.7C6,12.8,5.8,13,5.9,13.1c0.1,0.1,0.3,0.1,0.5,0c0.2-0.1,0.3-0.3,0.3-0.4
					C6.6,12.6,6.4,12.6,6.2,12.7z"/>
				<path class="st83" d="M7.5,13.5c-0.2,0.1-0.3,0.3-0.3,0.4c0.1,0.1,0.3,0.1,0.5,0C8,13.8,8.1,13.6,8,13.5
					C7.9,13.4,7.7,13.4,7.5,13.5z"/>
				<path class="st83" d="M8.9,14.3c-0.2,0.1-0.3,0.3-0.3,0.4c0.1,0.1,0.3,0.1,0.5,0c0.2-0.1,0.3-0.3,0.3-0.4
					C9.3,14.2,9.1,14.2,8.9,14.3z"/>
				
					<linearGradient id="SVGID_11_" gradientUnits="userSpaceOnUse" x1="873.4569" y1="20.5159" x2="874.4944" y2="17.4035" gradientTransform="matrix(-1 0 0 1 885.4793 0)">
					<stop  offset="8.374380e-02" style="stop-color:#425F73"/>
					<stop  offset="0.6181" style="stop-color:#313F4A"/>
					<stop  offset="0.9409" style="stop-color:#262E36"/>
				</linearGradient>
				<path class="st85" d="M10.2,21L11,18c0-0.1,0.1-0.2,0.2-0.3c0,0,0.1-0.1,0.1-0.1l1.2-0.7c0,0,0,0,0.1,0c0.1,0,0.3,0,0.3,0.2
					c0,0,0,0,0,0.1v2.1c0,0.1,0,0.2,0,0.2c-0.1,0.3-0.2,0.6-0.5,0.7l-2,1.1C10.3,21.4,10.1,21.2,10.2,21z"/>
				
					<linearGradient id="SVGID_12_" gradientUnits="userSpaceOnUse" x1="874.1033" y1="22.9965" x2="874.6005" y2="21.4765" gradientTransform="matrix(-1 0 0 1 885.4793 0)">
					<stop  offset="8.374380e-02" style="stop-color:#425F73"/>
					<stop  offset="0.9409" style="stop-color:#384B60"/>
				</linearGradient>
				<path class="st86" d="M11.7,21.2l-1.2,0.7c-0.2,0.1-0.2,0.3-0.2,0.4v0.8c0,0.1,0.2,0.2,0.3,0.2l1.2-0.7c0.1-0.1,0.2-0.2,0.2-0.4
					v-0.9C12,21.2,11.8,21.1,11.7,21.2z"/>
				<path class="st41" d="M14.1,20.7c-1.3,0.7-2.3,2.5-2.4,3.9v0.5l0.3,0.2v-0.5c0.1-1.5,1.1-3.2,2.4-3.9c0.5-0.3,0.9-0.4,1.3-0.3
					l-0.3-0.2C15,20.3,14.6,20.4,14.1,20.7z"/>
				<path class="st3" d="M14.4,20.9c-1.3,0.7-2.3,2.5-2.4,3.9v0.5l0.2-0.1l0-0.5c0-0.1,0-0.1,0-0.2c0.2-1.4,1.1-2.8,2.3-3.5
					c0.3-0.2,0.7-0.3,1-0.3c0,0,0.1,0,0.1,0c0.1,0,0.1,0,0.2,0v-0.2C15.3,20.5,14.9,20.6,14.4,20.9z"/>
				<path class="st87" d="M5.9,12.7c-0.2,0.1-0.3,0.3-0.3,0.4c0.1,0.1,0.3,0.1,0.5,0c0.2-0.1,0.3-0.3,0.3-0.4
					C6.4,12.6,6.1,12.6,5.9,12.7z"/>
				<path class="st87" d="M7.3,13.5c-0.2,0.1-0.3,0.3-0.3,0.4c0.1,0.1,0.3,0.1,0.5,0c0.2-0.1,0.3-0.3,0.3-0.4
					C7.7,13.4,7.5,13.4,7.3,13.5z"/>
				<path class="st87" d="M8.7,14.3c-0.2,0.1-0.3,0.3-0.3,0.4c0.1,0.1,0.3,0.1,0.5,0c0.2-0.1,0.3-0.3,0.3-0.4
					C9.1,14.2,8.9,14.2,8.7,14.3z"/>
				<path class="st88" d="M8.8,14.3c-0.1,0.1-0.2,0.1-0.1,0.2c0,0.1,0.1,0,0.2,0C9,14.4,9,14.3,9,14.3C9,14.2,8.9,14.2,8.8,14.3z"/>
				<path class="st88" d="M7.4,13.5c-0.1,0.1-0.2,0.1-0.1,0.2c0,0.1,0.1,0.1,0.2,0c0.1-0.1,0.2-0.1,0.1-0.2
					C7.6,13.4,7.5,13.4,7.4,13.5z"/>
				<path class="st88" d="M6,12.7c-0.1,0.1-0.2,0.1-0.1,0.2c0,0.1,0.1,0.1,0.2,0c0.1-0.1,0.2-0.1,0.1-0.2C6.2,12.6,6.1,12.6,6,12.7z
					"/>
				<polygon class="st89" points="10.8,21.3 11.7,21.8 11.7,19.3 10.8,18.7 				"/>
				<polygon class="st90" points="10.9,21.2 11.5,21.5 11.5,19.4 10.9,19 				"/>
				<polygon class="st74" points="10.9,19 11.5,19.4 11.7,19.3 10.8,18.7 				"/>
				<polygon class="st3" points="10.9,21.2 10.8,21.3 11.7,21.8 11.5,21.5 				"/>
				<path class="st89" d="M11.3,21.6c-0.3-0.2-0.5-0.1-0.5,0.2c0,0.3,0.2,0.7,0.5,0.9c0.3,0.2,0.5,0.1,0.5-0.2
					C11.8,22.2,11.6,21.8,11.3,21.6z"/>
				<path class="st3" d="M11,22.5c0.1,0.1,0.2,0.2,0.3,0.3c0,0,0.1,0,0.1,0.1c-0.1-0.1-0.1-0.2-0.2-0.3C11.1,22.5,11,22.5,11,22.5z"
					/>
				<path class="st74" d="M10.9,21.6C10.9,21.6,10.9,21.6,10.9,21.6c0,0.3,0.2,0.5,0.3,0.5c0.1,0,0.2-0.1,0.3-0.2
					c-0.1-0.1-0.2-0.2-0.2-0.2C11.1,21.5,11,21.5,10.9,21.6z"/>
				<path class="st90" d="M11.2,21.8c-0.2-0.1-0.3,0-0.3,0.2s0.2,0.5,0.3,0.6c0.2,0.1,0.3,0,0.3-0.2C11.5,22.2,11.4,22,11.2,21.8z"
					/>
				<polygon class="st91" points="11,20.5 11,20.9 11.2,21 11.3,21 11.3,20.6 11.2,20.6 				"/>
				<polygon class="st89" points="11,20.8 11.2,20.9 11.2,20.5 11,20.4 				"/>
				<polygon class="st74" points="11,20.4 11.2,20.5 11.3,20.5 11.1,20.4 				"/>
				<polygon class="st3" points="11.2,20.9 11.3,20.9 11.3,20.5 11.2,20.5 				"/>
				<polygon class="st91" points="11,22.1 11,22.3 11.2,22.5 11.3,22.4 11.3,22.2 11.2,22.2 				"/>
				<polygon class="st89" points="11,22.2 11.2,22.3 11.2,22.1 11,22 				"/>
				<polygon class="st74" points="11,22 11.2,22.1 11.3,22.1 11.1,21.9 				"/>
				<polygon class="st3" points="11.2,22.3 11.3,22.3 11.3,22.1 11.2,22.1 				"/>
				<polygon class="st3" points="10.8,18.1 11.1,18.3 11.1,22.7 10.2,23.5 10.2,23.7 11.2,22.8 11.2,18.3 10.9,18 				"/>
				<path class="st38" d="M0,19.9v1.5c0,0.5,0.2,1,0.7,1.2l7.2,4.1c0.3,0.2,1.1-0.1,1.1-0.5l-0.2-1.5L0,19.9z"/>
				<path class="st77" d="M1.8,21.4c0,0.2,0.1,0.4,0.3,0.6l1,0.8C3.7,23.3,4.3,23.7,5,24l1.2,0.5c0.2,0.1,0.4-0.1,0.4-0.2v-0.5
					l-4.8-2.8L1.8,21.4z"/>
				<g>
					<path class="st22" d="M7.4,25.2v-0.5l-0.2-0.1c-0.1,0-0.2,0-0.2,0.1v0.5c0,0.1,0.1,0.2,0.1,0.2l1,0.6c0.1,0,0.6,0.1,0.6,0v-0.2
						l-1.2-0.4C7.4,25.4,7.4,25.3,7.4,25.2z"/>
					<path class="st22" d="M0.5,21.2v-0.5l-0.2-0.1c-0.1,0-0.2,0-0.2,0.1v0.5c0,0.1,0.1,0.2,0.2,0.2l1,0.6c0.1,0,0.2,0,0.2-0.1v-0.1
						l-0.8-0.5C0.5,21.4,0.5,21.3,0.5,21.2z"/>
					<path class="st92" d="M7.5,24.8l-0.1-0.1v0.5c0,0.1,0.1,0.2,0.1,0.2l0.8,0.5v-0.5c0-0.1-0.1-0.2-0.1-0.2L7.5,24.8z"/>
					<path class="st93" d="M7.5,24.8v0.1c0,0.1,0.1,0.2,0.1,0.2l0.7,0.4v-0.1c0-0.1-0.1-0.2-0.1-0.2L7.5,24.8z"/>
					<path class="st92" d="M0.6,20.8l-0.1-0.1v0.5c0,0.1,0.1,0.2,0.1,0.2l0.8,0.5v-0.5c0-0.1-0.1-0.2-0.1-0.2L0.6,20.8z"/>
					<path class="st93" d="M0.5,20.7v0.2c0,0.1,0.1,0.2,0.1,0.2l0.8,0.5v-0.2c0-0.1-0.1-0.2-0.1-0.2L0.5,20.7z"/>
				</g>
				<polygon class="st94" points="8.2,25.6 8,25.7 8.3,25.9 8.7,25.9 8.7,25.2 8.2,25.2 				"/>
				<path class="st2" d="M2.1,21.5v0.1c0,0.2,0.1,0.1,0.3,0.3c0.5,0.3,0.8,0.5,1.3,0.8C4.1,23,5.3,23.7,6,24c0.1,0,0.4,0.2,0.4,0.1
					v0l0-0.1l-4.2-2.4L2.1,21.5z"/>
				<path class="st2" d="M2.1,20.8V21c0,0.2,0.1,0.1,0.3,0.3c0.5,0.3,0.8,0.5,1.3,0.8c0.5,0.3,1.7,1,2.4,1.3c0.1,0,0.4,0.2,0.4,0.1
					l0,0l0-0.1l-4.2-2.4L2.1,20.8z"/>
				<path class="st2" d="M2.1,20.2v0.1c0,0.2,0.1,0.1,0.3,0.3c0.5,0.3,0.8,0.5,1.3,0.8c0.5,0.3,1.7,1,2.4,1.3c0.1,0,0.4,0.2,0.4,0.1
					v0l0-0.1l-4.2-2.4L2.1,20.2z"/>
				<path class="st2" d="M2.1,19.6v0.1c0,0.2,0.1,0.1,0.3,0.3c0.5,0.3,0.8,0.5,1.3,0.8c0.5,0.3,1.7,1,2.4,1.3c0.1,0,0.4,0.2,0.4,0.1
					l0,0l0-0.1l-4.2-2.4L2.1,19.6z"/>
				<path class="st52" d="M2.2,21.5c0,0.2,0.1,0.1,0.3,0.3c0.5,0.3,0.8,0.5,1.3,0.8c0.5,0.3,1.7,1,2.4,1.3c0,0,0.2,0.1,0.3,0.1
					l0-0.1L2.2,21.5L2.2,21.5z"/>
				<path class="st52" d="M2.2,20.9c0,0.2,0.1,0.1,0.3,0.3c0.5,0.3,0.8,0.5,1.3,0.8c0.5,0.3,1.7,1,2.4,1.3c0,0,0.2,0.1,0.3,0.1
					l0-0.1L2.2,20.9L2.2,20.9z"/>
				<path class="st52" d="M2.2,20.3c0,0.2,0.1,0.1,0.3,0.3c0.5,0.3,0.8,0.5,1.3,0.8c0.5,0.3,1.7,1,2.4,1.3c0,0,0.2,0.1,0.3,0.1
					l0-0.1L2.2,20.3L2.2,20.3z"/>
				<path class="st52" d="M2.2,19.7c0,0.2,0.1,0.1,0.3,0.3c0.5,0.3,0.8,0.5,1.3,0.8c0.5,0.3,1.7,1,2.4,1.3c0,0,0.2,0.1,0.3,0.1
					l0-0.1L2.2,19.7L2.2,19.7z"/>
				<polygon class="st94" points="0.5,20.7 0.1,20.4 0.1,21 0.2,21.2 0.6,21.4 0.5,21.2 				"/>
				<g>
					<path class="st49" d="M6.8,15.8v-0.2l-0.1,0c0,0-0.1,0-0.1,0v0.2c0,0,0,0.1,0.1,0.1l0.7,0.4c0,0,0.1,0,0.1,0v0l-0.6-0.4
						C6.9,15.9,6.8,15.9,6.8,15.8z"/>
					<path class="st95" d="M6.8,15.6v0.2c0,0,0,0.1,0.1,0.1l0.6,0.4v-0.2c0,0,0-0.1-0.1-0.1L6.8,15.6z"/>
				</g>
				<g>
					<path class="st49" d="M3.7,14v-0.2l-0.1,0c0,0-0.1,0-0.1,0V14c0,0,0,0.1,0.1,0.1l0.7,0.4c0,0,0.1,0,0.1,0v0l-0.6-0.4
						C3.7,14.1,3.7,14,3.7,14z"/>
					<path class="st95" d="M3.7,13.8V14c0,0,0,0.1,0.1,0.1l0.6,0.4v-0.2c0,0,0-0.1-0.1-0.1L3.7,13.8z"/>
				</g>
				
					<linearGradient id="SVGID_13_" gradientUnits="userSpaceOnUse" x1="755.7374" y1="20.0654" x2="757.8359" y2="16.4278" gradientTransform="matrix(-1 0 0 1 771.3736 0)">
					<stop  offset="8.374380e-02" style="stop-color:#425F73"/>
					<stop  offset="0.6181" style="stop-color:#313F4A"/>
					<stop  offset="0.9409" style="stop-color:#262E36"/>
				</linearGradient>
				<path class="st96" d="M14.8,15.9l-0.1,0.7c-0.1,0.8-0.5,1.8-1,2.3l-0.1,0c-0.1,0.1-0.3,0.1-0.3-0.1v-2.1c0-0.2,0.1-0.4,0.3-0.5
					l0.9-0.6C14.7,15.7,14.8,15.8,14.8,15.9z"/>
			</g>
		</g>
	</g>
	<g>
		<path class="st97" d="M17.5,4.9c0,0.4,0.4,0.8,1,0.9c0.1,0,0.1,0,0.2,0c0,0,0.1,0,0.1,0c0,0,0,0,0.1,0c0,0,0,0,0.1,0
			c0.1,0,0.1,0,0.2,0c0,0,0.1,0,0.1,0c0,0,0.1,0,0.1,0c0,0,0.1,0,0.1,0c0,0,0.1,0,0.1,0c0.1,0,0.1,0,0.2,0c0,0,0,0,0.1,0
			c0,0,0,0,0.1,0c0,0,0.1,0,0.1,0c0.1,0,0.1,0,0.2,0c0,0,0.1,0,0.1,0c0.1,0,0.1,0,0.2-0.1c0,0,0,0,0.1,0c0,0,0.1,0,0.1-0.1
			c0,0,0,0,0.1,0c0.1,0,0.1-0.1,0.2-0.1c0,0,0,0,0,0c0,0,0.1-0.1,0.1-0.1c0,0,0-0.1,0.1-0.1c0,0,0,0,0-0.1c0,0,0,0,0-0.1
			c0,0,0,0,0,0c0,0,0,0,0,0c0,0,0,0,0,0c0,0,0-0.1,0-0.2V4.5h-3.7V4.9z"/>
		<path class="st98" d="M18.5,5.9c0.1,0,0.1,0,0.2,0c0,0,0.1,0,0.1,0c0,0,0,0,0.1,0c0,0,0,0,0.1,0c0.1,0,0.1,0,0.2,0
			c0,0,0.1,0,0.1,0c0,0,0.1,0,0.1,0c0,0,0.1,0,0.1,0c0,0,0.1,0,0.1,0c0.1,0,0.1,0,0.2,0c0,0,0,0,0.1,0c0,0,0,0,0.1,0
			c0,0,0.1,0,0.1,0c0.1,0,0.1,0,0.2,0V4.5h-1.6V5.9z"/>
		<path class="st99" d="M20.2,5.9c0,0,0.1,0,0.1,0c0.1,0,0.1,0,0.2-0.1c0,0,0,0,0.1,0c0,0,0.1,0,0.1-0.1c0,0,0,0,0.1,0
			c0.1,0,0.1-0.1,0.2-0.1c0,0,0,0,0,0c0,0,0.1-0.1,0.1-0.1c0,0,0-0.1,0.1-0.1c0,0,0,0,0-0.1c0,0,0,0,0-0.1c0,0,0,0,0,0c0,0,0,0,0,0
			c0,0,0,0,0,0c0,0,0-0.1,0-0.2V4.5h-1V5.9z"/>
		<path class="st100" d="M20.4,3.6c-0.1,0-0.1,0-0.2-0.1c0,0-0.1,0-0.1,0c-0.2-0.1-0.5-0.1-0.8-0.1c-0.3,0-0.6,0-0.8,0.1
			c-0.6,0.2-1,0.5-1,0.9c0,0.4,0.4,0.8,1,0.9c0.2,0.1,0.5,0.1,0.8,0.1c0.3,0,0.6,0,0.8-0.1c0.6-0.2,1-0.5,1-0.9
			C21.2,4.1,20.9,3.8,20.4,3.6z"/>
	</g>
	<g>
		<g>
			<polygon class="st101" points="23.9,10.7 24.6,11.2 25.3,9.8 24.6,9.4 			"/>
			<path class="st102" d="M24.6,9.3L24.6,9.3l-0.7,1.4l0,0l0.7,0.5l0,0l0.7-1.4l0,0L24.6,9.3z M24.6,11.1L24,10.7l0.6-1.3l0.6,0.4
				L24.6,11.1z"/>
		</g>
		<path class="st103" d="M24.2,10.6c0,0.2,0.2,0.3,0.3,0.2c0.2-0.1,0.3-0.4,0.3-0.6c0-0.2-0.3-0.6-0.3-0.6S24.2,10.4,24.2,10.6z"/>
		<path class="st104" d="M24.3,10.5c0,0.2,0.1,0.3,0.3,0.2c0.2-0.1,0.2-0.3,0.2-0.4c0-0.2-0.2-0.5-0.2-0.5S24.3,10.3,24.3,10.5z"/>
		<path class="st77" d="M24.4,10.3c0,0.1,0,0.2,0,0.2c0,0,0.1-0.1,0.2-0.2c0-0.1,0-0.2,0-0.2C24.5,10.1,24.5,10.1,24.4,10.3z"/>
	</g>
	<g>
		<g>
			<path class="st78" d="M20.7,11.8c-0.1,0.1-0.2,0.2-0.3,0.4c-0.1,0.2-0.1,0.4-0.1,0.7c0,0.3,0,0.4,0.1,0.5c0.1,0.1,0.2,0.1,0.3,0
				c0.1-0.1,0.2-0.2,0.3-0.4c0.1-0.2,0.1-0.4,0.1-0.7c0-0.3,0-0.4-0.1-0.5C21,11.7,20.9,11.7,20.7,11.8z M20.7,13.1
				c-0.1,0-0.1,0-0.2,0c0-0.1-0.1-0.2-0.1-0.4c0-0.2,0-0.3,0.1-0.4c0-0.1,0.1-0.2,0.2-0.2c0.1-0.1,0.2,0.1,0.2,0.4
				S20.9,13,20.7,13.1z"/>
			<polygon class="st78" points="21.8,12.7 22,12.5 22,11 21.8,11.1 			"/>
			<polygon class="st78" points="22.9,10.4 22.7,10.6 22.7,12.1 23.2,11.8 23.2,11.5 22.9,11.7 			"/>
		</g>
	</g>
</g>
</svg>
