<?xml version="1.0" encoding="utf-8"?>
<!-- Generator: Adobe Illustrator 23.0.0, SVG Export Plug-In . SVG Version: 6.00 Build 0)  -->
<svg version="1.1" id="Слой_1" xmlns="http://www.w3.org/2000/svg" xmlns:xlink="http://www.w3.org/1999/xlink" x="0px" y="0px"
	 viewBox="0 0 31.9 26.4" style="enable-background:new 0 0 31.9 26.4;" xml:space="preserve">
<style type="text/css">
	.st0{display:none;fill:#AFBDE3;}
	.st1{fill:#0E0F0F;}
	.st2{fill:#1D1D1D;}
	.st3{fill:#272727;}
	.st4{fill:#1B1B1C;}
	.st5{fill:#3A3A3A;}
	.st6{fill:#727273;}
	.st7{fill:#A9A9A9;}
	.st8{fill:#E9EAE6;}
	.st9{fill:#737373;}
	.st10{fill:#949494;}
	.st11{fill:#575757;}
	.st12{fill:#CDCDCD;}
	.st13{fill:#DBDDD8;}
	.st14{fill:#DFDFE0;}
	.st15{fill:#181819;}
	.st16{fill:#2F2F2F;}
	.st17{fill:#222221;}
	.st18{fill:#676767;}
	.st19{fill:#92968C;}
	.st20{fill:#3F3F3F;}
	.st21{fill:#72786B;}
	.st22{fill:#373737;}
	.st23{fill:#161718;}
	.st24{fill:#A8A8A8;}
	.st25{fill:#646E7B;}
	.st26{fill:#C4C9D7;}
	.st27{fill:#242424;}
	.st28{fill:url(#SVGID_1_);}
	.st29{fill:#121314;}
	.st30{fill:url(#SVGID_2_);}
	.st31{fill:#2C2C2C;}
	.st32{fill:#1E1E1E;}
	.st33{fill:#151616;}
	.st34{fill:#BDC3D5;}
	.st35{fill:#C6C8CC;}
	.st36{fill:#BEE0E8;}
	.st37{clip-path:url(#SVGID_4_);fill:#272727;}
	.st38{clip-path:url(#SVGID_4_);}
	.st39{fill:#4D4D4D;}
	.st40{fill:#C3C4C4;}
	.st41{fill:#B0B4C5;}
	.st42{fill:#E3E9F4;}
	.st43{fill:#B2B7BE;}
	.st44{fill:url(#SVGID_5_);}
	.st45{fill:url(#SVGID_6_);}
	.st46{fill:#395161;}
	.st47{fill:#D6D5D5;}
	.st48{fill:#D05D44;}
	.st49{fill:#ECB05A;}
	.st50{fill:#5C5C5C;}
	.st51{fill:#7E7E7E;}
	.st52{fill:#B1B1B1;}
	.st53{fill:#414141;}
	.st54{fill:#585858;}
	.st55{fill:#4E4E4E;}
	.st56{fill:#131414;}
	.st57{fill:#2A2A2A;}
	.st58{fill:#464646;}
	.st59{fill:#B3B3B4;}
	.st60{fill:#292928;}
	.st61{fill:#513335;}
	.st62{fill:#D24A45;}
	.st63{fill:#DA6F63;}
	.st64{fill:#954C47;}
	.st65{fill:#E18E7F;}
	.st66{fill:#834642;}
	.st67{fill:#A54E45;}
	.st68{fill:url(#SVGID_7_);}
	.st69{fill:url(#SVGID_8_);}
	.st70{fill:url(#SVGID_9_);}
	.st71{fill:url(#SVGID_10_);}
	.st72{fill:url(#SVGID_11_);}
	.st73{fill:url(#SVGID_12_);}
	.st74{fill:#F3F4F4;}
	.st75{fill:#DEDEDE;}
	.st76{fill:#C0C0BF;}
	.st77{fill:#F8F8F8;}
	.st78{fill:#E39544;}
	.st79{fill:#F3F3F2;}
	.st80{fill:#181B19;}
	.st81{fill:#666666;}
	.st82{fill:#FFFFFF;}
</style>
<g>
	<g>
		<path class="st0" d="M31.2,13l-6.3-4L-0.3,20.8c-0.4,0.2-0.4,0.7,0,0.9l7.9,4.4c1.3,0.7,3,0.7,4.3,0L31.1,15
			C31.9,14.5,31.9,13.5,31.2,13z"/>
		<g>
			<g>
				<g>
					<path class="st1" d="M15.4,18.8c-0.3-0.2-0.8-0.2-1.3,0.1c-1,0.6-1.9,2.1-1.9,3.2c0,0.6,0.2,1,0.5,1.2l0,0l0,0c0,0,0,0,0,0
						l1.4,0.8l2.7-4.6L15.4,18.8L15.4,18.8z"/>
					<path class="st2" d="M14.1,19c-1,0.6-1.9,2.1-1.9,3.2c0,0.2,0,0.4,0.1,0.6l1.5,0.9c0.2,0,0.3-0.1,0.5-0.2
						c0.2-0.1,0.4-0.3,0.6-0.4l1.4-2.4c0.1-0.2,0.1-0.5,0.1-0.7l-1.9-1.1C14.3,18.8,14.2,18.9,14.1,19z"/>
					<path class="st3" d="M15.4,19.7c-1,0.6-1.9,2.1-1.9,3.2c0,1.2,0.8,1.7,1.9,1.1c1-0.6,1.9-2.1,1.9-3.2S16.5,19.1,15.4,19.7z"/>
					<path class="st4" d="M15.4,19.8c-1,0.6-1.8,2-1.8,3.1c0,1.1,0.8,1.6,1.8,1c1-0.6,1.8-2,1.8-3.1C17.3,19.7,16.4,19.2,15.4,19.8z
						"/>
					<path class="st5" d="M15.4,20.3c-0.8,0.5-1.4,1.5-1.4,2.4c0,0.9,0.6,1.2,1.4,0.8c0.8-0.5,1.4-1.5,1.4-2.4
						C16.9,20.2,16.2,19.8,15.4,20.3z"/>
					<path class="st6" d="M15.4,20.4c-0.7,0.4-1.3,1.4-1.3,2.3c0,0.8,0.6,1.2,1.3,0.7c0.7-0.4,1.3-1.4,1.3-2.3
						C16.8,20.3,16.2,20,15.4,20.4z"/>
					<path class="st7" d="M14.1,22.7c0,0.1,0,0.2,0,0.3l1,0.6c0.1,0,0.2-0.1,0.3-0.1c0.7-0.4,1.3-1.4,1.3-2.2l-1.3-0.8
						C14.7,20.8,14.1,21.8,14.1,22.7z"/>
					<path class="st8" d="M14.2,22.2l1.6,0.9c0.3-0.3,0.6-0.6,0.8-1l-1.8-1.1C14.4,21.4,14.2,21.8,14.2,22.2z"/>
					<path class="st8" d="M14.2,22.2l1.6,0.9c0.3-0.3,0.6-0.6,0.8-1l-1.8-1.1C14.4,21.4,14.2,21.8,14.2,22.2z"/>
					<path class="st9" d="M15.3,20.5c-0.6,0.3-1,1.1-1,1.8s0.5,0.9,1,0.6c0.6-0.3,1-1.1,1-1.8C16.3,20.5,15.9,20.2,15.3,20.5z"/>
					
						<ellipse transform="matrix(0.5122 -0.8589 0.8589 0.5122 -11.1907 23.6774)" class="st10" cx="15.2" cy="21.7" rx="1.3" ry="0.7"/>
					<path class="st11" d="M14.7,21c-0.1,0.1-0.1,0.1-0.1,0.2c0,0,0.1,0,0.1,0C14.8,21.2,14.8,21.1,14.7,21
						C14.8,21.1,14.8,21.1,14.7,21z"/>
					<path class="st11" d="M15.9,21.6c-0.1,0.1,0,0.1,0,0.2c0.1,0,0.2-0.1,0.2-0.1c0.1-0.1,0-0.1,0-0.2C16,21.5,15.9,21.5,15.9,21.6
						z"/>
					<path class="st11" d="M14.5,22.1c-0.1,0-0.2,0.2-0.2,0.3c0,0.1,0,0.1,0.1,0.1c0.1,0,0.2-0.2,0.2-0.3
						C14.6,22.1,14.5,22.1,14.5,22.1z"/>
					<path class="st11" d="M15.6,20.6c-0.1,0.1-0.1,0.2,0,0.3c0,0.1,0.1,0.1,0.1,0c0.1-0.1,0.1-0.2,0-0.3
						C15.7,20.5,15.6,20.5,15.6,20.6z"/>
					<path class="st11" d="M14.5,21.4c0,0.1-0.1,0.2-0.1,0.3c0.1,0,0.1,0,0.2-0.1C14.6,21.5,14.6,21.4,14.5,21.4
						C14.5,21.4,14.5,21.4,14.5,21.4z"/>
					<path class="st11" d="M14.6,22.4c-0.1,0.1-0.1,0.2-0.1,0.3c0,0.1,0.1,0.1,0.1,0c0.1-0.1,0.1-0.2,0.1-0.3
						C14.7,22.3,14.7,22.3,14.6,22.4z"/>
					<path class="st11" d="M14.3,21.8c0,0.1,0,0.2-0.1,0.3c0,0,0,0,0,0c0.1,0,0.2-0.1,0.2-0.2c0-0.1,0-0.1-0.1-0.1
						C14.4,21.8,14.4,21.8,14.3,21.8z"/>
					<path class="st11" d="M15.8,21.9c-0.1,0.1-0.1,0.1,0,0.2c0.1,0,0.2,0,0.2,0c0.1-0.1,0.1-0.1,0-0.2
						C15.9,21.9,15.8,21.9,15.8,21.9z"/>
					<path class="st11" d="M15.3,22.4c-0.1,0-0.1,0-0.1,0.1c0,0.1,0,0.2,0.1,0.2c0.1,0,0.1,0,0.1-0.1C15.4,22.6,15.3,22.5,15.3,22.4
						z"/>
					<path class="st11" d="M14.8,22.6c0,0.1,0,0.2,0,0.3c0,0.1,0.1,0,0.1-0.1c0-0.1,0-0.2,0-0.3C14.9,22.4,14.9,22.5,14.8,22.6z"/>
					<path class="st11" d="M15.5,22.2c-0.1,0-0.1,0.1-0.1,0.2c0,0.1,0.1,0.1,0.2,0.1c0.1,0,0.1-0.1,0.1-0.2S15.6,22.2,15.5,22.2z"/>
					<path class="st11" d="M15.9,20.8c-0.1,0.1-0.1,0.2-0.1,0.3c0,0.1,0,0.1,0.1,0.1c0.1-0.1,0.1-0.2,0.1-0.3
						C16,20.7,16,20.7,15.9,20.8z"/>
					<path class="st11" d="M14.8,20.9c0,0,0.1,0.1,0.1,0.1c0.1,0,0.1-0.1,0.1-0.1c0,0,0-0.1-0.1-0.1C15,20.8,14.9,20.8,14.8,20.9z"
						/>
					<path class="st11" d="M15.9,21.3c0,0.1,0,0.1,0.1,0.1c0.1,0,0.2-0.1,0.2-0.2c0-0.1,0-0.1-0.1-0.1C16,21.1,15.9,21.2,15.9,21.3z
						"/>
					<path class="st11" d="M15.3,20.5C15.3,20.5,15.3,20.5,15.3,20.5c-0.1,0-0.1,0.1-0.1,0.1c0,0,0,0,0,0c0,0.1,0,0.2,0.1,0.3
						c0.1,0,0.1,0,0.1-0.1C15.4,20.7,15.4,20.6,15.3,20.5C15.3,20.5,15.3,20.5,15.3,20.5z"/>
					<path class="st12" d="M15.2,21.1c-0.3,0.2-0.6,0.6-0.6,1s0.2,0.5,0.6,0.3c0.3-0.2,0.6-0.6,0.6-1S15.5,20.9,15.2,21.1z"/>
					<path class="st7" d="M15.2,21.1c-0.3,0.2-0.6,0.6-0.6,1c0,0.1,0,0.2,0.1,0.2l0.5-0.1c0.2-0.2,0.2-0.4,0.3-0.6L15.3,21
						C15.3,21,15.2,21,15.2,21.1z"/>
					<path class="st13" d="M14.7,21.8c0.2,0,0.5,0.1,0.7,0.1c0-0.1,0.1-0.1,0.1-0.2c-0.2-0.1-0.4-0.2-0.6-0.3
						C14.8,21.5,14.7,21.6,14.7,21.8z"/>
					<path class="st7" d="M15.3,21.4c-0.2,0.1-0.4,0.4-0.4,0.7c0,0.2,0.2,0.3,0.4,0.2c0.2-0.1,0.4-0.4,0.4-0.7
						C15.7,21.4,15.6,21.3,15.3,21.4z"/>
					<path class="st14" d="M15.4,21.7c-0.1,0.1-0.2,0.2-0.2,0.4c0,0.1,0.1,0.2,0.2,0.1c0.1-0.1,0.2-0.2,0.2-0.4
						C15.6,21.6,15.5,21.6,15.4,21.7z"/>
					<path class="st1" d="M15.8,19.1c-0.3-0.2-0.8-0.2-1.3,0.1c-1,0.6-1.9,2.1-1.9,3.2c0,0.6,0.2,1,0.5,1.2l0,0l0,0c0,0,0,0,0,0
						l0.9,0.5l0,0l-0.8-0.5c0,0,0,0,0,0l0,0l0,0c-0.3-0.2-0.5-0.6-0.5-1.2c0-1.2,0.8-2.6,1.9-3.2C15.1,19,15.6,18.9,15.8,19.1
						L15.8,19.1L15.8,19.1L15.8,19.1z"/>
					<path class="st1" d="M16.2,19.3c-0.3-0.2-0.8-0.2-1.3,0.1c-1,0.6-1.9,2.1-1.9,3.2c0,0.6,0.2,1,0.5,1.2l0,0l0,0c0,0,0,0,0,0
						l0.5,0.3l0,0L13.7,24c0,0,0,0,0,0l0,0l0,0c-0.3-0.2-0.5-0.6-0.5-1.2c0-1.2,0.8-2.6,1.9-3.2C15.5,19.2,16,19.2,16.2,19.3
						L16.2,19.3L16.2,19.3L16.2,19.3z"/>
				</g>
				<g>
					<path class="st1" d="M11.6,21c-0.3-0.2-0.8-0.2-1.3,0.1c-1,0.6-1.9,2.1-1.9,3.2c0,0.6,0.2,1,0.5,1.2l0,0l0,0c0,0,0,0,0,0
						l1.4,0.8l2.7-4.6L11.6,21L11.6,21z"/>
					<path class="st2" d="M10.3,21.2c-1,0.6-1.9,2.1-1.9,3.2c0,0.2,0,0.4,0.1,0.6l1.5,0.9c0.2,0,0.3-0.1,0.5-0.2
						c0.2-0.1,0.4-0.3,0.6-0.4l1.4-2.4c0.1-0.2,0.1-0.5,0.1-0.7L10.6,21C10.5,21,10.4,21.1,10.3,21.2z"/>
					<path class="st3" d="M11.7,21.9c-1,0.6-1.9,2.1-1.9,3.2c0,1.2,0.8,1.7,1.9,1.1c1-0.6,1.9-2.1,1.9-3.2
						C13.6,21.8,12.7,21.3,11.7,21.9z"/>
					<path class="st4" d="M11.7,22c-1,0.6-1.8,2-1.8,3.1c0,1.1,0.8,1.6,1.8,1c1-0.6,1.8-2,1.8-3.1C13.5,21.9,12.7,21.5,11.7,22z"/>
					<path class="st5" d="M11.7,22.5c-0.8,0.5-1.4,1.5-1.4,2.4c0,0.9,0.6,1.2,1.4,0.8c0.8-0.5,1.4-1.5,1.4-2.4
						C13.1,22.4,12.5,22,11.7,22.5z"/>
					<path class="st6" d="M11.7,22.6C11,23,10.4,24,10.4,24.9c0,0.8,0.6,1.2,1.3,0.7c0.7-0.4,1.3-1.4,1.3-2.3S12.4,22.2,11.7,22.6z"
						/>
					<path class="st7" d="M10.4,24.9c0,0.1,0,0.2,0,0.3l1,0.6c0.1,0,0.2-0.1,0.3-0.1c0.7-0.4,1.3-1.4,1.3-2.2l-1.3-0.8
						C11,23,10.4,24,10.4,24.9z"/>
					<path class="st8" d="M10.4,24.4l1.6,0.9c0.3-0.3,0.6-0.6,0.8-1L11,23.3C10.7,23.6,10.5,24,10.4,24.4z"/>
					<path class="st8" d="M10.4,24.4l1.6,0.9c0.3-0.3,0.6-0.6,0.8-1L11,23.3C10.7,23.6,10.5,24,10.4,24.4z"/>
					<path class="st9" d="M11.5,22.7c-0.6,0.3-1,1.1-1,1.8c0,0.7,0.5,0.9,1,0.6c0.6-0.3,1-1.1,1-1.8C12.6,22.7,12.1,22.4,11.5,22.7z
						"/>
					<path class="st10" d="M11.5,22.9c-0.5,0.3-0.9,1-0.9,1.5c0,0.6,0.4,0.8,0.9,0.5s0.9-1,0.9-1.5C12.4,22.8,12,22.6,11.5,22.9z"/>
					<path class="st11" d="M11,23.2c-0.1,0.1-0.1,0.1-0.1,0.2c0,0,0.1,0,0.1,0C11.1,23.4,11.1,23.3,11,23.2C11,23.3,11,23.3,11,23.2
						z"/>
					<path class="st11" d="M12.1,23.8c-0.1,0.1,0,0.1,0,0.2c0.1,0,0.2-0.1,0.2-0.1c0.1-0.1,0-0.1,0-0.2
						C12.3,23.7,12.2,23.7,12.1,23.8z"/>
					<path class="st11" d="M10.7,24.3c-0.1,0-0.2,0.2-0.2,0.3c0,0.1,0,0.1,0.1,0.1c0.1,0,0.2-0.2,0.2-0.3
						C10.8,24.3,10.8,24.3,10.7,24.3z"/>
					<path class="st11" d="M11.8,22.8c-0.1,0.1-0.1,0.2,0,0.3c0,0.1,0.1,0.1,0.1,0c0.1-0.1,0.1-0.2,0-0.3
						C11.9,22.7,11.9,22.7,11.8,22.8z"/>
					<path class="st11" d="M10.8,23.6c0,0.1-0.1,0.2-0.1,0.3c0.1,0,0.1,0,0.2-0.1C10.9,23.7,10.9,23.6,10.8,23.6
						C10.8,23.6,10.8,23.6,10.8,23.6z"/>
					<path class="st11" d="M10.9,24.6c-0.1,0.1-0.1,0.2-0.1,0.3c0,0.1,0.1,0.1,0.1,0c0.1-0.1,0.1-0.2,0.1-0.3
						C11,24.6,10.9,24.5,10.9,24.6z"/>
					<path class="st11" d="M10.6,24c0,0.1,0,0.2-0.1,0.3c0,0,0,0,0,0c0.1,0,0.2-0.1,0.2-0.2c0-0.1,0-0.1-0.1-0.1
						C10.7,24,10.6,24,10.6,24z"/>
					<path class="st11" d="M12,24.1c-0.1,0.1-0.1,0.1,0,0.2s0.2,0,0.2,0c0.1-0.1,0.1-0.1,0-0.2C12.2,24.1,12.1,24.1,12,24.1z"/>
					<path class="st11" d="M11.5,24.6c-0.1,0-0.1,0-0.1,0.1c0,0.1,0,0.2,0.1,0.2c0.1,0,0.1,0,0.1-0.1C11.7,24.8,11.6,24.7,11.5,24.6
						z"/>
					<path class="st11" d="M11.1,24.8c0,0.1,0,0.2,0,0.3c0,0.1,0.1,0,0.1-0.1c0-0.1,0-0.2,0-0.3C11.2,24.7,11.1,24.7,11.1,24.8z"/>
					<path class="st11" d="M11.8,24.4c-0.1,0-0.1,0.1-0.1,0.2c0,0.1,0.1,0.1,0.2,0.1c0.1,0,0.1-0.1,0.1-0.2
						C12,24.5,11.9,24.4,11.8,24.4z"/>
					<path class="st11" d="M12.1,23C12.1,23,12,23.1,12,23.2c0,0.1,0,0.1,0.1,0.1c0.1-0.1,0.1-0.2,0.1-0.3
						C12.3,22.9,12.2,22.9,12.1,23z"/>
					<path class="st11" d="M11.1,23.1c0,0,0.1,0.1,0.1,0.1c0.1,0,0.1-0.1,0.1-0.1c0,0,0-0.1-0.1-0.1C11.2,23,11.2,23,11.1,23.1z"/>
					<path class="st11" d="M12.1,23.5c0,0.1,0,0.1,0.1,0.1c0.1,0,0.2-0.1,0.2-0.2c0-0.1,0-0.1-0.1-0.1
						C12.3,23.3,12.2,23.4,12.1,23.5z"/>
					<path class="st11" d="M11.6,22.7C11.6,22.7,11.6,22.7,11.6,22.7c-0.1,0-0.1,0.1-0.1,0.1c0,0,0,0,0,0c0,0.1,0,0.2,0.1,0.3
						c0.1,0,0.1,0,0.1-0.1C11.7,22.9,11.6,22.8,11.6,22.7C11.6,22.7,11.6,22.7,11.6,22.7z"/>
					<path class="st12" d="M11.4,23.3c-0.3,0.2-0.6,0.6-0.6,1c0,0.3,0.2,0.5,0.6,0.3c0.3-0.2,0.6-0.6,0.6-1S11.7,23.1,11.4,23.3z"/>
					<path class="st7" d="M11.4,23.3c-0.3,0.2-0.6,0.6-0.6,1c0,0.1,0,0.2,0.1,0.2l0.5-0.1c0.2-0.2,0.2-0.4,0.3-0.6l-0.2-0.5
						C11.5,23.2,11.5,23.2,11.4,23.3z"/>
					<path class="st13" d="M10.9,24c0.2,0,0.5,0.1,0.7,0.1c0-0.1,0.1-0.1,0.1-0.2c-0.2-0.1-0.4-0.2-0.6-0.3C11,23.7,11,23.8,10.9,24
						z"/>
					<path class="st7" d="M11.6,23.6c-0.2,0.1-0.4,0.4-0.4,0.7c0,0.2,0.2,0.3,0.4,0.2c0.2-0.1,0.4-0.4,0.4-0.7
						C12,23.6,11.8,23.5,11.6,23.6z"/>
					<path class="st14" d="M11.7,23.9c-0.1,0.1-0.2,0.2-0.2,0.4c0,0.1,0.1,0.2,0.2,0.1c0.1-0.1,0.2-0.2,0.2-0.4S11.8,23.8,11.7,23.9
						z"/>
					<path class="st1" d="M12.1,21.3c-0.3-0.2-0.8-0.2-1.3,0.1c-1,0.6-1.9,2.1-1.9,3.2c0,0.6,0.2,1,0.5,1.2l0,0l0,0c0,0,0,0,0,0
						l0.9,0.5l0,0l-0.8-0.5c0,0,0,0,0,0l0,0l0,0c-0.3-0.2-0.5-0.6-0.5-1.2c0-1.2,0.8-2.6,1.9-3.2C11.4,21.2,11.8,21.1,12.1,21.3
						L12.1,21.3L12.1,21.3L12.1,21.3z"/>
					<path class="st1" d="M12.5,21.5c-0.3-0.2-0.8-0.2-1.3,0.1c-1,0.6-1.9,2.1-1.9,3.2c0,0.6,0.2,1,0.5,1.2l0,0l0,0c0,0,0,0,0,0
						l0.5,0.3l0,0l-0.4-0.2c0,0,0,0,0,0l0,0l0,0c-0.3-0.2-0.5-0.6-0.5-1.2c0-1.2,0.8-2.6,1.9-3.2C11.8,21.4,12.3,21.4,12.5,21.5
						L12.5,21.5L12.5,21.5L12.5,21.5z"/>
				</g>
				<g>
					<polygon class="st15" points="15.1,18.4 16.8,19.4 17.7,19.7 17.7,19.5 16.1,18.7 					"/>
					<polygon class="st16" points="15.1,18.2 16.8,19.2 17.7,19.5 16.1,18.5 					"/>
					<polygon class="st15" points="8,22.5 9.7,23.5 16.8,19.4 15.1,18.4 					"/>
					<polygon class="st15" points="8.8,24.8 9.1,24.8 9.9,23.2 8.3,22.3 					"/>
					<polygon class="st17" points="8,22.3 9.7,23.3 16.8,19.2 15.1,18.2 					"/>
					<polygon class="st16" points="7.1,23.8 8.8,24.8 9.7,23.3 8,22.3 					"/>
				</g>
			</g>
			<g>
				<g>
					<path class="st1" d="M8.6,14.9c-0.3-0.2-0.8-0.2-1.3,0.1c-1,0.6-1.9,2.1-1.9,3.2c0,0.6,0.2,1,0.5,1.2l0,0l0,0c0,0,0,0,0,0
						l1.4,0.8l2.7-4.6L8.6,14.9L8.6,14.9z"/>
					<path class="st2" d="M7.2,15c-1,0.6-1.9,2.1-1.9,3.2c0,0.2,0,0.4,0.1,0.6l1.5,0.9c0.2,0,0.3-0.1,0.5-0.2
						c0.2-0.1,0.4-0.3,0.6-0.4l1.4-2.4c0.1-0.2,0.1-0.5,0.1-0.7l-1.9-1.1C7.4,14.9,7.3,14.9,7.2,15z"/>
					<path class="st3" d="M8.6,15.8c-1,0.6-1.9,2.1-1.9,3.2s0.8,1.7,1.9,1.1c1-0.6,1.9-2.1,1.9-3.2S9.7,15.2,8.6,15.8z"/>
					<path class="st4" d="M8.6,15.9c-1,0.6-1.8,2-1.8,3.1c0,1.1,0.8,1.6,1.8,1c1-0.6,1.8-2,1.8-3.1C10.4,15.8,9.6,15.3,8.6,15.9z"/>
					<path class="st5" d="M8.6,16.3c-0.8,0.5-1.4,1.5-1.4,2.4c0,0.9,0.6,1.2,1.4,0.8C9.4,19.1,10,18,10,17.1S9.4,15.9,8.6,16.3z"/>
					<path class="st6" d="M8.6,16.5c-0.7,0.4-1.3,1.4-1.3,2.3c0,0.8,0.6,1.2,1.3,0.7C9.3,19,9.9,18,9.9,17.2
						C9.9,16.4,9.3,16,8.6,16.5z"/>
					<path class="st7" d="M7.3,18.7c0,0.1,0,0.2,0,0.3l1,0.6c0.1,0,0.2-0.1,0.3-0.1c0.7-0.4,1.3-1.4,1.3-2.2l-1.3-0.8
						C7.9,16.9,7.3,17.9,7.3,18.7z"/>
					<path class="st8" d="M7.3,18.3l1.6,0.9c0.3-0.3,0.6-0.6,0.8-1l-1.8-1.1C7.6,17.5,7.4,17.9,7.3,18.3z"/>
					<path class="st8" d="M7.3,18.3l1.6,0.9c0.3-0.3,0.6-0.6,0.8-1l-1.8-1.1C7.6,17.5,7.4,17.9,7.3,18.3z"/>
					<path class="st9" d="M8.5,16.6c-0.6,0.3-1,1.1-1,1.8c0,0.7,0.5,0.9,1,0.6c0.6-0.3,1-1.1,1-1.8S9,16.3,8.5,16.6z"/>
					<path class="st10" d="M8.4,16.7c-0.5,0.3-0.9,1-0.9,1.5c0,0.6,0.4,0.8,0.9,0.5c0.5-0.3,0.9-1,0.9-1.5
						C9.3,16.7,8.9,16.4,8.4,16.7z"/>
					<path class="st11" d="M7.9,17.1c-0.1,0.1-0.1,0.1-0.1,0.2c0,0,0.1,0,0.1,0C8,17.3,8,17.2,7.9,17.1C7.9,17.1,7.9,17.1,7.9,17.1z
						"/>
					<path class="st11" d="M9,17.6c-0.1,0.1,0,0.1,0,0.2c0.1,0,0.2-0.1,0.2-0.1c0.1-0.1,0-0.1,0-0.2C9.2,17.5,9.1,17.6,9,17.6z"/>
					<path class="st11" d="M7.6,18.2c-0.1,0-0.2,0.2-0.2,0.3c0,0.1,0,0.1,0.1,0.1c0.1,0,0.2-0.2,0.2-0.3C7.7,18.2,7.7,18.1,7.6,18.2
						z"/>
					<path class="st11" d="M8.7,16.6c-0.1,0.1-0.1,0.2,0,0.3c0,0.1,0.1,0.1,0.1,0c0.1-0.1,0.1-0.2,0-0.3C8.9,16.5,8.8,16.5,8.7,16.6
						z"/>
					<path class="st11" d="M7.7,17.4c0,0.1-0.1,0.2-0.1,0.3c0.1,0,0.1,0,0.2-0.1C7.8,17.6,7.8,17.5,7.7,17.4
						C7.7,17.5,7.7,17.4,7.7,17.4z"/>
					<path class="st11" d="M7.8,18.5c-0.1,0.1-0.1,0.2-0.1,0.3c0,0.1,0.1,0.1,0.1,0c0.1-0.1,0.1-0.2,0.1-0.3
						C7.9,18.4,7.8,18.4,7.8,18.5z"/>
					<path class="st11" d="M7.5,17.9c0,0.1,0,0.2-0.1,0.3c0,0,0,0,0,0c0.1,0,0.2-0.1,0.2-0.2c0-0.1,0-0.1-0.1-0.1
						C7.6,17.8,7.5,17.9,7.5,17.9z"/>
					<path class="st11" d="M8.9,18c-0.1,0.1-0.1,0.1,0,0.2c0.1,0,0.2,0,0.2,0c0.1-0.1,0.1-0.1,0-0.2C9.1,17.9,9,17.9,8.9,18z"/>
					<path class="st11" d="M8.4,18.5c-0.1,0-0.1,0-0.1,0.1c0,0.1,0,0.2,0.1,0.2c0.1,0,0.1,0,0.1-0.1C8.6,18.6,8.5,18.5,8.4,18.5z"/>
					<path class="st11" d="M8,18.6c0,0.1,0,0.2,0,0.3c0,0.1,0.1,0,0.1-0.1c0-0.1,0-0.2,0-0.3C8.1,18.5,8,18.5,8,18.6z"/>
					<path class="st11" d="M8.7,18.3c-0.1,0-0.1,0.1-0.1,0.2c0,0.1,0.1,0.1,0.2,0.1c0.1,0,0.1-0.1,0.1-0.2
						C8.9,18.3,8.8,18.3,8.7,18.3z"/>
					<path class="st11" d="M9.1,16.8C9,16.9,8.9,17,8.9,17.1c0,0.1,0,0.1,0.1,0.1c0.1-0.1,0.1-0.2,0.1-0.3
						C9.2,16.8,9.1,16.7,9.1,16.8z"/>
					<path class="st11" d="M8,17C8,17,8.1,17,8.1,17c0.1,0,0.1-0.1,0.1-0.1c0,0,0-0.1-0.1-0.1C8.1,16.8,8.1,16.9,8,17z"/>
					<path class="st11" d="M9,17.3c0,0.1,0,0.1,0.1,0.1c0.1,0,0.2-0.1,0.2-0.2c0-0.1,0-0.1-0.1-0.1C9.2,17.2,9.1,17.3,9,17.3z"/>
					<path class="st11" d="M8.5,16.6C8.5,16.6,8.5,16.6,8.5,16.6c-0.1,0-0.1,0.1-0.1,0.1c0,0,0,0,0,0c0,0.1,0,0.2,0.1,0.3
						c0.1,0,0.1,0,0.1-0.1C8.6,16.7,8.6,16.6,8.5,16.6C8.5,16.6,8.5,16.6,8.5,16.6z"/>
					<path class="st12" d="M8.3,17.1c-0.3,0.2-0.6,0.6-0.6,1c0,0.3,0.2,0.5,0.6,0.3c0.3-0.2,0.6-0.6,0.6-1
						C8.9,17.1,8.7,16.9,8.3,17.1z"/>
					<path class="st7" d="M8.3,17.1c-0.3,0.2-0.6,0.6-0.6,1c0,0.1,0,0.2,0.1,0.2l0.5-0.1c0.2-0.2,0.2-0.4,0.3-0.6L8.5,17
						C8.5,17.1,8.4,17.1,8.3,17.1z"/>
					<path class="st13" d="M7.8,17.8c0.2,0,0.5,0.1,0.7,0.1c0-0.1,0.1-0.1,0.1-0.2c-0.2-0.1-0.4-0.2-0.6-0.3
						C7.9,17.5,7.9,17.7,7.8,17.8z"/>
					<path class="st7" d="M8.5,17.5c-0.2,0.1-0.4,0.4-0.4,0.7c0,0.2,0.2,0.3,0.4,0.2c0.2-0.1,0.4-0.4,0.4-0.7
						C8.9,17.4,8.7,17.3,8.5,17.5z"/>
					<path class="st14" d="M8.6,17.7c-0.1,0.1-0.2,0.2-0.2,0.4c0,0.1,0.1,0.2,0.2,0.1c0.1-0.1,0.2-0.2,0.2-0.4S8.7,17.6,8.6,17.7z"
						/>
					<path class="st1" d="M9,15.1c-0.3-0.2-0.8-0.2-1.3,0.1c-1,0.6-1.9,2.1-1.9,3.2c0,0.6,0.2,1,0.5,1.2l0,0l0,0c0,0,0,0,0,0
						l0.9,0.5l0,0l-0.8-0.5c0,0,0,0,0,0l0,0l0,0c-0.3-0.2-0.5-0.6-0.5-1.2c0-1.2,0.8-2.6,1.9-3.2C8.3,15,8.7,15,9,15.1L9,15.1
						L9,15.1L9,15.1z"/>
					<path class="st1" d="M9.4,15.3c-0.3-0.2-0.8-0.2-1.3,0.1c-1,0.6-1.9,2.1-1.9,3.2c0,0.6,0.2,1,0.5,1.2l0,0l0,0c0,0,0,0,0,0
						l0.5,0.3l0,0L6.8,20c0,0,0,0,0,0l0,0l0,0c-0.3-0.2-0.5-0.6-0.5-1.2c0-1.2,0.8-2.6,1.9-3.2C8.7,15.2,9.2,15.2,9.4,15.3L9.4,15.3
						L9.4,15.3L9.4,15.3z"/>
				</g>
				<g>
					<path class="st1" d="M4.8,17.1c-0.3-0.2-0.8-0.2-1.3,0.1c-1,0.6-1.9,2.1-1.9,3.2c0,0.6,0.2,1,0.5,1.2l0,0l0,0c0,0,0,0,0,0
						l1.4,0.8l2.7-4.6L4.8,17.1L4.8,17.1z"/>
					<path class="st2" d="M3.5,17.2c-1,0.6-1.9,2.1-1.9,3.2c0,0.2,0,0.4,0.1,0.6l1.5,0.9c0.2,0,0.3-0.1,0.5-0.2
						c0.2-0.1,0.4-0.3,0.6-0.4l1.4-2.4c0.1-0.2,0.1-0.5,0.1-0.7L3.8,17C3.7,17.1,3.6,17.1,3.5,17.2z"/>
					<path class="st3" d="M4.9,18c-1,0.6-1.9,2.1-1.9,3.2c0,1.2,0.8,1.7,1.9,1.1c1-0.6,1.9-2.1,1.9-3.2C6.8,17.9,5.9,17.4,4.9,18z"
						/>
					<path class="st4" d="M4.9,18.1c-1,0.6-1.8,2-1.8,3.1c0,1.1,0.8,1.6,1.8,1c1-0.6,1.8-2,1.8-3.1C6.7,18,5.9,17.5,4.9,18.1z"/>
					<path class="st5" d="M4.9,18.5C4.1,19,3.4,20.1,3.4,21s0.6,1.2,1.4,0.8c0.8-0.5,1.4-1.5,1.4-2.4C6.3,18.4,5.6,18.1,4.9,18.5z"
						/>
					<path class="st6" d="M4.9,18.7c-0.7,0.4-1.3,1.4-1.3,2.3s0.6,1.2,1.3,0.7c0.7-0.4,1.3-1.4,1.3-2.3S5.6,18.2,4.9,18.7z"/>
					<path class="st7" d="M3.5,20.9c0,0.1,0,0.2,0,0.3l1,0.6c0.1,0,0.2-0.1,0.3-0.1c0.7-0.4,1.3-1.4,1.3-2.2l-1.3-0.8
						C4.1,19.1,3.5,20.1,3.5,20.9z"/>
					<path class="st8" d="M3.6,20.5l1.6,0.9c0.3-0.3,0.6-0.6,0.8-1l-1.8-1.1C3.9,19.7,3.7,20.1,3.6,20.5z"/>
					<path class="st8" d="M3.6,20.5l1.6,0.9c0.3-0.3,0.6-0.6,0.8-1l-1.8-1.1C3.9,19.7,3.7,20.1,3.6,20.5z"/>
					<path class="st9" d="M4.7,18.8c-0.6,0.3-1,1.1-1,1.8c0,0.7,0.5,0.9,1,0.6c0.6-0.3,1-1.1,1-1.8C5.8,18.7,5.3,18.5,4.7,18.8z"/>
					<path class="st10" d="M4.7,18.9c-0.5,0.3-0.9,1-0.9,1.5c0,0.6,0.4,0.8,0.9,0.5c0.5-0.3,0.9-1,0.9-1.5
						C5.6,18.9,5.2,18.6,4.7,18.9z"/>
					<path class="st11" d="M4.2,19.3c-0.1,0.1-0.1,0.1-0.1,0.2c0,0,0.1,0,0.1,0C4.2,19.5,4.3,19.4,4.2,19.3
						C4.2,19.3,4.2,19.3,4.2,19.3z"/>
					<path class="st11" d="M5.3,19.8c-0.1,0.1,0,0.1,0,0.2c0.1,0,0.2-0.1,0.2-0.1c0.1-0.1,0-0.1,0-0.2C5.5,19.7,5.4,19.8,5.3,19.8z"
						/>
					<path class="st11" d="M3.9,20.4c-0.1,0-0.2,0.2-0.2,0.3c0,0.1,0,0.1,0.1,0.1c0.1,0,0.2-0.2,0.2-0.3C4,20.4,4,20.3,3.9,20.4z"/>
					<path class="st11" d="M5,18.8c-0.1,0.1-0.1,0.2,0,0.3c0,0.1,0.1,0.1,0.1,0c0.1-0.1,0.1-0.2,0-0.3S5.1,18.7,5,18.8z"/>
					<path class="st11" d="M3.9,19.6c0,0.1-0.1,0.2-0.1,0.3c0.1,0,0.1,0,0.2-0.1C4,19.8,4,19.7,3.9,19.6C4,19.7,3.9,19.6,3.9,19.6z"
						/>
					<path class="st11" d="M4,20.7C4,20.8,3.9,20.9,3.9,21c0,0.1,0.1,0.1,0.1,0c0.1-0.1,0.1-0.2,0.1-0.3C4.1,20.6,4.1,20.6,4,20.7z"
						/>
					<path class="st11" d="M3.7,20.1c0,0.1,0,0.2-0.1,0.3c0,0,0,0,0,0c0.1,0,0.2-0.1,0.2-0.2c0-0.1,0-0.1-0.1-0.1
						C3.8,20,3.8,20.1,3.7,20.1z"/>
					<path class="st11" d="M5.2,20.2c-0.1,0.1-0.1,0.1,0,0.2c0.1,0,0.2,0,0.2,0c0.1-0.1,0.1-0.1,0-0.2C5.4,20.1,5.3,20.1,5.2,20.2z"
						/>
					<path class="st11" d="M4.7,20.7c-0.1,0-0.1,0-0.1,0.1c0,0.1,0,0.2,0.1,0.2c0.1,0,0.1,0,0.1-0.1C4.8,20.8,4.8,20.7,4.7,20.7z"/>
					<path class="st11" d="M4.3,20.8c0,0.1,0,0.2,0,0.3c0,0.1,0.1,0,0.1-0.1c0-0.1,0-0.2,0-0.3C4.4,20.7,4.3,20.7,4.3,20.8z"/>
					<path class="st11" d="M5,20.5c-0.1,0-0.1,0.1-0.1,0.2c0,0.1,0.1,0.1,0.2,0.1c0.1,0,0.1-0.1,0.1-0.2C5.1,20.5,5.1,20.5,5,20.5z"
						/>
					<path class="st11" d="M5.3,19c-0.1,0.1-0.1,0.2-0.1,0.3c0,0.1,0,0.1,0.1,0.1c0.1-0.1,0.1-0.2,0.1-0.3C5.4,19,5.4,18.9,5.3,19z"
						/>
					<path class="st11" d="M4.3,19.2c0,0,0.1,0.1,0.1,0.1c0.1,0,0.1-0.1,0.1-0.1c0,0,0-0.1-0.1-0.1C4.4,19,4.3,19.1,4.3,19.2z"/>
					<path class="st11" d="M5.3,19.6c0,0.1,0,0.1,0.1,0.1c0.1,0,0.2-0.1,0.2-0.2c0-0.1,0-0.1-0.1-0.1C5.4,19.4,5.3,19.5,5.3,19.6z"
						/>
					<path class="st11" d="M4.8,18.8C4.7,18.8,4.7,18.8,4.8,18.8c-0.1,0-0.1,0.1-0.1,0.1c0,0,0,0,0,0c0,0.1,0,0.2,0.1,0.3
						c0.1,0,0.1,0,0.1-0.1C4.8,18.9,4.8,18.8,4.8,18.8C4.8,18.8,4.8,18.8,4.8,18.8z"/>
					<path class="st12" d="M4.6,19.3c-0.3,0.2-0.6,0.6-0.6,1c0,0.3,0.2,0.5,0.6,0.3c0.3-0.2,0.6-0.6,0.6-1
						C5.2,19.3,4.9,19.1,4.6,19.3z"/>
					<path class="st7" d="M4.6,19.3c-0.3,0.2-0.6,0.6-0.6,1c0,0.1,0,0.2,0.1,0.2l0.5-0.1c0.2-0.2,0.2-0.4,0.3-0.6l-0.2-0.5
						C4.7,19.3,4.7,19.3,4.6,19.3z"/>
					<path class="st13" d="M4.1,20c0.2,0,0.5,0.1,0.7,0.1c0-0.1,0.1-0.1,0.1-0.2c-0.2-0.1-0.4-0.2-0.6-0.3C4.2,19.7,4.1,19.9,4.1,20
						z"/>
					<path class="st7" d="M4.8,19.7c-0.2,0.1-0.4,0.4-0.4,0.7c0,0.2,0.2,0.3,0.4,0.2c0.2-0.1,0.4-0.4,0.4-0.7
						C5.2,19.6,5,19.5,4.8,19.7z"/>
					<path class="st14" d="M4.8,19.9c-0.1,0.1-0.2,0.2-0.2,0.4c0,0.1,0.1,0.2,0.2,0.1C4.9,20.3,5,20.2,5,20S4.9,19.8,4.8,19.9z"/>
					<path class="st1" d="M5.2,17.3c-0.3-0.2-0.8-0.2-1.3,0.1c-1,0.6-1.9,2.1-1.9,3.2c0,0.6,0.2,1,0.5,1.2l0,0l0,0c0,0,0,0,0,0
						l0.9,0.5l0,0L2.7,22c0,0,0,0,0,0l0,0l0,0c-0.3-0.2-0.5-0.6-0.5-1.2c0-1.2,0.8-2.6,1.9-3.2C4.5,17.2,5,17.2,5.2,17.3L5.2,17.3
						L5.2,17.3L5.2,17.3z"/>
					<path class="st1" d="M5.7,17.6c-0.3-0.2-0.8-0.2-1.3,0.1c-1,0.6-1.9,2.1-1.9,3.2c0,0.6,0.2,1,0.5,1.2l0,0l0,0c0,0,0,0,0,0
						l0.5,0.3l0,0l-0.4-0.2c0,0,0,0,0,0l0,0l0,0C2.7,22,2.5,21.6,2.5,21c0-1.2,0.8-2.6,1.9-3.2C5,17.5,5.4,17.4,5.7,17.6L5.7,17.6
						L5.7,17.6L5.7,17.6z"/>
				</g>
				<g>
					<polygon class="st15" points="8.3,14.5 10,15.4 10.9,15.7 10.9,15.5 9.3,14.8 					"/>
					<polygon class="st16" points="8.3,14.3 10,15.2 10.9,15.5 9.3,14.6 					"/>
					<polygon class="st15" points="1.2,18.5 2.8,19.5 10,15.4 8.3,14.5 					"/>
					<polygon class="st15" points="2,20.9 2.2,20.9 3.1,19.3 1.5,18.3 					"/>
					<polygon class="st17" points="1.2,18.3 2.8,19.3 10,15.2 8.3,14.3 					"/>
					<polygon class="st16" points="0.3,19.9 2,20.9 2.8,19.3 1.2,18.3 					"/>
				</g>
			</g>
			<g>
				<g>
					<g>
						<g>
							<polygon class="st18" points="19.2,4 20.1,4.5 21.4,1.4 20.5,0.9 							"/>
							<polygon class="st19" points="19.3,3.9 19.9,4.3 21.1,1.5 20.5,1.2 							"/>
							<polygon class="st8" points="20.5,1.2 21.1,1.5 21.4,1.4 20.5,0.9 							"/>
							<polygon class="st20" points="19.3,3.9 19.2,4 20.1,4.5 19.9,4.3 							"/>
						</g>
						<path class="st18" d="M19.7,4.3c-0.3-0.2-0.5-0.1-0.5,0.2c0,0.3,0.2,0.6,0.5,0.8c0.3,0.2,0.5,0.1,0.5-0.2
							C20.2,4.9,20,4.5,19.7,4.3z"/>
						<path class="st20" d="M19.4,5.1c0.1,0.1,0.2,0.2,0.3,0.2c0,0,0.1,0,0.1,0.1c-0.1-0.1-0.1-0.2-0.2-0.2
							C19.5,5.2,19.5,5.1,19.4,5.1z"/>
						<path class="st8" d="M19.3,4.3C19.3,4.3,19.3,4.3,19.3,4.3c0,0.3,0.1,0.4,0.3,0.4c0.1,0,0.2-0.1,0.3-0.2
							c-0.1-0.1-0.1-0.1-0.2-0.2C19.5,4.2,19.4,4.2,19.3,4.3z"/>
						<path class="st19" d="M19.3,4.7c0,0.2,0.1,0.4,0.3,0.5c0.2,0.1,0.3,0,0.3-0.1c0-0.2-0.1-0.4-0.3-0.5
							C19.4,4.4,19.3,4.5,19.3,4.7z"/>
						<g>
							<polygon class="st21" points="19.5,3.3 19.5,3.6 19.6,3.8 19.7,3.7 19.7,3.4 19.6,3.4 							"/>
							<polygon class="st18" points="19.5,3.5 19.6,3.7 19.6,3.3 19.5,3.2 							"/>
							<polygon class="st8" points="19.5,3.2 19.6,3.3 19.7,3.3 19.5,3.2 							"/>
							<polygon class="st20" points="19.6,3.7 19.7,3.6 19.7,3.3 19.6,3.3 							"/>
						</g>
						<g>
							<polygon class="st21" points="19.5,4.8 19.5,5 19.6,5.1 19.7,5.1 19.7,4.9 19.6,4.9 							"/>
							<polygon class="st18" points="19.5,4.9 19.6,5 19.6,4.8 19.5,4.7 							"/>
							<polygon class="st8" points="19.5,4.7 19.6,4.8 19.7,4.8 19.5,4.6 							"/>
							<polygon class="st20" points="19.6,5 19.7,5 19.7,4.8 19.6,4.8 							"/>
						</g>
						<g>
							<polygon class="st22" points="20.7,0.4 19.5,5.4 20.4,6.3 20.4,6.1 19.6,5.4 20.8,0.5 21.6,0.7 21.6,0.6 							"/>
						</g>
					</g>
					<g>
						<polygon class="st23" points="31.6,10.8 31.9,10.7 31.6,9.9 						"/>
						<g>
							<path class="st24" d="M25.8,12.2c-0.1-0.1-0.2-0.1-0.3,0l-0.1,0l0,0l0.1,0C25.5,12.2,25.6,12.2,25.8,12.2
								c0.1,0.1,0.1,0.2,0.1,0.3v2.1c0,0.2-0.1,0.3-0.2,0.4l-0.3,0.2l0,0l0.3-0.2c0.2-0.1,0.3-0.3,0.3-0.5v-2.1
								C25.9,12.3,25.9,12.2,25.8,12.2z"/>
						</g>
						<path class="st25" d="M27.3,12.4c-1.1,0.6-2,2.1-2,3.4l3.2-1.8v-1.8C28.1,12.1,27.7,12.2,27.3,12.4z"/>
						<polygon class="st26" points="25.4,8.2 25.4,15.4 31.6,11.8 31.6,8.6 30.2,5.4 						"/>
						<path class="st27" d="M25.9,8.1c-0.2,0.1-0.4,0.4-0.4,0.6v0.5c0,1.2,1.3,2,2.4,1.3l3-1.9l0.2-1.1l-0.9-2L25.9,8.1z"/>
						
							<linearGradient id="SVGID_1_" gradientUnits="userSpaceOnUse" x1="-282.4185" y1="13.068" x2="-280.351" y2="8.4609" gradientTransform="matrix(-1 0 0 1 -252.4323 0)">
							<stop  offset="8.374380e-02" style="stop-color:#425F73"/>
							<stop  offset="0.6181" style="stop-color:#313F4A"/>
							<stop  offset="0.9409" style="stop-color:#262E36"/>
						</linearGradient>
						<path class="st28" d="M27.6,10.1l0-1.7l0.6,0.3L29,9.2l0.2,0.1c0.1,0.1,0.2,0.1,0.3,0.1l-0.7,0.4l-0.9,0.5c-0.1,0-0.2,0-0.2,0
							C27.6,10.3,27.6,10.2,27.6,10.1z"/>
						<path class="st29" d="M27.8,10.8v0.5l0.6-0.4c0,0,0-0.2-0.1-0.3C28.2,10.6,27.8,10.8,27.8,10.8z"/>
						
							<linearGradient id="SVGID_2_" gradientUnits="userSpaceOnUse" x1="-282.9369" y1="10.5919" x2="-281.3299" y2="10.5919" gradientTransform="matrix(-1 0 0 1 -252.4323 0)">
							<stop  offset="8.374380e-02" style="stop-color:#425F73"/>
							<stop  offset="0.9409" style="stop-color:#384B60"/>
						</linearGradient>
						<path class="st30" d="M30.3,9.6l-1.1,0.7c-0.1,0.1-0.2,0.2-0.2,0.4v0.8c0,0.1,0.2,0.2,0.3,0.2l1.1-0.7
							c0.1-0.1,0.2-0.2,0.2-0.3V9.7C30.5,9.6,30.4,9.5,30.3,9.6z"/>
						<g>
							<path class="st24" d="M29.9,5.7l-2.7,1.6l0,5.9l3.7-2.1V7.8L29.9,5.7L29.9,5.7z M30.9,11l-3.6,2.1l0-5.8l2.6-1.5l1,2V11z"/>
						</g>
						<path class="st31" d="M27.3,14.9l0,0.2l3.9-2.2c0.4-0.2,0.7-0.7,0.7-1.2v-1l-4.6,2.6V14.9z"/>
						<polygon class="st23" points="28.4,12.7 28.4,12.8 31.9,10.8 31.9,10.7 31.6,10.8 						"/>
						<polygon class="st32" points="28,14.5 30.6,13 30.6,12.5 28,14 						"/>
						<polygon class="st32" points="28,13.9 30.6,12.4 30.6,12.3 30.6,11.8 28,13.3 						"/>
						<path class="st33" d="M28,14.5l0.4-0.5c0.2-0.2,0.5-0.3,0.7-0.3l1.5-0.7v-0.5L28,14V14.5z"/>
						<path class="st33" d="M28,13.9l0.3-0.5c0.2-0.2,0.5-0.4,0.8-0.4l1.4-0.7v-0.5L28,13.3V13.9z"/>
						<path class="st26" d="M29.9,4.3L17.6,2.8L17,3.3l8.3,4.8l4.7-2.7c0.2-0.1,0.3-0.4,0.2-0.7C30.2,4.7,29.9,4.3,29.9,4.3z"/>
						<polygon class="st34" points="17,3.3 25.4,8.2 25.6,7.5 17.6,2.8 						"/>
						<path class="st35" d="M29.9,4.3L29.9,4.3c0,0.1,0,0.2,0,0.4c0,0.1,0,0.2,0.1,0.3c0,0.1,0.1,0.2,0.2,0.3c0,0,0,0,0,0
							c0.2-0.2,0.2-0.4,0.1-0.6C30.2,4.7,29.9,4.3,29.9,4.3z"/>
						<path class="st36" d="M18.1,5.7L18.1,5.7L18.1,5.7C18.1,5.7,18.1,5.7,18.1,5.7z"/>
						<g>
							<defs>
								<path id="SVGID_3_" d="M26.1,17.7l2.2-1.2L29,14l0.1-0.8l-0.4-0.9l-0.9-0.4c-0.3-0.1-0.7,0-1.1,0.3
									c-1.1,0.6-1.2,1.2-1.9,2.5l-1.3-0.8l0.2,2.2L26.1,17.7z"/>
							</defs>
							<clipPath id="SVGID_4_">
								<use xlink:href="#SVGID_3_"  style="overflow:visible;"/>
							</clipPath>
							<polygon class="st37" points="26.5,12 26.5,12.2 26.5,12.8 28.9,14.2 28.9,12.9 28.3,12.2 							"/>
							<g class="st38">
								<path class="st1" d="M26.9,11.9c-0.3-0.2-0.8-0.2-1.3,0.1c-1,0.6-1.9,2-1.9,3.2c0,0.6,0.2,1,0.5,1.2l0,0l0,0c0,0,0,0,0,0
									l1.4,0.8l2.7-4.5L26.9,11.9L26.9,11.9z"/>
								<path class="st2" d="M25.5,12.1c-1,0.6-1.9,2-1.9,3.2c0,0.2,0,0.4,0.1,0.6l1.5,0.9c0.2,0,0.3-0.1,0.5-0.2
									c0.2-0.1,0.4-0.2,0.6-0.4l1.4-2.4c0.1-0.2,0.1-0.5,0.1-0.7l-1.9-1.1C25.8,12,25.7,12,25.5,12.1z"/>
								<path class="st3" d="M26.9,12.9c-1,0.6-1.9,2-1.9,3.2c0,1.2,0.8,1.7,1.9,1.1c1-0.6,1.9-2,1.9-3.2S28,12.3,26.9,12.9z"/>
								<path class="st4" d="M26.9,12.9c-1,0.6-1.8,2-1.8,3.1c0,1.1,0.8,1.6,1.8,1c1-0.6,1.8-2,1.8-3.1S27.9,12.4,26.9,12.9z"/>
								<path class="st5" d="M26.9,13.4c-0.8,0.4-1.4,1.5-1.4,2.4c0,0.9,0.6,1.2,1.4,0.8c0.8-0.4,1.4-1.5,1.4-2.4
									C28.3,13.3,27.7,13,26.9,13.4z"/>
								<path class="st6" d="M26.9,13.5c-0.7,0.4-1.3,1.4-1.3,2.2c0,0.8,0.6,1.1,1.3,0.7c0.7-0.4,1.3-1.4,1.3-2.2
									C28.2,13.4,27.6,13.1,26.9,13.5z"/>
								<path class="st7" d="M25.6,15.8c0,0.1,0,0.2,0,0.3l1,0.6c0.1,0,0.2-0.1,0.3-0.1c0.7-0.4,1.3-1.4,1.3-2.2l-1.3-0.8
									C26.2,13.9,25.6,14.9,25.6,15.8z"/>
								<path class="st8" d="M25.7,15.3l1.6,0.9c0.3-0.3,0.6-0.6,0.7-1l-1.8-1C25.9,14.5,25.7,14.9,25.7,15.3z"/>
								<path class="st8" d="M25.7,15.3l1.6,0.9c0.3-0.3,0.6-0.6,0.7-1l-1.8-1C25.9,14.5,25.7,14.9,25.7,15.3z"/>
								<path class="st39" d="M26.8,13.7c-0.6,0.3-1,1.1-1,1.8c0,0.7,0.5,0.9,1,0.6c0.6-0.3,1-1.1,1-1.8
									C27.8,13.6,27.3,13.3,26.8,13.7z"/>
								<path class="st10" d="M26.7,13.8c-0.5,0.3-0.9,1-0.9,1.5c0,0.6,0.4,0.8,0.9,0.5c0.5-0.3,0.9-1,0.9-1.5
									C27.6,13.7,27.2,13.5,26.7,13.8z"/>
								<g>
									<path class="st6" d="M26.2,14.1c-0.1,0.1-0.1,0.1-0.1,0.2c0,0,0.1,0,0.1,0C26.3,14.3,26.3,14.3,26.2,14.1
										C26.3,14.2,26.2,14.2,26.2,14.1z"/>
									<path class="st6" d="M27.3,14.7c-0.1,0.1,0,0.1,0,0.2c0.1,0,0.2-0.1,0.2-0.1c0.1-0.1,0-0.1,0-0.2
										C27.5,14.6,27.4,14.6,27.3,14.7z"/>
									<path class="st6" d="M25.9,15.2c-0.1,0-0.2,0.2-0.2,0.3c0,0.1,0,0.1,0.1,0.1c0.1,0,0.2-0.2,0.2-0.3
										C26.1,15.2,26,15.2,25.9,15.2z"/>
									<path class="st6" d="M27,13.7C27,13.8,27,13.9,27,14c0,0.1,0.1,0.1,0.1,0c0.1-0.1,0.1-0.2,0-0.3
										C27.2,13.6,27.1,13.6,27,13.7z"/>
									<path class="st6" d="M26,14.5c0,0.1-0.1,0.2-0.1,0.2c0.1,0,0.1,0,0.2-0.1C26.1,14.6,26.1,14.5,26,14.5
										C26,14.5,26,14.5,26,14.5z"/>
									<path class="st6" d="M26.1,15.5C26,15.6,26,15.7,26,15.8s0.1,0.1,0.1,0c0.1-0.1,0.1-0.2,0.1-0.3
										C26.2,15.4,26.1,15.4,26.1,15.5z"/>
									<path class="st6" d="M25.8,14.9c0,0.1,0,0.2-0.1,0.3c0,0,0,0,0,0c0.1,0,0.2-0.1,0.2-0.2c0-0.1,0-0.1-0.1-0.1
										C25.9,14.9,25.8,14.9,25.8,14.9z"/>
									<path class="st6" d="M27.2,15c-0.1,0-0.1,0.1,0,0.2c0.1,0,0.2,0,0.2,0s0.1-0.1,0-0.2C27.4,15,27.3,15,27.2,15z"/>
									<path class="st6" d="M26.8,15.5c-0.1,0-0.1,0-0.1,0.1c0,0.1,0,0.2,0.1,0.2c0.1,0,0.1,0,0.1-0.1
										C26.9,15.7,26.8,15.6,26.8,15.5z"/>
									<path class="st6" d="M26.3,15.7c0,0.1,0,0.2,0,0.3c0,0.1,0.1,0,0.1-0.1c0-0.1,0-0.2,0-0.3C26.4,15.5,26.4,15.6,26.3,15.7z"
										/>
									<path class="st6" d="M27,15.3c-0.1,0-0.1,0.1-0.1,0.2c0,0.1,0.1,0.1,0.2,0.1c0.1,0,0.1-0.1,0.1-0.2
										C27.2,15.4,27.1,15.3,27,15.3z"/>
									<path class="st6" d="M27.4,13.9c-0.1,0.1-0.1,0.2-0.1,0.3c0,0.1,0,0.1,0.1,0.1c0.1-0.1,0.1-0.2,0.1-0.3
										C27.5,13.8,27.4,13.8,27.4,13.9z"/>
									<path class="st6" d="M26.3,14c0,0,0.1,0.1,0.1,0.1c0.1,0,0.1-0.1,0.1-0.1c0,0,0-0.1-0.1-0.1C26.4,13.9,26.4,14,26.3,14z"/>
									<path class="st6" d="M27.3,14.4c0,0.1,0,0.1,0.1,0.1c0.1,0,0.2-0.1,0.2-0.2c0-0.1,0-0.1-0.1-0.1
										C27.5,14.2,27.4,14.3,27.3,14.4z"/>
									<path class="st6" d="M26.8,13.6C26.8,13.6,26.8,13.6,26.8,13.6c-0.1,0-0.1,0.1-0.1,0.1c0,0,0,0,0,0c0,0.1,0,0.2,0.1,0.3
										c0.1,0,0.1,0,0.1-0.1C26.9,13.8,26.9,13.7,26.8,13.6C26.8,13.6,26.8,13.6,26.8,13.6z"/>
								</g>
								<path class="st6" d="M26.7,14.2c-0.3,0.2-0.6,0.6-0.6,0.9s0.2,0.5,0.6,0.3c0.3-0.2,0.6-0.6,0.6-0.9
									C27.2,14.1,27,14,26.7,14.2z"/>
								<path class="st7" d="M26.7,14.2c-0.3,0.2-0.6,0.6-0.6,0.9c0,0.1,0,0.2,0.1,0.2l0.5-0.1c0.2-0.2,0.2-0.4,0.3-0.6l-0.2-0.5
									C26.8,14.1,26.7,14.1,26.7,14.2z"/>
								<path class="st13" d="M26.1,14.9c0.2,0,0.5,0.1,0.7,0.1c0-0.1,0.1-0.1,0.1-0.2c-0.2-0.1-0.4-0.2-0.6-0.3
									C26.2,14.6,26.2,14.7,26.1,14.9z"/>
								<path class="st40" d="M26.8,14.5c-0.2,0.1-0.4,0.4-0.4,0.7c0,0.2,0.2,0.3,0.4,0.2c0.2-0.1,0.4-0.4,0.4-0.7
									C27.2,14.5,27,14.4,26.8,14.5z"/>
								<path class="st14" d="M26.9,14.8c-0.1,0.1-0.2,0.2-0.2,0.4s0.1,0.2,0.2,0.1c0.1-0.1,0.2-0.2,0.2-0.4S27,14.7,26.9,14.8z"/>
								<path class="st1" d="M27.3,12.2C27,12,26.5,12,26,12.3c-1,0.6-1.9,2-1.9,3.2c0,0.6,0.2,1,0.5,1.2l0,0l0,0c0,0,0,0,0,0
									l0.9,0.5l0,0l-0.8-0.5c0,0,0,0,0,0l0,0l0,0c-0.3-0.2-0.5-0.6-0.5-1.2c0-1.2,0.8-2.6,1.9-3.2C26.6,12.1,27,12,27.3,12.2
									L27.3,12.2L27.3,12.2L27.3,12.2z"/>
								<path class="st1" d="M27.8,12.5c-0.3-0.2-0.8-0.2-1.3,0.1c-1,0.6-1.9,2-1.9,3.2c0,0.6,0.2,1,0.5,1.2l0,0l0.5,0.3l0,0
									l-0.3-0.2c0,0,0,0,0,0l0,0l0,0c-0.3-0.2-0.5-0.6-0.5-1.2c0-1.2,0.8-2.6,1.9-3.2C27.1,12.4,27.6,12.3,27.8,12.5L27.8,12.5
									L27.8,12.5L27.8,12.5z"/>
							</g>
						</g>
						<polygon class="st41" points="17,10.2 24.8,14.7 25.4,13.7 25.4,8.2 17,3.3 						"/>
						<path class="st42" d="M22.5,0l-4.9,2.8l8,4.6l4.2-2.4c0.3-0.2,0.3-0.7,0-0.8L22.5,0z"/>
						<path class="st43" d="M17,3.3l5-2.9L17,3.3z"/>
						<g>
							<polygon class="st8" points="31.6,11.7 31.6,11.7 31.6,11.7 							"/>
						</g>
						
							<linearGradient id="SVGID_5_" gradientUnits="userSpaceOnUse" x1="-283.966" y1="12.3735" x2="-281.8984" y2="7.7665" gradientTransform="matrix(-1 0 0 1 -252.4323 0)">
							<stop  offset="8.374380e-02" style="stop-color:#425F73"/>
							<stop  offset="0.6181" style="stop-color:#313F4A"/>
							<stop  offset="0.9409" style="stop-color:#262E36"/>
						</linearGradient>
						<path class="st44" d="M28.7,7.4l0.8,0.4L29.3,8l0.4,0.2c0.1,0.1,0.2,0.1,0.3,0.1c0.1,0,0.2,0,0.3-0.1l-0.1,0.3l0.2,0.1l0.1,0
							v0.1c0.1-0.1,0.1-0.2,0.1-0.3h0c0,0,0,0,0,0c0,0,0-0.1,0-0.1c0-0.1,0-0.2,0-0.2c0,0,0,0,0-0.1c0-0.1-0.1-0.2-0.1-0.3
							c0,0,0-0.1,0-0.1c0,0,0-0.1-0.1-0.1C30.2,7.4,30.1,7.2,30,7c0-0.1-0.1-0.1-0.1-0.2c0-0.1-0.1-0.1-0.1-0.2v0c0,0,0,0,0,0
							c0,0,0,0,0,0c0,0,0,0,0,0c-0.1-0.1-0.2-0.2-0.3-0.1l-0.6,0.3v0l-0.7,0.4L28.7,7.4z"/>
						
							<linearGradient id="SVGID_6_" gradientUnits="userSpaceOnUse" x1="-282.0338" y1="8.5545" x2="-281.4057" y2="6.0422" gradientTransform="matrix(-1 0 0 1 -252.4323 0)">
							<stop  offset="0" style="stop-color:#90C0B4"/>
							<stop  offset="0.9409" style="stop-color:#6E787A"/>
						</linearGradient>
						<path class="st45" d="M28.2,7.1l0.7-0.4v0l0.6-0.3c0.1-0.1,0.3,0,0.3,0.1c0,0,0,0,0,0c0,0,0,0,0,0c0,0,0,0,0,0v0
							c0,0.1,0.1,0.1,0.1,0.2C30,6.9,30,6.9,30,7c0.1,0.2,0.2,0.5,0.3,0.7c0,0,0,0.1,0.1,0.1c0,0,0,0.1,0,0.1l0,0c0,0,0,0,0,0
							c0,0.2,0,0.3-0.1,0.4c-0.1,0.1-0.2,0.1-0.3,0.1c-0.1,0-0.2,0-0.3-0.1L29.3,8l0.1-0.2l-0.8-0.4L28.2,7.1z"/>
						<path class="st46" d="M30.2,8.6l0.1-0.3c-0.1,0.1-0.2,0.1-0.3,0.1V8.1l-0.6-0.3l-0.8-0.4l-0.4-0.3L28,7.3h0l-0.1,0l0,0
							c0,0,0,0,0,0c-0.1,0.1-0.2,0.2-0.2,0.3l0,0.7l0.6,0.3L29,9.2l0.2,0.1c0.1,0.1,0.2,0.1,0.3,0.1L30,9.1l0.1-0.1
							c0,0,0.1-0.1,0.1-0.1c0,0,0,0,0.1,0c0.1,0,0.1-0.1,0.1-0.2V8.7l-0.1,0L30.2,8.6z"/>
						<path class="st17" d="M26.5,12.2c-0.9,0.5-1.6,1.6-2,2.7l0.3,0.2c0.4-1.1,1.1-2.2,2-2.7c0.5-0.3,1.3-0.2,1.7-0.1
							c-0.1-0.1-0.5-0.3-0.6-0.3C27.5,11.8,27.1,11.9,26.5,12.2z"/>
						<path class="st1" d="M26.8,12.4c-0.9,0.5-1.6,1.6-2,2.7l0.2,0l0.1-0.2c0.4-1,1.1-1.9,1.8-2.3c0.3-0.2,0.6-0.3,0.9-0.3
							c0.6,0,1,0.5,1,1.4v0.5l0.2-0.1c0,0,0-0.4,0-0.4C29,12.2,28,11.6,26.8,12.4z"/>
					</g>
					<g>
						<g>
							<polygon class="st18" points="30.8,9 31.7,9.5 31.7,7.1 30.8,6.6 							"/>
							<g>
								<polygon class="st1" points="29.8,5.8 31.3,6.8 31.3,10.1 30.5,10.9 30.5,11 31.4,10.2 31.4,6.7 29.8,5.7 								"/>
							</g>
							<polygon class="st19" points="30.9,8.9 31.5,9.3 31.5,7.2 30.9,6.9 							"/>
							<polygon class="st8" points="30.9,6.9 31.5,7.2 31.7,7.1 30.8,6.6 							"/>
							<polygon class="st20" points="30.9,8.9 30.8,9 31.7,9.5 31.5,9.3 							"/>
						</g>
						<path class="st18" d="M31.3,9.3c-0.3-0.2-0.5-0.1-0.5,0.2c0,0.3,0.2,0.6,0.5,0.8c0.3,0.2,0.5,0.1,0.5-0.2
							C31.8,9.9,31.5,9.5,31.3,9.3z"/>
						<path class="st20" d="M31,10.1c0.1,0.1,0.2,0.2,0.3,0.2c0,0,0.1,0,0.1,0.1c-0.1-0.1-0.1-0.2-0.2-0.2
							C31.1,10.2,31.1,10.1,31,10.1z"/>
						<path class="st8" d="M30.9,9.3C30.9,9.3,30.9,9.3,30.9,9.3c0,0.3,0.1,0.4,0.3,0.4c0.1,0,0.2-0.1,0.3-0.2
							c-0.1-0.1-0.1-0.1-0.2-0.2C31.1,9.2,31,9.2,30.9,9.3z"/>
						<path class="st19" d="M30.8,9.7c0,0.2,0.1,0.4,0.3,0.5c0.2,0.1,0.3,0,0.3-0.1c0-0.2-0.1-0.4-0.3-0.5C31,9.4,30.8,9.5,30.8,9.7
							z"/>
					</g>
				</g>
				<path class="st47" d="M23,2.4c-0.2,0.1-0.3,0.3-0.2,0.4c0.1,0.1,0.3,0.1,0.4,0c0.2-0.1,0.3-0.3,0.2-0.4
					C23.3,2.3,23.1,2.3,23,2.4z"/>
				<path class="st47" d="M24.3,3.2C24.1,3.3,24,3.5,24,3.6c0.1,0.1,0.3,0.1,0.4,0c0.2-0.1,0.3-0.3,0.2-0.4
					C24.7,3.1,24.5,3.1,24.3,3.2z"/>
				<path class="st47" d="M25.6,3.9c-0.2,0.1-0.3,0.3-0.2,0.4c0.1,0.1,0.3,0.1,0.4,0C26,4.2,26.1,4,26,3.9C26,3.8,25.8,3.8,25.6,3.9
					z"/>
				<path class="st48" d="M22.8,2.4c-0.2,0.1-0.3,0.3-0.2,0.4c0.1,0.1,0.3,0.1,0.4,0c0.2-0.1,0.3-0.3,0.2-0.4
					C23.2,2.3,23,2.3,22.8,2.4z"/>
				<path class="st48" d="M24.1,3.2c-0.2,0.1-0.3,0.3-0.2,0.4c0.1,0.1,0.3,0.1,0.4,0c0.2-0.1,0.3-0.3,0.2-0.4
					C24.5,3.1,24.3,3.1,24.1,3.2z"/>
				<path class="st48" d="M25.4,3.9c-0.2,0.1-0.3,0.3-0.2,0.4c0.1,0.1,0.3,0.1,0.4,0c0.2-0.1,0.3-0.3,0.2-0.4
					C25.8,3.8,25.6,3.8,25.4,3.9z"/>
				<path class="st49" d="M25.5,3.9c-0.1,0.1-0.1,0.1-0.1,0.2c0,0.1,0.1,0,0.2,0c0.1-0.1,0.1-0.1,0.1-0.2
					C25.6,3.9,25.5,3.9,25.5,3.9z"/>
				<path class="st49" d="M24.1,3.2C24,3.2,24,3.3,24,3.4c0,0.1,0.1,0,0.2,0c0.1-0.1,0.1-0.1,0.1-0.2C24.3,3.1,24.2,3.1,24.1,3.2z"
					/>
				<path class="st49" d="M22.8,2.4c-0.1,0.1-0.1,0.1-0.1,0.2c0,0.1,0.1,0,0.2,0C23,2.6,23.1,2.5,23,2.4C23,2.4,22.9,2.4,22.8,2.4z"
					/>
			</g>
			<g>
				<path class="st50" d="M23.7,15.3c-0.1-0.2-0.3-0.3-0.5-0.4l-3.6,1.5c-0.1-0.1,0.6-0.6,0.4-0.6c-0.1,0-0.2,0-0.3,0.1
					c-0.1,0-0.1,0.1-0.2,0.1L18,16.9L17.7,17l-0.3,0.2l0.2,0.3l0.2,0.3l0.4,0.6l0.5,0.7l0.3,0.5l0.2,0.2l1.4-0.8l0,0
					c0.1-0.1,3.3-1.9,3.4-2.1c0-0.1,0.1-0.1,0.1-0.2c0-0.1,0-0.1,0-0.2c0-0.1,0-0.3-0.1-0.4C23.9,15.8,23.8,15.5,23.7,15.3z"/>
				<path class="st51" d="M23.7,15.3c-0.1-0.2-0.3-0.3-0.5-0.4l-3.6,1.5c-0.1-0.1,0.6-0.6,0.4-0.6c-0.1,0-0.2,0-0.3,0.1
					c-0.1,0-0.1,0.1-0.2,0.1L18,16.9l-0.2,1l0.4,0.6l0.5,0.7l0.3,0.5l5.1-2.8c0-0.1,0-0.1,0-0.2c0-0.1,0-0.3-0.1-0.4
					C23.9,15.8,23.8,15.5,23.7,15.3z"/>
				<path class="st52" d="M23.2,14.9l-3.6,1.5c-0.1-0.1,0.6-0.6,0.4-0.6c-0.1,0-0.2,0-0.3,0.1c-0.1,0-0.1,0.1-0.2,0.1L18,16.9
					L17.7,17l-0.1,0.5l0.2,0.3l0.4,0.6l0.5,0.7l5.4-3c-0.1-0.3-0.2-0.5-0.4-0.7C23.5,15.2,23.3,15,23.2,14.9z"/>
				<path class="st53" d="M22,14.5c-0.1,0-2.5,1.4-2.5,1.5L18,16.9L17.7,17l-0.3,0.2l0.2,0.3l0.2,0.3l0.4,0.6l5.5-3.1
					c-0.1-0.2-0.3-0.3-0.5-0.4C23.2,14.9,22.9,14.6,22,14.5z"/>
				<path class="st54" d="M18.6,17.5l-0.5-0.3c-0.5-0.3-1.2,0.1-1.2,0.7c0,0.7,0.3,1.3,0.9,1.6l0.5,0.3c0.5,0.3,1.2-0.1,1.2-0.7
					C19.5,18.5,19.1,17.9,18.6,17.5z"/>
				<path class="st55" d="M18.4,19L18,18.7c-0.5-0.3-0.8-0.7-0.9-1.3c-0.1,0.1-0.1,0.3-0.1,0.4c0,0.7,0.3,1.3,0.9,1.6l0.5,0.3
					c0.5,0.3,1.2-0.1,1.2-0.7c0-0.1,0-0.2,0-0.3C19.2,19.1,18.8,19.2,18.4,19z"/>
				<g>
					<polygon class="st56" points="10,22.4 23.4,14.5 23.4,13.9 3.9,18.8 					"/>
					<polygon class="st2" points="3.1,17.8 10,21.8 23.4,13.9 16.5,9.9 					"/>
				</g>
			</g>
			<path class="st57" d="M1.1,21l6.1,4.4l0.3-0.2v-3.1l-6.4-3.7V21z M1.4,19l5.8,3.3v1.8l-5.8-3.3V19z"/>
			<path class="st58" d="M0.8,21.7l6.4,3.7v-3.1l-6.4-3.7V21.7z M1.1,19.2l5.8,3.3v1.8l-5.8-3.3V19.2z"/>
			<g>
				<path class="st53" d="M6.8,24.2l-0.5-0.3c-0.1-0.1-0.2,0-0.2,0.1v0.5c0,0.1,0.1,0.2,0.2,0.3l0.5,0.3c0.1,0.1,0.2,0,0.2-0.1v-0.5
					C6.9,24.4,6.8,24.3,6.8,24.2z"/>
				<path class="st59" d="M6.1,24.4L6.1,24.4c0,0.1,0.1,0.3,0.2,0.3l0.5,0.3c0.1,0.1,0.2,0,0.2-0.1v-0.1l-0.4-0.4L6.1,24.4z"/>
				<path class="st60" d="M6.8,24.2l-0.5-0.3c-0.1-0.1-0.2,0-0.2,0.1v0.1l0.4,0.4l0.4,0v-0.1C6.9,24.4,6.8,24.3,6.8,24.2z"/>
				<path class="st61" d="M6.6,24.1c-0.2-0.1-0.3,0-0.3,0.1c0,0.2,0.2,0.4,0.3,0.5c0.2,0.1,0.3,0,0.3-0.1
					C6.9,24.5,6.8,24.2,6.6,24.1z"/>
				<g>
					<path class="st62" d="M6.6,24.2c-0.1-0.1-0.3,0-0.3,0.1c0,0.1,0.1,0.3,0.3,0.4c0.1,0.1,0.3,0,0.3-0.1
						C6.9,24.5,6.8,24.3,6.6,24.2z"/>
					<path class="st63" d="M6.6,24.7c0.1,0.1,0.2,0,0.2-0.1l-0.4-0.3C6.4,24.4,6.5,24.6,6.6,24.7z"/>
					<path class="st64" d="M6.7,24.4v0.3c0,0,0,0,0,0c0,0,0,0,0,0L6.7,24.4C6.8,24.4,6.8,24.3,6.7,24.4C6.7,24.3,6.7,24.3,6.7,24.4z
						"/>
					<path class="st64" d="M6.6,24.3v0.3c0,0,0,0,0,0c0,0,0,0,0,0L6.6,24.3C6.7,24.3,6.6,24.3,6.6,24.3C6.6,24.3,6.6,24.3,6.6,24.3z
						"/>
					<path class="st64" d="M6.5,24.2v0.3c0,0,0,0,0,0c0,0,0,0,0,0L6.5,24.2C6.5,24.2,6.5,24.2,6.5,24.2C6.5,24.2,6.5,24.2,6.5,24.2z
						"/>
					<path class="st65" d="M6.7,24.7C6.7,24.7,6.7,24.7,6.7,24.7C6.7,24.7,6.8,24.7,6.7,24.7C6.8,24.7,6.8,24.7,6.7,24.7l0.1-0.1
						l-0.1,0V24.7z"/>
					<path class="st65" d="M6.6,24.6C6.6,24.6,6.6,24.6,6.6,24.6C6.6,24.7,6.7,24.6,6.6,24.6l0.1-0.1l-0.1,0V24.6z"/>
					<path class="st65" d="M6.5,24.5C6.5,24.5,6.5,24.6,6.5,24.5C6.5,24.6,6.5,24.6,6.5,24.5C6.5,24.6,6.5,24.6,6.5,24.5l0.1-0.1
						l-0.1,0V24.5z"/>
				</g>
			</g>
			<g>
				<path class="st53" d="M1.8,21.4l-0.5-0.3c-0.1-0.1-0.2,0-0.2,0.1v0.5c0,0.1,0.1,0.2,0.2,0.3l0.5,0.3c0.1,0.1,0.2,0,0.2-0.1v-0.5
					C2,21.6,1.9,21.5,1.8,21.4z"/>
				<path class="st59" d="M1.1,21.6L1.1,21.6c0,0.1,0.1,0.3,0.2,0.3l0.5,0.3c0.1,0.1,0.2,0,0.2-0.1v-0.1l-0.4-0.4L1.1,21.6z"/>
				<path class="st60" d="M1.8,21.4l-0.5-0.3c-0.1-0.1-0.2,0-0.2,0.1v0.1l0.4,0.4l0.4,0v-0.1C2,21.6,1.9,21.5,1.8,21.4z"/>
				<path class="st61" d="M1.6,21.3c-0.2-0.1-0.3,0-0.3,0.1c0,0.2,0.2,0.4,0.3,0.5C1.8,22.1,2,22,2,21.9C2,21.7,1.8,21.4,1.6,21.3z"
					/>
				<g>
					<path class="st62" d="M1.7,21.4c-0.1-0.1-0.3,0-0.3,0.1c0,0.1,0.1,0.3,0.3,0.4c0.1,0.1,0.3,0,0.3-0.1
						C1.9,21.6,1.8,21.5,1.7,21.4z"/>
					<path class="st63" d="M1.7,21.9c0.1,0.1,0.2,0,0.2-0.1l-0.4-0.3C1.4,21.6,1.5,21.8,1.7,21.9z"/>
					<path class="st64" d="M1.8,21.5v0.3c0,0,0,0,0,0c0,0,0,0,0,0L1.8,21.5C1.8,21.5,1.8,21.5,1.8,21.5C1.8,21.5,1.8,21.5,1.8,21.5z
						"/>
					<path class="st64" d="M1.6,21.5v0.3c0,0,0,0,0,0c0,0,0,0,0,0L1.6,21.5C1.7,21.5,1.7,21.4,1.6,21.5C1.6,21.4,1.6,21.4,1.6,21.5z
						"/>
					<path class="st64" d="M1.5,21.4v0.3c0,0,0,0,0,0c0,0,0,0,0,0L1.5,21.4C1.6,21.4,1.5,21.4,1.5,21.4C1.5,21.4,1.5,21.4,1.5,21.4z
						"/>
					<path class="st65" d="M1.8,21.8C1.8,21.9,1.8,21.9,1.8,21.8C1.8,21.9,1.8,21.9,1.8,21.8C1.8,21.9,1.8,21.9,1.8,21.8l0.1-0.1
						l-0.1,0V21.8z"/>
					<path class="st65" d="M1.6,21.8C1.6,21.8,1.6,21.8,1.6,21.8C1.7,21.8,1.7,21.8,1.6,21.8l0.1-0.1l-0.1,0V21.8z"/>
					<path class="st65" d="M1.5,21.7C1.5,21.7,1.5,21.7,1.5,21.7C1.5,21.7,1.5,21.7,1.5,21.7C1.5,21.7,1.6,21.7,1.5,21.7l0.1-0.1
						l-0.1,0V21.7z"/>
				</g>
			</g>
			<g>
				<path class="st66" d="M22.4,7c-0.5-0.7-1.2-1.2-1.9-1.7l-1.9-1.1C18,4,17.5,3.8,17,3.8c-0.4,0-0.7,0.1-1.1,0.2
					c-0.3,0.1-0.5,0.2-0.8,0.4L4.1,10.9l-1,0.6l-1.3,0.7l0.9,1.3l0.7,1.1l1.5,2.2l1.7,2.6l1.2,1.8l0.6,0.9l13.7-8l0,0
					c0.5-0.2,0.9-0.6,1.2-1.1c0.2-0.2,0.3-0.5,0.4-0.8c0.1-0.2,0.1-0.5,0.1-0.8c0-0.6-0.1-1.1-0.2-1.7C23.5,8.7,23,7.8,22.4,7z"/>
				<g>
					<path class="st67" d="M22.4,7c-0.5-0.7-1.2-1.2-1.9-1.7l-1.9-1.1C18,4,17.5,3.8,17,3.8c-0.4,0-0.7,0.1-1.1,0.2
						c-0.3,0.1-0.5,0.2-0.8,0.4L4.1,10.9l-0.7,3.7l1.5,2.2l1.7,2.6l1.2,1.8l15.9-9c0.1-0.2,0.1-0.5,0.1-0.8c0-0.6-0.1-1.1-0.2-1.7
						C23.5,8.7,23,7.8,22.4,7z"/>
					<g>
						
							<linearGradient id="SVGID_7_" gradientUnits="userSpaceOnUse" x1="934.1213" y1="7.4404" x2="932.5167" y2="4.4792" gradientTransform="matrix(-1 0 0 1 953.1024 0)">
							<stop  offset="7.389160e-02" style="stop-color:#553537"/>
							<stop  offset="0.5123" style="stop-color:#A24E46"/>
							<stop  offset="0.8768" style="stop-color:#DB7470"/>
						</linearGradient>
						<path class="st68" d="M17.6,4.5c0.1-0.2,0.3-0.3,0.5-0.5l0.5-0.3c0.1,0,0.2-0.1,0.2-0.1c0,0,0,0,0,0c0.1,0,0.1,0,0.2,0
							c0.1,0,0.2,0,0.3,0.1c0.1,0,0.1,0.1,0.2,0.1l2.7,1.5l0.3,0.2l0.4,0.2l-0.3,0.4l-0.2,0.3L22,7l-0.5,0.7l-4.3-2.4
							C17.3,5,17.4,4.8,17.6,4.5z"/>
						
							<linearGradient id="SVGID_8_" gradientUnits="userSpaceOnUse" x1="930.8901" y1="7.5092" x2="931.9258" y2="5.5545" gradientTransform="matrix(-1 0 0 1 953.1024 0)">
							<stop  offset="7.389160e-02" style="stop-color:#553537"/>
							<stop  offset="0.5123" style="stop-color:#A24E46"/>
							<stop  offset="0.8768" style="stop-color:#DB7470"/>
						</linearGradient>
						<path class="st69" d="M20.6,7.8L20.6,7.8c0,0.6,0.7,1,1.3,0.7l0.5-0.3c0.6-0.4,1-1,1-1.7l0,0c0-0.6-0.7-1-1.3-0.7l-0.5,0.3
							C21,6.4,20.6,7.1,20.6,7.8z"/>
						
							<linearGradient id="SVGID_9_" gradientUnits="userSpaceOnUse" x1="930.5333" y1="8.2066" x2="932.3713" y2="4.6619" gradientTransform="matrix(-1 0 0 1 953.1024 0)">
							<stop  offset="7.389160e-02" style="stop-color:#3D292B"/>
							<stop  offset="0.5123" style="stop-color:#663B3D"/>
							<stop  offset="0.8768" style="stop-color:#DB7470"/>
						</linearGradient>
						<path class="st70" d="M23.3,6c-0.1,0.6-0.4,1.1-1,1.4l-0.5,0.3c-0.4,0.2-0.9,0.1-1.1-0.2c0,0.1,0,0.2,0,0.3
							c0,0.6,0.7,1,1.3,0.7l0.5-0.3c0.6-0.4,1-1,1-1.7C23.4,6.3,23.4,6.2,23.3,6z"/>
					</g>
					
						<linearGradient id="SVGID_10_" gradientUnits="userSpaceOnUse" x1="218.4145" y1="17.8743" x2="212.6345" y2="7.2076" gradientTransform="matrix(1 0 0 1 -201.7779 0)">
						<stop  offset="0" style="stop-color:#784243"/>
						<stop  offset="0.122" style="stop-color:#934E45"/>
						<stop  offset="0.283" style="stop-color:#B45E47"/>
						<stop  offset="0.4232" style="stop-color:#CD6948"/>
						<stop  offset="0.5261" style="stop-color:#D96E49"/>
						<stop  offset="0.6278" style="stop-color:#D46B48"/>
						<stop  offset="0.75" style="stop-color:#CA6447"/>
						<stop  offset="0.8822" style="stop-color:#BB5A46"/>
						<stop  offset="1" style="stop-color:#AB4F45"/>
					</linearGradient>
					<path class="st71" d="M22.4,7c-0.5-0.7-1.2-1.2-1.9-1.7l-1.9-1.1C18.2,4.1,18,4,17.7,3.9c0,0-0.1,0-0.1,0
						c-0.2,0-0.4-0.1-0.5-0.1c-0.4,0-0.7,0.1-1.1,0.2c-0.3,0.1-0.5,0.2-0.8,0.4L4.1,10.9l-1,0.6l-1.3,0.7l0.9,1.3l0.7,1.1l1.5,2.2
						l1.7,2.6l17.1-9.6C23.5,8.7,23,7.8,22.4,7z"/>
					
						<linearGradient id="SVGID_11_" gradientUnits="userSpaceOnUse" x1="206.0648" y1="18.5314" x2="209.7537" y2="11.5691" gradientTransform="matrix(1 0 0 1 -201.7779 0)">
						<stop  offset="7.389160e-02" style="stop-color:#C46146"/>
						<stop  offset="0.5123" style="stop-color:#DA7343"/>
						<stop  offset="0.8768" style="stop-color:#E69E5A"/>
					</linearGradient>
					<path class="st72" d="M6.4,13.5l-1.9-1.1C2.5,11.3,0,12.7,0,15l0,0c0,2.5,1.3,4.9,3.5,6.1l1.9,1.1c2,1.1,4.5-0.3,4.5-2.6l0,0
						C9.9,17.1,8.5,14.8,6.4,13.5z"/>
					
						<linearGradient id="SVGID_12_" gradientUnits="userSpaceOnUse" x1="204.3849" y1="21.804" x2="210.9314" y2="9.1785" gradientTransform="matrix(1 0 0 1 -201.7779 0)">
						<stop  offset="7.389160e-02" style="stop-color:#864841"/>
						<stop  offset="0.5123" style="stop-color:#DA7343"/>
						<stop  offset="0.8768" style="stop-color:#E69E5A"/>
					</linearGradient>
					<path class="st73" d="M0.5,13.3c0.4,2,1.6,3.8,3.4,4.9l1.9,1.1c1.4,0.8,3.1,0.3,3.9-0.9c0.1,0.4,0.1,0.8,0.1,1.2
						c0,2.3-2.5,3.7-4.5,2.6l-1.9-1.1C1.3,19.8,0,17.5,0,15C0,14.3,0.2,13.7,0.5,13.3z"/>
				</g>
			</g>
		</g>
	</g>
	<g>
		<path class="st74" d="M10.7,8.4c0,0.4,0.4,0.8,1.1,1c0.1,0,0.1,0,0.2,0.1c0,0,0.1,0,0.1,0c0,0,0,0,0.1,0c0,0,0,0,0.1,0
			c0.1,0,0.1,0,0.2,0c0,0,0.1,0,0.1,0c0,0,0.1,0,0.1,0c0,0,0.1,0,0.1,0c0,0,0.1,0,0.1,0c0.1,0,0.1,0,0.2,0c0,0,0,0,0.1,0
			c0,0,0,0,0.1,0c0,0,0.1,0,0.1,0c0.1,0,0.1,0,0.2-0.1c0,0,0.1,0,0.1,0c0.1,0,0.1,0,0.2-0.1c0,0,0,0,0.1,0c0.1,0,0.1,0,0.1-0.1
			c0,0,0,0,0.1,0c0.1,0,0.1-0.1,0.2-0.1c0,0,0,0,0,0c0,0,0.1-0.1,0.1-0.1c0,0,0-0.1,0.1-0.1c0,0,0,0,0-0.1c0,0,0-0.1,0-0.1
			c0,0,0,0,0,0c0,0,0,0,0,0c0,0,0,0,0,0c0-0.1,0-0.1,0-0.2V7.9h-3.8V8.4z"/>
		<path class="st75" d="M11.8,9.4c0.1,0,0.1,0,0.2,0.1c0,0,0.1,0,0.1,0c0,0,0,0,0.1,0c0,0,0,0,0.1,0c0.1,0,0.1,0,0.2,0
			c0,0,0.1,0,0.1,0c0,0,0.1,0,0.1,0c0,0,0.1,0,0.1,0c0,0,0.1,0,0.1,0c0.1,0,0.1,0,0.2,0c0,0,0,0,0.1,0c0,0,0,0,0.1,0
			c0,0,0.1,0,0.1,0c0.1,0,0.1,0,0.2-0.1V7.9h-1.7V9.4z"/>
		<path class="st76" d="M13.5,9.4c0,0,0.1,0,0.1,0c0.1,0,0.1,0,0.2-0.1c0,0,0,0,0.1,0c0.1,0,0.1,0,0.1-0.1c0,0,0,0,0.1,0
			c0.1,0,0.1-0.1,0.2-0.1c0,0,0,0,0,0c0,0,0.1-0.1,0.1-0.1c0,0,0-0.1,0.1-0.1c0,0,0,0,0-0.1c0,0,0-0.1,0-0.1c0,0,0,0,0,0
			c0,0,0,0,0,0c0,0,0,0,0,0c0-0.1,0-0.1,0-0.2V7.9h-1.1V9.4z"/>
		<path class="st77" d="M13.7,7.1c-0.1,0-0.1,0-0.2-0.1c0,0-0.1,0-0.1,0c-0.3-0.1-0.5-0.1-0.8-0.1c-0.3,0-0.6,0-0.8,0.1
			c-0.6,0.2-1.1,0.5-1.1,1c0,0.4,0.4,0.8,1.1,1C12.1,9,12.3,9,12.6,9c0.3,0,0.6,0,0.8-0.1c0.6-0.2,1.1-0.5,1.1-1
			C14.6,7.6,14.2,7.3,13.7,7.1z"/>
	</g>
	<g>
		<g>
			<g>
				<polygon class="st78" points="15,16.1 15.7,16.7 16.4,15.3 15.7,14.8 				"/>
				<path class="st79" d="M15.7,14.7L15,16.1l0,0.1l0.7,0.6l0,0l0.7-1.4l0-0.1L15.7,14.7L15.7,14.7z M15.7,16.6L15,16l0.6-1.2
					l0.7,0.5L15.7,16.6z"/>
			</g>
			<path class="st80" d="M15.6,15.1c0,0-0.3,0.8-0.3,1c0,0.2,0.2,0.3,0.4,0.2c0.2-0.1,0.4-0.4,0.4-0.6
				C16.1,15.4,15.6,15.1,15.6,15.1z"/>
			<path class="st57" d="M15.7,15.1c0,0-0.2,0.6-0.2,0.8c0,0.2,0.1,0.3,0.3,0.1c0.2-0.1,0.3-0.4,0.3-0.5S15.7,15.1,15.7,15.1z"/>
			<path class="st81" d="M15.7,15.5c0,0.1,0,0.2,0,0.2c0,0.1,0.1,0.1,0.2,0c0-0.1,0-0.2,0-0.2C15.8,15.4,15.7,15.4,15.7,15.5z"/>
		</g>
		<g>
			<path class="st82" d="M17.6,13.8c-0.1,0.1-0.2,0.2-0.3,0.4c-0.1,0.2-0.1,0.4-0.1,0.7c0,0.3,0,0.4,0.1,0.5c0.1,0.1,0.2,0.1,0.3,0
				c0.1-0.1,0.2-0.2,0.3-0.4c0.1-0.2,0.1-0.4,0.1-0.7s0-0.4-0.1-0.5C17.9,13.7,17.8,13.7,17.6,13.8z M17.6,15.1c-0.1,0-0.1,0-0.2,0
				c0-0.1-0.1-0.2-0.1-0.4c0-0.2,0-0.3,0.1-0.4c0-0.1,0.1-0.2,0.2-0.2c0.1-0.1,0.2,0.1,0.2,0.4S17.8,15,17.6,15.1z"/>
			<polygon class="st82" points="18.7,14.7 18.9,14.5 18.9,13 18.7,13.1 			"/>
			<polygon class="st82" points="19.8,12.4 19.6,12.6 19.6,14.1 20.1,13.8 20.1,13.5 19.8,13.7 			"/>
		</g>
	</g>
</g>
</svg>
