<?xml version="1.0" encoding="utf-8"?>
<!-- Generator: Adobe Illustrator 23.0.0, SVG Export Plug-In . SVG Version: 6.00 Build 0)  -->
<svg version="1.1" id="Слой_1" xmlns="http://www.w3.org/2000/svg" xmlns:xlink="http://www.w3.org/1999/xlink" x="0px" y="0px"
	 viewBox="0 0 30.7 26.9" style="enable-background:new 0 0 30.7 26.9;" xml:space="preserve">
<style type="text/css">
	.st0{display:none;fill:#AFBDE3;}
	.st1{fill:#2F2F2F;}
	.st2{fill:#444545;}
	.st3{fill:#0E0F0F;}
	.st4{fill:#1D1D1D;}
	.st5{fill:#272727;}
	.st6{fill:#1B1B1C;}
	.st7{fill:#3A3A3A;}
	.st8{fill:#5C5C5C;}
	.st9{fill:#A9A9A9;}
	.st10{fill:#E9EAE6;}
	.st11{fill:#737373;}
	.st12{fill:#949494;}
	.st13{fill:#575757;}
	.st14{fill:#CDCDCD;}
	.st15{fill:#DBDDD8;}
	.st16{fill:#DFDFE0;}
	.st17{fill:#7E7E7E;}
	.st18{fill:#B1B1B1;}
	.st19{fill:#535353;}
	.st20{fill:#585858;}
	.st21{fill:#4E4E4E;}
	.st22{fill:#131414;}
	.st23{fill:#333333;}
	.st24{fill:#141516;}
	.st25{fill:#CCCCCC;}
	.st26{fill:#CA4C44;}
	.st27{fill:#161617;}
	.st28{fill:#834642;}
	.st29{fill:#A54E45;}
	.st30{fill:url(#SVGID_1_);}
	.st31{fill:url(#SVGID_2_);}
	.st32{fill:url(#SVGID_3_);}
	.st33{fill:#513235;}
	.st34{fill:#713F41;}
	.st35{fill:url(#SVGID_4_);}
	.st36{fill:url(#SVGID_5_);}
	.st37{fill:url(#SVGID_6_);}
	.st38{fill:#2C2C2C;}
	.st39{fill:#BEE0E8;}
	.st40{fill:#181819;}
	.st41{fill:#222221;}
	.st42{fill:#121313;}
	.st43{fill:#191A1A;}
	.st44{fill:#6C6C6C;}
	.st45{fill:#3F3F3F;}
	.st46{fill:#676767;}
	.st47{fill:#92968C;}
	.st48{fill:#72786B;}
	.st49{fill:#858585;}
	.st50{fill:#AAAAAA;}
	.st51{fill:#242424;}
	.st52{fill:#121314;}
	.st53{fill:#616161;}
	.st54{fill:#151616;}
	.st55{fill:url(#SVGID_7_);}
	.st56{fill:#657F88;}
	.st57{fill:#A7D7F5;}
	.st58{fill:url(#SVGID_8_);}
	.st59{clip-path:url(#SVGID_10_);fill:#0E0F0F;}
	.st60{clip-path:url(#SVGID_10_);fill:#1D1D1D;}
	.st61{clip-path:url(#SVGID_10_);fill:#272727;}
	.st62{clip-path:url(#SVGID_10_);fill:#191A1D;}
	.st63{clip-path:url(#SVGID_10_);fill:#3A3A3A;}
	.st64{clip-path:url(#SVGID_10_);fill:#5C5C5C;}
	.st65{clip-path:url(#SVGID_10_);fill:#A9A9A9;}
	.st66{clip-path:url(#SVGID_10_);fill:#E9EAE6;}
	.st67{clip-path:url(#SVGID_10_);fill:#737373;}
	.st68{clip-path:url(#SVGID_10_);fill:#949494;}
	.st69{clip-path:url(#SVGID_10_);}
	.st70{clip-path:url(#SVGID_10_);fill:#CDCDCD;}
	.st71{clip-path:url(#SVGID_10_);fill:#DBDDD8;}
	.st72{clip-path:url(#SVGID_10_);fill:#DFDFE0;}
	.st73{fill:#161718;}
	.st74{fill:#1E1E1E;}
	.st75{fill:#DD8044;}
	.st76{fill:#3C3C3C;}
	.st77{fill:#666666;}
	.st78{fill:#FFFFFF;}
	.st79{fill:#DFDFDF;}
	.st80{fill:#CACACA;}
	.st81{fill:#6E919F;}
	.st82{fill:#C2C2C2;}
	.st83{fill:#AFAFAF;}
	.st84{fill:#E8E8E8;}
	.st85{fill:url(#SVGID_11_);}
	.st86{fill:url(#SVGID_12_);}
	.st87{fill:#D05D44;}
	.st88{fill:#ECB05A;}
	.st89{fill:#141515;}
	.st90{fill:#212121;}
	.st91{fill:#171818;}
	.st92{fill:#D7E0EA;}
	.st93{fill:#ADC0D3;}
	.st94{fill:#E18F4D;}
	.st95{fill:#FDF0D1;}
	.st96{fill:url(#SVGID_13_);}
	.st97{fill:#F3F4F4;}
	.st98{fill:#DEDEDE;}
	.st99{fill:#C0C0BF;}
	.st100{fill:#F8F8F8;}
	.st101{fill:#E39544;}
	.st102{fill:#F3F3F2;}
	.st103{fill:#181B19;}
	.st104{fill:#2A2A2A;}
</style>
<g>
	<path class="st0" d="M-1,14.2l6.3-4L30.4,22c0.4,0.2,0.4,0.7,0,0.9l-7.9,4.4c-1.3,0.7-3,0.7-4.3,0L-1,16.2
		C-1.7,15.7-1.8,14.7-1,14.2z"/>
	<g>
		<g>
			<polygon class="st1" points="10.7,7.9 8.4,9.2 7.4,9.6 9.7,8.2 			"/>
			<polygon class="st2" points="18.2,12.1 15.8,13.5 8.4,9.2 10.7,7.9 			"/>
			<polygon class="st1" points="16.8,11.3 16.2,12 13.8,13.4 14.4,12.7 			"/>
			<polygon class="st3" points="6.8,19.2 6.5,18.7 9.6,16.8 			"/>
			<polygon class="st3" points="15.2,13.6 9.6,16.8 13.9,13.3 			"/>
			<g>
				<path class="st3" d="M2.7,12.7c0.4-0.2,0.9-0.2,1.4,0.2c1.1,0.6,2,2.2,2,3.4c0,0.6-0.2,1-0.5,1.2l0,0l0,0c0,0,0,0,0,0L4,18.4
					l-2.9-4.8L2.7,12.7L2.7,12.7z"/>
				<path class="st4" d="M4.1,12.9c1.1,0.6,2,2.2,2,3.4c0,0.2,0,0.4-0.1,0.6l-1.6,0.9c-0.2,0-0.3-0.1-0.5-0.2
					c-0.2-0.1-0.4-0.3-0.6-0.4l-1.5-2.5c-0.1-0.2-0.1-0.5-0.1-0.7l2-1.2C3.8,12.8,4,12.8,4.1,12.9z"/>
				<path class="st5" d="M2.6,13.7c1.1,0.6,2,2.2,2,3.4c0,1.2-0.9,1.7-2,1.1c-1.1-0.6-2-2.2-2-3.4S1.5,13.1,2.6,13.7z"/>
				<path class="st6" d="M2.6,13.8c1.1,0.6,1.9,2.1,1.9,3.3c0,1.2-0.9,1.7-1.9,1.1s-1.9-2.1-1.9-3.3C0.7,13.7,1.6,13.2,2.6,13.8z"/>
				<path class="st7" d="M2.6,14.3c0.8,0.5,1.5,1.6,1.5,2.5c0,0.9-0.7,1.3-1.5,0.8c-0.8-0.5-1.5-1.6-1.5-2.5
					C1.1,14.2,1.8,13.8,2.6,14.3z"/>
				<path class="st8" d="M2.6,14.4C3.4,14.8,4,15.9,4,16.8c0,0.9-0.6,1.2-1.4,0.8c-0.8-0.4-1.4-1.5-1.4-2.4
					C1.2,14.3,1.9,14,2.6,14.4z"/>
				<path class="st9" d="M4,16.8c0,0.1,0,0.2,0,0.3l-1,0.6c-0.1,0-0.2-0.1-0.3-0.1c-0.8-0.4-1.4-1.5-1.4-2.3l1.4-0.8
					C3.4,14.9,4,15.9,4,16.8z"/>
				<path class="st10" d="M4,16.3l-1.7,1C2,17,1.7,16.6,1.5,16.2l1.9-1.1C3.7,15.5,3.9,15.9,4,16.3z"/>
				<path class="st10" d="M4,16.3l-1.7,1C2,17,1.7,16.6,1.5,16.2l1.9-1.1C3.7,15.5,3.9,15.9,4,16.3z"/>
				<path class="st11" d="M2.8,14.6c0.6,0.3,1.1,1.2,1.1,1.9c0,0.7-0.5,1-1.1,0.6c-0.6-0.3-1.1-1.2-1.1-1.9
					C1.7,14.5,2.2,14.2,2.8,14.6z"/>
				<path class="st12" d="M2.8,14.7c0.5,0.3,0.9,1,0.9,1.6s-0.4,0.8-0.9,0.5c-0.5-0.3-0.9-1-0.9-1.6C1.9,14.6,2.3,14.4,2.8,14.7z"/>
				<path class="st13" d="M3.4,15.1c0.1,0.1,0.1,0.1,0.2,0.2c0,0-0.1,0-0.1,0C3.3,15.3,3.3,15.2,3.4,15.1
					C3.3,15.1,3.3,15.1,3.4,15.1z"/>
				<path class="st13" d="M2.2,15.7c0.1,0.1,0,0.2,0,0.2c-0.1,0-0.2-0.1-0.3-0.1c-0.1-0.1,0-0.2,0-0.2C2,15.5,2.1,15.6,2.2,15.7z"/>
				<path class="st13" d="M3.7,16.2c0.1,0.1,0.2,0.2,0.2,0.3c0,0.1,0,0.1-0.1,0.1c-0.1-0.1-0.2-0.2-0.2-0.3
					C3.5,16.2,3.6,16.2,3.7,16.2z"/>
				<path class="st13" d="M2.5,14.6c0.1,0.1,0.1,0.2,0,0.3c0,0.1-0.1,0.1-0.1,0c-0.1-0.1-0.1-0.2,0-0.3C2.4,14.5,2.4,14.5,2.5,14.6z
					"/>
				<path class="st13" d="M3.6,15.5c0,0.1,0.1,0.2,0.1,0.3c-0.1,0-0.1,0-0.2-0.1C3.5,15.6,3.5,15.5,3.6,15.5
					C3.6,15.5,3.6,15.5,3.6,15.5z"/>
				<path class="st13" d="M3.5,16.5c0.1,0.1,0.1,0.2,0.1,0.3c0,0.1-0.1,0.1-0.1,0c-0.1-0.1-0.1-0.2-0.1-0.3
					C3.4,16.4,3.4,16.4,3.5,16.5z"/>
				<path class="st13" d="M3.8,15.9c0,0.1,0,0.2,0.1,0.3c0,0,0,0,0,0c-0.1,0-0.2-0.1-0.2-0.2c-0.1-0.1,0-0.2,0.1-0.1
					C3.7,15.9,3.8,15.9,3.8,15.9z"/>
				<path class="st13" d="M2.3,16c0.1,0.1,0.1,0.1,0,0.2c-0.1,0-0.2,0-0.3,0C2,16.1,2,16.1,2,16C2.1,16,2.2,16,2.3,16z"/>
				<path class="st13" d="M2.8,16.5c0.1,0,0.1,0,0.1,0.1c0,0.1-0.1,0.2-0.1,0.2c-0.1,0-0.1,0-0.1-0.1C2.7,16.7,2.7,16.6,2.8,16.5z"
					/>
				<path class="st13" d="M3.2,16.7c0,0.1,0,0.2,0,0.3c0,0.1-0.1,0-0.2-0.1c0-0.1,0-0.2,0-0.3C3.1,16.6,3.2,16.6,3.2,16.7z"/>
				<path class="st13" d="M2.5,16.3c0.1,0,0.1,0.1,0.1,0.2c0,0.1-0.1,0.1-0.2,0.1c-0.1,0-0.1-0.1-0.1-0.2
					C2.3,16.4,2.4,16.3,2.5,16.3z"/>
				<path class="st13" d="M2.2,14.8c0.1,0.1,0.1,0.2,0.1,0.3c0,0.1-0.1,0.1-0.1,0.1C2.1,15.1,2,14.9,2,14.8
					C2,14.7,2.1,14.7,2.2,14.8z"/>
				<path class="st13" d="M3.2,14.9C3.2,15,3.2,15,3.1,15C3,15,3,15,3,14.9c0,0,0-0.1,0.1-0.1C3.1,14.8,3.2,14.9,3.2,14.9z"/>
				<path class="st13" d="M2.2,15.3c0,0.1,0,0.2-0.1,0.1c-0.1,0-0.2-0.1-0.2-0.2c0-0.1,0-0.2,0.1-0.1C2,15.1,2.1,15.3,2.2,15.3z"/>
				<path class="st13" d="M2.7,14.5C2.8,14.5,2.8,14.5,2.7,14.5c0.1,0,0.1,0.1,0.1,0.1c0,0,0,0,0,0c0,0.1,0,0.2-0.1,0.3
					c-0.1,0-0.1,0-0.1-0.1C2.6,14.7,2.7,14.6,2.7,14.5C2.7,14.5,2.7,14.5,2.7,14.5z"/>
				<path class="st14" d="M2.9,15.1c0.3,0.2,0.6,0.6,0.6,1c0,0.4-0.3,0.5-0.6,0.3c-0.3-0.2-0.6-0.6-0.6-1
					C2.3,15.1,2.6,14.9,2.9,15.1z"/>
				<path class="st9" d="M2.9,15.1c0.3,0.2,0.6,0.6,0.6,1c0,0.1,0,0.2-0.1,0.2l-0.5-0.1c-0.2-0.2-0.2-0.4-0.4-0.6L2.7,15
					C2.8,15,2.8,15.1,2.9,15.1z"/>
				<path class="st15" d="M3.4,15.9c-0.3,0-0.5,0.1-0.7,0.1c0-0.1-0.1-0.1-0.1-0.2c0.2-0.1,0.4-0.2,0.6-0.4
					C3.3,15.5,3.4,15.7,3.4,15.9z"/>
				<path class="st9" d="M2.7,15.5c0.2,0.1,0.4,0.4,0.4,0.7c0,0.3-0.2,0.4-0.4,0.2c-0.2-0.1-0.4-0.4-0.4-0.7
					C2.3,15.4,2.5,15.3,2.7,15.5z"/>
				<path class="st16" d="M2.7,15.7c0.1,0.1,0.2,0.2,0.2,0.4c0,0.1-0.1,0.2-0.2,0.1c-0.1-0.1-0.2-0.2-0.2-0.4
					C2.4,15.7,2.5,15.7,2.7,15.7z"/>
				<path class="st3" d="M2.2,13c0.4-0.2,0.9-0.2,1.4,0.2c1.1,0.6,2,2.2,2,3.4c0,0.6-0.2,1-0.5,1.2l0,0l0,0c0,0,0,0,0,0l-1,0.6l0,0
					l0.9-0.5c0,0,0,0,0,0l0,0l0,0c0.3-0.2,0.5-0.6,0.5-1.2c0-1.2-0.9-2.8-2-3.4C3,12.9,2.5,12.9,2.2,13L2.1,13L2.2,13L2.2,13z"/>
				<path class="st3" d="M1.8,13.3c0.4-0.2,0.9-0.2,1.4,0.2c1.1,0.6,2,2.2,2,3.4c0,0.6-0.2,1-0.5,1.2l0,0l0,0c0,0,0,0,0,0L4,18.4
					l0,0l0.4-0.2c0,0,0,0,0,0l0,0l0,0c0.3-0.2,0.5-0.6,0.5-1.2c0-1.2-0.9-2.8-2-3.4C2.5,13.1,2,13.1,1.8,13.3l-0.1,0.1L1.8,13.3
					L1.8,13.3z"/>
			</g>
			<g>
				<path class="st3" d="M6.6,15C7,14.8,7.4,14.9,8,15.2c1.1,0.6,2,2.2,2,3.4c0,0.6-0.2,1-0.5,1.2l0,0l0,0c0,0,0,0,0,0L8,20.7
					l-2.9-4.8L6.6,15L6.6,15z"/>
				<path class="st4" d="M8,15.2c1.1,0.6,2,2.2,2,3.4c0,0.2,0,0.4-0.1,0.6l-1.6,0.9c-0.2,0-0.3-0.1-0.5-0.2
					c-0.2-0.1-0.4-0.3-0.6-0.4l-1.5-2.5c-0.1-0.2-0.1-0.5-0.1-0.7l2-1.2C7.8,15.1,7.9,15.1,8,15.2z"/>
				<path class="st5" d="M6.5,16c1.1,0.6,2,2.2,2,3.4c0,1.2-0.9,1.7-2,1.1c-1.1-0.6-2-2.2-2-3.4C4.6,15.9,5.4,15.4,6.5,16z"/>
				<path class="st6" d="M6.5,16.1c1.1,0.6,1.9,2.1,1.9,3.3c0,1.2-0.9,1.7-1.9,1.1c-1.1-0.6-1.9-2.1-1.9-3.3
					C4.6,16,5.5,15.5,6.5,16.1z"/>
				<path class="st7" d="M6.5,16.6C7.4,17.1,8,18.2,8,19.1c0,0.9-0.7,1.3-1.5,0.8c-0.8-0.5-1.5-1.6-1.5-2.5
					C5.1,16.5,5.7,16.1,6.5,16.6z"/>
				<path class="st8" d="M6.5,16.7c0.8,0.4,1.4,1.5,1.4,2.4c0,0.9-0.6,1.2-1.4,0.8c-0.8-0.4-1.4-1.5-1.4-2.4
					C5.2,16.6,5.8,16.3,6.5,16.7z"/>
				<path class="st9" d="M7.9,19.1c0,0.1,0,0.2,0,0.3l-1,0.6c-0.1,0-0.2-0.1-0.3-0.1c-0.8-0.4-1.4-1.5-1.4-2.3l1.4-0.8
					C7.3,17.2,7.9,18.2,7.9,19.1z"/>
				<path class="st10" d="M7.9,18.6l-1.7,1c-0.3-0.3-0.6-0.7-0.8-1.1l1.9-1.1C7.6,17.8,7.8,18.2,7.9,18.6z"/>
				<path class="st10" d="M7.9,18.6l-1.7,1c-0.3-0.3-0.6-0.7-0.8-1.1l1.9-1.1C7.6,17.8,7.8,18.2,7.9,18.6z"/>
				<path class="st11" d="M6.7,16.9c0.6,0.3,1.1,1.2,1.1,1.9c0,0.7-0.5,1-1.1,0.6c-0.6-0.3-1.1-1.2-1.1-1.9
					C5.6,16.8,6.1,16.5,6.7,16.9z"/>
				<path class="st12" d="M6.7,17c0.5,0.3,0.9,1,0.9,1.6c0,0.6-0.4,0.8-0.9,0.5c-0.5-0.3-0.9-1-0.9-1.6C5.8,16.9,6.2,16.7,6.7,17z"
					/>
				<path class="st13" d="M7.3,17.4c0.1,0.1,0.1,0.1,0.2,0.2c0,0-0.1,0-0.1,0C7.2,17.6,7.2,17.5,7.3,17.4
					C7.2,17.4,7.3,17.4,7.3,17.4z"/>
				<path class="st13" d="M6.1,18c0.1,0.1,0,0.2,0,0.2c-0.1,0-0.2-0.1-0.3-0.1c-0.1-0.1,0-0.2,0-0.2C5.9,17.8,6,17.9,6.1,18z"/>
				<path class="st13" d="M7.6,18.5c0.1,0.1,0.2,0.2,0.2,0.3c0,0.1,0,0.1-0.1,0.1c-0.1-0.1-0.2-0.2-0.2-0.3S7.5,18.5,7.6,18.5z"/>
				<path class="st13" d="M6.4,16.9c0.1,0.1,0.1,0.2,0,0.3c0,0.1-0.1,0.1-0.1,0c-0.1-0.1-0.1-0.2,0-0.3C6.3,16.8,6.3,16.8,6.4,16.9z
					"/>
				<path class="st13" d="M7.5,17.8c0,0.1,0.1,0.2,0.1,0.3c-0.1,0-0.1,0-0.2-0.1C7.4,17.9,7.4,17.8,7.5,17.8
					C7.5,17.8,7.5,17.8,7.5,17.8z"/>
				<path class="st13" d="M7.4,18.8c0.1,0.1,0.1,0.2,0.1,0.3c0,0.1-0.1,0.1-0.1,0c-0.1-0.1-0.1-0.2-0.1-0.3
					C7.3,18.8,7.4,18.7,7.4,18.8z"/>
				<path class="st13" d="M7.7,18.2c0,0.1,0,0.2,0.1,0.3c0,0,0,0,0,0c-0.1,0-0.2-0.1-0.2-0.2c-0.1-0.1,0-0.2,0.1-0.1
					C7.6,18.2,7.7,18.2,7.7,18.2z"/>
				<path class="st13" d="M6.2,18.3c0.1,0.1,0.1,0.1,0,0.2c-0.1,0-0.2,0-0.3,0c-0.1-0.1-0.1-0.1,0-0.2C6,18.3,6.1,18.3,6.2,18.3z"/>
				<path class="st13" d="M6.7,18.8c0.1,0,0.1,0,0.1,0.1c0,0.1-0.1,0.2-0.1,0.2s-0.1,0-0.1-0.1C6.6,19,6.6,18.9,6.7,18.8z"/>
				<path class="st13" d="M7.2,19c0,0.1,0,0.2,0,0.3c0,0.1-0.1,0-0.2-0.1c0-0.1,0-0.2,0-0.3C7.1,18.9,7.1,18.9,7.2,19z"/>
				<path class="st13" d="M6.4,18.6c0.1,0,0.1,0.1,0.1,0.2c0,0.1-0.1,0.1-0.2,0.1c-0.1,0-0.1-0.1-0.1-0.2
					C6.3,18.7,6.3,18.6,6.4,18.6z"/>
				<path class="st13" d="M6.1,17.1c0.1,0.1,0.1,0.2,0.1,0.3c0,0.1-0.1,0.1-0.1,0.1C6,17.4,6,17.2,5.9,17.1C5.9,17,6,17,6.1,17.1z"
					/>
				<path class="st13" d="M7.2,17.2c0,0.1-0.1,0.1-0.1,0.1c-0.1,0-0.1-0.1-0.1-0.1c0,0,0-0.1,0.1-0.1C7,17.1,7.1,17.2,7.2,17.2z"/>
				<path class="st13" d="M6.1,17.7c0,0.1,0,0.2-0.1,0.1c-0.1,0-0.2-0.1-0.2-0.2c0-0.1,0-0.2,0.1-0.1C6,17.5,6.1,17.6,6.1,17.7z"/>
				<path class="st13" d="M6.7,16.8C6.7,16.8,6.7,16.8,6.7,16.8c0.1,0,0.1,0.1,0.1,0.1c0,0,0,0,0,0c0,0.1,0,0.2-0.1,0.3
					c-0.1,0-0.1,0-0.1-0.1C6.6,17,6.6,16.9,6.7,16.8C6.7,16.8,6.7,16.8,6.7,16.8z"/>
				<path class="st14" d="M6.8,17.4c0.3,0.2,0.6,0.6,0.6,1c0,0.4-0.3,0.5-0.6,0.3c-0.3-0.2-0.6-0.6-0.6-1
					C6.2,17.4,6.5,17.2,6.8,17.4z"/>
				<path class="st9" d="M6.8,17.4c0.3,0.2,0.6,0.6,0.6,1c0,0.1,0,0.2-0.1,0.2l-0.5-0.1c-0.2-0.2-0.2-0.4-0.4-0.6l0.2-0.6
					C6.7,17.4,6.8,17.4,6.8,17.4z"/>
				<path class="st15" d="M7.4,18.2c-0.3,0-0.5,0.1-0.7,0.1c0-0.1-0.1-0.1-0.1-0.2C6.8,18,7,17.9,7.2,17.7C7.3,17.9,7.3,18,7.4,18.2
					z"/>
				<path class="st9" d="M6.6,17.8c0.2,0.1,0.4,0.4,0.4,0.7c0,0.3-0.2,0.4-0.4,0.2c-0.2-0.1-0.4-0.4-0.4-0.7S6.4,17.6,6.6,17.8z"/>
				<path class="st16" d="M6.6,18c0.1,0.1,0.2,0.2,0.2,0.4c0,0.1-0.1,0.2-0.2,0.1c-0.1-0.1-0.2-0.2-0.2-0.4C6.4,18,6.5,18,6.6,18z"
					/>
				<path class="st3" d="M6.1,15.3c0.4-0.2,0.9-0.2,1.4,0.2c1.1,0.6,2,2.2,2,3.4c0,0.6-0.2,1-0.5,1.2l0,0l0,0c0,0,0,0,0,0l-1,0.6
					l0,0l0.9-0.5c0,0,0,0,0,0l0,0l0,0c0.3-0.2,0.5-0.6,0.5-1.2c0-1.2-0.9-2.8-2-3.4C6.9,15.2,6.4,15.2,6.1,15.3L6,15.4L6.1,15.3
					L6.1,15.3z"/>
				<path class="st3" d="M5.7,15.6c0.4-0.2,0.9-0.2,1.4,0.2c1.1,0.6,2,2.2,2,3.4c0,0.6-0.2,1-0.5,1.2l0,0l0,0c0,0,0,0,0,0L8,20.7
					l0,0l0.4-0.2c0,0,0,0,0,0l0,0l0,0C8.8,20.2,9,19.8,9,19.2c0-1.2-0.9-2.8-2-3.4C6.4,15.5,6,15.4,5.7,15.6l-0.1,0.1L5.7,15.6
					L5.7,15.6z"/>
			</g>
			<g>
				<path class="st8" d="M11.4,16.4c0.1,0,0.2,0,0.3,0.1c0.1,0,0.1,0.1,0.2,0.1l2.6,1.5l1.3,0.8l0.3,0.2l-0.2,0.4l-0.2,0.3l-0.4,0.6
					l-0.5,0.7l-0.3,0.5l-0.2,0.2l-2.7-1.6l0,0c-0.1-0.1-0.3-0.2-0.3-0.3c0-0.1-0.1-0.1-0.1-0.2c0-0.1,0-0.1,0-0.2
					c0-0.2,0-0.3,0.1-0.5c0.1-0.3,0.2-0.5,0.4-0.8c0.1-0.2,0.3-0.3,0.5-0.5L11,16.5C11.2,16.4,11.3,16.4,11.4,16.4z"/>
				<path class="st17" d="M11.4,16.4c0.1,0,0.2,0,0.3,0.1c0.1,0,0.1,0.1,0.2,0.1l2.6,1.5l1.2,1.6l-0.4,0.6l-0.5,0.7l-0.3,0.5
					l-3.3-1.8c0-0.1,0-0.1,0-0.2c0-0.2,0-0.3,0.1-0.5c0.1-0.3,0.2-0.5,0.4-0.8c0.1-0.2,0.3-0.3,0.5-0.5L11,16.5
					C11.2,16.4,11.3,16.4,11.4,16.4z"/>
				<path class="st18" d="M11.4,16.4c0.1,0,0.2,0,0.3,0.1c0.1,0,0.1,0.1,0.2,0.1l2.6,1.5l1.3,0.8l0.1,0.6l-0.2,0.3l-0.4,0.6
					l-0.5,0.7l-3.6-2c0.1-0.3,0.2-0.5,0.4-0.8c0.1-0.2,0.3-0.3,0.5-0.5L11,16.5C11.2,16.4,11.3,16.4,11.4,16.4z"/>
				<path class="st19" d="M11.4,16.4c0.1,0,0.2,0,0.3,0.1c0.1,0,0.1,0.1,0.2,0.1l2.6,1.5l1.3,0.8l0.3,0.2l-0.2,0.4l-0.2,0.3
					l-0.4,0.6l-3.7-2.1c0.1-0.2,0.3-0.3,0.5-0.5L11,16.5C11.2,16.4,11.3,16.4,11.4,16.4z"/>
				<path class="st20" d="M14.9,19.3l0.5-0.3c0.5-0.3,1.2,0.1,1.2,0.7c0,0.7-0.4,1.3-1,1.7l-0.5,0.3C14.6,22,14,21.6,14,21
					C14,20.3,14.3,19.7,14.9,19.3z"/>
				<path class="st21" d="M15.1,20.9l0.5-0.3c0.5-0.3,0.8-0.8,0.9-1.3c0.1,0.1,0.1,0.3,0.1,0.5c0,0.7-0.4,1.3-1,1.7l-0.5,0.3
					C14.6,22,14,21.6,14,21c0-0.1,0-0.2,0-0.3C14.2,21,14.7,21.1,15.1,20.9z"/>
			</g>
			<polygon class="st22" points="15.9,20.5 1.9,12.4 1.9,11.8 21.8,17.1 			"/>
			<polygon class="st4" points="22.6,16 15.9,19.9 1.9,11.8 8.6,8 			"/>
			<polygon class="st23" points="16.3,19.1 2.6,11 2.6,10.4 16.5,17.9 			"/>
			<polygon class="st24" points="17.5,19.5 2.6,10.9 2.6,9.4 15.8,16.9 			"/>
			<g>
				<g>
					<polygon class="st25" points="5,11.8 5.1,11.8 5.3,12 5.4,12 5.7,12.2 6,12.4 6.4,12.6 6.7,12.8 7.1,13 7.4,13.2 7.8,13.4 
						8,13.5 8.2,13.7 8.3,14 8.2,13.9 7.9,13.7 7.5,13.5 7.2,13.3 6.9,13.1 6.6,12.9 6.2,12.7 5.9,12.6 5.5,12.3 5.5,12.3 5.2,12.2 
						5.2,12.1 4.8,11.9 4.7,11.9 4.6,11.5 4.7,11.6 					"/>
					<g>
						<polygon class="st26" points="8.2,13.9 7.9,13.7 7.8,13.4 8,13.5 						"/>
						<polygon class="st26" points="6.1,12.6 6.2,12.7 5.9,12.6 5.7,12.2 6,12.4 						"/>
						<polygon class="st26" points="7.5,13.5 7.2,13.3 7.1,13 7.4,13.2 						"/>
						<polygon class="st26" points="6.9,13.1 6.6,12.9 6.4,12.6 6.7,12.8 						"/>
						<polygon class="st26" points="5.3,12 5.4,12.1 5.5,12.3 5.2,12.2 5.2,12.1 5,11.8 5.1,11.8 						"/>
						<polygon class="st26" points="4.8,11.8 4.8,11.9 4.7,11.9 4.6,11.5 4.7,11.6 						"/>
					</g>
				</g>
				<polygon class="st27" points="9.1,11.9 7.7,13.3 4.5,11.4 6.4,10.4 				"/>
			</g>
			<g>
				<path class="st28" d="M1.5,3.1c0.5-0.6,1.2-1.2,1.9-1.6l1.8-1.1C5.7,0.1,6.2,0,6.7,0c0.4,0,0.7,0.1,1.1,0.2
					C8,0.3,8.3,0.4,8.5,0.6l11.4,6.5l1,0.6l1.2,0.7l-0.9,1.3l-0.7,1l-1.4,2.1l-1.7,2.5l-1.2,1.8L15.6,18L1.6,10l0,0
					c-0.5-0.2-0.9-0.6-1.2-1C0.3,8.7,0.2,8.4,0.1,8.1C0,7.9,0,7.6,0,7.4c0-0.6,0.1-1.1,0.2-1.6C0.4,4.7,0.9,3.8,1.5,3.1z"/>
				<g>
					<path class="st29" d="M1.5,3.1c0.5-0.6,1.2-1.2,1.9-1.6l1.8-1.1C5.7,0.1,6.2,0,6.7,0c0.4,0,0.7,0.1,1.1,0.2
						C8,0.3,8.3,0.4,8.5,0.6l11.4,6.5l0.6,3.6l-1.4,2.1l-1.7,2.5l-1.2,1.8l-16.1-9C0,7.9,0,7.6,0,7.4c0-0.6,0.1-1.1,0.2-1.6
						C0.4,4.7,0.9,3.8,1.5,3.1z"/>
					
						<linearGradient id="SVGID_1_" gradientUnits="userSpaceOnUse" x1="-321.6851" y1="13.716" x2="-327.2599" y2="3.428" gradientTransform="matrix(-1 0 0 1 -314.2759 0)">
						<stop  offset="0" style="stop-color:#784243"/>
						<stop  offset="0.122" style="stop-color:#934E45"/>
						<stop  offset="0.283" style="stop-color:#B45E47"/>
						<stop  offset="0.4232" style="stop-color:#CD6948"/>
						<stop  offset="0.5261" style="stop-color:#D96E49"/>
						<stop  offset="0.6278" style="stop-color:#D46B48"/>
						<stop  offset="0.75" style="stop-color:#CA6447"/>
						<stop  offset="0.8822" style="stop-color:#BB5A46"/>
						<stop  offset="1" style="stop-color:#AB4F45"/>
					</linearGradient>
					<path class="st30" d="M1.5,3.1c0.5-0.6,1.2-1.2,1.9-1.6l1.8-1.1c0.3-0.2,0.5-0.3,0.8-0.3c0,0,0.1,0,0.1,0C6.3,0,6.5,0,6.7,0
						c0.4,0,0.7,0.1,1.1,0.2C8,0.3,8.3,0.4,8.5,0.6l11.4,6.5l1,0.6l1.2,0.7l-0.9,1.3l-0.7,1l-1.4,2.1l-1.7,2.5L0.2,5.7
						C0.4,4.7,0.9,3.8,1.5,3.1z"/>
					
						<linearGradient id="SVGID_2_" gradientUnits="userSpaceOnUse" x1="-333.9356" y1="14.5258" x2="-330.3639" y2="7.7848" gradientTransform="matrix(-1 0 0 1 -314.2759 0)">
						<stop  offset="7.389160e-02" style="stop-color:#C46146"/>
						<stop  offset="0.5123" style="stop-color:#DA7343"/>
						<stop  offset="0.8768" style="stop-color:#E69E5A"/>
					</linearGradient>
					<path class="st31" d="M14.2,15.6L14.2,15.6c0,2.2,2.4,3.6,4.3,2.5l1.8-1.1c2.1-1.2,3.4-3.5,3.4-5.9l0,0c0-2.2-2.4-3.6-4.3-2.5
						l-1.8,1.1C15.5,10.9,14.2,13.1,14.2,15.6z"/>
					
						<linearGradient id="SVGID_3_" gradientUnits="userSpaceOnUse" x1="-335.1663" y1="16.9309" x2="-328.8279" y2="4.7067" gradientTransform="matrix(-1 0 0 1 -314.2759 0)">
						<stop  offset="7.389160e-02" style="stop-color:#954B44"/>
						<stop  offset="0.5123" style="stop-color:#AE4F45"/>
						<stop  offset="0.8768" style="stop-color:#E39673"/>
					</linearGradient>
					<path class="st32" d="M23.3,9.4c-0.4,2-1.5,3.7-3.3,4.7l-1.8,1.1c-1.4,0.8-3,0.3-3.8-0.8c-0.1,0.4-0.1,0.8-0.1,1.2
						c0,2.2,2.4,3.6,4.3,2.5l1.8-1.1c2.1-1.2,3.4-3.5,3.4-5.9C23.8,10.4,23.6,9.9,23.3,9.4z"/>
				</g>
			</g>
			<g>
				<path class="st33" d="M16.9,12.2l2.6-1.5c0.1,0,0.1-0.1,0.2-0.1c0.1,0,0.2-0.1,0.3-0.1c0.1,0,0.3,0,0.4,0.1l0.5,0.3
					c0.2,0.1,0.4,0.3,0.5,0.5c0.2,0.2,0.3,0.5,0.4,0.8c0,0.1,0.1,0.3,0.1,0.5c0,0.1,0,0.1,0,0.2c0,0.1-0.1,0.2-0.1,0.2
					c-0.1,0.1-0.2,0.2-0.3,0.3l0,0l-3.3,1.9L17.9,15l-0.3-0.5l-0.5-0.7l-0.4-0.6l-0.2-0.3l-0.2-0.4l0.3-0.2L16.9,12.2z"/>
				<g>
					<path class="st34" d="M19.5,10.7c0.1,0,0.1-0.1,0.2-0.1c0.1,0,0.2-0.1,0.3-0.1c0.1,0,0.3,0,0.4,0.1l0.5,0.3
						c0.2,0.1,0.4,0.3,0.5,0.5c0.2,0.2,0.3,0.5,0.4,0.8c0,0.1,0.1,0.3,0.1,0.5c0,0.1,0,0.1,0,0.2L17.9,15l-0.3-0.5l-0.5-0.7
						l-0.4-0.6l0.2-1L19.5,10.7z"/>
					
						<linearGradient id="SVGID_4_" gradientUnits="userSpaceOnUse" x1="1485.5326" y1="14.1878" x2="1483.979" y2="11.3208" gradientTransform="matrix(1 0 0 1 -1465.4738 0)">
						<stop  offset="7.389160e-02" style="stop-color:#553537"/>
						<stop  offset="0.5123" style="stop-color:#A24E46"/>
						<stop  offset="0.8768" style="stop-color:#DB7470"/>
					</linearGradient>
					<path class="st35" d="M21.4,11.4c-0.1-0.2-0.3-0.3-0.5-0.5l-0.5-0.3c-0.1,0-0.2-0.1-0.2-0.1c0,0,0,0,0,0c0,0-0.1,0-0.1,0
						c-0.1,0-0.2,0-0.3,0.1c-0.1,0-0.1,0.1-0.2,0.1l-2.6,1.5l-0.3,0.2l-0.3,0.2l0.2,0.4l0.2,0.3l0.4,0.6l0.5,0.7l4.2-2.3
						C21.7,11.9,21.6,11.6,21.4,11.4z"/>
					
						<linearGradient id="SVGID_5_" gradientUnits="userSpaceOnUse" x1="1482.4043" y1="14.2545" x2="1483.407" y2="12.362" gradientTransform="matrix(1 0 0 1 -1465.4738 0)">
						<stop  offset="7.389160e-02" style="stop-color:#553537"/>
						<stop  offset="0.5123" style="stop-color:#A24E46"/>
						<stop  offset="0.8768" style="stop-color:#DB7470"/>
					</linearGradient>
					<path class="st36" d="M17.5,12.9L17,12.6c-0.5-0.3-1.2,0.1-1.2,0.7l0,0c0,0.7,0.4,1.3,1,1.7l0.5,0.3c0.5,0.3,1.2-0.1,1.2-0.7
						l0,0C18.5,13.9,18.1,13.2,17.5,12.9z"/>
					
						<linearGradient id="SVGID_6_" gradientUnits="userSpaceOnUse" x1="1482.0587" y1="14.9298" x2="1483.8383" y2="11.4978" gradientTransform="matrix(1 0 0 1 -1465.4738 0)">
						<stop  offset="7.389160e-02" style="stop-color:#3D292B"/>
						<stop  offset="0.5123" style="stop-color:#663B3D"/>
						<stop  offset="0.8768" style="stop-color:#DB7470"/>
					</linearGradient>
					<path class="st37" d="M15.9,12.8c0.1,0.6,0.4,1,0.9,1.3l0.5,0.3c0.4,0.2,0.8,0.1,1.1-0.2c0,0.1,0,0.2,0,0.3
						c0,0.6-0.7,1-1.2,0.7L16.7,15c-0.6-0.3-1-1-1-1.7C15.8,13.1,15.8,13,15.9,12.8z"/>
				</g>
			</g>
			<path class="st38" d="M15.7,15.4C15.7,15.4,15.7,15.4,15.7,15.4C15.7,15.4,15.7,15.4,15.7,15.4z"/>
			<path class="st38" d="M15.8,15.3c0,0,0.1,0,0.1,0C15.9,15.2,15.8,15.2,15.8,15.3z"/>
			<path class="st38" d="M16,15.3C16,15.3,15.9,15.3,16,15.3C15.9,15.3,16,15.3,16,15.3z"/>
			<path class="st39" d="M27.5,14.8v-0.1V14.8C27.5,14.8,27.5,14.8,27.5,14.8z"/>
			<g>
				<polygon class="st40" points="3.2,12.4 1.5,13.4 0.5,13.7 0.5,13.5 2.2,12.7 				"/>
				<polygon class="st1" points="3.2,12.2 1.5,13.2 0.5,13.5 2.2,12.5 				"/>
				<polygon class="st40" points="10.7,16.6 9,17.7 1.5,13.4 3.2,12.4 				"/>
				<polygon class="st40" points="9.9,19.1 9.6,19.1 8.7,17.4 10.4,16.4 				"/>
				<polygon class="st41" points="10.7,16.4 9,17.4 1.5,13.2 3.2,12.2 				"/>
				<polygon class="st1" points="11.7,18.1 9.9,19.1 9,17.4 10.7,16.4 				"/>
			</g>
		</g>
		<g>
			<g>
				<polygon class="st42" points="29.7,15.6 28.8,16.1 28.8,13.6 29.7,13.1 				"/>
				<polygon class="st43" points="29.7,15.5 29.1,15.9 29.1,13.7 29.7,13.4 				"/>
				<polygon class="st44" points="29.7,13.4 29.1,13.7 28.8,13.6 29.7,13.1 				"/>
				<polygon class="st45" points="29.7,15.5 29.7,15.6 28.8,16.1 29.1,15.9 				"/>
				<path class="st46" d="M29.3,16c0.3-0.2,0.5-0.1,0.5,0.2c0,0.3-0.2,0.7-0.5,0.9c-0.3,0.2-0.5,0.1-0.5-0.2S29,16.1,29.3,16z"/>
				<path class="st45" d="M29.5,16.8c-0.1,0.1-0.2,0.2-0.3,0.3c0,0-0.1,0-0.1,0.1c0.1-0.1,0.1-0.2,0.2-0.3
					C29.4,16.8,29.5,16.8,29.5,16.8z"/>
				<path class="st10" d="M29.7,15.9C29.7,16,29.7,16,29.7,15.9c0,0.3-0.2,0.5-0.3,0.5c-0.1,0-0.2-0.1-0.3-0.2
					c0.1-0.1,0.2-0.2,0.2-0.2C29.4,15.9,29.6,15.9,29.7,15.9z"/>
				<path class="st47" d="M29.4,16.2c0.2-0.1,0.3,0,0.3,0.2c0,0.2-0.2,0.5-0.3,0.6C29.2,17,29,17,29,16.8
					C29,16.6,29.2,16.3,29.4,16.2z"/>
				<polygon class="st48" points="29.5,14.8 29.5,15.2 29.3,15.3 29.3,15.3 29.3,14.9 29.3,15 				"/>
				<polygon class="st46" points="29.5,15.1 29.3,15.2 29.3,14.9 29.5,14.7 				"/>
				<polygon class="st10" points="29.5,14.7 29.3,14.9 29.3,14.8 29.5,14.7 				"/>
				<polygon class="st45" points="29.3,15.2 29.3,15.2 29.3,14.8 29.3,14.9 				"/>
				<polygon class="st48" points="29.5,16.4 29.5,16.7 29.3,16.8 29.3,16.8 29.3,16.5 29.3,16.5 				"/>
				<polygon class="st46" points="29.5,16.6 29.3,16.7 29.3,16.4 29.5,16.3 				"/>
				<polygon class="st10" points="29.5,16.3 29.3,16.4 29.3,16.4 29.5,16.3 				"/>
				<polygon class="st45" points="29.3,16.7 29.3,16.7 29.3,16.4 29.3,16.4 				"/>
				<polygon class="st3" points="29.4,17.1 29.4,12.7 29.1,12.5 29.2,12.4 29.5,12.6 29.5,17.1 28.5,18 28.5,17.9 				"/>
				<polygon class="st49" points="21.7,26.2 15.6,22.6 15.6,14.9 21.7,18.5 				"/>
				<polygon class="st50" points="21.7,22.8 22.1,24.2 22.1,26.1 22,26.1 21.7,26.1 21.1,25.8 21.1,22.2 21.4,21.7 				"/>
				<path class="st38" d="M17.6,16.5C17.6,16.5,17.6,16.5,17.6,16.5C17.6,16.5,17.6,16.5,17.6,16.5z"/>
				<path class="st38" d="M17.7,16.4c0,0,0.1,0,0.1,0C17.8,16.3,17.8,16.3,17.7,16.4z"/>
				<path class="st38" d="M17.9,16.4C17.9,16.4,17.8,16.4,17.9,16.4C17.9,16.4,17.9,16.4,17.9,16.4z"/>
				<path class="st51" d="M15.8,15.2l4,2.4l1.1,3.6l0,0.8l-2.8-1.8c-1.5-0.9-2.4-2.6-2.4-4.4v-0.6C15.6,15.2,15.7,15.2,15.8,15.2z"
					/>
				<polygon class="st38" points="19.9,17.5 20.2,17.6 21.6,22.2 21,22 21,21.2 21,21.2 				"/>
				<path class="st52" d="M18.5,21.2v0.2L17.8,21v-0.5l0.4,0.3C18.4,20.9,18.5,21,18.5,21.2z"/>
				<polygon class="st50" points="17.7,22.4 18.9,23.2 20.9,24.2 20.9,22 20.9,22 21,22 20.9,24.3 18.8,23.2 17.6,22.5 17.6,19.9 
					17.7,19.9 				"/>
				<path class="st53" d="M17.6,16.4C17.7,16.4,17.7,16.4,17.6,16.4C17.7,16.4,17.7,16.4,17.6,16.4c0.1-0.1,0.2-0.1,0.2-0.1
					c0,0,0,0,0,0l2,1.2l0,0l1.1,3.6v0l0,0.9l0,0l0,0l0-0.8l-1.1-3.6l-2-1.2c-0.1,0-0.2,0-0.2,0.1v3.4l-0.1,0v-3.4
					C17.6,16.5,17.6,16.5,17.6,16.4C17.6,16.4,17.6,16.4,17.6,16.4z"/>
				<path class="st54" d="M16.6,20.9c1.2,0.7,2.1,2.2,2.2,3.6l-3.4-1.9v-1.9C15.8,20.6,16.2,20.7,16.6,20.9z"/>
				<polygon class="st3" points="27.9,20 27.8,20 26.8,16.9 26.9,16.9 				"/>
				<polygon class="st3" points="25.1,21.8 25,21.8 24,18.7 24.1,18.7 				"/>
				<polygon class="st3" points="30.2,16.5 21.4,21.7 20.2,17.6 29,12.5 				"/>
				<path class="st39" d="M29.5,15.9v-0.1V15.9C29.5,15.9,29.5,15.9,29.5,15.9z"/>
				
					<linearGradient id="SVGID_7_" gradientUnits="userSpaceOnUse" x1="1314.9866" y1="15.5753" x2="1316.4924" y2="12.6347" gradientTransform="matrix(1 0 0 1 -1287.1805 0)">
					<stop  offset="0" style="stop-color:#90C0B4"/>
					<stop  offset="0.9409" style="stop-color:#6E787A"/>
				</linearGradient>
				<path class="st55" d="M26.5,14.7c0.1,0.2,0.2,0.3,0.4,0.4l2,1.2c0-0.1,0.1-0.1,0.2-0.2c0,0,0,0,0,0c0,0,0.1-0.1,0.1-0.1
					c0,0,0.1,0,0.1,0c0,0,0,0,0,0c0,0,0,0,0,0v-0.1l-0.6,0.3v-1.8l-0.7-0.5L26.5,14.7z"/>
				<path class="st56" d="M29.2,14.6l0.3,1.2v0.1c0,0,0,0,0,0l0.1,0.3c0,0.2-0.1,0.3-0.3,0.2L29,16.2c0-0.1,0.1-0.1,0.2-0.2
					c0,0,0,0,0,0c0,0,0.1-0.1,0.1-0.1c0,0,0.1,0,0.1,0c0,0,0,0,0,0c0,0,0,0,0,0v-0.1l-0.6,0.3v-2.5l0.1-0.1L29.2,14.6z"/>
				<polygon class="st57" points="28.9,13.6 28.8,13.6 28.8,14.3 28.1,13.8 28.8,13.3 				"/>
				
					<linearGradient id="SVGID_8_" gradientUnits="userSpaceOnUse" x1="1313.2419" y1="18.6967" x2="1311.9546" y2="16.0559" gradientTransform="matrix(1 0 0 1 -1287.1805 0)">
					<stop  offset="8.374380e-02" style="stop-color:#587B8C"/>
					<stop  offset="0.5247" style="stop-color:#4A606B"/>
					<stop  offset="0.9409" style="stop-color:#3B4A51"/>
				</linearGradient>
				<path class="st58" d="M29.9,15.8l-0.3-0.9l-0.4-0.3l0.4,1.6c0,0.2-0.1,0.3-0.3,0.2l-2.4-1.4c-0.2-0.1-0.3-0.2-0.4-0.4l1.5-0.9
					l1.6,1.2L29,13c0-0.1-0.2-0.2-0.3-0.1l-1.1,0.6l0.2,0.2l-0.2-0.2l-2.3,1.3l0,0l-2.2,1.3v0l-2.3,1.3l0,0
					c-0.3,0.2-0.4,0.5-0.3,0.8l0.7,2.3c0,0,0,0.1,0,0.1c0.2,0.4,0.7,0.6,1.1,0.4l1.8-1l-0.8-0.6l-0.6-0.5l0.8-0.5l0.7,0.4l1.5-0.8
					l0.8,0.6l2.2-1.3l-0.8-0.6l0.1-0.1c0.3-0.2,0.7-0.2,1.1-0.1l0.5,0.2C29.8,16.6,30,16.2,29.9,15.8z"/>
				<g>
					<defs>
						<path id="SVGID_9_" d="M17.3,26.8l-2.4-1.3L14.1,22l1.4-1.2v-0.2c0.3-0.1,0.8,0,1.2,0.3c1.2,0.7,2.1,2.2,2.2,3.6l1.1,0.7
							L17.3,26.8z"/>
					</defs>
					<clipPath id="SVGID_10_">
						<use xlink:href="#SVGID_9_"  style="overflow:visible;"/>
					</clipPath>
					<path class="st59" d="M16.4,20.7c0.4-0.2,0.9-0.2,1.4,0.2c1.1,0.6,2,2.2,2,3.4c0,0.6-0.2,1-0.5,1.2l0,0l0,0c0,0,0,0,0,0
						l-1.4,0.8l-2.9-4.8L16.4,20.7L16.4,20.7z"/>
					<path class="st60" d="M17.8,20.9c1.1,0.6,2,2.2,2,3.4c0,0.2,0,0.4-0.1,0.6l-1.6,0.9c-0.2,0-0.3-0.1-0.5-0.2
						c-0.2-0.1-0.4-0.3-0.6-0.4l-1.5-2.5c-0.1-0.2-0.1-0.5-0.1-0.7l2-1.2C17.6,20.7,17.7,20.8,17.8,20.9z"/>
					<path class="st61" d="M16.4,21.7c1.1,0.6,2,2.2,2,3.4s-0.9,1.8-2,1.1c-1.1-0.6-2-2.2-2-3.4C14.4,21.6,15.3,21.1,16.4,21.7z"/>
					<path class="st62" d="M16.4,21.8c1.1,0.6,1.9,2.1,1.9,3.3s-0.9,1.7-1.9,1.1c-1.1-0.6-1.9-2.1-1.9-3.3
						C14.5,21.6,15.3,21.2,16.4,21.8z"/>
					<path class="st63" d="M16.4,22.3c0.8,0.5,1.5,1.6,1.5,2.6c0,0.9-0.7,1.3-1.5,0.8c-0.8-0.5-1.5-1.6-1.5-2.6
						C14.9,22.2,15.6,21.8,16.4,22.3z"/>
					<path class="st64" d="M16.4,22.4c0.8,0.4,1.4,1.5,1.4,2.4c0,0.9-0.6,1.2-1.4,0.8C15.6,25.1,15,24,15,23.2
						C15,22.3,15.6,21.9,16.4,22.4z"/>
					<path class="st65" d="M17.8,24.8c0,0.1,0,0.2,0,0.3l-1,0.6c-0.1,0-0.2-0.1-0.3-0.1c-0.8-0.4-1.4-1.5-1.4-2.3l1.4-0.8
						C17.2,22.8,17.8,23.9,17.8,24.8z"/>
					<path class="st66" d="M17.7,24.3l-1.7,1c-0.3-0.3-0.6-0.7-0.8-1.1l1.9-1.1C17.4,23.5,17.6,23.9,17.7,24.3z"/>
					<path class="st66" d="M17.7,24.3l-1.7,1c-0.3-0.3-0.6-0.7-0.8-1.1l1.9-1.1C17.4,23.5,17.6,23.9,17.7,24.3z"/>
					<path class="st67" d="M16.6,22.5c0.6,0.4,1.1,1.2,1.1,1.9c0,0.7-0.5,1-1.1,0.6c-0.6-0.4-1.1-1.2-1.1-1.9
						C15.4,22.5,15.9,22.2,16.6,22.5z"/>
					<path class="st68" d="M16.6,22.7c0.5,0.3,0.9,1,0.9,1.6s-0.4,0.8-0.9,0.5c-0.5-0.3-0.9-1-0.9-1.6
						C15.6,22.6,16.1,22.4,16.6,22.7z"/>
					<g class="st69">
						<path class="st13" d="M17.1,23.1c0.1,0.1,0.1,0.1,0.2,0.2c0,0-0.1,0-0.1,0C17.1,23.2,17,23.2,17.1,23.1
							C17.1,23.1,17.1,23.1,17.1,23.1z"/>
						<path class="st13" d="M15.9,23.6c0.1,0.1,0.1,0.2,0,0.2c-0.1,0-0.2-0.1-0.3-0.1c-0.1-0.1-0.1-0.2,0-0.2
							C15.8,23.5,15.9,23.6,15.9,23.6z"/>
						<path class="st13" d="M17.4,24.2c0.1,0.1,0.2,0.2,0.2,0.3c0,0.1,0,0.1-0.1,0.1c-0.1-0.1-0.2-0.2-0.2-0.3
							C17.3,24.2,17.3,24.2,17.4,24.2z"/>
						<path class="st13" d="M16.2,22.6c0.1,0.1,0.1,0.2,0,0.3c0,0.1-0.1,0.1-0.1,0c-0.1-0.1-0.1-0.2,0-0.3
							C16.1,22.5,16.2,22.5,16.2,22.6z"/>
						<path class="st13" d="M17.4,23.4c0,0.1,0.1,0.2,0.1,0.3c-0.1,0-0.1,0-0.2-0.1C17.3,23.6,17.2,23.5,17.4,23.4
							C17.3,23.4,17.4,23.4,17.4,23.4z"/>
						<path class="st13" d="M17.3,24.5c0.1,0.1,0.1,0.2,0.1,0.3c0,0.1-0.1,0.1-0.1,0c-0.1-0.1-0.1-0.2-0.1-0.3
							C17.1,24.4,17.2,24.4,17.3,24.5z"/>
						<path class="st13" d="M17.6,23.9c0,0.1,0,0.2,0.1,0.3c0,0,0,0,0,0c-0.1,0-0.2-0.1-0.2-0.2c-0.1-0.1,0-0.2,0.1-0.1
							C17.5,23.8,17.5,23.9,17.6,23.9z"/>
						<path class="st13" d="M16.1,24c0.1,0.1,0.1,0.1,0,0.2c-0.1,0-0.2,0-0.3,0c-0.1-0.1-0.1-0.1,0-0.2C15.9,23.9,16,23.9,16.1,24z"
							/>
						<path class="st13" d="M16.6,24.5c0.1,0,0.1,0,0.1,0.1c0,0.1-0.1,0.2-0.1,0.2c-0.1,0-0.1,0-0.1-0.1
							C16.4,24.7,16.5,24.6,16.6,24.5z"/>
						<path class="st13" d="M17,24.7c0,0.1,0,0.2,0,0.3c0,0.1-0.1,0-0.2-0.1c0-0.1,0-0.2,0-0.3C16.9,24.5,17,24.6,17,24.7z"/>
						<path class="st13" d="M16.3,24.3c0.1,0,0.1,0.1,0.1,0.2c0,0.1-0.1,0.1-0.2,0.1c-0.1,0-0.1-0.1-0.1-0.2
							C16.1,24.4,16.2,24.3,16.3,24.3z"/>
						<path class="st13" d="M15.9,22.8c0.1,0.1,0.1,0.2,0.1,0.3c0,0.1-0.1,0.1-0.1,0.1s-0.1-0.2-0.1-0.3
							C15.8,22.7,15.8,22.7,15.9,22.8z"/>
						<path class="st13" d="M17,22.9c0,0.1-0.1,0.1-0.1,0.1c-0.1,0-0.1-0.1-0.1-0.1c0,0,0-0.1,0.1-0.1C16.9,22.8,17,22.8,17,22.9z"
							/>
						<path class="st13" d="M15.9,23.3c0,0.1,0,0.2-0.1,0.1c-0.1,0-0.2-0.1-0.2-0.2c0-0.1,0-0.2,0.1-0.1
							C15.8,23.1,15.9,23.2,15.9,23.3z"/>
						<path class="st13" d="M16.5,22.5C16.5,22.5,16.5,22.5,16.5,22.5c0.1,0,0.1,0.1,0.1,0.1c0,0,0,0,0,0c0,0.1,0,0.2-0.1,0.3
							c-0.1,0-0.1,0-0.1-0.1C16.4,22.7,16.4,22.6,16.5,22.5C16.5,22.5,16.5,22.5,16.5,22.5z"/>
					</g>
					<path class="st70" d="M16.7,23.1c0.3,0.2,0.6,0.6,0.6,1c0,0.4-0.3,0.5-0.6,0.3c-0.3-0.2-0.6-0.6-0.6-1
						C16.1,23,16.3,22.9,16.7,23.1z"/>
					<path class="st65" d="M16.7,23.1c0.3,0.2,0.6,0.6,0.6,1c0,0.1,0,0.2-0.1,0.2l-0.5-0.1c-0.2-0.2-0.2-0.4-0.4-0.6l0.2-0.6
						C16.6,23,16.6,23,16.7,23.1z"/>
					<path class="st71" d="M17.2,23.8c-0.3,0-0.5,0.1-0.7,0.1c0-0.1-0.1-0.2-0.1-0.2c0.2-0.1,0.4-0.2,0.6-0.4
						C17.1,23.5,17.2,23.7,17.2,23.8z"/>
					<path class="st65" d="M16.5,23.4c0.2,0.1,0.4,0.5,0.4,0.7c0,0.3-0.2,0.4-0.4,0.2c-0.2-0.1-0.4-0.5-0.4-0.7
						C16.1,23.4,16.3,23.3,16.5,23.4z"/>
					<path class="st72" d="M16.4,23.7c0.1,0.1,0.2,0.2,0.2,0.4s-0.1,0.2-0.2,0.1c-0.1-0.1-0.2-0.2-0.2-0.4S16.3,23.6,16.4,23.7z"/>
					<path class="st59" d="M16,21c0.4-0.2,0.9-0.2,1.4,0.2c1.1,0.6,2,2.2,2,3.4c0,0.6-0.2,1-0.5,1.2l0,0l0,0c0,0,0,0,0,0l-1,0.6l0,0
						l0.9-0.5c0,0,0,0,0,0l0,0l0,0c0.3-0.2,0.5-0.6,0.5-1.2c0-1.3-0.9-2.8-2-3.4C16.7,20.9,16.2,20.8,16,21L15.9,21L16,21L16,21z"/>
					<path class="st59" d="M15.5,21.2c0.4-0.2,0.9-0.2,1.4,0.2c1.1,0.6,2,2.2,2,3.4c0,0.6-0.2,1-0.5,1.2l0,0l0,0c0,0,0,0,0,0
						l-0.5,0.3l0,0l0.4-0.2c0,0,0,0,0,0l0,0l0,0c0.3-0.2,0.5-0.6,0.5-1.2c0-1.3-0.9-2.8-2-3.4C16.3,21.1,15.8,21.1,15.5,21.2
						l-0.1,0.1L15.5,21.2L15.5,21.2z"/>
				</g>
				<polygon class="st73" points="22.1,24.6 22.7,25.5 22.6,26.7 21.4,26.7 18.9,25.3 18.6,23.1 21.3,24.5 				"/>
				<polygon class="st38" points="22.2,24.8 22.8,25.7 22.7,26.8 21.6,26.9 19.1,25.5 18.6,23.2 21.4,24.7 				"/>
				<polygon class="st74" points="20.9,26.4 19.1,25.3 19.1,24.7 20.9,25.7 				"/>
				<path class="st54" d="M20.9,26.4l-0.5-0.6c-0.2-0.3-0.6-0.5-1-0.4l-0.3,0v-0.7l1.8,1.1V26.4z"/>
				<polygon class="st74" points="20.9,25.5 19.1,24.4 19.1,23.7 20.9,24.8 				"/>
				<path class="st54" d="M20.9,25.5l-0.5-0.6c-0.2-0.3-0.6-0.5-1-0.4l-0.3,0v-0.7l1.8,1.1V25.5z"/>
				<polygon class="st75" points="28.9,18.7 30.5,17.8 29,18.9 29,22 24.2,24.8 24.2,21.7 21.7,22.8 24.2,21.4 				"/>
				<polygon class="st76" points="23.5,20.9 28.5,18.2 30,17.2 30,18.2 29,22.3 28.3,22.7 28.2,22.7 28,22.9 26.9,23.5 26.8,23.6 
					26.6,23.7 25.5,24.3 25.3,24.4 25.2,24.5 24.2,25.1 21.8,22 22.3,21.7 				"/>
				<path class="st77" d="M23.6,22.4c0.3,0.2,0.6,0.6,0.6,0.9l0.1,1.1c-0.1,0-0.1,0-0.1-0.1c0,0-0.1-0.1-0.1-0.2v-0.5L22.4,22
					l-0.1-0.1C22.7,21.8,23.3,22,23.6,22.4C23.6,22.4,23.6,22.4,23.6,22.4z"/>
				<path class="st77" d="M29.8,17.5L29,20.8l-0.1-1.3C28.9,18.8,29.2,18,29.8,17.5C29.8,17.6,29.8,17.5,29.8,17.5z"/>
				<path class="st78" d="M29.8,17.5c0,0,0.1-0.1,0.1-0.1l0.4-0.3h0.2l0.1,3.9L29,22L29,20.8v0l-0.1-1.3
					C28.9,18.8,29.2,18,29.8,17.5C29.8,17.6,29.8,17.5,29.8,17.5z"/>
				<path class="st79" d="M30.1,17.5l0.4-0.3l0.1,2.3v1.7L29.2,22L29,19.5C29,18.7,29.4,17.9,30.1,17.5z"/>
				<path class="st80" d="M30.6,18.3l0.1,1.2v1.7l-1,0.6l-0.1-1.4C29.6,19.5,29.9,18.8,30.6,18.3z"/>
				<path class="st78" d="M22.1,21.9c0.1,0,0.1,0,0.2-0.1c0.4-0.1,0.9,0.2,1.3,0.5c0,0,0,0,0,0c0.3,0.2,0.4,0.5,0.4,0.8l0,0.5v0
					l0.1,0.7l0,0.4L22.1,26l0-1.1l0-0.6l-0.5-2.1L22.1,21.9z"/>
				<path class="st79" d="M22.2,22c0.1,0,0.1,0,0.2-0.1c0.4-0.1,0.8,0.1,1.2,0.4c0,0,0,0,0,0c0.3,0.2,0.6,0.6,0.6,0.9l0.1,1.1l0,0.4
					L22,26l0-1.2l0-0.6l-0.5-1.9L22.2,22z"/>
				<path class="st80" d="M22.1,23.1c0.7-0.3,2,0.5,2,1.2l0.1,0.8l-2.1,1l0.1-1.8l-0.3-1.1L22.1,23.1z"/>
				<path class="st73" d="M30.6,19.7l0.1,0.1l-0.1,1.3c0,0.6-0.2,1.1-0.6,1.3l-7.2,4.1c-0.3,0.2-0.8-0.1-0.8-0.4l0-1.5L30.6,19.7z"
					/>
				<path class="st77" d="M29.8,17.6c-0.3,0.2-0.5,0.6-0.7,0.9l0,0c-0.2,0.3-0.2,0.7-0.2,1.1l0,0.3l0,1v0l0,0.6
					c0,0.2-0.1,0.4-0.3,0.6l-1,0.8c-0.6,0.5-1.2,0.9-1.9,1.1l-1.2,0.5c-0.1,0-0.1,0-0.1,0l-0.2-0.8c0-0.2-0.1-0.6-0.2-1l0,0
					c-0.1-0.1-0.1-0.2-0.2-0.3c0,0,0,0,0,0c-0.2-0.2-0.4-0.3-0.7-0.4l0,0c-0.2-0.1-0.4-0.1-0.6-0.1l0,0l4.1-1.8L29.8,17.6z"/>
				<path class="st52" d="M23.8,22.2l0.2,0.5l0,0l0,0c-0.1-0.1-0.1-0.2-0.2-0.3c0,0,0,0,0,0c-0.2-0.2-0.4-0.3-0.7-0.4l0,0l0,0
					l0.4-0.1C23.5,21.9,23.7,22,23.8,22.2z"/>
				<path class="st52" d="M29.1,18.4c-0.2,0.3-0.2,0.7-0.2,1.1l0,0.3l-0.2-0.6c0-0.2,0-0.3,0.1-0.4L29.1,18.4z"/>
				<polygon class="st76" points="30.4,17.1 28.9,18.2 26.3,20.1 24.1,21.1 21.6,22.2 21.4,21.7 30.2,16.5 				"/>
				<path class="st81" d="M21.2,19.7l1.5-0.9l0.8-0.5l0.7,0.4l1.5-0.8l2.2-1.3l0.1-0.1c0.3-0.2,0.7-0.2,1.1-0.1l0.5,0.2l-0.9,0.5
					l-2.2,1.3l-2.3,1.3l-1.8,1c-0.4,0.2-0.9,0.1-1.1-0.4l0,0L21.2,19.7z"/>
				<path class="st49" d="M20.2,17c0,0.1-0.1,0.2-0.1,0.4c0,0.1,0,0.1,0,0.2l-4.6-2.7l0.3-0.4L20.2,17z"/>
				<path class="st82" d="M24.5,9.8l4.6,2.4c0,0,0,0,0,0c0.1,0,0.3,0.4,0.3,0.4c0.1,0.1,0,0.3-0.1,0.4l-7.9,4.6c0,0-0.1,0-0.1,0
					c-0.1,0-0.1,0.1-0.2,0.1c-0.1,0-0.1,0-0.2,0c-0.2,0-0.3,0-0.5-0.1l-0.1-0.1c0-0.1,0-0.1,0-0.2c0-0.1,0-0.3,0.1-0.4l-4.4-2.5
					L24.5,9.8z"/>
				<path class="st83" d="M20.7,16.6c0.3,0,0.5,0.2,0.5,0.6c0,0.1,0,0.1,0,0.2c0,0.1,0,0.2,0,0.3c-0.1,0-0.1,0.1-0.2,0.1
					c-0.1,0-0.1,0-0.2,0c-0.2,0-0.3,0-0.5-0.1l-0.1-0.1c0-0.1,0-0.1,0-0.2c0-0.1,0-0.3,0.1-0.4C20.3,16.8,20.5,16.6,20.7,16.6z"/>
				<path class="st84" d="M29,12.2C29,12.2,29,12.2,29,12.2C29,12.3,29,12.3,29,12.2c0.2,0.2,0.2,0.4,0,0.5l-7.6,4.4
					c0,0-0.1,0-0.1,0.1c-0.3,0.1-0.6,0.1-0.9-0.1L20.2,17l-4.4-2.5l8.5-4.9L29,12.2z"/>
				<path class="st83" d="M24.6,12.7c0.2,0.1,0.3,0.3,0.3,0.4c-0.1,0.1-0.3,0.1-0.5,0c-0.2-0.1-0.3-0.3-0.3-0.4
					C24.2,12.6,24.4,12.6,24.6,12.7z"/>
				<path class="st83" d="M23.2,13.5c0.2,0.1,0.3,0.3,0.3,0.4c-0.1,0.1-0.3,0.1-0.5,0c-0.2-0.1-0.3-0.3-0.3-0.4
					C22.8,13.4,23,13.4,23.2,13.5z"/>
				<path class="st83" d="M21.8,14.3c0.2,0.1,0.3,0.3,0.3,0.4c-0.1,0.1-0.3,0.1-0.5,0c-0.2-0.1-0.3-0.3-0.3-0.4
					C21.4,14.2,21.6,14.2,21.8,14.3z"/>
				
					<linearGradient id="SVGID_11_" gradientUnits="userSpaceOnUse" x1="1305.8955" y1="20.516" x2="1306.933" y2="17.4036" gradientTransform="matrix(1 0 0 1 -1287.1805 0)">
					<stop  offset="8.374380e-02" style="stop-color:#425F73"/>
					<stop  offset="0.6181" style="stop-color:#313F4A"/>
					<stop  offset="0.9409" style="stop-color:#262E36"/>
				</linearGradient>
				<path class="st85" d="M20.6,21L19.7,18c0-0.1-0.1-0.2-0.2-0.3c0,0-0.1-0.1-0.1-0.1l-1.2-0.7c0,0,0,0-0.1,0c-0.1,0-0.3,0-0.3,0.2
					c0,0,0,0,0,0.1v2.1c0,0.1,0,0.2,0,0.2c0.1,0.3,0.2,0.6,0.5,0.7l2,1.1C20.4,21.4,20.6,21.2,20.6,21z"/>
				
					<linearGradient id="SVGID_12_" gradientUnits="userSpaceOnUse" x1="1306.5419" y1="22.9966" x2="1307.0391" y2="21.4766" gradientTransform="matrix(1 0 0 1 -1287.1805 0)">
					<stop  offset="8.374380e-02" style="stop-color:#425F73"/>
					<stop  offset="0.9409" style="stop-color:#384B60"/>
				</linearGradient>
				<path class="st86" d="M19,21.2l1.2,0.7c0.2,0.1,0.2,0.3,0.2,0.4v0.8c0,0.1-0.2,0.2-0.3,0.2L19,22.6c-0.1-0.1-0.2-0.2-0.2-0.4
					v-0.9C18.8,21.2,18.9,21.1,19,21.2z"/>
				<path class="st41" d="M16.7,20.7c1.3,0.7,2.3,2.5,2.4,3.9v0.5l-0.3,0.2v-0.5c-0.1-1.5-1.1-3.2-2.4-3.9c-0.5-0.3-0.9-0.4-1.3-0.3
					l0.3-0.2C15.7,20.3,16.2,20.4,16.7,20.7z"/>
				<path class="st3" d="M16.4,20.9c1.3,0.7,2.3,2.5,2.4,3.9v0.5l-0.2-0.1l0-0.5c0-0.1,0-0.1,0-0.2c-0.2-1.4-1.1-2.8-2.3-3.5
					c-0.3-0.2-0.7-0.3-1-0.3c0,0-0.1,0-0.1,0c-0.1,0-0.1,0-0.2,0v-0.2C15.4,20.5,15.9,20.6,16.4,20.9z"/>
				<path class="st87" d="M24.8,12.7c0.2,0.1,0.3,0.3,0.3,0.4c-0.1,0.1-0.3,0.1-0.5,0c-0.2-0.1-0.3-0.3-0.3-0.4
					C24.4,12.6,24.6,12.6,24.8,12.7z"/>
				<path class="st87" d="M23.4,13.5c0.2,0.1,0.3,0.3,0.3,0.4c-0.1,0.1-0.3,0.1-0.5,0c-0.2-0.1-0.3-0.3-0.3-0.4
					C23,13.4,23.2,13.4,23.4,13.5z"/>
				<path class="st87" d="M22,14.3c0.2,0.1,0.3,0.3,0.3,0.4c-0.1,0.1-0.3,0.1-0.5,0c-0.2-0.1-0.3-0.3-0.3-0.4
					C21.6,14.2,21.8,14.2,22,14.3z"/>
				<path class="st88" d="M22,14.3c0.1,0.1,0.2,0.1,0.1,0.2c0,0.1-0.1,0-0.2,0c-0.1-0.1-0.2-0.1-0.1-0.2
					C21.7,14.2,21.9,14.2,22,14.3z"/>
				<path class="st88" d="M23.4,13.5c0.1,0.1,0.2,0.1,0.1,0.2c0,0.1-0.1,0.1-0.2,0c-0.1-0.1-0.2-0.1-0.1-0.2
					C23.1,13.4,23.3,13.4,23.4,13.5z"/>
				<path class="st88" d="M24.8,12.7c0.1,0.1,0.2,0.1,0.1,0.2c0,0.1-0.1,0.1-0.2,0c-0.1-0.1-0.2-0.1-0.1-0.2
					C24.5,12.6,24.7,12.6,24.8,12.7z"/>
				<polygon class="st89" points="19.9,21.3 19,21.8 19,19.3 19.9,18.7 				"/>
				<polygon class="st90" points="19.9,21.2 19.3,21.5 19.3,19.4 19.9,19 				"/>
				<polygon class="st74" points="19.9,19 19.3,19.4 19,19.3 19.9,18.7 				"/>
				<polygon class="st3" points="19.9,21.2 19.9,21.3 19,21.8 19.3,21.5 				"/>
				<path class="st89" d="M19.5,21.6c0.3-0.2,0.5-0.1,0.5,0.2c0,0.3-0.2,0.7-0.5,0.9c-0.3,0.2-0.5,0.1-0.5-0.2
					C18.9,22.2,19.2,21.8,19.5,21.6z"/>
				<path class="st3" d="M19.7,22.5c-0.1,0.1-0.2,0.2-0.3,0.3c0,0-0.1,0-0.1,0.1c0.1-0.1,0.1-0.2,0.2-0.3
					C19.6,22.5,19.7,22.5,19.7,22.5z"/>
				<path class="st74" d="M19.9,21.6C19.9,21.6,19.9,21.6,19.9,21.6c0,0.3-0.2,0.5-0.3,0.5c-0.1,0-0.2-0.1-0.3-0.2
					c0.1-0.1,0.2-0.2,0.2-0.2C19.6,21.5,19.8,21.5,19.9,21.6z"/>
				<path class="st90" d="M19.6,21.8c0.2-0.1,0.3,0,0.3,0.2s-0.2,0.5-0.3,0.6s-0.3,0-0.3-0.2C19.2,22.2,19.4,22,19.6,21.8z"/>
				<polygon class="st91" points="19.7,20.5 19.7,20.9 19.5,21 19.5,21 19.5,20.6 19.5,20.6 				"/>
				<polygon class="st89" points="19.7,20.8 19.5,20.9 19.5,20.5 19.7,20.4 				"/>
				<polygon class="st74" points="19.7,20.4 19.5,20.5 19.5,20.5 19.7,20.4 				"/>
				<polygon class="st3" points="19.5,20.9 19.5,20.9 19.5,20.5 19.5,20.5 				"/>
				<polygon class="st91" points="19.7,22.1 19.7,22.3 19.5,22.5 19.5,22.4 19.5,22.2 19.5,22.2 				"/>
				<polygon class="st89" points="19.7,22.2 19.5,22.4 19.5,22.1 19.7,22 				"/>
				<polygon class="st74" points="19.7,22 19.5,22.1 19.5,22.1 19.7,21.9 				"/>
				<polygon class="st3" points="19.5,22.4 19.5,22.3 19.5,22.1 19.5,22.1 				"/>
				<polygon class="st3" points="19.9,18.1 19.7,18.3 19.7,22.7 20.5,23.5 20.5,23.7 19.6,22.8 19.6,18.3 19.9,18 				"/>
				<path class="st38" d="M30.7,19.9v1.5c0,0.5-0.2,1-0.7,1.2l-7.2,4.1c-0.3,0.2-1.1-0.1-1.1-0.5l0.2-1.5L30.7,19.9z"/>
				<path class="st77" d="M28.9,21.4c0,0.2-0.1,0.4-0.3,0.6l-1,0.8c-0.6,0.5-1.2,0.9-1.9,1.1l-1.2,0.5c-0.2,0.1-0.4-0.1-0.4-0.2
					v-0.5l4.8-2.8L28.9,21.4z"/>
				<g>
					<path class="st22" d="M23.4,25.2v-0.5l0.2-0.1c0.1,0,0.2,0,0.2,0.1v0.5c0,0.1-0.1,0.2-0.1,0.2l-1,0.6c-0.1,0-0.6,0.1-0.6,0
						v-0.2l1.2-0.4C23.3,25.4,23.4,25.3,23.4,25.2z"/>
					<path class="st22" d="M30.3,21.2v-0.5l0.2-0.1c0.1,0,0.2,0,0.2,0.1v0.5c0,0.1-0.1,0.2-0.2,0.2l-1,0.6c-0.1,0-0.2,0-0.2-0.1
						v-0.1l0.8-0.5C30.2,21.4,30.3,21.3,30.3,21.2z"/>
					<path class="st92" d="M23.2,24.8l0.1-0.1v0.5c0,0.1-0.1,0.2-0.1,0.2l-0.8,0.5v-0.5c0-0.1,0.1-0.2,0.1-0.2L23.2,24.8z"/>
					<path class="st93" d="M23.2,24.8v0.1c0,0.1-0.1,0.2-0.1,0.2l-0.7,0.4v-0.1c0-0.1,0.1-0.2,0.1-0.2L23.2,24.8z"/>
					<path class="st92" d="M30.1,20.8l0.1-0.1v0.5c0,0.1-0.1,0.2-0.1,0.2l-0.8,0.5v-0.5c0-0.1,0.1-0.2,0.1-0.2L30.1,20.8z"/>
					<path class="st93" d="M30.3,20.7v0.2c0,0.1-0.1,0.2-0.1,0.2l-0.8,0.5v-0.2c0-0.1,0.1-0.2,0.1-0.2L30.3,20.7z"/>
				</g>
				<polygon class="st94" points="22.6,25.6 22.7,25.7 22.4,25.9 22,25.9 22,25.2 22.5,25.2 				"/>
				<path class="st2" d="M28.7,21.5v0.1c0,0.2-0.1,0.1-0.3,0.3c-0.5,0.3-0.8,0.5-1.3,0.8c-0.5,0.3-1.7,1-2.4,1.3
					c-0.1,0-0.4,0.2-0.4,0.1v0l0-0.1l4.2-2.4L28.7,21.5z"/>
				<path class="st2" d="M28.7,20.8V21c0,0.2-0.1,0.1-0.3,0.3c-0.5,0.3-0.8,0.5-1.3,0.8c-0.5,0.3-1.7,1-2.4,1.3
					c-0.1,0-0.4,0.2-0.4,0.1l0,0l0-0.1l4.2-2.4L28.7,20.8z"/>
				<path class="st2" d="M28.7,20.2v0.1c0,0.2-0.1,0.1-0.3,0.3c-0.5,0.3-0.8,0.5-1.3,0.8c-0.5,0.3-1.7,1-2.4,1.3
					c-0.1,0-0.4,0.2-0.4,0.1v0l0-0.1l4.2-2.4L28.7,20.2z"/>
				<path class="st2" d="M28.7,19.6v0.1c0,0.2-0.1,0.1-0.3,0.3c-0.5,0.3-0.8,0.5-1.3,0.8c-0.5,0.3-1.7,1-2.4,1.3
					c-0.1,0-0.4,0.2-0.4,0.1l0,0l0-0.1l4.2-2.4L28.7,19.6z"/>
				<path class="st52" d="M28.6,21.5c0,0.2-0.1,0.1-0.3,0.3c-0.5,0.3-0.8,0.5-1.3,0.8c-0.5,0.3-1.7,1-2.4,1.3c0,0-0.2,0.1-0.3,0.1
					l0-0.1L28.6,21.5L28.6,21.5z"/>
				<path class="st52" d="M28.6,20.9c0,0.2-0.1,0.1-0.3,0.3c-0.5,0.3-0.8,0.5-1.3,0.8c-0.5,0.3-1.7,1-2.4,1.3c0,0-0.2,0.1-0.3,0.1
					l0-0.1L28.6,20.9L28.6,20.9z"/>
				<path class="st52" d="M28.6,20.3c0,0.2-0.1,0.1-0.3,0.3c-0.5,0.3-0.8,0.5-1.3,0.8c-0.5,0.3-1.7,1-2.4,1.3c0,0-0.2,0.1-0.3,0.1
					l0-0.1L28.6,20.3L28.6,20.3z"/>
				<path class="st52" d="M28.6,19.7c0,0.2-0.1,0.1-0.3,0.3c-0.5,0.3-0.8,0.5-1.3,0.8c-0.5,0.3-1.7,1-2.4,1.3c0,0-0.2,0.1-0.3,0.1
					l0-0.1L28.6,19.7L28.6,19.7z"/>
				<polygon class="st94" points="30.3,20.7 30.6,20.4 30.6,21 30.5,21.2 30.2,21.4 30.3,21.2 				"/>
				<g>
					<path class="st49" d="M23.9,15.8v-0.2l0.1,0c0,0,0.1,0,0.1,0v0.2c0,0,0,0.1-0.1,0.1l-0.7,0.4c0,0-0.1,0-0.1,0v0l0.6-0.4
						C23.9,15.9,23.9,15.9,23.9,15.8z"/>
					<path class="st95" d="M23.9,15.6v0.2c0,0,0,0.1-0.1,0.1l-0.6,0.4v-0.2c0,0,0-0.1,0.1-0.1L23.9,15.6z"/>
				</g>
				<g>
					<path class="st49" d="M27.1,14v-0.2l0.1,0c0,0,0.1,0,0.1,0V14c0,0,0,0.1-0.1,0.1l-0.7,0.4c0,0-0.1,0-0.1,0v0l0.6-0.4
						C27,14.1,27.1,14,27.1,14z"/>
					<path class="st95" d="M27.1,13.8V14c0,0,0,0.1-0.1,0.1l-0.6,0.4v-0.2c0,0,0-0.1,0.1-0.1L27.1,13.8z"/>
				</g>
				
					<linearGradient id="SVGID_13_" gradientUnits="userSpaceOnUse" x1="1188.1759" y1="20.0655" x2="1190.2745" y2="16.4279" gradientTransform="matrix(1 0 0 1 -1173.075 0)">
					<stop  offset="8.374380e-02" style="stop-color:#425F73"/>
					<stop  offset="0.6181" style="stop-color:#313F4A"/>
					<stop  offset="0.9409" style="stop-color:#262E36"/>
				</linearGradient>
				<path class="st96" d="M15.9,15.9l0.1,0.7c0.1,0.8,0.5,1.8,1,2.3l0.1,0c0.1,0.1,0.3,0.1,0.3-0.1v-2.1c0-0.2-0.1-0.4-0.3-0.5
					l-0.9-0.6C16.1,15.7,15.9,15.8,15.9,15.9z"/>
			</g>
		</g>
	</g>
	<g>
		<path class="st97" d="M13.2,4.9c0,0.4-0.4,0.8-1,0.9c-0.1,0-0.1,0-0.2,0c0,0-0.1,0-0.1,0c0,0,0,0-0.1,0c0,0,0,0-0.1,0
			c-0.1,0-0.1,0-0.2,0c0,0-0.1,0-0.1,0c0,0-0.1,0-0.1,0c0,0-0.1,0-0.1,0c0,0-0.1,0-0.1,0c-0.1,0-0.1,0-0.2,0c0,0,0,0-0.1,0
			c0,0,0,0-0.1,0c0,0-0.1,0-0.1,0c-0.1,0-0.1,0-0.2,0c0,0-0.1,0-0.1,0c-0.1,0-0.1,0-0.2-0.1c0,0,0,0-0.1,0c0,0-0.1,0-0.1-0.1
			c0,0,0,0-0.1,0c-0.1,0-0.1-0.1-0.2-0.1c0,0,0,0,0,0c0,0-0.1-0.1-0.1-0.1c0,0,0-0.1-0.1-0.1c0,0,0,0,0-0.1c0,0,0,0,0-0.1
			c0,0,0,0,0,0c0,0,0,0,0,0c0,0,0,0,0,0c0,0,0-0.1,0-0.2V4.5h3.7V4.9z"/>
		<path class="st98" d="M12.2,5.9c-0.1,0-0.1,0-0.2,0c0,0-0.1,0-0.1,0c0,0,0,0-0.1,0c0,0,0,0-0.1,0c-0.1,0-0.1,0-0.2,0
			c0,0-0.1,0-0.1,0c0,0-0.1,0-0.1,0c0,0-0.1,0-0.1,0c0,0-0.1,0-0.1,0c-0.1,0-0.1,0-0.2,0c0,0,0,0-0.1,0c0,0,0,0-0.1,0
			c0,0-0.1,0-0.1,0c-0.1,0-0.1,0-0.2,0V4.5h1.6V5.9z"/>
		<path class="st99" d="M10.6,5.9c0,0-0.1,0-0.1,0c-0.1,0-0.1,0-0.2-0.1c0,0,0,0-0.1,0c0,0-0.1,0-0.1-0.1c0,0,0,0-0.1,0
			c-0.1,0-0.1-0.1-0.2-0.1c0,0,0,0,0,0c0,0-0.1-0.1-0.1-0.1c0,0,0-0.1-0.1-0.1c0,0,0,0,0-0.1c0,0,0,0,0-0.1c0,0,0,0,0,0c0,0,0,0,0,0
			c0,0,0,0,0,0c0,0,0-0.1,0-0.2V4.5h1V5.9z"/>
		<path class="st100" d="M10.3,3.6c0.1,0,0.1,0,0.2-0.1c0,0,0.1,0,0.1,0c0.2-0.1,0.5-0.1,0.8-0.1c0.3,0,0.6,0,0.8,0.1
			c0.6,0.2,1,0.5,1,0.9c0,0.4-0.4,0.8-1,0.9c-0.2,0.1-0.5,0.1-0.8,0.1c-0.3,0-0.6,0-0.8-0.1c-0.6-0.2-1-0.5-1-0.9
			C9.5,4.1,9.9,3.8,10.3,3.6z"/>
	</g>
	<g>
		<g>
			<polygon class="st101" points="6.8,10.7 6.1,11.2 5.5,9.8 6.1,9.4 			"/>
			<path class="st102" d="M5.4,9.8L5.4,9.8l0.7,1.4l0,0l0.7-0.5l0,0L6.2,9.3l0,0L5.4,9.8z M5.5,9.9l0.6-0.4l0.6,1.3l-0.6,0.4
				L5.5,9.9z"/>
		</g>
		<path class="st103" d="M6.5,10.6c0,0.2-0.2,0.3-0.3,0.2c-0.2-0.1-0.3-0.4-0.3-0.6c0-0.2,0.3-0.6,0.3-0.6S6.5,10.4,6.5,10.6z"/>
		<path class="st104" d="M6.5,10.5c0,0.2-0.1,0.3-0.3,0.2c-0.2-0.1-0.2-0.3-0.2-0.4c0-0.2,0.2-0.5,0.2-0.5S6.5,10.3,6.5,10.5z"/>
		<path class="st77" d="M6.3,10.3c0,0.1,0,0.2,0,0.2c0,0-0.1-0.1-0.2-0.2c0-0.1,0-0.2,0-0.2C6.2,10.1,6.3,10.1,6.3,10.3z"/>
	</g>
	<g>
		<g>
			<path class="st78" d="M9.7,11.8c-0.1,0.1-0.1,0.3-0.1,0.5s0,0.5,0.1,0.7c0.1,0.2,0.2,0.3,0.3,0.4c0.1,0.1,0.2,0.1,0.3,0
				c0.1-0.1,0.1-0.3,0.1-0.5c0-0.3,0-0.5-0.1-0.7c-0.1-0.2-0.2-0.3-0.3-0.4C9.9,11.7,9.7,11.7,9.7,11.8z M9.8,12.4
				c0-0.4,0.1-0.5,0.2-0.4c0.1,0,0.1,0.1,0.2,0.2c0,0.1,0.1,0.3,0.1,0.4c0,0.2,0,0.3-0.1,0.4c0,0.1-0.1,0.1-0.2,0
				C9.9,13,9.8,12.8,9.8,12.4z"/>
			<polygon class="st78" points="8.9,12.7 8.7,12.5 8.7,11 8.9,11.1 			"/>
			<polygon class="st78" points="7.8,10.4 8,10.6 8,12.1 7.5,11.8 7.5,11.5 7.8,11.7 			"/>
		</g>
	</g>
</g>
</svg>
