<?xml version="1.0" encoding="utf-8"?>
<!-- Generator: Adobe Illustrator 23.0.0, SVG Export Plug-In . SVG Version: 6.00 Build 0)  -->
<svg version="1.1" id="Слой_1" xmlns="http://www.w3.org/2000/svg" xmlns:xlink="http://www.w3.org/1999/xlink" x="0px" y="0px"
	 viewBox="0 0 179.5 151.1" style="enable-background:new 0 0 179.5 151.1;" xml:space="preserve">
<style type="text/css">
	.st0{opacity:0.75;fill:url(#SVGID_1_);enable-background:new    ;}
	.st1{fill:#FFFFFF;}
	.st2{font-family:'ArialMT';}
	.st3{font-size:2.8887px;}
	.st4{fill:none;stroke:#81C1B2;stroke-width:0.4045;stroke-miterlimit:10;}
	.st5{fill:none;stroke:#E0AD4A;stroke-width:0.4045;stroke-miterlimit:10;}
	.st6{fill:none;stroke:#AC515D;stroke-width:0.4045;stroke-miterlimit:10;}
	.st7{fill:none;stroke:#FFFFFF;stroke-width:0.6919;stroke-miterlimit:10;}
	.st8{font-size:1.2381px;}
	.st9{fill:none;stroke:#FFFFFF;stroke-width:0.3459;stroke-linecap:round;stroke-miterlimit:10;}
	.st10{font-size:1.6508px;}
	.st11{opacity:0.3;fill:url(#SVGID_2_);enable-background:new    ;}
	.st12{opacity:0.3;fill:url(#SVGID_3_);enable-background:new    ;}
</style>
<g>
	<g>
		<g>
			
				<linearGradient id="SVGID_1_" gradientUnits="userSpaceOnUse" x1="0" y1="-163.22" x2="139.9" y2="-163.22" gradientTransform="matrix(1 0 0 1 0 250.17)">
				<stop  offset="0" style="stop-color:#525393"/>
				<stop  offset="0.2201" style="stop-color:#65589F"/>
				<stop  offset="0.5683" style="stop-color:#75589F"/>
				<stop  offset="1" style="stop-color:#81C1B2"/>
			</linearGradient>
			<polygon class="st0" points="0,22.8 0,70.3 139.9,151.1 139.9,103.5 			"/>
		</g>
		<g>
			<text transform="matrix(0.7137 0.4041 2.633752e-02 0.9997 3.3646 34.224)" class="st1 st2 st3">Network Activities</text>
			<g>
				<g>
					<g>
						<path class="st4" d="M130.9,123.2c-7,1.3-16.2-2-24.8-8.9c-4.3-3.5-8.3-7.7-12.5-11.6s-8.6-7.5-12.9-9c-5.3-2-9.7-0.6-14.9-2
							c-5.8-1.6-11.1-6.3-16.5-11.5c-3.3-3.2-7-4.9-10.4-5.8s-6.5-1.1-9.9-2c-4.3-1.1-9-3.4-13.5-6.5c-3.8-2.6-7.7-6.2-10.3-10.7"/>
					</g>
					<g>
						<path class="st5" d="M131,127.7c-6.7-6.2-12.8-13.9-19.7-19.3c-6.9-5.4-14.6-7.3-20.5-7.2c-2.5,0-4.9,0.2-7.8-1
							c-4.2-1.7-8.3-6.1-12.2-10.2c-5.5-5.8-10.2-9.7-15.7-10.1c-4.6-0.3-8.7,0.6-13.6-0.5c-6.1-1.4-12.9-5.9-19-11.5
							c-6.2-5.6-11.8-12.4-17.3-19.2"/>
					</g>
					<g>
						<path class="st6" d="M131.1,130.9c-3.6-1.8-7.4-4.8-10.5-8.6c-3.2-3.8-5.6-8.2-8.4-12.4s-6.2-8.4-9.8-10.4
							c-4.1-2.3-7.6-1.4-10.3,0.3s-4.9,4.1-8.2,4.7c-2.3,0.4-5.3-0.3-8.1-2.8c-3.1-3-4.8-7.4-6.5-11.3c-1.4-3.3-3-6.6-5.3-9.6
							c-2.2-3-5.1-5.5-7.7-6.3c-4-1.2-6.1,1.8-8.2,4.2c-2.1,2.5-5.2,4.5-9.3,1.7c-1.9-1.3-3.6-3.4-5.1-5.5c-4.2-6-6.7-14.5-13-18.3
							c-2.2-1.4-4.3-1.6-6.1-1.3c-4.1,0.9-7.1,4.8-9.2,8.4"/>
					</g>
				</g>
				<g>
					<polyline class="st7" points="4.8,37.6 5.5,64.7 133.9,137.4 					"/>
					<text transform="matrix(0.7137 0.4041 2.633752e-02 0.9997 2.7106 38.2177)" class="st1 st2 st8">100</text>
					<text transform="matrix(0.7137 0.4041 2.633752e-02 0.9997 3.2047 40.9594)" class="st1 st2 st8">90</text>
					<text transform="matrix(0.7137 0.4041 2.633752e-02 0.9997 3.2706 43.4585)" class="st1 st2 st8">80</text>
					<text transform="matrix(0.7137 0.4041 2.633752e-02 0.9997 3.3338 45.8576)" class="st1 st2 st8">70</text>
					<text transform="matrix(0.7137 0.4041 2.633752e-02 0.9997 3.3996 48.3572)" class="st1 st2 st8">60</text>
					<text transform="matrix(0.7137 0.4041 2.633752e-02 0.9997 3.4655 50.8563)" class="st1 st2 st8">50</text>
					<text transform="matrix(0.7137 0.4041 2.633752e-02 0.9997 3.5313 53.3555)" class="st1 st2 st8">40</text>
					<text transform="matrix(0.7137 0.4041 2.633752e-02 0.9997 3.5945 55.755)" class="st1 st2 st8">30</text>
					<text transform="matrix(0.7137 0.4041 2.633752e-02 0.9997 3.6604 58.2542)" class="st1 st2 st8">20</text>
					<text transform="matrix(0.7137 0.4041 2.633752e-02 0.9997 3.7262 60.7533)" class="st1 st2 st8">10</text>
					<text transform="matrix(0.7137 0.4041 2.633752e-02 0.9997 4.2918 63.5358)" class="st1 st2 st8">0</text>
					<g>
						<line class="st9" x1="13.5" y1="68.4" x2="13.6" y2="70"/>
						<line class="st9" x1="24.2" y1="74.5" x2="24.3" y2="76.1"/>
						<line class="st9" x1="34.9" y1="80.5" x2="35" y2="82.1"/>
						<line class="st9" x1="45.6" y1="86.6" x2="45.7" y2="88.2"/>
						<line class="st9" x1="56.3" y1="92.7" x2="56.4" y2="94.3"/>
						<line class="st9" x1="67" y1="98.7" x2="67.1" y2="100.3"/>
						<line class="st9" x1="77.7" y1="104.8" x2="77.8" y2="106.4"/>
						<line class="st9" x1="88.4" y1="110.9" x2="88.5" y2="112.4"/>
						<line class="st9" x1="99.1" y1="116.9" x2="99.2" y2="118.5"/>
						<line class="st9" x1="109.9" y1="123" x2="109.9" y2="124.6"/>
						<g>
							<text transform="matrix(0.7137 0.4041 2.633752e-02 0.9997 12.8892 71.5801)" class="st1 st2 st10">Jan</text>
						</g>
						<g>
							<text transform="matrix(0.7137 0.4041 2.633752e-02 0.9997 23.3494 77.5032)" class="st1 st2 st10">Feb</text>
						</g>
						<g>
							<text transform="matrix(0.7137 0.4041 2.633752e-02 0.9997 34.118 83.6004)" class="st1 st2 st10">Mar</text>
						</g>
						<g>
							<text transform="matrix(0.7137 0.4041 2.633752e-02 0.9997 44.8807 89.6943)" class="st1 st2 st10">Apr</text>
						</g>
						<g>
							<text transform="matrix(0.7137 0.4041 2.633752e-02 0.9997 55.2237 95.551)" class="st1 st2 st10">May</text>
						</g>
						<g>
							<text transform="matrix(0.7137 0.4041 2.633752e-02 0.9997 66.3917 101.8744)" class="st1 st2 st10">Jun</text>
						</g>
						<g>
							<text transform="matrix(0.7137 0.4041 2.633752e-02 0.9997 77.4034 108.1098)" class="st1 st2 st10">Jul</text>
						</g>
						<g>
							<text transform="matrix(0.7137 0.4041 2.633752e-02 0.9997 87.4413 113.7932)" class="st1 st2 st10">Aug</text>
						</g>
						<g>
							<text transform="matrix(0.7137 0.4041 2.633752e-02 0.9997 98.3298 119.9583)" class="st1 st2 st10">Sep</text>
						</g>
						<g>
							<text transform="matrix(0.7137 0.4041 2.633752e-02 0.9997 109.1443 126.0821)" class="st1 st2 st10">Oct</text>
						</g>
						<line class="st9" x1="120.5" y1="129" x2="120.5" y2="130.6"/>
						<line class="st9" x1="131.2" y1="135.1" x2="131.3" y2="136.7"/>
						<g>
							<text transform="matrix(0.7137 0.4041 2.633752e-02 0.9997 119.5425 131.9696)" class="st1 st2 st10">Nov</text>
						</g>
						<g>
							<text transform="matrix(0.7137 0.4041 2.633752e-02 0.9997 130.3936 138.114)" class="st1 st2 st10">Des</text>
						</g>
					</g>
				</g>
			</g>
		</g>
	</g>
	
		<linearGradient id="SVGID_2_" gradientUnits="userSpaceOnUse" x1="133.6621" y1="-129.518" x2="186.5713" y2="-138.0565" gradientTransform="matrix(1 0 0 1 0 250.17)">
		<stop  offset="0" style="stop-color:#FFFFFF"/>
		<stop  offset="0.8916" style="stop-color:#FFFFFF;stop-opacity:0"/>
	</linearGradient>
	<polygon class="st11" points="139.9,103.5 179.5,81.7 179.5,128.3 139.9,151.2 	"/>
	
		<linearGradient id="SVGID_3_" gradientUnits="userSpaceOnUse" x1="74.9213" y1="-173.0622" x2="101.7985" y2="-218.1465" gradientTransform="matrix(1 0 0 1 0 250.17)">
		<stop  offset="0" style="stop-color:#FFFFFF"/>
		<stop  offset="0.8579" style="stop-color:#FFFFFF;stop-opacity:0"/>
	</linearGradient>
	<polygon class="st12" points="139.9,103.5 179.5,81.7 41.4,0 0.1,22.6 	"/>
</g>
</svg>
