<?xml version="1.0" encoding="utf-8"?>
<!-- Generator: Adobe Illustrator 23.0.0, SVG Export Plug-In . SVG Version: 6.00 Build 0)  -->
<svg version="1.1" id="Слой_1" xmlns="http://www.w3.org/2000/svg" xmlns:xlink="http://www.w3.org/1999/xlink" x="0px" y="0px"
	 viewBox="0 0 169.9 190.5" style="enable-background:new 0 0 169.9 190.5;" xml:space="preserve">
<style type="text/css">
	.st0{opacity:0.75;fill:url(#SVGID_1_);enable-background:new    ;}
	.st1{fill:#FFFFFF;animation: fadeIn 4s linear forwards;}
	.st2{fill:#81C1B2;animation: fadeIn 2s linear forwards;}
	.st3{fill:#E0AD4A;animation: fadeIn 2s linear forwards;}
	.st4{fill:#AC515D;animation: fadeIn 2s linear forwards;}
	.st5{fill:#393A5C;animation: fadeIn 2s linear forwards;}
	.st6{font-family:'ArialMT';}
	.st7{font-size:4.1259px;}
	.st8{fill:url(#SVGID_2_);}
	.st9{font-size:4.7341px;}
	.st10{opacity:0.3;fill:url(#SVGID_3_);enable-background:new    ;}
	.st11{opacity:0.3;fill:url(#SVGID_4_);enable-background:new    ;}
	.fadeIn {animation: fadeIn 8s linear forwards;}
	@keyframes fadeIn {
		0% {
			opacity: 0;
		}
		100% {
			opacity: 1;
		}
	}
</style>
<g>
	<g>
		
			<linearGradient id="SVGID_1_" gradientUnits="userSpaceOnUse" x1="-18.4852" y1="-192.2704" x2="133.1852" y2="-86.0696" gradientTransform="matrix(1 0 0 1 0 250.17)">
			<stop  offset="0" style="stop-color:#525393"/>
			<stop  offset="0.2201" style="stop-color:#65589F"/>
			<stop  offset="0.5683" style="stop-color:#75589F"/>
			<stop  offset="1" style="stop-color:#81C1B2"/>
		</linearGradient>
		<polygon class="st0" points="0,31.5 0,124.2 114.7,190.5 114.7,97.8 		"/>
		<g>
			<g>
				<g>
					<g>
						<path class="st1" d="M97,151c0-0.1,0-0.1-0.1-0.2l0,0c0-0.1-0.1-0.2-0.1-0.3c-0.1-0.3-0.1-0.5-0.3-0.8s-0.2-0.5-0.1-0.8
							c0.1-0.2,0.1-0.5,0-0.7c-0.1-0.1-0.1-0.3-0.3-0.4l-0.2-1l-0.1-0.1l0,0c0,0.1,0,0.1-0.1,0.2c0,0.1-0.1,0.2-0.1,0.4
							c0,0.1,0,0.1,0,0.2c-0.1,0.3-0.1,0.6-0.3,0.8l0,0c-0.1,0.1-0.2,0.1-0.3-0.1c-0.1-0.2-0.2-0.4-0.3-0.6
							c-0.1-0.1-0.1-0.2-0.2-0.3c-0.2-0.2-0.2-0.4-0.1-0.6c0-0.1,0.1-0.1,0.1-0.2c0,0,0-0.1,0.1-0.1l0,0l-0.7-0.7l0,0h-0.1
							c-0.1,0-0.1,0-0.2,0c-0.2-0.1-0.4,0-0.5,0.3c-0.1,0.1-0.1,0.2-0.1,0.2s-0.1-0.1-0.2-0.2c-0.2-0.4-0.4-0.5-0.6-0.3
							c-0.1,0.1-0.2,0.2-0.3,0.3l-0.1,0.1l-0.1-0.3l0,0c0,0,0,0.1-0.1,0.1c0,0.1-0.1,0.2-0.1,0.2c-0.1,0.1-0.3,0.2-0.5,0.2
							c-0.4,0-0.7,0-1-0.1c-0.4-0.1-0.4,0.2-0.5,0.5l0,0c0,0.2,0,0.4,0,0.6c0,0.1,0,0.2,0,0.3c-0.2,0.1-0.2,0.4-0.1,0.7l0,0
							c0.1,0.6,0,0.9-0.3,1.1l0,0l0,0c0.1,0.3,0.3,0.5,0.5,0.5l0,0c0.3,0.1,0.6,0.1,0.9,0.2c0.1,0,0.1,0,0.2,0.1
							c0.1,0,0.2,0.1,0.3,0.1c0.4,0,0.9,0.1,1.3,0.3c0.6,0.3,0.8,0.6,0.8,1.3v0.1l0.7-0.2l0,0l-0.6,0.6l0.4-0.1l0,0l-0.1,0.2l0,0
							c0.1,0.1,0.1,0.1,0.2,0.2c0,0.1,0,0.2,0,0.3v0.1l0,0l0,0c0.2,0.4,0.5,0.7,0.8,0.6l0.2,0.4l0,0c0.2-0.1,0.4-0.2,0.7,0.1l0,0
							l0.2-0.2c0.2-0.2,0.5-0.4,0.7-0.6c0,0,0,0,0.1,0c0.4,0,0.7-0.4,0.9-0.9s0.2-1.1-0.1-1.6C97.1,151.2,97.1,151.1,97,151z"/>
						<path class="st1" d="M60,99.2c-0.1,0-0.1,0-0.2,0.1c0,0.1-0.1,0.1-0.1,0.2c0,0,0,0,0,0.1l0,0v-0.1l0,0v-0.1l0,0l0,0l-0.8-0.1
							l0,0c0,0.1,0,0.2,0,0.3s0.1,0.2,0.2,0.2l0,0c0.1,0.1,0.2,0.1,0.3,0.2c0.1,0,0.1,0.1,0.2,0.1c0.1,0.1,0.3,0.2,0.4,0.3
							c0.2,0.4,0.3,0.8,0.4,1.2c0,0.1,0.1,0.3,0.1,0.4l-0.4-0.3v0.1l0.4,0.5h-0.7l0.2,0.2h-0.2l0.1,0.2l-0.2-0.1l0.1,0.1
							c0.1,0.1,0.1,0.1,0.1,0.2s0,0.2,0,0.2c-0.1,0.2-0.1,0.4,0,0.7c0.1,0.2,0.2,0.3,0.3,0.4l0.1,0.1c0.1,0.1,0.2,0.2,0.3,0.3h0.1
							c0.1,0,0.2,0,0.4-0.2c0,0,0-0.1,0.1-0.1l0.1-0.1c0.3-0.4,0.6-0.5,0.9-0.3c0.3,0.1,0.5,0.1,0.7,0c0.1-0.1,0.4-0.1,0.5,0
							c0.3,0.2,0.5,0.2,0.7,0.3c0.2,0,0.3,0.1,0.5,0.2l0,0v-0.2l-0.3-0.2l0.1-0.1c0.1,0.2,0.2,0.3,0.3,0.3s0.2,0,0.2-0.1l0,0
							l-0.5-0.7h0.1c0.1,0,0.2,0,0.3,0s0.1,0,0.1-0.1c0,0,0,0,0.1,0h0.1c0.1,0,0.1-0.1,0.2-0.1c0,0,0,0,0.1,0h0.1
							c0.1,0,0.1-0.1,0.2-0.1c0,0,0,0,0.1-0.1l0,0l0,0c0-0.1,0-0.1,0-0.1s0-0.1,0.1-0.1c0,0,0.1,0,0.1-0.1l0,0
							c0.1-0.2,0.1-0.2,0.2-0.1s0.3,0.1,0.4,0.2c0.1,0,0.1,0.1,0.2,0.1l0,0v-0.2l-0.6-0.3l0.1-0.1l-0.3-0.1h0.2l-0.1-0.1
							c-0.1,0-0.1-0.1-0.2-0.1c-0.2-0.2-0.5-0.3-0.7-0.2l0.1-0.4h-0.4c0-0.1,0.1-0.1,0-0.2c0-0.1-0.1-0.2-0.2-0.2s-0.2,0-0.3,0h-0.1
							h-0.1l0,0l0,0l0.3-0.3l0,0c-0.2-0.3-0.4-0.4-0.6-0.4c-0.1,0-0.2,0-0.2,0.2l-0.1-0.3l0,0c0,0,0,0-0.1,0.1l-0.1,0.1
							c-0.1,0.2-0.3,0.1-0.5,0c0,0-0.1,0-0.1-0.1l0,0l0,0c0-0.1-0.1-0.2-0.1-0.2c-0.1-0.1-0.2-0.1-0.2,0l0,0c-0.1,0-0.2-0.1-0.3-0.1
							l-0.1-0.1c-0.1,0-0.1-0.1-0.2-0.1c0,0,0,0-0.1,0c0,0,0,0,0-0.1s-0.1-0.2-0.2-0.2c-0.1,0-0.1,0-0.2,0l0,0c0-0.1,0-0.1-0.1-0.1
							c-0.1-0.1-0.2-0.2-0.3-0.2C60.4,99.2,60.2,99.2,60,99.2L60,99.2z"/>
						<path class="st1" d="M46.8,110L46.8,110c0.2,0.2,0.3,0.4,0.5,0.4c0.3,0,0.4,0.1,0.7,0.7c0.2,0.4,0.6,0.9,0.9,0.9
							c0,0.2,0.1,0.4,0.2,0.5c0.1,0.2,0.2,0.4,0.1,0.6c0,0.1,0,0.1,0.1,0.2c0,0.1,0.1,0.1,0.1,0.2c0.1,0.1,0.1,0.2,0.2,0.3
							c0,0.1,0.1,0.2,0.1,0.2h0.1l0.5,0.7v-0.1c0-0.1,0-0.2,0.1-0.3c0,0,0.1,0,0.2,0c0.1,0,0.1,0.1,0.1,0.1c0,0.1,0,0.1,0,0.3
							c0,0.1,0,0.1,0,0.2v0.1c0,0.1,0,0.2,0,0.2c0,0.2,0,0.4,0,0.6s-0.1,0.3-0.2,0.5c0,0.1-0.1,0.1-0.1,0.2l-0.5,0.7l0.2,0.4
							l-0.1,0.2c-0.1,0.1-0.2,0.2-0.2,0.3c0,0.2,0,0.4,0.1,0.5c0.1,0.2,0.2,0.4,0.2,0.6c0.1,0.2,0.1,0.4,0.2,0.6
							c0.1,0.2,0.1,0.4,0.2,0.6c0.1,0.4,0.2,0.8,0.4,1.1c0.1,0.2,0.2,0.5,0.4,0.8c0.1,0.2,0.3,0.4,0.4,0.6l0.1,0.1
							c0.1,0.1,0.2,0.2,0.3,0.4l0.1,0.1l0,0v0.1c0,0.1,0,0.2,0.1,0.4c0,0.2,0.1,0.4,0.1,0.6c0,0.1,0,0.2,0,0.3c0,0.3,0,0.7,0,1
							c0,0.2,0,0.5,0,0.7s0,0.4,0,0.6c0,0.1,0,0.3,0,0.4c0,0.5,0.1,1,0,1.5c0,0.3,0,0.6,0.1,0.9c0,0.1,0,0.3,0.1,0.4
							c0,0,0,0.1,0.1,0.1c0.2,0.3,0.3,0.6,0.3,1c0,0.1,0,0.2,0,0.2v0.1l0,0l0,0l0,0v-0.1l-0.1,0.1v0.2H53l0,0l0,0l0,0l-0.1,0.1l0,0
							c0,0.1,0.1,0.2,0.1,0.3c0.1,0.2,0.2,0.4,0.2,0.5c0.1,0.6,0.3,1.1,0.6,1.6c0.1,0.1,0.2,0.2,0.3,0.3l0,0l0,0h0.1l0,0l0,0
							l-0.2-0.2l0.2,0.1v-0.1c-0.1-0.3-0.1-0.3,0.1-0.7c0.1-0.2,0.1-0.4-0.1-0.6c-0.1-0.1-0.1-0.2-0.2-0.3c0,0,0-0.1-0.1-0.2
							c0.3,0.1,0.3-0.2,0.3-0.5c0-0.1,0-0.1,0-0.2l0.5,0.3l-0.3-0.3c-0.2-0.2-0.3-0.3-0.3-0.6l0.6,0.3v-0.1
							c-0.1-0.3-0.1-0.5-0.1-0.6s0.1-0.1,0.3,0s0.3,0,0.4-0.1c0.1,0,0.1-0.2,0.1-0.3c0-0.2-0.1-0.5-0.3-0.7
							c-0.1-0.1-0.1-0.2-0.1-0.3l0.1,0.1c0.1,0.1,0.2,0.2,0.3,0.3s0.2,0.2,0.3,0.2s0.2-0.1,0.2-0.3l0.3-0.3c0.2-0.1,0.3-0.3,0.3-0.6
							c0-0.1,0.1-0.3,0.2-0.4c0,0,0.1-0.2,0-0.3c-0.1-0.2-0.1-0.3-0.1-0.4s0.1-0.2,0.3-0.2l0,0c0.2,0,0.4-0.1,0.5-0.1h0.1
							c0.1,0.1,0.2,0.2,0.3,0.2s0.2-0.1,0.3-0.2c0.3-0.7,0.5-1.3,0.4-2.1c0-0.1,0-0.3,0.1-0.4s0.2-0.3,0.3-0.4l0.1-0.1l0,0l0,0
							c0-0.1,0.1-0.1,0.1-0.2c0.1-0.1,0.2-0.3,0.2-0.5c0.1-0.3,0-0.6-0.3-0.9c-0.2-0.2-0.4-0.4-0.5-0.7s-0.3-0.5-0.4-0.6
							c-0.1,0-0.2-0.1-0.3-0.2c-0.2-0.2-0.3-0.3-0.5-0.2c0-0.1,0-0.1-0.1-0.2c-0.1-0.2-0.1-0.3-0.2-0.4c-0.2-0.3-0.4-0.4-0.6-0.3
							c-0.1,0.1-0.3,0-0.4-0.1c0.3,0.2,0.4,0.2,0.5-0.2v-0.1l0,0c-0.1,0-0.1-0.1-0.2-0.1c-0.2-0.1-0.4-0.2-0.5,0.1l-0.2-0.1
							c0,0,0,0,0.1,0c0.3-0.2,0.5-0.3,0.3-1c0-0.1-0.1-0.2-0.1-0.3v-0.1l0,0v-0.1l0,0c-0.2-0.5-0.3-0.7-0.5-0.7l0,0
							c0-0.1,0-0.1-0.1-0.2s-0.2-0.1-0.3-0.2c0,0-0.1,0-0.1-0.1l-0.1-0.2c-0.1-0.2-0.2-0.5-0.4-0.7l-0.1-0.1l0,0l-0.6-1l0.1-0.1
							h-0.1c-0.1,0-0.1,0-0.2,0h-0.1c-0.1,0-0.1,0-0.1-0.1c-0.2-0.4-0.4-0.4-0.5-0.4l-0.6-0.9l0.1,0.3H52v0.1
							c0.1,0.1,0.1,0.3,0.1,0.3c0,0.1-0.1,0.1-0.2,0.1c0-0.1,0-0.1,0-0.2v-0.1c0-0.1,0-0.2,0-0.3v-0.1l0.3-0.3H52h-0.1
							c-0.1,0-0.1,0-0.1,0s0,0-0.1,0c0,0-0.1,0.1-0.1,0c-0.3-0.2-0.4,0-0.5,0.2c-0.1,0.1-0.1,0.2-0.2,0.1c-0.1,0-0.1-0.1-0.3-0.2
							c-0.1-0.2-0.3-0.3-0.4-0.3c-0.2,0-0.4-0.1-0.6-0.3c0-0.1,0-0.2-0.1-0.2c-0.1-0.2-0.1-0.4-0.1-0.5c0-0.2,0-0.3,0.1-0.5
							c0-0.1,0-0.2,0.1-0.2c0-0.1,0-0.3,0-0.4s-0.1-0.2-0.2-0.2c-0.1-0.1-0.3-0.2-0.4-0.2c-0.1,0-0.1-0.1-0.2-0.1
							c-0.1,0-0.1-0.1-0.1-0.1s0-0.1,0-0.2c0.1-0.2,0.2-0.5,0.3-0.7c0-0.1,0.1-0.2,0.1-0.3l0,0l0,0c-0.2-0.2-0.3-0.3-0.4-0.3
							c-0.1,0-0.2,0.1-0.3,0.2s-0.2,0.2-0.4,0.2s-0.4-0.1-0.5-0.3c-0.3-0.3-0.5-1.3-0.4-1.6c0-0.2,0.1-0.3,0.2-0.5
							c0-0.1,0-0.1,0.1-0.2l0,0l-0.1-0.2l0,0c0.1,0,0.1,0,0.2-0.1c0-0.2,0.2-0.3,0.3-0.3s0.1,0,0.2,0c0.1,0,0.1,0,0.2,0
							c0.1,0,0.3,0,0.4,0.1c0.1,0.1,0.3,0.2,0.4,0.4c0.1,0.1,0.1,0.1,0.2,0.2l0,0l0.1-0.1l-0.1-0.2l0,0c0.1,0.1,0.2,0.1,0.2,0.1
							c0.1-0.1,0.2,0,0.3,0.2l0,0c0,0,0,0,0.1,0.1s0.2,0.3,0.3,0.3c0.1,0.1,0.2,0.2,0.3,0.3c0,0.1,0.1,0.2,0,0.4
							c0,0.2,0,0.4,0.1,0.7c0.1,0.2,0.2,0.4,0.3,0.4l0,0v-0.1c0-0.1,0-0.2,0-0.3c0-0.2,0-0.5,0-0.7c0-0.6,0-0.8,0.4-0.9
							c0.2,0,0.4-0.1,0.6-0.1c0.2,0,0.3-0.1,0.5-0.1c0.1,0,0.1-0.1,0.1-0.2c0-0.2,0-0.3,0-0.5v-0.1l0,0v0.3l0.1,0.1l0.2-0.4l0.1,0.2
							l0,0l0.1-0.1c0.1-0.1,0.1-0.2,0.2-0.3c0-0.1,0.1-0.1,0.2-0.1c0.1,0,0.3,0.1,0.4,0.1c0.1,0,0.1,0,0.2,0l0,0V106
							c0-0.1-0.1-0.2,0-0.3c0-0.1,0.1-0.1,0.2-0.1c0.1,0,0.2,0,0.3,0s0.2,0,0.3,0s0.1-0.1,0.1-0.1l0,0c0.2,0.2,0.4,0.3,0.6,0.2
							c0,0.1,0.1,0.1,0.1,0.2h-0.7l0.1,0.3l1.2,0.1l-0.1-0.1c-0.1,0-0.1-0.1-0.2-0.1c-0.1-0.1-0.2-0.2-0.3-0.3s-0.1-0.3-0.1-0.4
							v-0.1l0.5,0.2v-0.1c-0.2-0.4-0.4-0.5-0.6-0.5c-0.1,0-0.2,0-0.3,0s-0.1,0-0.2,0c0,0,0,0-0.1-0.1l0,0l0,0v-0.1
							c0.1,0,0.2,0,0.2,0c0.3,0,0.7-0.1,1.1,0.2c0.6,0.4,1.1,0.4,1.5,0.3c0.1,0,0.2-0.2,0.1-0.4c0-0.1-0.1-0.2-0.2-0.3
							c-0.1-0.1-0.2-0.1-0.2-0.1c-0.1,0-0.1,0-0.2,0c0,0,0,0-0.1,0l0,0h0.4l-0.1-0.1l-0.1-0.1c0-0.1-0.1-0.1-0.1-0.2
							c-0.1-0.2-0.1-0.3-0.1-0.5s0-0.4,0-0.6c0-0.1,0-0.2,0-0.3v-0.1l-0.8,0.2c0,0,0-0.1-0.1-0.1c-0.1-0.2-0.2-0.3-0.1-0.5
							c0-0.1,0-0.3-0.1-0.4c-0.1-0.2-0.2-0.3-0.3-0.4c-0.4-0.5-0.7-0.6-0.9-0.1l0,0c0,0,0,0.1-0.1,0.1c-0.2,0-0.3,0.1-0.2,0.6
							c0,0,0,0.1-0.1,0.1c-0.2,0.1-0.4,0.2-0.6,0.3l-0.2,0.1l0,0v0.1c0,0.1-0.1,0.2-0.1,0.3c-0.1,0.1-0.2,0.1-0.3,0
							c0,0-0.1-0.3-0.1-0.4s0.1-0.2,0.1-0.3l0.1-0.1l0,0l0,0c0,0,0,0-0.1-0.1c-0.1,0-0.1-0.1-0.2-0.2c-0.3-0.3-0.6-0.7-0.9-1.1
							c0-0.1-0.1-0.1-0.1-0.2l0,0c0-0.1-0.1-0.2-0.1-0.3V100c0,0,0,0,0.1-0.1c0-0.1,0.1-0.2,0.2-0.2c0.1,0,0.3-0.1,0.4-0.1
							c0.1,0,0.2,0,0.3-0.1h0.1c0.1,0,0.2,0,0.2-0.2h0.1c0.2,0.1,0.3,0.1,0.5,0.2l0.3,0.1l-0.2-0.5c0.1,0,0.2,0.1,0.2,0.2v0.1l0,0
							l0,0c0.1,0,0.2,0,0.2,0c0.2,0,0.3,0,0.4,0.1c0.4,0.2,0.6,0,0.8-0.2l0.1-0.1l0,0c-0.2-0.3-0.4-0.4-0.6-0.2
							c-0.1,0.1-0.2,0.1-0.3,0.1h-0.1c0,0,0,0-0.1,0l0,0l0,0V99v-0.1l0,0l0,0l0,0l0,0v-0.1c-0.1-0.1-0.2-0.1-0.2-0.2s0-0.2,0-0.3
							v-0.2c0-0.1-0.1-0.1-0.2-0.1c-0.1,0-0.2,0-0.3,0h-0.1l0,0v0.1c0.1,0.2,0.1,0.3,0.1,0.4s-0.1,0.1-0.2,0.1l0,0
							c-0.1,0-0.2,0-0.3,0c-0.1,0.1-0.2,0-0.4-0.2c-0.1-0.1-0.2-0.2-0.2-0.2l0,0c-0.1,0-0.1-0.1-0.2-0.1c-0.1,0-0.2-0.1-0.3-0.2
							c-0.2-0.2-0.4-0.4-0.7-0.4c-0.1,0-0.2,0-0.3,0.1h-0.1c0-0.2-0.1-0.3-0.1-0.4c-0.1-0.1-0.2-0.2-0.4-0.2c-0.1,0-0.2-0.1-0.3-0.2
							L50,96.7l0.2-0.1h-0.1c-0.1-0.1-0.1-0.1-0.2-0.2c-0.2-0.1-0.3-0.3-0.5-0.4c-0.1-0.1-0.3-0.2-0.4-0.3c-0.2-0.1-0.3-0.2-0.5-0.4
							c-0.1-0.2-0.3-0.2-0.5-0.2c-0.1,0-0.2,0-0.3-0.1l0,0c-0.3-0.1-0.6-0.2-0.8-0.4c-0.1-0.1-0.2-0.2-0.4-0.3
							c-0.1,0-0.1-0.1-0.2-0.1l-0.1-0.1c-0.1-0.1-0.1-0.2-0.2-0.2c-0.1-0.1-0.2-0.1-0.3-0.2s-0.2-0.2-0.4-0.3
							c-0.5-0.5-1.1-0.8-1.7-0.9c-0.4-0.1-0.7-0.2-1.1-0.3h-0.1c-0.1,0-0.1,0-0.2,0h-0.1l0,0l0.2,0.5h-0.1c-0.1,0-0.2,0-0.3-0.1
							c-0.3-0.3-0.5-0.3-0.7-0.2h-0.1v0.2l0.7,0.4v0.1c-0.1,0-0.1,0-0.2,0c-0.1,0-0.3,0-0.4,0c-0.1,0-0.2-0.1-0.3-0.1
							s-0.3-0.1-0.4-0.1c-0.1,0-0.2,0.1-0.3,0.1l-0.1,0.1l0,0l0.1,0.2l0.2,0.1l-0.3,0.1v0.2l0.5,0.3l0,0c-0.5,0.2-1,0.1-1.6-0.1V94
							c0.7,0.3,1.4,0.3,2.1,0.4c0.4,0,0.8,0.1,1.2,0.1h-0.4v0.2l0,0c0.1,0,0.2,0,0.2,0c0.2,0,0.4,0,0.7,0c0.1,0,0.2,0.1,0.2,0.1
							c0.2,0.1,0.3,0.3,0.5,0.4c0.1,0.1,0.2,0.2,0.3,0.3l0.1,0.1c0,0,0,0.1,0.1,0.1c0,0.1,0.1,0.1,0.1,0.2c0.1,0.1,0.2,0.3,0.2,0.4
							s0,0.2,0,0.3s-0.1,0.1-0.1,0.2s0.1,0.2,0.1,0.2s0,0-0.1,0.1s-0.2,0.1-0.1,0.2c0.1,0.2,0,0.3,0,0.5c0,0.1,0,0.1-0.1,0.2l0,0
							l0,0c0,0.1,0.1,0.1,0.1,0.2c0.1,0.1,0.1,0.2,0.2,0.3c0.1,0.2,0.2,0.4,0.5,0.6c-0.2-0.1-0.3-0.2-0.4,0.1l-0.1,0.1l0,0l0.1-0.1
							l0,0c-0.1-0.1-0.1-0.2-0.2-0.2c-0.1,0-0.1,0-0.2,0.1v0.1c-0.3,0.5-0.6,0.9-0.9,1.4c-0.2,0.2-0.3,0.5-0.1,1l0,0v0.1
							c0,0.1,0,0.2,0,0.3c0,0.3,0,0.5,0.1,0.7c0.1,0.1,0.1,0.2,0.2,0.3c0.1,0.2,0.2,0.4,0.3,0.5l-0.1-0.1l0,0c-0.1,0.4-0.1,0.4,0,1
							v0.1c0,0.1,0,0.2,0,0.3v0.1h-0.1v0.1c0,0,0,0.1,0.1,0.1c0.1,0.1,0.1,0.2,0.2,0.3l0,0c0,0.1,0.1,0.3,0.1,0.3
							c-0.1,0.3,0.1,0.5,0.2,0.7c0,0.1,0.1,0.2,0.1,0.2l0.1,0.3v-0.3c0-0.1,0-0.2-0.1-0.2c0-0.1,0-0.2-0.1-0.3c0-0.5-0.1-1-0.3-1.5
							c0-0.1,0-0.1,0-0.2s0-0.1,0-0.2s0-0.2,0-0.3l0.1-0.1c0.1,0,0.1,0,0.1,0.1s0.1,0.2,0.1,0.3c0.1,0.8,0.3,1.5,0.6,2.2v0.1
							c0.2,0.5,0.4,0.9,0.2,1.3c0,0.1,0,0.2,0.1,0.3c0.2,0.6,0.6,1,0.9,1.4C46.6,109.8,46.7,109.9,46.8,110z M44.5,103.8L44.5,103.8
							C44.5,103.7,44.5,103.7,44.5,103.8C44.5,103.7,44.5,103.8,44.5,103.8z"/>
						<path class="st1" d="M58.2,101.7L58.2,101.7L58.2,101.7c0-0.1-0.1-0.1-0.1-0.2c-0.1-0.1-0.1-0.1-0.1-0.2l0,0
							c-0.1-0.1-0.2-0.4-0.2-0.4c0-0.1,0-0.2,0-0.3s-0.1-0.2-0.2-0.2c-0.2-0.2-0.4-0.4-0.5-0.7l0,0c0-0.1-0.1-0.2-0.1-0.3
							c-0.1-0.1-0.1-0.1-0.2-0.2c0,0-0.1,0-0.1-0.1l0,0v0.1l0.2,0.2l-0.1,0.2L56.6,99l0,0c-0.2-0.2-0.6-0.3-0.9,0
							c0-0.2,0-0.2,0.1-0.2l0.1-0.1v-0.1l0,0c-0.3-0.2-0.6-0.1-0.9,0.2l0,0l0,0l0.1,0.1c0.1,0.1,0.2,0.2,0.2,0.2
							c0.2,0.1,0.3,0.2,0.5,0.3l0.1,0.1c0,0,0,0,0.1,0s0.2,0.1,0.2,0.1c0.2-0.1,0.3,0.1,0.4,0.3c0,0,0,0.1,0.1,0.1v0.1l0,0l0,0l0,0
							l0,0c0,0,0,0.1,0.1,0.1c0.1,0.1,0.1,0.2,0.1,0.3s0,0.2,0,0.2c-0.1,0-0.2,0-0.3,0.1c-0.2,0.1-0.3,0.1-0.5,0
							c-0.1-0.1-0.2-0.1-0.3-0.2c0,0-0.1,0-0.1-0.1l0,0v0.2l0,0c0,0,0,0,0.1,0c0,0,0.1,0,0.1,0.1c0.3,0,0.4,0.2,0.6,0.6
							c0.1,0.3,0.3,0.5,0.5,0.7c0.1,0,0.2,0.1,0.3,0.1h0.1l-0.3-0.5c0.1-0.1,0.2,0,0.3,0.2c0.1,0.1,0.1,0.2,0.2,0.2l0,0l0,0
							c0.2-0.1,0.1-0.3,0.1-0.5c0-0.1,0-0.2-0.1-0.3c0,0,0.1,0,0.1,0.1c0.1,0.1,0.2,0.1,0.2,0.2c0.1,0.2,0.2,0.3,0.3,0.3
							C58.1,101.9,58.1,101.9,58.2,101.7z"/>
						<path class="st1" d="M67.3,111.7C67.3,111.6,67.2,111.6,67.3,111.7C67.2,111.6,67.2,111.6,67.3,111.7L67.3,111.7v0.3l-0.6-0.4
							v0.1c0,0.2,0.1,0.3,0.2,0.4c0.3,0.4,0.4,0.6,0.3,1c0,0.1,0,0.2,0,0.3v0.1c-0.1-0.1-0.1-0.1-0.2-0.2c-0.2-0.1-0.4-0.3-0.6-0.4
							c-0.1,0-0.1-0.1-0.2-0.1c-0.1-0.1-0.3-0.3-0.5-0.1l0,0l0.2,0.4h-0.1c0,0.1-0.1,0.2-0.1,0.3c-0.1,0.2-0.2,0.4,0,0.7v0.1
							c0,0,0,0.1,0,0.2v0.1H66c0.1,0.5,0.2,0.6,0.5,0.6h0.1c0,0,0.1,0,0.1,0.1h0.1c0.1,0,0.2,0.1,0.3,0c0.1,0,0.1-0.1,0.2-0.2
							c0,0,0-0.1,0.1-0.1l0,0l0,0c0-0.5,0.2-0.5,0.4-0.5c0.1,0,0.2,0,0.3-0.1l0,0l-0.2-0.2c0.1,0,0.1,0,0.1,0
							c0.1-0.2,0.3-0.1,0.5,0.1c0.1,0.1,0.2,0.1,0.3,0.1c0,0,0-0.1,0-0.2c0,0,0,0,0-0.1l0,0c0.1,0.1,0.1,0.1,0.2,0.2
							c0.1,0,0.2,0.1,0.3,0.3l0,0c0.1,0.2,0.1,0.3,0.2,0.5c0.2,0.3,0.4,0.6,0.6,0.9c0.3,0.4,0.3,0.5,0.2,0.9v0.1l0.1-0.1l0,0
							c0.1-0.1,0.1-0.1,0.2-0.2c0-0.1,0-0.2-0.1-0.3l0.4,0.1l-0.1-0.1c0,0-0.1-0.1-0.1-0.2c-0.1-0.1-0.2-0.3-0.3-0.4
							c-0.2-0.3-0.4-0.6-0.6-0.9c-0.1-0.1-0.1-0.2-0.1-0.3v-0.1l0.3,0.1l0.1,0.1l-0.1,0.1l0,0l0.1,0.1c0.1,0.1,0.1,0.1,0.1,0.2
							c0.1,0.3,0.2,0.4,0.3,0.5c0,0,0,0,0.1,0l0.3,0.3l0.1,0.1l0,0v0.1c0,0.3,0,0.6,0.2,0.9l0.3,0.5h-0.1l0.4,0.8v-0.5l0.1,0.2
							l0.1-0.1l-0.2-0.3l-0.1-0.5l0,0l0.3,0.5V117l0.5,0.3l0,0l0,0c0,0.1-0.1,0.3,0.1,0.4v0.1c0,0.1,0,0.1,0,0.2l0,0l0,0
							c0,0,0,0.1,0.1,0.2c0.1,0.2,0.2,0.5,0.4,0.7l0.2,0.1c0.1-0.1,0.2,0,0.3,0.1c0,0,0,0.1,0.1,0.1c0,0,0,0,0,0.1
							c0.1,0.1,0.2,0.2,0.3,0.2s0.2,0,0.3,0h0.1v0.7v0.1c0,0.1,0,0.1,0,0.2s0,0.2,0,0.3v0.1l-0.1,0.3c0-0.1,0-0.2,0-0.3v-0.1
							l-0.1-0.1l-0.2,0.4c-0.1,0-0.1-0.1-0.2-0.1c-0.1-0.1-0.3-0.2-0.4-0.3c-0.3-0.1-0.5-0.3-0.8-0.5l0,0c-0.1-0.1-0.2-0.1-0.3-0.2
							h-0.1c-0.1-0.4-0.4-0.6-0.6-0.8l0,0c-0.1-0.1-0.2-0.1-0.2-0.1c-0.1,0-0.1,0.1-0.1,0.3c0,0.1-0.2,0.3-0.2,0.2l0,0H71
							c-0.2-0.2-0.5-0.4-0.6-0.6c-0.2-0.4-0.4-0.6-0.6-0.8c-0.1,0-0.1-0.1-0.2-0.1l0,0l-0.1,0.1l-0.2-0.7l0.1-0.2l-0.2-0.3l0.2-0.1
							l0,0c-0.2-0.2-0.4-0.5-0.6-0.3c0,0,0-0.1-0.1-0.1s-0.2-0.1-0.2-0.1c-0.1-0.1-0.3-0.1-0.4-0.2c-0.4-0.3-0.8-0.4-1.3-0.2
							c-0.1-0.1-0.2-0.2-0.3-0.2c-0.2-0.1-0.3-0.2-0.4-0.4l0,0l0,0c-0.1,0-0.2,0.1-0.2,0.1c-0.2,0.1-0.3,0.2-0.5,0.2
							c-0.2,0.1-0.3,0.3-0.3,0.7c0,0,0,0.1-0.1,0.1c-0.1,0.1-0.2,0.2-0.3,0.2c0,0-0.1,0-0.1,0.1h-0.1l0.7,0.4l0.1-0.2v0.5l-0.1,0.2
							v-0.4l0,0c-0.1,0-0.1-0.1-0.2-0.1c-0.2-0.1-0.3-0.2-0.5-0.3c-0.1,0-0.2-0.1-0.3,0c-0.2,0.3-0.4,0.5-0.6,0.8
							c-0.1,0.1-0.1,0.2-0.2,0.3l0,0l0.7,0.4l0.1-0.2v0.2l-0.7-0.4l0.1,1.5l0,0c-0.1,0-0.1,0-0.2,0c-0.1,0.1-0.2,0.2-0.2,0.4
							c0,0.1,0.1,0.3,0.4,0.5l0,0l0,0l0,0l-0.3-0.1v0.2l0.2,0.1h-0.1l0.3,0.4l0.3,0.8c-0.1,0.3,0.1,0.6,0.3,0.9
							c0.2,0.4,0.4,0.9,0.8,1.1c0,0,0,0,0.1,0s0.1,0.1,0.2,0.1c0.2,0.1,0.3,0.1,0.5,0.1c0.1,0,0.1,0,0.2,0l0,0l0,0l0.1,0.2l0,0h0.1
							c0.1,0,0.2,0,0.3,0s0.1-0.1,0.1-0.1l0,0l0.1,0.2l0,0l0,0c0,0,0,0,0-0.1c0,0,0,0,0-0.1c0,0.1,0.1,0.1,0.1,0.1s0.1-0.1,0.1-0.2
							s0-0.1,0-0.2v0.3l0.1,0.1c0.3,0.2,0.5,0.5,0.5,0.9l0,0l0.5,0.3c0.2,0.3,0.3,0.6,0.3,0.9c-0.1,0-0.1,0.1-0.1,0.1
							c0,0.1,0,0.1,0.1,0.2c0,0.2-0.1,0.3-0.2,0.3l0,0l0,0v0.1c0.1,0.3,0.2,0.5,0.3,0.8l0.1,0.3c0,0,0,0.1,0,0.2
							c0,0.2,0.1,0.3,0.2,0.4l0,0c0,0-0.1,0.1-0.1,0.2c0,0,0,0.1,0.1,0.1l-0.1,0.1c0,0.1,0,0.1,0.1,0.2c0.1,0.2,0.1,0.4,0.1,0.5
							s0,0.2,0,0.3c0.2,0.5,0,0.7-0.1,1l0,0c-0.1,0.2-0.1,0.4-0.2,0.6c0,0.1-0.1,0.2-0.1,0.3l0,0l0.2,0.1l-0.1,0.1
							c0,0.1,0,0.2,0.1,0.4s0.1,0.4,0.2,0.6l0,0c0.2,0.7,0.2,1.5,0.3,2.2c0,0.2,0,0.4,0.2,0.6v0.1c0,0.1,0.1,0.2,0.1,0.3
							c0.1,0.2,0.1,0.4,0.2,0.5c0,0.2,0.1,0.3,0,0.5c0,0.2,0,0.4,0.1,0.5s0.1,0.2,0.2,0.3h0.1h0.1c0.2,0.1,0.4,0.1,0.7,0.4l0.1,0.1
							c0.1,0,0.2-0.1,0.2-0.1c0.2-0.1,0.4-0.1,0.6-0.3c0.2-0.1,0.3-0.3,0.5-0.5c0.1-0.1,0.2-0.2,0.2-0.2l0,0l-0.3-0.4l0,0
							c0.1,0,0.2,0,0.2,0c0.1-0.2,0.2-0.2,0.3-0.2c0.4,0,0.4-0.3,0.3-0.8c-0.1-0.3-0.1-0.4-0.1-0.4c0.2-0.2,0.4-0.4,0.7-0.6
							c0.1-0.1,0.2-0.1,0.2-0.1c0.1,0,0.2-0.1,0.3-0.2c0.2-0.2,0.1-0.5,0.1-0.8c0-0.2,0-0.4,0-0.5l0,0l0,0c0-0.1,0-0.1-0.1-0.2
							c0-0.1-0.1-0.3-0.1-0.4c0-0.3,0-0.7,0-1c0-0.1,0-0.3,0-0.4l0.1-0.1c0.1-0.1,0.1-0.2,0.2-0.2c0.1-0.1,0.2-0.2,0.2-0.2l0.1-0.1
							l0,0h0.1c0.1-0.1,0.1-0.1,0.2-0.2c0.1-0.1,0.2-0.2,0.3-0.3c0.1,0,0.1-0.1,0.2-0.1c0.1-0.1,0.3-0.1,0.4-0.3
							c0.3-0.4,0.5-0.8,0.7-1.2c0.1-0.1,0.1-0.3,0.1-0.4c0-0.1,0-0.2,0-0.2v-0.1h-0.1c-0.1,0-0.2,0-0.3,0c-0.2,0-0.3,0-0.5-0.1
							c-0.1,0-0.1,0-0.2,0c-0.3-0.1-0.5-0.1-0.7-0.6c0-0.1-0.1-0.1-0.1-0.1l0,0v-0.2l0.1-0.1l0,0c0-0.1,0-0.1-0.1-0.2
							c-0.1-0.2-0.1-0.3-0.2-0.5c-0.1-0.1-0.1-0.2-0.2-0.3c-0.2-0.3-0.3-0.5-0.3-0.9c0-0.1,0-0.1-0.1-0.2c0,0,0,0,0-0.1l-0.1-0.3
							c0-0.1,0-0.1-0.1-0.2c0-0.1-0.1-0.3-0.1-0.4l0,0c0-0.5-0.1-0.6-0.3-0.7h0.2l-0.8-2.6l0.4,0.8v-0.4l0,0c0,0.1,0.1,0.2,0.1,0.3
							c0.1,0.2,0.2,0.4,0.2,0.6c0.1,0.2,0.1,0.3,0.2,0.5c0.1,0.3,0.3,0.6,0.3,0.9c0.1,0.4,0.2,0.8,0.4,1.2c0.1,0.2,0.2,0.5,0.3,0.7
							c0,0.1,0.1,0.2,0.2,0.2c0,0,0,0,0.1,0.1c-0.1,0.4,0,0.8,0.1,1.2c0.1,0.2,0.1,0.3,0.3,0.3c0.1,0,0.2,0,0.3,0
							c0.5,0.1,1,0.1,1.3-0.3c0.2,0.1,0.3,0.1,0.5,0c0.1,0,0.1,0,0.2,0s0.1-0.1,0.2-0.2c0,0,0-0.1,0.1-0.1c0,0,0-0.1,0.1-0.1
							c0-0.1,0.1-0.1,0.1-0.1c0.2-0.1,0.2-0.2,0.2-0.4c0-0.1-0.1-0.3-0.2-0.5s-0.2-0.3-0.4-0.5c0-0.1-0.1-0.1-0.1-0.2v-0.3l0,0
							c0,0,0,0-0.1,0h-0.1c-0.2,0.2-0.4,0.2-0.6-0.1c0,0,0,0-0.1,0l-0.1-0.2c-0.1-0.2-0.2-0.4-0.3-0.7c0,0,0-0.1-0.1-0.1
							c0-0.1,0-0.1-0.1-0.2c-0.1-0.2-0.2-0.5-0.4-0.7c0-0.1-0.1-0.2-0.1-0.2l0,0c0,0,0.1,0,0.1-0.1c0,0,0,0,0.1-0.1l0,0h0.1
							c0.1,0,0.1,0.1,0.2,0.1c0.2,0.1,0.2,0.3,0.3,0.5v0.1c0.1,0.4,0.6,1,0.9,1c0.2,0,0.3,0.2,0.4,0.5s0.6,0.7,0.8,0.7
							c0,0,0.1,0,0.1-0.1l0,0c0.2,0.3,0.4,0.5,0.6,0.5s0.3,0.1,0.4,0.3c0,0.1,0.1,0.1,0.1,0.2s0.1,0.2,0.1,0.3
							c0.1,0.2,0.2,0.3,0.3,0.4l0.1,0.1h-0.1l0,0c0.1,0.3,0.2,0.6,0.4,0.6c0.1,0,0.2,0,0.2-0.1c0,0,0,0,0.1,0l0,0
							c0,0.1,0.1,0.2,0.1,0.3c-0.1,0.4,0,0.9,0.2,1.4v0.1c0.1,0.4,0.2,0.8,0.3,1.2s0.2,0.7,0.3,1.1c0,0.1,0.1,0.3,0.1,0.4
							c0,0.1,0.1,0.1,0.1,0.2v0.1l0.5-0.6c0,0,0-0.1,0-0.2c0-0.1,0-0.2,0-0.2c0.1-0.3,0.1-0.5,0-0.9v-0.1h0.1
							c0.2-0.1,0.4-0.3,0.6-0.4c0.1-0.1,0.3-0.1,0.4-0.2c0.1,0,0.1-0.1,0.2-0.1v-0.1c0-0.1,0-0.2,0-0.2c0-0.1,0.1,0,0.2,0H84h0.1
							c0.1,0,0.2,0.1,0.2,0c0.1-0.1,0.1-0.1,0.1-0.1s0.1,0.1,0.1,0.2l0,0c0.1,0.2,0.1,0.4,0.2,0.5c0.1,0.2,0.2,0.5,0.3,0.7
							s0.1,0.4,0.2,0.7c0,0.1,0,0.2,0.1,0.3c0,0.1,0,0.1,0,0.2l0,0l0,0h0.4c0,0.2,0.1,0.4,0.1,0.6c0.1,0.4,0.3,0.9,0.2,1.4l0,0l0,0
							l0,0v0.1c0,0.1-0.1,0.3,0,0.5s0.2,0.5,0.3,0.7c0,0.1,0.1,0.2,0.1,0.3c0,0.4,0.1,1,0.3,1.4c0.1,0.2,0.2,0.4,0.4,0.4h0.1l0,0
							v-0.1c0-0.1,0-0.2-0.1-0.2c-0.1-0.2-0.1-0.3-0.1-0.4c0.1-0.3,0-0.6-0.3-0.9c0-0.2-0.1-0.3-0.2-0.4c-0.1-0.1-0.2-0.3-0.2-0.5
							c0-0.1-0.1-0.3-0.1-0.4c0-0.2-0.1-0.3-0.1-0.4c0-0.2,0-0.3,0.1-0.5v-0.1c0,0,0-0.1,0.1-0.1l0,0l0.5,0.6l0.2,0.7h0.2v0.6h0.1
							c0.1,0,0.1-0.1,0.2-0.1c0.2-0.1,0.3-0.1,0.5-0.2c0.1,0,0.1-0.2,0.1-0.3c0-0.7-0.2-1.2-0.5-1.8c-0.3-0.5-0.4-0.7-0.4-0.9
							s0.1-0.3,0.3-0.4c0.1,0,0.2,0.1,0.3,0.2c0.1,0.1,0.2,0.3,0.2,0.6v0.1h-0.3l0.2,0.5l0.3-0.4l-0.1-0.2l0,0l0,0
							c0-0.4,0.2-0.4,0.5-0.3c0.3,0.1,0.6,0.2,0.9,0c0.2-0.2,0.3-0.5,0.4-0.7c0-0.1,0.1-0.2,0.1-0.3c0.1-0.1,0.1-0.3,0-0.5
							c0-0.1-0.1-0.2-0.2-0.3l0,0c0.1,0,0.1-0.1,0.1-0.1c0-0.1-0.1-0.2-0.1-0.3c-0.1-0.1-0.1-0.3-0.2-0.4c0-0.1-0.1-0.1-0.1-0.2
							c0,0,0-0.1-0.1-0.1c-0.1-0.1-0.1-0.3-0.2-0.4c0-0.1-0.1-0.2,0-0.3s0.2-0.2,0.3-0.3l0.1-0.1l0,0l0,0l-0.1-0.1
							c-0.1-0.1-0.3-0.3-0.4-0.1l-0.5-0.8h0.1c0.1,0,0.2-0.1,0.2-0.1c0.1,0,0.1-0.1,0.2-0.1c0,0,0,0,0.1,0v0.1
							c0,0.1,0.1,0.2,0.1,0.3s0,0.2,0.1,0.2l0,0v0.1l0.4-0.1c0,0.1,0.1,0.1,0.1,0.2c0.1,0.1,0.2,0.2,0.1,0.4l0,0l0,0
							c0,0,0.1,0.1,0.1,0.2c0.1,0.1,0.1,0.1,0.2,0.2c0,0,0,0,0.1,0c0,0.1,0,0.1,0.1,0.2c0.1,0.2,0.1,0.3,0.2,0.5
							c0.1,0.3,0.1,0.4,0.2,0.5s0.2,0.1,0.3,0c0,0,0.1-0.1,0.1-0.2c-0.1-0.4-0.3-0.8-0.6-1l-0.2-0.5l0,0c0.1,0,0.1,0,0.1,0
							s0.1-0.1,0.1-0.2l0,0l0,0c-0.1-0.1-0.1-0.2,0-0.3v-0.1c0.1-0.2,0.2-0.1,0.3,0s0.3,0.1,0.3,0c0.2-0.4,0.3-0.9,0.2-1.5
							c0-0.2,0-0.3-0.1-0.4c0-0.1-0.1-0.2-0.1-0.3c-0.1-0.1-0.1-0.2-0.1-0.3c-0.2-0.5-0.5-0.9-0.8-1l-0.1-0.3l-0.1,0.1l-0.1-0.3
							l-0.3-0.1c0-0.1,0-0.1,0.1-0.2c0-0.1,0.1-0.3,0.1-0.4c0.1-0.4,0.4-0.4,0.7-0.2c0.1,0.1,0.2,0.1,0.2,0.1s0.1,0,0.1,0.1
							c0.2,0.1,0.3,0.2,0.5,0.3v0.1v0.1v0.1l0.5-0.1l-0.1-0.1v-0.1c0-0.1,0-0.2,0.1-0.3c0,0,0.2,0,0.2,0.1c0.1,0.1,0.1,0.1,0.2,0.2
							s0.1,0.1,0.2,0.2s0.2,0,0.2,0s0.1-0.1,0.1-0.2c0,0,0,0,0-0.1H93c0,0.1,0,0.1,0.1,0.2c0.1,0.2,0.1,0.3,0.1,0.4
							c0,0.2-0.1,0.4-0.2,0.6s-0.1,0.4,0,0.7s0.3,0.6,0.4,0.9l0.1,0.1c0,0.1,0.1,0.1,0.1,0.2c0.1,0.2,0.2,0.4,0.3,0.6
							c0,0.1,0.1,0.1,0.2,0.2c0,0,0.1,0,0.1,0.1l0,0v-0.1c0-0.1,0-0.2,0-0.3c0-0.2,0-0.4,0-0.5c0-0.2,0-0.7-0.2-1
							c-0.1-0.2-0.2-0.4-0.4-0.6c0-0.1-0.1-0.2-0.1-0.2v-0.1c0.1,0,0.1,0,0.2,0s0.3,0,0.4,0s0.2,0.1,0.2,0.1
							c0.1,0.1,0.1,0.2,0.2,0.2s0.1,0,0.2-0.1c0.1-0.2,0.3-0.2,0.5-0.1c0,0,0.1,0,0.1,0.1h0.1l0.1,0.1l-0.8-1h0.1v-0.3
							c0.1,0.2,0.2,0.3,0.3,0.4c0.1,0,0.1,0,0.2,0c0,0,0,0,0.1,0.1l0.1,0.1c0.1,0.1,0.2,0.2,0.3,0.3s0.1,0.1,0.2,0.1
							c0,0,0.1,0,0.1-0.1c0,0,0,0,0.1-0.1l0,0l0,0c-0.1-0.1-0.1-0.1-0.2-0.2c-0.1-0.2-0.3-0.3-0.4-0.5c-0.7-0.6-1.4-1.3-2.3-2
							c-0.2-0.2-0.5-0.4-0.7-0.5c-0.1-0.1-0.2-0.2-0.3-0.2l0,0v0.3l0,0l-0.1-0.1c-0.1-0.1-0.2-0.2-0.3-0.2c-0.2-0.2-0.4-0.4-0.6-0.4
							c-0.4-0.2-0.7-0.4-0.9-0.7c-0.1-0.1-0.2-0.2-0.2-0.2c-0.2-0.1-0.4-0.3-0.7-0.4c-0.2-0.1-0.4-0.2-0.6-0.3c0,0-0.1,0-0.1-0.1
							c0,0,0-0.1-0.1-0.1c-0.1-0.1-0.1-0.1-0.2-0.2c-0.2-0.2-0.5-0.4-0.7-0.6c-0.2-0.1-0.3-0.3-0.5-0.4c-0.1,0-0.2-0.1-0.2,0
							c-0.1,0.2-0.2,0.3-0.4,0.1l-0.1-0.1c-0.1-0.1-0.3-0.2-0.4-0.2c-0.3,0.1-0.5-0.3-0.7-0.6c-0.3-0.5-0.7-0.8-1.1-0.9
							c-0.2,0-0.3-0.1-0.5-0.3l-0.1-0.1c-0.2-0.2-0.4-0.3-0.6-0.3c0,0-0.1,0-0.1-0.1c-0.3-0.4-0.6-0.5-0.9-0.5c0,0-0.1,0-0.1-0.1
							l0,0l0,0l0.6-0.1v-0.1l-0.1-0.1c-0.1-0.1-0.1-0.2-0.2-0.2c-0.3-0.2-0.6-0.4-0.9-0.6c-0.1-0.1-0.2-0.1-0.3-0.2l0.1-0.3h-0.5
							h-0.1c-0.1,0-0.2,0-0.3,0c-0.3-0.1-0.5-0.3-0.8-0.4c-0.1-0.1-0.2-0.1-0.3-0.2l0,0v0.1c0,0.2,0.1,0.3,0,0.3h-0.1
							c-0.1-0.1-0.2-0.1-0.4-0.2l-0.2-0.1v0.1l0.3,0.5l0,0l-0.6-0.6v0.1h-0.2l0.2,0.2c0.1,0.1,0.1,0.1,0.1,0.1l0.1,0.1l-0.1-0.1
							c-0.2-0.1-0.4-0.3-0.4-0.7v-0.1l-0.3,0.3l0,0c0.1,0.1,0.1,0.2,0.2,0.2c0.1,0.2,0.3,0.4,0.4,0.5c0.2,0.2,0.4,0.3,0.5,0.6l0,0
							c0-0.1-0.1-0.2-0.1-0.3c-0.1-0.1-0.2-0.1-0.2-0.2c0,0-0.1,0-0.1-0.1l-0.1-0.1l0.1,0.2v0.1c0,0.1,0,0.2-0.1,0.3s-0.2,0.1-0.2,0
							c-0.1,0-0.1-0.1-0.2-0.2l0,0c0.1,0,0.1,0,0.2-0.1c0-0.1,0-0.3-0.1-0.4c0-0.1-0.1-0.2-0.1-0.3c-0.1-0.2-0.2-0.4-0.2-0.6
							s-0.1-0.3-0.2-0.4c-0.1,0-0.2-0.1-0.3-0.2c-0.1,0-0.1-0.1-0.2-0.1l0,0l0.1,0.8l0.5,0.5c-0.2,0.1-0.3-0.1-0.4-0.2
							S77.1,111,77,111c-0.2-0.1-0.3-0.3-0.5-0.4c-0.1-0.1-0.1-0.1-0.2-0.2l0,0l0,0c0,0,0,0.1-0.1,0.1v0.1c-0.1-0.1-0.3-0.2-0.4-0.2
							c-0.2,0-0.3-0.1-0.5-0.3c-0.1-0.1-0.2-0.1-0.2-0.1c-0.1,0-0.2,0-0.3,0s-0.3,0-0.4,0s-0.2-0.1-0.2-0.2v-0.1
							c-0.1-0.3-0.1-0.3-0.3-0.3l0,0l0.2,0.7c-0.2-0.2-0.4-0.3-0.5-0.3s-0.1,0.1-0.1,0.3l-0.5-0.4v0.1l0.2,0.3
							c-0.1,0-0.2-0.1-0.3-0.2c-0.1-0.1-0.2-0.2-0.2-0.3c-0.1-0.2-0.2-0.4-0.3-0.6c0,0,0-0.1-0.1-0.1c0,0,0,0,0-0.1l0.1,0.1
							c0.1,0.1,0.2,0.3,0.3,0.4c0,0,0,0,0.1,0.1c0.2,0.2,0.4,0.4,0.6,0.3c0,0,0.1,0,0.1-0.1l0,0l0,0l0,0v-0.1c0-0.1-0.1-0.1-0.1-0.2
							s-0.1-0.1-0.1-0.2c-0.2-0.2-0.4-0.5-0.6-0.7c-0.1-0.1-0.1-0.1-0.2-0.1c-0.1-0.1-0.2-0.1-0.3-0.3c0-0.1-0.1-0.2-0.1-0.2
							c-0.1,0-0.2,0-0.2,0l-0.1-0.2l-0.4-0.2c0,0,0,0-0.1,0l0,0l-0.1-0.2l-0.1,0.1v-0.1l0,0c-0.1-0.1-0.1,0-0.2,0l-0.1,0.1
							c0,0,0,0-0.1-0.1l0,0l-0.3,0.1l-0.2-0.2l-1.6,0.8h0.1c-0.3-0.1-0.6-0.2-0.9,0h-0.1l0.2,0.2l-0.2-0.1v0.2h0.2l-0.4,0.1l0.1,0.1
							c0.1,0,0.1,0.1,0.2,0.2s0.1,0.3,0.3,0.3c0,0,0.1,0,0.2,0s0.3,0.1,0.4-0.2l0.1,0.2c0,0,0,0,0,0.1c0.1,0.3,0.2,0.7,0.3,1.1
							c0,0.1,0.1,0.1,0.1,0.2c0,0,0,0,0.1,0h0.1c0.1-0.1,0.2-0.1,0.3-0.2c0.1-0.1,0.1-0.2,0.2-0.3l0.1-0.1l0,0l-0.2-0.2l0.3,0.2
							v-0.1c0-0.1,0-0.1-0.1-0.1l0,0c0-0.1-0.1-0.1-0.1-0.2c-0.1-0.1-0.1-0.3-0.1-0.4l0.1-0.1c0,0,0.1,0,0.1-0.1
							c0.2-0.2,0.5-0.4,0.7-0.6c0,0,0,0,0-0.1l0.2,0.5l-0.1,0.1c-0.1,0.1-0.2,0.1-0.3,0.2c-0.1,0-0.1,0.1-0.1,0.3
							c0,0.1,0.1,0.3,0.1,0.4c0.2,0.2,0.4,0.5,0.6,0.5c0.1,0,0.2,0.1,0.3,0.1c0,0,0.1,0,0.1,0.1l0.1,0.2v0.1c0,0.1,0,0.2,0,0.3l0,0
							v-0.4l-0.7-0.4l-0.1,0.1l0.3,0.4l-0.2,0.2l-0.2-0.4l0,0c-0.1,0-0.2,0.1-0.2,0.1c0,0.1,0,0.1,0,0.2s-0.1,0.1,0,0.2
							c0,0.1,0.1,0.1,0.1,0.2c0.2,0.1,0.2,0.2,0.2,0.4c0,0-0.1,0-0.1-0.1c-0.1-0.1-0.2-0.1-0.3-0.2c-0.1,0-0.2-0.1-0.3-0.2
							c-0.2-0.1-0.4-0.3-0.5-0.2c-0.1,0-0.1,0-0.2,0c0,0,0,0-0.1,0c-0.1-0.3-0.2-0.4-0.4-0.4c-0.1,0-0.1-0.1-0.2-0.1l-0.1-0.1
							l-0.1-0.1c0,0,0,0-0.1-0.1l0,0l0,0c0,0.2-0.1,0.2-0.2,0.2s-0.1,0-0.2,0l0,0c0-0.1-0.1-0.1-0.1-0.2c0,0-0.1,0-0.1,0.1l0,0
							c0,0,0,0,0,0.1c-0.2-0.1-0.2,0-0.3,0.1c0,0,0,0.1-0.1,0.1h-0.2c0,0,0,0-0.1,0s-0.1,0-0.1,0C67.7,111.9,67.4,111.9,67.3,111.7z
							 M72.1,120.9L72.1,120.9L72.1,120.9L72.1,120.9z M64.4,120.6L64.4,120.6L64.4,120.6L64.4,120.6z M76.1,123L76.1,123L76.1,123
							L76.1,123z M77.6,125.6L77.6,125.6L77.6,125.6L77.6,125.6z M87.5,132L87.5,132L87.5,132L87.5,132L87.5,132z M87.8,131.9
							L87.8,131.9L87.8,131.9L87.8,131.9z M88.5,134.7L88.5,134.7L88.5,134.7L88.5,134.7z M92,128L92,128L92,128L92,128z
							 M69.7,109.3L69.7,109.3L69.7,109.3L69.7,109.3z M74,121.9L74,121.9l0.1-0.2C74.1,121.8,74.1,121.8,74,121.9L74,121.9h0.2H74z
							"/>
						<path class="st1" d="M75.5,139.2c0.1,0.1,0.1,0.2,0.2,0.3c0,0,0.1,0,0.1,0.1c0.2,0,0.3-0.1,0.4-0.3s0.1-0.5,0.2-0.7
							c0.1-0.3,0.2-0.6,0.3-0.9c0-0.1,0-0.2,0-0.3v-0.1c0.1,0,0.1,0,0.1-0.1s0-0.4-0.1-0.8v-0.1v0.1c-0.1,0.3-0.4,0.5-0.7,0.5l0,0
							c-0.3,0-0.4,0-0.4,0.5c0.1,0.5,0,0.7-0.2,1C75.3,138.3,75.3,139,75.5,139.2z"/>
						<path class="st1" d="M88.3,139L88.3,139c-0.1-0.2-0.2-0.3-0.2-0.4c-0.2-0.3-0.3-0.5-0.5-0.8c-0.1-0.2-0.2-0.3-0.3-0.5
							c-0.2-0.4-0.3-0.7-0.7-1l0,0c0,0,0,0,0-0.1v-0.1l-0.2,0.1l0,0c0,0,0,0,0,0.1s0,0.1,0,0.2c0.4,0.8,0.8,1.7,1,2.5
							c0.1,0.4,0.2,0.7,0.4,1.1c0.1,0.2,0.2,0.5,0.4,0.7c0,0,0,0,0.1,0.1c0.1,0,0.2,0,0.2,0c0.1-0.2,0.1-0.7,0-0.9
							c0-0.1-0.1-0.2-0.1-0.2s0-0.1-0.1-0.1l0,0c0-0.1-0.1-0.1-0.1-0.2c-0.1-0.1-0.1-0.1-0.1-0.2C88.2,139.1,88.3,139,88.3,139
							L88.3,139z"/>
						<path class="st1" d="M98,147.9l-0.9-1.7h0.3v-0.1c-0.1-0.1-0.1-0.2-0.2-0.3c-0.1-0.3-0.3-0.5-0.4-0.7
							c-0.2-0.2-0.3-0.4-0.5-0.6c-0.1-0.1-0.1-0.1-0.2-0.2l0,0l-0.1,0.2v-0.2l-0.7-0.8l-0.4,0.3h-0.1c0,0-0.1-0.1-0.1-0.2
							c0-0.2-0.1-0.3-0.1-0.5c0-0.1,0-0.2,0-0.2l0,0l0,0c-0.2-0.2-0.4-0.4-0.6-0.2l0,0l0,0c0,0,0,0.1,0.1,0.1
							c0.1,0.1,0.1,0.2,0.2,0.3s0.1,0.1,0.2,0.2c0,0,0,0,0.1,0l0,0l-0.3-0.1l0.2,0.6l0.1-0.1l0.1,0.1c0.1,0.1,0.2,0.3,0.2,0.3
							c0.5,0.4,0.6,0.7,0.6,1.2l-0.2,0.1l0.1,0.2l0,0c0.2,0,0.4,0.1,0.6,0.4c0,0.1,0.1,0.2,0.2,0.3c0.1,0,0.2,0.1,0.2,0.1
							s0-0.1,0-0.2c0,0,0,0,0-0.1h0.1l0,0c0.1-0.1,0.2-0.2,0.3,0l0.1,0.1c0.1,0.1,0.2,0.3,0.2,0.4c0.1,0.5,0.3,0.7,0.6,0.9
							c0.1,0.1,0.2,0.1,0.2,0.2L98,147.9z"/>
						<path class="st1" d="M66.8,109.7c0,0,0,0.1-0.1,0.2v0.1l0.3,0.1v0.3l0,0l-0.3,0.5l0.2,0.3l-0.5,0.1l0.1,0.1
							c0.1,0.1,0.2,0.1,0.3,0.1s0.2,0.1,0.2,0.1c0.1,0.1,0.3,0.1,0.4,0.2c0.1,0,0.1,0.1,0.2,0.1l0.1,0.1l-0.2-0.3l0.3-0.2l-0.1-0.5
							c0-0.4-0.2-0.9-0.5-1.3l0.4-0.3l-0.4-0.3l0.1-0.2h-0.1c-0.4-0.1-0.4,0.2-0.5,0.4c0,0.1,0,0.1,0,0.2v0.1l0,0
							C66.8,109.7,66.8,109.7,66.8,109.7z"/>
						<path class="st1" d="M94.5,131.7l0.1,0.4h0.1l0,0c0-0.1,0-0.2,0-0.3c0-0.7-0.1-1.3-0.4-2.1c0,0,0,0-0.1-0.1l0,0h-0.1l0.1,0.2
							c-0.1,0-0.1,0-0.2,0c0,0.1,0,0.2,0,0.3v0.1c0,0.1,0,0.1,0.1,0.1c0.1,0.2,0.1,0.3,0,0.4c0,0.1-0.1,0.1-0.2,0c0,0-0.1,0-0.1,0.1
							s-0.1,0.2-0.1,0.3v0.1c-0.2-0.4-0.4-0.3-0.6-0.2c-0.1,0-0.2,0.1-0.3,0l0,0l0,0c0,0.1,0.1,0.2,0.1,0.3c0.1,0.1,0.2,0.1,0.3,0.1
							l0,0c0.2,0,0.4,0,0.6,0.6v0.1l0.1-0.5l0.3,0.3L94.5,131.7z"/>
						<path class="st1" d="M90.5,141.5h0.3l0,0c0-0.1,0-0.1,0-0.2c0-0.2,0-0.3,0.1-0.4c0.2-0.1,0.2-0.3,0.2-0.6l0.2,0.1v-0.1
							c0-0.1,0-0.1,0-0.2c0-0.1-0.1-0.2-0.1-0.4c0-0.1-0.1-0.3-0.1-0.4v-0.1c0.1,0.1,0.2,0,0.3-0.1c0,0,0,0,0.1-0.1l0,0l0,0
							c0-0.1-0.1-0.1-0.1-0.2c-0.1-0.1-0.2-0.3-0.2-0.4c-0.1-0.1-0.2-0.1-0.2-0.1c-0.1,0.1-0.1,0.2-0.2,0.3c0,0,0,0.1-0.1,0.1
							l-0.1,0.1c-0.1-0.1-0.1-0.1-0.1-0.1l-0.7,0.3l0,0l-0.2-0.2l0,0c-0.2,0-0.2,0.2-0.1,0.4v0.1c0,0.1,0.1,0.3,0.1,0.4
							c0,0.1,0.1,0.3,0.1,0.4c0,0.1,0,0.3,0.1,0.4c0.1,0.1,0.1,0.1,0.2,0.1l0,0l0,0c0,0,0,0,0,0.1s0.1,0.1,0.1,0.1
							C90.3,141.1,90.4,141.2,90.5,141.5L90.5,141.5z"/>
						<path class="st1" d="M91.7,140.9c0.1,0,0.1,0.1,0.2,0.1c0.2,0.1,0.3,0.2,0.4,0.3c0,0,0,0,0.1,0c0.2,0.1,0.3,0,0.4-0.2V141
							h-0.1h-0.1h-0.1c-0.1,0-0.2-0.1-0.2-0.2c-0.1-0.1-0.2-0.1-0.3-0.2c-0.1,0-0.3,0-0.3,0l0,0l0,0h-0.1L91.7,140.9
							c-0.2,0.2-0.2,0.4-0.3,0.6c0,0.1,0,0.1-0.1,0.2c0,0,0,0.1,0,0.2c0,0,0,0,0,0.1l0,0l0.1,0.1c0,0,0,0.1,0,0.2v0.1
							c0,0.1,0,0.1,0,0.2c0,0,0,0,0,0.1l0,0l0.1,0.1l0,0l0,0c0,0,0.1,0,0.1-0.1s0-0.2,0-0.3s0-0.2,0-0.2s0-0.1,0.1-0.1l0,0l0,0
							l0.1,0.6l0.3,0.2l-0.2-1l0.3-0.1l-0.1-0.2l0,0c0,0,0,0-0.1,0s-0.1,0-0.2,0c0,0-0.1,0-0.1-0.1s-0.1-0.2-0.1-0.4
							C91.7,140.9,91.7,140.9,91.7,140.9L91.7,140.9L91.7,140.9z"/>
						<path class="st1" d="M99.4,157.8L99.4,157.8c-0.2,0-0.3,0.1-0.4,0.1c-0.2,0-0.5,0.1-0.7,0.1s-0.5,0-0.7,0.1
							c-0.1,0-0.2,0-0.3,0l0,0v0.2l0,0l0.1,0.1c0.1,0.1,0.1,0.2,0.2,0.2c0,0,0,0,0.1,0c0.2,0,0.4,0,0.6-0.1l0,0
							c0.3-0.1,0.6-0.2,0.9-0.3h0.1c0.1,0,0.1-0.1,0.2-0.1c0,0,0,0,0.1,0c0,0,0,0,0-0.1l0,0v-0.1L99.4,157.8L99.4,157.8z"/>
						<polygon class="st1" points="57.3,107 57.5,106.8 57.7,107.2 57.8,107.2 57.8,106.4 57.5,106.1 57.4,105.8 57.7,105.8 
							57.6,105.5 56.6,106.3 57.4,106.7 57.3,106.8 						"/>
						<path class="st1" d="M76.4,111L76.4,111C76.4,110.9,76.3,110.9,76.4,111c-0.2-0.2-0.2-0.3-0.2-0.4s0-0.2,0-0.2
							c0.2-0.2,0.4-0.3,0.7-0.2c0.2,0,0.3,0.1,0.5,0.1c0.1,0,0.1,0,0.2,0.1l0,0v-0.2l0,0c-0.1,0-0.2-0.1-0.3-0.1
							c-0.2-0.1-0.5-0.2-0.7-0.3s-0.4-0.1-0.5,0s-0.2,0.2-0.3,0.4c0,0.1-0.1,0.1-0.1,0.2l0,0l0.8,0.8L76.4,111z"/>
						<path class="st1" d="M64.4,105.9c0.2,0.3,0.4,0.5,0.5,0.6c0.3,0.2,0.6,0.1,0.9,0l0,0v-0.1c0-0.1-0.1-0.1-0.1-0.2
							c-0.1-0.1-0.2-0.2-0.2-0.3c-0.2-0.1-0.4-0.1-0.6-0.2c-0.1,0-0.1,0-0.2-0.1l-0.1-0.4l-0.3,0.1l0.1,0.1L64.4,105.9L64.4,105.9z"
							/>
						<path class="st1" d="M70.3,105.8C70.4,105.8,70.4,105.8,70.3,105.8L70.3,105.8c0.1,0,0.1,0,0.2,0.1l0,0h-0.3v0.1l0,0l-0.1-0.1
							l0.1,0.1c0.1,0.2,0.2,0.3,0.3,0.4h0.1c0.1,0,0.3-0.1,0.4-0.2l0.1-0.1l0,0V106c0,0,0-0.1-0.1-0.1c-0.1-0.1-0.1-0.2-0.2-0.3
							c-0.1-0.1-0.1-0.2-0.2-0.2l-0.1-0.1l0,0v0.2l-0.8-0.5v0.1C69.9,105.7,70.1,105.8,70.3,105.8z"/>
						<path class="st1" d="M89.4,142.1c0.2,0.2,0.4,0.4,0.6,0.5l0.3,0.3v-0.4l0,0c0,0-0.1,0-0.1-0.1c-0.1,0-0.1-0.1-0.1-0.1
							c-0.2-0.3-0.3-0.6-0.6-0.6c-0.1,0-0.2-0.2-0.4-0.3c0-0.1-0.1-0.1-0.1-0.1l0,0c-0.1-0.1-0.2-0.2-0.3-0.2s-0.1,0.1-0.2,0.2l0,0
							l0.3,0.3C89,141.7,89.2,141.9,89.4,142.1z"/>
						<path class="st1" d="M100.9,157.8L100.9,157.8c-0.1-0.1-0.2-0.2-0.3-0.3c-0.1-0.2-0.1-0.4,0-0.6l0,0l-0.3-0.4v0.1
							c0.1,0.3,0.1,0.6,0.1,0.8c-0.1,0.2-0.2,0.3-0.5,0.3l0,0l0.1,0.4l-0.2,0.2l0.1,0.2l1.2-0.4L100.9,157.8z"/>
						<path class="st1" d="M51.8,111.8v-0.2l0,0c-0.1-0.1-0.1-0.2-0.2-0.2c-0.1-0.2-0.3-0.4-0.4-0.5c-0.4-0.6-0.8-0.9-1.2-0.9
							c-0.1,0-0.1,0-0.2,0.1c0,0,0,0-0.1,0l0,0l0.1,0.2l0,0c0.2-0.2,0.5,0,0.8,0.4c0.1,0.2,0.2,0.3,0.4,0.5l0,0l0,0l0,0l-0.1,0.2
							L51.8,111.8z"/>
						<path class="st1" d="M50.2,96c0.1,0,0.3,0.1,0.4,0.1h0.1l-0.1,0.2l0.3,0.1l-0.4-0.1l0.8,0.6l0,0l-0.8-0.4l0.1,0.1
							c0.2,0.3,0.4,0.6,0.7,0.7c0.1,0.1,0.2,0.1,0.4,0.1h0.1c0.1,0,0.3,0,0.4,0.2c0.2,0.3,0.5,0.3,0.7,0.2H53h0.1l-0.3-0.4L53,97
							l-0.1-0.2l0,0c0,0,0,0-0.1,0s-0.1,0-0.2,0c-0.1,0-0.2,0.1-0.2,0.1s0-0.1,0-0.2l0,0l-0.2-0.2c-0.1-0.1-0.3-0.2-0.4-0.3
							c-0.1-0.1-0.2-0.1-0.2-0.2l0,0l0.1-0.1v-0.1c-0.5-0.7-1-0.6-1.4-0.5c-0.1,0-0.1,0-0.2,0H50l0.1,0.1C50,95.9,50.1,95.9,50.2,96
							z"/>
						<path class="st1" d="M92,135.9c0-0.1,0-0.2,0-0.2v-0.1l0,0l-0.3-0.3v0.1c0,0.1,0,0.1,0,0.2c0,0.1,0,0.2,0,0.3l0,0
							c0,0.1,0,0.1,0,0.2c-0.1,0.1-0.1,0.4,0,0.5c0,0.1,0.1,0.1,0.1,0.2v0.1l0,0l0.7,0.7v-0.2c-0.1-0.2-0.1-0.5-0.4-0.5
							c0,0-0.1-0.1-0.1-0.2c-0.1-0.2-0.1-0.4,0-0.5C92,136.1,92,136,92,135.9z"/>
						<path class="st1" d="M55.3,98L55.3,98c0.2,0.1,0.3,0.2,0.4,0.2c0.2,0.1,0.4,0.3,0.6,0.4c0.1,0.1,0.2,0.1,0.3,0.2
							C57,99,57,99,57.2,98.9h0.1h-0.1c-0.1,0-0.2-0.1-0.2-0.1c-0.2-0.1-0.3-0.2-0.5-0.2s-0.3-0.2-0.5-0.4c0,0,0-0.1-0.1-0.1
							l0.2,0.1l0,0c0,0,0.1,0,0.1,0.1c0.1,0,0.2,0.1,0.2,0.2c0.1,0.2,0.3,0.2,0.4,0.3c0.2,0.1,0.4,0.2,0.5,0.4l0,0l0,0
							c0.1,0,0.2,0,0.3,0c0.2,0,0.4,0,0.7,0c0.2,0,0.3,0,0.5,0.1c0.5,0.2,1,0.3,1.5,0.2h0.1l-0.1-0.1c-1-0.8-2.1-1.3-3.3-1.4h-0.1
							c-0.3-0.4-0.6-0.4-0.9-0.3l0,0l0,0c0.1,0.3,0.2,0.4,0.3,0.5s0.2,0.1,0.4,0.1h0.1l0,0v0.1c0,0.1,0.1,0.1,0.1,0.2l0,0l0,0l0,0
							l-0.1-0.1l0,0c0,0,0-0.1-0.1-0.1c-0.2-0.1-0.3-0.1-0.5-0.2c-0.1,0-0.1,0-0.2,0c0,0,0,0-0.1,0l-0.2-0.1l0.1-0.1l-0.1-0.1
							c-0.1-0.1-0.1-0.2-0.2-0.3c0,0,0,0-0.1,0l0,0l0,0l0.3,0.4l-0.4-0.3v0.1l0.3,0.3L55.3,98z M57.4,97.9h-0.2l0.1,0.2l-0.2-0.3
							v-0.1l0,0c0,0,0-0.1-0.1-0.1L57.4,97.9z"/>
						<path class="st1" d="M52.1,96l-0.2,0.1l0.1,0.1c0.2,0.1,0.4,0.3,0.6,0.4c0.4,0.2,0.7,0.3,0.8,0.3l0,0L53,96.4l0,0
							c-0.1,0.1-0.2,0.2-0.2,0.1c-0.1,0-0.2-0.2-0.3-0.4h0.2V96l-0.8-0.3v0.2L52.1,96z"/>
						<path class="st1" d="M93.7,127.3L93.7,127.3L93.7,127.3C93.7,127.3,93.8,127.3,93.7,127.3l0.2,0.3L93.7,127.3
							C93.8,127.3,93.8,127.3,93.7,127.3l-1-1.9l0,0h-0.1l0,0c0,0,0,0.1,0.1,0.1c0,0.1,0.1,0.2,0.1,0.3c0.1,0.1,0.1,0.3,0.2,0.4
							c0.2,0.4,0.3,0.8,0.4,1.2v0.1c0.1,0.2,0.2,0.5,0.3,0.6c0,0,0.1,0,0.2,0l0,0V128c0-0.1-0.1-0.1-0.1-0.2
							c-0.1-0.2-0.2-0.3-0.3-0.5c0-0.1-0.1-0.2-0.1-0.3l0,0l0,0C93.6,127.2,93.6,127.2,93.7,127.3z"/>
						<path class="st1" d="M92.2,138.7c-0.1,0-0.1,0.1-0.1,0.2v0.1h0.1c0.1,0,0.1,0,0.2,0.1c0.1,0,0.1,0,0.1,0.1c0,0,0,0.1,0,0.2
							c0,0.1,0,0.2,0,0.3s0.1,0.2,0.2,0.2h0.1l0,0v-0.3l0.2,0.2v-0.1c0-0.1,0-0.1,0-0.2c0-0.2,0-0.3-0.1-0.5c0-0.1-0.1-0.1-0.1-0.2
							c-0.1,0-0.1,0-0.1,0c-0.1,0-0.1,0.1-0.2,0.2l0,0C92.4,138.8,92.3,138.7,92.2,138.7z"/>
						<path class="st1" d="M94.2,129.4c0.2,0.2,0.3,0.1,0.4,0.1c0,0,0,0,0.1,0c0,0,0,0,0-0.1c0,0,0-0.2-0.1-0.2
							c-0.2-0.2-0.4-0.4-0.6-0.5l-0.2-0.2v0.1v0.1c0,0.1,0,0.2,0,0.3c-0.1,0.2,0,0.4,0.1,0.5c0,0,0,0.1,0.1,0.1l0.1,0.1v-0.1
							C94.1,129.5,94.1,129.4,94.2,129.4C94,129.3,94.1,129.4,94.2,129.4z"/>
						<path class="st1" d="M66.2,109.5c0,0-0.1,0.1-0.1,0.2l0,0l0,0l-0.1-0.1l0,0l0,0l-0.1,0.6l-0.3-0.1l0.3,0.2l0,0l0,0l0,0l0,0
							l0,0H66c0.1,0,0.3,0.1,0.4,0.1c0,0,0-0.1,0-0.3c0-0.1,0-0.1,0-0.1h0.2v-0.1c0-0.2-0.1-0.3-0.2-0.3
							C66.3,109.6,66.3,109.5,66.2,109.5C66.3,109.5,66.3,109.5,66.2,109.5z"/>
						<path class="st1" d="M71.4,106.2c0.2,0.1,0.4,0.1,0.5,0.1H72l-1.2-0.8v0.2l0,0C71,105.9,71.2,106.1,71.4,106.2z"/>
						<path class="st1" d="M54,97.1L54,97.1c0.1,0.2,0.2,0.3,0.4,0.4h0.1c0.2,0,0.3,0,0.4-0.2v-0.1L54.5,97l-0.4-0.1
							c0,0-0.1-0.1-0.1-0.2c0,0,0,0-0.1,0s0,0.1,0,0.1C54,97,54,97,54,97.1z"/>
						<path class="st1" d="M54.9,100.4c-0.1-0.3-0.4-0.5-0.6-0.4c0,0-0.1,0-0.2,0H54l0,0v0.1l0,0h0.1c0.1,0,0.2,0.1,0.2,0.1
							c0.1,0,0.1,0.1,0.2,0.1c0.1,0,0.1,0.1,0.2,0.1l0,0h0.1l0,0l0,0v-0.1c0,0,0,0,0-0.1C54.9,100.5,54.9,100.4,54.9,100.4z"/>
						<path class="st1" d="M54.1,97.8L54.1,97.8v-0.3l-0.8-0.1l0.1,0.1c0,0,0,0.1,0.1,0.1c0,0.1,0.1,0.2,0.2,0.3h0.1l0,0
							C53.9,97.9,54,97.8,54.1,97.8z"/>
						<path class="st1" d="M88.2,117.1c0.1,0,0.2,0.1,0.2,0.1c0.1,0,0.1-0.1,0.1-0.1l0,0l-1.1-0.6l0.1,0.1
							C87.8,116.8,88.1,117,88.2,117.1z"/>
						<path class="st1" d="M83.4,133.3v1l0,0c0.2,0,0.3,0,0.3-0.1S83.6,133.9,83.4,133.3L83.4,133.3z"/>
						<path class="st1" d="M52.3,112.8L52.3,112.8l0.7,0.1l-0.1-0.1l-0.1-0.1c-0.1-0.1-0.1-0.1-0.1-0.1l0,0
							c-0.1-0.2-0.2-0.3-0.3-0.3l-0.4-0.4l0.1,0.5l-0.4-0.2v0.1L52.3,112.8L52.3,112.8z"/>
						<path class="st1" d="M45.1,99.3L45.1,99.3L45.1,99.3c0-0.5-0.2-0.7-0.4-0.9l0,0v0.1c0,0.2,0,0.3,0.1,0.5
							C44.8,99,44.9,99.2,45.1,99.3z"/>
						<path class="st1" d="M93.2,132.3c0-0.1,0-0.2,0-0.2c0-0.2,0-0.3-0.1-0.4c-0.1-0.1-0.2-0.2-0.3-0.2l-0.1-0.1l0,0v0.2l0.5,1
							V132.3z"/>
						<path class="st1" d="M91.4,133.5c0,0.1,0.1,0.3,0.2,0.5v0.1l0.1-0.9h-0.1C91.5,133.3,91.4,133.4,91.4,133.5z"/>
						<path class="st1" d="M80.8,111.6L80.8,111.6c-0.2-0.3-0.4-0.4-0.5-0.4s-0.2,0-0.2,0.2l0,0l0.7,0.4V111.6z"/>
						<path class="st1" d="M54.5,97.8c-0.1,0-0.2,0.1-0.2,0.2v0.1l0.9,0.1l-0.1-0.1C54.9,97.9,54.7,97.8,54.5,97.8z"/>
						<polygon class="st1" points="69.6,111.1 69.4,110.8 69.1,110.8 69.3,111.4 						"/>
						<path class="st1" d="M54.5,135.6l-0.1-0.1l0,0l-0.2-0.4v0.1v0.1c0,0.1-0.1,0.2,0,0.2c0,0.1,0.1,0.2,0.2,0.3l0.1,0.1l0,0
							l0.7,0.5l-0.1-0.2c0-0.1-0.1-0.1-0.1-0.2C54.8,136,54.7,135.8,54.5,135.6z"/>
						<path class="st1" d="M70.3,116.8L70.3,116.8C70.2,116.8,70.2,116.8,70.3,116.8c-0.2,0-0.2,0-0.3-0.1c0,0-0.1-0.1-0.2-0.1
							c0,0,0,0-0.1,0l0,0v0.1l0.5,0.7L70.3,116.8z"/>
						<path class="st1" d="M97.8,146.4c0.1,0,0.1,0,0.2,0s0.2-0.1,0.3-0.3V146l-0.7,0.1l0.1,0.1C97.6,146.3,97.7,146.4,97.8,146.4z"
							/>
						<path class="st1" d="M93.4,131.9L93.4,131.9h0.4l0,0l0,0c-0.1-0.2-0.1-0.3-0.3-0.3c-0.1,0-0.2,0.1-0.2,0.1
							S93.3,131.8,93.4,131.9L93.4,131.9z"/>
						<path class="st1" d="M100.3,152.6c0,0.1,0.1,0.1,0.1,0.2l0.2,0.4l-0.8-2v0.2C99.9,151.9,100.1,152.2,100.3,152.6z"/>
						<path class="st1" d="M55.1,97.2L55.1,97.2L55.1,97.2l0.1-0.2c0-0.1-0.1-0.2-0.1-0.2c-0.1-0.1-0.2-0.1-0.3-0.2
							c0,0-0.1,0-0.1-0.1l0,0v0.2L55.1,97.2z"/>
						<polygon class="st1" points="93.5,141.6 93.1,141 93.3,142.1 						"/>
						<polygon class="st1" points="41.4,94.6 41.5,94.8 42.2,94.9 42.2,94.7 						"/>
						<path class="st1" d="M68.9,115.9L68.9,115.9c0.3,0,0.3-0.2,0.3-0.4v-0.1v-0.1l0,0c-0.2,0-0.2,0.2-0.2,0.3
							C68.9,115.7,69,115.8,68.9,115.9L68.9,115.9z"/>
						<path class="st1" d="M75.3,108.1c0.1,0.1,0.2,0.1,0.3-0.1v-0.1h-0.7L75,108C75.2,107.9,75.2,108,75.3,108.1z"/>
						<path class="st1" d="M93.8,143.3c-0.1-0.2-0.2-0.4-0.3-0.5s-0.2-0.1-0.3,0l0,0L93.8,143.3L93.8,143.3z"/>
						<path class="st1" d="M92.7,138.5L92.7,138.5c0-0.1,0-0.2,0-0.2c0-0.1,0-0.2,0-0.3s-0.1-0.2-0.1-0.2s0-0.1-0.1-0.1v-0.1
							l-0.1,0.1l0.1,0.2l-0.1,0.2L92.7,138.5z"/>
						<path class="st1" d="M82,112.6c-0.2-0.3-0.4-0.4-0.4-0.4c-0.1,0-0.1,0.1-0.1,0.2v0.1l0.6,0.3L82,112.6z"/>
						<polygon class="st1" points="74.6,107.8 74.6,107.6 74.1,107.3 74.1,107.5 						"/>
						<path class="st1" d="M92.5,144.4h0.6l-0.1-0.1c-0.3-0.2-0.4-0.2-0.4-0.2C92.5,144.1,92.5,144.2,92.5,144.4L92.5,144.4z"/>
						<path class="st1" d="M53.1,98.2c0.1,0.1,0.1,0.2,0.2,0.2c0.1,0,0.1,0,0.2,0h0.1l0,0v-0.2H53.1L53.1,98.2z"/>
						<polygon class="st1" points="56,105.2 56.4,105.8 56.4,105.7 56,105.1 						"/>
					</g>
				</g>
				<g>
					<path class="st2" d="M69.7,116.1c0.1-1.8-1-3.8-2.3-4.6s-2.5,0-2.5,1.8c-0.1,1.8,1,3.8,2.3,4.6S69.7,117.9,69.7,116.1z"/>
					<path class="st3" d="M87.8,129.4c0.1-3.2-1.7-6.9-4.2-8.3c-2.4-1.4-4.4,0.1-4.6,3.3c-0.1,3.2,1.7,6.9,4.2,8.3
						C85.7,134,87.7,132.6,87.8,129.4z"/>
					<path class="st4" d="M49.4,102.4c0.1-1.7-0.9-3.6-2.2-4.4c-1.3-0.7-2.3,0-2.4,1.7c-0.1,1.7,0.9,3.6,2.2,4.4
						C48.3,104.8,49.3,104.1,49.4,102.4z"/>
					<path class="st5" d="M60.7,129c0.1-3-1.7-6.5-3.9-7.8c-2.3-1.3-4.2,0.1-4.3,3.1s1.7,6.5,3.9,7.8C58.6,133.4,60.6,132,60.7,129z
						"/>
				</g>
				<g>
					<text transform="matrix(0.7537 0.4341 -3.477000e-02 0.9994 16.0422 76.5271)" class="st1 st6 st7">Europe</text>
					<text transform="matrix(0.7537 0.4341 -3.477000e-02 0.9994 15.6493 87.8201)" class="st1 st6 st7">Noth America</text>
					<text transform="matrix(0.7537 0.4341 -3.477000e-02 0.9994 15.2521 99.2132)" class="st1 st6 st7">Asia</text>
					<text transform="matrix(0.7537 0.4341 -3.477000e-02 0.9994 14.86 110.5067)" class="st1 st6 st7">South America</text>
				</g>
				<g>
					<polygon class="st2" points="14.1,71.6 11.2,69.9 11.1,73.7 14,75.4 					"/>
					<polygon class="st3" points="13.7,82.8 10.8,81.2 10.7,85 13.6,86.7 					"/>
					<polygon class="st4" points="13.3,94.2 10.4,92.5 10.3,96.4 13.2,98 					"/>
					<polygon class="st5" points="12.9,105.4 10,103.8 9.9,107.6 12.8,109.3 					"/>
				</g>
			</g>
			<g>
				
					<linearGradient id="SVGID_2_" gradientUnits="userSpaceOnUse" x1="7.5484" y1="-183.4291" x2="119.3246" y2="-183.4291" gradientTransform="matrix(0.8598 0.4953 -3.970000e-02 1.1402 -3.7738 262.1965)">
					<stop  offset="0" style="stop-color:#393A5C"/>
					<stop  offset="1" style="stop-color:#525393"/>
				</linearGradient>
				<polygon class="st8" points="105.9,118 9.8,62.6 10.2,51 106.3,106.3 				"/>
				<g>
					<text transform="matrix(0.7537 0.4341 -3.477000e-02 0.9994 12.2506 59.3724)" class="st1 st6 st9">Conectivity</text>
				</g>
			</g>
		</g>
	</g>
	
		<linearGradient id="SVGID_3_" gradientUnits="userSpaceOnUse" x1="54.8179" y1="-151.2818" x2="95.5852" y2="-218.237" gradientTransform="matrix(1 0 0 1 0 250.17)">
		<stop  offset="0" style="stop-color:#FFFFFF"/>
		<stop  offset="1" style="stop-color:#FFFFFF;stop-opacity:0"/>
	</linearGradient>
	<polygon class="st10" points="114.7,97.8 169.9,67.3 57.6,0 0,31.5 	"/>
	
		<linearGradient id="SVGID_4_" gradientUnits="userSpaceOnUse" x1="107.115" y1="-108.5954" x2="149.6766" y2="-123.9273" gradientTransform="matrix(1 0 0 1 0 250.17)">
		<stop  offset="0" style="stop-color:#FFFFFF"/>
		<stop  offset="1" style="stop-color:#FFFFFF;stop-opacity:0"/>
	</linearGradient>
	<polygon class="st11" points="114.7,97.7 169.9,67.3 169.9,158.6 114.7,190.5 	"/>
</g>
</svg>
