<?xml version="1.0" encoding="utf-8"?>
<!-- Generator: Adobe Illustrator 23.0.0, SVG Export Plug-In . SVG Version: 6.00 Build 0)  -->
<svg version="1.1" id="Слой_1" xmlns="http://www.w3.org/2000/svg" xmlns:xlink="http://www.w3.org/1999/xlink" x="0px" y="0px"
	 viewBox="0 0 114 136.9" style="enable-background:new 0 0 114 136.9;" xml:space="preserve">
<style type="text/css">
	.st0{opacity:0.75;fill:url(#SVGID_1_);enable-background:new    ;}
	.st1{fill:#FFFFFF;}
	.st2{font-family:'ArialMT';}
	.st3{font-size:2.6707px;}
	.st4{fill:url(#SVGID_2_);}
	.st5{fill:#AC515D;}
	.st6{fill:url(#SVGID_3_);}
	.st7{fill:#81C1B2;}
	.st8{fill:url(#SVGID_4_);}
	.st9{fill:#E0AD4A;}
	.st10{fill:url(#SVGID_5_);}
	.st11{fill:#393A5C;}
	.st12{fill:url(#SVGID_6_);}
	.st13{fill:url(#SVGID_7_);}
	.st14{font-size:3.0644px;}
	.st15{opacity:0.3;fill:url(#SVGID_8_);enable-background:new    ;}
	.st16{opacity:0.3;fill:url(#SVGID_9_);enable-background:new    ;}
</style>
<g>
	
		<linearGradient id="SVGID_1_" gradientUnits="userSpaceOnUse" x1="-14.2978" y1="-215.6506" x2="102.8508" y2="-133.6223" gradientTransform="matrix(1 0 0 1 0 250.17)">
		<stop  offset="0" style="stop-color:#525393"/>
		<stop  offset="0.2201" style="stop-color:#65589F"/>
		<stop  offset="0.5683" style="stop-color:#75589F"/>
		<stop  offset="1" style="stop-color:#81C1B2"/>
	</linearGradient>
	<polygon class="st0" points="0,14.1 0,85.8 88.6,136.9 88.6,65.3 	"/>
	<g>
		<g>
			<g>
				<text transform="matrix(0.8671 0.5012 -8.799318e-03 1 6.5441 42.0498)" class="st1 st2 st3">App Usage across versions</text>
			</g>
			<g>
				<g>
					
						<linearGradient id="SVGID_2_" gradientUnits="userSpaceOnUse" x1="11.0935" y1="-87.7832" x2="57.2039" y2="-87.7832" gradientTransform="matrix(0.9289 0.5368 -9.400000e-03 1.0711 14.2542 146.7769)">
						<stop  offset="0" style="stop-color:#393A5C"/>
						<stop  offset="1" style="stop-color:#525393"/>
					</linearGradient>
					<polygon class="st4" points="68.2,85.3 25.4,60.5 25.4,56.9 68.2,81.6 					"/>
					<polygon class="st5" points="53.7,76.9 25.4,60.5 25.4,56.9 53.8,73.3 					"/>
					<g>
						<text transform="matrix(0.8671 0.5012 -8.799318e-03 1 6.1504 48.4508)" class="st1 st2 st3">0.1.5.1</text>
					</g>
					<g>
						<text transform="matrix(0.8671 0.5012 -8.799318e-03 1 76.1987 88.9356)" class="st1 st2 st3">134K</text>
					</g>
				</g>
				<g>
					
						<linearGradient id="SVGID_3_" gradientUnits="userSpaceOnUse" x1="11.0494" y1="-81.5327" x2="57.1686" y2="-81.5327" gradientTransform="matrix(0.9289 0.5368 -9.400000e-03 1.0711 14.2542 146.7769)">
						<stop  offset="0" style="stop-color:#393A5C"/>
						<stop  offset="1" style="stop-color:#525393"/>
					</linearGradient>
					<polygon class="st6" points="68.1,92 25.3,67.2 25.3,63.6 68.2,88.3 					"/>
					<polygon class="st7" points="42.8,77.3 25.3,67.2 25.3,63.6 42.8,73.7 					"/>
					<g>
						<text transform="matrix(0.8671 0.5012 -8.799318e-03 1 6.0908 55.1268)" class="st1 st2 st3">0.1.5.2</text>
					</g>
					<g>
						<text transform="matrix(0.8671 0.5012 -8.799318e-03 1 76.14 95.6116)" class="st1 st2 st3">134K</text>
					</g>
				</g>
				<g>
					
						<linearGradient id="SVGID_4_" gradientUnits="userSpaceOnUse" x1="11.0391" y1="-75.313" x2="57.1582" y2="-75.313" gradientTransform="matrix(0.9289 0.5368 -9.400000e-03 1.0711 14.2542 146.7769)">
						<stop  offset="0" style="stop-color:#393A5C"/>
						<stop  offset="1" style="stop-color:#525393"/>
					</linearGradient>
					<polygon class="st8" points="68.1,98.7 25.2,73.9 25.3,70.2 68.1,95 					"/>
					<polygon class="st9" points="36.1,80.2 25.2,73.9 25.3,70.2 36.2,76.5 					"/>
					<g>
						<text transform="matrix(0.8671 0.5012 -8.799318e-03 1 6.0329 61.8018)" class="st1 st2 st3">0.1.5.3</text>
					</g>
					<g>
						<text transform="matrix(0.8671 0.5012 -8.799318e-03 1 76.0813 102.2861)" class="st1 st2 st3">134K</text>
					</g>
				</g>
				<g>
					
						<linearGradient id="SVGID_5_" gradientUnits="userSpaceOnUse" x1="11.0673" y1="-69.0665" x2="57.1777" y2="-69.0665" gradientTransform="matrix(0.9289 0.5368 -9.400000e-03 1.0711 14.2542 146.7769)">
						<stop  offset="0" style="stop-color:#393A5C"/>
						<stop  offset="1" style="stop-color:#525393"/>
					</linearGradient>
					<polygon class="st10" points="68,105.3 25.2,80.6 25.2,76.9 68,101.7 					"/>
					<polygon class="st11" points="31,83.9 25.2,80.6 25.2,76.9 31,80.2 					"/>
					<g>
						<text transform="matrix(0.8671 0.5012 -8.799318e-03 1 5.9733 68.4783)" class="st1 st2 st3">0.1.5.4</text>
					</g>
					<g>
						<text transform="matrix(0.8671 0.5012 -8.799318e-03 1 76.0225 108.9626)" class="st1 st2 st3">134K</text>
					</g>
				</g>
				<g>
					
						<linearGradient id="SVGID_6_" gradientUnits="userSpaceOnUse" x1="11.0747" y1="-62.8316" x2="57.194" y2="-62.8316" gradientTransform="matrix(0.9289 0.5368 -9.400000e-03 1.0711 14.2542 146.7769)">
						<stop  offset="0" style="stop-color:#393A5C"/>
						<stop  offset="1" style="stop-color:#525393"/>
					</linearGradient>
					<polygon class="st12" points="68,112 25.1,87.3 25.1,83.6 68,108.3 					"/>
					<polygon class="st1" points="27.3,88.5 25.1,87.3 25.1,83.6 27.3,84.8 					"/>
					<g>
						<text transform="matrix(0.8671 0.5012 -8.799318e-03 1 5.9146 75.1548)" class="st1 st2 st3">0.1.5.5</text>
					</g>
					<g>
						<text transform="matrix(0.8671 0.5012 -8.799318e-03 1 75.9638 115.6401)" class="st1 st2 st3">134K</text>
					</g>
				</g>
			</g>
		</g>
		<g>
			
				<linearGradient id="SVGID_7_" gradientUnits="userSpaceOnUse" x1="-11.026" y1="-101.5812" x2="74.415" y2="-101.5812" gradientTransform="matrix(0.9289 0.5368 -9.400000e-03 1.0711 14.2542 146.7769)">
				<stop  offset="0" style="stop-color:#393A5C"/>
				<stop  offset="1" style="stop-color:#525393"/>
			</linearGradient>
			<polygon class="st13" points="84.3,81.7 5,35.8 5,28.3 84.3,74.1 			"/>
			<g>
				<text transform="matrix(0.8671 0.5012 -8.799318e-03 1 6.666 33.8998)" class="st1 st2 st14">App Versions</text>
			</g>
		</g>
	</g>
	
		<linearGradient id="SVGID_8_" gradientUnits="userSpaceOnUse" x1="85.6234" y1="-151.5261" x2="117.5656" y2="-160.7847" gradientTransform="matrix(1 0 0 1 0 250.17)">
		<stop  offset="0" style="stop-color:#FFFFFF"/>
		<stop  offset="0.7959" style="stop-color:#FFFFFF;stop-opacity:0"/>
	</linearGradient>
	<polygon class="st15" points="88.6,65.3 114,51.3 114,121.9 88.6,136.9 	"/>
	
		<linearGradient id="SVGID_9_" gradientUnits="userSpaceOnUse" x1="42.7321" y1="-199.3975" x2="63.5641" y2="-225.7845" gradientTransform="matrix(1 0 0 1 0 250.17)">
		<stop  offset="0" style="stop-color:#FFFFFF"/>
		<stop  offset="1" style="stop-color:#FFFFFF;stop-opacity:0"/>
	</linearGradient>
	<polygon class="st16" points="88.6,65.3 114,51.3 23.5,0.2 0,14.1 	"/>
</g>
</svg>
