<?xml version="1.0" encoding="utf-8"?>
<!-- Generator: Adobe Illustrator 23.0.0, SVG Export Plug-In . SVG Version: 6.00 Build 0)  -->
<svg version="1.1" id="Слой_1" xmlns="http://www.w3.org/2000/svg" xmlns:xlink="http://www.w3.org/1999/xlink" x="0px" y="0px"
	 viewBox="0 0 103 127.3" style="enable-background:new 0 0 103 127.3;" xml:space="preserve">
<style type="text/css">
	.st0{opacity:0.75;fill:url(#SVGID_1_);enable-background:new    ;}
	.st1{fill:#FFFFFF;}
	.st2{font-family:'ArialMT';}
	.st3{font-size:4.1259px;}
	.st4{font-size:3.0935px;}
	.st5{fill:#AC515D;}
	.st6{fill:#81C1B2;}
	.st7{fill:#E0AD4A;}
	.st8{fill:#393A5C;}
	.st9{fill:url(#SVGID_2_);}
	.st10{font-size:3.5496px;}
	.st11{opacity:0.3;fill:url(#SVGID_3_);enable-background:new    ;}
	.st12{opacity:0.3;fill:url(#SVGID_4_);enable-background:new    ;}
</style>
<g>
	<g>
		
			<linearGradient id="SVGID_1_" gradientUnits="userSpaceOnUse" x1="-13.5063" y1="-219.781" x2="97.1594" y2="-142.292" gradientTransform="matrix(1 0 0 1 0 250.17)">
			<stop  offset="0" style="stop-color:#525393"/>
			<stop  offset="0.2201" style="stop-color:#65589F"/>
			<stop  offset="0.5683" style="stop-color:#75589F"/>
			<stop  offset="1" style="stop-color:#81C1B2"/>
		</linearGradient>
		<polygon class="st0" points="0,11.1 0,78.8 83.7,127.1 83.7,59.5 		"/>
		<g>
			<g>
				<g>
					<g>
						<text transform="matrix(0.7495 0.4414 5.098000e-02 0.9987 11.5819 41.7636)" class="st1 st2 st3">Top 4</text>
					</g>
					<g>
						<text transform="matrix(0.7495 0.4414 5.098000e-02 0.9987 37.1082 56.7962)" class="st1 st2 st3">Device</text>
					</g>
					<g>
						<text transform="matrix(0.7495 0.4414 5.098000e-02 0.9987 61.6516 71.25)" class="st1 st2 st3">Progress</text>
					</g>
					<g>
						<text transform="matrix(0.6368 0.375 5.098000e-02 0.9987 40.3487 67.1951)" class="st1 st2 st4">IOS</text>
						<text transform="matrix(0.6368 0.375 5.098000e-02 0.9987 40.7821 75.684)" class="st1 st2 st4">Android</text>
						<text transform="matrix(0.6368 0.375 5.098000e-02 0.9987 41.2154 84.1725)" class="st1 st2 st4">Blackberry</text>
						<text transform="matrix(0.6368 0.375 5.098000e-02 0.9987 41.6487 92.6619)" class="st1 st2 st4">Others</text>
					</g>
					<g>
						<text transform="matrix(0.6368 0.375 5.098000e-02 0.9987 66.5319 82.6148)" class="st1 st2 st4">45%</text>
						<text transform="matrix(0.6368 0.375 5.098000e-02 0.9987 66.9652 91.1033)" class="st1 st2 st4">20%</text>
						<text transform="matrix(0.6368 0.375 5.098000e-02 0.9987 67.3985 99.5922)" class="st1 st2 st4">15%</text>
						<text transform="matrix(0.6368 0.375 5.098000e-02 0.9987 67.8319 108.0812)" class="st1 st2 st4">10%</text>
					</g>
				</g>
				<g>
					<path class="st5" d="M17.2,64.6c-0.2-3.7,1.6-5.6,3.9-4.3l-0.4-8.5c-5.4-3.1-9.4,1.2-8.9,9.6c0.3,4.9,2,10.2,4.5,14.4l3-4.8
						C18.1,69.2,17.3,66.8,17.2,64.6z"/>
					<path class="st6" d="M21.9,74c-1-0.6-1.9-1.7-2.7-3l-3,4.8c1.7,3,3.9,5.4,6.1,6.7c4.6,2.7,8.1,0,8.9-6l-5.4-5.1
						C25.5,74,23.9,75.2,21.9,74z"/>
					<g>
						<path class="st7" d="M27.2,59.1l-3.3,4.2c1.1,1.9,1.9,4.2,2,6.4c0,0.6,0,1.2-0.1,1.7l5.4,5.1c0.1-1.1,0.2-2.3,0.1-3.6
							C31.1,68.2,29.5,63.2,27.2,59.1z"/>
						<path class="st8" d="M20.8,51.9L20.8,51.9l0.4,8.5c0,0,0,0,0.1,0c1,0.6,1.9,1.6,2.7,2.9l3.3-4.2
							C25.4,55.9,23.2,53.3,20.8,51.9z"/>
					</g>
				</g>
				<g>
					<polygon class="st5" points="38.2,63.5 36.4,62.4 36.5,65.3 38.4,66.4 					"/>
					<polygon class="st6" points="38.7,71.9 36.8,70.8 37,73.7 38.8,74.8 					"/>
					<polygon class="st7" points="39.1,80.4 37.2,79.3 37.4,82.2 39.2,83.3 					"/>
					<polygon class="st8" points="39.5,88.9 37.7,87.8 37.8,90.7 39.7,91.8 					"/>
				</g>
			</g>
			<g>
				
					<linearGradient id="SVGID_2_" gradientUnits="userSpaceOnUse" x1="-21.3371" y1="-223.6839" x2="53.7716" y2="-223.6839" gradientTransform="matrix(0.8108 0.4775 6.490000e-02 1.2716 41.4953 325.076)">
					<stop  offset="0" style="stop-color:#393A5C"/>
					<stop  offset="1" style="stop-color:#525393"/>
				</linearGradient>
				<polygon class="st9" points="70.8,70.7 9.9,34.8 9.5,26.1 70.3,61.9 				"/>
				<g>
					<text transform="matrix(0.6368 0.375 5.098000e-02 0.9987 11.1421 32.3264)" class="st1 st2 st10">Device Usage</text>
				</g>
			</g>
		</g>
	</g>
	
		<linearGradient id="SVGID_3_" gradientUnits="userSpaceOnUse" x1="42.2751" y1="-205.3727" x2="56.7436" y2="-229.9691" gradientTransform="matrix(1 0 0 1 0 250.17)">
		<stop  offset="0" style="stop-color:#FFFFFF"/>
		<stop  offset="0.9505" style="stop-color:#FFFFFF;stop-opacity:0"/>
	</linearGradient>
	<polygon class="st11" points="83.7,59.4 101.9,49 19.7,0 0,11.1 	"/>
	
		<linearGradient id="SVGID_4_" gradientUnits="userSpaceOnUse" x1="82.6054" y1="-161.1254" x2="102.379" y2="-163.0545" gradientTransform="matrix(1 0 0 1 0 250.17)">
		<stop  offset="0" style="stop-color:#FFFFFF"/>
		<stop  offset="0.9204" style="stop-color:#FFFFFF;stop-opacity:0"/>
	</linearGradient>
	<polygon class="st12" points="83.7,59.5 101.9,49 101.9,115.8 83.7,127.1 	"/>
</g>
</svg>
