<svg width="132" height="40" viewBox="0 0 132 40" fill="none" xmlns="http://www.w3.org/2000/svg">
<rect width="132" height="40" rx="20" fill="white"/>
<path d="M55.5864 32.5208H51.0887V31.5301C50.297 32.0841 49.459 32.468 48.5741 32.6805C47.6885 32.8933 46.7781 33 45.841 33C44.9665 33 44.1747 32.8666 43.4669 32.6006C42.7589 32.3344 42.1445 31.9512 41.6243 31.4501C41.1034 30.9501 40.7028 30.3588 40.4216 29.6771C40.1404 28.9956 40 28.2393 40 27.4084C40 26.3649 40.2237 25.4541 40.6716 24.6765C41.119 23.8988 41.7282 23.2495 42.4989 22.7274C43.269 22.2056 44.1695 21.8164 45.2008 21.5609C46.2314 21.305 47.3402 21.1775 48.5273 21.1775H51.1196C51.1196 20.0912 50.7763 19.228 50.089 18.5893C49.4019 17.9502 48.4126 17.6306 47.1214 17.6306C46.4967 17.6306 45.8511 17.748 45.185 17.9824C44.5183 18.217 43.8521 18.6429 43.186 19.2605L40.5309 16.5124C41.4883 15.5756 42.5973 14.8511 43.8574 14.3401C45.1171 13.8286 46.4135 13.5732 47.7465 13.5732C48.9958 13.5732 50.1081 13.7758 51.0837 14.1802C52.0591 14.5849 52.8465 15.1067 53.4465 15.7456C54.2322 16.5553 54.7853 17.4607 55.1061 18.4617C55.4258 19.4631 55.5866 20.7411 55.5866 22.2958V32.5208H55.5864ZM51.0886 27.9199V24.5004H49.0268C48.4022 24.5004 47.8135 24.5435 47.2619 24.6283C46.7097 24.7139 46.2311 24.8573 45.8254 25.0597C45.419 25.2623 45.096 25.5234 44.8567 25.843C44.6174 26.1623 44.4978 26.5455 44.4978 26.9931C44.4978 27.6321 44.7422 28.1544 45.2315 28.5588C45.7207 28.9635 46.3508 29.1657 47.1212 29.1657C47.7873 29.1657 48.449 29.0593 49.1051 28.8462C49.761 28.6337 50.4216 28.3244 51.0886 27.9199Z" fill="#131315"/>
<path d="M76.2092 32.5205H70.8681L63.6213 24.2448V32.5205H59.0296V6.0318H63.6213V21.8802L69.931 14.0517H75.1784L67.7755 23.0303L76.2092 32.5205Z" fill="#131315"/>
<path d="M85.3922 32.425C85.0376 32.595 84.6366 32.7336 84.1892 32.8401C83.7412 32.9466 83.2782 33 82.7995 33C82.1328 33 81.4924 32.9093 80.8785 32.7286C80.2636 32.5474 79.7275 32.2546 79.2697 31.8495C78.8115 31.4451 78.4471 30.9181 78.1765 30.2681C77.9055 29.6185 77.7706 28.8358 77.7706 27.9199V6H82.3623V27.1208C82.3623 27.8874 82.513 28.4145 82.8153 28.7021C83.1164 28.9899 83.4759 29.1335 83.8929 29.1335C84.4131 29.1335 84.9127 28.9738 85.3923 28.6544V32.425H85.3922Z" fill="#131315"/>
<path d="M106.226 23.2545C106.226 23.5532 106.211 23.8616 106.179 24.1807C106.148 24.5003 106.112 24.8311 106.07 25.1715H91.639C91.8055 25.7042 92.0399 26.21 92.3416 26.6893C92.6434 27.1686 93.0135 27.5838 93.4506 27.9352C93.8881 28.287 94.3824 28.5641 94.9343 28.7663C95.4856 28.9688 96.0949 29.07 96.7616 29.07C97.5741 29.07 98.3859 28.926 99.1982 28.6387C100.01 28.3508 100.687 27.9624 101.229 27.4724L104.071 30.3799C102.821 31.3383 101.598 32.0151 100.401 32.4087C99.2028 32.8028 97.9379 33 96.6055 33C95.2518 33 93.9864 32.7446 92.8105 32.2332C91.6337 31.7219 90.6133 31.0301 89.7493 30.1562C88.885 29.2831 88.2032 28.255 87.7036 27.0727C87.2034 25.8905 86.9539 24.6283 86.9539 23.2865C86.9539 21.9441 87.2034 20.6824 87.7036 19.5C88.2032 18.3176 88.8902 17.2906 89.765 16.4168C90.6396 15.5434 91.6597 14.851 92.8259 14.34C93.992 13.8285 95.2414 13.573 96.5742 13.573C97.8441 13.573 99.0624 13.8126 100.229 14.2919C101.395 14.7712 102.426 15.437 103.321 16.289C104.216 17.1411 104.925 18.158 105.445 19.3404C105.966 20.5224 106.226 21.8275 106.226 23.2545ZM101.509 21.4648C101.155 20.2936 100.526 19.351 99.6195 18.6372C98.7139 17.9238 97.6877 17.5668 96.5431 17.5668C95.4186 17.5668 94.408 17.9238 93.5133 18.6372C92.6177 19.351 91.993 20.2936 91.639 21.4648H101.509Z" fill="#131315"/>
<path d="M122 16.183L119.595 20.081C119.158 19.5912 118.673 19.1598 118.143 18.7873C117.612 18.4146 117.075 18.228 116.534 18.228C116.242 18.228 115.925 18.2972 115.581 18.4355C115.237 18.5743 114.915 18.8027 114.613 19.1222C114.311 19.4415 114.055 19.8629 113.848 20.3845C113.639 20.9065 113.535 21.5507 113.535 22.3174V32.7343H109.037V14.2657H113.535V16.2465C114.077 15.459 114.676 14.8518 115.331 14.4256C115.987 13.9995 116.721 13.7865 117.533 13.7865C118.324 13.7865 119.1 14.0048 119.861 14.4413C120.62 14.8782 121.333 15.459 122 16.183Z" fill="#131315"/>
<path d="M24.4615 19.7147L25.6435 19.1675L23.5 16.25L21.3565 19.1675L22.5385 19.7147L20.65 31.8488L23.5 35L26.35 31.8488L24.4615 19.7147Z" fill="#E96161"/>
<path d="M15.1 31.7752L10 33.35V8.15001L15.1 21.323V31.7752Z" fill="#2D9EEC"/>
<path d="M31.9 31.7752L37 33.35V8.15001L31.9 21.323V31.7752Z" fill="#2D9EEC"/>
<path d="M19.3212 20.8859L10.0062 7.36836L10 7.36956L19.0176 23.2684L23.5 16.7677V15.9845L19.3212 20.8859Z" fill="#131315"/>
<path d="M27.6788 20.8859L36.9937 7.36836L37 7.36956L27.9823 23.2684L23.5 16.7677V15.9845L27.6788 20.8859Z" fill="#131315"/>
<path d="M23.5 5L11.65 5.79275L23.5 16.1L35.35 5.79275L23.5 5Z" fill="#9E9E9E"/>
</svg>
