<svg width="16" height="11" viewBox="0 0 16 11" fill="none" xmlns="http://www.w3.org/2000/svg">
<path d="M16 1.36405V5.96994C16 5.96994 14.9634 6.16415 14.7499 6.18969C14.537 6.21517 13.868 6.42059 13.3832 5.97743C12.6355 5.29599 9.97909 2.78373 9.97909 2.78373C9.97909 2.78373 9.52106 2.35633 8.78563 2.72571C8.11054 3.06408 7.10981 3.55998 6.69181 3.75308C5.90163 4.15304 5.24671 3.51847 5.24671 3.0351C5.24671 2.66017 5.49273 2.4057 5.84442 2.21855C6.79753 1.66908 8.80642 0.59677 9.64312 0.174003C10.1517 -0.0832302 10.5181 -0.105273 11.2164 0.454108C12.0763 1.14188 12.8416 1.7688 12.8416 1.7688C12.8416 1.7688 13.0912 1.9669 13.4893 1.88711C14.4668 1.69057 16 1.36405 16 1.36405ZM5.42665 9.16828C5.5553 8.85397 5.5123 8.50243 5.26566 8.26125C5.04404 8.04553 4.72047 7.98867 4.41194 8.0559C4.49823 7.7649 4.45058 7.45517 4.22777 7.23659C4.00547 7.02141 3.68252 6.96342 3.37402 7.03127C3.45967 6.74069 3.41215 6.43099 3.1892 6.21305C2.8401 5.87253 2.23625 5.88715 1.83956 6.24673C1.44497 6.60681 1.1922 7.25918 1.54437 7.64317C1.89596 8.02523 2.29995 7.79277 2.60792 7.72603C2.52224 8.01661 2.26553 8.28689 2.58168 8.66723C2.89753 9.04775 3.33722 8.81689 3.64552 8.75076C3.55955 9.04023 3.31404 9.33765 3.61805 9.6903C3.9248 10.044 4.42721 9.85555 4.75905 9.75753C4.63098 10.0706 4.35687 10.4082 4.70904 10.7864C5.06066 11.1673 5.87325 10.9911 6.27017 10.6309C6.66602 10.2709 6.70401 9.70018 6.35584 9.35859C6.11547 9.12422 5.75713 9.0697 5.42665 9.16828ZM12.6691 6.77204C9.79979 4.04341 11.1494 5.32736 9.60526 3.8558C9.60526 3.8558 9.14119 3.41646 8.52956 3.67166C8.1002 3.85058 7.54743 4.09443 7.1315 4.28059C6.67444 4.50851 6.34551 4.57906 6.19107 4.57807C5.3075 4.57258 4.59063 3.89721 4.59063 3.05779C4.59063 2.51324 4.89463 2.03914 5.34804 1.77003C5.98563 1.35045 7.4532 0.60813 7.4532 0.60813C7.4532 0.60813 7.00611 0.0693786 6.02672 0.0693786C5.04762 0.0693786 3.002 1.34379 3.002 1.34379C3.002 1.34379 2.42168 1.69727 1.59444 1.37888L0 0.850873V6.12132C0 6.12132 0.455282 6.24664 0.864368 6.40554C0.956761 6.15497 1.10584 5.92359 1.31265 5.73248C1.99132 5.11775 3.11625 5.11136 3.73372 5.71599C3.91973 5.89979 4.04954 6.11905 4.11578 6.36143C4.36458 6.43446 4.58995 6.56383 4.77105 6.74127C4.95762 6.92385 5.08694 7.14433 5.15373 7.38548C5.40225 7.45858 5.62729 7.58844 5.80901 7.766C6.01365 7.96669 6.14998 8.20909 6.21364 8.47173C6.47342 8.54369 6.70818 8.67757 6.89726 8.8614C7.26834 9.22388 7.40006 9.71566 7.32026 10.19C7.3209 10.19 7.32213 10.19 7.32271 10.1911C7.32878 10.1987 7.55263 10.436 7.69222 10.5698C7.96578 10.8302 8.41248 10.8302 8.68688 10.5698C8.95947 10.3095 8.96067 9.88555 8.68688 9.62393C8.67706 9.61462 7.69993 8.64267 7.77857 8.5673C7.85663 8.49245 9.10155 9.72431 9.12473 9.74685C9.39794 10.0067 9.84434 10.0067 10.1188 9.74685C10.3926 9.48654 10.392 9.06258 10.1188 8.80157C10.1053 8.78941 10.0493 8.73836 10.0285 8.71804C10.0285 8.71804 8.79422 7.6724 8.88816 7.58306C8.98326 7.49318 10.5164 8.85379 10.5189 8.85379C10.7945 9.08981 11.219 9.08806 11.4842 8.8358C11.7421 8.59051 11.7477 8.20249 11.519 7.94102C11.5141 7.92712 10.3505 6.77072 10.4413 6.68371C10.5335 6.59557 11.6848 7.72299 11.6873 7.72533C11.9599 7.98514 12.4069 7.98514 12.6813 7.72533C12.9545 7.46548 12.9545 7.041 12.6813 6.77885C12.6776 6.77664 12.6727 6.77431 12.6691 6.77204Z" fill="white"/>
</svg>
