<svg width="28" height="24" viewBox="0 0 28 24" fill="none" xmlns="http://www.w3.org/2000/svg">
<g opacity="0.7">
<path d="M26.9066 4.77414C26.1774 4.05305 25.2977 3.69241 24.2671 3.69241H21.0004L20.2568 1.73102C20.072 1.25995 19.7343 0.853641 19.2431 0.512144C18.7521 0.170799 18.249 0 17.7336 0H10.2668C9.75149 0 9.2483 0.170799 8.75728 0.512144C8.26625 0.853641 7.92851 1.25995 7.74376 1.73102L7.00004 3.69241H3.73335C2.70262 3.69241 1.82293 4.05305 1.09366 4.77414C0.364554 5.49527 0 6.36538 0 7.38467V20.3076C0 21.327 0.364554 22.1972 1.09366 22.9181C1.82293 23.6394 2.70267 24 3.73335 24H24.2668C25.2974 24 26.177 23.6394 26.9063 22.9181C27.6353 22.1972 28 21.327 28 20.3076V7.38467C28.0002 6.36538 27.6355 5.49527 26.9066 4.77414ZM18.6157 18.4112C17.3373 19.6756 15.7988 20.308 14.0001 20.308C12.2013 20.308 10.663 19.6756 9.38443 18.4112C8.10586 17.1469 7.4667 15.6251 7.4667 13.8465C7.4667 12.0674 8.10606 10.5461 9.38443 9.28159C10.6628 8.01709 12.2014 7.38497 14.0001 7.38497C15.7988 7.38497 17.3373 8.01724 18.6157 9.28159C19.8942 10.5459 20.5335 12.0674 20.5335 13.8465C20.5335 15.6251 19.8943 17.1468 18.6157 18.4112Z" fill="#37383D"/>
<path d="M13.999 9.6924C12.842 9.6924 11.8527 10.0987 11.0312 10.9113C10.2096 11.7238 9.79883 12.702 9.79883 13.8465C9.79883 14.9906 10.2096 15.969 11.0312 16.7815C11.8527 17.5939 12.8419 18.0001 13.999 18.0001C15.1558 18.0001 16.1452 17.5939 16.9668 16.7815C17.7883 15.969 18.1992 14.9907 18.1992 13.8465C18.1992 12.7021 17.7883 11.7239 16.9668 10.9113C16.1453 10.0987 15.1558 9.6924 13.999 9.6924Z" fill="#37383D"/>
</g>
</svg>
