<svg width="16" height="16" viewBox="0 0 16 16" fill="none" xmlns="http://www.w3.org/2000/svg">
<path d="M8.00002 0C3.5832 0 0 3.57868 0 7.99579C0 12.4171 3.5832 16 7.99998 16C12.4192 16 15.9994 12.4171 15.9994 7.99579C15.9994 3.57868 12.4192 0 8.00002 0ZM8.5701 12.4472C8.3843 12.6126 8.16896 12.6957 7.92503 12.6957C7.67265 12.6957 7.4525 12.614 7.26459 12.4505C7.07638 12.2873 6.98208 12.0587 6.98208 11.7651C6.98208 11.5046 7.07334 11.2853 7.25525 11.1076C7.43716 10.9299 7.66031 10.8411 7.92503 10.8411C8.18553 10.8411 8.40478 10.9299 8.58277 11.1076C8.76046 11.2853 8.8496 11.5045 8.8496 11.7651C8.84927 12.0545 8.7562 12.2819 8.5701 12.4472ZM10.8869 6.70351C10.7442 6.96823 10.5746 7.19649 10.378 7.38896C10.1819 7.5814 9.82926 7.90484 9.32028 8.35958C9.17993 8.48789 9.06701 8.60052 8.98239 8.69748C8.89776 8.79477 8.83452 8.88357 8.79325 8.9643C8.75168 9.045 8.71978 9.12573 8.69718 9.20642C8.67458 9.28682 8.64057 9.42868 8.59448 9.63134C8.51619 10.0614 8.27015 10.2764 7.85664 10.2764C7.6416 10.2764 7.46091 10.2062 7.31364 10.0656C7.16696 9.92496 7.09379 9.71626 7.09379 9.43921C7.09379 9.09198 7.1477 8.7911 7.25521 8.53664C7.36214 8.28215 7.50519 8.059 7.68288 7.86657C7.86086 7.67413 8.10057 7.44583 8.40263 7.18111C8.66735 6.94952 8.8586 6.77487 8.97635 6.65709C9.09439 6.53905 9.19349 6.40774 9.27389 6.26318C9.35492 6.11831 9.39467 5.96141 9.39467 5.79187C9.39467 5.46091 9.27211 5.18204 9.02577 4.95466C8.77972 4.72729 8.46229 4.61344 8.07349 4.61344C7.61845 4.61344 7.28356 4.72818 7.06852 4.95766C6.85349 5.18715 6.67191 5.52504 6.52282 5.97167C6.38188 6.43909 6.11505 6.67276 5.72262 6.67276C5.49103 6.67276 5.29559 6.59114 5.13628 6.4279C4.97726 6.26466 4.89776 6.0879 4.89776 5.89757C4.89776 5.50485 5.02395 5.10671 5.27603 4.70347C5.52841 4.30022 5.89642 3.96622 6.38036 3.7018C6.86401 3.43708 7.42872 3.30455 8.07349 3.30455C8.6731 3.30455 9.20224 3.41537 9.66121 3.63674C10.1202 3.85778 10.4749 4.15866 10.7252 4.5393C10.9752 4.91965 11.1004 5.33316 11.1004 5.77979C11.101 6.13069 11.0297 6.43879 10.8869 6.70351Z" fill="#46454B"/>
</svg>
