<svg width="16" height="11" viewBox="0 0 16 11" fill="none" xmlns="http://www.w3.org/2000/svg">
<path d="M16 9.90005V10.4501C15.9991 10.7535 15.7527 10.9992 15.4482 11H0.551758C0.247314 10.9992 0.000854494 10.7535 0 10.4501V9.90005H16Z" fill="#E6E7E8"/>
<path d="M16 0.550037V9.90005H0V0.550037C0.000854494 0.246543 0.247314 0.000851828 0.551758 0H15.4482C15.7527 0.000851828 15.9991 0.246665 16 0.550037Z" fill="#C03A2B"/>
<path d="M0.551758 0H7.72412V5.5H0V0.550037C0 0.2463 0.246948 0 0.551758 0Z" fill="#285680"/>
<path d="M7.72412 1.10007H16V2.20002H7.72412V1.10007Z" fill="#E6E7E8"/>
<path d="M7.72412 3.29997H16V4.40005H7.72412V3.29997Z" fill="#E6E7E8"/>
<path d="M0 5.5H16V6.60007H0V5.5Z" fill="#E6E7E8"/>
<path d="M10.0193 8.8001H16V7.70003H0V8.8001H5.98071" fill="#E6E7E8"/>
<path d="M0.552002 0.275799L0.679932 0.534024L0.96582 0.57552L0.758911 0.776551L0.807739 1.06033L0.552002 0.926473L0.296265 1.06033L0.345093 0.776551L0.138184 0.57552L0.42395 0.534024L0.552002 0.275799Z" fill="#ECF0F1"/>
<path d="M1.65552 0.275803L1.78357 0.534028L2.06934 0.575524L1.86243 0.776555L1.91125 1.06033L1.65552 0.926476L1.39978 1.06033L1.44861 0.776555L1.2417 0.575524L1.52759 0.534028L1.65552 0.275803Z" fill="#ECF0F1"/>
<path d="M2.75903 0.275803L2.88696 0.534028L3.17273 0.575524L2.96594 0.776555L3.01477 1.06033L2.75903 0.926476L2.5033 1.06033L2.55212 0.776555L2.34521 0.575524L2.63098 0.534028L2.75903 0.275803Z" fill="#ECF0F1"/>
<path d="M3.86206 0.275803L3.99011 0.534028L4.27588 0.575524L4.06897 0.776555L4.1178 1.06033L3.86206 0.926476L3.60632 1.06033L3.65515 0.776555L3.44824 0.575524L3.73401 0.534028L3.86206 0.275803Z" fill="#ECF0F1"/>
<path d="M4.96606 0.275803L5.09399 0.534028L5.37976 0.575524L5.17285 0.776555L5.22168 1.06033L4.96606 0.926476L4.71033 1.06033L4.75916 0.776555L4.55225 0.575524L4.83801 0.534028L4.96606 0.275803Z" fill="#ECF0F1"/>
<path d="M6.06909 0.275803L6.19714 0.534028L6.48291 0.575524L6.276 0.776555L6.32483 1.06033L6.06909 0.926476L5.81335 1.06033L5.86218 0.776555L5.65527 0.575524L5.94104 0.534028L6.06909 0.275803Z" fill="#ECF0F1"/>
<path d="M7.17249 0.275803L7.30054 0.534028L7.5863 0.575524L7.37939 0.776555L7.42822 1.06033L7.17249 0.926476L6.91687 1.06033L6.9657 0.776555L6.75879 0.575524L7.04456 0.534028L7.17249 0.275803Z" fill="#ECF0F1"/>
<path d="M1.17249 1.31644L1.30054 1.57467L1.5863 1.61616L1.37939 1.81719L1.42822 2.10097L1.17249 1.96687L0.91687 2.10097L0.965698 1.81719L0.758789 1.61616L1.04456 1.57467L1.17249 1.31644Z" fill="#ECF0F1"/>
<path d="M2.27612 1.31644L2.40417 1.57467L2.68994 1.61616L2.48303 1.81719L2.53186 2.10097L2.27612 1.96687L2.02039 2.10097L2.06921 1.81719L1.8623 1.61616L2.14807 1.57467L2.27612 1.31644Z" fill="#ECF0F1"/>
<path d="M3.37952 1.31644L3.50757 1.57467L3.79333 1.61616L3.58643 1.81719L3.63525 2.10097L3.37952 1.96687L3.12378 2.10097L3.17261 1.81719L2.96582 1.61616L3.25159 1.57467L3.37952 1.31644Z" fill="#ECF0F1"/>
<path d="M4.48315 1.31644L4.61108 1.57467L4.89697 1.61616L4.69006 1.81719L4.73889 2.10097L4.48315 1.96687L4.22742 2.10097L4.27625 1.81719L4.06934 1.61616L4.3551 1.57467L4.48315 1.31644Z" fill="#ECF0F1"/>
<path d="M5.58667 1.31644L5.71472 1.57467L6.00049 1.61616L5.79358 1.81719L5.84241 2.10097L5.58667 1.96687L5.33093 2.10097L5.37976 1.81719L5.17285 1.61616L5.45874 1.57467L5.58667 1.31644Z" fill="#ECF0F1"/>
<path d="M6.69019 1.31644L6.81812 1.57467L7.10388 1.61616L6.89709 1.81719L6.94592 2.10097L6.69019 1.96687L6.43445 2.10097L6.48328 1.81719L6.27637 1.61616L6.56213 1.57467L6.69019 1.31644Z" fill="#ECF0F1"/>
<path d="M0.552002 2.35762L0.679932 2.61608L0.96582 2.65734L0.758911 2.85837L0.807739 3.14239L0.552002 3.00829L0.296265 3.14239L0.345093 2.85837L0.138184 2.65734L0.42395 2.61608L0.552002 2.35762Z" fill="#ECF0F1"/>
<path d="M1.65552 2.35762L1.78357 2.61608L2.06934 2.65734L1.86243 2.85837L1.91125 3.14239L1.65552 3.00829L1.39978 3.14239L1.44861 2.85837L1.2417 2.65734L1.52759 2.61608L1.65552 2.35762Z" fill="#ECF0F1"/>
<path d="M2.75903 2.35762L2.88696 2.61608L3.17273 2.65734L2.96594 2.85837L3.01477 3.14239L2.75903 3.00829L2.5033 3.14239L2.55212 2.85837L2.34521 2.65734L2.63098 2.61608L2.75903 2.35762Z" fill="#ECF0F1"/>
<path d="M3.86206 2.35762L3.99011 2.61608L4.27588 2.65734L4.06897 2.85837L4.1178 3.14239L3.86206 3.00829L3.60632 3.14239L3.65515 2.85837L3.44824 2.65734L3.73401 2.61608L3.86206 2.35762Z" fill="#ECF0F1"/>
<path d="M4.96558 2.35762L5.09351 2.61608L5.37927 2.65734L5.17236 2.85837L5.22119 3.14239L4.96558 3.00829L4.70984 3.14239L4.75867 2.85837L4.55176 2.65734L4.83752 2.61608L4.96558 2.35762Z" fill="#ECF0F1"/>
<path d="M6.06909 2.35762L6.19714 2.61608L6.48291 2.65734L6.276 2.85837L6.32483 3.14239L6.06909 3.00829L5.81335 3.14239L5.86218 2.85837L5.65527 2.65734L5.94104 2.61608L6.06909 2.35762Z" fill="#ECF0F1"/>
<path d="M7.17249 2.35762L7.30054 2.61608L7.5863 2.65734L7.37939 2.85837L7.42822 3.14239L7.17249 3.00829L6.91687 3.14239L6.9657 2.85837L6.75879 2.65734L7.04456 2.61608L7.17249 2.35762Z" fill="#ECF0F1"/>
<path d="M0.552002 4.44045L0.679932 4.69868L0.96582 4.74017L0.758911 4.9412L0.807739 5.22498L0.552002 5.09113L0.296265 5.22498L0.345093 4.9412L0.138184 4.74017L0.42395 4.69868L0.552002 4.44045Z" fill="#ECF0F1"/>
<path d="M1.65552 4.44045L1.78357 4.69868L2.06934 4.74017L1.86243 4.9412L1.91125 5.22498L1.65552 5.09113L1.39978 5.22498L1.44861 4.9412L1.2417 4.74017L1.52759 4.69868L1.65552 4.44045Z" fill="#ECF0F1"/>
<path d="M2.75903 4.44045L2.88696 4.69868L3.17273 4.74017L2.96594 4.9412L3.01477 5.22498L2.75903 5.09113L2.5033 5.22498L2.55212 4.9412L2.34521 4.74017L2.63098 4.69868L2.75903 4.44045Z" fill="#ECF0F1"/>
<path d="M3.86206 4.44045L3.99011 4.69868L4.27588 4.74017L4.06897 4.9412L4.1178 5.22498L3.86206 5.09113L3.60632 5.22498L3.65515 4.9412L3.44824 4.74017L3.73401 4.69868L3.86206 4.44045Z" fill="#ECF0F1"/>
<path d="M4.96558 4.44045L5.09351 4.69868L5.37927 4.74017L5.17236 4.9412L5.22119 5.22498L4.96558 5.09113L4.70984 5.22498L4.75867 4.9412L4.55176 4.74017L4.83752 4.69868L4.96558 4.44045Z" fill="#ECF0F1"/>
<path d="M6.06909 4.44045L6.19714 4.69868L6.48291 4.74017L6.276 4.9412L6.32483 5.22498L6.06909 5.09113L5.81335 5.22498L5.86218 4.9412L5.65527 4.74017L5.94104 4.69868L6.06909 4.44045Z" fill="#ECF0F1"/>
<path d="M7.17249 4.44045L7.30054 4.69868L7.5863 4.74017L7.37939 4.9412L7.42822 5.22498L7.17249 5.09113L6.91687 5.22498L6.9657 4.9412L6.75879 4.74017L7.04456 4.69868L7.17249 4.44045Z" fill="#ECF0F1"/>
<path d="M1.17249 3.39904L1.30054 3.65727L1.5863 3.69876L1.37939 3.89979L1.42822 4.18357L1.17249 4.04971L0.91687 4.18357L0.965698 3.89979L0.758789 3.69876L1.04456 3.65727L1.17249 3.39904Z" fill="#ECF0F1"/>
<path d="M2.27612 3.39904L2.40417 3.65727L2.68994 3.69876L2.48303 3.89979L2.53186 4.18357L2.27612 4.04971L2.02039 4.18357L2.06921 3.89979L1.8623 3.69876L2.14807 3.65727L2.27612 3.39904Z" fill="#ECF0F1"/>
<path d="M3.37952 3.39904L3.50757 3.65727L3.79333 3.69876L3.58643 3.89979L3.63525 4.18357L3.37952 4.04971L3.12378 4.18357L3.17261 3.89979L2.96582 3.69876L3.25159 3.65727L3.37952 3.39904Z" fill="#ECF0F1"/>
<path d="M4.48315 3.39904L4.61108 3.65727L4.89697 3.69876L4.69006 3.89979L4.73889 4.18357L4.48315 4.04971L4.22742 4.18357L4.27625 3.89979L4.06934 3.69876L4.3551 3.65727L4.48315 3.39904Z" fill="#ECF0F1"/>
<path d="M5.58667 3.39904L5.71472 3.65727L6.00049 3.69876L5.79358 3.89979L5.84241 4.18357L5.58667 4.04971L5.33093 4.18357L5.37976 3.89979L5.17285 3.69876L5.45874 3.65727L5.58667 3.39904Z" fill="#ECF0F1"/>
<path d="M6.69019 3.39904L6.81812 3.65727L7.10388 3.69876L6.89709 3.89979L6.94592 4.18357L6.69019 4.04971L6.43445 4.18357L6.48328 3.89979L6.27637 3.69876L6.56213 3.65727L6.69019 3.39904Z" fill="#ECF0F1"/>
</svg>
