<?xml version="1.0" encoding="utf-8"?>
<!-- Generator: Adobe Illustrator 21.1.0, SVG Export Plug-In . SVG Version: 6.00 Build 0)  -->
<svg version="1.1" id="Layer_1" xmlns="http://www.w3.org/2000/svg" xmlns:xlink="http://www.w3.org/1999/xlink" x="0px" y="0px"
	 viewBox="0 0 84 20" style="enable-background:new 0 0 84 20;" xml:space="preserve">
<style type="text/css">
	.st0{fill:#fff;}
	.st1{fill-rule:evenodd;clip-rule:evenodd;fill:#EA5F2D;}
	.st2{fill-rule:evenodd;clip-rule:evenodd;fill:#E6352D;}
</style>
<g>
	<path class="st0" d="M45.2,5.7c-0.6-0.4-1.4-0.7-2.4-0.7c-1,0-1.7,0.2-2.4,0.7c-0.6,0.4-0.9,1.1-0.9,1.9v6.7c0,0.8,0.3,1.5,1,1.9
		c0.6,0.4,1.4,0.6,2.3,0.6c0.9,0,1.7-0.2,2.3-0.6c0.7-0.5,1-1.1,1-1.9l0-2.1h-2.7v2.2c0,0.2,0,0.4-0.1,0.5c-0.1,0.1-0.3,0.2-0.5,0.2
		c-0.2,0-0.4-0.1-0.5-0.2c-0.1-0.1-0.1-0.3-0.1-0.5v-3.1h3.9V7.6C46.1,6.8,45.8,6.2,45.2,5.7z M43.4,9.7h-1.2V7.5
		c0-0.2,0-0.3,0.1-0.5c0.1-0.2,0.3-0.2,0.5-0.2c0.2,0,0.4,0.1,0.5,0.2c0.1,0.1,0.1,0.3,0.1,0.5V9.7z M55.7,6.9h1.9v9.9h2.7V6.9h1.9
		V5.2h-6.5V6.9z M68.7,5.7c-0.6-0.4-1.4-0.7-2.4-0.7c-1,0-1.7,0.2-2.4,0.7C63.3,6.2,63,6.8,63,7.6v6.7c0,0.8,0.3,1.5,1,1.9
		c0.6,0.4,1.4,0.6,2.3,0.6c0.9,0,1.7-0.2,2.3-0.6c0.7-0.5,1-1.1,1-1.9V7.6C69.6,6.8,69.3,6.2,68.7,5.7z M66.9,14.4
		c0,0.2,0,0.4-0.1,0.5c-0.1,0.1-0.3,0.2-0.5,0.2c-0.2,0-0.4-0.1-0.5-0.2c-0.1-0.1-0.1-0.3-0.1-0.5V7.5c0-0.2,0-0.3,0.1-0.5
		c0.1-0.2,0.3-0.2,0.5-0.2c0.2,0,0.4,0.1,0.5,0.2c0.1,0.1,0.1,0.3,0.1,0.5V14.4z M75.1,5.2v4.1H74V5.2h-2.7v11.5H74v-5.5h1.2v5.5
		h2.7V5.2H75.1z M51.7,9.4h-1.2V5.2h-2.7v11.5h2.7v-5.5h1.2v5.5h2.7V5.2h-2.7V9.4z M36.9,5.7L36.9,5.7L36.9,5.7
		c-0.6-0.3-1.3-0.5-2.3-0.5h-3.3v11.5h3.3c1.1,0,2-0.2,2.5-0.6c0.5-0.4,0.8-1,0.8-2v-1c0-0.8-0.1-1.4-0.4-1.7
		c-0.2-0.3-0.7-0.6-1.5-0.8l-0.4-0.1l0.4-0.1c0.8-0.1,1.3-0.4,1.5-0.7c0.2-0.3,0.3-0.8,0.3-1.4V7.5C37.9,6.7,37.6,6.1,36.9,5.7z
		 M35.2,14.4c0,0.2-0.1,0.4-0.2,0.5c-0.1,0.1-0.3,0.2-0.6,0.2H34v-3.6h0.4c0.2,0,0.4,0,0.6,0.1c0.1,0.1,0.2,0.3,0.2,0.5V14.4z
		 M35.2,9.1c0,0.3,0,0.5-0.2,0.6c-0.1,0.1-0.3,0.2-0.6,0.2H34V6.9h0.4c0.2,0,0.4,0.1,0.6,0.2c0.1,0.1,0.2,0.3,0.2,0.6V9.1z
		 M29.7,14.4V7.6c0-0.8-0.3-1.4-0.9-1.9c-0.6-0.4-1.4-0.7-2.4-0.7c-1,0-1.7,0.2-2.4,0.7c-0.6,0.4-0.9,1.1-0.9,1.9v1.5h2.5V7.5
		c0-0.2,0.2-0.7,0.7-0.7c0.2,0,0.4,0.1,0.5,0.2C26.9,7.2,27,7.3,27,7.5V8c0,0.4,0,2.3,0,2.3s-3.9-0.3-3.9,2.1v2.5
		c0,0.7,0.1,1.2,0.4,1.5c0.3,0.3,0.7,0.5,1.4,0.5c0.4,0,0.8-0.1,1.1-0.3c0.3-0.2,1-0.6,1-0.6l0.1,0.8h2.7
		C29.9,16.7,29.7,14.8,29.7,14.4z M27,14.4c0,0.2,0,0.4-0.1,0.5c-0.1,0.1-0.3,0.2-0.5,0.2c-0.6,0-0.7-0.5-0.7-0.7v-2.1
		c0-0.3,0-0.3,0.3-0.5c0.2-0.2,1.1-0.2,1.1-0.2V14.4z"/>
	<g>
		<path class="st0" d="M79.2,7.5V5.6h-0.7V5.2h1.9v0.4h-0.7v1.9H79.2z"/>
		<path class="st0" d="M80.7,7.5V5.2h0.7l0.4,1.6l0.4-1.6h0.7v2.3h-0.4V5.7L82,7.5h-0.5l-0.5-1.8v1.8H80.7z"/>
	</g>
	<path class="st1" d="M6.4,7.9c0,0,4.1-0.6,5.3-0.7c2.4-0.2,4.3,1.6,3.9,4.1c-0.4,2.4-1.8,5.6-1.8,5.6s2.5,0.9,3.6-1.3
		c1-2.2,3-5.9,1.1-8.8c-2.7-4-7.6-2.5-9.1-2.2c-0.1,0-2.2,0.6-2.7,1.6C6.4,6.9,6.4,7.9,6.4,7.9z"/>
	<path class="st1" d="M9,14.3c0,0-2.6-3.2-3.3-4.2c-1.4-2-0.8-4.5,1.5-5.4c2.3-0.9,5.7-1.4,5.7-1.4s-0.6-2.6-3-2.4
		C7.4,1.3,3.2,1.5,1.8,4.6c-2.1,4.4,1.8,7.8,2.8,8.9c0.1,0.1,1.7,1.6,2.8,1.5C8.2,14.9,9,14.3,9,14.3z"/>
	<path class="st2" d="M12.4,7.6c0,0-0.7,4.1-1,5.2c-0.6,2.3-2.9,3.6-5.1,2.4c-2.2-1.2-4.8-3.4-4.8-3.4S0,14,1.8,15.7
		c1.8,1.6,4.7,4.7,8,3.8c4.7-1.3,4.7-6.5,4.9-7.9c0-0.2,0.1-2.3-0.7-3.1C13.4,7.9,12.4,7.6,12.4,7.6z"/>
	<path class="st2" d="M1.5,9c0.2,0.7,0.6,1.4,0.9,1.9c0.7-0.6,1.7-1.4,2.6-2.1C4.8,8.1,4.9,7.4,5.1,6.7C3.9,7.4,2.3,8.5,1.5,9z"/>
	<path class="st2" d="M12.4,4.1c0.1,0.6,0.2,1.9,0.2,3.2c0.8,0.1,1.6,0.5,2.1,1c0-1.4-0.1-2.9-0.2-4.1C13.8,4,13.1,4,12.4,4.1z"/>
	<path class="st1" d="M10.4,14.7c-0.6,0.6-1.3,0.9-2.1,1c0.6,0.3,2.5,1.4,4.1,2.2c0.5-0.6,0.9-1.2,1.2-1.8
		C12.8,15.7,11.5,15.2,10.4,14.7z"/>
</g>
</svg>
