<svg 
 xmlns="http://www.w3.org/2000/svg"
 xmlns:xlink="http://www.w3.org/1999/xlink"
 width="18px" height="17px">
<path fill-rule="evenodd"  fill="rgb(0, 0, 0)"
 d="M7.457,14.471 L7.457,12.765 L9.674,12.765 L9.265,12.226 L7.457,12.226 L7.457,10.457 L11.444,10.457 L11.444,11.446 L11.944,11.646 L11.944,6.063 C11.944,5.993 11.958,5.926 11.975,5.862 L11.975,5.492 L12.212,5.492 C12.340,5.384 12.504,5.316 12.683,5.316 L14.855,5.316 C15.034,5.316 15.196,5.384 15.324,5.492 L16.067,5.492 L16.067,7.512 L15.592,7.512 L15.592,8.051 L16.067,8.051 L16.067,9.919 L15.592,9.919 L15.592,10.457 L16.067,10.457 L16.067,11.456 L16.598,11.244 L16.598,0.628 C16.598,0.282 16.320,-0.000 15.978,-0.000 L0.618,-0.000 C0.276,-0.000 -0.001,0.282 -0.001,0.628 L-0.001,14.396 C-0.001,14.609 0.104,14.797 0.264,14.911 L0.264,15.010 L0.486,15.010 C0.528,15.019 0.573,15.025 0.618,15.025 L11.388,15.025 L10.968,14.471 L7.457,14.471 ZM11.976,0.539 L15.978,0.539 C16.027,0.539 16.067,0.579 16.067,0.628 L16.067,2.439 L11.976,2.439 L11.976,0.539 ZM11.976,2.977 L16.067,2.977 L16.067,4.953 L11.976,4.953 L11.976,2.977 ZM7.457,0.539 L11.444,0.539 L11.444,2.439 L7.457,2.439 L7.457,0.539 ZM7.457,2.977 L11.444,2.977 L11.444,4.953 L7.457,4.953 L7.457,2.977 ZM7.457,5.492 L11.444,5.492 L11.444,7.512 L7.457,7.512 L7.457,5.492 ZM7.457,8.051 L11.444,8.051 L11.444,9.919 L7.457,9.919 L7.457,8.051 ZM2.449,14.471 L0.573,14.471 C0.548,14.455 0.529,14.428 0.529,14.396 L0.529,12.765 L2.449,12.765 L2.449,14.471 ZM2.449,12.226 L0.529,12.226 L0.529,10.457 L2.449,10.457 L2.449,12.226 ZM2.449,9.919 L0.529,9.919 L0.529,8.051 L2.449,8.051 L2.449,9.919 ZM2.449,7.512 L0.529,7.512 L0.529,5.492 L2.449,5.492 L2.449,7.512 ZM2.449,4.953 L0.529,4.953 L0.529,2.977 L2.449,2.977 L2.449,4.953 ZM6.924,14.471 L2.982,14.471 L2.982,12.765 L6.924,12.765 L6.924,14.471 ZM6.924,12.226 L2.982,12.226 L2.982,10.457 L6.924,10.457 L6.924,12.226 ZM6.924,9.919 L2.982,9.919 L2.982,8.051 L6.924,8.051 L6.924,9.919 ZM6.924,7.512 L2.982,7.512 L2.982,5.492 L6.924,5.492 L6.924,7.512 ZM6.924,4.953 L2.982,4.953 L2.982,2.977 L6.924,2.977 L6.924,4.953 ZM6.924,2.439 L2.982,2.439 L2.982,0.538 L6.924,0.538 L6.924,2.439 ZM17.929,11.517 L13.838,16.912 C13.796,16.966 13.732,16.998 13.664,16.998 C13.597,16.998 13.532,16.966 13.493,16.912 L9.399,11.517 C9.369,11.477 9.354,11.430 9.354,11.383 C9.354,11.336 9.368,11.290 9.398,11.250 C9.457,11.171 9.560,11.142 9.651,11.178 L12.361,12.263 L12.361,5.905 C12.361,5.784 12.458,5.686 12.579,5.686 L14.750,5.686 C14.871,5.686 14.968,5.784 14.968,5.905 L14.968,12.263 L17.677,11.178 C17.769,11.142 17.873,11.171 17.932,11.250 C17.990,11.330 17.990,11.439 17.929,11.517 Z"/>
</svg>