<?xml version="1.0" encoding="iso-8859-1"?>
<!-- Generator: Adobe Illustrator 19.0.0, SVG Export Plug-In . SVG Version: 6.00 Build 0)  -->
<svg version="1.1" id="Capa_1" xmlns="http://www.w3.org/2000/svg" xmlns:xlink="http://www.w3.org/1999/xlink" x="0px" y="0px"
	 viewBox="0 0 512 512" style="enable-background:new 0 0 512 512;" xml:space="preserve">
<g>
	<g>
		<path d="M490.999,469.983h-9.904V440.98c0-4.143-3.358-7.5-7.5-7.5c-4.143,0-7.5,3.357-7.5,7.5v29.003h-31.562v-93.26
			c1.489,0.33,3.019,0.516,4.581,0.516c18.54,0,28.115-22.581,14.85-35.85l-58.616-58.615c-19.491-19.491-51.135-19.493-70.628,0
			l-58.617,58.615c-14.521,14.524-1.431,39.959,19.43,35.334v93.259H52.114V254.267h27.463c4.143,0,7.5-3.357,7.5-7.5
			c0-4.143-3.357-7.5-7.5-7.5H52.114v-12.002c35.613,0,354.871,0,413.981,0v12.002H114.577c-4.143,0-7.5,3.357-7.5,7.5
			c0,4.143,3.357,7.5,7.5,7.5h351.518V405.98c0,4.143,3.357,7.5,7.5,7.5c4.142,0,7.5-3.357,7.5-7.5c0-7.098,0-170.358,0-178.715
			h7.635c4.143,0,7.5-3.357,7.5-7.5c0-4.143-3.357-7.5-7.5-7.5c-8.367,0-244.663,0-257.062,0c0-12.874,0-22.01,0-35.064
			c0-4.143-3.357-7.5-7.5-7.5c-4.143,0-7.5,3.357-7.5,7.5v8.063h-37.225v-53.215h37.225V142.2c0,4.143,3.357,7.5,7.5,7.5
			c4.143,0,7.5-3.357,7.5-7.5v-11.724c8.472-3.479,14.55-12.61,12.735-23c-1.738-10.06-10.479-17.43-20.683-17.43h-51.33
			c-9.508,0-17.85,6.423-20.27,15.562c-0.048,0.177-0.094,0.354-0.153,0.598c-0.1,0.422-0.186,0.846-0.251,1.229
			c-0.055,0.309-0.102,0.621-0.149,0.982c-0.038,0.304-0.068,0.607-0.095,0.935c-0.026,0.228-0.047,0.457-0.059,0.699
			c-0.007,0.161-0.01,0.321-0.009,0.484c-0.009,0.17-0.015,0.34-0.015,0.512c0,8.768,5.405,16.288,13.054,19.429
			c0,15.497,0,64.642,0,81.789h-42.578c0-17.146,0-66.29,0-81.789c7.649-3.14,13.054-10.661,13.054-19.429
			c0-0.168-0.005-0.333-0.015-0.504c0.002-0.181-0.001-0.354-0.01-0.502c-0.01-0.226-0.03-0.447-0.057-0.683
			c-0.024-0.317-0.057-0.636-0.101-0.983c-0.04-0.314-0.089-0.626-0.137-0.899c-0.072-0.421-0.157-0.838-0.27-1.319
			c-0.044-0.18-0.09-0.356-0.127-0.492c-2.437-9.195-10.778-15.618-20.286-15.618H62.588c-11.641,0-21.001,9.503-21.001,21.001
			c0,8.768,5.405,16.288,13.054,19.429c0,15.497,0,64.642,0,81.788c-8.839,0-15.99,0-23.914,0c-4.143,0-7.5,3.357-7.5,7.5
			s3.357,7.5,7.5,7.5h6.387c0,6.451,0,234.21,0,242.718H21c-9.507,0-17.85,6.423-20.287,15.62
			C-2.829,498.968,7.277,511.986,21,511.986h469.999c11.58,0,21.001-9.421,21.001-21.001
			C512,479.518,502.674,469.983,490.999,469.983z M216.668,200.264v12.001h-37.225v-12.001H216.668z M166.408,110.751
			c0.014-0.147,0.023-0.314,0.038-0.432c0.031-0.231,0.078-0.485,0.104-0.598c0.067-0.1,1.056-4.675,5.842-4.675h51.33
			c2.711,0,5.09,1.834,5.798,4.502c0.935,4.43-2.326,7.5-5.798,7.5h-51.33c-3.255,0-5.913-2.605-5.999-5.841
			C166.399,111.084,166.408,110.883,166.408,110.751z M106.866,212.265H69.642v-12.001h37.224V212.265z M106.866,185.264H69.642
			v-53.215h37.224V185.264z M56.761,109.663c0.068-0.1,1.076-4.616,5.827-4.616h51.329c2.711,0,5.091,1.834,5.798,4.502
			c0.128,0.551,0.167,0.779,0.189,1.359c0.071,3.51-2.74,6.141-5.987,6.141H62.588c-3.258,0-5.918-2.61-5.999-5.85
			C56.614,110.719,56.594,110.358,56.761,109.663z M285.194,360.483c-3.761,3.764-10.242,1.082-10.242-4.243
			c0-4.624,0.887-2.503,60.374-62.858c13.629-13.631,35.784-13.631,49.413,0c60.146,61.023,60.374,58.175,60.374,62.858
			c0,5.314-6.472,8.015-10.242,4.242c-6.415-6.414-52.279-52.278-58.616-58.615c-7.406-7.405-18.478-8.601-27.024-4.03
			c-4.236,2.266-0.905-0.487-61.512,60.121L285.194,360.483z M391.69,361.977h-62.983c-7.336,0-13.305,5.968-13.305,13.304v21.198
			c0,16.626,0,56.291,0,73.504h-14.87V366.359c56.728-55.573,53.629-56.211,59.5-56.211s2.782,0.648,59.5,56.21v103.626h-14.871
			v-19.501c0-22.797,0-52.939,0-75.534C404.661,367.796,398.842,361.977,391.69,361.977z M330.403,442.982V430.98h59.258v12.002
			H330.403z M389.661,457.982v12.001h-59.258v-12.001H389.661z M330.403,415.98v-12.001h59.258v12.001H330.403z M330.403,388.979
			v-12.002h59.258v12.002H330.403z M490.999,496.985H21c-3.815,0-6.725-3.56-5.838-7.341c0.067-0.1,1.062-4.661,5.838-4.661
			c96.563,0,373.187,0,469.999,0c2.888,0,5.788,2.052,5.999,6.152C496.918,494.375,494.258,496.985,490.999,496.985z"/>
	</g>
</g>
<g>
	<g>
		<path d="M97.077,353.977h-6.824c-4.143,0-7.5,3.357-7.5,7.5s3.357,7.5,7.5,7.5h6.824c4.143,0,7.5-3.357,7.5-7.5
			C104.577,357.335,101.22,353.977,97.077,353.977z"/>
	</g>
</g>
<g>
	<g>
		<path d="M97.077,326.974h-6.824c-4.143,0-7.5,3.357-7.5,7.5c0,4.143,3.357,7.5,7.5,7.5h6.824c4.143,0,7.5-3.357,7.5-7.5
			C104.577,330.331,101.22,326.974,97.077,326.974z"/>
	</g>
</g>
<g>
	<g>
		<path d="M97.077,299.973h-6.824c-4.143,0-7.5,3.358-7.5,7.5c0,4.143,3.357,7.5,7.5,7.5h6.824c4.143,0,7.5-3.357,7.5-7.5
			C104.577,303.331,101.22,299.973,97.077,299.973z"/>
	</g>
</g>
<g>
	<g>
		<path d="M97.077,380.979h-6.824c-4.143,0-7.5,3.357-7.5,7.5c0,4.143,3.357,7.5,7.5,7.5h6.824c4.143,0,7.5-3.357,7.5-7.5
			C104.577,384.337,101.22,380.979,97.077,380.979z"/>
	</g>
</g>
<g>
	<g>
		<path d="M97.077,407.98h-6.824c-4.143,0-7.5,3.357-7.5,7.5c0,4.143,3.357,7.5,7.5,7.5h6.824c4.143,0,7.5-3.357,7.5-7.5
			C104.577,411.338,101.22,407.98,97.077,407.98z"/>
	</g>
</g>
<g>
	<g>
		<path d="M141.244,353.977h-6.823c-4.143,0-7.5,3.357-7.5,7.5s3.357,7.5,7.5,7.5h6.823c4.143,0,7.5-3.357,7.5-7.5
			C148.744,357.335,145.387,353.977,141.244,353.977z"/>
	</g>
</g>
<g>
	<g>
		<path d="M141.244,326.974h-6.823c-4.143,0-7.5,3.357-7.5,7.5c0,4.143,3.357,7.5,7.5,7.5h6.823c4.143,0,7.5-3.357,7.5-7.5
			C148.744,330.331,145.387,326.974,141.244,326.974z"/>
	</g>
</g>
<g>
	<g>
		<path d="M141.244,299.973h-6.823c-4.143,0-7.5,3.358-7.5,7.5c0,4.143,3.357,7.5,7.5,7.5h6.823c4.143,0,7.5-3.357,7.5-7.5
			C148.744,303.331,145.387,299.973,141.244,299.973z"/>
	</g>
</g>
<g>
	<g>
		<path d="M141.244,380.979h-6.823c-4.143,0-7.5,3.357-7.5,7.5c0,4.143,3.357,7.5,7.5,7.5h6.823c4.143,0,7.5-3.357,7.5-7.5
			C148.744,384.337,145.387,380.979,141.244,380.979z"/>
	</g>
</g>
<g>
	<g>
		<path d="M141.244,407.98h-6.823c-4.143,0-7.5,3.357-7.5,7.5c0,4.143,3.357,7.5,7.5,7.5h6.823c4.143,0,7.5-3.357,7.5-7.5
			C148.744,411.338,145.387,407.98,141.244,407.98z"/>
	</g>
</g>
<g>
	<g>
		<path d="M185.412,353.977h-6.823c-4.143,0-7.5,3.357-7.5,7.5s3.357,7.5,7.5,7.5h6.823c4.143,0,7.5-3.357,7.5-7.5
			C192.912,357.335,189.555,353.977,185.412,353.977z"/>
	</g>
</g>
<g>
	<g>
		<path d="M185.412,326.974h-6.823c-4.143,0-7.5,3.357-7.5,7.5c0,4.143,3.357,7.5,7.5,7.5h6.823c4.143,0,7.5-3.357,7.5-7.5
			C192.912,330.331,189.555,326.974,185.412,326.974z"/>
	</g>
</g>
<g>
	<g>
		<path d="M185.412,299.973h-6.823c-4.143,0-7.5,3.358-7.5,7.5c0,4.143,3.357,7.5,7.5,7.5h6.823c4.143,0,7.5-3.357,7.5-7.5
			C192.912,303.331,189.555,299.973,185.412,299.973z"/>
	</g>
</g>
<g>
	<g>
		<path d="M185.412,380.979h-6.823c-4.143,0-7.5,3.357-7.5,7.5c0,4.143,3.357,7.5,7.5,7.5h6.823c4.143,0,7.5-3.357,7.5-7.5
			C192.912,384.337,189.555,380.979,185.412,380.979z"/>
	</g>
</g>
<g>
	<g>
		<path d="M185.412,407.98h-6.823c-4.143,0-7.5,3.357-7.5,7.5c0,4.143,3.357,7.5,7.5,7.5h6.823c4.143,0,7.5-3.357,7.5-7.5
			C192.912,411.338,189.555,407.98,185.412,407.98z"/>
	</g>
</g>
<g>
	<g>
		<path d="M229.579,353.977h-6.823c-4.143,0-7.5,3.357-7.5,7.5s3.357,7.5,7.5,7.5h6.823c4.143,0,7.5-3.357,7.5-7.5
			C237.079,357.335,233.722,353.977,229.579,353.977z"/>
	</g>
</g>
<g>
	<g>
		<path d="M229.579,326.974h-6.823c-4.143,0-7.5,3.357-7.5,7.5c0,4.143,3.357,7.5,7.5,7.5h6.823c4.143,0,7.5-3.357,7.5-7.5
			C237.079,330.331,233.722,326.974,229.579,326.974z"/>
	</g>
</g>
<g>
	<g>
		<path d="M229.579,299.973h-6.823c-4.143,0-7.5,3.358-7.5,7.5c0,4.143,3.357,7.5,7.5,7.5h6.823c4.143,0,7.5-3.357,7.5-7.5
			C237.079,303.331,233.722,299.973,229.579,299.973z"/>
	</g>
</g>
<g>
	<g>
		<path d="M229.579,380.979h-6.823c-4.143,0-7.5,3.357-7.5,7.5c0,4.143,3.357,7.5,7.5,7.5h6.823c4.143,0,7.5-3.357,7.5-7.5
			C237.079,384.337,233.722,380.979,229.579,380.979z"/>
	</g>
</g>
<g>
	<g>
		<path d="M229.579,407.98h-6.823c-4.143,0-7.5,3.357-7.5,7.5c0,4.143,3.357,7.5,7.5,7.5h6.823c4.143,0,7.5-3.357,7.5-7.5
			C237.079,411.338,233.722,407.98,229.579,407.98z"/>
	</g>
</g>
<g>
	<g>
		<path d="M243.212,46.658c-2.607-9.837-11.532-16.708-21.702-16.708c-21.455,0-24.037,0-43.908,0c-4.554,0-8.161-4.109-7.345-8.737
			c0.617-3.588,3.734-6.198,7.345-6.198h43.908c4.143,0,7.5-3.357,7.5-7.5c0-4.143-3.357-7.5-7.5-7.5h-43.908
			c-10.819,0-20.24,7.772-22.124,18.634c-2.419,13.958,8.421,26.301,22.124,26.301c15.555,0,20.971,0,22.633,0
			c0.456,0,0.635,0,0.656,0c1.589,0,6.605,0,20.619,0c3.374,0,6.336,2.283,7.221,5.617c1.143,5.423-2.829,9.318-7.221,9.318h-12.232
			c-17.555,0-22.749,24.462-9.462,24.462c4.143,0,7.5-3.357,7.5-7.5c0-1.082,0.88-1.962,1.962-1.962h12.232
			C236,74.885,247.16,61.094,243.212,46.658z"/>
	</g>
</g>
<g>
	<g>
		<path d="M132.048,47.198c-2.496-10.31-11.643-17.248-21.841-17.248c-21.452,0-24.04,0-43.907,0c-4.762,0-8.37-4.439-7.263-9.155
			c0.067-0.1,1.329-5.78,7.263-5.78h43.907c4.143,0,7.5-3.357,7.5-7.5c0-4.143-3.357-7.5-7.5-7.5H66.299
			c-12.427,0-22.469,10.125-22.469,22.468c0,12.388,10.079,22.467,22.469,22.467c13.435,0,29.827,0,43.907,0
			c3.375,0,6.337,2.283,7.207,5.565c1.215,5.143-2.588,9.37-7.207,9.37h-12.23c-17.555,0-22.749,24.462-9.462,24.462
			c4.143,0,7.5-3.357,7.5-7.5c0-1.082,0.88-1.962,1.962-1.962h12.23C123.872,74.885,135.612,62.202,132.048,47.198z"/>
	</g>
</g>
<g>
</g>
<g>
</g>
<g>
</g>
<g>
</g>
<g>
</g>
<g>
</g>
<g>
</g>
<g>
</g>
<g>
</g>
<g>
</g>
<g>
</g>
<g>
</g>
<g>
</g>
<g>
</g>
<g>
</g>
</svg>
