<?xml version="1.0" encoding="iso-8859-1"?>
<!-- Generator: Adobe Illustrator 19.0.0, SVG Export Plug-In . SVG Version: 6.00 Build 0)  -->
<svg version="1.1" id="Layer_1" xmlns="http://www.w3.org/2000/svg" xmlns:xlink="http://www.w3.org/1999/xlink" x="0px" y="0px"
	 viewBox="0 0 512 512" style="enable-background:new 0 0 512 512;" xml:space="preserve">
<g>
	<g>
		<path d="M484.199,222.844c-6.97-26.262-22.275-50.005-43.518-67.33c-23.042-18.792-52.096-29.142-81.809-29.142
			c-22.579,0-44.825,5.904-64.334,17.074c-14.912,8.539-28.067,20.075-38.539,33.703c-10.472-13.629-23.626-25.165-38.538-33.703
			c-19.509-11.17-41.755-17.074-64.334-17.074c-59.896,0-110.426,40.837-125.23,96.128H7.5c-4.143,0-7.5,3.357-7.5,7.5
			s3.357,7.5,7.5,7.5h17.326c-0.868,6.044-1.326,12.219-1.326,18.5c0,5.589,0.356,11.096,1.045,16.5H7.5c-4.143,0-7.5,3.357-7.5,7.5
			s3.357,7.5,7.5,7.5h19.878c14.109,56.304,65.133,98.128,125.75,98.128c22.579,0,44.825-5.904,64.334-17.074
			c14.909-8.536,28.066-20.078,38.539-33.708c10.467,13.631,23.591,25.15,38.538,33.708c19.509,11.17,41.755,17.074,64.334,17.074
			c59.626,0,111.693-41.125,125.861-98.555C500.174,284.562,512,271.139,512,255C512,238.675,499.9,225.128,484.199,222.844z
			 M261.078,196.183c0.404-0.661,0.816-1.318,1.234-1.97c9.962-15.537,23.683-28.59,39.679-37.749
			c17.243-9.873,36.912-15.092,56.881-15.092c50.357,0,95.041,33.608,109.622,81.128h-37.4
			c-12.961-27.797-41.322-46.128-72.221-46.128c-27.932,0-53.333,14.241-67.95,38.097c-5.032,8.211-11.191,15.591-18.309,21.933
			c-11.269,10.041-24.956,17.735-41.844,23.522c-7.812,2.677-16.395,4.943-25.509,6.734c-27.086,5.324-56.576,6.042-81.852,6.042
			c-6.743,0-13.343-0.053-19.726-0.104l-0.302-0.002c-4.396-0.035-8.611-0.068-12.736-0.084C89.251,267.237,88.5,261.705,88.5,256
			c0-6.424,0.955-12.627,2.708-18.488c4.157,0.017,8.368,0.05,12.754,0.085c6.345,0.051,12.826,0.103,19.383,0.103
			c32.693,0,67.164-1.296,94.726-10.494C238.087,220.527,252.556,210.089,261.078,196.183z M414.08,222.469
			c-0.062,0-0.122,0-0.184-0.001l-0.918-0.004c-33.5-0.138-71.468-0.295-106.88,6.765c-2.827,0.564-5.606,1.173-8.339,1.818
			c2.108-2.816,4.104-5.724,5.953-8.741c11.869-19.37,32.49-30.934,55.161-30.934C381.513,191.372,402.475,203.504,414.08,222.469z
			 M214.995,279.924c-2.392,3.133-4.634,6.39-6.706,9.77c-11.869,19.37-32.49,30.934-55.161,30.934
			c-24.185,0-45.297-13.362-56.376-33.084c2.135,0.015,4.294,0.031,6.511,0.049l0.301,0.003c6.412,0.052,13.043,0.104,19.846,0.104
			c25.998,0,56.396-0.751,84.744-6.323C210.466,280.922,212.746,280.436,214.995,279.924z M97.849,222.55
			c11.343-18.675,31.878-31.177,55.279-31.177c14.188,0,27.597,4.446,38.779,12.857c4.417,3.322,8.355,7.192,11.793,11.533
			c-29.467,7.394-66.52,7.103-99.617,6.834C101.967,222.58,99.9,222.564,97.849,222.55z M210.009,355.536
			c-17.243,9.873-36.912,15.092-56.881,15.092C89.922,370.628,38.5,319.206,38.5,256s51.422-114.628,114.628-114.628
			c19.969,0,39.638,5.219,56.881,15.092c14.624,8.372,27.334,20.007,37.023,33.812c-6.028,8.787-15.318,15.598-28.225,20.7
			c-4.942-7.219-10.94-13.512-17.883-18.735c-13.803-10.382-30.33-15.869-47.796-15.869c-43.907,0-79.628,35.721-79.628,79.628
			c0,43.907,35.721,79.628,79.628,79.628c27.932,0,53.333-14.241,67.95-38.096c2.871-4.684,6.115-9.096,9.68-13.217
			c4.225,12.74,9.186,25.216,16.333,37.327C237.399,335.482,224.658,347.148,210.009,355.536z M358.872,370.628
			c-19.969,0-39.638-5.219-56.881-15.092c-16.704-9.564-30.852-23.298-40.913-39.717c-8.529-13.919-13.873-28.833-18.637-44.203
			c11.727-4.591,22.234-10.281,31.416-16.986c4.687,15.621,9.365,30.337,17.065,42.902c14.617,23.854,40.019,38.096,67.95,38.096
			c31.872,0,60.603-19.135,73.12-48.128h37.092C455.169,336.167,410.196,370.628,358.872,370.628z M307.738,295.53
			c30.735-8.365,69.945-8.212,105.001-8.067l0.251,0.001c0.777,0.003,1.538,0.006,2.31,0.009
			c-11.29,20.188-32.794,33.155-56.428,33.155C338.583,320.628,319.94,311.36,307.738,295.53z M479.5,272.5H426
			c-4.223,0-8.545-0.018-12.948-0.036l-0.339-0.001c-37.458-0.153-79.618-0.317-113.033,9.78
			c-4.707-9.77-8.213-21.092-11.774-32.986c6.622-2.054,13.699-3.837,21.126-5.318c33.929-6.764,71.096-6.612,103.918-6.476
			l0.887,0.004c4.132,0.016,8.193,0.032,12.164,0.032h53.5c9.649,0,17.5,7.851,17.5,17.5C497.001,264.648,489.149,272.5,479.5,272.5
			z"/>
	</g>
</g>
<g>
</g>
<g>
</g>
<g>
</g>
<g>
</g>
<g>
</g>
<g>
</g>
<g>
</g>
<g>
</g>
<g>
</g>
<g>
</g>
<g>
</g>
<g>
</g>
<g>
</g>
<g>
</g>
<g>
</g>
</svg>
