<?xml version="1.0" encoding="utf-8"?>
<!-- Generator: Adobe Illustrator 22.1.0, SVG Export Plug-In . SVG Version: 6.00 Build 0)  -->
<svg version="1.1" id="Layer_1" xmlns="http://www.w3.org/2000/svg" xmlns:xlink="http://www.w3.org/1999/xlink" x="0px" y="0px"
	 viewBox="0 0 512 512" style="enable-background:new 0 0 512 512;" xml:space="preserve">
<g>
	<g>
		<path d="M9,80.9c-5,0-9,4-9,9s4,9,9,9h14.1v18.9H9c-5,0-9,4-9,9c0,5,4,9,9,9h14.1v18.9H9c-5,0-9,4-9,9s4,9,9,9h14.1v18.9H9
			c-5,0-9,4-9,9s4,9,9,9h14.1v18.9H9c-5,0-9,4-9,9s4,9,9,9h14.1v18.9H9c-5,0-9,4-9,9c0,5,4,9,9,9h14.1v18.9H9c-5,0-9,4-9,9
			c0,5,4,9,9,9h14.1v18.9H9c-5,0-9,4-9,9c0,5,4,9,9,9h14.1v18.9H9c-5,0-9,4-9,9c0,5,4,9,9,9h14.1v18.8H9c-5,0-9,4-9,9c0,5,4,9,9,9
			l308.7,0c5,0,9-4,9-9c0-5-4-9-9-9H100.6l-18.8-32.5l21.4-37c0.8-1.4,1.2-3,1.2-4.5c0-3.1-1.6-6.1-4.5-7.8c-4.3-2.5-9.8-1-12.3,3.3
			L63.5,376c-1.6,2.8-1.6,6.3,0,9.1l16.2,28H41.2V99h38.6l-16.2,28c-1.6,2.8-1.6,6.3,0,9.1L85,173l-21.4,37c-1.6,2.8-1.6,6.3,0,9.1
			L85,256l-21.4,37c-1.6,2.8-1.6,6.3,0,9.1l11.3,19.4c2.5,4.3,8,5.8,12.3,3.3c4.3-2.5,5.8-8,3.3-12.3l-8.6-14.9l21.4-37
			c1.6-2.8,1.6-6.3,0-9.1l-21.4-37l21.4-37c1.6-2.8,1.6-6.3,0-9.1l-21.4-37L100.6,99h310.8l18.8,32.5l-21.4,37
			c-2.5,4.3-1,9.8,3.3,12.3c4.3,2.5,9.8,1,12.3-3.3l24.1-41.5c0.8-1.4,1.2-3,1.2-4.5s-0.4-3.1-1.2-4.5l-16.2-28h38.6V413h-38.6
			l16.2-28c1.6-2.8,1.6-6.3,0-9.1L427,339l21.4-37c1.6-2.8,1.6-6.3,0-9.1L427,256l21.4-37c0.8-1.4,1.2-3,1.2-4.5s-0.4-3.1-1.2-4.5
			l-8.6-14.9c-2.5-4.3-8-5.8-12.3-3.3c-4.3,2.5-5.8,8-3.3,12.3l6,10.3l-21.4,37c-1.6,2.8-1.6,6.3,0,9.1l21.4,37l-21.4,37
			c-1.6,2.8-1.6,6.3,0,9.1l21.4,37L411.4,413h-61.8c-5,0-9,4-9,9c0,5,4,9,9,9l153.4,0c5,0,9-4,9-9c0-5-4-9-9-9h-14.1v-18.9H503
			c5,0,9-4,9-9c0-5-4-9-9-9h-14.1v-18.9H503c5,0,9-4,9-9c0-5-4-9-9-9h-14.1v-18.9H503c5,0,9-4,9-9c0-5-4-9-9-9h-14.1v-18.9H503
			c5,0,9-4,9-9c0-5-4-9-9-9h-14.1v-18.9H503c5,0,9-4,9-9s-4-9-9-9h-14.1v-18.9H503c5,0,9-4,9-9s-4-9-9-9h-14.1v-18.9H503
			c5,0,9-4,9-9s-4-9-9-9h-14.1v-18.9H503c5,0,9-4,9-9c0-5-4-9-9-9h-14.1V98.9H503c5,0,9-4,9-9s-4-9-9-9L9,80.9L9,80.9z"/>
	</g>
</g>
<g>
	<g>
		<path d="M250.7,181.1l-31.8,23c-4,2.9-4.9,8.6-2,12.6c2.9,4,8.6,4.9,12.6,2l26.6-19.2l78,56.4l-78,56.4L178,256l22.8-16.5
			c4-2.9,4.9-8.6,2-12.6c-2.9-4-8.6-4.9-12.6-2l-32.9,23.8c-2.3,1.7-3.7,4.4-3.7,7.3c0,2.9,1.4,5.6,3.7,7.3l93.4,67.6
			c3.2,2.3,7.4,2.3,10.6,0l93.4-67.6c2.3-1.7,3.7-4.4,3.7-7.3c0-2.9-1.4-5.6-3.7-7.3l-93.4-67.6
			C258.1,178.8,253.9,178.8,250.7,181.1z"/>
	</g>
</g>
<g>
	<g>
		<path d="M172.4,156.9v8.1h-8.1c-5,0-9,4-9,9c0,5,4,9,9,9h8.1v8.1c0,5,4,9,9,9s9-4,9-9v-8.1h8.1c5,0,9-4,9-9s-4-9-9-9h-8.1v-8.1
			c0-5-4-9-9-9C176.4,147.9,172.4,151.9,172.4,156.9z"/>
	</g>
</g>
<g>
	<g>
		<path d="M330.2,156.9v8.1H322c-5,0-9,4-9,9s4,9,9,9h8.1v8.1c0,5,4,9,9,9s9-4,9-9v-8.1h8.1c5,0,9-4,9-9s-4-9-9-9h-8.1v-8.1
			c0-5-4-9-9-9S330.2,151.9,330.2,156.9z"/>
	</g>
</g>
<g>
	<g>
		<path d="M247,238.9v8.1h-8.1c-5,0-9,4-9,9c0,5,4,9,9,9h8.1v8.1c0,5,4,9,9,9c5,0,9-4,9-9V265h8.1c5,0,9-4,9-9c0-5-4-9-9-9H265v-8.1
			c0-5-4-9-9-9C251,229.8,247,233.9,247,238.9z"/>
	</g>
</g>
<g>
	<g>
		<path d="M172.4,326.6v8.1h-8.1c-5,0-9,4-9,9c0,5,4,9,9,9h8.1v8.1c0,5,4,9,9,9s9-4,9-9v-8.1h8.1c5,0,9-4,9-9c0-5-4-9-9-9h-8.1v-8.1
			c0-5-4-9-9-9C176.4,317.6,172.4,321.6,172.4,326.6z"/>
	</g>
</g>
<g>
	<g>
		<path d="M330.2,326.6v8.1h-8.1c-5,0-9,4-9,9c0,5,4,9,9,9h8.1v8.1c0,5,4,9,9,9s9-4,9-9v-8.1h8.1c5,0,9-4,9-9c0-5-4-9-9-9h-8.1v-8.1
			c0-5-4-9-9-9S330.2,321.6,330.2,326.6z"/>
	</g>
</g>
</svg>
