<?xml version="1.0" encoding="iso-8859-1"?>
<!-- Generator: Adobe Illustrator 19.0.0, SVG Export Plug-In . SVG Version: 6.00 Build 0)  -->
<svg version="1.1" id="Capa_1" xmlns="http://www.w3.org/2000/svg" xmlns:xlink="http://www.w3.org/1999/xlink" x="0px" y="0px"
	 viewBox="0 0 480 480" style="enable-background:new 0 0 480 480;" xml:space="preserve">
<g>
	<g>
		<rect x="64" y="32" width="48" height="16"/>
	</g>
</g>
<g>
	<g>
		<rect x="128" y="32" width="48" height="16"/>
	</g>
</g>
<g>
	<g>
		<rect x="64" y="64" width="48" height="16"/>
	</g>
</g>
<g>
	<g>
		<rect x="128" y="64" width="48" height="16"/>
	</g>
</g>
<g>
	<g>
		<rect x="64" y="96" width="48" height="16"/>
	</g>
</g>
<g>
	<g>
		<rect x="128" y="96" width="48" height="16"/>
	</g>
</g>
<g>
	<g>
		<rect x="64" y="128" width="48" height="16"/>
	</g>
</g>
<g>
	<g>
		<rect x="128" y="128" width="48" height="16"/>
	</g>
</g>
<g>
	<g>
		<rect x="64" y="160" width="48" height="16"/>
	</g>
</g>
<g>
	<g>
		<rect x="128" y="160" width="48" height="16"/>
	</g>
</g>
<g>
	<g>
		<rect x="64" y="192" width="48" height="16"/>
	</g>
</g>
<g>
	<g>
		<rect x="128" y="192" width="48" height="16"/>
	</g>
</g>
<g>
	<g>
		<path d="M248,152v-16c0-66.168,53.832-120,120-120h112V0H368c-74.992,0-136,61.008-136,136v16c0,13.232-10.768,24-24,24V8
			c0-4.424-3.576-8-8-8H40c-4.424,0-8,3.576-8,8v272v16c0,22.056,17.944,40,40,40h8v24c0,2.128,0.84,4.16,2.344,5.656l16,16
			C99.84,383.16,101.872,384,104,384h8v16H72c-13.232,0-24,10.768-24,24v8H8c-4.424,0-8,3.576-8,8v32c0,4.424,3.576,8,8,8h464
			c4.424,0,8-3.576,8-8v-32c0-4.424-3.576-8-8-8H192v-8c0-13.232-10.768-24-24-24h-40v-16h8c2.128,0,4.16-0.84,5.656-2.344l16-16
			C159.16,364.16,160,362.128,160,360v-24h8c22.056,0,40-17.944,40-40v-8c74.992,0,136-61.008,136-136v-16c0-13.232,10.768-24,24-24
			h112V96H368c-22.056,0-40,17.944-40,40v16c0,66.168-53.832,120-120,120v-16c57.344,0,104-46.656,104-104v-16
			c0-30.872,25.128-56,56-56h112V64H368c-39.704,0-72,32.296-72,72v16c0,48.52-39.48,88-88,88v-16c39.704,0,72-32.296,72-72v-16
			c0-48.52,39.48-88,88-88h112V32H368c-57.344,0-104,46.656-104,104v16c0,30.872-25.128,56-56,56v-16
			C230.056,192,248,174.056,248,152z M464,448v16H16v-16h40h128H464z M168,416c4.416,0,8,3.584,8,8v8H64v-8c0-4.416,3.584-8,8-8H168
			z M144,356.688L132.688,368h-25.376L96,356.688V336h48V356.688z M192,296c0,13.232-10.768,24-24,24h-16H88H72
			c-13.232,0-24-10.768-24-24v-8h144V296z M192,272H48V16h144V272z"/>
	</g>
</g>
<g>
	<g>
		<rect x="256" y="344" width="16" height="16"/>
	</g>
</g>
<g>
	<g>
		<rect x="288" y="344" width="16" height="16"/>
	</g>
</g>
<g>
	<g>
		<rect x="288" y="376" width="16" height="16"/>
	</g>
</g>
<g>
	<g>
		<rect x="288" y="312" width="16" height="16"/>
	</g>
</g>
<g>
	<g>
		<rect x="344" y="344" width="16" height="16"/>
	</g>
</g>
<g>
	<g>
		<rect x="376" y="344" width="16" height="16"/>
	</g>
</g>
<g>
	<g>
		<rect x="376" y="376" width="16" height="16"/>
	</g>
</g>
<g>
	<g>
		<rect x="376" y="312" width="16" height="16"/>
	</g>
</g>
<g>
	<g>
		<rect x="432" y="344" width="16" height="16"/>
	</g>
</g>
<g>
	<g>
		<rect x="464" y="344" width="16" height="16"/>
	</g>
</g>
<g>
	<g>
		<rect x="464" y="376" width="16" height="16"/>
	</g>
</g>
<g>
	<g>
		<rect x="464" y="312" width="16" height="16"/>
	</g>
</g>
<g>
</g>
<g>
</g>
<g>
</g>
<g>
</g>
<g>
</g>
<g>
</g>
<g>
</g>
<g>
</g>
<g>
</g>
<g>
</g>
<g>
</g>
<g>
</g>
<g>
</g>
<g>
</g>
<g>
</g>
</svg>
