<svg 
 xmlns="http://www.w3.org/2000/svg"
 xmlns:xlink="http://www.w3.org/1999/xlink"
 width="21px" height="21px">
<path fill-rule="evenodd"  opacity="0.502" fill="rgb(51, 51, 51)"
 d="M20.724,19.487 L15.904,14.777 C17.329,13.205 18.223,11.163 18.223,8.903 C18.222,3.993 14.134,0.000 9.112,0.000 C4.088,0.000 0.000,3.993 0.000,8.903 C0.000,13.810 4.088,17.803 9.112,17.803 C11.169,17.803 13.049,17.108 14.575,15.979 L19.445,20.738 C19.623,20.910 19.853,20.996 20.084,20.996 C20.315,20.996 20.548,20.910 20.724,20.738 C21.078,20.393 21.078,19.833 20.724,19.487 ZM1.809,8.903 C1.809,4.970 5.086,1.768 9.112,1.768 C13.138,1.768 16.413,4.969 16.413,8.903 C16.413,12.836 13.138,16.035 9.112,16.035 C5.086,16.035 1.809,12.836 1.809,8.903 Z"/>
</svg>