<svg 
 xmlns="http://www.w3.org/2000/svg"
 xmlns:xlink="http://www.w3.org/1999/xlink"
 width="41px" height="33px">
<path fill-rule="evenodd"  fill="rgb(255, 255, 255)"
 d="M35.861,20.411 C35.955,20.503 36.002,20.627 36.002,20.780 L36.002,22.306 C36.002,22.461 35.955,22.583 35.861,22.676 C35.768,22.768 35.642,22.814 35.487,22.814 L15.123,22.814 C14.966,22.814 14.819,22.768 14.679,22.676 C14.539,22.583 14.453,22.475 14.422,22.352 L5.807,2.990 C5.745,2.868 5.644,2.759 5.504,2.667 C5.363,2.575 5.228,2.529 5.106,2.529 L0.517,2.529 C0.392,2.529 0.275,2.483 0.167,2.390 C0.057,2.298 0.002,2.175 0.002,2.020 L0.002,0.496 C0.002,0.342 0.057,0.218 0.167,0.126 C0.275,0.034 0.392,-0.014 0.517,-0.014 L6.790,-0.014 C6.916,-0.014 7.048,0.034 7.188,0.126 C7.328,0.218 7.430,0.326 7.493,0.449 L16.060,19.810 C16.120,19.933 16.222,20.041 16.363,20.133 C16.504,20.226 16.652,20.272 16.810,20.272 L35.487,20.272 C35.642,20.272 35.768,20.319 35.861,20.411 ZM22.027,26.463 C22.792,27.203 23.175,28.097 23.175,29.144 C23.175,30.192 22.792,31.093 22.027,31.847 C21.262,32.602 20.351,32.979 19.289,32.979 C18.229,32.979 17.324,32.602 16.574,31.847 C15.825,31.093 15.451,30.192 15.451,29.144 C15.451,28.097 15.825,27.203 16.574,26.463 C17.324,25.725 18.229,25.354 19.289,25.354 C20.351,25.354 21.262,25.725 22.027,26.463 ZM34.879,26.463 C35.627,27.203 36.002,28.097 36.002,29.144 C36.002,30.192 35.627,31.093 34.879,31.847 C34.129,32.602 33.223,32.979 32.163,32.979 C31.101,32.979 30.189,32.602 29.424,31.847 C28.659,31.093 28.278,30.192 28.278,29.144 C28.278,28.097 28.659,27.203 29.424,26.463 C30.189,25.725 31.101,25.354 32.163,25.354 C33.223,25.354 34.129,25.725 34.879,26.463 ZM40.917,5.209 C40.980,5.302 40.995,5.410 40.964,5.532 L40.308,7.149 C40.245,7.273 40.145,7.381 40.004,7.473 C39.864,7.566 39.731,7.612 39.607,7.612 L14.422,7.612 C14.264,7.612 14.124,7.566 14.000,7.473 C13.875,7.381 13.781,7.273 13.719,7.149 L13.063,5.532 C13.000,5.410 13.000,5.302 13.063,5.209 C13.126,5.116 13.235,5.070 13.391,5.070 L40.636,5.070 C40.762,5.070 40.854,5.116 40.917,5.209 ZM36.844,15.328 C36.908,15.421 36.908,15.529 36.844,15.652 L36.190,17.269 C36.125,17.393 36.033,17.500 35.908,17.593 C35.783,17.684 35.642,17.732 35.487,17.732 L18.542,17.732 C18.384,17.732 18.235,17.684 18.096,17.593 C17.956,17.500 17.869,17.393 17.838,17.269 L17.183,15.652 C17.120,15.529 17.120,15.421 17.183,15.328 C17.246,15.236 17.353,15.190 17.511,15.190 L36.518,15.190 C36.673,15.190 36.781,15.236 36.844,15.328 ZM38.905,10.269 C38.967,10.345 38.967,10.446 38.905,10.568 L38.249,12.186 C38.186,12.340 38.092,12.455 37.968,12.533 C37.843,12.610 37.702,12.649 37.547,12.649 L16.479,12.649 C16.324,12.649 16.184,12.610 16.060,12.533 C15.934,12.455 15.841,12.340 15.778,12.186 L15.123,10.568 C15.060,10.446 15.060,10.338 15.123,10.245 C15.185,10.153 15.294,10.107 15.451,10.107 L38.576,10.107 C38.732,10.138 38.842,10.191 38.905,10.269 Z"/>
</svg>