<svg 
 xmlns="http://www.w3.org/2000/svg"
 xmlns:xlink="http://www.w3.org/1999/xlink"
 width="52px" height="52px">
<path fill-rule="evenodd"  fill="rgb(255, 255, 255)"
 d="M48.513,13.000 C41.335,0.564 25.432,-3.698 12.997,3.484 C0.563,10.662 -3.698,26.563 3.482,38.999 C10.662,51.434 26.563,55.696 38.998,48.515 C51.433,41.335 55.695,25.434 48.513,13.000 ZM36.398,44.011 C26.451,49.756 13.729,46.346 7.986,36.399 C2.241,26.451 5.650,13.729 15.599,7.986 C25.546,2.242 38.268,5.651 44.011,15.599 C49.755,25.547 46.345,38.268 36.398,44.011 ZM35.359,24.943 L21.743,17.002 C20.503,16.278 19.503,16.857 19.509,18.292 L19.578,34.053 C19.586,35.487 20.598,36.071 21.842,35.352 L35.354,27.553 C36.596,26.835 36.598,25.666 35.359,24.943 Z"/>
</svg>