<svg xmlns="http://www.w3.org/2000/svg" viewBox="0 0 676 262.42"><defs><style>.cls-1{fill:#2c3649;}</style></defs><title>Asset 1</title><g id="Layer_2" data-name="Layer 2"><g id="Layer_1-2" data-name="Layer 1"><path class="cls-1" d="M659.55,135.07c1.49,1.69,6.33,2.81,14.54,3.32l.91.05a1.06,1.06,0,0,1,1,1.06v3.89a1.07,1.07,0,0,1-1.06,1.06H618.56a1.06,1.06,0,0,1-1.06-1.06V139.5a1.06,1.06,0,0,1,1-1.06l.92-.05c8.14-.51,13-1.63,14.47-3.32s2.27-6.9,2.27-15.57V26.8c0-8.7-.76-13.87-2.27-15.55S627.56,8.5,619.42,8l-1-.09a1.06,1.06,0,0,1-1-1.06v-4a1.05,1.05,0,0,1,1.06-1.06h56.38A1.06,1.06,0,0,1,676,2.88v4a1.07,1.07,0,0,1-1,1.06l-.95.09q-12.32.76-14.54,3.26c-1.46,1.68-2.2,6.85-2.2,15.55v92.7C657.35,128.17,658.09,133.37,659.55,135.07ZM553.68,23.43Q538.41,8.27,504.2,8.27H489.41a1.05,1.05,0,0,0-1.06,1.06V119.59c0,8.68.89,13.61,2.71,14.82,3.6,2.42,10.64,3.61,21.07,3.61q28.39,0,42.6-16.36t14.21-49Q568.94,38.59,553.68,23.43Zm18.43,101q-19.18,20-52.3,20H449.56a1.07,1.07,0,0,1-1.06-1.06V139.5a1.06,1.06,0,0,1,1-1.06l.92-.05c8.14-.51,13-1.63,14.46-3.32s2.28-6.9,2.28-15.57V26.8c0-8.7-.75-13.87-2.28-15.55S458.56,8.5,450.42,8l-1-.09a1.07,1.07,0,0,1-1-1.06v-4a1.06,1.06,0,0,1,1.06-1.06h46.63l15.58-.38L519,1.36q35,0,53.73,17.72t18.6,51Q591.33,104.47,572.11,124.46ZM348.87,30,321.71,91.21a1.06,1.06,0,0,0,1,1.49h53.93a1.06,1.06,0,0,0,1-1.49L350.81,30A1.06,1.06,0,0,0,348.87,30Zm29.69,113.44v-3.84a1.06,1.06,0,0,1,1.06-1.06h.74q14.13,0,14.12-3.85,0-5.71-4.23-15.14l-8.06-18.36a1.06,1.06,0,0,0-1-.64H318.48a1.06,1.06,0,0,0-1,.62l-8.33,18.36c-3.32,7.45-5,12.46-5,15,0,2.69,4.33,4.05,13,4.05h.55a1.07,1.07,0,0,1,1.06,1.06v3.84a1.07,1.07,0,0,1-1.06,1.06H281.16a1.07,1.07,0,0,1-1.06-1.06V139.5a1.06,1.06,0,0,1,1-1.06l1.1-.05q8.69-.37,10.34-2.08T301,119.5L353.37.63a1.06,1.06,0,0,1,1-.63H360a1.06,1.06,0,0,1,1,.64l52.1,119.53q6.15,12.93,8.67,15.38c1.67,1.62,5,2.59,9.89,2.84l1.31.06a1.06,1.06,0,0,1,1,1.06v3.88a1.07,1.07,0,0,1-1.07,1.06H379.62A1.06,1.06,0,0,1,378.56,143.39Zm-219.54,0V139.5a1.06,1.06,0,0,1,1-1.06l.9-.05c8.14-.51,13-1.63,14.49-3.32s2.25-6.9,2.25-15.57V26.8c0-8.7-.74-13.87-2.25-15.55S169.06,8.5,160.92,8L160,7.9a1.06,1.06,0,0,1-1-1.06v-4a1.05,1.05,0,0,1,1.06-1.06h56.38a1.05,1.05,0,0,1,1.06,1.06v4a1.06,1.06,0,0,1-1,1.06l-1,.09c-8.21.51-13,1.6-14.52,3.26s-2.22,6.85-2.22,15.55v92.7q0,12.84,2,14.75c1.35,1.3,6.52,1.92,15.5,1.92h15.43c12.18,0,19.14-.66,20.93-2s2.89-6.72,3.38-16.31l.05-.92a1.06,1.06,0,0,1,1.06-1h8.53a1.06,1.06,0,0,1,1.07,1.06v26.39a1.07,1.07,0,0,1-1.07,1.06H160.08A1.06,1.06,0,0,1,159,143.39ZM142.23,8c-4.64.18-7.49.9-8.52,2.14s-3.69,6.89-7.93,17l-48,118.46a1.06,1.06,0,0,1-1,.67H71.37a1.06,1.06,0,0,1-1-.65L19.48,27.27c-4.37-9.64-7.23-15.2-8.59-16.73S6.62,8.17,2.12,8L1,7.89A1.07,1.07,0,0,1,0,6.83V2.88A1.06,1.06,0,0,1,1.06,1.82H53.13a1.05,1.05,0,0,1,1.06,1.06V6.74A1.05,1.05,0,0,1,53.13,7.8H52q-15.53,0-15.52,3.75c0,1,2,6.27,6,15.72l37.64,87.48a1.06,1.06,0,0,0,2,0l35.38-87.56c.81-1.92,1.48-3.57,2-4.92q3.24-7.85,3.23-10.23c0-2.8-4.89-4.22-14.64-4.22h-1.15a1.05,1.05,0,0,1-1.06-1.06V2.88a1.05,1.05,0,0,1,1.06-1.06h36.44a1.05,1.05,0,0,1,1.06,1.06v4a1.07,1.07,0,0,1-1,1.06Z"/><path class="cls-1" d="M613.67,219.51c1.86-1.33,3.6-2.71,5.2-4.11,1-.87,2-1.84,3.1-2.86a28.29,28.29,0,0,0,2.88-3.24,15.44,15.44,0,0,0,2.07-3.48,8.63,8.63,0,0,0,.69-3.68,12,12,0,0,0-.28-1.78,5.06,5.06,0,0,0-.66-1.53,3.91,3.91,0,0,0-1-1.05,2.28,2.28,0,0,0-1.34-.4c-2.24.12-4.48,1.42-6.73,3.88a42.79,42.79,0,0,0-6.33,9.8,20.73,20.73,0,0,0-1.23,3c-.35,1.11-.69,2.24-1,3.38s-.6,2.28-.81,3.41c0,.12-.06.25-.08.37a1.06,1.06,0,0,0,1.66,1.07Zm61-2.23a.61.61,0,0,1-.07.1,112,112,0,0,1-16,17.59,115.7,115.7,0,0,1-9.56,7.59,79.46,79.46,0,0,1-10,6.08,54.26,54.26,0,0,1-10.1,4,35.1,35.1,0,0,1-9.72,1.32q-10.14,0-15.74-5.61t-5.61-16.93A55.87,55.87,0,0,1,600.85,213a50.59,50.59,0,0,1,10.48-17.19,26.86,26.86,0,0,1,3.15-2.77,26.55,26.55,0,0,1,3.66-2.36,22.69,22.69,0,0,1,4-1.63,18.37,18.37,0,0,1,4.08-.71h.12a11.32,11.32,0,0,1,1.33.11,11.59,11.59,0,0,1,1.9.43,12.3,12.3,0,0,1,2,.75,4.71,4.71,0,0,1,1.52,1.11,17.67,17.67,0,0,1,2.82,4,11.08,11.08,0,0,1,1.17,4.52,16.52,16.52,0,0,1-.67,5.45,20.26,20.26,0,0,1-2.65,5.49,37.62,37.62,0,0,1-4.91,5.78,93.09,93.09,0,0,1-7.36,6.43c-1.8,1.44-3.83,3-6,4.78a85.06,85.06,0,0,1-7.49,5.2,1.08,1.08,0,0,0-.51.93c.12,3.6,1.35,6.37,3.69,8.29s5.86,3,10.17,3a29.86,29.86,0,0,0,7.27-.91,48.15,48.15,0,0,0,7.23-2.38,59.92,59.92,0,0,0,6.87-3.38c2.21-1.25,4.3-2.56,6.24-3.88q5.39-3.74,9.76-7.45t8.68-7.8l3.38-3.23.07-.06c2.05-1.71,3.53-2.55,4.47-2.55q.75,0,.75,1.14A7.78,7.78,0,0,1,674.64,217.28Zm-74.33-2.18c-.15.57-.33,1.16-.55,1.8s-.53,1.3-.82,2a14.32,14.32,0,0,1-1.05,1.79c-.74,1-1.67,2.25-2.83,3.61s-2.43,2.79-3.84,4.24-2.87,2.95-4.46,4.41-3.13,2.81-4.65,4c-1.23,1-2.64,2-4.25,3.18a49.67,49.67,0,0,1-5.06,3.26,34.47,34.47,0,0,1-5.44,2.5,15.58,15.58,0,0,1-5.26,1,12.45,12.45,0,0,1-4-.6,7.72,7.72,0,0,1-3.29-2.25,15,15,0,0,1-2.63-4.56,39.69,39.69,0,0,1-2-7.47c-.26-1.28-.47-2.66-.67-4.14s-.38-2.92-.58-4.35-.37-2.85-.52-4.21-.37-2.52-.61-3.55a14.31,14.31,0,0,0-.76-2.44c-.27-.6-.59-.9-.92-.9a4.27,4.27,0,0,0-2.31,1.32,32,32,0,0,0-3.48,3.82q-2,2.52-4.38,6c-1.57,2.32-3.24,4.94-5,7.84a128.07,128.07,0,0,1-8.68,13.19c-2.36,3-4.53,4.53-6.47,4.53a5.76,5.76,0,0,1-5.87-3.93c-.94-2.64-1.51-7.09-1.73-13.31a70.14,70.14,0,0,0-1.35-14c-.79-3.27-1.79-4.91-3-4.91-.76,0-1.86.65-3.31,2a44.57,44.57,0,0,0-4.95,5.39q-2.76,3.42-6,8.11t-6.45,10.16c-.6,1-1.28,2.07-2,3.3s-1.53,2.51-2.31,3.78-1.55,2.46-2.29,3.59-1.38,2.05-1.92,2.77a5.42,5.42,0,0,1-4.44,2.53,6.12,6.12,0,0,1-6.33-4.7c-.25-.8-.46-1.45-.6-2a13.08,13.08,0,0,1-.36-1.5c-.08-.52-.12-1.06-.16-1.67s0-1.38,0-2.33c0-1.62.06-3.09.15-4.45s.24-2.7.41-4.07.39-2.82.64-4.4.51-3.39.76-5.48c.21-1.73.41-3.57.57-5.54s.33-3.89.48-5.76.29-3.59.43-5.15a23.39,23.39,0,0,1,.6-3.74,5.62,5.62,0,0,1,.9-1.69,13.1,13.1,0,0,1,1.61-1.84,12.71,12.71,0,0,1,1.93-1.5,3.34,3.34,0,0,1,1.78-.63,3.92,3.92,0,0,1,2.19.56,4.29,4.29,0,0,1,1.38,1.54,7.54,7.54,0,0,1,.77,2.25,15.87,15.87,0,0,1,.22,2.7,29.11,29.11,0,0,1-.29,3.62c-.18,1.44-.42,3-.72,4.7s-.63,3.42-1,5.24-.7,3.53-1.05,5.18-.64,3.16-.91,4.55-.48,2.52-.6,3.41c-.38,2.21-.63,4-.76,5.27v.08a1.06,1.06,0,0,0,1.88.77l0,0q1.27-1.57,2.79-3.68c1-1.41,2.08-3,3.2-4.64s2.25-3.42,3.39-5.19c.8-1.25,1.7-2.65,2.69-4.22s2-3.14,3.11-4.74,2.15-3.07,3.2-4.49a44.72,44.72,0,0,1,2.91-3.54,21,21,0,0,1,5.5-4.41,12.68,12.68,0,0,1,6-1.5,7.2,7.2,0,0,1,5.28,2.26,11.41,11.41,0,0,1,3,5.88,34.18,34.18,0,0,1,.61,3.88c.13,1.47.28,3,.41,4.62s.23,3.21.35,4.82.21,3.13.35,4.57a21.9,21.9,0,0,0,.53,3.51,13.08,13.08,0,0,0,.73,2.2,4,4,0,0,0,.7,1.13c.2.23.37.34.5.34.81,0,2.15-1.59,4-4.75,1-1.62,2.05-3.4,3.23-5.38l3.93-6.5q2.16-3.5,4.63-6.76a64.83,64.83,0,0,1,4.84-5.75,30.09,30.09,0,0,1,4.47-4,6.5,6.5,0,0,1,3.55-1.47,12.22,12.22,0,0,1,2,.16,10.43,10.43,0,0,1,2,.56,7.63,7.63,0,0,1,1.69.86,4,4,0,0,1,1.11,1.13,9.92,9.92,0,0,1,1.36,3.28,31.92,31.92,0,0,1,.6,4.22c.13,1.58.24,3.36.35,5.3s.28,4.11.53,6.5c.6,5,1.51,8.75,2.76,11.23s3,3.69,5.35,3.69a9.11,9.11,0,0,0,3.36-.83,34.57,34.57,0,0,0,4.31-2.2c1.52-.92,3-1.93,4.62-3.07s3-2.29,4.37-3.42,2.65-2.26,3.89-3.4,2.51-2.31,3.77-3.5,2.57-2.41,3.9-3.7,2.75-2.66,4.28-4.09a2.11,2.11,0,0,1,1.39-.74c.63,0,.94.52.94,1.57A5.22,5.22,0,0,1,600.31,215.1Zm-181.07.75a16.86,16.86,0,0,0-1.11-4,8.6,8.6,0,0,0-2.09-3.1,3.68,3.68,0,0,0-3-1,1.12,1.12,0,0,1-.48-.06,25.52,25.52,0,0,1-4.58-2.2,6.19,6.19,0,0,0-2.91-1.21,3.7,3.7,0,0,0-1.65.45,10.43,10.43,0,0,0-1.84,1.24,19.15,19.15,0,0,0-1.93,1.84c-.65.7-1.3,1.44-1.93,2.2l-3.51,4.28c-1.09,1.28-2.1,2.56-3.05,3.83s-1.87,2.58-2.75,4-1.77,2.94-2.66,4.68a14.88,14.88,0,0,0-1,2.59c-.29,1-.54,2-.76,3.11s-.35,2.12-.47,3.18-.16,2-.16,2.87a4.26,4.26,0,0,0,.57,1.9,12.18,12.18,0,0,0,1.49,2.17,9.26,9.26,0,0,0,2.08,1.78,4.43,4.43,0,0,0,2.32.71,48.11,48.11,0,0,0,5.51-.26,19.18,19.18,0,0,0,4.22-1,20.47,20.47,0,0,0,3.89-1.9c1.3-.8,2.83-1.85,4.56-3.14a20.63,20.63,0,0,0,2.5-2.1c.82-.81,1.64-1.65,2.44-2.56s1.56-1.83,2.28-2.77,1.4-1.88,2-2.81a9.08,9.08,0,0,0,1.08-2.23,19.89,19.89,0,0,0,.69-2.65c.17-.87.27-1.69.35-2.41s.09-1.24.09-1.57A19.62,19.62,0,0,0,419.24,215.85Zm47.09-8.55a11.34,11.34,0,0,1-1.22,2,19.94,19.94,0,0,1-1.69,1.87,9,9,0,0,1-1.87,1.41,22.81,22.81,0,0,1-6.3,2.45,44.05,44.05,0,0,1-19.8-.13,31.92,31.92,0,0,1-6.38-2.26,1.06,1.06,0,0,0-1.45,1.3,8.31,8.31,0,0,1,.33,1.12,22.48,22.48,0,0,1,.41,4.58,23.88,23.88,0,0,1-2.53,10.12,43,43,0,0,1-6.41,10.07,43.87,43.87,0,0,1-8.29,7.73,31.1,31.1,0,0,1-5.42,3,39.32,39.32,0,0,1-6.17,2.12,50.74,50.74,0,0,1-6.71,1.2,63.16,63.16,0,0,1-7,.39,8.81,8.81,0,0,1-4.82-1.51,18.15,18.15,0,0,1-4.17-3.67,19.53,19.53,0,0,1-2.95-4.64,10.91,10.91,0,0,1-1.11-4.46,32.32,32.32,0,0,1,1.36-9.37,44.93,44.93,0,0,1,3.67-8.69,69.22,69.22,0,0,1,5.36-8.19q3-4,6.45-8a44.64,44.64,0,0,1,4.34-4.37,42.44,42.44,0,0,1,5.1-3.83,32.21,32.21,0,0,1,5.39-2.74,14.21,14.21,0,0,1,5.19-1,10,10,0,0,1,3.48.53,10.91,10.91,0,0,1,2.76,1.54,20.19,20.19,0,0,1,2.66,2.5q1.37,1.51,3.14,3.38a12.13,12.13,0,0,0,3.13,1.59,58.49,58.49,0,0,0,6.07,2c2.36.67,4.82,1.25,7.39,1.76a38,38,0,0,0,7,.74c2.11,0,4.06-.06,5.83-.21a47.16,47.16,0,0,0,5.16-.69,36,36,0,0,0,5-1.33c1.64-.56,3.41-1.23,5.32-2.05a6.39,6.39,0,0,1,.25,1.57A5.07,5.07,0,0,1,466.33,207.3Zm-87,12.81c-.47.72-1.06,1.53-1.77,2.41s-1.47,1.78-2.25,2.68-1.55,1.75-2.31,2.56-1.43,1.48-2,2a103,103,0,0,1-7.79,6.82,72,72,0,0,1-8.52,5.81,47.83,47.83,0,0,1-9.12,4.14,31.65,31.65,0,0,1-9.59,1.63,15.71,15.71,0,0,1-6.62-1.34,9.73,9.73,0,0,1-4.53-4.27,24.54,24.54,0,0,1-2.47-6.63,77.5,77.5,0,0,1-1.33-7.91c0-.43-.11-1.1-.19-2s-.19-1.86-.28-2.92-.25-2.16-.43-3.3-.35-2.13-.56-3.06a11.61,11.61,0,0,0-.72-2.26c-.29-.59-.59-.88-.93-.88-1.3,0-3.11.84-5.39,2.51a67,67,0,0,0-7.47,6.57q-4,4.07-8.29,9.19t-7.92,10.44c-2.15,3-4.1,6.11-5.86,9.18s-3.28,5.76-4.59,8a6.67,6.67,0,0,1-2.28,2.19,4.52,4.52,0,0,1-1.65.64,5,5,0,0,1-2.05-.46,6.71,6.71,0,0,1-1.9-1.17,6.09,6.09,0,0,1-1.4-1.65,3.69,3.69,0,0,1-.54-1.84,18.54,18.54,0,0,1,.29-2.57c.18-1.18.41-2.52.66-4s.51-3,.76-4.62.47-3.06.64-4.43q.44-4,1-8.74t1.07-9.61c.35-3.23.66-6.4,1-9.5s.52-5.89.69-8.37c0-.81.11-1.87.19-3.19s.17-2.79.26-4.39.17-3.25.25-5,.17-3.5.25-5.16.16-3.23.23-4.71.11-2.69.15-3.69.13-2.18.23-3.14a28.45,28.45,0,0,1,.44-2.87,17.94,17.94,0,0,1,.82-2.82,33.55,33.55,0,0,1,1.37-3.11,5.06,5.06,0,0,1,.82-1.21,7.47,7.47,0,0,1,1.3-1.2,7.73,7.73,0,0,1,1.58-.93,4.17,4.17,0,0,1,1.74-.4,4.74,4.74,0,0,1,3.33,1.4,5,5,0,0,1,1.48,3.84,11.24,11.24,0,0,1-.28,2.11c-.19.89-.42,1.8-.67,2.75s-.49,1.85-.73,2.7-.38,1.54-.47,2q-.51,2.49-.88,5.68c-.25,2.13-.5,4.29-.74,6.51s-.43,4.39-.59,6.54-.32,4.07-.45,5.76c-.12,1.92-.28,3.73-.48,5.42s-.38,3.36-.56,5-.37,3.36-.54,5.07-.34,3.54-.51,5.51q-.45,4.46-1,7.87a35.12,35.12,0,0,0-.58,5.82,1.41,1.41,0,0,0,.42.83c.27.32.52.49.73.49H282a21.24,21.24,0,0,0,1.45-2c.6-.89,1.28-1.86,2-2.91l2.38-3.27c.82-1.15,1.64-2.21,2.43-3.18s1.68-2,2.63-3.15,1.95-2.31,3-3.48,2.09-2.33,3.16-3.49,2.12-2.26,3.13-3.25q2-1.87,4.38-3.93a44.69,44.69,0,0,1,5-3.72,32.81,32.81,0,0,1,5.29-2.78,13.36,13.36,0,0,1,5.07-1.09,4,4,0,0,1,1.16.25,6.41,6.41,0,0,1,1.46.68,7.07,7.07,0,0,1,1.36,1.09,4,4,0,0,1,1,1.49,34.77,34.77,0,0,1,1.84,6.5q.56,3.26,1,6.87c.25,2,.53,4.16.82,6.32a49.32,49.32,0,0,0,1.14,5.91,14.39,14.39,0,0,0,1.81,4.34,3.27,3.27,0,0,0,2.81,1.7,35.16,35.16,0,0,0,14.95-3.32,69.87,69.87,0,0,0,6.56-3.39,53.49,53.49,0,0,0,5.13-3.36,56.54,56.54,0,0,0,4.71-3.86c1.58-1.4,3.39-3,5.46-4.88q6.13-5.37,7.15-5.37c.63,0,1,.83,1,2.48C381.22,217,380.58,218.3,379.31,220.11Z"/></g></g></svg>