<?xml version="1.0" standalone="no"?>
<!DOCTYPE svg PUBLIC "-//W3C//DTD SVG 20010904//EN"
 "http://www.w3.org/TR/2001/REC-SVG-20010904/DTD/svg10.dtd">
<svg version="1.0" xmlns="http://www.w3.org/2000/svg"
 width="816.000000pt" height="816.000000pt" viewBox="0 0 816.000000 816.000000"
 preserveAspectRatio="xMidYMid meet">
<metadata>
Created by potrace 1.11, written by Peter Selinger 2001-2013
</metadata>
<g transform="translate(0.000000,816.000000) scale(0.100000,-0.100000)"
fill="#000000" stroke="none">
<path d="M3478 7875 c-1 -2 -46 -6 -98 -9 -52 -4 -115 -8 -140 -11 -25 -3 -65
-7 -90 -9 -25 -3 -45 -5 -45 -6 0 -1 -11 -3 -25 -5 -47 -6 -105 -15 -130 -20
-14 -3 -37 -8 -52 -10 -15 -2 -46 -9 -70 -16 -24 -6 -43 -10 -43 -9 0 1 -34
-11 -75 -26 -115 -41 -147 -59 -155 -91 -13 -52 -24 -100 -31 -138 -3 -16 -14
-66 -25 -110 -10 -44 -21 -90 -24 -102 -3 -13 -7 -32 -10 -43 -3 -11 -7 -28
-9 -37 -2 -10 -7 -29 -10 -43 -3 -14 -8 -36 -11 -50 -2 -14 -16 -72 -31 -130
-14 -58 -27 -113 -29 -123 -2 -10 -7 -27 -10 -37 -3 -10 -7 -27 -9 -37 -2 -10
-9 -38 -16 -63 -7 -25 -14 -52 -15 -60 -2 -8 -11 -40 -19 -72 -8 -31 -17 -67
-20 -80 -2 -12 -7 -30 -10 -38 -3 -8 -8 -26 -10 -40 -3 -14 -17 -68 -32 -120
-14 -52 -30 -113 -35 -135 -5 -22 -12 -47 -16 -55 -3 -8 -7 -20 -9 -27 -1 -6
-16 -63 -34 -125 -18 -62 -33 -117 -34 -123 -2 -5 -9 -30 -16 -55 -7 -25 -15
-49 -16 -55 -1 -5 -11 -39 -22 -75 -11 -36 -32 -108 -48 -160 -15 -52 -51
-163 -78 -247 -54 -159 -53 -164 15 -101 59 55 299 254 353 293 16 11 33 25
40 30 29 26 282 212 287 211 3 -1 13 7 22 16 15 15 140 107 201 148 42 28 131
95 144 107 7 7 17 13 21 13 4 0 16 8 27 18 10 9 46 37 79 62 72 54 93 71 110
88 8 6 16 12 18 12 2 0 12 -26 22 -57 10 -32 22 -64 28 -70 5 -7 7 -13 4 -13
-13 0 89 -227 127 -283 14 -21 26 -42 26 -47 0 -6 5 -10 10 -10 6 0 10 -6 10
-14 0 -8 3 -16 8 -18 4 -1 32 -32 62 -68 53 -63 128 -136 220 -217 67 -58 218
-173 229 -173 5 0 11 -4 13 -8 3 -10 164 -122 173 -122 4 0 13 -6 20 -12 30
-27 44 -38 50 -38 5 0 126 -80 135 -90 3 -3 17 -11 33 -19 15 -8 27 -18 27
-23 0 -4 5 -8 10 -8 6 0 64 -36 130 -80 66 -44 124 -80 130 -80 5 0 10 -4 10
-9 0 -5 9 -13 20 -16 12 -4 28 -14 38 -23 9 -10 63 -48 120 -86 56 -38 102
-73 102 -78 0 -4 6 -8 13 -8 6 0 53 -32 102 -70 50 -38 95 -73 100 -77 27 -21
122 -99 140 -114 11 -10 45 -40 75 -66 29 -26 107 -100 173 -163 65 -63 121
-117 124 -120 3 -3 2 15 -2 40 -4 25 -9 59 -11 75 -2 17 -6 46 -9 65 -32 207
-24 571 20 870 2 14 6 48 10 75 4 28 9 59 11 70 2 11 5 38 9 60 3 22 8 54 12
70 3 17 7 37 8 45 3 20 13 85 31 200 9 52 17 111 19 130 2 19 7 67 12 105 8
81 9 456 0 530 -12 98 -21 155 -33 205 -7 29 -22 95 -29 127 -32 142 -151 408
-240 538 -94 138 -237 290 -345 365 -19 14 -37 28 -40 31 -11 13 -109 77 -170
111 -56 32 -306 159 -320 163 -3 1 -12 4 -20 7 -49 17 -95 30 -113 33 -12 2
-33 6 -47 9 -14 2 -41 7 -60 10 -19 3 -44 7 -55 10 -11 2 -58 7 -105 11 -47 4
-98 9 -115 12 -38 5 -662 13 -667 8z"/>
<path d="M2759 4948 c-14 -13 -43 -36 -64 -53 -22 -16 -47 -37 -57 -47 -10
-10 -22 -18 -27 -18 -5 0 -16 -6 -23 -13 -26 -25 -115 -86 -203 -139 -113 -68
-315 -171 -315 -161 0 4 -4 3 -8 -3 -7 -11 -133 -65 -302 -129 -52 -21 -144
-56 -205 -80 -60 -23 -121 -46 -135 -50 -14 -4 -34 -14 -45 -21 -11 -8 -25
-14 -31 -14 -7 0 -43 -14 -81 -32 -37 -17 -70 -32 -73 -32 -15 -4 -126 -61
-131 -69 -3 -5 -9 -7 -11 -5 -7 4 -218 -122 -240 -144 -10 -10 -23 -18 -28
-18 -6 0 -13 -7 -16 -15 -4 -8 -11 -15 -18 -15 -6 0 -24 -12 -41 -26 -16 -14
-52 -44 -79 -67 -170 -146 -333 -343 -420 -507 -16 -30 -34 -58 -40 -62 -6 -4
-8 -8 -3 -8 4 0 0 -15 -10 -32 -9 -18 -18 -35 -18 -38 -2 -5 -21 -54 -32 -80
-8 -18 -7 -15 -22 -70 -6 -25 -16 -54 -21 -65 -5 -11 -12 -38 -15 -60 -3 -22
-8 -47 -10 -55 -19 -61 -29 -189 -29 -375 0 -203 13 -375 31 -425 3 -8 7 -28
10 -45 3 -16 8 -34 13 -40 4 -5 10 -23 14 -40 4 -16 14 -46 23 -65 18 -42 21
-49 74 -170 22 -52 73 -156 112 -230 39 -74 75 -145 81 -157 6 -13 14 -23 19
-23 4 0 7 -5 7 -10 0 -6 18 -40 40 -76 22 -36 40 -68 40 -71 0 -2 14 -24 30
-48 17 -24 30 -48 30 -53 0 -6 3 -12 8 -14 4 -1 23 -28 42 -58 19 -30 37 -57
40 -60 3 -3 23 -32 45 -65 127 -189 334 -418 442 -489 l42 -28 58 20 c78 27
321 103 342 107 9 2 16 4 16 5 0 1 7 3 15 5 8 2 83 25 165 50 83 25 159 48
170 50 11 3 49 14 85 24 74 23 422 120 451 127 44 10 55 13 79 22 14 5 27 10
30 10 9 1 65 15 192 48 71 19 138 36 150 38 40 9 61 14 148 36 47 12 94 23
105 24 11 2 38 8 60 14 37 10 51 13 123 27 15 3 35 8 44 11 10 3 30 8 45 10
16 3 46 10 68 15 22 6 49 11 60 13 51 6 105 19 105 25 0 3 -35 17 -78 31 -42
14 -88 30 -101 37 -14 7 -28 10 -33 7 -4 -3 -8 -2 -8 3 0 4 -18 14 -41 21 -22
7 -59 21 -82 31 -23 10 -94 40 -157 66 -63 26 -119 51 -125 55 -5 5 -13 9 -18
9 -13 1 -96 39 -302 136 -49 23 -119 55 -155 71 -36 15 -66 32 -68 36 -2 4 -9
8 -16 8 -7 0 -39 13 -72 29 -32 15 -76 34 -96 42 -21 7 -38 17 -38 21 0 4 -11
8 -25 8 -14 0 -25 5 -25 10 0 6 -8 10 -18 10 -10 0 -22 4 -28 9 -5 5 -26 14
-46 20 -41 13 -41 29 -3 66 16 16 113 136 153 190 20 28 42 66 41 71 0 4 4 10
9 13 13 9 64 114 95 196 39 106 86 308 102 440 16 137 26 245 31 330 1 33 5
110 9 170 7 134 13 245 19 390 7 151 22 381 31 475 12 129 17 177 21 210 2 19
6 55 9 80 2 25 7 56 10 70 2 13 7 42 10 65 3 22 8 51 10 65 3 14 7 41 10 60
11 69 15 86 39 195 13 61 34 143 45 184 11 41 19 76 17 78 -1 2 -14 -7 -27
-19z"/>
<path d="M6265 4548 c3 -16 8 -40 11 -55 3 -16 8 -44 10 -63 3 -19 7 -42 9
-50 3 -8 7 -33 10 -55 4 -22 8 -51 11 -65 2 -14 7 -45 10 -70 3 -25 10 -65 14
-89 4 -25 7 -53 5 -63 -2 -10 0 -18 4 -18 4 0 6 -13 5 -30 -1 -16 2 -47 6 -67
7 -34 13 -86 26 -228 3 -41 12 -134 18 -195 2 -19 7 -71 11 -115 19 -219 45
-460 58 -540 1 -5 -5 -8 -13 -7 -8 2 -24 6 -35 8 -11 2 -42 8 -70 14 -99 20
-142 24 -305 24 -135 0 -181 -4 -252 -22 -147 -36 -467 -154 -476 -174 -2 -5
-10 -8 -18 -8 -12 0 -68 -24 -114 -50 -16 -9 -267 -137 -410 -211 -47 -24 -86
-47 -88 -51 -2 -4 -10 -8 -17 -8 -7 0 -39 -15 -72 -33 -61 -35 -430 -218 -479
-238 -16 -7 -32 -12 -36 -11 -5 1 -8 -3 -8 -8 0 -6 -6 -10 -14 -10 -7 0 -53
-17 -102 -39 -89 -38 -112 -48 -127 -50 -4 0 -20 -7 -35 -15 -15 -7 -83 -32
-152 -56 -69 -23 -132 -44 -140 -47 -8 -4 -19 -7 -25 -9 -161 -40 -195 -50
-195 -56 0 -5 5 -8 11 -8 33 0 440 -191 469 -220 3 -3 15 -11 28 -17 12 -7 32
-19 45 -25 12 -7 24 -15 27 -18 3 -3 34 -25 70 -50 70 -47 192 -136 227 -166
12 -11 32 -27 45 -37 71 -55 148 -122 148 -129 0 -4 5 -8 11 -8 6 0 43 -28 84
-62 118 -102 164 -140 239 -196 39 -29 79 -60 89 -68 9 -8 21 -14 26 -14 5 0
11 -4 13 -8 9 -22 238 -160 354 -212 38 -17 82 -38 98 -46 16 -8 32 -14 36
-14 4 0 25 -8 46 -17 22 -9 48 -18 59 -20 11 -2 29 -7 40 -12 16 -7 105 -33
125 -36 3 -1 19 -4 35 -8 34 -8 52 -12 115 -22 25 -4 54 -9 65 -12 38 -9 313
-10 367 -2 29 5 69 11 88 13 114 15 273 67 425 139 60 28 112 54 115 57 3 4
30 21 60 38 77 46 91 55 112 73 10 9 31 22 46 30 15 8 33 20 41 27 8 7 25 21
40 30 56 37 176 162 236 246 11 16 37 50 58 77 20 27 37 50 37 53 0 2 25 40
55 84 30 44 55 85 55 91 0 6 4 11 8 11 5 0 16 15 25 33 10 17 26 46 36 62 105
170 274 502 346 680 7 17 18 44 25 60 14 33 86 244 89 260 1 6 6 26 11 46 11
38 15 68 26 158 l6 54 -98 94 c-460 435 -981 955 -1265 1265 -19 20 -73 78
-120 130 -93 100 -136 147 -255 284 -29 33 -63 73 -78 89 l-26 30 5 -27z"/>
</g>
</svg>
