<?xml version="1.0"?><svg width="366.19431" height="192.80281" xmlns="http://www.w3.org/2000/svg" xmlns:xlink="http://www.w3.org/1999/xlink">
 <defs>
  <linearGradient id="linearGradient6414">
   <stop id="stop6416" offset="0" stop-color="#ffffff"/>
   <stop id="stop6418" offset="1" stop-opacity="0" stop-color="#89b9ff"/>
  </linearGradient>
  <radialGradient xlink:href="#linearGradient6414" id="radialGradient2736" gradientUnits="userSpaceOnUse" gradientTransform="matrix(1,0,0,0.5214751,0,157.15804)" cx="325.26562" cy="328.42188" fx="325.26562" fy="328.42188" r="181.09038"/>
  <linearGradient xlink:href="#linearGradient5168" id="linearGradient6125" gradientUnits="userSpaceOnUse" x1="393.01285" y1="425.21579" x2="372.45071" y2="490.77036" gradientTransform="translate(195.94286,16.830344)"/>
  <linearGradient xlink:href="#linearGradient5168" id="linearGradient6129" gradientUnits="userSpaceOnUse" x1="361.67862" y1="350.3981" x2="361.7919" y2="371.05057" gradientTransform="translate(195.94286,16.830344)"/>
  <linearGradient id="linearGradient5168">
   <stop offset="0" id="stop5170" stop-color="#818181"/>
   <stop offset="1" id="stop5172" stop-color="#e4e4e4"/>
  </linearGradient>
  <linearGradient xlink:href="#linearGradient5168" id="linearGradient6132" gradientUnits="userSpaceOnUse" x1="367.90091" y1="428.16779" x2="319.18427" y2="466.27859" gradientTransform="translate(195.94286,16.830344)"/>
  <linearGradient id="linearGradient4477">
   <stop offset="0" id="stop4479" stop-color="#99df59"/>
   <stop offset="1" id="stop4481" stop-color="#1c830a"/>
  </linearGradient>
  <linearGradient id="linearGradient3366">
   <stop id="stop3368" offset="0" stop-color="#c3b08a"/>
   <stop id="stop3370" offset="1" stop-color="#6a5c43"/>
  </linearGradient>
  <linearGradient id="linearGradient3186">
   <stop offset="0" id="stop3188" stop-color="#c3b08a"/>
   <stop offset="1" id="stop3190" stop-color="#e7dfd1"/>
  </linearGradient>
  <linearGradient id="linearGradient3262">
   <stop offset="0" id="stop3264" stop-color="#b8d9e6"/>
   <stop offset="1" id="stop3266" stop-color="#2669a9"/>
  </linearGradient>
  <linearGradient id="linearGradient5997">
   <stop offset="0" id="stop5999" stop-color="#706985"/>
   <stop offset="1" id="stop6001" stop-color="#c8bfef"/>
  </linearGradient>
  <linearGradient id="linearGradient6013">
   <stop id="stop6015" offset="0" stop-color="#260c72"/>
   <stop id="stop6017" offset="1" stop-color="#c8bfef"/>
  </linearGradient>
  <linearGradient id="linearGradient3236">
   <stop offset="0" id="stop3238" stop-color="#cccccc"/>
   <stop offset="1" id="stop3240" stop-color="#f6f6f6"/>
  </linearGradient>
  <linearGradient id="linearGradient4534">
   <stop offset="0" id="stop4536" stop-color="#c7e0ec"/>
   <stop offset="1" id="stop4538" stop-color="#3b6bb1"/>
  </linearGradient>
  <linearGradient id="linearGradient4528">
   <stop id="stop4530" offset="0" stop-color="#c5d9e3"/>
   <stop id="stop4532" offset="1" stop-color="#3b6bb1"/>
  </linearGradient>
  <linearGradient id="linearGradient4542">
   <stop offset="0" id="stop4544" stop-color="#4879c2"/>
   <stop offset="1" id="stop4546" stop-color="#f5f8fc"/>
  </linearGradient>
 </defs>
 <metadata id="metadata3228">image/svg+xml</metadata>
 <g>
  <title>Layer 1</title>
  <g id="layer1">
   <g id="g6444">
    <path id="path5530" d="m195.188187,3.09782c-37.514313,0 -69.20298,23.923531 -79.0625,56.59375c-4.104477,-2.320889 -8.826416,-3.65625 -13.875,-3.65625c-15.612915,0 -28.28125,12.668339 -28.28125,28.281246c0,0.159035 -0.002625,0.310371 0,0.46875c-4.67691,-0.958183 -9.580566,-1.5 -14.656246,-1.5c-30.947041,0 -56.06249,19.018135 -56.0625,42.4375c0,23.41938 25.11546,42.437508 56.0625,42.437508c12.25729,0 23.582851,-3.00592 32.812496,-8.0625c5.512253,16.492157 21.067627,28.40625 39.40625,28.40625c12.426636,0 23.569366,-5.471313 31.1875,-14.125c7.390594,3.865997 16.081696,6.09375 25.375,6.09375c12.64444,0 24.183716,-4.113098 32.84375,-10.875c11.669556,12.111359 28.828827,19.78125 47.968735,19.78125c23.480591,0 44.002136,-11.553284 55.031281,-28.6875c1.660339,0.243317 3.36377,0.375 5.093719,0.375c18.679749,0 33.812531,-14.690369 33.812531,-32.8125c0,-18.122131 -15.132782,-32.843758 -33.812531,-32.843758c-3.342529,0 -6.574524,0.497841 -9.625,1.375c-10.065552,-11.865013 -25.114868,-20.090813 -42.312469,-22.09375c-3.517853,-40.081905 -38.849075,-71.593756 -81.906265,-71.593746z" stroke-dashoffset="0" stroke-miterlimit="4" stroke-width="2.587" stroke="#000000" fill-rule="nonzero" fill="url(#radialGradient2736)"/>
    <path id="path6438" d="m193.399155,1.31642c-34.289642,0.10256 -67.813812,23.00757 -78.468758,55.718751c-15.509026,-7.86478 -36.341293,1.233398 -41.375,17.78125c-0.824631,2.509308 -1.36599,5.140045 -1.5,7.78125c-24.332645,-4.28521 -53.110268,3.677826 -66.156247,25.875c-8.72578,14.482056 -4.48486,34.126038 7.9375,45.0625c20.145051,19.158813 53.128881,21.182617 77.281247,9.8125c7.835915,20.926758 33.259193,32.765839 54.406258,25.0625c6.734894,-2.178955 12.871033,-6.496033 17.75,-11.3125c18.137177,8.749054 41.098419,7.194458 57.46875,-4.65625c26.258301,26.371246 74.153458,25.297913 98.843735,-2.65625c2.948792,-2.013733 3.790924,-7.903778 8.093781,-6.5625c19.944641,1.383972 38.725037,-16.468781 37.125,-36.625c-0.652344,-20.760193 -22.112244,-36.665985 -42.25,-32.40625c-4.153351,1.720978 -5.744385,-4.419525 -9.15625,-5.96875c-9.656738,-8.483849 -22.474915,-13.106575 -34.5,-15.4375c-3.664917,-36.200741 -34.977402,-65.816971 -70.583389,-70.518661c-4.920685,-0.74521 -9.927155,-1.06535 -14.916626,-0.95009z" stroke-dashoffset="0" stroke-miterlimit="4" stroke-width="2.587" stroke="#a3ced5" fill-rule="nonzero" fill="none"/>
   </g>
  </g>
 </g>
</svg>