<svg width="58" height="58" viewBox="0 0 58 58" fill="none" xmlns="http://www.w3.org/2000/svg">
<path d="M27.6861 26.4592L26.4592 27.6866L19.6815 20.9088H19.6762L5.44923 6.67661L6.67662 5.44922L7.89879 6.67139L13.1259 11.899L14.3685 13.1463H14.3732L15.7368 14.5099L16.9841 15.7572L27.6861 26.4592Z" fill="#5B3227"/>
<path d="M12.1258 0L5.44923 6.67661L19.6762 20.9084H19.6815L20.9088 19.681L26.3533 14.2318L12.1258 0ZM7.89879 6.67139L12.1258 2.44909L13.3684 3.6912L9.14611 7.91824L7.89879 6.67139ZM10.5149 9.28755L14.7372 5.0605L15.9846 6.30783L11.7571 10.5301L10.5149 9.28755ZM14.3685 13.1463L13.1259 11.899L17.3529 7.67666L18.5955 8.91876L14.3732 13.1463H14.3685ZM15.7368 14.5099L19.9643 10.2876L21.2069 11.5297L16.9846 15.7567L15.7368 14.5099ZM19.5955 18.3682L18.353 17.1261L22.5753 12.899L23.8226 14.1463L19.5955 18.3682Z" fill="#5B3227"/>
<path d="M7.89645 6.67228L7.89142 6.67731L9.13889 7.92477L9.14392 7.91975L7.89645 6.67228Z" fill="#5B3227"/>
<path d="M10.4878 9.30274L10.4826 9.30835L11.778 10.4956L11.7831 10.49L10.4878 9.30274Z" fill="#5B3227"/>
<path d="M14.3685 13.1463L13.1207 11.9037L13.1259 11.899L14.3685 13.1463Z" fill="#5B3227"/>
<path d="M15.7326 14.5174L15.7277 14.5225L17.0039 15.7407L17.0089 15.7355L15.7326 14.5174Z" fill="#5B3227"/>
<path d="M18.3508 17.1267L18.3458 17.1318L19.5882 18.3742L19.5932 18.3692L18.3508 17.1267Z" fill="#5B3227"/>
<path d="M51.7617 50.5347L50.5343 51.7616L49.3121 50.5395L48.0648 49.2921L46.6959 47.9238L45.4534 46.6807L44.0855 45.3124L42.8377 44.0651L38.8579 40.0853L37.6158 38.8427L36.3077 37.5346L29.5248 30.7522L30.7522 29.5248L51.7617 50.5347Z" fill="#5B3227"/>
<path d="M37.5346 36.3073L36.3077 37.5346L30.858 42.9791L45.0855 57.2113L50.5347 51.7621L51.7621 50.5347L37.5346 36.3073ZM33.3883 43.065L37.6153 38.8427L38.8574 40.0853L34.6304 44.3123L33.3883 43.065ZM35.9987 45.6812L40.2263 41.4541L41.4736 42.7014L37.2465 46.9237L35.9987 45.6812ZM38.6154 48.2921L42.8377 44.0651L44.0855 45.3124L39.858 49.5347L38.6154 48.2921ZM41.2263 50.903L45.4534 46.6807L46.6955 47.9233L42.4736 52.1504L41.2263 50.903ZM45.085 54.7618L43.8377 53.5192L48.0648 49.2926L49.3121 50.54L45.085 54.7618Z" fill="#5B3227"/>
<path d="M49.3121 50.5347V50.5394L48.0648 49.2921L48.0695 49.2874L49.3121 50.5347Z" fill="#5B3227"/>
<path d="M45.4945 46.6618L45.4889 46.6669L46.6761 47.9622L46.6817 47.9571L45.4945 46.6618Z" fill="#5B3227"/>
<path d="M42.8397 44.0607L42.835 44.0654L44.0824 45.3129L44.0871 45.3082L42.8397 44.0607Z" fill="#5B3227"/>
<path d="M41.4741 42.6962V42.7014L40.2267 41.4541L40.2315 41.4489L41.4741 42.6962Z" fill="#5B3227"/>
<path d="M38.8626 40.08L38.8579 40.0852L37.6158 38.8427V38.8379L38.8626 40.08Z" fill="#5B3227"/>
<path d="M27.6861 30.7522L20.9036 37.5347L6.67662 51.7617L5.44923 50.5347L6.67662 49.3121L7.91872 48.0648L9.28756 46.6964L10.5301 45.4538L11.899 44.0855L13.1458 42.8424L14.5146 41.4741L15.7572 40.2268L17.1256 38.8579L18.3682 37.6158L26.4592 29.5248L27.6861 30.7522Z" fill="#5B3227"/>
<path d="M19.6762 36.3072L14.227 30.8585L0 45.0855L6.67662 51.7621L20.9036 37.5346L19.6762 36.3072ZM2.44909 45.085L3.69167 43.8429L7.91873 48.0652L6.67614 49.3126L2.44909 45.085ZM5.06051 42.4741L6.30783 41.2268L10.5301 45.4538L9.28756 46.6959L5.06051 42.4741ZM11.899 44.0855L7.67144 39.8584L8.91877 38.6158L13.1458 42.8429L11.899 44.0855ZM10.2876 37.2465L11.5302 35.9992L15.7572 40.2262L14.5146 41.4736L10.2876 37.2465ZM12.8985 34.6356L14.1459 33.3883L18.3682 37.6153L17.1256 38.8574L12.8985 34.6356Z" fill="#5B3227"/>
<path d="M7.92393 48.0699L6.67661 49.312L7.91872 48.0647L7.92393 48.0699Z" fill="#5B3227"/>
<path d="M10.5296 45.465L9.28736 46.7076L9.29239 46.7127L10.5346 45.4701L10.5296 45.465Z" fill="#5B3227"/>
<path d="M13.1458 42.8423L11.9037 44.0901L11.899 44.0854L13.1458 42.8423Z" fill="#5B3227"/>
<path d="M15.762 40.2314L14.5146 41.474L15.7572 40.2267L15.762 40.2314Z" fill="#5B3227"/>
<path d="M18.3689 37.6278L17.1263 38.8701L17.1314 38.8751L18.374 37.6328L18.3689 37.6278Z" fill="#5B3227"/>
<path d="M51.7617 6.67661L50.5395 7.89878L49.2922 9.14611L47.9229 10.5149L46.6807 11.757L45.3119 13.1259L44.0651 14.3732L40.0853 18.3534L38.8427 19.5955L37.5346 20.9088L30.7522 27.6866L29.5248 26.4592L36.3077 19.6815L50.5343 5.44922L51.7617 6.67661Z" fill="#5B3227"/>
<path d="M51.7617 6.67661L50.5343 5.44922L36.302 19.6767L42.9786 26.3528L57.2104 12.1258L51.7617 6.67661ZM43.0645 23.8231L38.8422 19.5955L40.0848 18.3534L44.3119 22.5757L43.0645 23.8231ZM45.676 21.2064L41.4537 16.9841L42.6962 15.742L46.9233 19.9639L45.676 21.2064ZM48.2921 18.596L44.0651 14.3737L45.3124 13.1263L49.5347 17.3534L48.2921 18.596ZM50.903 15.9846L46.6807 11.7575L47.9229 10.5154L52.1499 14.7377L50.903 15.9846ZM49.2922 9.14611L50.5395 7.89878L54.7618 12.1258L53.5197 13.3679L49.2922 9.14611Z" fill="#5B3227"/>
<path d="M50.5315 7.89496L49.2844 9.14209L49.2898 9.14746L50.5369 7.90033L50.5315 7.89496Z" fill="#5B3227"/>
<path d="M47.9158 10.5114L46.6737 11.7535L46.6787 11.7585L47.9208 10.5164L47.9158 10.5114Z" fill="#5B3227"/>
<path d="M45.3047 13.1223L44.0575 14.3694L44.0626 14.3744L45.3097 13.1273L45.3047 13.1223Z" fill="#5B3227"/>
<path d="M42.6849 15.7272L41.4423 16.9694L41.4473 16.9745L42.6899 15.7322L42.6849 15.7272Z" fill="#5B3227"/>
<path d="M40.0734 18.3379L38.8308 19.5801L38.8358 19.5852L40.0784 18.3429L40.0734 18.3379Z" fill="#5B3227"/>
</svg>
