<?xml version="1.0" encoding="utf-8"?>
<!-- Generator: Adobe Illustrator 21.1.0, SVG Export Plug-In . SVG Version: 6.00 Build 0)  -->
<svg version="1.1" id="Layer_1" xmlns="http://www.w3.org/2000/svg" xmlns:xlink="http://www.w3.org/1999/xlink" x="0px" y="0px"
	 viewBox="0 0 30 30" style="enable-background:new 0 0 30 30;" xml:space="preserve">
<style type="text/css">
	.st0{fill:#ffe000;}
</style>
<g>
	<g>
		<g>
			<path class="st0" d="M23.7,28.3c-3.4,0-8.8-2.9-13.6-7.6C4.1,14.9-0.8,7.4,1.4,4.5C1.6,4.3,1.8,4.1,2,3.8C2.8,2.6,3.8,1.2,5.4,1
				C6.7,0.9,8,1.4,9.5,2.7c1.6,1.3,2.5,2.7,2.8,4c0.3,1.4-0.6,2.9-1.2,3.8l-0.1,0.1c-0.2,0.3-0.2,1.2,0.2,1.8
				c0.5,0.7,1.1,1.3,1.7,1.9c0.7,0.7,1.9,1.8,2.7,2.5c0.7,0.6,1.3,1.1,2,1.5c0.6,0.4,1.5,0.3,1.8,0.1l0.1-0.1
				c0.9-0.6,2.3-1.6,3.7-1.4c1.3,0.2,2.7,1,4.2,2.5c1.4,1.4,2,2.7,2,3.9C29.3,25,28,26,26.9,27c-0.2,0.2-0.5,0.4-0.7,0.6
				C25.6,28.1,24.7,28.3,23.7,28.3z M5.8,3C5.8,3,5.7,3,5.7,3C4.9,3.1,4.3,4,3.6,5C3.4,5.2,3.2,5.5,3,5.8C2.1,7,5,13,11.5,19.3
				c6.4,6.3,12.2,7.7,13.3,6.7c0.2-0.2,0.5-0.4,0.8-0.6c0.9-0.7,1.8-1.4,1.8-2.2c0-0.6-0.4-1.5-1.4-2.4c-1.4-1.4-2.4-1.8-3-1.9
				c-0.6-0.1-1.7,0.7-2.2,1.1L20.7,20c-1.1,0.8-2.8,0.7-4,0c-0.8-0.5-1.5-1.1-2.3-1.7l0,0c-0.9-0.7-2.1-1.9-2.9-2.6
				c-0.7-0.7-1.3-1.4-1.8-2.1c-0.9-1.1-1-2.9-0.3-4l0.1-0.1c0.3-0.5,1-1.7,0.9-2.3c-0.1-0.6-0.6-1.6-2.1-2.9C7.2,3.4,6.4,3,5.8,3z"
				/>
		</g>
	</g>
</g>
</svg>
