<?xml version="1.0" encoding="UTF-8"?>
<svg width="1171px" height="185px" viewBox="0 0 1171 185" version="1.1" xmlns="http://www.w3.org/2000/svg" xmlns:xlink="http://www.w3.org/1999/xlink">
    <!-- Generator: Sketch 50.2 (55047) - http://www.bohemiancoding.com/sketch -->
    <title>about us</title>
    <desc>Created with Sketch.</desc>
    <defs>
        <rect id="path-1" x="0" y="0" width="1171" height="185"></rect>
        <linearGradient x1="0%" y1="0%" x2="101.999998%" y2="100.999999%" id="linearGradient-3">
            <stop stop-color="#3023AE" offset="0%"></stop>
            <stop stop-color="#C86DD7" offset="100%"></stop>
        </linearGradient>
    </defs>
    <g id="Desktop" stroke="none" stroke-width="1" fill="none" fill-rule="evenodd">
        <g id="Homepage-" transform="translate(-135.000000, -1200.000000)">
            <g id="about-us" transform="translate(135.000000, 1200.000000)">
                <mask id="mask-2" fill="white">
                    <use xlink:href="#path-1"></use>
                </mask>
                <use id="Mask" fill="#342B8A" xlink:href="#path-1"></use>
                <g id="Group-38" mask="url(#mask-2)">
                    <g transform="translate(-7.000000, 21.000000)">
                        <circle id="Oval-2" fill="#BAB574" fill-rule="evenodd" cx="214.5" cy="7.5" r="2.5"></circle>
                        <circle id="Oval-2-Copy" fill="#BAB574" fill-rule="evenodd" cx="138" cy="51" r="4"></circle>
                        <circle id="Oval-2-Copy-2" fill="#FFFFFF" fill-rule="evenodd" cx="262" cy="78" r="2"></circle>
                        <circle id="Oval-2-Copy-2" fill="#FFFFFF" fill-rule="evenodd" cx="452" cy="58" r="2"></circle>
                        <circle id="Oval-2-Copy-2" fill="#FFFFFF" fill-rule="evenodd" cx="411" cy="37" r="1"></circle>
                        <circle id="Oval-2-Copy-2" fill="#FFFFFF" fill-rule="evenodd" cx="431" cy="79" r="1"></circle>
                        <circle id="Oval-2-Copy-2" fill="#FFFFFF" fill-rule="evenodd" cx="622" cy="28" r="2"></circle>
                        <circle id="Oval-2-Copy-2" fill="#FFFFFF" fill-rule="evenodd" cx="622" cy="28" r="2"></circle>
                        <circle id="Oval-2-Copy-2" fill="#FFFFFF" fill-rule="evenodd" cx="1122" cy="28" r="2"></circle>
                        <circle id="Oval-2-Copy-2" fill="#FFFFFF" fill-rule="evenodd" cx="1031.5" cy="47.5" r="1.5"></circle>
                        <circle id="Oval-2-Copy-2" fill="#FFFFFF" fill-rule="evenodd" cx="842" cy="6" r="2"></circle>
                        <circle id="Oval-2-Copy-2" fill="#FFFFFF" fill-rule="evenodd" cx="923.5" cy="82.5" r="1.5"></circle>
                        <circle id="Oval-2-Copy-2" fill="#FFFFFF" fill-rule="evenodd" cx="231" cy="97" r="1"></circle>
                        <circle id="Oval-2-Copy-2" fill="#FFFFFF" fill-rule="evenodd" cx="241" cy="107" r="1"></circle>
                        <circle id="Oval" fill="#5FEEE4" fill-rule="evenodd" opacity="0.580580357" cx="45" cy="69" r="17"></circle>
                        <circle id="Oval-Copy-3" fill="#5FEEE4" fill-rule="evenodd" opacity="0.348939732" cx="72" cy="19" r="5"></circle>
                        <circle id="Oval-Copy-4" fill="#F5A623" fill-rule="evenodd" opacity="0.640904018" cx="780.5" cy="84.5" r="3.5"></circle>
                        <circle id="Oval-Copy-2" fill="#5FEEE4" fill-rule="evenodd" opacity="0.580580357" cx="1147" cy="58" r="18"></circle>
                        <circle id="Oval-Copy" fill="#5FEEE4" fill-rule="evenodd" opacity="0.580580357" cx="581" cy="26" r="26"></circle>
                        <circle id="Oval-2-Copy" fill="#BAB574" fill-rule="evenodd" cx="639" cy="44" r="4"></circle>
                        <circle id="Oval-2-Copy" fill="#BAB574" fill-rule="evenodd" cx="420" cy="74" r="4"></circle>
                        <circle id="Oval-2-Copy" fill="#BAB574" fill-rule="evenodd" cx="819" cy="14" r="4"></circle>
                        <circle id="Oval-2-Copy" fill="#BAB574" fill-rule="evenodd" cx="939" cy="74" r="4"></circle>
                        <path d="M80,142 L80,106.588235 L67.4137931,104.058824 L67.4137931,109.117647 L64.8965517,109.117647 L64.8965517,104.058824 L52.3103448,101.529412 L52.3103448,106.588235 L49.7931034,106.588235 L49.7931034,101.529412 L37.2068966,101.529412 L37.2068966,106.588235 L34.6896552,106.588235 L34.6896552,101.529412 L22.1034483,99 L22.1034483,104.058824 L19.5862069,104.058824 L19.5862069,99 L7,101.529412 L7,142 L80,142 Z M30,108 L28,108 L28,106 L30,106 L30,108 Z M15,108 L13,108 L13,106 L15,106 L15,108 Z M45,108 L43,108 L43,106 L45,106 L45,108 Z M60,110 L58,110 L58,108 L60,108 L60,110 Z M75,113 L73,113 L73,111 L75,111 L75,113 Z M202.413793,112.923077 L202.413793,117.846154 L199.896552,117.846154 L199.896552,112.923077 L187.310345,112.923077 L187.310345,117.846154 L184.793103,117.846154 L184.793103,112.923077 L172.206897,110.461538 L172.206897,115.384615 L169.689655,115.384615 L169.689655,110.461538 L157.103448,108 L157.103448,112.923077 L154.586207,112.923077 L154.586207,108 L142,108 L142,142 L215,142 L215,115.384615 L202.413793,112.923077 Z M148,116 L146,116 L146,114 L148,114 L148,116 Z M163,118 L161,118 L161,116 L163,116 L163,118 Z M178,121 L176,121 L176,119 L178,119 L178,121 Z M193,121 L191,121 L191,119 L193,119 L193,121 Z M208,123 L206,123 L206,121 L208,121 L208,123 Z M132.434783,84 L132.434783,89 L129.913043,89 L129.913043,84 L122.347826,84 L122.347826,89 L119.826087,89 L119.826087,84 L112.26087,84 L112.26087,89 L109.73913,89 L109.73913,84 L102.173913,84 L102.173913,89 L99.6521739,89 L99.6521739,84 L92.0869565,84 L92.0869565,89 L89.5652174,89 L89.5652174,84 L82,84 L82,94 L140,94 L140,84 L132.434783,84 Z M86,89 L84,89 L84,87 L86,87 L86,89 Z M96,89 L94,89 L94,87 L96,87 L96,89 Z M107,89 L105,89 L105,87 L107,87 L107,89 Z M116,89 L114,89 L114,87 L116,87 L116,89 Z M126,89 L124,89 L124,87 L126,87 L126,89 Z M136,89 L134,89 L134,87 L136,87 L136,89 Z M79,96 L81.48,98.4285714 L81.48,113 L138.52,113 L138.52,98.4285714 L141,96 L79,96 Z M95,112 L90,112 L90,104.5 C90,103 91,102 92.5,102 C94,102 95,103 95,104.5 L95,112 Z M106,112 L101,112 L101,104.5 C101,103 102,102 103.5,102 C105,102 106,103 106,104.5 L106,112 Z M119,112 L114,112 L114,104.5 C114,103 115,102 116.5,102 C118,102 119,103 119,104.5 L119,112 Z M132,112 L127,112 L127,104.5 C127,103 128,102 129.5,102 C131,102 132,103 132,104.5 L132,112 Z M99,74.2 L99,82 L121,82 L121,74.2 L110,69 L99,74.2 Z M109,79 L107,79 L107,74 L109,74 L109,79 Z M109.727273,64 L109,64 L109,59 L111,59 L111,64 L112.272727,64 L122.454545,68.6666667 L125,68.6666667 L125,71 L122.454545,71 L111,66.3333333 L99.5454545,71 L97,71 L97,68.6666667 L99.5454545,68.6666667 L109.727273,64 Z M112,74 L114,74 L114,79 L112,79 L112,74 Z M140,142 L82,142 L82,118.5 L82,116 L140,116 L140,118.5 L140,142 Z M0,144 L221,144 L239.959512,144 L239.959512,125 L259.099605,115.384615 C265.341081,119.254472 270.359592,122.4596 274.155138,125 C277.950683,127.5404 289.222641,135.238661 307.971012,148.094784 C307.971012,163.063059 307.971012,170.846183 307.971012,171.444156 C307.971012,173.861293 278.980675,173.861293 221,171.444156 L0,171.444156 L0,144 Z" id="Shape" fill="url(#linearGradient-3)" fill-rule="nonzero" opacity="0.720982143"></path>
                        <path d="M1170.77734,100.892118 L1170.77734,105.316884 L1166.77919,105.316884 L1166.77919,108.517851 L1162.91908,108.517851 L1162.91908,140.903728 L1162.10232,117.669154 L1159.64245,117.669154 L1159.64245,115.896846 L1155.08479,113.770375 L1150.52682,115.896846 L1150.52682,117.669154 L1148.06717,117.669154 L1148.06717,132.453185 L1147.06733,132.453185 L1147.06733,97.8823302 L1144.81386,97.8823302 L1144.81386,96.0350632 L1144.42345,95.1764247 L1141.6604,92.6461709 L1141.79949,91.9520985 L1141.79949,91.2578943 L1141.79949,90.5640859 L1141.16907,88.9715203 L1140.88877,90.5644818 L1140.40735,91.2582902 L1140.40735,91.9519226 L1140.40735,92.6459949 L1137.63299,95.1762488 L1137.63299,96.0348872 L1137.24236,97.8821542 L1134.98916,97.8821542 L1134.98916,123.902872 L1133.16529,123.902872 L1133.16529,118.685672 L1132.15757,118.685672 L1132.15757,91.9172146 L1133.16525,91.9172146 L1133.16525,90.28519 L1118.88811,90.28519 L1118.88811,91.9172146 L1119.71319,140.903728 L1118.0201,140.903728 L1118.0201,82.031017 L1116.97666,81.0462156 L1116.97666,69.4727862 L1115.64843,68.4879848 L1115.64843,59.5745355 L1114.32047,58.3102224 L1114.32047,47.4724797 L1113.18205,46.0274562 L1112.89775,37.4391801 L1112.79947,35.8271709 L1111.74081,35.1629237 L1111.47014,33.4595916 L1110.79006,31.971326 L1110.70872,31.3564795 L1110.02961,29.2743065 L1109.36633,27.2787056 L1108.89084,26.5908359 C1109.32887,26.4125666 1109.61202,25.9830928 1109.60324,25.5102553 C1109.59447,25.0374177 1109.29559,24.6187418 1108.85125,24.4568428 L1108.53817,15.2394674 C1108.85444,15.1779228 1109.07222,14.8861935 1109.0413,14.5654769 C1109.01039,14.2447604 1108.7409,14 1108.4187,14 C1108.09649,14 1107.82701,14.2447604 1107.79609,14.5654769 C1107.76518,14.8861935 1107.98295,15.1779228 1108.29922,15.2394674 L1107.98641,24.4568428 C1107.54203,24.6186567 1107.24307,25.0372796 1107.23421,25.5101193 C1107.22535,25.982959 1107.50842,26.4124879 1107.94642,26.5908359 L1107.83416,27.1823238 L1107.12337,29.1526745 L1106.53905,31.2523114 L1106.04716,31.971326 L1105.88365,33.1352542 L1105.09619,35.1629237 L1104.04364,35.8593715 L1103.93894,37.4391801 L1103.65433,46.0274562 L1102.51592,47.4724797 L1102.51592,58.3102224 L1101.18795,59.5745355 L1101.18795,68.4879848 L1099.85972,69.4727862 L1099.85972,81.0462156 L1098.81637,82.031017 L1098.81637,96.5809336 L1092.45671,96.5809336 L1092.45671,96.0025987 L1090.21828,96.0025987 L1090.21828,96.5809336 L1084.04932,96.5809336 L1084.04932,82.031017 L1083.00592,81.0462156 L1083.00592,69.4727862 L1081.67795,68.4879848 L1081.67795,59.5745355 L1080.34972,58.3102224 L1080.34972,47.4724797 L1079.21131,46.0274562 L1078.927,37.4391801 L1078.82899,35.8271709 L1077.77007,35.1629237 L1077.4994,33.4595916 L1076.81932,31.971326 L1076.73798,31.3564795 L1076.05882,29.2743065 L1075.39554,27.2787056 L1074.92032,26.5908359 C1075.35832,26.4124792 1075.64138,25.9829441 1075.63251,25.5101042 C1075.62364,25.0372643 1075.32467,24.6186473 1074.88029,24.4568428 L1074.56725,15.2394674 C1074.88352,15.1779228 1075.1013,14.8861935 1075.07038,14.5654769 C1075.03947,14.2447604 1074.76998,14 1074.44778,14 C1074.12557,14 1073.85609,14.2447604 1073.82517,14.5654769 C1073.79426,14.8861935 1074.01203,15.1779228 1074.3283,15.2394674 L1074.01549,24.4568428 C1073.57111,24.6186567 1073.27215,25.0372796 1073.26329,25.5101193 C1073.25443,25.982959 1073.5375,26.4124879 1073.9755,26.5908359 L1073.86324,27.1823238 L1073.15245,29.1526745 L1072.56809,31.2523114 L1072.07619,31.971326 L1071.91268,33.1352542 L1071.12522,35.1629237 L1070.07325,35.8593715 L1069.96855,37.4391801 L1069.68394,46.0274562 L1068.54579,47.4724797 L1068.54579,58.3102224 L1067.21756,59.5745355 L1067.21756,68.4879848 L1065.88959,69.4727862 L1065.88959,81.0462156 L1064.84597,82.031017 L1064.84597,125.93472 L1063.21971,125.93472 L1063.21971,114.158894 L1055.69485,114.158894 L1055.69485,84.4399468 L1053.8833,84.4399468 L1053.8833,80.2606003 L1044.38725,80.2606003 L1044.38725,84.4399468 L1042.57548,84.4399468 L1042.57548,129.850963 L1041.83227,129.523415 L1041.83227,119.466448 L1040.67266,119.466448 L1040.67266,112.917895 L1039.73747,111.943299 L1035.62257,105.823515 L1032.0312,111.943299 L1030.57258,112.917895 L1030.57258,119.466448 L1029.41261,119.466448 L1029.41261,129.523415 L1028.44013,129.952184 L1028.44013,140.903728 L1028.20509,97.6782611 C1028.20509,97.6782611 1026.57883,93.9397812 1016.37823,93.8014771 C1016.37823,93.8014771 1014.30842,94.3553976 1014.30842,95.8782833 L1014.30842,140.903728 L1013.30545,140.903728 L1013.30545,113.978447 L1009.63969,110.400794 L1007.49364,110.400794 L1007.49364,109.082769 L1004.98538,109.082769 L1004.98538,107.764745 L1001.24717,107.764745 L1001.24717,127.178666 L999.476705,127.178666 L999.476705,135.647202 C999.325556,134.253954 999.198821,132.81135 999.109697,131.341912 C998.929305,122.011381 999.289599,112.678235 1000.18877,103.389379 L984.498283,103.389379 C985.397318,112.678244 985.757612,122.011383 985.577355,131.341912 C985.369019,134.773519 984.957097,138.06119 984.504485,140.903728 L982.930308,140.903728 L982.930308,97.0999262 C981.772846,92.5097582 970.631441,91.0290149 970.631441,91.0290149 L970.631441,121.143739 L968.048795,123.664359 L968.048795,140.903728 L966.711503,140.903728 L964.787738,79.3262113 L965.311041,78.1563885 L965.598031,76.9798791 C965.598031,76.3709272 966.360552,76.0323371 966.360552,76.0323371 L966.555779,75.0475357 C966.585513,74.7392959 966.753366,74.4611484 967.012218,74.2911737 L967.190465,73.1149283 C967.21026,72.7727703 967.405276,72.4650691 967.706246,72.3011155 L967.895403,71.1825849 C967.905756,70.8813811 968.043216,70.5986595 968.273716,70.4044919 L968.531452,69.8382102 L968.531452,69.2499775 L967.315484,69.2499775 L967.315484,67.7965959 L965.369152,67.7965959 L965.369152,66.8171612 L965.754195,66.0132902 L964.329539,66.0132902 L964.329539,65.1111457 L965.082954,64.5236609 L964.329539,63.8433134 L965.082954,63.2558725 L963.903717,63.2558725 L963.903717,62.5446002 L963.651347,58.2148963 L963.651347,51.5662219 L963.651347,47.2059011 L963.379622,44.6906478 L962.976894,47.2059011 L962.705169,51.2568851 L962.705037,57.9058674 L962.705037,62.5446002 L962.452931,63.2558725 L961.275322,63.2558725 L961.275322,63.8433134 L962.027109,64.5236609 L961.275322,65.1111457 L962.027109,66.0132022 L960.602452,66.0132022 L960.986132,66.8170732 L960.987496,67.7965079 L959.0409,67.7965079 L959.0409,69.2498895 L957.825195,69.2498895 L957.825195,69.8381222 L958.082668,70.4044039 C958.313284,70.598509 958.450848,70.8812459 958.461245,71.1824969 L958.650402,72.3010276 C958.951372,72.4649811 959.146388,72.7726823 959.166183,73.1148403 L959.344166,74.2910857 C959.603018,74.4610604 959.770871,74.7392079 959.800605,75.0474477 L959.995832,76.0322491 C959.995832,76.0322491 960.758353,76.3709712 960.758353,76.9797911 L961.047498,78.1563005 L961.566095,79.3261233 L959.645013,140.90364 L958.506599,140.90364 L958.506599,128.590873 L956.722193,128.590873 L956.722193,112.634116 L950.645123,108.821513 L947.483307,108.821513 L947.483307,116.16426 L944.758134,116.16426 L944.758134,140.903728 L943.760927,140.903728 L943.760927,127.410625 L942.892919,105.599343 L936.092083,105.599343 L936.092083,97.0322698 L928.856892,97.0322698 L928.856892,132.28941 L927.313331,132.28941 L927.313331,127.064556 L926.306227,127.064556 L926.306227,107.764745 L924.980108,107.764745 L924.980108,106.729135 L923.292128,106.729135 L923.292128,105.740462 L921.844861,105.740462 L921.844861,104.516664 L918.468638,104.516664 L918.468638,105.740462 L917.021723,105.740462 L917.021723,106.729047 L915.333435,106.729047 L915.333435,107.764657 L914.00736,107.764657 C913.190229,122.394534 912.194535,131.901875 911.020279,136.286677 C910.607474,137.828138 904.021868,139.367155 891.263462,140.903728 L875.589632,125.93472 L856.563616,169.991331 L914.00736,176 L1177.94664,176 L1177.94664,99.6683193 L1170.77734,100.892118 Z M1084.04932,100.692888 L1090.21819,100.692888 L1090.21819,101.335404 L1090.27098,101.363601 L1084.04923,112.094712 L1084.04932,100.692888 Z M1098.81641,137.603168 L1097.27237,137.603168 L1097.27237,136.807875 L1096.95071,136.807875 L1096.95071,114.084243 L1093.19072,114.084243 L1093.19072,116.335557 L1089.66594,116.335557 L1089.66594,126.472893 L1088.32826,126.472893 L1088.32826,129.923591 L1084.04932,129.923591 L1084.04932,113.660532 L1090.96378,101.734876 L1091.33769,101.935162 L1091.71521,101.732808 L1098.81659,113.893107 L1098.81641,137.603168 Z M1098.81641,112.336085 L1092.40774,101.36171 L1092.45662,101.335316 L1092.45662,100.6928 L1098.81641,100.6928 L1098.81641,112.336085 Z M1121.14721,94.8573661 L1120.42068,94.8573661 L1120.42068,91.9171266 L1121.14721,91.9171266 L1121.14721,94.8573661 Z M1122.62206,94.8573661 L1121.78221,94.8573661 L1121.78221,91.9171266 L1122.62206,91.9171266 L1122.62206,94.8573661 Z M1130.0644,94.8573661 L1129.249,94.8573661 L1129.249,91.9171266 L1130.0644,91.9171266 L1130.0644,94.8573661 Z M1131.45008,94.8573661 L1130.69935,94.8573661 L1130.69935,91.9171266 L1131.45008,91.9171266 L1131.45008,94.8573661 Z M1140.88868,92.6460829 L1140.68756,92.6460829 L1140.68756,92.2256276 L1140.88868,92.2256276 L1140.88868,92.6460829 Z M1140.88868,91.9520106 L1140.68756,91.9520106 L1140.68756,91.5317313 L1140.88868,91.5317313 L1140.88868,91.9520106 Z M1140.88868,91.2579822 L1140.68756,91.2579822 L1140.68756,90.8377909 L1140.88868,90.8377909 L1140.88868,91.2579822 Z M1141.36874,92.6460829 L1141.16899,92.6460829 L1141.16899,92.2256276 L1141.36874,92.2256276 L1141.36874,92.6460829 Z M1141.36874,91.9520106 L1141.16899,91.9520106 L1141.16899,91.5317313 L1141.36874,91.5317313 L1141.36874,91.9520106 Z M1141.36874,91.2579822 L1141.16899,91.2579822 L1141.16899,90.8377909 L1141.36874,90.8377909 L1141.36874,91.2579822 Z" id="Shape" fill="url(#linearGradient-3)" fill-rule="nonzero" opacity="0.901841518"></path>
                        <path d="M793.961138,140.01687 C793.961138,139.428945 794.029994,138.819833 793.939951,138.231908 C793.855205,137.66517 793.457959,137.289109 792.801177,137.077245 C792.769398,137.506271 792.779991,137.808178 792.716431,138.088899 C792.594609,138.639748 791.503505,139.1853 791.169818,138.867503 C790.53952,138.274281 791.010919,137.500974 790.857317,136.828303 C790.629562,135.779572 789.141211,137.087838 789.008796,135.843131 C788.982313,135.636563 789.003499,135.429995 789.003499,135.223427 C789.003499,134.836773 789.003499,134.45012 789.003499,133.841008 C787.239724,133.841008 785.640144,133.841008 783.950521,133.841008 C783.950521,130.45117 783.950521,127.28379 783.950521,124.105816 C783.357299,124.03696 782.87001,123.98929 782.181449,123.909841 C782.266195,122.442677 782.239712,120.954326 781.27043,119.688433 C780.264072,119.688433 779.225934,119.619577 778.208982,119.709619 C777.229107,119.789069 776.281012,119.593094 775.232281,119.97445 C774.628466,120.202205 773.468505,119.61428 772.525706,119.699026 C771.837146,119.767882 771.116805,119.418305 770.460024,119.953264 C769.660234,120.599452 769.368919,119.619577 769.247097,119.307076 C769.040529,118.761524 769.188834,118.094149 769.188834,117.469148 C769.188834,113.962784 769.210021,110.45642 769.183538,106.950056 C769.167648,105.180984 768.187773,104.238185 766.376328,104.222295 C764.210009,104.201109 762.038394,104.296448 759.877372,104.190515 C758.521437,104.121659 757.345586,104.444753 756.111473,105.180984 C756.111473,106.219122 756.111473,107.326116 756.111473,108.650272 C754.623122,108.650272 753.230111,108.650272 751.858285,108.650272 C751.858285,116.605799 751.858285,124.344164 751.858285,132.077233 C751.858285,132.696938 751.911252,133.321939 751.842396,133.936347 C751.768243,134.598425 751.28625,135.059231 750.682435,135.138681 C749.993874,135.228723 749.591331,134.614315 749.411246,134.063466 C749.26294,133.597364 749.379466,133.046515 749.379466,132.527446 C749.379466,130.461763 749.390059,128.401377 749.363576,126.340991 C748.553193,125.774252 747.997048,126.134422 747.472682,125.525311 C747.472682,122.267888 747.472682,118.893939 747.472682,115.302829 C745.571195,115.302829 743.765046,115.302829 741.863559,115.302829 C741.863559,110.673581 741.863559,106.266791 741.863559,101.828222 C739.480079,101.801739 738.118847,101.849408 738.224779,99.8260985 C738.256559,99.2328767 737.76927,99.2752497 737.36143,99.2752497 C736.868844,99.2752497 736.376258,99.2752497 735.756553,99.2752497 C735.756553,95.7106228 735.76185,92.326081 735.74596,88.9362426 C735.74596,88.4542499 735.968418,87.6014937 735.444052,87.5750106 C733.934515,87.4902647 734.596593,86.4415334 734.53833,85.7900488 C734.411211,84.3175878 734.951466,82.6650416 733.29892,81.6586833 C733.717353,80.5728757 732.462054,79.9002046 732.636842,78.8249902 C732.89108,77.3260461 732.09129,76.176679 731.122008,75.1226511 C730.49171,75.7105762 731.143195,76.7804939 730.242769,77.2677832 C728.976876,77.9510475 730.576456,78.7402443 730.205693,79.5188478 C729.930268,80.090883 729.490649,80.3821973 729.008656,80.7423676 C728.049967,81.4574116 726.826448,81.2879197 725.830682,82.1459725 C724.448264,83.3588991 722.875167,84.4923763 721.307367,85.3875055 C719.379396,86.489203 719.029819,87.8875113 719.035116,89.7413292 C719.040412,97.8928312 719.040412,106.039037 719.024523,114.185242 C719.024523,114.767871 719.268167,115.408762 718.786175,115.938424 C718.288292,115.980797 717.801003,116.02317 717.176001,116.076136 C717.176001,118.708558 717.181298,121.266826 717.176001,123.830392 C717.176001,124.232935 717.165408,124.640775 717.075365,125.038022 C715.984261,124.471283 715.947185,123.862171 715.941888,123.258356 C715.925998,121.918311 715.968371,120.572969 715.931295,119.232923 C715.894219,117.940547 716.100787,116.621688 715.809473,115.493508 C712.430228,115.493508 709.268144,115.493508 706.190806,115.493508 C706.190806,117.336732 705.862416,119.148177 706.312629,120.747757 C706.572163,121.679963 706.047797,121.960684 705.79356,122.034837 C705.131482,122.236108 704.384658,122.146066 703.680207,122.177845 C702.414314,122.241405 701.116642,122.008354 699.421723,122.458566 C700.841218,122.951152 700.443971,123.788019 700.449267,124.46069 C700.475751,128.994599 700.481047,133.539101 700.443971,138.07301 C700.438674,138.750977 700.872997,139.67259 700.142063,140.080429 C698.960917,140.742507 699.596511,138.851613 698.56367,138.830427 C697.419599,138.803943 698.012821,137.696949 698.012821,137.119618 C697.970448,125.562387 697.981041,114.01575 697.981041,102.463816 C697.981041,101.452162 697.981041,100.440507 697.981041,99.2169869 C694.999043,99.2169869 692.160053,99.2169869 689.315767,99.2169869 C689.315767,96.9394392 689.162165,94.8631632 689.35814,92.8239635 C689.570005,90.6629415 688.441824,88.7031912 688.690765,86.573949 C688.722545,86.2879313 688.807291,85.7847522 688.463011,85.7688623 C686.821058,85.6947096 687.864492,84.2805114 687.414279,83.7826289 C686.556227,82.8398301 687.101779,81.6692765 686.56682,80.6999946 C686.106014,79.8790181 685.698174,78.9203294 685.666394,78.0040137 C685.629318,77.0559183 684.95135,76.1872722 685.364487,75.2126937 C684.411095,74.3228611 685.481012,73.0092987 684.628256,71.9499742 C683.997958,73.1470109 684.834824,74.577099 683.876136,75.5834573 C684.040331,77.8610049 683.839059,78.6872781 682.50431,80.8006304 C682.50431,79.0368551 682.461937,77.5061312 682.5202,75.980704 C682.546683,75.2126937 681.932275,74.9849389 681.561512,74.534726 C680.565747,76.1448992 679.077396,74.2857848 677.949215,75.0379051 C676.688619,75.1173545 676.063617,75.180914 675.40154,74.6300652 C674.723572,74.0686232 673.966155,75.6734998 673.282891,75.1014646 C671.73098,73.8090887 669.914239,76.2243486 668.489447,74.6141753 C667.901522,75.4881181 666.704485,75.3927789 666.291349,75.0643883 C665.343253,74.3122679 664.728845,75.4828214 663.955538,75.1491342 C662.006381,74.0686232 661.609135,75.2338802 661.561465,75.4351518 C661.38138,76.1078229 661.466126,76.8546467 661.466126,77.5749873 C661.460829,83.7614424 661.466126,89.9531941 661.466126,96.1396492 C661.466126,102.0189 661.450236,107.898151 661.482016,113.777402 C661.487312,114.646048 661.487312,115.562364 660.602776,115.858975 C659.79769,116.129103 658.807221,116.314484 658.097474,115.419355 C657.912092,115.17571 657.668447,114.974439 657.483066,114.789057 C655.284967,116.351561 652.949157,116.293298 650.311439,115.514694 C650.311439,119.953264 650.311439,124.439503 650.311439,128.915149 C649.40042,128.915149 648.706562,128.915149 647.795543,128.915149 C647.795543,122.098396 647.795543,115.345202 647.795543,108.491373 C646.884524,108.491373 646.190667,108.491373 645.374987,108.491373 C645.374987,106.44158 645.380283,104.49772 645.36969,102.553859 C645.36969,102.151316 645.41736,101.452162 645.263758,101.399195 C643.245744,100.710634 644.199136,99.047495 644.17795,97.8610515 C644.077314,92.002987 644.13028,86.1396259 644.13028,80.0591033 C642.62604,80.0591033 641.227731,80.0591033 639.744677,80.0591033 C639.744677,78.1152428 639.744677,76.3938405 639.744677,74.5665057 C638.134504,74.3334544 636.317762,75.1173545 635.205471,73.3694691 C633.722417,73.1364177 633.558222,73.8037921 633.055043,73.9362077 C632.488304,74.0898097 632.281736,72.739171 631.598472,73.7031563 C629.866476,74.1851489 628.907787,74.0845131 628.420498,73.3429859 C627.980878,73.7296394 627.546555,74.1215895 627.091046,74.4870564 C626.111171,73.6978597 625.295491,73.7031563 624.914134,73.9468009 C623.489342,74.85782 621.969212,74.4552767 620.496751,74.4976497 C618.266873,74.5612091 616.031698,74.5135395 613.706481,74.5135395 C613.706481,87.2731031 613.706481,99.720166 613.706481,112.283755 C612.700122,112.283755 611.804993,112.283755 610.968127,112.283755 C610.533804,112.8399 610.724482,113.374859 610.724482,113.862148 C610.708592,121.701149 610.740372,129.540151 610.676813,137.379152 C610.671516,138.274281 611.444823,139.646106 610.14715,140.022167 C609.42681,140.234032 609.087826,138.724494 608.13973,138.422587 C607.705407,138.284874 607.43528,137.681059 607.022143,137.379152 C606.460701,136.960719 606.365362,136.44165 606.365362,135.779572 C606.386548,128.766844 606.402438,121.754116 606.349472,114.736091 C606.344175,113.883335 606.677863,113.072951 607.265788,113.004095 C608.409858,112.88757 608.23507,112.230788 608.23507,111.536931 C608.240366,110.541166 608.240366,109.550697 608.240366,108.454297 C605.80392,108.454297 603.664084,108.454297 601.561325,108.454297 C601.185265,106.992429 601.736114,105.541154 601.243528,104.232888 C599.919372,104.100473 599.961745,104.079286 599.564499,103.385429 C598.770005,102.00301 598.219157,100.562329 598.340979,98.9415625 C598.468098,97.1618973 597.747757,95.1915538 598.987167,93.6555332 C600.517891,91.7540458 598.420428,90.0379401 598.971277,88.2635715 C599.199032,87.5432309 599.474456,86.7381443 599.977635,86.2296685 C600.98929,85.2074204 598.98187,84.9108095 599.590982,84.0845364 C600.570857,82.966949 600.475518,81.6851664 600.046491,81.0071987 C599.463863,80.090883 599.522126,79.2381268 599.612168,78.4012604 C599.82933,76.2561283 599.177845,74.2487084 598.764709,72.220102 C598.65348,71.6957363 598.277419,71.6798465 599.04543,71.3620491 C601.74141,70.2338685 601.593105,70.1120462 602.387598,68.3694574 C602.721286,67.6385235 602.737175,66.9552592 602.631243,66.3249611 C602.377005,64.9319494 603.261541,64.2274986 604.093111,63.5124546 C605.34841,62.426647 606.312396,60.8959231 606.381252,59.5505809 C606.428921,58.5654092 606.19587,57.5696441 606.958584,56.6798115 C607.170449,56.4361669 607.249898,55.4880715 606.661973,55.3556559 C605.290148,55.0272653 604.606883,53.4806516 603.007303,53.4594651 C602.133361,54.3122213 601.201155,55.2126471 600.332509,56.0601067 C597.647121,54.5399761 597.74246,54.5187896 597.059196,51.8122155 C596.714916,50.429797 596.391822,48.9414461 595.067666,47.988054 C594.405588,47.511358 593.849443,46.8757633 593.309187,46.2454652 C592.519991,45.3238529 591.593082,43.9838074 591.84732,43.078085 C592.435245,41.0229954 591.868506,39.0208721 592.165117,37.0293421 C592.265753,36.3672642 591.211725,35.7899324 592.059185,35.1013715 C590.893928,35.1808208 590.6238,33.6606901 589.564475,33.6659868 C587.980785,33.6712834 587.8007,32.6755184 587.774217,31.4572952 C586.863198,32.0187372 587.588835,32.9562394 586.900274,33.6448003 C585.35366,33.6289104 585.337771,32.8503069 584.808108,33.2157739 C584.590947,34.7412011 584.590947,34.7412011 582.911917,35.1490411 C583.06552,35.8005256 584.786922,35.514508 584.024208,36.3513744 C583.197935,37.2676901 584.575057,37.8397253 584.013615,38.3323112 C583.229715,39.0208721 583.595182,39.836552 583.473359,40.6045623 C583.420393,40.9276562 583.224418,41.1024448 582.843061,41.0918515 C582.461705,41.0812583 582.23395,40.8958765 582.260433,40.5674859 C582.371662,39.079135 581.921449,37.7920557 580.777379,36.8545535 C579.871656,36.1130264 579.638605,35.2496769 579.765724,34.1638693 C579.961699,32.4477636 579.352587,30.8217005 578.748772,29.3280529 C578.17144,27.8979649 577.869533,26.5473261 577.901313,25.0324921 C577.933092,23.2634202 578.139661,21.4996449 576.910844,19.8629885 C576.17991,18.88841 576.58775,17.3894658 577.625888,17.0292955 C578.616357,16.685015 578.716992,16.5843792 578.261483,15.646877 C578.017838,15.1489945 578.499831,14.3386113 577.694744,13.9148815 C577.191565,13.6500503 576.476521,14.2167889 576.063385,13.4064057 C577.715931,12.574836 577.41932,11.1076715 577.128006,9.70406657 C577.090929,9.53457465 576.216987,8.61296233 576.190504,9.18499756 C576.111054,10.8322472 574.553847,9.62461723 574.20427,10.4614836 C574.20427,10.8746201 574.20427,11.2877567 574.20427,11.6955966 C574.20427,12.0080974 574.177787,12.3205981 574.209567,12.6225056 C574.283719,13.3375496 573.791134,13.8354321 573.558082,14.2750518 C573.325031,14.7146715 571.926722,13.8831017 572.694733,15.1172148 L573.605752,17.2676435 C574.018888,17.6013307 574.225457,17.9879842 574.22016,18.5706126 C574.20427,20.4615069 574.304906,22.3206214 574.702153,24.2168122 C574.977577,25.5303746 575.660841,26.8068606 575.475459,28.2740251 C575.295374,29.6988165 575.42779,31.1553877 575.44368,32.6013656 C575.448976,33.2899266 575.644951,33.8884449 575.930969,34.5664126 C576.736056,36.4467136 577.085633,38.4223538 575.470163,40.270875 C574.484991,41.393759 574.495584,43.0568985 574.919314,44.2857149 C575.343044,45.5092347 575.713807,46.9287295 576.524191,47.9191979 C577.207455,48.7507677 577.38754,49.5187779 577.276311,50.4139071 C577.01148,52.5749291 577.631185,54.5134929 578.664026,56.3408277 C578.907671,56.7751508 579.320807,57.0293886 579.013603,57.6385002 C578.346229,58.946766 578.293263,60.5092696 577.784787,61.7698658 C576.969107,63.7825823 577.218048,65.3662725 578.208517,67.0664883 C578.346229,67.3101329 578.584577,67.7550492 578.510424,67.8344985 C577.334574,69.0262386 578.404492,70.6470051 577.715931,71.8440418 C577.361057,72.4637466 577.509363,72.7550608 577.631185,73.3800623 C578.21911,76.3567641 579.569749,79.2116437 579.161909,82.3631341 C579.055976,83.1629241 579.41085,84.2487317 578.997713,84.7466142 C578.17144,85.7423792 579.733944,86.2243719 579.188392,87.1353909 C578.526314,88.2476817 578.399195,89.5612441 578.526314,90.8801031 C578.695806,92.6544716 578.160847,94.4818064 579.119536,96.2085053 C579.543266,96.9659223 578.59517,97.8663481 578.854705,98.5866888 C579.331401,99.9108444 579.183095,100.991355 578.573984,102.251952 C577.85894,103.750896 576.873768,104.248778 575.268891,104.275261 C574.527364,104.285855 574.410838,104.947932 574.723339,105.927808 C575.300671,107.749846 574.506178,108.512559 572.578207,108.539042 C571.063373,108.560229 569.548539,108.544339 568.001925,108.544339 C568.001925,109.836715 567.991332,110.86426 568.007222,111.886508 C568.012518,112.172526 568.081374,112.691595 568.18201,112.707484 C570.046421,113.004095 569.188369,114.444777 569.198962,115.345202 C569.273115,121.531657 569.236038,127.723409 569.236038,133.909864 C569.236038,135.043341 569.400233,136.213895 569.188369,137.304999 C568.99769,138.263688 567.662941,138.136569 567.090906,138.851613 C566.841965,140.276405 565.989209,140.170472 565.194715,140.101616 C564.506154,140.038057 563.769924,140.350557 563.017803,139.805005 C563.017803,124.121706 563.017803,108.369551 563.017803,92.4531999 C561.179875,92.4531999 559.442583,92.3472675 557.721181,92.4849797 C555.983889,92.6173952 554.506131,91.287943 552.535787,91.9923938 C552.535787,87.5008579 552.504008,83.4807214 552.551677,79.4552883 C552.567567,78.1311327 552.440448,76.8970196 551.656548,75.8006188 C551.148072,75.9489242 551.43409,76.5050696 551.201039,76.738121 C550.798495,77.1406643 550.443622,77.9351577 549.744467,77.537911 C549.283661,77.2783765 548.663956,76.8758332 548.817558,76.091933 C548.854635,75.8906614 548.817558,75.6787965 548.822855,75.4722282 C548.897008,73.4065454 548.912898,73.3959522 548.107811,72.262475 C547.880056,71.939381 547.498699,71.7222195 547.583445,71.2402268 C547.911836,69.4075954 546.990224,67.7073796 546.99552,65.9277144 C546.99552,64.7359744 546.661833,63.7508026 545.47539,62.2306719 C546.110984,64.1851256 545.258228,65.2762299 544.998694,66.5156395 C544.622633,68.3058979 544.532591,70.05908 544.479625,71.854635 C544.474328,72.1247628 544.262463,72.6226453 544.183014,72.6173487 C542.890638,72.500823 543.309071,73.454215 543.261401,74.0739199 C543.219028,74.5876922 543.203139,75.1120579 543.261401,75.6205336 C543.37263,76.5474426 543.038943,77.4054954 542.202077,77.537911 C541.391694,77.6703265 540.787879,77.0029521 540.729616,76.0336702 C538.701009,81.1237244 540.067538,86.5527625 539.368384,91.8123086 C538.526221,91.9288343 537.795287,91.611037 537.032573,92.1195127 C537.032573,94.2010854 537.032573,96.3356242 537.032573,98.6449516 C535.401214,98.6449516 533.875786,98.6449516 532.355656,98.6449516 C531.577052,96.9235493 530.507134,97.4267285 529.829167,97.4267285 C527.01666,97.4320251 524.230637,97.4638048 521.407537,97.924611 C518.473208,98.401307 515.379981,97.7657123 512.307939,98.878003 C512.307939,99.4924112 512.307939,100.196862 512.307939,100.901313 C512.307939,107.500904 512.307939,114.100496 512.307939,120.705384 C512.307939,121.319793 512.371499,121.944794 512.29205,122.559202 C512.180821,123.427848 511.735904,124.00518 510.740139,124.026367 C510.258147,124.03696 509.712594,123.803909 509.209415,124.307088 C509.209415,126.298618 509.209415,128.353707 509.209415,130.4035 C509.209415,133.390795 509.209415,136.383387 509.214712,139.375979 C509.214712,139.863268 509.04522,140.138692 508.520854,140.101616 C508.165981,140.080429 507.932929,139.900344 507.980599,139.545471 C508.404329,136.383387 507.265555,133.359016 507.313224,130.202229 C507.44564,121.335682 507.360894,112.458543 507.360894,103.591997 C507.360894,102.585639 507.360894,101.579281 507.360894,100.557032 C505.009194,100.557032 502.869358,100.557032 500.517658,100.557032 C500.517658,104.063396 500.517658,107.516794 500.517658,110.933116 C499.40007,110.933116 498.499645,110.933116 497.387354,110.933116 C497.387354,109.67252 497.387354,108.486076 497.387354,107.20959 C495.030357,107.20959 492.890521,107.20959 490.655347,107.20959 C490.655347,101.134364 490.655347,95.1650707 490.65005,89.1957771 C487.355551,88.8567933 484.389442,88.8567933 481.327994,88.8567933 C481.327994,100.392837 481.327994,111.812355 481.327994,123.274246 C480.443459,123.385475 479.071633,123.64501 479.039854,123.115348 C478.970997,121.844158 477.82163,122.283778 477.387307,121.65348 C476.783492,120.77424 477.090696,119.884408 477.05362,119.005169 C476.979467,117.357919 477.032434,115.705373 477.032434,114.052827 C477.032434,111.404515 477.032434,108.756204 477.032434,106.007257 C474.633064,106.007257 472.498525,106.007257 470.141528,106.007257 C470.141528,102.86636 470.141528,99.8260985 470.141528,96.8917696 C466.137281,96.8917696 462.350196,96.8917696 458.462475,96.8917696 C458.462475,102.961699 458.441289,108.930993 458.478365,114.900286 C458.488958,116.272111 458.097008,117.718089 459.060993,118.983982 C459.246375,119.232923 458.986841,119.5825 458.67434,119.667246 C457.387261,118.40665 457.191286,117.389699 457.196582,116.261518 C457.238955,106.150266 457.223065,96.04431 457.223065,85.9330576 C457.223065,85.0326318 457.223065,84.132206 457.223065,83.2370768 C452.795089,83.2370768 448.594867,83.2370768 444.177484,83.2370768 C444.177484,89.0209886 444.177484,94.7413409 444.177484,100.562329 C441.820487,100.562329 439.680652,100.562329 437.334248,100.562329 C437.334248,108.862136 437.334248,117.061308 437.334248,125.557091 C436.772806,124.783784 436.094838,124.561326 436.168991,123.782722 C436.26433,122.802847 435.930643,122.38971 434.961361,123.057085 C434.150978,123.61323 433.939113,122.718101 433.753731,122.357931 C433.541866,121.950091 433.706062,121.356869 433.706062,120.8378 C433.706062,118.809194 433.706062,116.77529 433.706062,114.651345 C431.915803,114.651345 430.395672,114.651345 428.75372,114.651345 C428.75372,113.221257 428.759016,111.897101 428.75372,110.572946 C428.743126,109.26468 428.716643,107.967007 428.695457,106.679928 C427.101173,106.679928 425.761128,106.669335 424.421082,106.679928 C420.310903,106.732894 420.988871,106.791157 420.528065,102.998775 C419.436961,102.998775 418.329966,102.998775 417.302422,102.998775 C416.364919,101.61106 416.597971,99.6513099 415.019577,98.8832997 C413.54182,98.162959 411.905163,97.8080853 410.183761,97.9987637 C410.183761,96.0072336 410.199651,94.2593482 410.173168,92.5114628 C410.167871,92.0559532 410.459185,91.3409092 409.749438,91.24557 C409.07147,91.1555274 408.901978,90.9118828 408.933758,90.292178 C408.976131,89.3917521 408.944351,88.4860297 408.944351,87.6703498 C406.6721,87.3684423 406.6721,87.3684423 406.349006,85.4457684 C404.511078,85.3822089 404.987774,83.2688565 403.621246,82.9510592 C402.641371,82.728601 401.672089,81.6057171 400.856409,80.8165203 C399.828864,79.8207553 399.060854,80.2444851 398.308733,80.7211811 C397.064027,81.5103778 396.009999,82.6067787 394.749403,83.3694923 C394.034359,83.8038154 394.516352,84.889623 393.340501,85.1014879 C392.238804,85.2974629 393.314018,86.7540341 392.583084,87.4531883 C391.926303,87.484968 391.232446,87.5220444 390.326723,87.5644174 C390.326723,88.8091237 390.326723,90.0008637 390.326723,91.1555274 C389.616976,91.203197 389.129687,91.2349768 388.430532,91.2826464 C388.430532,101.023135 388.430532,110.657691 388.430532,120.191612 C387.307648,120.191612 386.407223,120.191612 385.411458,120.191612 C385.411458,110.106843 385.411458,100.128006 385.411458,90.0962029 C380.411446,90.0962029 375.517367,90.0962029 370.570321,90.0962029 C370.570321,94.2381617 370.570321,98.2530016 370.570321,102.267841 C370.570321,105.467001 370.586211,108.666161 370.565025,111.865321 C370.554431,113.856851 370.30549,114.074013 368.250401,114.105793 C367.233449,114.126979 366.216498,114.111089 365.273699,114.111089 C364.669884,115.032702 364.797003,116.319781 363.504627,116.589909 C363.56289,118.041183 361.55547,118.554956 361.88386,120.181019 C362.021573,120.874876 361.905047,121.6217 361.905047,122.342041 C361.905047,128.200105 361.905047,134.068763 361.905047,140.143989 C359.982373,140.143989 358.170928,140.143989 356.417746,140.143989 C356.417746,141.198006 346.610025,134.547214 326.994584,120.191612 C324.115628,150.903353 322.676149,167.095388 322.676149,168.767716 C322.676149,175.997765 356.417746,166.826805 356.417746,174 C502.911731,174 649.326267,174 795.645464,174 C795.645464,164.954814 840.723205,174.54471 840.723205,165.608651 C840.723205,164.298873 825.219285,161.359609 812.607357,154.863531 C803.136396,149.985283 795.645464,141.175189 795.645464,140.191659 C795.131691,140.149286 794.639105,140.096319 793.961138,140.01687 Z" id="Shape" fill="url(#linearGradient-3)" fill-rule="nonzero"></path>
                    </g>
                </g>
                <g id="Group-37" mask="url(#mask-2)" fill="#CD4874">
                    <g transform="translate(246.000000, -31.000000)">
                        <polygon id="Rectangle-9" transform="translate(85.803713, 123.011427) rotate(28.000000) translate(-85.803713, -123.011427) " points="118.27997 1.555365 118.301473 211.554104 53.3059531 244.467488 53.3059531 36.1026627"></polygon>
                        <polygon id="Rectangle-9-Copy" transform="translate(626.199031, 123.275901) rotate(28.000000) translate(-626.199031, -123.275901) " points="658.699031 1.42516399 658.699031 210.673204 593.901549 245.126637 593.699031 34.6565909"></polygon>
                    </g>
                </g>
            </g>
        </g>
    </g>
</svg>