<?xml version="1.0" encoding="UTF-8"?>
<svg width="20px" height="16px" viewBox="0 0 20 16" version="1.1" xmlns="http://www.w3.org/2000/svg" xmlns:xlink="http://www.w3.org/1999/xlink">
    <!-- Generator: Sketch 50.2 (55047) - http://www.bohemiancoding.com/sketch -->
    <title>Shape</title>
    <desc>Created with Sketch.</desc>
    <defs></defs>
    <g id="Desktop" stroke="none" stroke-width="1" fill="none" fill-rule="evenodd">
        <g id="Homepage-" transform="translate(-250.000000, -3437.000000)" fill="#CD4874" fill-rule="nonzero">
            <g id="Group-29" transform="translate(0.000000, 3037.000000)">
                <g id="Group-15" transform="translate(135.000000, 119.000000)">
                    <g id="Group-14" transform="translate(20.000000, 190.000000)">
                        <g id="Group-11">
                            <g id="Group-13">
                                <g id="Group-12">
                                    <g id="Group-26" transform="translate(0.000000, 87.000000)">
                                        <path d="M114.89962,11.4082825 C114.845545,11.2460573 114.737395,11.0838321 114.629245,10.975682 L108.140238,4.40556291 C107.869863,4.13518764 107.518375,4 107.166887,4 C106.815399,4 106.517987,4.16222516 106.301686,4.40556291 C106.058349,4.64890065 105.923161,4.97335098 105.923161,5.35187636 C105.923161,5.70336422 106.058349,6.05485207 106.301686,6.29818982 L110.573616,10.5701191 L96.3248388,10.5701191 C95.5948256,10.5701191 95,11.1379072 95,11.894958 C95,12.6520087 95.5677881,13.2197968 96.3248388,13.2197968 L110.600653,13.2197968 L106.301686,17.4106135 C106.058349,17.6539513 105.923161,17.9784016 105.923161,18.356927 C105.923161,18.7354524 106.031311,19.0599027 106.301686,19.3032404 C106.545024,19.5465782 106.896512,19.7088033 107.248,19.7088033 C107.248,19.7088033 107.275037,19.7088033 107.275037,19.7088033 C107.626525,19.7088033 107.923938,19.5465782 108.140238,19.3032404 L114.629245,12.8142339 C114.656282,12.7871964 114.68332,12.7331213 114.710357,12.7060838 C114.710357,12.6790463 114.737395,12.6790463 114.764432,12.6249712 C115.034808,12.2734833 115.061845,11.7868079 114.89962,11.4082825 Z" id="Shape"></path>
                                    </g>
                                </g>
                            </g>
                        </g>
                    </g>
                </g>
            </g>
        </g>
    </g>
</svg>