<?xml version="1.0" encoding="UTF-8"?>
<svg width="34px" height="22px" viewBox="0 0 34 22" version="1.1" xmlns="http://www.w3.org/2000/svg" xmlns:xlink="http://www.w3.org/1999/xlink">
    <!-- Generator: Sketch 50.2 (55047) - http://www.bohemiancoding.com/sketch -->
    <title>article</title>
    <desc>Created with Sketch.</desc>
    <defs></defs>
    <g id="Desktop" stroke="none" stroke-width="1" fill="none" fill-rule="evenodd">
        <g id="Homepage-" transform="translate(-856.000000, -3430.000000)">
            <g id="Group-29" transform="translate(0.000000, 3037.000000)">
                <g id="Group-15" transform="translate(535.000000, 119.000000)">
                    <g id="Rectangle-5">
                        <g id="Group-5-Copy-2" transform="translate(321.000000, 274.000000)">
                            <g id="noun_76990_cc-copy">
                                <g id="article">
                                    <path d="M0,19.0777778 L0,2.45555556 C0,1.05777778 1.13333333,0 2.49333333,0 L31.5066667,0 C32.8666667,0 34,1.05777778 34,2.45555556 L34,19.04 C34,20.4 32.8666667,21.4577778 31.5066667,21.4577778 L2.49333333,21.4577778 C1.13333333,21.4955556 0,20.4 0,19.0777778 Z" fill="#CD4874" fill-rule="nonzero"></path>
                                    <rect id="Rectangle-15" fill="#FFFFFF" x="5" y="5" width="14" height="2" rx="1"></rect>
                                    <rect id="Rectangle-15-Copy-4" fill="#FFFFFF" x="20" y="5" width="9" height="2" rx="1"></rect>
                                    <rect id="Rectangle-15-Copy" fill="#FFFFFF" x="5" y="10" width="9" height="2" rx="1"></rect>
                                    <rect id="Rectangle-15-Copy-3" fill="#FFFFFF" x="15" y="10" width="10" height="2" rx="1"></rect>
                                    <rect id="Rectangle-15-Copy-2" fill="#FFFFFF" x="5" y="15" width="24" height="2" rx="1"></rect>
                                </g>
                            </g>
                        </g>
                    </g>
                </g>
            </g>
        </g>
    </g>
</svg>