<svg xmlns="http://www.w3.org/2000/svg" xmlns:xlink="http://www.w3.org/1999/xlink" width="370" height="175" viewBox="0 0 370 175">
    <defs>
        <linearGradient id="b" x1="0%" x2="102%" y1="0%" y2="101%">
            <stop offset="0%" stop-color="#3023AE"/>
            <stop offset="100%" stop-color="#C86DD7"/>
        </linearGradient>
        <path id="a" d="M0 0h370v175H0z"/>
    </defs>
    <g fill="none" fill-rule="evenodd">
        <mask id="c" fill="#fff">
            <use xlink:href="#a"/>
        </mask>
        <use fill="url(#b)" xlink:href="#a"/>
        <g mask="url(#c)">
            <g transform="translate(21 15)">
                <circle cx="312" cy="122" r="5" fill="#4A3FB7" opacity=".47"/>
                <circle cx="329.5" cy="129.5" r="2.5" fill="#BD10E0"/>
                <circle cx="298" cy="96" r="3" fill="#FFF"/>
                <circle cx="141" cy="7" r="4" fill="#AF6BC6"/>
                <circle cx="238" cy="14" r="1" fill="#FFF"/>
                <circle cx="267" cy="19" r="1" fill="#FFF"/>
                <circle cx="68" cy="114" r="1" fill="#FFF"/>
                <circle cx="308" cy="64" r="1" fill="#FFF"/>
                <path fill="#5D3DA3" fill-rule="nonzero" d="M254.353 63.627c.248-.66.985-.995 1.646-.747l13.848 5.212a9.937 9.937 0 0 1 1.484-2.217l-10.698-3.966a1.278 1.278 0 1 1 .89-2.397l12.062 4.473a10 10 0 0 1 15.238 8.636l-5.68-2.188a1.278 1.278 0 1 0-.919 2.386l6.23 2.399c-.234.83-.574 1.627-1.013 2.37l-1.98-.75a1.28 1.28 0 1 0-.907 2.392l1.22.462a10.007 10.007 0 0 1-16.085-3.124l-13.873-5.18a1.278 1.278 0 0 1 .894-2.394l12.164 4.546c-.103-1.01-.052-2.03.15-3.025l-13.928-5.24a1.278 1.278 0 0 1-.743-1.648zm-8.313 4.217a1.278 1.278 0 1 1 .905-2.39l3.531 1.336a1.278 1.278 0 1 1-.905 2.391l-3.531-1.337zm-1.835-11.075c.253-.658.991-.988 1.65-.736l6.248 2.406a1.279 1.279 0 1 1-.915 2.388l-6.249-2.406a1.278 1.278 0 0 1-.734-1.652z" opacity=".692"/>
                <path fill="#4C9CBD" fill-rule="nonzero" d="M22.4 123.822a.757.757 0 0 0-1.02-.32l-7.766 4.064a5.886 5.886 0 0 0-1.032-1.196l6.003-3.104a.757.757 0 1 0-.696-1.345l-6.768 3.5a5.923 5.923 0 0 0-8.336 6.177l3.182-1.697a.757.757 0 1 1 .712 1.337l-3.489 1.86c.198.471.455.915.766 1.32l1.11-.584a.758.758 0 0 1 .707 1.34l-.684.36a5.927 5.927 0 0 0 9.23-2.997l7.782-4.046a.757.757 0 0 0-.698-1.343l-6.823 3.55a5.942 5.942 0 0 0-.307-1.767l7.81-4.086a.757.757 0 0 0 .318-1.023zm5.192 1.88a.757.757 0 1 0-.704-1.34l-1.98 1.04a.757.757 0 1 0 .705 1.34l1.98-1.04zm.28-6.644a.757.757 0 0 0-1.024-.313l-3.5 1.865a.757.757 0 1 0 .712 1.338l3.5-1.866a.757.757 0 0 0 .311-1.024z" opacity=".692"/>
                <circle cx="15.5" cy="75.5" r="5.5" fill="#4C9CBD"/>
                <circle cx="180.5" cy="139.5" r="1.5" fill="#4C9CBD"/>
                <circle cx="82" cy="13" r="3" fill="#FFF"/>
                <circle cx="82" cy="13" r="3" fill="#FFF"/>
                <circle cx="62" cy="105" r="3" fill="#FFF"/>
                <circle cx="61" cy="72" r="2" fill="#FFF"/>
                <circle cx="50" cy="1" r="1" fill="#FFF"/>
                <circle cx="157" cy="90" r="1" fill="#FFF"/>
                <circle cx="30" cy="11" r="1" fill="#FFF"/>
                <circle cx="272" cy="13" r="3" fill="#FFF"/>
                <circle cx="314.5" cy="18.5" r="4.5" fill="#F5A623"/>
                <circle cx="201.5" cy="21.5" r="1.5" fill="#F5A623"/>
                <circle cx="254.5" cy="124.5" r="4.5" fill="#F5A623"/>
                <circle cx="13" cy="13" r="3" fill="#F5A623"/>
            </g>
        </g>
        <path fill="#A95ECF" fill-rule="nonzero" d="M67.6 47.593c9.281-2.418 10.067-.437 10.365.312.62 1.555-.812 3.334-4.638 5.767a49.293 49.293 0 0 1-2.677 1.576v.042c0 6.205-5.048 11.255-11.254 11.255a11.225 11.225 0 0 1-8.211-3.566c-2.472.648-4.957 1.129-6.889 1.129-1.757 0-3.056-.399-3.467-1.433-.298-.749-1.085-2.728 7.313-7.34v-.045c0-6.206 5.049-11.255 11.255-11.255 3.231 0 6.15 1.37 8.204 3.558zm1.479 1.965a11.185 11.185 0 0 1 1.296 3.25c3.18-1.825 4.928-3.282 5.358-4.01-.66-.174-2.582-.226-6.654.76zM49.715 61.024a11.186 11.186 0 0 1-1.296-3.247c-3.632 2.077-4.993 3.435-5.353 4.014.813.234 3.084.092 6.65-.767z" mask="url(#c)" opacity=".622" transform="rotate(-9 59.384 55.29)"/>
        <g fill="#FFF" fill-rule="nonzero" mask="url(#c)">
            <path d="M195.857 85.905c1.353-1.165 2.191-2.77 2.191-4.539 0-2.936-2.309-5.415-5.45-6.183v-1.535c0-.91-.748-1.648-1.67-1.648-.923 0-1.67.738-1.67 1.648v1.284h-1.794v-1.284c0-.91-.747-1.648-1.67-1.648-.922 0-1.67.738-1.67 1.648v1.284h-2.454c-.923 0-1.67.738-1.67 1.648 0 .91.747 1.649 1.67 1.649h1.368V94.77h-1.368c-.923 0-1.67.738-1.67 1.649 0 .91.747 1.648 1.67 1.648h2.455v1.284c0 .91.747 1.648 1.67 1.648.922 0 1.67-.738 1.67-1.648v-1.284h1.793v1.284c0 .91.747 1.648 1.67 1.648.922 0 1.67-.738 1.67-1.648v-1.418c3.647-.625 6.402-3.367 6.402-6.648 0-2.193-1.237-4.14-3.143-5.381zm-1.148-4.539c0 1.73-1.869 3.138-4.166 3.138h-4.165v-6.275h4.165c2.297 0 4.166 1.407 4.166 3.137zm-3.69 13.405h-4.641v-6.97h4.641c2.56 0 4.642 1.563 4.642 3.485s-2.083 3.485-4.642 3.485z"/>
            <path d="M189.5 64C177.094 64 167 74.093 167 86.5c0 12.406 10.094 22.5 22.5 22.5 12.407 0 22.5-10.094 22.5-22.5 0-12.407-10.093-22.5-22.5-22.5zm0 41.693c-10.583 0-19.193-8.61-19.193-19.193 0-10.583 8.61-19.193 19.193-19.193 10.583 0 19.193 8.61 19.193 19.193 0 10.583-8.61 19.193-19.193 19.193z"/>
            <path d="M231.343 80.658H216.83c-1.635-6.56-5.564-12.215-10.878-16.06v-3.233h17.657a1.66 1.66 0 0 0 1.657-1.663v-7.395a4.512 4.512 0 0 0 2.839-4.185c0-2.488-2.017-4.512-4.496-4.512-2.48 0-4.496 2.024-4.496 4.512 0 1.899 1.179 3.52 2.838 4.185v5.732h-17.657a1.66 1.66 0 0 0-1.657 1.663v2.83a27.92 27.92 0 0 0-3.71-1.634v-6.74h10.318a1.66 1.66 0 0 0 1.658-1.662v-8.8a4.512 4.512 0 0 0 2.838-4.185c0-2.488-2.017-4.511-4.496-4.511-2.479 0-4.496 2.023-4.496 4.51 0 1.9 1.18 3.521 2.839 4.186v7.137H197.27a1.66 1.66 0 0 0-1.657 1.663v7.45a27.997 27.997 0 0 0-5.566-.656V46.306a1.66 1.66 0 0 0-1.657-1.663h-9.854c-.662-1.665-2.278-2.849-4.17-2.849-2.48 0-4.496 2.024-4.496 4.512 0 2.487 2.016 4.511 4.495 4.511 1.893 0 3.509-1.183 4.17-2.848h8.198v11.45c-7.83.783-14.72 4.805-19.33 10.704-.047-.004-.094-.014-.143-.014h-7.458v-4.66a1.66 1.66 0 0 0-1.657-1.664h-8.977v-15.11a4.512 4.512 0 0 0 2.839-4.185c0-2.488-2.017-4.511-4.496-4.511-2.48 0-4.496 2.023-4.496 4.51 0 1.9 1.18 3.52 2.839 4.185v16.774a1.66 1.66 0 0 0 1.657 1.663h8.977v4.661a1.66 1.66 0 0 0 1.657 1.663h7.028a28.084 28.084 0 0 0-3.704 12.402h-7.511A1.66 1.66 0 0 0 152.3 87.5v19.781h-6.485c-.523-1.911-2.251-3.328-4.32-3.328-2.478 0-4.495 2.024-4.495 4.512 0 2.487 2.017 4.511 4.496 4.511 1.702 0 3.169-.965 3.932-2.37h8.53a1.66 1.66 0 0 0 1.657-1.662V89.163h5.854c.59 10.141 6.541 18.857 15.045 23.337v12.104h-12.841c-.474-1.982-2.243-3.464-4.361-3.464-2.48 0-4.496 2.024-4.496 4.511s2.017 4.511 4.496 4.511c1.647 0 3.075-.903 3.858-2.233h15a1.66 1.66 0 0 0 1.658-1.663v-12.28a27.907 27.907 0 0 0 9.715 1.737 27.87 27.87 0 0 0 13.094-3.256v7.425a1.66 1.66 0 0 0 1.657 1.663h6.133v9.75a4.512 4.512 0 0 0-2.839 4.184c0 2.488 2.017 4.511 4.496 4.511 2.479 0 4.496-2.023 4.496-4.51 0-1.9-1.18-3.521-2.839-4.186v-11.412a1.66 1.66 0 0 0-1.657-1.663h-6.132V110.4c7.09-5.13 11.718-13.48 11.718-22.901a28.43 28.43 0 0 0-.226-3.516h12.241v13.34h-5.11a1.66 1.66 0 0 0-1.657 1.663v15.54a4.508 4.508 0 0 0-2.886 4.2c0 2.488 2.017 4.512 4.496 4.512 2.479 0 4.495-2.024 4.495-4.512a4.515 4.515 0 0 0-2.79-4.17V100.65h5.11A1.66 1.66 0 0 0 233 98.987V82.32a1.66 1.66 0 0 0-1.657-1.663zm-7.734-33.722c.651 0 1.181.532 1.181 1.186 0 .654-.53 1.185-1.181 1.185a1.185 1.185 0 0 1-1.182-1.185c0-.654.53-1.186 1.182-1.186zm-14.364-8.61a1.184 1.184 0 0 1 0 2.37 1.185 1.185 0 0 1 0-2.37zm-34.88 9.165c-.65 0-1.18-.531-1.18-1.185s.53-1.186 1.18-1.186c.652 0 1.182.532 1.182 1.186 0 .654-.53 1.185-1.182 1.185zm-26.854-4.186a1.184 1.184 0 0 1 0 2.37 1.185 1.185 0 0 1 0-2.37zm-6.015 66.345c-.652 0-1.181-.531-1.181-1.185s.53-1.186 1.18-1.186c.652 0 1.182.532 1.182 1.186 0 .654-.53 1.185-1.181 1.185zm17.816 17.186c-.652 0-1.181-.531-1.181-1.185s.53-1.186 1.18-1.186c.652 0 1.182.532 1.182 1.186 0 .654-.53 1.185-1.181 1.185zm52.772 9.838a1.184 1.184 0 0 1 0-2.37 1.184 1.184 0 0 1 0 2.37zm-22.54-24.277c-13.683 0-24.813-11.169-24.813-24.897 0-13.728 11.13-24.897 24.812-24.897s24.812 11.169 24.812 24.897c0 13.728-11.13 24.897-24.812 24.897zm34.984 7.516a1.185 1.185 0 0 1-1.182-1.186c0-.654.53-1.185 1.182-1.185.651 0 1.18.531 1.18 1.185s-.529 1.186-1.18 1.186z"/>
        </g>
    </g>
</svg>
