<?xml version="1.0" encoding="UTF-8"?>
<svg width="1171px" height="185px" viewBox="0 0 1171 185" version="1.1" xmlns="http://www.w3.org/2000/svg" xmlns:xlink="http://www.w3.org/1999/xlink">
    <!-- Generator: sketchtool 50.2 (55047) - http://www.bohemiancoding.com/sketch -->
    <title>A035719E-40D6-4D90-9D91-46BAF4757BE9</title>
    <desc>Created with sketchtool.</desc>
    <defs>
        <rect id="path-1" x="0" y="0" width="1171" height="185"></rect>
        <linearGradient x1="0%" y1="0%" x2="101.999998%" y2="100.999999%" id="linearGradient-3">
            <stop stop-color="#3023AE" offset="0%"></stop>
            <stop stop-color="#C86DD7" offset="100%"></stop>
        </linearGradient>
    </defs>
    <g id="Page-1" stroke="none" stroke-width="1" fill="none" fill-rule="evenodd">
        <g id="Homepage-" transform="translate(-135.000000, -1200.000000)">
            <g id="Screen-Shot-2018-05-27-at-2.20.14-PM" transform="translate(135.000000, 1200.000000)">
                <mask id="mask-2" fill="white">
                    <use xlink:href="#path-1"></use>
                </mask>
                <use id="Mask" fill="#342B8A" xlink:href="#path-1"></use>
                <circle id="Oval-2" fill="#BAB574" mask="url(#mask-2)" cx="207.5" cy="28.5" r="2.5"></circle>
                <circle id="Oval-2-Copy" fill="#BAB574" mask="url(#mask-2)" cx="131" cy="72" r="4"></circle>
                <circle id="Oval-2-Copy-2" fill="#FFFFFF" mask="url(#mask-2)" cx="255" cy="99" r="2"></circle>
                <circle id="Oval-2-Copy-2" fill="#FFFFFF" mask="url(#mask-2)" cx="445" cy="79" r="2"></circle>
                <circle id="Oval-2-Copy-2" fill="#FFFFFF" mask="url(#mask-2)" cx="404" cy="58" r="1"></circle>
                <circle id="Oval-2-Copy-2" fill="#FFFFFF" mask="url(#mask-2)" cx="424" cy="100" r="1"></circle>
                <circle id="Oval-2-Copy-2" fill="#FFFFFF" mask="url(#mask-2)" cx="615" cy="49" r="2"></circle>
                <circle id="Oval-2-Copy-2" fill="#FFFFFF" mask="url(#mask-2)" cx="615" cy="49" r="2"></circle>
                <circle id="Oval-2-Copy-2" fill="#FFFFFF" mask="url(#mask-2)" cx="1115" cy="49" r="2"></circle>
                <circle id="Oval-2-Copy-2" fill="#FFFFFF" mask="url(#mask-2)" cx="1024.5" cy="68.5" r="1.5"></circle>
                <circle id="Oval-2-Copy-2" fill="#FFFFFF" mask="url(#mask-2)" cx="835" cy="27" r="2"></circle>
                <circle id="Oval-2-Copy-2" fill="#FFFFFF" mask="url(#mask-2)" cx="916.5" cy="103.5" r="1.5"></circle>
                <circle id="Oval-2-Copy-2" fill="#FFFFFF" mask="url(#mask-2)" cx="224" cy="118" r="1"></circle>
                <circle id="Oval-2-Copy-2" fill="#FFFFFF" mask="url(#mask-2)" cx="234" cy="128" r="1"></circle>
                <circle id="Oval" fill="#5FEEE4" opacity="0.580580357" mask="url(#mask-2)" cx="38" cy="90" r="17"></circle>
                <circle id="Oval-Copy-3" fill="#5FEEE4" opacity="0.348939732" mask="url(#mask-2)" cx="65" cy="40" r="5"></circle>
                <circle id="Oval-Copy-4" fill="#F5A623" opacity="0.640904018" mask="url(#mask-2)" cx="773.5" cy="105.5" r="3.5"></circle>
                <circle id="Oval-Copy-2" fill="#5FEEE4" opacity="0.580580357" mask="url(#mask-2)" cx="1140" cy="79" r="18"></circle>
                <circle id="Oval-Copy" fill="#5FEEE4" opacity="0.580580357" mask="url(#mask-2)" cx="574" cy="47" r="26"></circle>
                <circle id="Oval-2-Copy" fill="#BAB574" mask="url(#mask-2)" cx="632" cy="65" r="4"></circle>
                <circle id="Oval-2-Copy" fill="#BAB574" mask="url(#mask-2)" cx="413" cy="95" r="4"></circle>
                <circle id="Oval-2-Copy" fill="#BAB574" mask="url(#mask-2)" cx="812" cy="35" r="4"></circle>
                <circle id="Oval-2-Copy" fill="#BAB574" mask="url(#mask-2)" cx="932" cy="95" r="4"></circle>
                <path d="M73,163 L73,127.588235 L60.4137931,125.058824 L60.4137931,130.117647 L57.8965517,130.117647 L57.8965517,125.058824 L45.3103448,122.529412 L45.3103448,127.588235 L42.7931034,127.588235 L42.7931034,122.529412 L30.2068966,122.529412 L30.2068966,127.588235 L27.6896552,127.588235 L27.6896552,122.529412 L15.1034483,120 L15.1034483,125.058824 L12.5862069,125.058824 L12.5862069,120 L0,122.529412 L0,163 L73,163 Z M23,129 L21,129 L21,127 L23,127 L23,129 Z M8,129 L6,129 L6,127 L8,127 L8,129 Z M38,129 L36,129 L36,127 L38,127 L38,129 Z M53,131 L51,131 L51,129 L53,129 L53,131 Z M68,134 L66,134 L66,132 L68,132 L68,134 Z M195.413793,133.923077 L195.413793,138.846154 L192.896552,138.846154 L192.896552,133.923077 L180.310345,133.923077 L180.310345,138.846154 L177.793103,138.846154 L177.793103,133.923077 L165.206897,131.461538 L165.206897,136.384615 L162.689655,136.384615 L162.689655,131.461538 L150.103448,129 L150.103448,133.923077 L147.586207,133.923077 L147.586207,129 L135,129 L135,163 L208,163 L208,136.384615 L195.413793,133.923077 Z M141,137 L139,137 L139,135 L141,135 L141,137 Z M156,139 L154,139 L154,137 L156,137 L156,139 Z M171,142 L169,142 L169,140 L171,140 L171,142 Z M186,142 L184,142 L184,140 L186,140 L186,142 Z M201,144 L199,144 L199,142 L201,142 L201,144 Z M125.434783,105 L125.434783,110 L122.913043,110 L122.913043,105 L115.347826,105 L115.347826,110 L112.826087,110 L112.826087,105 L105.26087,105 L105.26087,110 L102.73913,110 L102.73913,105 L95.173913,105 L95.173913,110 L92.6521739,110 L92.6521739,105 L85.0869565,105 L85.0869565,110 L82.5652174,110 L82.5652174,105 L75,105 L75,115 L133,115 L133,105 L125.434783,105 Z M79,110 L77,110 L77,108 L79,108 L79,110 Z M89,110 L87,110 L87,108 L89,108 L89,110 Z M100,110 L98,110 L98,108 L100,108 L100,110 Z M109,110 L107,110 L107,108 L109,108 L109,110 Z M119,110 L117,110 L117,108 L119,108 L119,110 Z M129,110 L127,110 L127,108 L129,108 L129,110 Z M72,117 L74.48,119.428571 L74.48,134 L131.52,134 L131.52,119.428571 L134,117 L72,117 Z M88,133 L83,133 L83,125.5 C83,124 84,123 85.5,123 C87,123 88,124 88,125.5 L88,133 Z M99,133 L94,133 L94,125.5 C94,124 95,123 96.5,123 C98,123 99,124 99,125.5 L99,133 Z M112,133 L107,133 L107,125.5 C107,124 108,123 109.5,123 C111,123 112,124 112,125.5 L112,133 Z M125,133 L120,133 L120,125.5 C120,124 121,123 122.5,123 C124,123 125,124 125,125.5 L125,133 Z M92,95.2 L92,103 L114,103 L114,95.2 L103,90 L92,95.2 Z M102,100 L100,100 L100,95 L102,95 L102,100 Z M102.727273,85 L102,85 L102,80 L104,80 L104,85 L105.272727,85 L115.454545,89.6666667 L118,89.6666667 L118,92 L115.454545,92 L104,87.3333333 L92.5454545,92 L90,92 L90,89.6666667 L92.5454545,89.6666667 L102.727273,85 Z M105,95 L107,95 L107,100 L105,100 L105,95 Z M133,163 L75,163 L75,139.5 L75,137 L133,137 L133,139.5 L133,163 Z M-7,165 L214,165 L232.959512,165 L232.959512,146 L252.099605,136.384615 C258.341081,140.254472 263.359592,143.4596 267.155138,146 C270.950683,148.5404 282.222641,156.238661 300.971012,169.094784 C300.971012,184.063059 300.971012,191.846183 300.971012,192.444156 C300.971012,194.861293 271.980675,194.861293 214,192.444156 L-7,192.444156 L-7,165 Z" id="Shape" fill="url(#linearGradient-3)" fill-rule="nonzero" opacity="0.720982143" mask="url(#mask-2)"></path>
                <path d="M1163.77734,121.892118 L1163.77734,126.316884 L1159.77919,126.316884 L1159.77919,129.517851 L1155.91908,129.517851 L1155.91908,161.903728 L1155.10232,138.669154 L1152.64245,138.669154 L1152.64245,136.896846 L1148.08479,134.770375 L1143.52682,136.896846 L1143.52682,138.669154 L1141.06717,138.669154 L1141.06717,153.453185 L1140.06733,153.453185 L1140.06733,118.88233 L1137.81386,118.88233 L1137.81386,117.035063 L1137.42345,116.176425 L1134.6604,113.646171 L1134.79949,112.952099 L1134.79949,112.257894 L1134.79949,111.564086 L1134.16907,109.97152 L1133.88877,111.564482 L1133.40735,112.25829 L1133.40735,112.951923 L1133.40735,113.645995 L1130.63299,116.176249 L1130.63299,117.034887 L1130.24236,118.882154 L1127.98916,118.882154 L1127.98916,144.902872 L1126.16529,144.902872 L1126.16529,139.685672 L1125.15757,139.685672 L1125.15757,112.917215 L1126.16525,112.917215 L1126.16525,111.28519 L1111.88811,111.28519 L1111.88811,112.917215 L1112.71319,161.903728 L1111.0201,161.903728 L1111.0201,103.031017 L1109.97666,102.046216 L1109.97666,90.4727862 L1108.64843,89.4879848 L1108.64843,80.5745355 L1107.32047,79.3102224 L1107.32047,68.4724797 L1106.18205,67.0274562 L1105.89775,58.4391801 L1105.79947,56.8271709 L1104.74081,56.1629237 L1104.47014,54.4595916 L1103.79006,52.971326 L1103.70872,52.3564795 L1103.02961,50.2743065 L1102.36633,48.2787056 L1101.89084,47.5908359 C1102.32887,47.4125666 1102.61202,46.9830928 1102.60324,46.5102553 C1102.59447,46.0374177 1102.29559,45.6187418 1101.85125,45.4568428 L1101.53817,36.2394674 C1101.85444,36.1779228 1102.07222,35.8861935 1102.0413,35.5654769 C1102.01039,35.2447604 1101.7409,35 1101.4187,35 C1101.09649,35 1100.82701,35.2447604 1100.79609,35.5654769 C1100.76518,35.8861935 1100.98295,36.1779228 1101.29922,36.2394674 L1100.98641,45.4568428 C1100.54203,45.6186567 1100.24307,46.0372796 1100.23421,46.5101193 C1100.22535,46.982959 1100.50842,47.4124879 1100.94642,47.5908359 L1100.83416,48.1823238 L1100.12337,50.1526745 L1099.53905,52.2523114 L1099.04716,52.971326 L1098.88365,54.1352542 L1098.09619,56.1629237 L1097.04364,56.8593715 L1096.93894,58.4391801 L1096.65433,67.0274562 L1095.51592,68.4724797 L1095.51592,79.3102224 L1094.18795,80.5745355 L1094.18795,89.4879848 L1092.85972,90.4727862 L1092.85972,102.046216 L1091.81637,103.031017 L1091.81637,117.580934 L1085.45671,117.580934 L1085.45671,117.002599 L1083.21828,117.002599 L1083.21828,117.580934 L1077.04932,117.580934 L1077.04932,103.031017 L1076.00592,102.046216 L1076.00592,90.4727862 L1074.67795,89.4879848 L1074.67795,80.5745355 L1073.34972,79.3102224 L1073.34972,68.4724797 L1072.21131,67.0274562 L1071.927,58.4391801 L1071.82899,56.8271709 L1070.77007,56.1629237 L1070.4994,54.4595916 L1069.81932,52.971326 L1069.73798,52.3564795 L1069.05882,50.2743065 L1068.39554,48.2787056 L1067.92032,47.5908359 C1068.35832,47.4124792 1068.64138,46.9829441 1068.63251,46.5101042 C1068.62364,46.0372643 1068.32467,45.6186473 1067.88029,45.4568428 L1067.56725,36.2394674 C1067.88352,36.1779228 1068.1013,35.8861935 1068.07038,35.5654769 C1068.03947,35.2447604 1067.76998,35 1067.44778,35 C1067.12557,35 1066.85609,35.2447604 1066.82517,35.5654769 C1066.79426,35.8861935 1067.01203,36.1779228 1067.3283,36.2394674 L1067.01549,45.4568428 C1066.57111,45.6186567 1066.27215,46.0372796 1066.26329,46.5101193 C1066.25443,46.982959 1066.5375,47.4124879 1066.9755,47.5908359 L1066.86324,48.1823238 L1066.15245,50.1526745 L1065.56809,52.2523114 L1065.07619,52.971326 L1064.91268,54.1352542 L1064.12522,56.1629237 L1063.07325,56.8593715 L1062.96855,58.4391801 L1062.68394,67.0274562 L1061.54579,68.4724797 L1061.54579,79.3102224 L1060.21756,80.5745355 L1060.21756,89.4879848 L1058.88959,90.4727862 L1058.88959,102.046216 L1057.84597,103.031017 L1057.84597,146.93472 L1056.21971,146.93472 L1056.21971,135.158894 L1048.69485,135.158894 L1048.69485,105.439947 L1046.8833,105.439947 L1046.8833,101.2606 L1037.38725,101.2606 L1037.38725,105.439947 L1035.57548,105.439947 L1035.57548,150.850963 L1034.83227,150.523415 L1034.83227,140.466448 L1033.67266,140.466448 L1033.67266,133.917895 L1032.73747,132.943299 L1028.62257,126.823515 L1025.0312,132.943299 L1023.57258,133.917895 L1023.57258,140.466448 L1022.41261,140.466448 L1022.41261,150.523415 L1021.44013,150.952184 L1021.44013,161.903728 L1021.20509,118.678261 C1021.20509,118.678261 1019.57883,114.939781 1009.37823,114.801477 C1009.37823,114.801477 1007.30842,115.355398 1007.30842,116.878283 L1007.30842,161.903728 L1006.30545,161.903728 L1006.30545,134.978447 L1002.63969,131.400794 L1000.49364,131.400794 L1000.49364,130.082769 L997.985382,130.082769 L997.985382,128.764745 L994.247166,128.764745 L994.247166,148.178666 L992.476705,148.178666 L992.476705,156.647202 C992.325556,155.253954 992.198821,153.81135 992.109697,152.341912 C991.929305,143.011381 992.289599,133.678235 993.188769,124.389379 L977.498283,124.389379 C978.397318,133.678244 978.757612,143.011383 978.577355,152.341912 C978.369019,155.773519 977.957097,159.06119 977.504485,161.903728 L975.930308,161.903728 L975.930308,118.099926 C974.772846,113.509758 963.631441,112.029015 963.631441,112.029015 L963.631441,142.143739 L961.048795,144.664359 L961.048795,161.903728 L959.711503,161.903728 L957.787738,100.326211 L958.311041,99.1563885 L958.598031,97.9798791 C958.598031,97.3709272 959.360552,97.0323371 959.360552,97.0323371 L959.555779,96.0475357 C959.585513,95.7392959 959.753366,95.4611484 960.012218,95.2911737 L960.190465,94.1149283 C960.21026,93.7727703 960.405276,93.4650691 960.706246,93.3011155 L960.895403,92.1825849 C960.905756,91.8813811 961.043216,91.5986595 961.273716,91.4044919 L961.531452,90.8382102 L961.531452,90.2499775 L960.315484,90.2499775 L960.315484,88.7965959 L958.369152,88.7965959 L958.369152,87.8171612 L958.754195,87.0132902 L957.329539,87.0132902 L957.329539,86.1111457 L958.082954,85.5236609 L957.329539,84.8433134 L958.082954,84.2558725 L956.903717,84.2558725 L956.903717,83.5446002 L956.651347,79.2148963 L956.651347,72.5662219 L956.651347,68.2059011 L956.379622,65.6906478 L955.976894,68.2059011 L955.705169,72.2568851 L955.705037,78.9058674 L955.705037,83.5446002 L955.452931,84.2558725 L954.275322,84.2558725 L954.275322,84.8433134 L955.027109,85.5236609 L954.275322,86.1111457 L955.027109,87.0132022 L953.602452,87.0132022 L953.986132,87.8170732 L953.987496,88.7965079 L952.0409,88.7965079 L952.0409,90.2498895 L950.825195,90.2498895 L950.825195,90.8381222 L951.082668,91.4044039 C951.313284,91.598509 951.450848,91.8812459 951.461245,92.1824969 L951.650402,93.3010276 C951.951372,93.4649811 952.146388,93.7726823 952.166183,94.1148403 L952.344166,95.2910857 C952.603018,95.4610604 952.770871,95.7392079 952.800605,96.0474477 L952.995832,97.0322491 C952.995832,97.0322491 953.758353,97.3709712 953.758353,97.9797911 L954.047498,99.1563005 L954.566095,100.326123 L952.645013,161.90364 L951.506599,161.90364 L951.506599,149.590873 L949.722193,149.590873 L949.722193,133.634116 L943.645123,129.821513 L940.483307,129.821513 L940.483307,137.16426 L937.758134,137.16426 L937.758134,161.903728 L936.760927,161.903728 L936.760927,148.410625 L935.892919,126.599343 L929.092083,126.599343 L929.092083,118.03227 L921.856892,118.03227 L921.856892,153.28941 L920.313331,153.28941 L920.313331,148.064556 L919.306227,148.064556 L919.306227,128.764745 L917.980108,128.764745 L917.980108,127.729135 L916.292128,127.729135 L916.292128,126.740462 L914.844861,126.740462 L914.844861,125.516664 L911.468638,125.516664 L911.468638,126.740462 L910.021723,126.740462 L910.021723,127.729047 L908.333435,127.729047 L908.333435,128.764657 L907.00736,128.764657 C906.190229,143.394534 905.194535,152.901875 904.020279,157.286677 C903.607474,158.828138 897.021868,160.367155 884.263462,161.903728 L868.589632,146.93472 L849.563616,190.991331 L907.00736,197 L1170.94664,197 L1170.94664,120.668319 L1163.77734,121.892118 Z M1077.04932,121.692888 L1083.21819,121.692888 L1083.21819,122.335404 L1083.27098,122.363601 L1077.04923,133.094712 L1077.04932,121.692888 Z M1091.81641,158.603168 L1090.27237,158.603168 L1090.27237,157.807875 L1089.95071,157.807875 L1089.95071,135.084243 L1086.19072,135.084243 L1086.19072,137.335557 L1082.66594,137.335557 L1082.66594,147.472893 L1081.32826,147.472893 L1081.32826,150.923591 L1077.04932,150.923591 L1077.04932,134.660532 L1083.96378,122.734876 L1084.33769,122.935162 L1084.71521,122.732808 L1091.81659,134.893107 L1091.81641,158.603168 Z M1091.81641,133.336085 L1085.40774,122.36171 L1085.45662,122.335316 L1085.45662,121.6928 L1091.81641,121.6928 L1091.81641,133.336085 Z M1114.14721,115.857366 L1113.42068,115.857366 L1113.42068,112.917127 L1114.14721,112.917127 L1114.14721,115.857366 Z M1115.62206,115.857366 L1114.78221,115.857366 L1114.78221,112.917127 L1115.62206,112.917127 L1115.62206,115.857366 Z M1123.0644,115.857366 L1122.249,115.857366 L1122.249,112.917127 L1123.0644,112.917127 L1123.0644,115.857366 Z M1124.45008,115.857366 L1123.69935,115.857366 L1123.69935,112.917127 L1124.45008,112.917127 L1124.45008,115.857366 Z M1133.88868,113.646083 L1133.68756,113.646083 L1133.68756,113.225628 L1133.88868,113.225628 L1133.88868,113.646083 Z M1133.88868,112.952011 L1133.68756,112.952011 L1133.68756,112.531731 L1133.88868,112.531731 L1133.88868,112.952011 Z M1133.88868,112.257982 L1133.68756,112.257982 L1133.68756,111.837791 L1133.88868,111.837791 L1133.88868,112.257982 Z M1134.36874,113.646083 L1134.16899,113.646083 L1134.16899,113.225628 L1134.36874,113.225628 L1134.36874,113.646083 Z M1134.36874,112.952011 L1134.16899,112.952011 L1134.16899,112.531731 L1134.36874,112.531731 L1134.36874,112.952011 Z M1134.36874,112.257982 L1134.16899,112.257982 L1134.16899,111.837791 L1134.36874,111.837791 L1134.36874,112.257982 Z" id="Shape" fill="url(#linearGradient-3)" fill-rule="nonzero" opacity="0.901841518" mask="url(#mask-2)"></path>
                <path d="M786.961138,161.01687 C786.961138,160.428945 787.029994,159.819833 786.939951,159.231908 C786.855205,158.66517 786.457959,158.289109 785.801177,158.077245 C785.769398,158.506271 785.779991,158.808178 785.716431,159.088899 C785.594609,159.639748 784.503505,160.1853 784.169818,159.867503 C783.53952,159.274281 784.010919,158.500974 783.857317,157.828303 C783.629562,156.779572 782.141211,158.087838 782.008796,156.843131 C781.982313,156.636563 782.003499,156.429995 782.003499,156.223427 C782.003499,155.836773 782.003499,155.45012 782.003499,154.841008 C780.239724,154.841008 778.640144,154.841008 776.950521,154.841008 C776.950521,151.45117 776.950521,148.28379 776.950521,145.105816 C776.357299,145.03696 775.87001,144.98929 775.181449,144.909841 C775.266195,143.442677 775.239712,141.954326 774.27043,140.688433 C773.264072,140.688433 772.225934,140.619577 771.208982,140.709619 C770.229107,140.789069 769.281012,140.593094 768.232281,140.97445 C767.628466,141.202205 766.468505,140.61428 765.525706,140.699026 C764.837146,140.767882 764.116805,140.418305 763.460024,140.953264 C762.660234,141.599452 762.368919,140.619577 762.247097,140.307076 C762.040529,139.761524 762.188834,139.094149 762.188834,138.469148 C762.188834,134.962784 762.210021,131.45642 762.183538,127.950056 C762.167648,126.180984 761.187773,125.238185 759.376328,125.222295 C757.210009,125.201109 755.038394,125.296448 752.877372,125.190515 C751.521437,125.121659 750.345586,125.444753 749.111473,126.180984 C749.111473,127.219122 749.111473,128.326116 749.111473,129.650272 C747.623122,129.650272 746.230111,129.650272 744.858285,129.650272 C744.858285,137.605799 744.858285,145.344164 744.858285,153.077233 C744.858285,153.696938 744.911252,154.321939 744.842396,154.936347 C744.768243,155.598425 744.28625,156.059231 743.682435,156.138681 C742.993874,156.228723 742.591331,155.614315 742.411246,155.063466 C742.26294,154.597364 742.379466,154.046515 742.379466,153.527446 C742.379466,151.461763 742.390059,149.401377 742.363576,147.340991 C741.553193,146.774252 740.997048,147.134422 740.472682,146.525311 C740.472682,143.267888 740.472682,139.893939 740.472682,136.302829 C738.571195,136.302829 736.765046,136.302829 734.863559,136.302829 C734.863559,131.673581 734.863559,127.266791 734.863559,122.828222 C732.480079,122.801739 731.118847,122.849408 731.224779,120.826098 C731.256559,120.232877 730.76927,120.27525 730.36143,120.27525 C729.868844,120.27525 729.376258,120.27525 728.756553,120.27525 C728.756553,116.710623 728.76185,113.326081 728.74596,109.936243 C728.74596,109.45425 728.968418,108.601494 728.444052,108.575011 C726.934515,108.490265 727.596593,107.441533 727.53833,106.790049 C727.411211,105.317588 727.951466,103.665042 726.29892,102.658683 C726.717353,101.572876 725.462054,100.900205 725.636842,99.8249902 C725.89108,98.3260461 725.09129,97.176679 724.122008,96.1226511 C723.49171,96.7105762 724.143195,97.7804939 723.242769,98.2677832 C721.976876,98.9510475 723.576456,99.7402443 723.205693,100.518848 C722.930268,101.090883 722.490649,101.382197 722.008656,101.742368 C721.049967,102.457412 719.826448,102.28792 718.830682,103.145973 C717.448264,104.358899 715.875167,105.492376 714.307367,106.387506 C712.379396,107.489203 712.029819,108.887511 712.035116,110.741329 C712.040412,118.892831 712.040412,127.039037 712.024523,135.185242 C712.024523,135.767871 712.268167,136.408762 711.786175,136.938424 C711.288292,136.980797 710.801003,137.02317 710.176001,137.076136 C710.176001,139.708558 710.181298,142.266826 710.176001,144.830392 C710.176001,145.232935 710.165408,145.640775 710.075365,146.038022 C708.984261,145.471283 708.947185,144.862171 708.941888,144.258356 C708.925998,142.918311 708.968371,141.572969 708.931295,140.232923 C708.894219,138.940547 709.100787,137.621688 708.809473,136.493508 C705.430228,136.493508 702.268144,136.493508 699.190806,136.493508 C699.190806,138.336732 698.862416,140.148177 699.312629,141.747757 C699.572163,142.679963 699.047797,142.960684 698.79356,143.034837 C698.131482,143.236108 697.384658,143.146066 696.680207,143.177845 C695.414314,143.241405 694.116642,143.008354 692.421723,143.458566 C693.841218,143.951152 693.443971,144.788019 693.449267,145.46069 C693.475751,149.994599 693.481047,154.539101 693.443971,159.07301 C693.438674,159.750977 693.872997,160.67259 693.142063,161.080429 C691.960917,161.742507 692.596511,159.851613 691.56367,159.830427 C690.419599,159.803943 691.012821,158.696949 691.012821,158.119618 C690.970448,146.562387 690.981041,135.01575 690.981041,123.463816 C690.981041,122.452162 690.981041,121.440507 690.981041,120.216987 C687.999043,120.216987 685.160053,120.216987 682.315767,120.216987 C682.315767,117.939439 682.162165,115.863163 682.35814,113.823964 C682.570005,111.662942 681.441824,109.703191 681.690765,107.573949 C681.722545,107.287931 681.807291,106.784752 681.463011,106.768862 C679.821058,106.69471 680.864492,105.280511 680.414279,104.782629 C679.556227,103.83983 680.101779,102.669277 679.56682,101.699995 C679.106014,100.879018 678.698174,99.9203294 678.666394,99.0040137 C678.629318,98.0559183 677.95135,97.1872722 678.364487,96.2126937 C677.411095,95.3228611 678.481012,94.0092987 677.628256,92.9499742 C676.997958,94.1470109 677.834824,95.577099 676.876136,96.5834573 C677.040331,98.8610049 676.839059,99.6872781 675.50431,101.80063 C675.50431,100.036855 675.461937,98.5061312 675.5202,96.980704 C675.546683,96.2126937 674.932275,95.9849389 674.561512,95.534726 C673.565747,97.1448992 672.077396,95.2857848 670.949215,96.0379051 C669.688619,96.1173545 669.063617,96.180914 668.40154,95.6300652 C667.723572,95.0686232 666.966155,96.6734998 666.282891,96.1014646 C664.73098,94.8090887 662.914239,97.2243486 661.489447,95.6141753 C660.901522,96.4881181 659.704485,96.3927789 659.291349,96.0643883 C658.343253,95.3122679 657.728845,96.4828214 656.955538,96.1491342 C655.006381,95.0686232 654.609135,96.2338802 654.561465,96.4351518 C654.38138,97.1078229 654.466126,97.8546467 654.466126,98.5749873 C654.460829,104.761442 654.466126,110.953194 654.466126,117.139649 C654.466126,123.0189 654.450236,128.898151 654.482016,134.777402 C654.487312,135.646048 654.487312,136.562364 653.602776,136.858975 C652.79769,137.129103 651.807221,137.314484 651.097474,136.419355 C650.912092,136.17571 650.668447,135.974439 650.483066,135.789057 C648.284967,137.351561 645.949157,137.293298 643.311439,136.514694 C643.311439,140.953264 643.311439,145.439503 643.311439,149.915149 C642.40042,149.915149 641.706562,149.915149 640.795543,149.915149 C640.795543,143.098396 640.795543,136.345202 640.795543,129.491373 C639.884524,129.491373 639.190667,129.491373 638.374987,129.491373 C638.374987,127.44158 638.380283,125.49772 638.36969,123.553859 C638.36969,123.151316 638.41736,122.452162 638.263758,122.399195 C636.245744,121.710634 637.199136,120.047495 637.17795,118.861052 C637.077314,113.002987 637.13028,107.139626 637.13028,101.059103 C635.62604,101.059103 634.227731,101.059103 632.744677,101.059103 C632.744677,99.1152428 632.744677,97.3938405 632.744677,95.5665057 C631.134504,95.3334544 629.317762,96.1173545 628.205471,94.3694691 C626.722417,94.1364177 626.558222,94.8037921 626.055043,94.9362077 C625.488304,95.0898097 625.281736,93.739171 624.598472,94.7031563 C622.866476,95.1851489 621.907787,95.0845131 621.420498,94.3429859 C620.980878,94.7296394 620.546555,95.1215895 620.091046,95.4870564 C619.111171,94.6978597 618.295491,94.7031563 617.914134,94.9468009 C616.489342,95.85782 614.969212,95.4552767 613.496751,95.4976497 C611.266873,95.5612091 609.031698,95.5135395 606.706481,95.5135395 C606.706481,108.273103 606.706481,120.720166 606.706481,133.283755 C605.700122,133.283755 604.804993,133.283755 603.968127,133.283755 C603.533804,133.8399 603.724482,134.374859 603.724482,134.862148 C603.708592,142.701149 603.740372,150.540151 603.676813,158.379152 C603.671516,159.274281 604.444823,160.646106 603.14715,161.022167 C602.42681,161.234032 602.087826,159.724494 601.13973,159.422587 C600.705407,159.284874 600.43528,158.681059 600.022143,158.379152 C599.460701,157.960719 599.365362,157.44165 599.365362,156.779572 C599.386548,149.766844 599.402438,142.754116 599.349472,135.736091 C599.344175,134.883335 599.677863,134.072951 600.265788,134.004095 C601.409858,133.88757 601.23507,133.230788 601.23507,132.536931 C601.240366,131.541166 601.240366,130.550697 601.240366,129.454297 C598.80392,129.454297 596.664084,129.454297 594.561325,129.454297 C594.185265,127.992429 594.736114,126.541154 594.243528,125.232888 C592.919372,125.100473 592.961745,125.079286 592.564499,124.385429 C591.770005,123.00301 591.219157,121.562329 591.340979,119.941563 C591.468098,118.161897 590.747757,116.191554 591.987167,114.655533 C593.517891,112.754046 591.420428,111.03794 591.971277,109.263572 C592.199032,108.543231 592.474456,107.738144 592.977635,107.229668 C593.98929,106.20742 591.98187,105.910809 592.590982,105.084536 C593.570857,103.966949 593.475518,102.685166 593.046491,102.007199 C592.463863,101.090883 592.522126,100.238127 592.612168,99.4012604 C592.82933,97.2561283 592.177845,95.2487084 591.764709,93.220102 C591.65348,92.6957363 591.277419,92.6798465 592.04543,92.3620491 C594.74141,91.2338685 594.593105,91.1120462 595.387598,89.3694574 C595.721286,88.6385235 595.737175,87.9552592 595.631243,87.3249611 C595.377005,85.9319494 596.261541,85.2274986 597.093111,84.5124546 C598.34841,83.426647 599.312396,81.8959231 599.381252,80.5505809 C599.428921,79.5654092 599.19587,78.5696441 599.958584,77.6798115 C600.170449,77.4361669 600.249898,76.4880715 599.661973,76.3556559 C598.290148,76.0272653 597.606883,74.4806516 596.007303,74.4594651 C595.133361,75.3122213 594.201155,76.2126471 593.332509,77.0601067 C590.647121,75.5399761 590.74246,75.5187896 590.059196,72.8122155 C589.714916,71.429797 589.391822,69.9414461 588.067666,68.988054 C587.405588,68.511358 586.849443,67.8757633 586.309187,67.2454652 C585.519991,66.3238529 584.593082,64.9838074 584.84732,64.078085 C585.435245,62.0229954 584.868506,60.0208721 585.165117,58.0293421 C585.265753,57.3672642 584.211725,56.7899324 585.059185,56.1013715 C583.893928,56.1808208 583.6238,54.6606901 582.564475,54.6659868 C580.980785,54.6712834 580.8007,53.6755184 580.774217,52.4572952 C579.863198,53.0187372 580.588835,53.9562394 579.900274,54.6448003 C578.35366,54.6289104 578.337771,53.8503069 577.808108,54.2157739 C577.590947,55.7412011 577.590947,55.7412011 575.911917,56.1490411 C576.06552,56.8005256 577.786922,56.514508 577.024208,57.3513744 C576.197935,58.2676901 577.575057,58.8397253 577.013615,59.3323112 C576.229715,60.0208721 576.595182,60.836552 576.473359,61.6045623 C576.420393,61.9276562 576.224418,62.1024448 575.843061,62.0918515 C575.461705,62.0812583 575.23395,61.8958765 575.260433,61.5674859 C575.371662,60.079135 574.921449,58.7920557 573.777379,57.8545535 C572.871656,57.1130264 572.638605,56.2496769 572.765724,55.1638693 C572.961699,53.4477636 572.352587,51.8217005 571.748772,50.3280529 C571.17144,48.8979649 570.869533,47.5473261 570.901313,46.0324921 C570.933092,44.2634202 571.139661,42.4996449 569.910844,40.8629885 C569.17991,39.88841 569.58775,38.3894658 570.625888,38.0292955 C571.616357,37.685015 571.716992,37.5843792 571.261483,36.646877 C571.017838,36.1489945 571.499831,35.3386113 570.694744,34.9148815 C570.191565,34.6500503 569.476521,35.2167889 569.063385,34.4064057 C570.715931,33.574836 570.41932,32.1076715 570.128006,30.7040666 C570.090929,30.5345746 569.216987,29.6129623 569.190504,30.1849976 C569.111054,31.8322472 567.553847,30.6246172 567.20427,31.4614836 C567.20427,31.8746201 567.20427,32.2877567 567.20427,32.6955966 C567.20427,33.0080974 567.177787,33.3205981 567.209567,33.6225056 C567.283719,34.3375496 566.791134,34.8354321 566.558082,35.2750518 C566.325031,35.7146715 564.926722,34.8831017 565.694733,36.1172148 L566.605752,38.2676435 C567.018888,38.6013307 567.225457,38.9879842 567.22016,39.5706126 C567.20427,41.4615069 567.304906,43.3206214 567.702153,45.2168122 C567.977577,46.5303746 568.660841,47.8068606 568.475459,49.2740251 C568.295374,50.6988165 568.42779,52.1553877 568.44368,53.6013656 C568.448976,54.2899266 568.644951,54.8884449 568.930969,55.5664126 C569.736056,57.4467136 570.085633,59.4223538 568.470163,61.270875 C567.484991,62.393759 567.495584,64.0568985 567.919314,65.2857149 C568.343044,66.5092347 568.713807,67.9287295 569.524191,68.9191979 C570.207455,69.7507677 570.38754,70.5187779 570.276311,71.4139071 C570.01148,73.5749291 570.631185,75.5134929 571.664026,77.3408277 C571.907671,77.7751508 572.320807,78.0293886 572.013603,78.6385002 C571.346229,79.946766 571.293263,81.5092696 570.784787,82.7698658 C569.969107,84.7825823 570.218048,86.3662725 571.208517,88.0664883 C571.346229,88.3101329 571.584577,88.7550492 571.510424,88.8344985 C570.334574,90.0262386 571.404492,91.6470051 570.715931,92.8440418 C570.361057,93.4637466 570.509363,93.7550608 570.631185,94.3800623 C571.21911,97.3567641 572.569749,100.211644 572.161909,103.363134 C572.055976,104.162924 572.41085,105.248732 571.997713,105.746614 C571.17144,106.742379 572.733944,107.224372 572.188392,108.135391 C571.526314,109.247682 571.399195,110.561244 571.526314,111.880103 C571.695806,113.654472 571.160847,115.481806 572.119536,117.208505 C572.543266,117.965922 571.59517,118.866348 571.854705,119.586689 C572.331401,120.910844 572.183095,121.991355 571.573984,123.251952 C570.85894,124.750896 569.873768,125.248778 568.268891,125.275261 C567.527364,125.285855 567.410838,125.947932 567.723339,126.927808 C568.300671,128.749846 567.506178,129.512559 565.578207,129.539042 C564.063373,129.560229 562.548539,129.544339 561.001925,129.544339 C561.001925,130.836715 560.991332,131.86426 561.007222,132.886508 C561.012518,133.172526 561.081374,133.691595 561.18201,133.707484 C563.046421,134.004095 562.188369,135.444777 562.198962,136.345202 C562.273115,142.531657 562.236038,148.723409 562.236038,154.909864 C562.236038,156.043341 562.400233,157.213895 562.188369,158.304999 C561.99769,159.263688 560.662941,159.136569 560.090906,159.851613 C559.841965,161.276405 558.989209,161.170472 558.194715,161.101616 C557.506154,161.038057 556.769924,161.350557 556.017803,160.805005 C556.017803,145.121706 556.017803,129.369551 556.017803,113.4532 C554.179875,113.4532 552.442583,113.347267 550.721181,113.48498 C548.983889,113.617395 547.506131,112.287943 545.535787,112.992394 C545.535787,108.500858 545.504008,104.480721 545.551677,100.455288 C545.567567,99.1311327 545.440448,97.8970196 544.656548,96.8006188 C544.148072,96.9489242 544.43409,97.5050696 544.201039,97.738121 C543.798495,98.1406643 543.443622,98.9351577 542.744467,98.537911 C542.283661,98.2783765 541.663956,97.8758332 541.817558,97.091933 C541.854635,96.8906614 541.817558,96.6787965 541.822855,96.4722282 C541.897008,94.4065454 541.912898,94.3959522 541.107811,93.262475 C540.880056,92.939381 540.498699,92.7222195 540.583445,92.2402268 C540.911836,90.4075954 539.990224,88.7073796 539.99552,86.9277144 C539.99552,85.7359744 539.661833,84.7508026 538.47539,83.2306719 C539.110984,85.1851256 538.258228,86.2762299 537.998694,87.5156395 C537.622633,89.3058979 537.532591,91.05908 537.479625,92.854635 C537.474328,93.1247628 537.262463,93.6226453 537.183014,93.6173487 C535.890638,93.500823 536.309071,94.454215 536.261401,95.0739199 C536.219028,95.5876922 536.203139,96.1120579 536.261401,96.6205336 C536.37263,97.5474426 536.038943,98.4054954 535.202077,98.537911 C534.391694,98.6703265 533.787879,98.0029521 533.729616,97.0336702 C531.701009,102.123724 533.067538,107.552762 532.368384,112.812309 C531.526221,112.928834 530.795287,112.611037 530.032573,113.119513 C530.032573,115.201085 530.032573,117.335624 530.032573,119.644952 C528.401214,119.644952 526.875786,119.644952 525.355656,119.644952 C524.577052,117.923549 523.507134,118.426728 522.829167,118.426728 C520.01666,118.432025 517.230637,118.463805 514.407537,118.924611 C511.473208,119.401307 508.379981,118.765712 505.307939,119.878003 C505.307939,120.492411 505.307939,121.196862 505.307939,121.901313 C505.307939,128.500904 505.307939,135.100496 505.307939,141.705384 C505.307939,142.319793 505.371499,142.944794 505.29205,143.559202 C505.180821,144.427848 504.735904,145.00518 503.740139,145.026367 C503.258147,145.03696 502.712594,144.803909 502.209415,145.307088 C502.209415,147.298618 502.209415,149.353707 502.209415,151.4035 C502.209415,154.390795 502.209415,157.383387 502.214712,160.375979 C502.214712,160.863268 502.04522,161.138692 501.520854,161.101616 C501.165981,161.080429 500.932929,160.900344 500.980599,160.545471 C501.404329,157.383387 500.265555,154.359016 500.313224,151.202229 C500.44564,142.335682 500.360894,133.458543 500.360894,124.591997 C500.360894,123.585639 500.360894,122.579281 500.360894,121.557032 C498.009194,121.557032 495.869358,121.557032 493.517658,121.557032 C493.517658,125.063396 493.517658,128.516794 493.517658,131.933116 C492.40007,131.933116 491.499645,131.933116 490.387354,131.933116 C490.387354,130.67252 490.387354,129.486076 490.387354,128.20959 C488.030357,128.20959 485.890521,128.20959 483.655347,128.20959 C483.655347,122.134364 483.655347,116.165071 483.65005,110.195777 C480.355551,109.856793 477.389442,109.856793 474.327994,109.856793 C474.327994,121.392837 474.327994,132.812355 474.327994,144.274246 C473.443459,144.385475 472.071633,144.64501 472.039854,144.115348 C471.970997,142.844158 470.82163,143.283778 470.387307,142.65348 C469.783492,141.77424 470.090696,140.884408 470.05362,140.005169 C469.979467,138.357919 470.032434,136.705373 470.032434,135.052827 C470.032434,132.404515 470.032434,129.756204 470.032434,127.007257 C467.633064,127.007257 465.498525,127.007257 463.141528,127.007257 C463.141528,123.86636 463.141528,120.826098 463.141528,117.89177 C459.137281,117.89177 455.350196,117.89177 451.462475,117.89177 C451.462475,123.961699 451.441289,129.930993 451.478365,135.900286 C451.488958,137.272111 451.097008,138.718089 452.060993,139.983982 C452.246375,140.232923 451.986841,140.5825 451.67434,140.667246 C450.387261,139.40665 450.191286,138.389699 450.196582,137.261518 C450.238955,127.150266 450.223065,117.04431 450.223065,106.933058 C450.223065,106.032632 450.223065,105.132206 450.223065,104.237077 C445.795089,104.237077 441.594867,104.237077 437.177484,104.237077 C437.177484,110.020989 437.177484,115.741341 437.177484,121.562329 C434.820487,121.562329 432.680652,121.562329 430.334248,121.562329 C430.334248,129.862136 430.334248,138.061308 430.334248,146.557091 C429.772806,145.783784 429.094838,145.561326 429.168991,144.782722 C429.26433,143.802847 428.930643,143.38971 427.961361,144.057085 C427.150978,144.61323 426.939113,143.718101 426.753731,143.357931 C426.541866,142.950091 426.706062,142.356869 426.706062,141.8378 C426.706062,139.809194 426.706062,137.77529 426.706062,135.651345 C424.915803,135.651345 423.395672,135.651345 421.75372,135.651345 C421.75372,134.221257 421.759016,132.897101 421.75372,131.572946 C421.743126,130.26468 421.716643,128.967007 421.695457,127.679928 C420.101173,127.679928 418.761128,127.669335 417.421082,127.679928 C413.310903,127.732894 413.988871,127.791157 413.528065,123.998775 C412.436961,123.998775 411.329966,123.998775 410.302422,123.998775 C409.364919,122.61106 409.597971,120.65131 408.019577,119.8833 C406.54182,119.162959 404.905163,118.808085 403.183761,118.998764 C403.183761,117.007234 403.199651,115.259348 403.173168,113.511463 C403.167871,113.055953 403.459185,112.340909 402.749438,112.24557 C402.07147,112.155527 401.901978,111.911883 401.933758,111.292178 C401.976131,110.391752 401.944351,109.48603 401.944351,108.67035 C399.6721,108.368442 399.6721,108.368442 399.349006,106.445768 C397.511078,106.382209 397.987774,104.268857 396.621246,103.951059 C395.641371,103.728601 394.672089,102.605717 393.856409,101.81652 C392.828864,100.820755 392.060854,101.244485 391.308733,101.721181 C390.064027,102.510378 389.009999,103.606779 387.749403,104.369492 C387.034359,104.803815 387.516352,105.889623 386.340501,106.101488 C385.238804,106.297463 386.314018,107.754034 385.583084,108.453188 C384.926303,108.484968 384.232446,108.522044 383.326723,108.564417 C383.326723,109.809124 383.326723,111.000864 383.326723,112.155527 C382.616976,112.203197 382.129687,112.234977 381.430532,112.282646 C381.430532,122.023135 381.430532,131.657691 381.430532,141.191612 C380.307648,141.191612 379.407223,141.191612 378.411458,141.191612 C378.411458,131.106843 378.411458,121.128006 378.411458,111.096203 C373.411446,111.096203 368.517367,111.096203 363.570321,111.096203 C363.570321,115.238162 363.570321,119.253002 363.570321,123.267841 C363.570321,126.467001 363.586211,129.666161 363.565025,132.865321 C363.554431,134.856851 363.30549,135.074013 361.250401,135.105793 C360.233449,135.126979 359.216498,135.111089 358.273699,135.111089 C357.669884,136.032702 357.797003,137.319781 356.504627,137.589909 C356.56289,139.041183 354.55547,139.554956 354.88386,141.181019 C355.021573,141.874876 354.905047,142.6217 354.905047,143.342041 C354.905047,149.200105 354.905047,155.068763 354.905047,161.143989 C352.982373,161.143989 351.170928,161.143989 349.417746,161.143989 C349.417746,162.198006 339.610025,155.547214 319.994584,141.191612 C317.115628,171.903353 315.676149,188.095388 315.676149,189.767716 C315.676149,196.997765 349.417746,187.826805 349.417746,195 C495.911731,195 642.326267,195 788.645464,195 C788.645464,185.954814 833.723205,195.54471 833.723205,186.608651 C833.723205,185.298873 818.219285,182.359609 805.607357,175.863531 C796.136396,170.985283 788.645464,162.175189 788.645464,161.191659 C788.131691,161.149286 787.639105,161.096319 786.961138,161.01687 Z" id="Shape" fill="url(#linearGradient-3)" fill-rule="nonzero" mask="url(#mask-2)"></path>
                <rect id="Rectangle-9" fill="#CD4874" mask="url(#mask-2)" transform="translate(330.727100, 94.041013) rotate(28.000000) translate(-330.727100, -94.041013) " x="298.2271" y="-35.9589871" width="65" height="260"></rect>
                <rect id="Rectangle-9-Copy" fill="#CD4874" mask="url(#mask-2)" transform="translate(869.727100, 94.041013) rotate(28.000000) translate(-869.727100, -94.041013) " x="837.2271" y="-35.9589871" width="65" height="260"></rect>
            </g>
        </g>
    </g>
</svg>