<?xml version="1.0" encoding="UTF-8"?>
<svg width="42px" height="42px" viewBox="0 0 42 42" version="1.1" xmlns="http://www.w3.org/2000/svg" xmlns:xlink="http://www.w3.org/1999/xlink">
    <!-- Generator: sketchtool 50.2 (55047) - http://www.bohemiancoding.com/sketch -->
    <title>F647E104-B92B-4558-9958-935AB65E80E4</title>
    <desc>Created with sketchtool.</desc>
    <defs></defs>
    <g id="Page-1" stroke="none" stroke-width="1" fill="none" fill-rule="evenodd" opacity="0.654854911">
        <g id="Homepage-" transform="translate(-1076.000000, -3767.000000)" fill="#FFFFFF" fill-rule="nonzero">
            <g id="Group-18" transform="translate(0.000000, 3663.000000)">
                <g id="Group-17">
                    <g id="Group-25" transform="translate(133.000000, 60.000000)">
                        <g id="Group-21" transform="translate(943.000000, 44.000000)">
                            <g id="facebook-logo-in-circular-button-outlined-social-symbol">
                                <path d="M42,21 C42,9.40223529 32.5976961,0 21,0 C9.40223529,0 0,9.40223529 0,21 C0,32.5976961 9.40223529,42 21,42 C32.5976961,42 42,32.5976961 42,21 Z M1.90907843,21 C1.90907843,10.4560784 10.4560784,1.90907843 21,1.90907843 C31.5439216,1.90907843 40.0909216,10.4560784 40.0909216,21 C40.0909216,31.5439216 31.5439216,40.0909216 21,40.0909216 C10.4560784,40.0909216 1.90907843,31.5439216 1.90907843,21 Z" id="Shape"></path>
                                <path d="M21.2740518,33 L21.2740518,20.9839098 L25.1674592,20.9839098 L25.7826121,17.001905 L21.2740518,17.001905 L21.2740518,15.0052217 C21.2740518,13.9661952 21.6085512,12.974453 23.0730133,12.974453 L26,12.974453 L26,9 L21.8445781,9 C18.3507394,9 17.397346,11.3429801 17.397346,14.5907541 L17.397346,17.000068 L15,17.000068 L15,20.9839098 L17.397346,20.9839098 L17.397346,33 L21.2740518,33 Z" id="Shape"></path>
                            </g>
                        </g>
                    </g>
                </g>
            </g>
        </g>
    </g>
</svg>