<?xml version="1.0" encoding="UTF-8"?>
<svg width="141px" height="23px" viewBox="0 0 141 23" version="1.1" xmlns="http://www.w3.org/2000/svg" xmlns:xlink="http://www.w3.org/1999/xlink">
    <!-- Generator: Sketch 50.2 (55047) - http://www.bohemiancoding.com/sketch -->
    <title>Fanship</title>
    <desc>Created with Sketch.</desc>
    <defs></defs>
    <g id="Desktop" stroke="none" stroke-width="1" fill="none" fill-rule="evenodd">
        <g id="Homepage-" transform="translate(-447.000000, -2891.000000)" fill="#AEBDD0">
            <g id="Group-16" transform="translate(336.000000, 2720.000000)">
                <g id="Group-20" transform="translate(0.000000, 147.000000)">
                    <g id="Rectangle-6">
                        <g id="Group-33" transform="translate(56.000000, 14.000000)">
                            <path d="M59.944,13.679 L59.944,20.282 L70.422,20.282 L70.422,23.692 L59.944,23.692 L59.944,32 L55.914,32 L55.914,10.3 L71.755,10.3 L71.755,13.679 L59.944,13.679 Z M88.805,26.978 L77.955,26.978 L75.816,32 L71.662,32 L81.427,10.3 L85.395,10.3 L95.191,32 L90.975,32 L88.805,26.978 Z M87.472,23.816 L83.38,14.33 L79.319,23.816 L87.472,23.816 Z M117.232,10.3 L117.232,32 L113.915,32 L101.949,17.306 L101.949,32 L97.95,32 L97.95,10.3 L101.267,10.3 L113.233,24.994 L113.233,10.3 L117.232,10.3 Z M129.787,32.31 C128.112992,32.31 126.495841,32.0723357 124.9355,31.597 C123.375159,31.1216643 122.140338,30.4913373 121.231,29.706 L122.626,26.575 C123.514671,27.2776702 124.604827,27.8511644 125.8965,28.2955 C127.188173,28.7398356 128.484993,28.962 129.787,28.962 C131.399008,28.962 132.602829,28.7036693 133.3985,28.187 C134.194171,27.6703308 134.592,26.9883376 134.592,26.141 C134.592,25.5209969 134.369836,25.009502 133.9255,24.6065 C133.481164,24.203498 132.918003,23.8883345 132.236,23.661 C131.553997,23.4336655 130.624006,23.1753348 129.446,22.886 C127.792658,22.4933314 126.454505,22.1006686 125.4315,21.708 C124.408495,21.3153314 123.53017,20.7005042 122.7965,19.8635 C122.06283,19.0264958 121.696,17.8950071 121.696,16.469 C121.696,15.2703273 122.021497,14.1801716 122.6725,13.1985 C123.323503,12.2168284 124.30516,11.4366696 125.6175,10.858 C126.92984,10.2793304 128.536657,9.99 130.438,9.99 C131.760673,9.99 133.06266,10.1553317 134.344,10.486 C135.62534,10.8166683 136.730995,11.2919969 137.661,11.912 L136.39,15.043 C135.439329,14.4849972 134.447339,14.0613348 133.414,13.772 C132.380661,13.4826652 131.378338,13.338 130.407,13.338 C128.815659,13.338 127.632504,13.606664 126.8575,14.144 C126.082496,14.681336 125.695,15.3943289 125.695,16.283 C125.695,16.9030031 125.917164,17.4093314 126.3615,17.802 C126.805836,18.1946686 127.368997,18.5046655 128.051,18.732 C128.733003,18.9593345 129.662994,19.2176652 130.841,19.507 C132.453008,19.8790019 133.775662,20.266498 134.809,20.6695 C135.842338,21.072502 136.72583,21.6873292 137.4595,22.514 C138.19317,23.3406708 138.56,24.4566596 138.56,25.862 C138.56,27.0606727 138.234503,28.1456618 137.5835,29.117 C136.932497,30.0883382 135.945673,30.8633304 134.623,31.442 C133.300327,32.0206696 131.688343,32.31 129.787,32.31 Z M161.841,10.3 L161.841,32 L157.811,32 L157.811,22.7 L146.589,22.7 L146.589,32 L142.559,32 L142.559,10.3 L146.589,10.3 L146.589,19.259 L157.811,19.259 L157.811,10.3 L161.841,10.3 Z M167.669,10.3 L171.699,10.3 L171.699,32 L167.669,32 L167.669,10.3 Z M186.486,10.3 C188.366676,10.3 190.004493,10.6099969 191.3995,11.23 C192.794507,11.8500031 193.863996,12.7386609 194.608,13.896 C195.352004,15.0533391 195.724,16.4276587 195.724,18.019 C195.724,19.5896745 195.352004,20.9588275 194.608,22.1265 C193.863996,23.2941725 192.794507,24.1879969 191.3995,24.808 C190.004493,25.4280031 188.366676,25.738 186.486,25.738 L181.588,25.738 L181.588,32 L177.558,32 L177.558,10.3 L186.486,10.3 Z M186.3,22.328 C188.056675,22.328 189.389662,21.9560037 190.299,21.212 C191.208338,20.4679963 191.663,19.4036736 191.663,18.019 C191.663,16.6343264 191.208338,15.5700037 190.299,14.826 C189.389662,14.0819963 188.056675,13.71 186.3,13.71 L181.588,13.71 L181.588,22.328 L186.3,22.328 Z" id="Fanship"></path>
                        </g>
                    </g>
                </g>
            </g>
        </g>
    </g>
</svg>