<svg xmlns="http://www.w3.org/2000/svg" xmlns:xlink="http://www.w3.org/1999/xlink" width="370" height="175" viewBox="0 0 370 175">
    <defs>
        <linearGradient id="b" x1="0%" x2="102%" y1="0%" y2="101%">
            <stop offset="0%" stop-color="#3023AE"/>
            <stop offset="100%" stop-color="#C86DD7"/>
        </linearGradient>
        <path id="a" d="M0 0h370v175H0z"/>
    </defs>
    <g fill="none" fill-rule="evenodd">
        <mask id="c" fill="#fff">
            <use xlink:href="#a"/>
        </mask>
        <use fill="url(#b)" xlink:href="#a"/>
        <g fill="#FFF" fill-rule="nonzero" mask="url(#c)">
            <path d="M140.994 61.19v-2.094h2.182a3.46 3.46 0 0 1-2.182 2.094m-4.31-2.094h1.938v2.018a3.473 3.473 0 0 1-1.938-2.018m1.938-4.386v2.02h-1.938a3.475 3.475 0 0 1 1.938-2.02m4.554 2.02h-2.182v-2.096a3.462 3.462 0 0 1 2.182 2.095m-3.246-4.644c-3.22 0-5.839 2.614-5.839 5.828 0 3.213 2.62 5.828 5.84 5.828 3.218 0 5.838-2.615 5.838-5.828 0-3.214-2.62-5.828-5.839-5.828M165.866 61.2v-2.104h2.217a3.458 3.458 0 0 1-2.217 2.104m-4.275-2.104h1.904v2.007a3.477 3.477 0 0 1-1.904-2.007m1.904-4.374v2.007h-1.904a3.47 3.47 0 0 1 1.904-2.007m4.588 2.007h-2.217v-2.105a3.46 3.46 0 0 1 2.217 2.105m-3.246-4.644c-3.22 0-5.839 2.614-5.839 5.828 0 3.213 2.619 5.826 5.839 5.826s5.84-2.613 5.84-5.826c0-3.214-2.62-5.828-5.84-5.828M140.994 90.266v-2.094h2.182a3.46 3.46 0 0 1-2.182 2.094m-4.31-2.094h1.938v2.018a3.473 3.473 0 0 1-1.938-2.018m1.938-4.386v2.02h-1.938a3.475 3.475 0 0 1 1.938-2.02m4.554 2.02h-2.182V83.71a3.462 3.462 0 0 1 2.182 2.096m-3.246-4.645c-3.22 0-5.839 2.614-5.839 5.828 0 3.213 2.62 5.828 5.84 5.828 3.218 0 5.838-2.615 5.838-5.828 0-3.214-2.62-5.828-5.839-5.828M165.866 90.276v-2.104h2.217a3.458 3.458 0 0 1-2.217 2.104m-4.275-2.104h1.904v2.007a3.477 3.477 0 0 1-1.904-2.007m1.904-4.374v2.008h-1.904a3.47 3.47 0 0 1 1.904-2.008m4.588 2.008h-2.217V83.7a3.46 3.46 0 0 1 2.217 2.106m-3.246-4.645c-3.22 0-5.839 2.614-5.839 5.828 0 3.213 2.619 5.826 5.839 5.826s5.84-2.613 5.84-5.826c0-3.214-2.62-5.828-5.84-5.828M140.994 121.026v-2.094h2.182a3.46 3.46 0 0 1-2.182 2.094m-4.31-2.094h1.938v2.019a3.473 3.473 0 0 1-1.938-2.019m1.938-4.385v2.02h-1.938a3.475 3.475 0 0 1 1.938-2.02m4.554 2.02h-2.182v-2.096a3.462 3.462 0 0 1 2.182 2.095m-3.246-4.645c-3.22 0-5.839 2.615-5.839 5.828 0 3.214 2.62 5.828 5.84 5.828 3.218 0 5.838-2.614 5.838-5.828 0-3.213-2.62-5.828-5.839-5.828M165.866 121.037v-2.105h2.217a3.458 3.458 0 0 1-2.217 2.105m-4.275-2.105h1.904v2.008a3.477 3.477 0 0 1-1.904-2.008m1.904-4.374v2.008h-1.904a3.47 3.47 0 0 1 1.904-2.008m4.588 2.008h-2.217v-2.106a3.46 3.46 0 0 1 2.217 2.106m-3.246-4.645c-3.22 0-5.839 2.615-5.839 5.828 0 3.214 2.619 5.827 5.839 5.827s5.84-2.613 5.84-5.827c0-3.213-2.62-5.828-5.84-5.828M204.592 54.71v2.019h-1.939a3.473 3.473 0 0 1 1.939-2.019m4.554 2.019h-2.183v-2.094a3.46 3.46 0 0 1 2.183 2.094m-2.183 4.461v-2.095h2.183a3.462 3.462 0 0 1-2.183 2.095m-4.31-2.095h1.939v2.02a3.475 3.475 0 0 1-1.939-2.02m3.247 4.645c3.218 0 5.838-2.615 5.838-5.828s-2.62-5.827-5.838-5.827c-3.22 0-5.84 2.614-5.84 5.827s2.62 5.828 5.84 5.828M229.464 54.721v2.008h-1.904a3.474 3.474 0 0 1 1.904-2.008m4.588 2.008h-2.217v-2.105a3.455 3.455 0 0 1 2.217 2.105m-2.217 4.47v-2.104h2.217a3.455 3.455 0 0 1-2.217 2.105m-4.275-2.105h1.904v2.008a3.47 3.47 0 0 1-1.904-2.008m3.246 4.645c3.22 0 5.84-2.615 5.84-5.828s-2.62-5.828-5.84-5.828c-3.22 0-5.839 2.615-5.839 5.828s2.62 5.828 5.84 5.828"/>
            <path d="M196.763 79.617l1.744-1.514h15.284l.755 1.098v4.817h2.372v-4.732h3.556v4.732h2.371v-4.774l.318-1.141h15.284l2.182 1.514V94.36l-2.182 1.49h-15.162l-.658-1.184h.218v-4.732h-2.37v4.732h-3.557v-4.732h-2.372v4.35l-.877 1.565h-15.162l-1.744-1.49V79.618zm0 30.76l1.744-1.514h15.284l.755 1.098v4.818h2.372v-4.733h3.556v4.733h2.371v-4.774l.318-1.142h15.284l2.182 1.515v14.742l-2.182 1.49h-15.162l-.658-1.183h.218v-4.733h-2.37v4.733h-3.557v-4.733h-2.372v4.35l-.877 1.566h-15.162l-1.744-1.49v-14.742zm-22.526 14.743l-1.758 1.49h-15.163l-.658-1.183h-.204v-4.733h-2.372v4.733h-3.556v-4.733h-2.371v4.35l-.456 1.566h-15.162l-2.166-1.49v-14.742l2.166-1.515h15.286l.332 1.098v4.818h2.37v-4.733h3.557v4.733h2.372v-4.774l.74-1.142h15.285l1.758 1.515v14.742zm0-30.76l-1.758 1.49h-15.163l-.658-1.184h-.204v-4.732h-2.372v4.732h-3.556v-4.732h-2.371v4.35l-.456 1.565h-15.162l-2.166-1.49V79.618l2.166-1.514h15.286l.332 1.098v4.817h2.37v-4.732h3.557v4.732h2.372v-4.774l.74-1.141h15.285l1.758 1.514V94.36zm0-29.076l-1.758 2.17h-15.163l-.658-2.365h-.204v-4.733h-2.372v4.733h-3.556v-4.733h-2.371v4.852l-.456 2.247h-15.162l-2.166-2.171V50.54l2.166-2.016h15.286l.332 1.6v4.316h2.37v-4.733h3.557v4.733h2.372v-4.274l.74-1.642h15.285l1.758 2.016v14.743zm22.526-14.743l1.744-2.016h15.284l.755 1.6v4.316h2.372v-4.733h3.556v4.733h2.371v-4.274l.318-1.642h15.284l2.182 2.016v14.743l-2.182 2.17h-15.162l-.658-2.365h.218v-4.733h-2.37v4.733h-3.557v-4.733h-2.372v4.852l-.877 2.247h-15.162l-1.744-2.171V50.54zm.765 19.28h17.803l.66-2.366h4.973l.659 2.366h17.805L243 66.266V49.559l-3.572-3.4h-17.86l-.57 1.183h-5.04l-.571-1.183h-17.86l-3.135 3.4v6.065h-7.114v30.76h-4.742v-30.76h-5.928v-6.065l-3.15-3.4h-17.86l-.57 1.183h-5.04l-.57-1.183h-17.86l-3.558 3.4v16.707l3.558 3.555h17.804l.659-2.366h4.973l.66 2.366h17.804l3.15-3.555V57.99h3.557v28.394h-3.557v-7.749l-3.15-2.899h-17.86l-.57 1.184h-5.04l-.57-1.184h-17.86L128 78.635v16.707l3.558 2.873h17.804l.659-1.183h4.973l.66 1.183h17.804l3.15-2.873V88.75h3.557v27.21h-3.557v-6.565l-3.15-2.899h-17.86l-.57 1.183h-5.04l-.57-1.183h-17.86L128 109.396v16.706l3.558 2.874h17.804l.659-1.183h4.973l.66 1.183h17.804l3.15-2.874v-7.774h5.928V88.751h4.742v29.577h7.114v7.774l3.136 2.874h17.803l.66-1.183h4.973l.659 1.183h17.805l3.572-2.874v-16.706l-3.572-2.899h-17.86l-.57 1.183h-5.04l-.571-1.183h-17.86l-3.135 2.899v6.566h-4.743V88.75h4.743v6.59l3.136 2.874h17.803l.66-1.183h4.973l.659 1.183h17.805L243 95.342V78.635l-3.572-2.899h-17.86l-.57 1.184h-5.04l-.571-1.184h-17.86l-3.135 2.899v7.75h-4.743V57.99h4.743v8.276l3.136 3.555z"/>
            <path d="M204.592 83.786v2.019h-1.939a3.473 3.473 0 0 1 1.939-2.019m4.554 2.019h-2.183V83.71a3.46 3.46 0 0 1 2.183 2.094m-2.183 4.461v-2.095h2.183a3.462 3.462 0 0 1-2.183 2.095m-4.31-2.095h1.939v2.02a3.475 3.475 0 0 1-1.939-2.02m3.247 4.645c3.218 0 5.838-2.615 5.838-5.828s-2.62-5.827-5.838-5.827c-3.22 0-5.84 2.614-5.84 5.827s2.62 5.828 5.84 5.828M229.464 83.797v2.008h-1.904a3.474 3.474 0 0 1 1.904-2.008m4.588 2.008h-2.217V83.7a3.455 3.455 0 0 1 2.217 2.105m-2.217 4.471v-2.105h2.217a3.455 3.455 0 0 1-2.217 2.105m-4.275-2.105h1.904v2.008a3.47 3.47 0 0 1-1.904-2.008m3.246 4.645c3.22 0 5.84-2.615 5.84-5.828s-2.62-5.828-5.84-5.828c-3.22 0-5.839 2.615-5.839 5.828s2.62 5.828 5.84 5.828M204.592 114.547v2.018h-1.939a3.473 3.473 0 0 1 1.939-2.018m4.554 2.018h-2.183v-2.094a3.46 3.46 0 0 1 2.183 2.094m-2.183 4.462v-2.095h2.183a3.462 3.462 0 0 1-2.183 2.095m-4.31-2.095h1.939v2.02a3.475 3.475 0 0 1-1.939-2.02m3.247 4.644c3.218 0 5.838-2.614 5.838-5.828 0-3.213-2.62-5.826-5.838-5.826-3.22 0-5.84 2.613-5.84 5.826 0 3.214 2.62 5.828 5.84 5.828M229.464 114.558v2.008h-1.904a3.474 3.474 0 0 1 1.904-2.008m4.588 2.008h-2.217v-2.105a3.455 3.455 0 0 1 2.217 2.105m-2.217 4.47v-2.104h2.217a3.455 3.455 0 0 1-2.217 2.105m-4.275-2.105h1.904v2.008a3.47 3.47 0 0 1-1.904-2.008m3.246 4.645c3.22 0 5.84-2.615 5.84-5.828 0-3.214-2.62-5.828-5.84-5.828-3.22 0-5.839 2.614-5.839 5.828 0 3.213 2.62 5.828 5.84 5.828"/>
        </g>
        <g mask="url(#c)">
            <g transform="translate(21 15)">
                <circle cx="312" cy="122" r="5" fill="#4A3FB7" opacity=".47"/>
                <circle cx="329.5" cy="129.5" r="2.5" fill="#BD10E0"/>
                <circle cx="298" cy="96" r="3" fill="#FFF"/>
                <circle cx="141" cy="7" r="4" fill="#AF6BC6"/>
                <circle cx="238" cy="14" r="1" fill="#FFF"/>
                <circle cx="267" cy="19" r="1" fill="#FFF"/>
                <circle cx="68" cy="114" r="1" fill="#FFF"/>
                <circle cx="308" cy="64" r="1" fill="#FFF"/>
                <path fill="#5D3DA3" fill-rule="nonzero" d="M254.353 63.627c.248-.66.985-.995 1.646-.747l13.848 5.212a9.937 9.937 0 0 1 1.484-2.217l-10.698-3.966a1.278 1.278 0 1 1 .89-2.397l12.062 4.473a10 10 0 0 1 15.238 8.636l-5.68-2.188a1.278 1.278 0 1 0-.919 2.386l6.23 2.399c-.234.83-.574 1.627-1.013 2.37l-1.98-.75a1.28 1.28 0 1 0-.907 2.392l1.22.462a10.007 10.007 0 0 1-16.085-3.124l-13.873-5.18a1.278 1.278 0 0 1 .894-2.394l12.164 4.546c-.103-1.01-.052-2.03.15-3.025l-13.928-5.24a1.278 1.278 0 0 1-.743-1.648zm-8.313 4.217a1.278 1.278 0 1 1 .905-2.39l3.531 1.336a1.278 1.278 0 1 1-.905 2.391l-3.531-1.337zm-1.835-11.075c.253-.658.991-.988 1.65-.736l6.248 2.406a1.279 1.279 0 1 1-.915 2.388l-6.249-2.406a1.278 1.278 0 0 1-.734-1.652z" opacity=".692"/>
                <path fill="#4C9CBD" fill-rule="nonzero" d="M22.4 123.822a.757.757 0 0 0-1.02-.32l-7.766 4.064a5.886 5.886 0 0 0-1.032-1.196l6.003-3.104a.757.757 0 1 0-.696-1.345l-6.768 3.5a5.923 5.923 0 0 0-8.336 6.177l3.182-1.697a.757.757 0 1 1 .712 1.337l-3.489 1.86c.198.471.455.915.766 1.32l1.11-.584a.758.758 0 0 1 .707 1.34l-.684.36a5.927 5.927 0 0 0 9.23-2.997l7.782-4.046a.757.757 0 0 0-.698-1.343l-6.823 3.55a5.942 5.942 0 0 0-.307-1.767l7.81-4.086a.757.757 0 0 0 .318-1.023zm5.192 1.88a.757.757 0 1 0-.704-1.34l-1.98 1.04a.757.757 0 1 0 .705 1.34l1.98-1.04zm.28-6.644a.757.757 0 0 0-1.024-.313l-3.5 1.865a.757.757 0 1 0 .712 1.338l3.5-1.866a.757.757 0 0 0 .311-1.024z" opacity=".692"/>
                <circle cx="15.5" cy="75.5" r="5.5" fill="#4C9CBD"/>
                <circle cx="180.5" cy="99.5" r="1.5" fill="#4C9CBD"/>
                <circle cx="82" cy="13" r="3" fill="#FFF"/>
                <circle cx="82" cy="13" r="3" fill="#FFF"/>
                <circle cx="62" cy="105" r="3" fill="#FFF"/>
                <circle cx="61" cy="72" r="2" fill="#FFF"/>
                <circle cx="50" cy="1" r="1" fill="#FFF"/>
                <circle cx="157" cy="90" r="1" fill="#FFF"/>
                <circle cx="30" cy="11" r="1" fill="#FFF"/>
                <circle cx="272" cy="13" r="3" fill="#FFF"/>
                <circle cx="314.5" cy="18.5" r="4.5" fill="#F5A623"/>
                <circle cx="201.5" cy="21.5" r="1.5" fill="#F5A623"/>
                <circle cx="254.5" cy="124.5" r="4.5" fill="#F5A623"/>
                <circle cx="13" cy="13" r="3" fill="#F5A623"/>
            </g>
        </g>
        <path fill="#A95ECF" fill-rule="nonzero" d="M67.6 47.593c9.281-2.418 10.067-.437 10.365.312.62 1.555-.812 3.334-4.638 5.767a49.293 49.293 0 0 1-2.677 1.576v.042c0 6.205-5.048 11.255-11.254 11.255a11.225 11.225 0 0 1-8.211-3.566c-2.472.648-4.957 1.129-6.889 1.129-1.757 0-3.056-.399-3.467-1.433-.298-.749-1.085-2.728 7.313-7.34v-.045c0-6.206 5.049-11.255 11.255-11.255 3.231 0 6.15 1.37 8.204 3.558zm1.479 1.965a11.185 11.185 0 0 1 1.296 3.25c3.18-1.825 4.928-3.282 5.358-4.01-.66-.174-2.582-.226-6.654.76zM49.715 61.024a11.186 11.186 0 0 1-1.296-3.247c-3.632 2.077-4.993 3.435-5.353 4.014.813.234 3.084.092 6.65-.767z" mask="url(#c)" opacity=".622" transform="rotate(-9 59.384 55.29)"/>
    </g>
</svg>
