<?xml version="1.0" encoding="UTF-8"?>
<svg width="50px" height="72px" viewBox="0 0 50 72" version="1.1" xmlns="http://www.w3.org/2000/svg" xmlns:xlink="http://www.w3.org/1999/xlink">
    <!-- Generator: sketchtool 50.2 (55047) - http://www.bohemiancoding.com/sketch -->
    <title>9C6E6F82-D144-4DD0-90DC-3E094877AF85</title>
    <desc>Created with sketchtool.</desc>
    <defs></defs>
    <g id="Page-1" stroke="none" stroke-width="1" fill="none" fill-rule="evenodd">
        <g id="Homepage-" transform="translate(-245.000000, -1660.000000)" fill="#342B8A" fill-rule="nonzero">
            <g id="Group-4" transform="translate(136.000000, 1505.000000)">
                <g id="Group-8" transform="translate(0.000000, 155.000000)">
                    <g id="noun_1277624_cc" transform="translate(109.000000, 0.000000)">
                        <g id="Group">
                            <path d="M24.3036936,8.12903226 C24.3036936,5.56722581 22.2274637,3.48387097 19.6744186,3.48387097 C17.1213735,3.48387097 15.0451436,5.56722581 15.0451436,8.12903226 C15.0451436,10.6908387 17.1213735,12.7741935 19.6744186,12.7741935 C22.2274637,12.7741935 24.3036936,10.6908387 24.3036936,8.12903226 Z M19.6744186,10.4516129 C18.397896,10.4516129 17.3597811,9.40993548 17.3597811,8.12903226 C17.3597811,6.84812903 18.397896,5.80645161 19.6744186,5.80645161 C20.9509412,5.80645161 21.9890561,6.84812903 21.9890561,8.12903226 C21.9890561,9.40993548 20.9509412,10.4516129 19.6744186,10.4516129 Z" id="Shape"></path>
                            <path d="M40.506156,25.7295484 C40.506156,23.7089032 38.8673926,22.0645161 36.853658,22.0645161 L33.5622435,22.0645161 C33.5622435,20.1437419 32.0044925,18.5806452 30.0902873,18.5806452 L28.4075458,18.5806452 C27.4203529,18.5806452 26.6183311,17.775871 26.6183311,16.7852903 L26.6183311,15.0967742 L28.9329685,15.0967742 L28.9329685,0 L10.4158687,0 L10.4158687,15.0967742 L12.7305062,15.0967742 L12.7305062,17.1743226 C12.7305062,17.8652903 12.5291327,18.5330323 12.1472175,19.1067097 L11.3880164,20.2494194 C11.0165171,20.8068387 10.7607497,21.4223226 10.6010397,22.0633548 L8.28177291,22.0633548 C6.2680383,22.0645161 4.62927497,23.7089032 4.62927497,25.7295484 L4.62927497,32.516129 L0,32.516129 L0,63.8709677 C0,68.3523871 3.63513817,72 8.10123119,72 L42.8207934,72 C47.379472,72 49.7647059,67.9110968 49.7647059,63.8709677 L49.7647059,32.516129 L40.506156,32.516129 L40.506156,25.7295484 Z M36.853658,24.3870968 C37.59087,24.3870968 38.1915185,24.9898065 38.1915185,25.7295484 L38.1915185,26.7096774 L26.6183311,26.7096774 L26.6183311,25.5483871 L30.0902873,25.5483871 C31.1121997,25.5483871 32.0230096,25.0943226 32.6595349,24.3870968 L36.853658,24.3870968 Z M12.7305062,2.32258065 L26.6183311,2.32258065 L26.6183311,12.7741935 L19.6744186,12.7741935 L12.7305062,12.7741935 L12.7305062,2.32258065 Z M12.7305062,23.4708387 C12.7305062,22.779871 12.9318796,22.112129 13.3137948,21.5384516 L14.0729959,20.3957419 C14.7095212,19.4388387 15.0451436,18.3251613 15.0451436,17.1743226 L15.0451436,15.0967742 L24.3036936,15.0967742 L24.3036936,16.7852903 C24.3036936,19.0556129 26.1449877,20.9032258 28.4075458,20.9032258 L30.0902873,20.9032258 C30.7291272,20.9032258 31.247606,21.4234839 31.247606,22.0645161 C31.247606,22.7055484 30.7291272,23.2258065 30.0902873,23.2258065 L24.3036936,23.2258065 L24.3036936,31.3548387 C24.3036936,31.6602581 24.1810178,31.959871 23.9645992,32.175871 C23.5120876,32.6299355 22.7806621,32.6299355 22.3281505,32.175871 C22.1117319,31.959871 21.9890561,31.6602581 21.9890561,31.3548387 L21.9890561,28.8325161 L21.9890561,27.8709677 L19.6744186,27.8709677 L19.6744186,28.8325161 L19.6744186,31.3548387 C19.6744186,31.7984516 19.429067,32.1967742 19.0355787,32.3941935 C18.7080575,32.5579355 18.3203557,32.5567742 17.9986211,32.3941935 C17.6051327,32.1967742 17.3597811,31.7984516 17.3597811,31.3548387 L17.3597811,30.1935484 L17.3597811,29.0322581 L17.3597811,27.8709677 L15.0451436,27.8709677 L15.0451436,29.0322581 L15.0451436,30.1935484 C15.0451436,32.0725161 14.596104,32.2978065 14.4063037,32.3941935 C14.0787825,32.5579355 13.6910807,32.5567742 13.3693461,32.3941935 C12.9758577,32.1967742 12.7305062,31.7984516 12.7305062,31.3548387 L12.7305062,29.0322581 L12.7305062,23.4708387 Z M8.28177291,24.3870968 L10.4158687,24.3870968 L10.4158687,26.7096774 L6.94391245,26.7096774 L6.94391245,25.7295484 C6.94391245,24.9898065 7.54456088,24.3870968 8.28177291,24.3870968 Z M6.94391245,29.0322581 L10.4158687,29.0322581 L10.4158687,31.3548387 C10.4158687,31.760129 10.4922517,32.1491613 10.6207141,32.516129 L6.94391245,32.516129 L6.94391245,29.0322581 Z M42.8207934,69.6774194 L8.10123119,69.6774194 C4.91050342,69.6774194 2.31463748,67.0726452 2.31463748,63.8709677 L2.31463748,48.7741935 L20.8317373,48.7741935 L20.8317373,54 C20.8317373,56.2412903 22.6487278,58.0645161 24.8823529,58.0645161 C27.1159781,58.0645161 28.9329685,56.2412903 28.9329685,54 L28.9329685,48.7741935 L47.4500684,48.7741935 L47.4500684,63.8709677 C47.4500684,66.6673548 46.0011053,69.6774194 42.8207934,69.6774194 Z M23.1463748,54 L23.1463748,44.1290323 L26.6183311,44.1290323 L26.6183311,54 C26.6183311,54.9603871 25.8394555,55.7419355 24.8823529,55.7419355 C23.9252503,55.7419355 23.1463748,54.9603871 23.1463748,54 Z M47.4500684,34.8387097 L47.4500684,46.4516129 L28.9329685,46.4516129 L28.9329685,41.8064516 L20.8317373,41.8064516 L20.8317373,46.4516129 L2.31463748,46.4516129 L2.31463748,34.8387097 L47.4500684,34.8387097 Z M26.407699,32.516129 C26.5384761,32.1468387 26.6183311,31.7578065 26.6183311,31.3548387 L26.6183311,29.0322581 L38.1915185,29.0322581 L38.1915185,32.516129 L26.407699,32.516129 Z" id="Shape"></path>
                            <rect id="Rectangle-path" x="6.94391245" y="41.8064516" width="2.31463748" height="2.32258065"></rect>
                            <rect id="Rectangle-path" x="11.5731874" y="41.8064516" width="2.31463748" height="2.32258065"></rect>
                            <rect id="Rectangle-path" x="16.2024624" y="41.8064516" width="2.31463748" height="2.32258065"></rect>
                            <rect id="Rectangle-path" x="31.247606" y="41.8064516" width="2.31463748" height="2.32258065"></rect>
                            <rect id="Rectangle-path" x="35.876881" y="41.8064516" width="2.31463748" height="2.32258065"></rect>
                            <rect id="Rectangle-path" x="40.506156" y="41.8064516" width="2.31463748" height="2.32258065"></rect>
                        </g>
                    </g>
                </g>
            </g>
        </g>
    </g>
</svg>