<?xml version="1.0" encoding="UTF-8"?>
<svg width="72px" height="72px" viewBox="0 0 72 72" version="1.1" xmlns="http://www.w3.org/2000/svg" xmlns:xlink="http://www.w3.org/1999/xlink">
    <!-- Generator: sketchtool 50.2 (55047) - http://www.bohemiancoding.com/sketch -->
    <title>BEC9508C-D30A-41E8-951E-1E99F62E4950</title>
    <desc>Created with sketchtool.</desc>
    <defs></defs>
    <g id="Page-1" stroke="none" stroke-width="1" fill="none" fill-rule="evenodd">
        <g id="Homepage-" transform="translate(-835.000000, -1660.000000)" fill="#342B8A" fill-rule="nonzero">
            <g id="Group-4" transform="translate(136.000000, 1505.000000)">
                <g id="Group-8-Copy-2" transform="translate(599.000000, 155.000000)">
                    <g id="Group" transform="translate(100.000000, 0.000000)">
                        <rect id="Rectangle-path" x="34.8387097" y="0" width="2.32258065" height="5.80645161"></rect>
                        <rect id="Rectangle-path" transform="translate(24.095011, 7.834616) rotate(-44.995949) translate(-24.095011, -7.834616) " x="22.9336502" y="4.93121252" width="2.32272261" height="5.80680652"></rect>
                        <rect id="Rectangle-path" x="16.2580645" y="18.5806452" width="5.80645161" height="2.32258065"></rect>
                        <rect id="Rectangle-path" transform="translate(24.095642, 31.649014) rotate(-45.004051) translate(-24.095642, -31.649014) " x="21.192239" y="30.487653" width="5.80680652" height="2.32272261"></rect>
                        <rect id="Rectangle-path" transform="translate(47.910098, 31.648094) rotate(-44.995949) translate(-47.910098, -31.648094) " x="46.7487369" y="28.7446906" width="2.32272261" height="5.80680652"></rect>
                        <rect id="Rectangle-path" x="49.9354839" y="18.5806452" width="5.80645161" height="2.32258065"></rect>
                        <rect id="Rectangle-path" transform="translate(47.906477, 7.835351) rotate(-45.000000) translate(-47.906477, -7.835351) " x="45.0032795" y="6.67407134" width="5.80639593" height="2.32255837"></rect>
                        <path d="M29.0322581,29.0310968 L29.0322581,31.3548387 L26.7096774,31.3548387 L26.7096774,33.6774194 L29.0322581,33.6774194 L29.0322581,38.3225806 L42.9677419,38.3225806 L42.9677419,33.6774194 L45.2903226,33.6774194 L45.2903226,31.3548387 L42.9677419,31.3548387 L42.9677419,29.0310968 C45.8883871,26.8397419 47.6129032,23.4127742 47.6129032,19.7419355 C47.6129032,13.3385806 42.4033548,8.12903226 36,8.12903226 C29.5966452,8.12903226 24.3870968,13.3385806 24.3870968,19.7419355 C24.3870968,23.4127742 26.1116129,26.8385806 29.0322581,29.0310968 Z M40.6451613,36 L31.3548387,36 L31.3548387,33.6774194 L40.6451613,33.6774194 L40.6451613,36 Z M34.8387097,19.7419355 C34.8387097,19.1020645 35.3589677,18.5806452 36,18.5806452 C36.6410323,18.5806452 37.1612903,19.1020645 37.1612903,19.7419355 C37.1612903,20.3818065 36.6410323,20.9032258 36,20.9032258 C35.3589677,20.9032258 34.8387097,20.3818065 34.8387097,19.7419355 Z M36,10.4516129 C41.1224516,10.4516129 45.2903226,14.6194839 45.2903226,19.7419355 C45.2903226,22.8472258 43.7469677,25.7341935 41.1596129,27.4656774 L40.6451613,27.8117419 L40.6451613,31.3548387 L37.1612903,31.3548387 L37.1612903,23.012129 C38.5095484,22.5313548 39.483871,21.2539355 39.483871,19.7419355 C39.483871,17.8211613 37.9207742,16.2580645 36,16.2580645 C34.0792258,16.2580645 32.516129,17.8211613 32.516129,19.7419355 C32.516129,21.2539355 33.4904516,22.5313548 34.8387097,23.012129 L34.8387097,31.3548387 L31.3548387,31.3548387 L31.3548387,27.8117419 L30.8403871,27.4668387 C28.2530323,25.7341935 26.7096774,22.8472258 26.7096774,19.7419355 C26.7096774,14.6194839 30.8775484,10.4516129 36,10.4516129 Z" id="Shape"></path>
                        <path d="M68.516129,37.1612903 C67.4256774,37.1612903 66.3828387,37.6815484 65.7301935,38.5548387 L59.7251613,46.5619355 L50.6055484,48.3851613 L53.0152258,42.9630968 C53.2823226,42.3592258 53.4193548,41.7193548 53.4193548,41.0562581 L53.4193548,40.6939355 C53.4193548,38.1054194 51.3139355,36 48.7254194,36 C46.8905806,36 45.2148387,37.08 44.4530323,38.7510968 L39.483871,49.6834839 L39.483871,62.7096774 L37.1612903,62.7096774 L37.1612903,72 L54.5806452,72 L54.5806452,62.7096774 L52.2580645,62.7096774 L52.2580645,59.9434839 L63.4923871,54.3263226 L71.3705806,43.0734194 C71.7816774,42.4846452 72,41.7936774 72,41.0736774 L72,40.6451613 C72,38.7243871 70.4369032,37.1612903 68.516129,37.1612903 Z M52.2580645,69.6774194 L39.483871,69.6774194 L39.483871,65.0322581 L52.2580645,65.0322581 L52.2580645,69.6774194 Z M69.6774194,41.0736774 C69.6774194,41.3140645 69.6054194,41.544 69.4672258,41.7402581 L61.9269677,52.5112258 L49.9354839,58.508129 L49.9354839,62.7096774 L41.8064516,62.7096774 L41.8064516,50.1874839 L46.5677419,39.7126452 C46.952129,38.8683871 47.7987097,38.3225806 48.7254194,38.3225806 C50.0330323,38.3225806 51.0967742,39.3863226 51.0967742,40.6939355 L51.0967742,41.0562581 C51.0967742,41.3907097 51.0282581,41.7147097 50.8923871,42.0189677 L46.5514839,51.7854194 L48.6743226,52.7283871 L49.4500645,50.9829677 L61.0490323,48.6627097 L67.5870968,39.9460645 C67.8054194,39.6569032 68.1526452,39.483871 68.516129,39.483871 C69.1571613,39.483871 69.6774194,40.004129 69.6774194,40.6451613 L69.6774194,41.0736774 Z" id="Shape"></path>
                        <path d="M32.516129,49.6834839 L27.5469677,38.7510968 C26.7851613,37.08 25.1094194,36 23.2745806,36 C20.6860645,36 18.5806452,38.1054194 18.5806452,40.6939355 L18.5806452,41.0562581 C18.5806452,41.7181935 18.7165161,42.3592258 18.9847742,42.9630968 L21.3944516,48.3851613 L12.2748387,46.5619355 L6.26980645,38.5548387 C5.61716129,37.6815484 4.57432258,37.1612903 3.48387097,37.1612903 C1.56309677,37.1612903 0,38.7243871 0,40.6451613 L0,41.0736774 C0,41.7936774 0.218322581,42.4846452 0.629419355,43.0722581 L8.5076129,54.3263226 L19.7419355,59.9434839 L19.7419355,62.7096774 L17.4193548,62.7096774 L17.4193548,72 L34.8387097,72 L34.8387097,62.7096774 L32.516129,62.7096774 L32.516129,49.6834839 Z M10.0730323,52.5123871 L2.53277419,41.7402581 C2.39458065,41.544 2.32258065,41.3140645 2.32258065,41.0736774 L2.32258065,40.6451613 C2.32258065,40.004129 2.84283871,39.483871 3.48387097,39.483871 C3.84735484,39.483871 4.19458065,39.6569032 4.41290323,39.9472258 L10.9509677,48.663871 L22.5499355,50.984129 L23.3256774,52.7295484 L25.4485161,51.7865806 L21.1076129,42.020129 C20.9717419,41.715871 20.9032258,41.391871 20.9032258,41.0562581 L20.9032258,40.6939355 C20.9032258,39.3863226 21.9669677,38.3225806 23.2745806,38.3225806 C24.2012903,38.3225806 25.047871,38.8683871 25.4322581,39.7126452 L30.1935484,50.1874839 L30.1935484,62.7096774 L22.0645161,62.7096774 L22.0645161,58.508129 L10.0730323,52.5123871 Z M32.516129,69.6774194 L19.7419355,69.6774194 L19.7419355,65.0322581 L32.516129,65.0322581 L32.516129,69.6774194 Z" id="Shape"></path>
                    </g>
                </g>
            </g>
        </g>
    </g>
</svg>