<?xml version="1.0" encoding="UTF-8"?>
<svg width="62px" height="62px" viewBox="0 0 62 62" version="1.1" xmlns="http://www.w3.org/2000/svg" xmlns:xlink="http://www.w3.org/1999/xlink">
    <!-- Generator: sketchtool 50.2 (55047) - http://www.bohemiancoding.com/sketch -->
    <title>B60B1B51-69C7-4596-B28B-C44C11E85645</title>
    <desc>Created with sketchtool.</desc>
    <defs></defs>
    <g id="Page-1" stroke="none" stroke-width="1" fill="none" fill-rule="evenodd">
        <g id="Homepage-" transform="translate(-540.000000, -1670.000000)" fill="#342B8A" fill-rule="nonzero">
            <g id="Group-4" transform="translate(136.000000, 1505.000000)">
                <g id="Group-8-Copy" transform="translate(300.000000, 165.000000)">
                    <g id="Group" transform="translate(104.000000, 0.000000)">
                        <path d="M45,28 C38.933,28 33.613,31.205 30.604,36 L0,36 L0,46 L6,46 L6,52 L0,52 L0,62 L34,62 L34,61 L34,60 L34,57.938 C36.968,60.465 40.805,62 45,62 C54.374,62 62,54.374 62,45 C62,35.626 54.374,28 45,28 Z M24,58 L24,60 L22,60 L22,54 L24,54 L24,56 L26,56 L26,54 L28,54 L28,60 L26,60 L26,58 L24,58 Z M6,38 L8,38 L8,40 L10,40 L10,38 L12,38 L12,44 L10,44 L10,42 L8,42 L8,44 L6,44 L6,38 Z M22,46 L22,52 L20,52 L20,46 L22,46 Z M18,46 L18,52 L16,52 L16,46 L18,46 Z M24,52 L24,46 L26,46 L26,52 L24,52 Z M22,44 L22,38 L24,38 L24,44 L22,44 Z M20,44 L18,44 L18,38 L20,38 L20,44 Z M16,44 L14,44 L14,38 L16,38 L16,44 Z M14,46 L14,52 L12,52 L12,46 L14,46 Z M10,54 L12,54 L12,60 L10,60 L10,54 Z M8,60 L6,60 L6,54 L8,54 L8,60 Z M14,54 L16,54 L16,60 L14,60 L14,54 Z M18,54 L20,54 L20,60 L18,60 L18,54 Z M28,52 L28,46 L28.051,46 C28.176,48.129 28.686,50.151 29.526,52 L28,52 Z M28.051,44 L26,44 L26,38 L29.526,38 C28.686,39.849 28.175,41.871 28.051,44 Z M2,38 L4,38 L4,44 L2,44 L2,38 Z M8,46 L10,46 L10,52 L8,52 L8,46 Z M2,54 L4,54 L4,60 L2,60 L2,54 Z M30,60 L30,54 L30.604,54 C31.044,54.702 31.527,55.372 32.062,56 L32,56 L32,60 L30,60 Z M45,60 C36.729,60 30,53.271 30,45 C30,36.729 36.729,30 45,30 C53.271,30 60,36.729 60,45 C60,53.271 53.271,60 45,60 Z" id="Shape"></path>
                        <path d="M16.729,15.384 L19.129,16.978 C20.137,17.646 21.292,18 22.473,18 L23.682,18 C25.141,18 26.394,17.08 27,15.757 L27,18 L32,18 L32,20 L32,21 L32,28 L36,28 C37.654,28 39,26.654 39,24.961 C39,24.656 39.137,24.371 39.376,24.18 L43.351,21 L52.037,21 L60.598,16.356 C61.463,15.887 62,14.984 62,14 C62,13.016 61.463,12.113 60.598,11.644 L52.037,7 L43.351,7 L39.376,3.82 C39.137,3.629 39,3.344 39,3 C39,1.346 37.654,0 36,0 L32,0 L32,7 L32,8 L32,10 L27,10 L27,12.243 C26.394,10.92 25.141,10 23.682,10 L22.473,10 C21.292,10 20.137,10.354 19.13,11.022 L16.73,12.616 C16.272,12.918 16,13.436 16,14 C16,14.564 16.272,15.082 16.729,15.384 Z M38.126,22.619 C37.41,23.191 37,24.045 37,25 C37,25.551 36.552,26 36,26 L34,26 L34,21 L40.149,21 L38.126,22.619 Z M59.645,13.402 C59.863,13.521 60,13.75 60,14 C60,14.25 59.863,14.479 59.645,14.598 L51.529,19 L34,19 L34,9 L51.529,9 L59.645,13.402 Z M34,2 L36,2 C36.552,2 37,2.449 37,3.039 C37,3.955 37.41,4.809 38.126,5.382 L40.149,7 L34,7 L34,2 Z M29,12 L32,12 L32,16 L29,16 L29,12 Z M20.235,12.688 C20.914,12.238 21.688,12 22.473,12 L23.682,12 C24.626,12 25.394,12.897 25.394,14 C25.394,15.103 24.626,16 23.682,16 L22.473,16 C21.688,16 20.914,15.762 20.236,15.312 L18.26,14 L20.235,12.688 Z" id="Shape"></path>
                        <rect id="Rectangle-path" x="16" y="32" width="2" height="2"></rect>
                        <path d="M7,27 L13,27 C14.654,27 16,28.346 16,30 L18,30 C18,27.243 15.757,25 13,25 L7,25 C4.243,25 2,22.757 2,20 C2,17.243 4.243,15 7,15 L14,15 L14,13 L7,13 C3.141,13 0,16.14 0,20 C0,23.86 3.141,27 7,27 Z" id="Shape"></path>
                        <path d="M46,18 C48.206,18 50,16.206 50,14 C50,11.794 48.206,10 46,10 C43.794,10 42,11.794 42,14 C42,16.206 43.794,18 46,18 Z M46,12 C47.103,12 48,12.897 48,14 C48,15.103 47.103,16 46,16 C44.897,16 44,15.103 44,14 C44,12.897 44.897,12 46,12 Z" id="Shape"></path>
                        <path d="M46,34 L46,32 L44,32 L44,34 C40.691,34 38,36.691 38,40 C38,43.309 40.691,46 44,46 L46,46 C48.206,46 50,47.794 50,50 C50,52.206 48.206,54 46,54 L44,54 C41.794,54 40,52.206 40,50 L40,49 L38,49 L38,50 C38,53.309 40.691,56 44,56 L44,58 L46,58 L46,56 C49.309,56 52,53.309 52,50 C52,46.691 49.309,44 46,44 L44,44 C41.794,44 40,42.206 40,40 C40,37.794 41.794,36 44,36 L46,36 C48.206,36 50,37.794 50,40 L50,41 L52,41 L52,40 C52,36.691 49.309,34 46,34 Z" id="Shape"></path>
                        <rect id="Rectangle-path" x="54" y="44" width="2" height="2"></rect>
                        <rect id="Rectangle-path" x="34" y="44" width="2" height="2"></rect>
                    </g>
                </g>
            </g>
        </g>
    </g>
</svg>