<?xml version="1.0" encoding="UTF-8"?>
<svg width="61px" height="62px" viewBox="0 0 61 62" version="1.1" xmlns="http://www.w3.org/2000/svg" xmlns:xlink="http://www.w3.org/1999/xlink">
    <!-- Generator: sketchtool 50.2 (55047) - http://www.bohemiancoding.com/sketch -->
    <title>E3F84DDD-E290-45A3-96BE-7515F1243C6A</title>
    <desc>Created with sketchtool.</desc>
    <defs></defs>
    <g id="Page-1" stroke="none" stroke-width="1" fill="none" fill-rule="evenodd">
        <g id="Homepage-" transform="translate(-1139.000000, -1670.000000)" stroke="#342B8A" stroke-width="2">
            <g id="Group-4" transform="translate(136.000000, 1505.000000)">
                <g id="Group-8-Copy-3" transform="translate(900.000000, 166.000000)">
                    <g id="Group" transform="translate(104.000000, 0.000000)">
                        <path d="M15.3898414,4.84782609 L15.3898414,0 L29.4985371,0 L43.6072327,0 L43.6072327,4.84782609 L52.6396273,4.84782609 C52.6396273,4.84782609 52.4927313,14.3980765 42.880019,17.0777987 C41.0939629,23.061491 36.1702936,27.7877286 29.8117302,29.1502797 L29.4985371,29.2173913 L29.1853439,29.1502797 C22.902304,27.8039122 18.0202748,23.1732875 16.1820214,17.2904821 C6.54195914,14.6170286 6.41158118,4.84782609 6.41158118,4.84782609 L15.3898414,4.84782609 Z M29.4985371,29.2173913 L29.4985371,40.7608696 L29.4985371,29.2173913 Z M21.8014219,40.7608696 L37.1956509,40.7608696 L37.1956509,47.173913 L21.8014219,47.173913 L21.8014219,40.7608696 Z M43.6072327,4.84782609 L43.6055937,4.84782609 L42.6985497,17.1272662 C42.7594112,17.1110485 42.8199003,17.094558 42.880019,17.0777987 C43.3542066,15.489163 43.6072327,13.8118929 43.6072327,12.0854043 L43.6072327,4.84782609 Z M15.3898414,4.84782609 L15.3898414,12.0854177 C15.3898414,13.8891414 15.6660132,15.639145 16.1820214,17.2904821 C16.2135817,17.2992346 16.2452439,17.3079111 16.2770084,17.3165109 L15.3898414,4.84782609 Z M29.4985371,6.51854589 L27.0093044,10.6603599 L22.3009878,11.7478708 L25.4708726,15.3951645 L25.0502074,20.2090987 L29.4985371,18.3214337 L33.9468667,20.2090987 L33.5262016,15.3951645 L36.6960863,11.7478708 L31.9877723,10.6603599 L29.4985371,6.51854589 Z M41.0434783,53.5869565 L59,53.5869565 L59,60 L41.0434783,60 L41.0434783,53.5869565 Z M-1.17239551e-13,53.5869565 L17.9565217,53.5869565 L17.9565217,60 L-1.17239551e-13,60 L-1.17239551e-13,53.5869565 Z M15.5,3.5 L43.5,3.5 L15.5,3.5 Z" id="Shape"></path>
                        <rect id="Rectangle-path" x="17.9565217" y="47.173913" width="23.0869565" height="12.826087"></rect>
                    </g>
                </g>
            </g>
        </g>
    </g>
</svg>