<svg xmlns="http://www.w3.org/2000/svg" xmlns:xlink="http://www.w3.org/1999/xlink" width="370" height="175" viewBox="0 0 370 175">
    <defs>
        <linearGradient id="b" x1="0%" x2="102%" y1="0%" y2="101%">
            <stop offset="0%" stop-color="#3023AE"/>
            <stop offset="100%" stop-color="#C86DD7"/>
        </linearGradient>
        <path id="a" d="M0 0h370v175H0z"/>
    </defs>
    <g fill="none" fill-rule="evenodd">
        <mask id="c" fill="#fff">
            <use xlink:href="#a"/>
        </mask>
        <use fill="url(#b)" xlink:href="#a"/>
        <g mask="url(#c)">
            <g transform="translate(30 15)">
                <circle cx="303" cy="122" r="5" fill="#4A3FB7" opacity=".47"/>
                <circle cx="320.5" cy="129.5" r="2.5" fill="#BD10E0"/>
                <circle cx="289" cy="96" r="3" fill="#FFF"/>
                <circle cx="246" cy="81" r="8" fill="#9140AD"/>
                <circle cx="229" cy="14" r="1" fill="#FFF"/>
                <circle cx="258" cy="19" r="1" fill="#FFF"/>
                <circle cx="59" cy="114" r="1" fill="#FFF"/>
                <circle cx="299" cy="64" r="1" fill="#FFF"/>
                <path fill="#9755CA" fill-rule="nonzero" d="M15.353 33.627c.248-.66.985-.995 1.646-.747l13.848 5.212a9.937 9.937 0 0 1 1.484-2.217L21.633 31.91a1.278 1.278 0 1 1 .89-2.397l12.062 4.473a10 10 0 0 1 15.238 8.636l-5.68-2.188a1.278 1.278 0 0 0-.919 2.386l6.23 2.399c-.234.83-.574 1.627-1.013 2.37l-1.98-.75a1.28 1.28 0 0 0-.907 2.392l1.22.462a10.007 10.007 0 0 1-16.085-3.124l-13.873-5.18a1.278 1.278 0 0 1 .894-2.394l12.164 4.546c-.103-1.01-.052-2.03.15-3.025l-13.928-5.24a1.278 1.278 0 0 1-.743-1.648zM7.04 37.844a1.278 1.278 0 1 1 .905-2.39l3.531 1.336a1.278 1.278 0 1 1-.905 2.391L7.04 37.844zM5.205 26.77c.253-.658.991-.988 1.65-.736l6.248 2.406a1.279 1.279 0 0 1-.915 2.388L5.939 28.42a1.278 1.278 0 0 1-.734-1.652z" opacity=".692"/>
                <path fill="#5D3DA3" fill-rule="nonzero" d="M253.4 119.822a.757.757 0 0 0-1.02-.32l-7.766 4.064a5.886 5.886 0 0 0-1.032-1.196l6.003-3.104a.757.757 0 1 0-.696-1.345l-6.768 3.5a5.923 5.923 0 0 0-8.336 6.177l3.182-1.697a.757.757 0 1 1 .712 1.337l-3.489 1.86c.198.471.455.915.766 1.32l1.11-.584a.758.758 0 0 1 .707 1.34l-.684.36a5.927 5.927 0 0 0 9.23-2.997l7.782-4.046a.757.757 0 0 0-.698-1.343l-6.823 3.55a5.943 5.943 0 0 0-.307-1.767l7.81-4.086a.757.757 0 0 0 .318-1.023zm5.192 1.88a.757.757 0 1 0-.704-1.34l-1.98 1.04a.757.757 0 1 0 .705 1.34l1.98-1.04zm.28-6.644a.757.757 0 0 0-1.024-.313l-3.5 1.865a.757.757 0 1 0 .712 1.338l3.5-1.866a.757.757 0 0 0 .311-1.024z" opacity=".692"/>
                <circle cx="6.5" cy="75.5" r="5.5" fill="#4C9CBD"/>
                <circle cx="171.5" cy="99.5" r="1.5" fill="#4C9CBD"/>
                <circle cx="73" cy="13" r="3" fill="#FFF"/>
                <circle cx="73" cy="13" r="3" fill="#FFF"/>
                <circle cx="3" cy="133" r="3" fill="#FFF"/>
                <circle cx="52" cy="72" r="2" fill="#FFF"/>
                <circle cx="41" cy="1" r="1" fill="#FFF"/>
                <circle cx="148" cy="90" r="1" fill="#FFF"/>
                <circle cx="21" cy="11" r="1" fill="#FFF"/>
                <circle cx="263" cy="13" r="3" fill="#FFF"/>
                <circle cx="315.5" cy="84.5" r="4.5" fill="#F5A623"/>
                <circle cx="192.5" cy="1.5" r="1.5" fill="#F5A623"/>
                <circle cx="65.5" cy="104.5" r="4.5" fill="#F5A623"/>
                <circle cx="114" cy="23" r="3" fill="#F5A623"/>
                <g fill="#FFF">
                    <g fill-rule="nonzero">
                        <path d="M192.167 50.833c0-7.333-6-13.333-13.334-13.333v3.333c5.5 0 10 4.5 10 10h3.334z"/>
                        <path d="M198.5 54c2.5-14.167-12-28.333-28.333-21.167-4.5-7.5-12.5-12-21.334-12-12 0-22.166 8.334-24.5 20.167-5 2.333-8.666 6.833-10 12.333-6.166 2-10.5 7.667-10.5 14.334 0 8.333 7 16.166 18.334 15v-3.334c-9.167 1.167-15.334-5.166-15-11.666.666-10.667 10-11.667 10-11.667 1.166-8.167 6.666-11.333 10.166-12.667 0 0 1-13.333 15-18.166 11.167-3.834 23.5 3.666 26.5 12.333 14.5-9.833 30.5 4.167 25.834 18.5 0 0 9.166 2.333 9.166 11.5 0 6.5-5 12.667-15 11.667V82.5c11.834 1.167 18.334-6.667 18.334-15 0-5.833-3.334-11.167-8.667-13.5z"/>
                        <path d="M123.833 57.5v40h30V70.167L141.167 57.5h-17.334zm18.334 5.667l6 6h-6v-6zm-15 31V60.833h11.666V72.5H150.5v21.667h-23.333zM157.167 84.167v40h30V96.833L174.5 84.167h-17.333zm18.333 5.666l6 6h-6v-6zm-15 31V87.5h11.667v11.667h11.666v21.666H160.5zM158.833 60.833v3.334H170.5V73.5l-2.167-2.167L166 73.667l6.167 6.166 6.166-6.166L176 71.333l-2.167 2.167V60.833zM137.167 108.167l2.166 2.166 2.334-2.333-6.167-6.167-6.167 6.167 2.334 2.333 2.166-2.166v12.666h15V117.5h-11.666z"/>
                    </g>
                    <path d="M143.232 52V41.568h2.352V52h-2.352zm4.816 0V41.568h3.584c2.288 0 4.144.832 4.144 3.36 0 2.448-1.872 3.536-4.08 3.536H150.4V52h-2.352zm2.352-5.408h1.152c1.296 0 1.92-.576 1.92-1.664s-.704-1.488-1.984-1.488H150.4v3.152zM157.584 52V41.568h6.576v1.984h-4.224v2.416h3.616v1.984h-3.616V52h-2.352zm11.136.192c-1.36 0-2.8-.512-3.856-1.504l1.344-1.616c.752.64 1.712 1.088 2.576 1.088.976 0 1.456-.384 1.456-1.008 0-.656-.592-.864-1.504-1.248l-1.36-.576c-1.072-.432-2.096-1.328-2.096-2.848 0-1.728 1.536-3.104 3.712-3.104 1.2 0 2.464.48 3.36 1.376l-1.2 1.488c-.688-.528-1.328-.832-2.16-.832-.816 0-1.328.352-1.328.944 0 .64.688.864 1.584 1.232l1.344.544c1.264.512 2.064 1.36 2.064 2.832 0 1.728-1.44 3.232-3.936 3.232z"/>
                </g>
            </g>
        </g>
        <path fill="#342B8A" fill-rule="nonzero" d="M320.917 46.952c10.308-2.687 11.18-.486 11.512.346.688 1.727-.902 3.703-5.152 6.405-.904.575-1.9 1.16-2.972 1.75v.047c0 6.892-5.608 12.5-12.5 12.5a12.467 12.467 0 0 1-9.12-3.96c-2.745.72-5.505 1.254-7.65 1.254-1.952 0-3.394-.443-3.851-1.592-.331-.832-1.206-3.03 8.122-8.153V55.5c0-6.892 5.607-12.5 12.5-12.5 3.589 0 6.83 1.52 9.111 3.952zm1.642 2.182a12.423 12.423 0 0 1 1.44 3.61c3.532-2.027 5.474-3.645 5.95-4.454-.732-.193-2.867-.252-7.39.844zM301.053 61.87a12.423 12.423 0 0 1-1.44-3.607c-4.034 2.307-5.545 3.815-5.945 4.459.903.259 3.425.101 7.385-.852z" mask="url(#c)" opacity=".622" transform="rotate(36 311.792 55.5)"/>
    </g>
</svg>
