<?xml version="1.0" encoding="UTF-8"?>
<svg width="29px" height="29px" viewBox="0 0 29 29" version="1.1" xmlns="http://www.w3.org/2000/svg" xmlns:xlink="http://www.w3.org/1999/xlink">
    <!-- Generator: sketchtool 50.2 (55047) - http://www.bohemiancoding.com/sketch -->
    <title>2035FD3D-7996-4042-B77C-4631A7756C5A</title>
    <desc>Created with sketchtool.</desc>
    <defs></defs>
    <g id="Page-1" stroke="none" stroke-width="1" fill="none" fill-rule="evenodd">
        <g id="Homepage-" transform="translate(-622.000000, -2888.000000)" fill="#CD4874" fill-rule="nonzero">
            <g id="Group-16" transform="translate(336.000000, 2720.000000)">
                <g id="Group-20" transform="translate(0.000000, 147.000000)">
                    <g id="Rectangle-6">
                        <g id="link" transform="translate(286.000000, 21.000000)">
                            <path d="M17.4433769,11.0137801 C17.1046868,10.6625635 16.7291462,10.3512344 16.3237343,10.0854909 C15.2499316,9.3766689 14.0015913,9.00001188 12.7265065,9.00001188 C10.9567309,8.99661598 9.25886966,9.72149656 8.009636,11.0137801 L1.94917216,17.2662061 C0.7020602,18.5542879 0.00111806436,20.2994923 1.38101483e-06,22.1193489 C-0.00234365401,25.9170002 2.98210425,28.9975413 6.6660426,28.9999587 C8.43308233,29.00629 10.1293802,28.2848629 11.3781671,26.9960328 L16.3809085,21.8388707 C16.4718066,21.7459727 16.5225598,21.6192308 16.521834,21.4873088 C16.5203264,21.2160397 16.3057557,20.9974359 16.0426093,20.99899 L15.8520473,20.99899 C14.8068317,21.0027888 13.7709404,20.7958691 12.8027759,20.3899729 C12.6243858,20.3142846 12.4193627,20.3569923 12.2834623,20.4980085 L8.68623444,24.2111652 C7.56921609,25.3626629 5.75817905,25.3626629 4.6411607,24.2111652 C3.52414235,23.0596676 3.52414235,21.1927289 4.6411607,20.0412313 L10.7254657,13.7740706 C11.8415907,12.6249328 13.6496686,12.6249328 14.7657936,13.7740706 C15.5179915,14.5038435 16.6912907,14.5038435 17.4434327,13.7740706 C17.7670476,13.4401788 17.9632488,12.9973306 17.9961352,12.5265093 C18.0309198,11.9638836 17.8296377,11.4128846 17.4433769,11.0137801 Z" id="Shape"></path>
                            <path d="M27.0472509,2.0140712 C24.4435575,-0.671357067 20.2221332,-0.671357067 17.6184398,2.0140712 L12.6230561,7.16131952 C12.4858875,7.30348485 12.4463217,7.51730841 12.5230536,7.70160533 C12.5988926,7.88642026 12.7761292,8.00504485 12.9706654,8.00118855 L13.1468418,8.00118855 C14.1902835,7.99923162 15.2239593,8.20775995 16.1897763,8.61514708 C16.3680732,8.69083429 16.5729891,8.64812714 16.7088185,8.50711294 L20.2946239,4.81363463 C21.4110585,3.66215301 23.2211492,3.66215301 24.3375838,4.81363463 C25.4540184,5.96511625 25.4540184,7.83202907 24.3375838,8.98351069 L19.870785,13.5855809 L19.8326702,13.6297845 L18.2707443,15.2309575 C17.1552026,16.3800793 15.3480696,16.3800793 14.2325279,15.2309575 C13.480723,14.5011947 12.308037,14.5011947 11.556288,15.2309575 C11.2307775,15.5673771 11.0345113,16.0140755 11.0038744,16.4882861 C10.9690521,17.050904 11.170229,17.6018953 11.556288,18.0010519 C12.1074738,18.5719579 12.7523563,19.037535 13.4610797,19.3762568 C13.5610822,19.4253528 13.6610848,19.4646641 13.7610873,19.5088677 C13.8610898,19.5530713 13.9658358,19.5874328 14.0658384,19.6267441 C14.1658409,19.6660554 14.2705869,19.7004168 14.3705894,19.7298859 L14.6515675,19.8084509 C14.84203,19.8575469 15.0325482,19.8968582 15.227754,19.9312196 C15.4629163,19.9672502 15.6997526,19.9902153 15.9373145,20 L16.2706377,20 L16.2992098,20 L16.5849314,19.9656386 C16.6896774,19.9607463 16.7992226,19.9361695 16.9230538,19.9361695 L17.0849441,19.9361695 L17.4135239,19.8870735 L17.5659273,19.8576044 L17.8421062,19.7986663 L17.8945071,19.7986663 C19.0642355,19.4956296 20.132343,18.8709655 20.9850432,17.9912096 L27.0470835,11.7388705 C29.6509443,9.05344222 29.6509443,4.69949947 27.0472509,2.0140712 Z" id="Shape"></path>
                        </g>
                    </g>
                </g>
            </g>
        </g>
    </g>
</svg>