<svg xmlns="http://www.w3.org/2000/svg" width="111" height="12" viewBox="0 0 111 12">
    <g fill="none" fill-rule="evenodd">
        <path fill="#CD4874" d="M18.062.135h17.222l-5.05 11.247H23.22z"/>
        <path fill="#FFF" d="M18.032.13h2.142l3.046 7.188L26.234.13h2.047l-5.125 11.586L18.032.13zm10.65 11.203L33.135.13h1.998l4.453 11.203h-1.983l-1.047-2.656h-4.844l-1.048 2.656h-1.982zm3.733-4.414h3.438l-1.72-4.367-1.718 4.367zm8.979 4.414V.13h1.967v11.203h-1.967zm4.894 0V.13h1.958v5.024L52.34.13h2.463l-4.493 5.508 5.044 5.695h-2.598L48.246 6.28v5.054h-1.958zM56.84 7.271V.13H58.8v6.898c0 .797.205 1.442.615 1.937.406.49 1.021.735 1.847.735.821 0 1.434-.245 1.839-.735.41-.495.616-1.14.616-1.937V.13h1.958v7.14c0 .636-.101 1.204-.304 1.704a3.9 3.9 0 0 1-.887 1.344 4.104 4.104 0 0 1-1.391.89c-.549.214-1.16.32-1.83.32-.678 0-1.29-.106-1.84-.32a4.104 4.104 0 0 1-1.39-.89 3.9 3.9 0 0 1-.888-1.344c-.202-.5-.304-1.068-.304-1.703zm11.537 4.062V.13h1.767l5.732 7.719V.13h1.959v11.203h-1.767l-5.732-7.695v7.695h-1.959zm11.17-9.375V.13h8.282v1.828h-3.158v9.375h-1.967V1.958h-3.157zm9.994 9.375V.13H91.5v4.563h4.901V.13h1.959v11.203H96.4V6.521h-4.9v4.812h-1.96zm10.394 0L104.389.13h1.998l4.453 11.203h-1.983l-1.047-2.656h-4.845l-1.047 2.656h-1.982zm3.733-4.414h3.438l-1.72-4.367-1.718 4.367z"/>
        <g fill="#CD4874">
            <path d="M0 0h5.992l-2.98 7.354L0 0zm8.017 0h4.793L8.415 11.515h-5.32L8.017 0z"/>
        </g>
    </g>
</svg>
