<?xml version="1.0" encoding="UTF-8"?>
<svg width="42px" height="42px" viewBox="0 0 42 42" version="1.1" xmlns="http://www.w3.org/2000/svg" xmlns:xlink="http://www.w3.org/1999/xlink">
    <!-- Generator: sketchtool 50.2 (55047) - http://www.bohemiancoding.com/sketch -->
    <title>8B837E7A-7DBC-49E6-9291-DF8161217484</title>
    <desc>Created with sketchtool.</desc>
    <defs></defs>
    <g id="Page-1" stroke="none" stroke-width="1" fill="none" fill-rule="evenodd" opacity="0.654854911">
        <g id="Homepage-" transform="translate(-1200.000000, -3767.000000)" fill="#FFFFFF" fill-rule="nonzero">
            <g id="Group-18" transform="translate(0.000000, 3663.000000)">
                <g id="Group-17">
                    <g id="Group-25" transform="translate(133.000000, 60.000000)">
                        <g id="Group-21" transform="translate(943.000000, 44.000000)">
                            <g id="twitter-circular-button-copy" transform="translate(124.000000, 0.000000)">
                                <g id="telegram" transform="translate(9.000000, 11.000000)">
                                    <path d="M0.388585395,9.11043098 L5.45783203,10.9871536 L7.41994127,17.2463146 C7.5454881,17.6471912 8.03968208,17.795365 8.36770251,17.5293505 L11.1933862,15.2444043 C11.4895799,15.0050131 11.9114671,14.9930835 12.2210076,15.2159625 L17.3175342,18.8862646 C17.6684347,19.1392585 18.165562,18.9485311 18.2535621,18.5279415 L21.9870403,0.714279421 C22.0831071,0.254846081 21.6279999,-0.128427235 21.1869726,0.0407687665 L0.382645387,8.00163706 C-0.130761952,8.19803826 -0.126288612,8.91904891 0.388585395,9.11043098 Z M7.10372752,9.98812614 L17.0109272,3.93555016 C17.1889807,3.82709305 17.3721676,4.06590237 17.2192674,4.20658383 L9.04295673,11.7454805 C8.75556302,12.0108403 8.57017611,12.3659628 8.51766937,12.7514184 L8.23914901,14.7987918 C8.20226229,15.0721532 7.81513512,15.0992857 7.73908835,14.834726 L6.66790695,11.1012845 C6.54522012,10.6754576 6.72400702,10.220607 7.10372752,9.98812614 Z" id="XMLID_497_"></path>
                                </g>
                                <path d="M42,21 C42,9.40223529 32.5976961,0 21,0 C9.40223529,0 0,9.40223529 0,21 C0,32.5976961 9.40223529,42 21,42 C32.5976961,42 42,32.5976961 42,21 Z M1.90907843,21 C1.90907843,10.4560784 10.4560784,1.90907843 21,1.90907843 C31.5439216,1.90907843 40.0909216,10.4560784 40.0909216,21 C40.0909216,31.5439216 31.5439216,40.0909216 21,40.0909216 C10.4560784,40.0909216 1.90907843,31.5439216 1.90907843,21 Z" id="Shape"></path>
                            </g>
                        </g>
                    </g>
                </g>
            </g>
        </g>
    </g>
</svg>