<?xml version="1.0" encoding="UTF-8"?>
<svg width="42px" height="42px" viewBox="0 0 42 42" version="1.1" xmlns="http://www.w3.org/2000/svg" xmlns:xlink="http://www.w3.org/1999/xlink">
    <!-- Generator: sketchtool 50.2 (55047) - http://www.bohemiancoding.com/sketch -->
    <title>3012FF6B-CF35-443C-8588-9456391D2F32</title>
    <desc>Created with sketchtool.</desc>
    <defs></defs>
    <g id="Page-1" stroke="none" stroke-width="1" fill="none" fill-rule="evenodd" opacity="0.654854911">
        <g id="Homepage-" transform="translate(-1262.000000, -3767.000000)" fill="#FFFFFF" fill-rule="nonzero">
            <g id="Group-18" transform="translate(0.000000, 3663.000000)">
                <g id="Group-17">
                    <g id="Group-25" transform="translate(133.000000, 60.000000)">
                        <g id="Group-21" transform="translate(943.000000, 44.000000)">
                            <g id="twitter-circular-button-copy-2" transform="translate(186.000000, 0.000000)">
                                <g id="telegram" transform="translate(8.000000, 11.000000)">
                                    <g id="wechat">
                                        <path d="M8.7040619,0 C3.89651838,0 0,3.26128852 0,7.28291317 C0,9.60179272 1.30270793,11.6584874 3.32350097,12.9898039 L2.17601547,15.2941176 L5.30222437,13.9496919 C5.97243714,14.1885714 6.66876209,14.3852101 7.41295938,14.4769748 C7.31141199,14.0327171 7.25338491,13.5768067 7.25338491,13.1092437 C7.25338491,9.09344538 11.1571567,5.82633053 15.9574468,5.82633053 C16.3970019,5.82633053 16.8264023,5.8627451 17.25,5.91518207 C16.4840426,2.54756303 12.9516441,0 8.7040619,0 Z M5.80270793,5.46218487 C5.20212766,5.46218487 4.71470019,4.97277311 4.71470019,4.3697479 C4.71470019,3.76672269 5.20212766,3.27731092 5.80270793,3.27731092 C6.4032882,3.27731092 6.89071567,3.76672269 6.89071567,4.3697479 C6.89071567,4.97277311 6.4032882,5.46218487 5.80270793,5.46218487 Z M11.6054159,5.46218487 C11.0048356,5.46218487 10.5174081,4.97277311 10.5174081,4.3697479 C10.5174081,3.76672269 11.0048356,3.27731092 11.6054159,3.27731092 C12.2059961,3.27731092 12.6934236,3.76672269 12.6934236,4.3697479 C12.6934236,4.97277311 12.2059961,5.46218487 11.6054159,5.46218487 Z" id="Shape"></path>
                                        <path d="M23,12.8104575 C23,9.63411765 19.91018,7.05882353 16.1,7.05882353 C12.28982,7.05882353 9.2,9.63411765 9.2,12.8104575 C9.2,15.9867974 12.28982,18.5620915 16.1,18.5620915 C16.72652,18.5620915 17.32268,18.4700654 17.9009,18.3392157 L21.62,20 L20.33384,17.3211765 C21.94568,16.2686275 23,14.6495425 23,12.8104575 Z M14.03,12.4509804 C13.45868,12.4509804 12.995,11.9678431 12.995,11.372549 C12.995,10.7772549 13.45868,10.2941176 14.03,10.2941176 C14.60132,10.2941176 15.065,10.7772549 15.065,11.372549 C15.065,11.9678431 14.60132,12.4509804 14.03,12.4509804 Z M18.17,12.4509804 C17.59868,12.4509804 17.135,11.9678431 17.135,11.372549 C17.135,10.7772549 17.59868,10.2941176 18.17,10.2941176 C18.74132,10.2941176 19.205,10.7772549 19.205,11.372549 C19.205,11.9678431 18.74132,12.4509804 18.17,12.4509804 Z" id="Shape"></path>
                                    </g>
                                </g>
                                <path d="M42,21 C42,9.40223529 32.5976961,0 21,0 C9.40223529,0 0,9.40223529 0,21 C0,32.5976961 9.40223529,42 21,42 C32.5976961,42 42,32.5976961 42,21 Z M1.90907843,21 C1.90907843,10.4560784 10.4560784,1.90907843 21,1.90907843 C31.5439216,1.90907843 40.0909216,10.4560784 40.0909216,21 C40.0909216,31.5439216 31.5439216,40.0909216 21,40.0909216 C10.4560784,40.0909216 1.90907843,31.5439216 1.90907843,21 Z" id="Shape"></path>
                            </g>
                        </g>
                    </g>
                </g>
            </g>
        </g>
    </g>
</svg>