<?xml version="1.0" encoding="UTF-8"?>
<svg width="42px" height="42px" viewBox="0 0 42 42" version="1.1" xmlns="http://www.w3.org/2000/svg" xmlns:xlink="http://www.w3.org/1999/xlink">
    <!-- Generator: sketchtool 50.2 (55047) - http://www.bohemiancoding.com/sketch -->
    <title>7ACCE3BC-792C-4480-9685-F3CC9BC0F35C</title>
    <desc>Created with sketchtool.</desc>
    <defs></defs>
    <g id="Page-1" stroke="none" stroke-width="1" fill="none" fill-rule="evenodd" opacity="0.654854911">
        <g id="Homepage-" transform="translate(-1138.000000, -3767.000000)" fill="#FFFFFF" fill-rule="nonzero">
            <g id="Group-18" transform="translate(0.000000, 3663.000000)">
                <g id="Group-17">
                    <g id="Group-25" transform="translate(133.000000, 60.000000)">
                        <g id="Group-21" transform="translate(943.000000, 44.000000)">
                            <g id="twitter-circular-button" transform="translate(62.000000, 0.000000)">
                                <path d="M30.0052255,16.8248431 C30.0052255,16.6129216 30.0013824,16.4029216 29.9918431,16.1948431 C30.8986863,15.519 31.6852255,14.6733039 32.3076078,13.7053824 C31.4752255,14.0796078 30.5817647,14.3296863 29.6424608,14.4346176 C30.6008431,13.8446961 31.3358431,12.9016176 31.6833039,11.7695392 C30.786,12.3136176 29.7933039,12.7030784 28.7375392,12.9054608 C27.8918431,11.9432353 26.6853039,11.3304608 25.3507745,11.3075392 C22.7887745,11.2655392 20.7116961,13.4304608 20.7116961,16.1432353 C20.7116961,16.5288529 20.7517745,16.9030784 20.8319314,17.2638529 C16.9736961,17.0156961 13.5545392,15.0073137 11.2673922,11.9795392 C10.8683922,12.705 10.6393137,13.5526176 10.6393137,14.4613824 C10.6393137,16.1796078 11.4583137,17.7068431 12.7030098,18.6079216 C11.9413137,18.5736078 11.2273137,18.3426078 10.6011569,17.9645392 C10.6011569,17.9855392 10.6011569,18.0065392 10.6011569,18.0275392 C10.6011569,20.4292255 12.201,22.4413824 14.3238529,22.911 C13.9343922,23.0216961 13.5239314,23.079 13.1020098,23.0771471 C12.8023137,23.0752255 12.5120882,23.0427647 12.229549,22.9816176 C12.8194706,24.9499216 14.5338529,26.3874608 16.5631667,26.4351569 C14.9747843,27.7523922 12.9740882,28.5389314 10.801549,28.5332353 C10.4273235,28.5332353 10.0570098,28.5084608 9.6942451,28.4626176 C11.7484706,29.8715392 14.1863235,30.6923922 16.8074804,30.6923922 C25.3393137,30.6943824 30.0052255,23.268 30.0052255,16.8248431 Z" id="Shape"></path>
                                <path d="M42,21 C42,9.40223529 32.5976961,0 21,0 C9.40223529,0 0,9.40223529 0,21 C0,32.5976961 9.40223529,42 21,42 C32.5976961,42 42,32.5976961 42,21 Z M1.90907843,21 C1.90907843,10.4560784 10.4560784,1.90907843 21,1.90907843 C31.5439216,1.90907843 40.0909216,10.4560784 40.0909216,21 C40.0909216,31.5439216 31.5439216,40.0909216 21,40.0909216 C10.4560784,40.0909216 1.90907843,31.5439216 1.90907843,21 Z" id="Shape"></path>
                            </g>
                        </g>
                    </g>
                </g>
            </g>
        </g>
    </g>
</svg>