<?xml version="1.0" encoding="UTF-8"?>
<svg width="148px" height="20px" viewBox="0 0 148 20" version="1.1" xmlns="http://www.w3.org/2000/svg" xmlns:xlink="http://www.w3.org/1999/xlink">
    <!-- Generator: Sketch 50.2 (55047) - http://www.bohemiancoding.com/sketch -->
    <title>UFO.CLUB</title>
    <desc>Created with Sketch.</desc>
    <defs></defs>
    <g id="Desktop" stroke="none" stroke-width="1" fill="none" fill-rule="evenodd">
        <g id="Homepage-" transform="translate(-846.000000, -2893.000000)" fill="#AEBDD0">
            <g id="Group-16" transform="translate(336.000000, 2720.000000)">
                <g id="Group-20" transform="translate(400.000000, 147.000000)">
                    <path d="M110.904297,27.0068359 L114.725098,27.0068359 L114.725098,38.0664062 C114.725098,39.3033916 114.871581,40.2067029 115.164551,40.7763672 C115.620282,41.7854868 116.613111,42.2900391 118.143066,42.2900391 C119.664884,42.2900391 120.653644,41.7854868 121.109375,40.7763672 C121.402345,40.2067029 121.548828,39.3033916 121.548828,38.0664062 L121.548828,27.0068359 L125.369629,27.0068359 L125.369629,38.0664062 C125.369629,39.9788507 125.072594,41.4680936 124.478516,42.5341797 C123.371739,44.4873145 121.259944,45.4638672 118.143066,45.4638672 C115.026189,45.4638672 112.910325,44.4873145 111.79541,42.5341797 C111.201332,41.4680936 110.904297,39.9788507 110.904297,38.0664062 L110.904297,27.0068359 Z M131.858496,27.03125 L144.614844,27.03125 L144.614844,30.1928711 L135.593848,30.1928711 L135.593848,34.3310547 L143.491797,34.3310547 L143.491797,37.4560547 L135.593848,37.4560547 L135.593848,45 L131.858496,45 L131.858496,27.03125 Z M157.988477,42.3144531 C159.477742,42.3144531 160.659778,41.7651422 161.534619,40.6665039 C162.409461,39.5678656 162.846875,38.0053812 162.846875,35.9790039 C162.846875,33.9607646 162.409461,32.4003148 161.534619,31.2976074 C160.659778,30.1949001 159.477742,29.6435547 157.988477,29.6435547 C156.499211,29.6435547 155.311072,30.1928656 154.424023,31.2915039 C153.536975,32.3901422 153.093457,33.9526266 153.093457,35.9790039 C153.093457,38.0053812 153.536975,39.5678656 154.424023,40.6665039 C155.311072,41.7651422 156.499211,42.3144531 157.988477,42.3144531 Z M166.606641,35.9790039 C166.606641,39.2098143 165.69926,41.6837479 163.884473,43.4008789 C162.525416,44.8006255 160.560104,45.5004883 157.988477,45.5004883 C155.416849,45.5004883 153.451537,44.8006255 152.09248,43.4008789 C150.269555,41.6837479 149.358105,39.2098143 149.358105,35.9790039 C149.358105,32.683089 150.269555,30.2091554 152.09248,28.5571289 C153.451537,27.1573823 155.416849,26.4575195 157.988477,26.4575195 C160.560104,26.4575195 162.525416,27.1573823 163.884473,28.5571289 C165.69926,30.2091554 166.606641,32.683089 166.606641,35.9790039 Z M172.033496,41.3623047 L175.732227,41.3623047 L175.732227,45 L172.033496,45 L172.033496,41.3623047 Z M181.439844,36.1499023 C181.439844,33.0086106 182.28212,30.5875736 183.966699,28.8867188 C185.43155,27.4055916 187.295138,26.6650391 189.55752,26.6650391 C192.584878,26.6650391 194.798398,27.6578677 196.198145,29.6435547 C196.97126,30.7584691 197.386295,31.8774358 197.443262,33.0004883 L193.683496,33.0004883 C193.439354,32.1378538 193.126044,31.4868186 192.743555,31.0473633 C192.059958,30.2661094 191.046784,29.8754883 189.704004,29.8754883 C188.33681,29.8754883 187.258533,30.4268337 186.469141,31.529541 C185.679749,32.6322484 185.285059,34.1926982 185.285059,36.2109375 C185.285059,38.2291768 185.702128,39.740799 186.536279,40.7458496 C187.370431,41.7509002 188.430397,42.253418 189.716211,42.253418 C191.034577,42.253418 192.039612,41.8221072 192.731348,40.9594727 C193.113837,40.4956031 193.431216,39.7998093 193.683496,38.8720703 L197.406641,38.8720703 C197.081118,40.8333431 196.249014,42.4283793 194.910303,43.6572266 C193.571592,44.8860739 191.856521,45.5004883 189.765039,45.5004883 C187.177135,45.5004883 185.142651,44.6704185 183.661523,43.0102539 C182.180396,41.3419513 181.439844,39.0551903 181.439844,36.1499023 Z M203.175293,27.0068359 L206.935059,27.0068359 L206.935059,41.7651367 L215.846191,41.7651367 L215.846191,45 L203.175293,45 L203.175293,27.0068359 Z M221.346289,27.0068359 L225.16709,27.0068359 L225.16709,38.0664062 C225.16709,39.3033916 225.313573,40.2067029 225.606543,40.7763672 C226.062274,41.7854868 227.055103,42.2900391 228.585059,42.2900391 C230.106876,42.2900391 231.095636,41.7854868 231.551367,40.7763672 C231.844337,40.2067029 231.99082,39.3033916 231.99082,38.0664062 L231.99082,27.0068359 L235.811621,27.0068359 L235.811621,38.0664062 C235.811621,39.9788507 235.514586,41.4680936 234.920508,42.5341797 C233.813731,44.4873145 231.701936,45.4638672 228.585059,45.4638672 C225.468181,45.4638672 223.352317,44.4873145 222.237402,42.5341797 C221.643324,41.4680936 221.346289,39.9788507 221.346289,38.0664062 L221.346289,27.0068359 Z M245.950391,30.1318359 L245.950391,34.0991211 L250.369336,34.0991211 C251.158728,34.0991211 251.799591,33.9506037 252.291943,33.6535645 C252.784296,33.3565252 253.030469,32.8295936 253.030469,32.0727539 C253.030469,31.2345336 252.704951,30.6811537 252.053906,30.4125977 C251.49238,30.2254222 250.776241,30.1318359 249.905469,30.1318359 L245.950391,30.1318359 Z M245.950391,37.0776367 L245.950391,41.875 L250.369336,41.875 C251.158728,41.875 251.773142,41.7692068 252.212598,41.5576172 C253.010128,41.1669902 253.408887,40.4182998 253.408887,39.3115234 C253.408887,38.3756464 253.022335,37.7327491 252.249219,37.3828125 C251.817901,37.187499 251.211625,37.0857748 250.430371,37.0776367 L245.950391,37.0776367 Z M251.101758,27.0068359 C253.307172,27.0393882 254.869657,27.6782164 255.789258,28.9233398 C256.342646,29.6883176 256.619336,30.6038358 256.619336,31.6699219 C256.619336,32.7685602 256.342646,33.6515266 255.789258,34.3188477 C255.480011,34.6931985 255.024287,35.0349919 254.42207,35.3442383 C255.341671,35.6778988 256.035431,36.2068649 256.503369,36.9311523 C256.971308,37.6554398 257.205273,38.5343373 257.205273,39.5678711 C257.205273,40.6339572 256.936721,41.590165 256.399609,42.4365234 C256.057811,42.9980497 255.630569,43.4700502 255.117871,43.8525391 C254.540069,44.2919944 253.858516,44.5930981 253.073193,44.7558594 C252.28787,44.9186206 251.435421,45 250.51582,45 L242.361523,45 L242.361523,27.0068359 L251.101758,27.0068359 Z" id="UFO.CLUB"></path>
                </g>
            </g>
        </g>
    </g>
</svg>