<svg xmlns="http://www.w3.org/2000/svg" width="34" height="22" viewBox="0 0 34 22">
    <path fill="#CD4874" fill-rule="nonzero" d="M27.804 3.287v3.249c0 .075.19.226.303.226h3.097c.19 0 .454-.113.454-.226v-3.25c0-.075-.265-.226-.454-.226h-3.097c-.114.038-.303.151-.303.227zm0 5.93v3.023c0 .227.152.416.303.416h3.097c.227 0 .454-.19.454-.416V9.218c0-.19-.265-.416-.454-.416h-3.097c-.114 0-.303.265-.303.416zm0 5.78v3.099c0 .188.152.302.303.302h3.097c.227 0 .454-.151.454-.302v-3.098c0-.19-.227-.302-.454-.302h-3.097a.325.325 0 0 0-.303.302zM13.298 6.272v9.822c0 .454.415.794.793.454l7.405-4.874c.188-.113.302-.264.302-.49 0-.227-.114-.34-.302-.416l-7.405-4.95c-.302-.113-.793.039-.793.454zM2.342 3.287v3.249c0 .075.227.226.378.226h3.136c.113 0 .302-.113.302-.226v-3.25c0-.075-.19-.226-.302-.226H2.72c-.151.038-.378.151-.378.227zm0 5.93v3.023c0 .227.227.416.378.416h3.136c.15 0 .302-.19.302-.416V9.218c0-.19-.19-.416-.302-.416H2.72c-.151 0-.378.265-.378.416zm0 5.78v3.099c0 .188.227.302.378.302h3.136a.325.325 0 0 0 .302-.302v-3.098a.298.298 0 0 0-.302-.302H2.72c-.151 0-.378.15-.378.302zM0 19.078V2.457C0 1.058 1.133 0 2.493 0h29.014C32.867 0 34 1.058 34 2.456V19.04c0 1.36-1.133 2.418-2.493 2.418H2.493C1.133 21.496 0 20.4 0 19.078z"/>
</svg>
