<svg width="100" height="58" viewBox="0 0 100 58" fill="none" xmlns="http://www.w3.org/2000/svg">
<path d="M49.9871 26.3042C57.3812 26.3042 63.325 20.4047 63.325 13.1543C63.3336 5.8826 57.3812 0 49.9871 0C42.6443 0 36.6836 5.8826 36.6836 13.1543C36.6836 20.4134 42.6445 26.3042 49.9871 26.3042Z" fill="#007A33"/>
<path d="M60.6858 28.4472H39.3229C35.5035 28.4472 32.375 31.9031 32.375 36.1424V57.3179C32.375 57.5508 32.4952 57.7583 32.5081 57.9998H67.4878C67.5135 57.7585 67.6124 57.551 67.6124 57.3179V36.1424C67.6251 31.9031 64.4967 28.4472 60.6858 28.4472Z" fill="#007A33"/>
<path d="M85.8639 32.5806C91.799 32.5806 96.5582 27.867 96.5582 22.0437C96.5582 16.2204 91.799 11.4984 85.8639 11.4984C79.9717 11.4984 75.2039 16.2204 75.2039 22.0437C75.1911 27.8629 79.9719 32.5806 85.8639 32.5806Z" fill="#007A33"/>
<path d="M94.4425 34.3002H77.3238C74.251 34.3002 71.7405 37.0699 71.7405 40.4792V57.4452C71.7405 57.6274 71.8306 57.8009 71.8435 58H99.9013C99.9142 57.8009 99.9999 57.6274 99.9999 57.4452V40.4792C100.013 37.0699 97.5067 34.3002 94.4425 34.3002Z" fill="#007A33"/>
<path d="M14.1276 32.5806C20.0541 32.5806 24.8177 27.867 24.8177 22.0437C24.8177 16.2204 20.0541 11.4984 14.1276 11.4984C8.23118 11.4984 3.46338 16.2204 3.46338 22.0437C3.46338 27.867 8.23118 32.5806 14.1276 32.5806Z" fill="#007A33"/>
<path d="M22.7018 34.3002H5.56599C2.50198 34.3002 0 37.0699 0 40.4792V57.4452C0 57.6274 0.0901237 57.8009 0.107233 58H28.165C28.1779 57.8009 28.2595 57.6274 28.2595 57.4452V40.4792C28.268 37.0699 25.7617 34.3002 22.7018 34.3002Z" fill="#007A33"/>
</svg>
