<svg width="51" height="58" viewBox="0 0 51 58" fill="none" xmlns="http://www.w3.org/2000/svg">
<path d="M20.6003 9.82186C23.3066 9.82186 25.5 7.62304 25.5 4.91129C25.4999 2.19882 23.3066 0 20.6003 0C17.8945 0 15.7004 2.19882 15.7004 4.91129C15.7003 7.62304 17.8945 9.82186 20.6003 9.82186Z" fill="#007A33"/>
<path d="M50.4941 42.8481L44.1406 37.3746C44.0982 37.3382 44.0547 37.3048 44.0101 37.2742C42.4632 36.0645 40.5398 35.4977 38.5792 35.6761C36.98 35.8217 35.4942 36.452 34.2926 37.478L27.5483 31.6683C27.7265 31.381 27.8652 31.0485 27.9492 30.6705C29.507 23.6623 31.6433 14.6531 24.9215 12.0045C21.68 10.7272 17.5714 10.9041 15.193 12.8185C13.2983 14.3433 12.405 15.0576 10.1812 16.7072L6.36102 13.4163C6.21984 12.9794 6.07238 12.553 5.91306 12.1618C5.51207 11.1783 4.27992 10.5455 3.24887 10.7354L1.72049 9.41866C1.53803 9.26123 1.26268 9.28204 1.10561 9.46479L0.105394 10.6316C-0.0516784 10.8147 -0.0306798 11.0904 0.151662 11.2477L1.50481 12.4134C1.37076 13.1436 1.46851 14.2351 1.94898 15.9425C2.61583 18.3123 5.90523 25.4438 9.37091 23.5278C10.3455 22.9891 11.3064 22.3494 12.2408 21.662L14.6457 23.7337C14.6085 31.7559 14.4872 48.7378 14.2177 55.2904C14.0678 58.9106 19.6701 58.8955 19.8174 55.2904C20.0795 48.9095 20.1445 42.5247 20.1609 36.1395C20.4257 36.1546 20.6925 36.1526 20.9573 36.1359C20.9726 42.5219 21.038 48.9043 21.3006 55.2905C21.4487 58.8956 27.0487 58.9107 26.9008 55.2905C26.7219 50.9626 26.6344 41.9387 26.5919 34.0248L32.7239 39.3072C31.8922 40.6522 31.4937 42.2188 31.5903 43.8254C31.7087 45.7946 32.5569 47.6157 33.9825 48.9662C34.0192 49.006 34.0589 49.044 34.1011 49.0805L40.4547 54.5538C41.0633 55.0782 41.9807 55.0085 42.5037 54.3987L50.6487 44.9013C51.1721 44.2915 51.1026 43.3721 50.4941 42.8481Z" fill="#007A33"/>
</svg>
