<svg width="191" height="70" viewBox="0 0 191 70" fill="none" xmlns="http://www.w3.org/2000/svg">
<path d="M190.844 70C178.101 29.4289 140.198 0 95.422 0C50.6456 0 12.7426 29.4289 0 70H5.25604C17.8153 32.2342 53.4382 5 95.422 5C137.406 5 173.029 32.2342 185.588 70H190.844Z" fill="#F2F2F2"/>
<path d="M180.301 70C167.946 35.0442 134.609 10 95.422 10C56.2355 10 22.8983 35.0442 10.5432 70H15.8676C27.9938 37.8597 59.0383 15 95.422 15C131.806 15 162.85 37.8597 174.977 70H180.301Z" fill="#BDBDBD"/>
<path d="M185.588 70C173.029 32.2342 137.406 5 95.422 5C53.4383 5 17.8154 32.2342 5.2561 70H10.5432C22.8983 35.0442 56.2355 10 95.422 10C134.609 10 167.946 35.0442 180.301 70H185.588Z" fill="#E0E0E0"/>
</svg>
