<svg width="137" height="85" viewBox="0 0 137 85" fill="none" xmlns="http://www.w3.org/2000/svg">
<path d="M41.746 15.352L41.629 61.928H0V42.946L10.254 39.221L15.788 15.352H41.746Z" fill="#DE3129"/>
<path d="M50.181 0L44.969 52.451L118.028 59.475L136.7 33.841L134.545 30.325L124.151 39.176L125.168 24.932L119.196 6.491L50.181 0Z" fill="#E1A40B"/>
<path d="M106.637 31.838C105.547 43.024 95.559 51.216 84.323 50.134C73.085 49.055 64.86 39.106 65.946 27.916C67.036 16.731 77.022 8.53698 88.262 9.61998C99.496 10.702 107.723 20.652 106.637 31.838Z" fill="#E8DA7D"/>
<path d="M15.201 39.338H37.42V19.077H19.002L15.201 39.338Z" fill="white"/>
<path d="M118.029 58.2H0V70.467H118.029V58.2Z" fill="#A89F09"/>
<path d="M32.508 73.339C32.508 79.512 27.485 84.516 21.282 84.516C15.081 84.516 10.056 79.512 10.056 73.339C10.056 67.163 15.08 62.158 21.282 62.158C27.485 62.158 32.508 67.163 32.508 73.339Z" fill="#744E21"/>
<path d="M21.283 80.593C25.3081 80.593 28.571 77.3452 28.571 73.339C28.571 69.3327 25.3081 66.085 21.283 66.085C17.258 66.085 13.995 69.3327 13.995 73.339C13.995 77.3452 17.258 80.593 21.283 80.593Z" fill="#E8DA7D"/>
<path d="M111.793 73.339C111.793 79.512 106.768 84.516 100.568 84.516C94.363 84.516 89.339 79.512 89.339 73.339C89.339 67.163 94.362 62.158 100.568 62.158C106.768 62.158 111.793 67.163 111.793 73.339Z" fill="#744E21"/>
<path d="M100.568 80.593C104.593 80.593 107.856 77.3452 107.856 73.339C107.856 69.3327 104.593 66.085 100.568 66.085C96.543 66.085 93.28 69.3327 93.28 73.339C93.28 77.3452 96.543 80.593 100.568 80.593Z" fill="#E8DA7D"/>
<path d="M85.6 73.339C85.6 79.512 80.575 84.516 74.373 84.516C68.171 84.516 63.146 79.512 63.146 73.339C63.146 67.163 68.171 62.158 74.373 62.158C80.575 62.158 85.6 67.163 85.6 73.339Z" fill="#744E21"/>
<path d="M81.659 73.339C81.659 77.343 78.401 80.593 74.374 80.593C70.345 80.593 67.087 77.343 67.087 73.339C67.087 69.332 70.345 66.083 74.374 66.083C78.401 66.083 81.659 69.332 81.659 73.339Z" fill="#E8DA7D"/>
</svg>
