<svg width="52" height="34" viewBox="0 0 52 34" fill="none" xmlns="http://www.w3.org/2000/svg">
<g opacity="0.8">
<path d="M45.4318 26.7547C49.0562 26.7547 51.9944 23.8166 51.9944 20.1922C51.9944 16.5678 49.0562 13.6296 45.4318 13.6296C41.8074 13.6296 38.8693 16.5678 38.8693 20.1922C38.8693 23.8166 41.8074 26.7547 45.4318 26.7547Z" fill="white"/>
<path d="M32.3068 25.241C39.2769 25.241 44.9273 19.5906 44.9273 12.6205C44.9273 5.65038 39.2769 0 32.3068 0C25.3366 0 19.6862 5.65038 19.6862 12.6205C19.6862 19.5906 25.3366 25.241 32.3068 25.241Z" fill="white"/>
<path d="M39.3739 30.7915C42.7188 30.7915 45.4304 28.0799 45.4304 24.735C45.4304 21.3901 42.7188 18.6785 39.3739 18.6785C36.029 18.6785 33.3174 21.3901 33.3174 24.735C33.3174 28.0799 36.029 30.7915 39.3739 30.7915Z" fill="white"/>
<path d="M19.1816 33.3173C26.1518 33.3173 31.8021 27.6669 31.8021 20.6968C31.8021 13.7267 26.1518 8.07629 19.1816 8.07629C12.2115 8.07629 6.5611 13.7267 6.5611 20.6968C6.5611 27.6669 12.2115 33.3173 19.1816 33.3173Z" fill="white"/>
<path d="M7.06715 28.7731C10.9702 28.7731 14.1343 25.6091 14.1343 21.706C14.1343 17.8029 10.9702 14.6389 7.06715 14.6389C3.16408 14.6389 0 17.8029 0 21.706C0 25.6091 3.16408 28.7731 7.06715 28.7731Z" fill="white"/>
<path d="M32.3067 33.3173C37.604 33.3173 41.8982 29.023 41.8982 23.7258C41.8982 18.4285 37.604 14.1342 32.3067 14.1342C27.0094 14.1342 22.7151 18.4285 22.7151 23.7258C22.7151 29.023 27.0094 33.3173 32.3067 33.3173Z" fill="white"/>
</g>
</svg>
