<svg width="74" height="48" viewBox="0 0 74 48" fill="none" xmlns="http://www.w3.org/2000/svg">
<g opacity="0.8">
<path d="M9.34056 38.3794C14.4992 38.3794 18.6811 34.1975 18.6811 29.0388C18.6811 23.8802 14.4992 19.6983 9.34056 19.6983C4.18193 19.6983 0 23.8802 0 29.0388C0 34.1975 4.18193 38.3794 9.34056 38.3794Z" fill="white"/>
<path d="M28.02 36.2236C37.9401 36.2236 45.9819 28.1818 45.9819 18.2617C45.9819 8.34161 37.9401 0.299805 28.02 0.299805C18.0999 0.299805 10.058 8.34161 10.058 18.2617C10.058 28.1818 18.0999 36.2236 28.02 36.2236Z" fill="white"/>
<path d="M17.962 44.1258C22.7234 44.1258 26.5833 40.2658 26.5833 35.5044C26.5833 30.7429 22.7234 26.883 17.962 26.883C13.2005 26.883 9.34058 30.7429 9.34058 35.5044C9.34058 40.2658 13.2005 44.1258 17.962 44.1258Z" fill="white"/>
<path d="M46.6992 47.7182C56.6193 47.7182 64.6611 39.6763 64.6611 29.7563C64.6611 19.8362 56.6193 11.7944 46.6992 11.7944C36.7792 11.7944 28.7373 19.8362 28.7373 29.7563C28.7373 39.6763 36.7792 47.7182 46.6992 47.7182Z" fill="white"/>
<path d="M63.942 41.2526C69.4969 41.2526 74 36.7495 74 31.1946C74 25.6397 69.4969 21.1366 63.942 21.1366C58.3871 21.1366 53.884 25.6397 53.884 31.1946C53.884 36.7495 58.3871 41.2526 63.942 41.2526Z" fill="white"/>
<path d="M28.02 47.7182C35.5589 47.7182 41.6703 41.6067 41.6703 34.0679C41.6703 26.529 35.5589 20.4175 28.02 20.4175C20.4811 20.4175 14.3696 26.529 14.3696 34.0679C14.3696 41.6067 20.4811 47.7182 28.02 47.7182Z" fill="white"/>
</g>
</svg>
