<svg width="65" height="42" viewBox="0 0 65 42" fill="none" xmlns="http://www.w3.org/2000/svg">
<g opacity="0.8">
<path d="M8.20337 33.7929C12.734 33.7929 16.4067 30.1201 16.4067 25.5895C16.4067 21.0589 12.734 17.3861 8.20337 17.3861C3.67275 17.3861 0 21.0589 0 25.5895C0 30.1201 3.67275 33.7929 8.20337 33.7929Z" fill="white"/>
<path d="M24.6101 31.8998C33.3228 31.8998 40.3859 24.8368 40.3859 16.1241C40.3859 7.41134 33.3228 0.348267 24.6101 0.348267C15.8974 0.348267 8.83432 7.41134 8.83432 16.1241C8.83432 24.8368 15.8974 31.8998 24.6101 31.8998Z" fill="white"/>
<path d="M15.7794 38.8411C19.9615 38.8411 23.3519 35.4508 23.3519 31.2687C23.3519 27.0866 19.9615 23.6964 15.7794 23.6964C11.5973 23.6964 8.20712 27.0866 8.20712 31.2687C8.20712 35.4508 11.5973 38.8411 15.7794 38.8411Z" fill="white"/>
<path d="M41.0207 41.9962C49.7335 41.9962 56.7965 34.9331 56.7965 26.2204C56.7965 17.5077 49.7335 10.4446 41.0207 10.4446C32.308 10.4446 25.2449 17.5077 25.2449 26.2204C25.2449 34.9331 32.308 41.9962 41.0207 41.9962Z" fill="white"/>
<path d="M56.1656 36.3206C61.0447 36.3206 65 32.3653 65 27.4862C65 22.607 61.0447 18.6517 56.1656 18.6517C51.2864 18.6517 47.3311 22.607 47.3311 27.4862C47.3311 32.3653 51.2864 36.3206 56.1656 36.3206Z" fill="white"/>
<path d="M24.614 42.0001C31.2357 42.0001 36.6036 36.6322 36.6036 30.0105C36.6036 23.3889 31.2357 18.0209 24.614 18.0209C17.9923 18.0209 12.6243 23.3889 12.6243 30.0105C12.6243 36.6322 17.9923 42.0001 24.614 42.0001Z" fill="white"/>
</g>
</svg>
