<svg width="56" height="36" viewBox="0 0 56 36" fill="none" xmlns="http://www.w3.org/2000/svg">
<g opacity="0.8">
<path d="M48.159 28.3608C52.001 28.3608 55.1155 25.2463 55.1155 21.4043C55.1155 17.5623 52.001 14.4478 48.159 14.4478C44.317 14.4478 41.2025 17.5623 41.2025 21.4043C41.2025 25.2463 44.317 28.3608 48.159 28.3608Z" fill="white"/>
<path d="M34.2461 26.7562C41.6346 26.7562 47.6242 20.7666 47.6242 13.3781C47.6242 5.98956 41.6346 0 34.2461 0C26.8576 0 20.868 5.98956 20.868 13.3781C20.868 20.7666 26.8576 26.7562 34.2461 26.7562Z" fill="white"/>
<path d="M41.7375 32.6398C45.2832 32.6398 48.1575 29.7655 48.1575 26.2198C48.1575 22.6741 45.2832 19.7997 41.7375 19.7997C38.1918 19.7997 35.3174 22.6741 35.3174 26.2198C35.3174 29.7655 38.1918 32.6398 41.7375 32.6398Z" fill="white"/>
<path d="M20.3331 35.3173C27.7216 35.3173 33.7112 29.3277 33.7112 21.9392C33.7112 14.5507 27.7216 8.5611 20.3331 8.5611C12.9446 8.5611 6.95496 14.5507 6.95496 21.9392C6.95496 29.3277 12.9446 35.3173 20.3331 35.3173Z" fill="white"/>
<path d="M7.49138 30.5003C11.6288 30.5003 14.9827 27.1463 14.9827 23.0089C14.9827 18.8716 11.6288 15.5176 7.49138 15.5176C3.35401 15.5176 0 18.8716 0 23.0089C0 27.1463 3.35401 30.5003 7.49138 30.5003Z" fill="white"/>
<path d="M34.2461 35.3173C39.8613 35.3173 44.4134 30.7652 44.4134 25.15C44.4134 19.5347 39.8613 14.9827 34.2461 14.9827C28.6308 14.9827 24.0787 19.5347 24.0787 25.15C24.0787 30.7652 28.6308 35.3173 34.2461 35.3173Z" fill="white"/>
</g>
</svg>
