<svg width="60" height="58" viewBox="0 0 60 58" fill="none" xmlns="http://www.w3.org/2000/svg">
<path d="M21.3904 41.578L30.6244 31.7002L37.9575 36.5934C40.6074 32.621 40.5848 27.6474 38.319 23.7932L44.6414 14.3247C47.4691 14.2627 50.2323 12.8874 51.9619 10.3842L36.9224 0C35.1348 2.59375 34.8672 5.78457 35.9309 8.51501L29.606 17.9835C25.1744 17.3705 20.5776 19.2548 17.9243 23.2272L25.2608 28.1186L19.1474 41.6065L9.06367 38.1825L0 54.4075L12.0164 57.9992L18.7615 44.3906L18.863 44.2782L12.0684 57.9983L27.6163 54.4578L34.5074 38.4811L21.3904 41.578Z" fill="#007A33"/>
<path d="M34.5572 38.4828L27.6729 54.4595L40.1657 58.0001L45.9696 42.1441L34.5572 38.4828Z" fill="#007A33"/>
<path d="M46.0182 42.1439L40.2168 57.9999L55.2832 54.5164L60 38.7854L46.0182 42.1439Z" fill="#007A33"/>
</svg>
