<svg width="68" height="100" viewBox="0 0 68 100" fill="none" xmlns="http://www.w3.org/2000/svg">
<path d="M51.0437 45.971C50.4232 46.9247 50.0918 48.0505 50.0918 49.188C50.0918 51.0779 51.0212 52.8853 52.555 53.9885C54.1106 55.1068 56.1671 55.3983 57.9729 54.7584C59.7284 54.1361 61.1201 52.6779 61.6573 50.8944C62.2096 49.0608 61.8225 47.025 60.6339 45.5238C59.4556 44.0362 57.5996 43.1944 55.7047 43.2877C53.8252 43.3795 52.0692 44.3937 51.0437 45.971Z" fill="#007A33"/>
<path d="M67.0752 69.4401C67.0868 69.7638 67.0676 69.1161 67.0752 69.4401V69.4401Z" fill="#007A33"/>
<path d="M13.9535 25.9028C15.3572 26.6581 16.9409 27.053 18.5345 27.053C22.3214 27.053 25.8414 24.7658 27.3824 21.3061C28.9433 17.8016 28.2366 13.591 25.6268 10.7834C23.0189 7.97714 18.8834 6.96319 15.2735 8.25442C11.7239 9.524 9.17613 12.8515 8.88334 16.6102C8.58789 20.4037 10.6021 24.0991 13.9535 25.9028Z" fill="#007A33"/>
<path d="M30.6619 17.6187C32.5103 19.2866 34.9454 20.2218 37.4349 20.2218C41.2173 20.2218 44.7607 18.0387 46.466 14.6626C48.195 11.2403 47.7991 7.01301 45.4702 3.96931C43.1495 0.93603 39.2223 -0.550392 35.4734 0.186285C31.7941 0.909283 28.7426 3.71674 27.7109 7.32111C26.6582 11.0014 27.8214 15.055 30.6619 17.6187Z" fill="#007A33"/>
<path d="M63.6003 71.1753C63.6987 72.0933 64.5258 72.7902 65.4463 72.7369C66.3555 72.6844 67.0889 71.9114 67.0964 71.0014C67.1007 70.4793 67.0936 69.9617 67.0752 69.44C67.0472 68.2188 66.8002 66.9529 66.4443 65.7867C66.1376 64.7813 65.7429 63.8033 65.2413 62.8791C64.015 60.6207 62.2631 58.6582 60.159 57.1815C59.6674 56.8369 59.1465 56.4765 58.5838 56.2584C56.9867 55.4764 55.0713 55.4672 53.4665 56.2329C53.0361 56.3844 52.6393 56.6384 52.2581 56.8847C51.7836 57.1909 51.3289 57.5272 50.8903 57.8831C49.8703 58.7106 48.9453 59.6599 48.1458 60.702C46.7453 62.5269 45.7097 64.6682 45.2411 66.926C44.9608 68.2791 44.8697 69.6228 44.8801 71.0016C44.8869 71.9247 45.6411 72.7008 46.5622 72.7389C47.4722 72.7769 48.2783 72.0803 48.3767 71.1755C48.5829 69.2305 49.0466 67.316 50.113 65.6478V67.5422L46.211 83.303C46.0358 83.9827 45.9206 84.6855 47.2466 84.6855H50.4879L51.0892 97.845C51.1419 98.9222 52.0587 99.8 53.1381 99.799C54.2093 99.7978 55.1183 98.9331 55.1769 97.864L55.9054 84.6853H56.1239L56.725 97.8448C56.7776 98.922 57.6944 99.7998 58.7739 99.7988C59.845 99.7974 60.7542 98.9329 60.8132 97.8638L61.5411 84.6851H64.7122C65.0591 84.6851 65.3852 84.5315 65.6063 84.264C65.8277 83.9959 65.9169 83.647 65.8489 83.2991L61.8846 67.4795V65.6813C62.961 67.31 63.3981 69.2655 63.6003 71.1753Z" fill="#007A33"/>
<path d="M45.0239 84.0556L46.3698 78.2289L46.5527 74.6135C44.874 74.1909 43.6557 72.6855 43.6432 70.9109C43.6289 69.2853 43.7496 67.6943 44.1175 66.108C44.4854 64.5218 45.0769 63.0184 45.8514 61.5894C46.3104 60.7428 46.8564 59.9382 47.4493 59.1809C47.522 58.5203 47.5099 57.8576 47.5099 57.194C47.5099 56.2636 47.5099 55.3329 47.5099 54.4023C47.5099 51.7234 47.5099 49.0444 47.5099 46.3656C47.5099 44.4473 47.5099 42.5293 47.5099 40.611C47.5099 40.5105 47.5099 40.4103 47.5099 40.3098C48.365 42.1536 48.9639 44.0841 49.4505 46.0542C50.5028 43.4887 52.7586 42.1897 55.8778 41.6744C55.3627 39.6722 54.5468 37.1775 53.6837 35.294C52.5815 32.89 51.244 30.6091 49.5746 28.552C48.4847 27.2083 47.2657 25.974 45.9453 24.8572C45.3009 24.3216 44.6308 23.8138 43.9305 23.3534C43.342 22.9667 42.7099 22.624 42.0718 22.3208C35.4377 19.1683 30.1704 24.2897 30.04 24.4053C28.6242 25.6628 27.2086 26.9204 25.7928 28.1783C29.5283 30.8112 32.6161 34.3072 34.7808 38.3283C36.1666 40.9021 37.1276 43.7353 37.6038 46.6183C37.9276 48.5783 38.0185 50.5369 38.0021 52.522C37.9795 55.2233 35.6908 57.4766 32.9883 57.4533C32.5783 57.4498 32.1796 57.3972 31.798 57.2996C31.798 57.2996 35.5201 70.8771 35.7311 71.7442C36.0161 72.9182 36.1139 75.3592 33.3957 75.3592C30.3585 75.3592 28.8833 75.3592 28.8833 75.3592L28.538 81.4545L29.1594 96.3375C29.2427 98.1835 30.8091 99.6924 32.6588 99.6938C34.5005 99.6955 36.0641 98.206 36.157 96.3678L37.4159 71.4336L38.4564 96.3373C38.5397 98.1833 40.1066 99.6924 41.9559 99.6936C43.7978 99.6951 45.3612 98.2058 45.4541 96.3674L46.0015 85.5369C44.5749 85.4244 45.0239 84.0556 45.0239 84.0556Z" fill="#007A33"/>
<path d="M32.8627 74.2883C33.3828 74.2883 33.8714 74.0582 34.2028 73.657C34.5344 73.2552 34.6785 72.7972 34.5664 72.211L27.8728 47.9358V44.0925C28.8423 45.5889 29.5277 47.3159 29.9887 49.032C30.3481 50.3694 30.5355 51.7215 30.6821 53.0954C30.8428 54.593 32.1879 55.733 33.6901 55.6554C35.1871 55.578 36.3991 54.3084 36.4114 52.8101C36.4189 51.8872 36.4118 50.9713 36.3665 50.0494C36.3046 48.7835 36.1071 47.5166 35.8499 46.2772C35.3127 43.6929 34.3561 41.1866 33.0406 38.8978C31.7242 36.6061 30.0612 34.519 28.144 32.7014C27.2227 31.8279 26.2394 31.0169 25.206 30.2794C24.4153 29.715 23.5877 29.1529 22.7012 28.7497C22.6222 28.7138 22.5421 28.6821 22.4611 28.6513C19.8443 27.3707 16.7065 27.3547 14.0777 28.61C13.1438 28.9386 12.2852 29.5323 11.4781 30.093C10.4559 30.8027 9.4865 31.5865 8.56933 32.4272C6.61534 34.2176 4.94923 36.289 3.58083 38.5556C2.89581 39.6904 2.31022 40.8949 1.81815 42.1252C1.33649 43.3311 0.915271 44.5983 0.653309 45.8717C0.391348 47.1432 0.200235 48.4066 0.0762988 49.6991C-0.0215029 50.7187 -0.000267793 51.747 0.00728683 52.7697C0.00769519 52.783 0.00769496 52.7969 0.00769496 52.8105C0.0189248 54.3176 1.24522 55.586 2.749 55.6564C4.24563 55.7266 5.57606 54.5838 5.73716 53.0952C5.88437 51.7213 6.07181 50.3692 6.43055 49.0322C6.89996 47.2855 7.60703 45.5653 8.58158 44.0374V47.6436L1.86879 72.2161C1.76833 72.7282 1.90105 73.2523 2.23182 73.655C2.5632 74.0576 3.05241 74.2887 3.57388 74.2887H9.16124L10.1823 96.7978C10.2685 98.5573 11.7619 99.9941 13.5254 99.9996C15.286 100.005 16.7847 98.5864 16.8812 96.8297L18.1169 74.2892H18.3977L19.4184 96.7982C19.5045 98.5577 20.9983 99.9945 22.7614 100C24.522 100.005 26.0211 98.5869 26.1177 96.8301L27.3534 74.2896H32.8627V74.2883Z" fill="#007A33"/>
</svg>
