<svg width="5" height="11" viewBox="0 0 5 11" fill="none" xmlns="http://www.w3.org/2000/svg">
<path d="M1.08072 2.07498C1.08072 2.34498 1.08072 3.55011 1.08072 3.55011H0V5.3539H1.08072V10.7141H3.30076V5.35405H4.79051C4.79051 5.35405 4.93003 4.48914 4.99766 3.54346C4.80376 3.54346 3.30915 3.54346 3.30915 3.54346C3.30915 3.54346 3.30915 2.49407 3.30915 2.31014C3.30915 2.1258 3.5512 1.87785 3.79044 1.87785C4.02923 1.87785 4.53321 1.87785 5 1.87785C5 1.63226 5 0.783696 5 6.44337e-09C4.37685 6.44337e-09 3.66791 6.44337e-09 3.35541 6.44337e-09C1.02585 -0.000124544 1.08072 1.80546 1.08072 2.07498Z" fill="#003590"/>
</svg>
