<svg width="150" height="164" viewBox="0 0 150 164" fill="none" xmlns="http://www.w3.org/2000/svg">
<path d="M75 152.11C38.9087 152.11 9.70255 120.715 9.70255 81.9152C9.70255 43.117 38.9079 11.7213 75 11.7213C111.092 11.7213 140.297 43.117 140.297 81.9152C140.296 120.715 111.091 152.11 75 152.11Z" stroke="#6D4C41" stroke-width="2.7988" stroke-miterlimit="10"/>
<path d="M89.5502 81.9152C89.5502 73.2699 83.0421 66.2747 75 66.2747C66.9579 66.2747 60.4498 73.2699 60.4498 81.9152C60.4498 90.5605 66.9579 97.5558 75 97.5558C83.0421 97.5558 89.5502 90.5614 89.5502 81.9152Z" stroke="#6D4C41" stroke-width="2.7988" stroke-miterlimit="10"/>
<path d="M75 81.9153V152.11" stroke="#6D4C41" stroke-width="1.1995" stroke-miterlimit="10"/>
<path d="M75 81.9153L103.331 145.158" stroke="#6D4C41" stroke-width="1.1995" stroke-miterlimit="10"/>
<path d="M75 81.9153L126.05 125.681" stroke="#6D4C41" stroke-width="1.1995" stroke-miterlimit="10"/>
<path d="M75 81.9153L138.659 97.5344" stroke="#6D4C41" stroke-width="1.1995" stroke-miterlimit="10"/>
<path d="M75 81.9152L138.659 66.2961" stroke="#6D4C41" stroke-width="1.1995" stroke-miterlimit="10"/>
<path d="M75 81.9153L126.05 38.1508" stroke="#6D4C41" stroke-width="1.1995" stroke-miterlimit="10"/>
<path d="M75 81.9152L103.331 18.6738" stroke="#6D4C41" stroke-width="1.1995" stroke-miterlimit="10"/>
<path d="M75 81.9152V11.7222" stroke="#6D4C41" stroke-width="1.1995" stroke-miterlimit="10"/>
<path d="M75 81.9152L46.6683 18.6738" stroke="#6D4C41" stroke-width="1.1995" stroke-miterlimit="10"/>
<path d="M75 81.9153L23.9495 38.1508" stroke="#6D4C41" stroke-width="1.1995" stroke-miterlimit="10"/>
<path d="M75 81.9152L11.3401 66.2961" stroke="#6D4C41" stroke-width="1.1995" stroke-miterlimit="10"/>
<path d="M75 81.9153L11.3401 97.5344" stroke="#6D4C41" stroke-width="1.1995" stroke-miterlimit="10"/>
<path d="M75 81.9153L23.9495 125.681" stroke="#6D4C41" stroke-width="1.1995" stroke-miterlimit="10"/>
<path d="M75 81.9153L46.6683 145.158" stroke="#6D4C41" stroke-width="1.1995" stroke-miterlimit="10"/>
<path d="M139.504 81.9152L129.678 95.3361L133.128 112.011L118.841 119.497L115.221 136.132L99.3309 136.238L89.3536 149.534L75 142.193L60.6464 149.534L50.6683 136.238L34.7782 136.13L31.157 119.497L16.871 112.011L20.322 95.3361L10.4943 81.9152L20.322 68.4952L16.8718 51.8205L31.157 44.3351L34.779 27.7006L50.6691 27.5928L60.6464 14.2969L75 21.6386L89.3536 14.2969L99.3317 27.5928L115.221 27.7015L118.842 44.3351L133.128 51.8214L129.678 68.4952L139.504 81.9152Z" stroke="#6D4C41" stroke-width="1.1995" stroke-miterlimit="10"/>
<path d="M74.9992 141.861C105.796 141.861 130.763 115.022 130.763 81.9152C130.763 48.8082 105.796 21.9696 74.9992 21.9696C44.2019 21.9696 19.2358 48.8082 19.2358 81.9152C19.2358 115.022 44.2019 141.861 74.9992 141.861Z" stroke="#6D4C41" stroke-width="2.7988" stroke-miterlimit="10"/>
<path d="M72.2326 11.3047L69.4659 6.15194L72.2326 1H77.7666L80.5341 6.15194L77.7666 11.3047H72.2326Z" stroke="#6D4C41" stroke-width="2" stroke-miterlimit="10" stroke-linecap="round" stroke-linejoin="round"/>
<path d="M44.0075 19.5881L39.4354 16.2368L39.8484 10.3039L44.835 7.72235L49.4079 11.0737L48.9934 17.0066L44.0075 19.5881Z" stroke="#6D4C41" stroke-width="2" stroke-miterlimit="10" stroke-linecap="round" stroke-linejoin="round"/>
<path d="M21.9205 40.2156L16.4485 39.3286L14.4266 33.7908L17.8768 29.1393L23.3496 30.0263L25.3715 35.564L21.9205 40.2156Z" stroke="#6D4C41" stroke-width="2" stroke-miterlimit="10" stroke-linecap="round" stroke-linejoin="round"/>
<path d="M10.3463 69.1016L5.05804 70.856L1.00157 66.8092L2.23332 61.0089L7.52073 59.2554L11.578 63.3022L10.3463 69.1016Z" stroke="#6D4C41" stroke-width="2" stroke-miterlimit="10" stroke-linecap="round" stroke-linejoin="round"/>
<path d="M11.578 100.526L7.52074 104.573L2.23252 102.821L1.00078 97.0194L5.05727 92.9734L10.3463 94.7261L11.578 100.526Z" stroke="#6D4C41" stroke-width="2" stroke-miterlimit="10" stroke-linecap="round" stroke-linejoin="round"/>
<path d="M25.3699 128.266L23.348 133.804L17.8752 134.69L14.425 130.039L16.4469 124.5L21.9197 123.613L25.3699 128.266Z" stroke="#6D4C41" stroke-width="2" stroke-miterlimit="10" stroke-linecap="round" stroke-linejoin="round"/>
<path d="M48.9918 146.824L49.4055 152.757L44.8326 156.108L39.846 153.526L39.433 147.593L44.0059 144.242L48.9918 146.824Z" stroke="#6D4C41" stroke-width="2" stroke-miterlimit="10" stroke-linecap="round" stroke-linejoin="round"/>
<path d="M77.7643 152.527L80.5317 157.679L77.7643 162.832H72.2302L69.4635 157.679L72.2302 152.527H77.7643Z" stroke="#6D4C41" stroke-width="2" stroke-miterlimit="10" stroke-linecap="round" stroke-linejoin="round"/>
<path d="M105.99 144.244L110.563 147.597L110.149 153.53L105.163 156.11L100.59 152.76L101.003 146.825L105.99 144.244Z" stroke="#6D4C41" stroke-width="2" stroke-miterlimit="10" stroke-linecap="round" stroke-linejoin="round"/>
<path d="M128.078 123.618L133.551 124.505L135.572 130.044L132.122 134.694L126.649 133.807L124.627 128.27L128.078 123.618Z" stroke="#6D4C41" stroke-width="2" stroke-miterlimit="10" stroke-linecap="round" stroke-linejoin="round"/>
<path d="M139.653 94.7313L144.941 92.9786L148.998 97.0246L147.767 102.826L142.478 104.578L138.421 100.532L139.653 94.7313Z" stroke="#6D4C41" stroke-width="2" stroke-miterlimit="10" stroke-linecap="round" stroke-linejoin="round"/>
<path d="M138.424 63.3073L142.48 59.2614L147.768 61.0149L149 66.8143L144.943 70.8603L139.655 69.1067L138.424 63.3073Z" stroke="#6D4C41" stroke-width="2" stroke-miterlimit="10" stroke-linecap="round" stroke-linejoin="round"/>
<path d="M124.632 35.5683L126.654 30.0306L132.126 29.1436L135.577 33.7951L133.555 39.3328L128.082 40.2198L124.632 35.5683Z" stroke="#6D4C41" stroke-width="2" stroke-miterlimit="10" stroke-linecap="round" stroke-linejoin="round"/>
<path d="M101.01 17.0084L100.598 11.0755L105.17 7.72498L110.156 10.3065L110.569 16.2394L105.996 19.5899L101.01 17.0084Z" stroke="#6D4C41" stroke-width="2" stroke-miterlimit="10" stroke-linecap="round" stroke-linejoin="round"/>
<path d="M72.2373 11.3047L69.4707 6.15194L72.2381 1L77.7722 1.00086L80.5396 6.15279L77.7714 11.3047H72.2373Z" stroke="#6D4C41" stroke-width="2" stroke-miterlimit="10" stroke-linecap="round" stroke-linejoin="round"/>
<path d="M44.0115 19.5856L39.4386 16.2342L39.8532 10.3013L44.8398 7.71979L49.4127 11.072L48.9981 17.004L44.0115 19.5856Z" stroke="#6D4C41" stroke-width="2" stroke-miterlimit="10" stroke-linecap="round" stroke-linejoin="round"/>
<path d="M21.9237 40.2113L16.4509 39.3243L14.4298 33.7866L17.8807 29.135L23.3528 30.022L25.3746 35.5606L21.9237 40.2113Z" stroke="#6D4C41" stroke-width="2" stroke-miterlimit="10" stroke-linecap="round" stroke-linejoin="round"/>
<path d="M10.3471 69.0982L5.05805 70.8508L1.00238 66.8041L2.23413 61.0038L7.52234 59.2502L11.5796 63.2979L10.3471 69.0982Z" stroke="#6D4C41" stroke-width="2" stroke-miterlimit="10" stroke-linecap="round" stroke-linejoin="round"/>
<path d="M11.5764 100.521L7.51916 104.568L2.23094 102.814L1 97.0134L5.05647 92.9666L10.3455 94.721L11.5764 100.521Z" stroke="#6D4C41" stroke-width="2" stroke-miterlimit="10" stroke-linecap="round" stroke-linejoin="round"/>
<path d="M25.3667 128.261L23.3448 133.799L17.872 134.687L14.4218 130.033L16.4437 124.496L21.9165 123.61L25.3667 128.261Z" stroke="#6D4C41" stroke-width="2" stroke-miterlimit="10" stroke-linecap="round" stroke-linejoin="round"/>
<path d="M86.5376 81.9152C86.5376 75.0602 81.3775 69.5122 75 69.5122C68.6225 69.5122 63.4624 75.0602 63.4624 81.9152C63.4624 88.7719 68.6225 94.3181 75 94.3181C81.3775 94.3181 86.5376 88.7719 86.5376 81.9152Z" fill="#6D4C41"/>
<path d="M81.7245 81.9152C81.7245 77.9206 78.7167 74.6864 75 74.6864C71.2833 74.6864 68.2755 77.9206 68.2755 81.9152C68.2755 85.9115 71.2833 89.144 75 89.144C78.7167 89.144 81.7245 85.9115 81.7245 81.9152Z" fill="#E0F2F1"/>
</svg>
