<svg width="589" height="90" viewBox="0 0 589 90" fill="none" xmlns="http://www.w3.org/2000/svg">
<path d="M144.65 47.8798L155.631 63.1432H148.793L139.264 49.8148H132.012V63.1432H126.006V33.0454H132.012V46.5888H138.849L148.379 33.0454H155.01L144.65 47.8798Z" fill="#007A33"/>
<path d="M182.912 63.1432V38.6341H182.499L166.96 63.1432H159.087V33.0454H165.094V57.5545H165.508L181.047 33.0454H188.919V63.1432H182.912Z" fill="#007A33"/>
<path d="M196.716 26.8107C196.716 27.6706 196.433 28.4237 195.866 29.0676C195.299 29.7136 194.547 30.0356 193.609 30.0356C192.669 30.0356 191.916 29.7136 191.35 29.0676C190.784 28.4237 190.501 27.6706 190.501 26.8107C190.501 25.9518 190.784 25.1988 191.35 24.5538C191.916 23.9077 192.669 23.5858 193.609 23.5858C194.52 23.5858 195.266 23.9077 195.847 24.5538C196.427 25.1988 196.716 25.9518 196.716 26.8107Z" fill="#007A33"/>
<path d="M201.06 33.0443H195.051V63.1421H201.06V33.0443Z" fill="#007A33"/>
<path d="M205.417 26.8107C205.417 27.6706 205.133 28.4237 204.569 29.0676C204.002 29.7136 203.248 30.0356 202.31 30.0356C201.37 30.0356 200.617 29.7136 200.052 29.0676C199.486 28.4237 199.202 27.6706 199.202 26.8107C199.202 25.9518 199.485 25.1988 200.052 24.5538C200.617 23.9077 201.371 23.5858 202.31 23.5858C203.222 23.5858 203.968 23.9077 204.547 24.5538C205.128 25.1988 205.417 25.9518 205.417 26.8107Z" fill="#007A33"/>
<path d="M207.106 33.0443H221.193C223.32 33.0443 225.164 33.2387 226.724 33.6255C228.285 34.0112 229.577 34.5568 230.6 35.2601C231.622 35.9602 232.382 36.8007 232.878 37.773C233.377 38.7486 233.624 39.8236 233.624 40.9979C233.624 42.518 233.21 43.836 232.38 44.9553C231.553 46.0713 230.309 46.9043 228.651 47.4488C230.724 47.8787 232.347 48.7171 233.52 49.9628C234.694 51.2106 235.281 52.8084 235.281 54.7574C235.281 57.3384 234.252 59.3792 232.195 60.8841C230.136 62.3901 226.883 63.1421 222.435 63.1421H207.105V33.0443H207.106ZM221.193 46.1588C225.198 46.1588 227.201 44.4389 227.201 40.999C227.201 39.4811 226.696 38.3121 225.689 37.4954C224.681 36.6775 223.183 36.2702 221.193 36.2702H213.113V46.1588H221.193ZM213.114 49.3837V59.9183H222.438C224.509 59.9183 226.097 59.4883 227.202 58.6294C228.307 57.7684 228.86 56.4795 228.86 54.7585C228.86 52.924 228.307 51.5714 227.202 50.6942C226.097 49.8212 224.509 49.3837 222.438 49.3837H213.114Z" fill="#007A33"/>
<path d="M258.498 47.8798L269.478 63.1432H262.641L253.11 49.8148H245.859V63.1432H239.852V33.0454H245.859V46.5888H252.696L262.226 33.0454H268.856L258.498 47.8798Z" fill="#007A33"/>
<path d="M286.568 32.1844C289.054 32.1844 291.313 32.5291 293.342 33.2173C295.373 33.9065 297.112 34.9242 298.562 36.2703C300.012 37.6176 301.138 39.2802 301.939 41.2573C302.739 43.2354 303.14 45.5139 303.14 48.0938C303.14 50.6748 302.739 52.9533 301.939 54.9304C301.138 56.9085 300.012 58.5701 298.562 59.9184C297.111 61.2667 295.373 62.2822 293.342 62.9704C291.313 63.6586 289.054 64.0032 286.568 64.0032C284.082 64.0032 281.815 63.6586 279.771 62.9704C277.726 62.2811 275.979 61.2667 274.53 59.9184C273.08 58.5701 271.962 56.9085 271.174 54.9304C270.387 52.9533 269.994 50.6748 269.994 48.0938C269.994 45.5139 270.387 43.2354 271.174 41.2573C271.962 39.2802 273.081 37.6176 274.53 36.2703C275.98 34.9242 277.727 33.9065 279.771 33.2173C281.814 32.5291 284.082 32.1844 286.568 32.1844ZM286.568 35.1943C285.158 35.1943 283.84 35.4525 282.61 35.9689C281.38 36.4864 280.311 37.2729 279.399 38.3338C278.487 39.3937 277.761 40.7355 277.222 42.3539C276.684 43.9744 276.414 45.8877 276.414 48.0938C276.414 50.301 276.684 52.2143 277.222 53.8338C277.761 55.4544 278.487 56.7929 279.399 57.8538C280.311 58.9147 281.38 59.7034 282.61 60.2187C283.84 60.7351 285.159 60.9933 286.568 60.9933C287.977 60.9933 289.296 60.7351 290.525 60.2187C291.754 59.7023 292.825 58.9147 293.735 57.8538C294.647 56.794 295.374 55.4544 295.911 53.8338C296.45 52.2143 296.718 50.2999 296.718 48.0938C296.718 45.8877 296.45 43.9744 295.911 42.3539C295.374 40.7355 294.647 39.3948 293.735 38.3338C292.826 37.2729 291.754 36.4853 290.525 35.9689C289.296 35.4525 287.977 35.1943 286.568 35.1943Z" fill="#007A33"/>
<path d="M327.542 58.8444H327.956L338.729 33.0443H347.638V63.1421H341.631V39.0641H341.216L331.271 63.1421H324.227L314.283 39.0641H313.868V63.1421H307.86V33.0443H316.769L327.542 58.8444Z" fill="#007A33"/>
<path d="M383.443 33.0443L367.904 63.1421H361.483L366.04 54.3274H362.726L350.918 33.0443H357.755L367.491 50.6736H367.905L377.023 33.0443H383.443Z" fill="#007A33"/>
<path d="M415.902 33.0443V63.1421H409.895V50.0276H392.905V63.1421H386.898V33.0443H392.905V46.8027H409.895V33.0443H415.902Z" fill="#007A33"/>
<path d="M438.045 60.7784C439.923 60.7784 441.726 60.4413 443.453 59.7671C445.179 59.0941 446.83 57.9975 448.405 56.4785L450.476 59.0584C448.901 60.5774 446.995 61.7809 444.758 62.669C442.521 63.557 440.145 64.0032 437.631 64.0032C435.035 64.0032 432.693 63.6586 430.607 62.9704C428.521 62.2811 426.739 61.2667 425.263 59.9184C423.783 58.5701 422.644 56.9085 421.844 54.9304C421.042 52.9533 420.642 50.6748 420.642 48.0938C420.642 45.5139 421.036 43.2354 421.822 41.2573C422.61 39.2802 423.73 37.6176 425.18 36.2703C426.63 34.9242 428.377 33.9065 430.421 33.2173C432.466 32.5291 434.731 32.1844 437.216 32.1844C439.729 32.1844 442.105 32.6306 444.344 33.5187C446.582 34.4067 448.487 35.6102 450.062 37.1303L447.989 39.7102C446.416 38.1912 444.764 37.0936 443.039 36.4205C441.311 35.7464 439.51 35.4093 437.631 35.4093C436.139 35.4093 434.744 35.6599 433.447 36.1612C432.148 36.6636 431.029 37.4296 430.091 38.4624C429.151 39.4941 428.411 40.8057 427.872 42.3971C427.334 43.9895 427.065 45.8877 427.065 48.0938C427.065 50.301 427.334 52.2003 427.872 53.7906C428.411 55.3809 429.171 56.6946 430.152 57.7253C431.132 58.7581 432.291 59.5251 433.632 60.0264C434.973 60.5277 436.444 60.7784 438.045 60.7784Z" fill="#007A33"/>
<path d="M460.165 36.2702V46.1588H475.288V49.3837H460.165V59.9183H479.432V63.1421H454.157V33.0443H479.432V36.2692H460.165V36.2702Z" fill="#007A33"/>
<path d="M498.228 33.0444C500.301 33.0444 502.163 33.2799 503.808 33.7531C505.456 34.2263 506.845 34.9145 507.979 35.8177C509.114 36.7198 509.985 37.8228 510.594 39.1268C511.203 40.433 511.508 41.9163 511.508 43.5768C511.508 45.2406 511.204 46.7239 510.593 48.0279C509.985 49.333 509.112 50.436 507.978 51.3381C506.844 52.2402 505.452 52.9284 503.806 53.4016C502.16 53.8748 500.298 54.1103 498.223 54.1103H489.296V63.14H483.289V33.0422H498.228V33.0444ZM489.298 36.2703V50.8887H498.205C500.388 50.8887 502.08 50.2945 503.281 49.1039C504.484 47.9155 505.084 46.0725 505.084 43.579C505.084 41.0855 504.484 39.2435 503.281 38.0562C502.08 36.8656 500.388 36.2714 498.205 36.2714H489.298V36.2703Z" fill="#007A33"/>
<path d="M515.567 33.0443H529.655C531.782 33.0443 533.627 33.2387 535.187 33.6255C536.747 34.0112 538.04 34.5568 539.062 35.2601C540.083 35.9602 540.842 36.8007 541.34 37.773C541.837 38.7486 542.085 39.8236 542.085 40.9979C542.085 42.518 541.671 43.836 540.842 44.9553C540.014 46.0713 538.771 46.9043 537.114 47.4488C539.186 47.8787 540.809 48.7171 541.982 49.9628C543.157 51.2106 543.743 52.8084 543.743 54.7574C543.743 57.3384 542.715 59.3792 540.658 60.8841C538.6 62.3901 535.347 63.1421 530.898 63.1421H515.568V33.0443H515.567ZM529.655 46.1588C533.66 46.1588 535.663 44.4389 535.663 40.999C535.663 39.4811 535.158 38.3121 534.151 37.4954C533.143 36.6775 531.645 36.2702 529.655 36.2702H521.575V46.1588H529.655ZM521.575 49.3837V59.9183H530.898C532.971 59.9183 534.559 59.4883 535.664 58.6294C536.769 57.7684 537.322 56.4795 537.322 54.7585C537.322 52.924 536.769 51.5714 535.664 50.6942C534.559 49.8212 532.971 49.3837 530.898 49.3837H521.575Z" fill="#007A33"/>
<path d="M554.388 63.1432H548.381V33.0454H554.388V63.1432Z" fill="#007A33"/>
<path d="M576.568 60.7784C578.446 60.7784 580.248 60.4413 581.975 59.7671C583.702 59.0941 585.353 57.9975 586.929 56.4785L589 59.0584C587.425 60.5774 585.519 61.7809 583.28 62.669C581.044 63.557 578.668 64.0032 576.152 64.0032C573.557 64.0032 571.215 63.6586 569.13 62.9704C567.043 62.2811 565.262 61.2667 563.786 59.9184C562.307 58.5701 561.167 56.9085 560.368 54.9304C559.566 52.9533 559.165 50.6748 559.165 48.0938C559.165 45.5139 559.559 43.2354 560.346 41.2573C561.134 39.2802 562.254 37.6176 563.701 36.2703C565.152 34.9242 566.9 33.9065 568.944 33.2173C570.987 32.5291 573.253 32.1844 575.739 32.1844C578.252 32.1844 580.627 32.6306 582.866 33.5187C585.106 34.4067 587.011 35.6102 588.585 37.1303L586.513 39.7102C584.937 38.1912 583.286 37.0936 581.562 36.4205C579.834 35.7464 578.031 35.4093 576.152 35.4093C574.662 35.4093 573.266 35.6599 571.968 36.1612C570.67 36.6636 569.551 37.4296 568.613 38.4624C567.674 39.4941 566.934 40.8057 566.395 42.3971C565.857 43.9895 565.587 45.8877 565.587 48.0938C565.587 50.301 565.857 52.2003 566.395 53.7906C566.934 55.3809 567.693 56.6946 568.674 57.7253C569.654 58.7581 570.814 59.5251 572.155 60.0264C573.493 60.5277 574.966 60.7784 576.568 60.7784Z" fill="#007A33"/>
<path d="M30.2826 2.26056C30.2826 2.26056 26.5128 19.986 22.1376 32.6544C33.6735 22.2008 44.9892 18.5438 44.129 9.85983C43.597 4.51096 33.0227 1.18236 30.2826 2.26056Z" fill="url(#paint0_linear)"/>
<path d="M26.257 26.4402C26.257 26.4402 26.4189 26.3689 26.6596 26.3094C26.7783 26.2943 26.9197 26.25 27.0675 26.2511C27.2154 26.2489 27.3729 26.2479 27.5305 26.2457C27.687 26.2684 27.8424 26.2922 27.9881 26.3138C28.1338 26.3354 28.2676 26.3959 28.3842 26.4272C28.614 26.519 28.7651 26.6109 28.7651 26.6109L28.763 26.6443C28.763 26.6443 28.1349 26.6098 27.5078 26.5752C26.8819 26.5234 26.2549 26.4726 26.2549 26.4726L26.257 26.4402Z" fill="#006838"/>
<path d="M30.5826 19.8834C30.5826 19.8834 30.9689 19.8272 31.5452 19.7916C31.8323 19.7883 32.169 19.7591 32.5252 19.7732C32.8835 19.7872 33.2645 19.8002 33.6454 19.8143C34.0253 19.8532 34.4041 19.892 34.7603 19.9288C35.1164 19.9644 35.4456 20.0401 35.7283 20.0822C36.2938 20.1978 36.6683 20.3058 36.6683 20.3058L36.6662 20.3393C36.6662 20.3393 35.1434 20.241 33.6217 20.1438C32.101 20.0303 30.5804 19.9158 30.5804 19.9158L30.5826 19.8834Z" fill="#006838"/>
<path d="M34.9092 13.3277C34.9092 13.3277 35.1704 13.2629 35.5589 13.2143C35.7521 13.2046 35.9798 13.1668 36.2194 13.1743C36.4601 13.1797 36.7158 13.184 36.9716 13.1894C37.2263 13.2197 37.481 13.251 37.7195 13.2791C37.958 13.3061 38.1782 13.3742 38.3681 13.4098C38.7458 13.5125 38.9962 13.6119 38.9962 13.6119L38.9941 13.6454C38.9941 13.6454 37.972 13.5827 36.95 13.52C35.9291 13.4422 34.9081 13.3623 34.9081 13.3623L34.9092 13.3277Z" fill="#006838"/>
<path d="M28.4047 23.1872C28.4047 23.1872 28.2158 22.9851 27.9773 22.6632C27.8705 22.4957 27.7237 22.311 27.6082 22.0928C27.4906 21.8756 27.3654 21.6444 27.2402 21.4121C27.1377 21.169 27.0352 20.927 26.9391 20.7002C26.842 20.4733 26.7891 20.2432 26.7244 20.0541C26.6218 19.6663 26.5819 19.394 26.5819 19.394L26.6121 19.3789C26.6121 19.3789 27.0751 20.3242 27.5381 21.2684C27.986 22.2213 28.4338 23.1731 28.4338 23.1731L28.4047 23.1872Z" fill="#006838"/>
<path d="M32.7292 16.6293C32.7292 16.6293 32.441 16.221 32.0536 15.589C31.8733 15.2659 31.6381 14.9008 31.4298 14.4891C31.2193 14.0786 30.9948 13.6411 30.7704 13.2024C30.5685 12.7541 30.3667 12.3046 30.1779 11.8833C29.9879 11.463 29.8476 11.0514 29.7084 10.71C29.458 10.0121 29.3177 9.53244 29.3177 9.53244L29.3479 9.51733C29.3479 9.51733 30.2081 11.288 31.0682 13.0577C31.9133 14.8359 32.7583 16.6131 32.7583 16.6131L32.7292 16.6293Z" fill="#006838"/>
<path d="M36.6187 10.7814C36.6187 10.7814 36.4071 11.1325 36.0359 11.7483C35.6582 12.3576 35.1531 13.2533 34.484 14.285C33.1576 16.3561 31.3877 19.1175 29.6188 21.8778C27.7712 24.5873 25.9236 27.2969 24.5378 29.328C23.8504 30.3468 23.2255 31.1624 22.8122 31.7491C22.3913 32.3314 22.1517 32.6641 22.1517 32.6641L22.1247 32.6447L36.5928 10.762L36.6187 10.7814Z" fill="#006838"/>
<path d="M67.8342 47.2576C65.2322 33.914 71.904 26.6292 67.8849 14.1553C65.0207 5.26501 57.7661 2.58138 55.4749 1.40163C51.7732 -0.50521 35.2146 -0.692114 30.2815 2.26051C32.7432 2.12547 33.8623 4.12091 35.2427 7.4657C36.6047 10.7716 37.4367 19.6057 40.2309 24.6964C44.4398 32.3637 57.9172 36.589 67.8342 47.2576Z" fill="url(#paint1_linear)"/>
<path d="M40.8352 0.558945C40.8352 0.558945 40.8018 0.697236 40.7197 0.925193C40.6259 1.14451 40.5309 1.48481 40.3463 1.84565C40.1618 2.20649 39.9783 2.64728 39.7236 3.08267C39.4819 3.52562 39.1872 3.97288 38.8969 4.42339C38.5861 4.85986 38.2785 5.29849 37.958 5.68742C37.6461 6.08283 37.3062 6.41884 37.0396 6.7235C36.7719 7.02708 36.4935 7.24207 36.3241 7.41168C36.1438 7.57158 36.0273 7.65584 36.0273 7.65584L35.9722 7.61802C35.9722 7.61802 37.1605 5.83543 38.3487 4.05176C39.5639 2.28753 40.7791 0.522216 40.7791 0.522216L40.8352 0.558945Z" fill="#006838"/>
<path d="M48.6855 5.74575C48.6855 5.74575 48.5765 6.00287 48.3639 6.43718C48.1394 6.86392 47.8567 7.4981 47.4476 8.21438C47.0354 8.92742 46.5983 9.78846 46.05 10.6592C45.5061 11.5332 44.9255 12.4634 44.3459 13.3947C43.7232 14.2979 43.1005 15.2011 42.5177 16.0481C41.936 16.8962 41.323 17.6427 40.8331 18.305C40.3399 18.964 39.8715 19.4771 39.5714 19.8542C39.2585 20.2237 39.0674 20.4246 39.0674 20.4246L39.0113 20.389C39.0113 20.389 41.4029 16.7103 43.7945 13.0317C46.213 9.37036 48.6315 5.71118 48.6315 5.71118L48.6855 5.74575Z" fill="#006838"/>
<path d="M53.3121 15.6829C53.3121 15.6829 53.2129 15.9184 53.0164 16.3138C52.8082 16.7027 52.5491 17.2829 52.1692 17.9343C51.7883 18.5847 51.3771 19.3636 50.8774 20.1609C50.3907 20.9647 49.8349 21.7988 49.2823 22.635C48.7103 23.4571 48.1416 24.2814 47.575 25.0334C47.0192 25.7907 46.4493 26.4638 45.9864 27.058C45.5223 27.6522 45.0809 28.1081 44.7971 28.4452C44.5024 28.7747 44.3211 28.9551 44.3211 28.9551L44.2661 28.9173C44.2661 28.9173 46.5001 25.5909 48.7352 22.2633C50.9961 18.9542 53.2582 15.6461 53.2582 15.6461L53.3121 15.6829Z" fill="#006838"/>
<path d="M57.9452 25.6221C57.9452 25.6221 57.8945 25.7864 57.7812 26.0586C57.6571 26.3222 57.5179 26.7262 57.2826 27.1638C57.0463 27.6003 56.8024 28.1318 56.4829 28.6633C56.1753 29.2024 55.8116 29.7524 55.4512 30.3055C55.0713 30.8446 54.6946 31.3858 54.3082 31.8709C53.9316 32.3625 53.5312 32.7882 53.2118 33.1695C52.8923 33.5509 52.5696 33.8296 52.3711 34.0435C52.1595 34.2488 52.0268 34.3579 52.0268 34.3579L51.9717 34.3201C51.9717 34.3201 53.4373 32.1281 54.904 29.9338C56.3976 27.7591 57.8913 25.5843 57.8913 25.5843L57.9452 25.6221Z" fill="#006838"/>
<path d="M62.574 35.5626C62.574 35.5626 62.5719 35.6555 62.5438 35.8024C62.505 35.9418 62.4866 36.1665 62.396 36.389C62.3053 36.6116 62.2309 36.8925 62.0938 37.155C61.9686 37.4251 61.7981 37.6887 61.6319 37.9545C61.4463 38.2062 61.2628 38.4623 61.0588 38.6783C60.8646 38.902 60.6325 39.0759 60.4599 39.2423C60.285 39.4076 60.0843 39.508 59.9699 39.5966C59.8436 39.6766 59.7584 39.7133 59.7584 39.7133L59.7033 39.6755C59.7033 39.6755 60.394 38.6286 61.0836 37.5818C61.8013 36.5532 62.519 35.5248 62.519 35.5248L62.574 35.5626Z" fill="#006838"/>
<path d="M47.2393 2.95842C47.2393 2.95842 47.4196 2.92816 47.7336 2.90223C48.0455 2.89035 48.4977 2.82769 49.0298 2.83417C49.5618 2.84389 50.1867 2.81472 50.8493 2.85469C51.5131 2.87846 52.2167 2.94869 52.9193 3.01351C53.6208 3.1021 54.3223 3.18744 54.9752 3.30628C55.6292 3.41432 56.2347 3.5753 56.7559 3.68226C57.2772 3.79137 57.7035 3.94802 58.0068 4.02689C58.3079 4.1198 58.4784 4.18787 58.4784 4.18787L58.4708 4.25376C58.4708 4.25376 55.6594 3.96206 52.8481 3.67144C50.0399 3.34625 47.2318 3.02215 47.2318 3.02215L47.2393 2.95842Z" fill="#006838"/>
<path d="M50.9745 10.6646C50.9745 10.6646 51.226 10.6409 51.6631 10.6258C52.098 10.6247 52.725 10.5771 53.4686 10.6031C54.2122 10.6301 55.0842 10.6236 56.0102 10.6852C56.9383 10.7327 57.9237 10.8278 58.9101 10.9174C59.8943 11.0309 60.8775 11.1411 61.7959 11.2837C62.7154 11.4144 63.568 11.597 64.3008 11.7223C65.0336 11.8498 65.638 12.0227 66.0643 12.1123C66.4895 12.216 66.7301 12.2906 66.7301 12.2906L66.7237 12.3565C66.7237 12.3565 62.7823 11.9665 58.8421 11.5754C54.9051 11.1519 50.967 10.7295 50.967 10.7295L50.9745 10.6646Z" fill="#006838"/>
<path d="M55.6033 20.6018C55.6033 20.6018 55.8202 20.5694 56.1958 20.5402C56.5714 20.5251 57.111 20.4581 57.7521 20.4603C58.3931 20.4635 59.1432 20.4289 59.9418 20.4613C60.7415 20.4786 61.592 20.5413 62.4413 20.5996C63.2896 20.6817 64.1379 20.7595 64.93 20.8729C65.7232 20.9745 66.4582 21.1279 67.0906 21.2305C67.723 21.3343 68.2454 21.4866 68.6123 21.5633C68.9792 21.653 69.1876 21.721 69.1876 21.721L69.1822 21.7869C69.1822 21.7869 65.7847 21.5244 62.3873 21.2619C58.9921 20.9659 55.5969 20.6688 55.5969 20.6688L55.6033 20.6018Z" fill="#006838"/>
<path d="M60.2354 30.5411C60.2354 30.5411 60.3563 30.5044 60.5635 30.4687C60.7685 30.446 61.0686 30.3682 61.4182 30.3585C61.7679 30.3488 62.1802 30.3002 62.614 30.3164C63.05 30.3185 63.5097 30.365 63.9695 30.406C64.4271 30.4709 64.8847 30.5324 65.3099 30.6297C65.7362 30.7139 66.1258 30.8544 66.4647 30.943C66.8025 31.0337 67.0766 31.1763 67.273 31.2444C67.4673 31.3265 67.5763 31.3892 67.5763 31.3892L67.5687 31.4551C67.5687 31.4551 65.7319 31.2595 63.895 31.064C62.0614 30.836 60.2289 30.607 60.2289 30.607L60.2354 30.5411Z" fill="#006838"/>
<path d="M65.1124 40.4923C65.1124 40.4955 65.1405 40.4447 65.1869 40.3896C65.2322 40.3486 65.3013 40.2427 65.3757 40.1995C65.4502 40.1584 65.5408 40.0709 65.6304 40.0461C65.7222 40.0072 65.815 40.0093 65.9089 40.0072C66.0006 40.0288 66.0912 40.0461 66.1743 40.1033C66.2574 40.1476 66.3287 40.2492 66.3934 40.3064C66.4582 40.3637 66.5046 40.4793 66.5402 40.529C66.5748 40.5927 66.592 40.6468 66.592 40.6435L66.5855 40.7094C66.5855 40.7094 66.2132 40.6878 65.842 40.6662C65.4739 40.6122 65.1048 40.5571 65.1048 40.5571L65.1124 40.4923Z" fill="#006838"/>
<path d="M67.1295 45.4631C67.1295 45.4631 66.7712 44.7749 66.1441 43.5724C65.5279 42.3635 64.5965 40.6609 63.5713 38.5747C62.5482 36.4863 61.306 34.0739 60.0627 31.4486C58.8151 28.8244 57.4833 26.0263 56.1516 23.2281C54.8662 20.4084 53.5809 17.5886 52.3754 14.945C51.1677 12.3024 50.1176 9.80032 49.1776 7.67417C48.2409 5.54586 47.5361 3.73842 47.0062 2.48952C46.4882 1.23522 46.1925 0.517863 46.1925 0.517863L46.2529 0.490844L67.1888 45.4371L67.1295 45.4631Z" fill="#006838"/>
<path d="M13.5481 90C13.5481 90 30.5027 84.4631 43.461 81.988C28.8062 77.0378 20.0407 68.8843 13.0873 73.9858C8.80382 77.1286 11.2623 88.1234 13.5481 90Z" fill="url(#paint2_linear)"/>
<path d="M36.1157 81.4607C36.1157 81.4607 35.9722 81.3516 35.8006 81.1691C35.7283 81.0707 35.6204 80.9681 35.547 80.8374C35.4714 80.7077 35.3905 80.5695 35.3106 80.4312C35.2523 80.281 35.1952 80.133 35.1412 79.9925C35.0862 79.8532 35.0721 79.7041 35.0419 79.5863C35.0063 79.3389 35.0106 79.1585 35.0106 79.1585L35.0408 79.1434C35.0408 79.1434 35.3247 79.7149 35.6085 80.2875C35.8772 80.8665 36.1459 81.4445 36.1459 81.4445L36.1157 81.4607Z" fill="#006838"/>
<path d="M28.3831 80.9228C28.3831 80.9228 28.1402 80.6094 27.8208 80.12C27.674 79.8683 27.4798 79.5863 27.3136 79.2633C27.1463 78.9414 26.9671 78.5978 26.788 78.2543C26.6315 77.8999 26.475 77.5455 26.3293 77.2139C26.1815 76.8811 26.0822 76.5548 25.9775 76.2826C25.794 75.7262 25.7001 75.3427 25.7001 75.3427L25.7293 75.3276C25.7293 75.3276 26.407 76.7191 27.0858 78.1106C27.7496 79.5096 28.4122 80.9076 28.4122 80.9076L28.3831 80.9228Z" fill="#006838"/>
<path d="M20.644 80.3847C20.644 80.3847 20.4573 80.1859 20.2198 79.8672C20.1151 79.7019 19.9684 79.5204 19.854 79.3044C19.7385 79.0894 19.6144 78.8614 19.4903 78.6324C19.3888 78.3925 19.2874 78.1538 19.1935 77.929C19.0975 77.7043 19.0456 77.4764 18.983 77.2905C18.8827 76.907 18.8438 76.638 18.8438 76.638L18.873 76.6229C18.873 76.6229 19.3306 77.5563 19.7881 78.4897C20.2306 79.4296 20.6731 80.3696 20.6731 80.3696L20.644 80.3847Z" fill="#006838"/>
<path d="M32.2769 81.194C32.2769 81.194 32.2014 81.4576 32.0481 81.8281C31.9586 82.0053 31.8765 82.2268 31.7492 82.4364C31.624 82.6481 31.4891 82.8739 31.3553 83.1008C31.1999 83.3125 31.0456 83.5243 30.8999 83.7231C30.7552 83.9229 30.5858 84.085 30.4574 84.2373C30.1778 84.5247 29.9652 84.6986 29.9642 84.6986L29.9372 84.6792C29.9372 84.6792 30.5081 83.7998 31.079 82.9182C31.6639 82.0463 32.2478 81.1745 32.2478 81.1745L32.2769 81.194Z" fill="#006838"/>
<path d="M24.541 80.6559C24.541 80.6559 24.3392 81.1107 23.9971 81.7676C23.8136 82.0874 23.6215 82.4752 23.3755 82.8652C23.1316 83.2563 22.8715 83.6733 22.6114 84.0904C22.3308 84.4933 22.0491 84.8963 21.7858 85.2744C21.5235 85.6537 21.2429 85.9821 21.0206 86.2781C20.5511 86.8507 20.2134 87.2159 20.2123 87.2159L20.1853 87.1964C20.1853 87.1964 21.2602 85.5532 22.3362 83.9078C23.4251 82.2721 24.5141 80.6375 24.5141 80.6375L24.541 80.6559Z" fill="#006838"/>
<path d="M17.6254 80.1491C17.6254 80.1491 18.0301 80.161 18.7391 80.1804C19.4471 80.2085 20.4616 80.2074 21.6735 80.2831C24.0986 80.4181 27.3308 80.5996 30.5642 80.7801C33.79 81.0555 37.0169 81.3299 39.4365 81.5363C40.6463 81.6324 41.6511 81.7751 42.3558 81.8464C43.0595 81.9252 43.462 81.9706 43.462 81.9706L43.4599 82.0041L17.6232 80.1815L17.6254 80.1491Z" fill="#006838"/>
<path d="M33.0259 34.3764C22.9826 43.3402 13.4563 41.0974 4.85922 50.879C-1.26646 57.8506 0.0793325 65.5924 0.223949 68.2026C0.453824 72.4203 8.57392 87.124 13.5481 90C12.2023 87.8943 13.3409 85.9108 15.495 83.0198C17.6243 80.1654 24.7191 75.0153 27.6503 70.0035C32.0622 62.4594 28.9162 48.4568 33.0259 34.3764Z" fill="url(#paint3_linear)"/>
<path d="M6.82447 81.542C6.82447 81.542 6.96046 81.5031 7.19574 81.462C7.42993 81.4361 7.7688 81.3518 8.16812 81.3345C8.56743 81.3173 9.03689 81.26 9.53441 81.2665C10.0319 81.26 10.5608 81.2956 11.0885 81.328C11.6152 81.3831 12.1418 81.4361 12.6318 81.5236C13.1228 81.5992 13.5761 81.731 13.9679 81.8142C14.3585 81.8974 14.6802 82.0335 14.9068 82.0984C15.1324 82.1772 15.2608 82.2377 15.2608 82.2377L15.2554 82.3036C15.2554 82.3036 13.1444 82.1459 11.0345 81.9903C8.9268 81.7991 6.81909 81.6089 6.81909 81.6089L6.82447 81.542Z" fill="#006838"/>
<path d="M7.31124 72.0239C7.31124 72.0239 7.58429 71.9915 8.06131 71.9634C8.53616 71.9483 9.21931 71.8823 10.033 71.8867C10.8457 71.8942 11.7987 71.851 12.8131 71.8996C13.8276 71.9429 14.9101 71.9893 15.9925 72.0368C17.0718 72.1341 18.1499 72.2313 19.1611 72.3221C20.1735 72.4106 21.1113 72.577 21.9186 72.6775C22.7258 72.7823 23.3939 72.9368 23.8633 73.0146C24.3328 73.1053 24.5993 73.1723 24.5993 73.1723L24.595 73.2382C24.595 73.2382 20.2717 72.9681 15.9494 72.698C11.6281 72.3944 7.30801 72.0898 7.30801 72.0898L7.31124 72.0239Z" fill="#006838"/>
<path d="M13.4455 62.9737C13.4455 62.9737 13.6959 62.9445 14.133 62.9197C14.5679 62.9099 15.1939 62.8494 15.9375 62.8602C16.6811 62.8711 17.552 62.8462 18.4791 62.8894C19.4072 62.9175 20.3947 62.991 21.3811 63.0601C22.3664 63.1541 23.3518 63.2438 24.2723 63.3669C25.194 63.4782 26.0487 63.6435 26.7848 63.7526C27.5197 63.865 28.1273 64.0249 28.5547 64.1059C28.9821 64.201 29.2238 64.2701 29.2238 64.2701L29.2184 64.336C29.2184 64.336 25.2728 64.0281 21.3261 63.7202C17.3826 63.3799 13.4391 63.0374 13.4391 63.0374L13.4455 62.9737Z" fill="#006838"/>
<path d="M19.5799 53.917C19.5799 53.917 19.7461 53.8803 20.0353 53.8446C20.3235 53.822 20.7379 53.7442 21.2289 53.7345C21.72 53.7247 22.2952 53.6761 22.9071 53.6923C23.519 53.6956 24.1687 53.7409 24.8184 53.7831C25.467 53.849 26.1146 53.9106 26.72 54.0078C27.3255 54.0931 27.8856 54.2336 28.368 54.3232C28.8504 54.414 29.2465 54.5577 29.5271 54.6257C29.8066 54.7079 29.9642 54.7716 29.9642 54.7716L29.9588 54.8375C29.9588 54.8375 27.3611 54.6398 24.7634 54.4442C22.1689 54.213 19.5734 53.9829 19.5734 53.9829L19.5799 53.917Z" fill="#006838"/>
<path d="M25.7142 44.8626C25.7142 44.8626 25.7951 44.8193 25.9354 44.7707C26.0736 44.7362 26.2754 44.6411 26.5117 44.6109C26.7481 44.5806 27.0254 44.506 27.3168 44.4974C27.6104 44.4747 27.919 44.492 28.2288 44.506C28.5363 44.5428 28.8439 44.5774 29.1288 44.6487C29.4148 44.7081 29.6771 44.8237 29.9048 44.8928C30.1314 44.962 30.316 45.0894 30.4466 45.1445C30.5761 45.2148 30.6495 45.2709 30.6495 45.2709L30.6441 45.3369C30.6441 45.3369 29.4084 45.2515 28.1726 45.1672C26.9391 45.0484 25.7066 44.9295 25.7066 44.9295L25.7142 44.8626Z" fill="#006838"/>
<path d="M5.66216 74.6935C5.66216 74.6935 5.54561 74.5476 5.36538 74.284C5.19918 74.0139 4.9175 73.6477 4.6574 73.1745C4.39839 72.7002 4.05951 72.1622 3.76165 71.5594C3.44975 70.9608 3.15728 70.3061 2.86157 69.6525C2.58637 68.9892 2.30901 68.3269 2.08453 67.6916C1.84926 67.0607 1.68521 66.4482 1.51686 65.9339C1.34958 65.4197 1.27188 64.9659 1.1877 64.6591C1.11755 64.3469 1.09164 64.1632 1.09164 64.1621L1.15317 64.1373C1.15317 64.1373 2.31117 66.7625 3.46918 69.3889C4.59697 72.0272 5.72476 74.6665 5.72476 74.6665L5.66216 74.6935Z" fill="#006838"/>
<path d="M10.3449 67.5437C10.3449 67.5437 10.1971 67.3341 9.96504 66.9559C9.74596 66.5724 9.38982 66.0419 9.04015 65.3721C8.69048 64.7023 8.24799 63.9374 7.83681 63.0883C7.41267 62.2467 7.00041 61.3294 6.58383 60.4144C6.18884 59.4906 5.7906 58.5669 5.45389 57.6854C5.10638 56.8092 4.83657 55.9665 4.57756 55.2578C4.31962 54.5469 4.16744 53.9279 4.03146 53.5076C3.90843 53.0798 3.85123 52.8313 3.85231 52.8313L3.91274 52.8043C3.91274 52.8043 5.55102 56.4753 7.18928 60.1475C8.79733 63.8326 10.4054 67.5167 10.4054 67.5167L10.3449 67.5437Z" fill="#006838"/>
<path d="M16.4814 58.4901C16.4814 58.4901 16.3454 58.3151 16.1306 57.9975C15.9299 57.6734 15.6007 57.2315 15.2813 56.6654C14.9629 56.0982 14.5561 55.4521 14.1826 54.7315C13.7974 54.0174 13.425 53.2363 13.0495 52.4574C12.6944 51.6687 12.3372 50.8811 12.0382 50.126C11.7274 49.3762 11.4932 48.6513 11.2644 48.0409C11.0367 47.4326 10.9083 46.8946 10.7896 46.5327C10.6838 46.1643 10.6374 45.9471 10.6374 45.9471L10.6978 45.9201C10.6978 45.9201 12.1742 49.0489 13.6495 52.1776C15.0957 55.3203 16.5418 58.4631 16.5418 58.4631L16.4814 58.4901Z" fill="#006838"/>
<path d="M22.6136 49.4357C22.6136 49.4357 22.5218 49.3482 22.3869 49.1829C22.265 49.0122 22.047 48.7864 21.8624 48.4828C21.679 48.1792 21.4297 47.8389 21.2257 47.4489C21.0088 47.0632 20.8177 46.6343 20.6235 46.2087C20.4497 45.7722 20.2738 45.3368 20.1454 44.9144C20.0051 44.4963 19.9306 44.0814 19.8378 43.739C19.7472 43.3954 19.732 43.0832 19.6932 42.8757C19.6673 42.664 19.6673 42.5365 19.6673 42.5365L19.7288 42.5117C19.7288 42.5117 20.481 44.2305 21.2332 45.9494C21.9542 47.6812 22.6762 49.413 22.6762 49.413L22.6136 49.4357Z" fill="#006838"/>
<path d="M28.6346 40.1575C28.6367 40.1554 28.5795 40.1554 28.5083 40.1424C28.45 40.1219 28.3237 40.1143 28.2493 40.07C28.1759 40.0257 28.0539 39.989 27.9881 39.9209C27.9082 39.8594 27.8629 39.7762 27.8143 39.6941C27.7874 39.6033 27.7561 39.5136 27.7647 39.4132C27.7614 39.3181 27.8133 39.2047 27.8305 39.1204C27.8489 39.035 27.9244 38.9357 27.9492 38.8795C27.987 38.8168 28.0259 38.7736 28.0226 38.7758L28.0831 38.7487C28.0831 38.7487 28.2514 39.0869 28.4198 39.4261C28.5579 39.7783 28.695 40.1294 28.695 40.1294L28.6346 40.1575Z" fill="#006838"/>
<path d="M31.8561 35.8912C31.8561 35.8912 31.4513 36.5491 30.7423 37.704C30.0235 38.8503 29.0436 40.5195 27.7831 42.4663C26.5204 44.412 25.0915 46.711 23.4813 49.1192C21.8754 51.5316 20.1616 54.105 18.4488 56.6774C16.694 59.2216 14.9381 61.7669 13.2934 64.1524C11.6497 66.54 10.0471 68.7212 8.70776 70.6129C7.36628 72.5047 6.18021 74.0345 5.38159 75.1267C4.57325 76.2125 4.11134 76.8337 4.11134 76.8337L4.0563 76.7958L31.801 35.8534L31.8561 35.8912Z" fill="#006838"/>
<path d="M95.8131 61.5098C95.8131 61.5098 82.6293 49.3201 74.044 39.1258C77.1651 54.5285 74.616 66.338 82.4296 69.9237C87.2419 72.1298 95.3598 64.4646 95.8131 61.5098Z" fill="url(#paint4_linear)"/>
<path d="M77.2687 45.8692C77.2687 45.8692 77.2504 46.0475 77.1813 46.2884C77.1349 46.4008 77.1025 46.5455 77.0281 46.6752C76.9558 46.8059 76.8792 46.9464 76.8025 47.0857C76.7043 47.2111 76.6061 47.3364 76.5133 47.4552C76.4226 47.573 76.3028 47.6605 76.2176 47.748C76.0233 47.9057 75.8668 47.9932 75.8668 47.9932L75.8399 47.9738C75.8399 47.9738 76.183 47.439 76.5262 46.9031C76.8835 46.377 77.2407 45.8498 77.2407 45.8498L77.2687 45.8692Z" fill="#006838"/>
<path d="M80.6791 52.9619C80.6791 52.9619 80.5356 53.3292 80.2798 53.8543C80.1395 54.1082 79.9981 54.4193 79.8071 54.7283C79.6172 55.0362 79.4153 55.3657 79.2135 55.6952C78.9901 56.0107 78.7667 56.3262 78.5584 56.6211C78.3501 56.916 78.1213 57.171 77.9422 57.4C77.5602 57.8408 77.2795 58.1185 77.2795 58.1185L77.2526 58.099C77.2526 58.099 78.0954 56.8058 78.9394 55.5116C79.7963 54.2281 80.6532 52.9425 80.6532 52.9425L80.6791 52.9619Z" fill="#006838"/>
<path d="M84.0905 60.0566C84.0905 60.0566 84.0171 60.3181 83.866 60.6843C83.7775 60.8593 83.6977 61.0776 83.5725 61.2861C83.4484 61.4957 83.3167 61.7182 83.184 61.9419C83.0307 62.1515 82.8775 62.361 82.7339 62.5566C82.5915 62.7532 82.4231 62.9142 82.2969 63.0633C82.0195 63.3463 81.809 63.5181 81.808 63.5181L81.781 63.4987C81.781 63.4987 82.3443 62.629 82.9088 61.7593C83.4861 60.8982 84.0646 60.0372 84.0646 60.0372L84.0905 60.0566Z" fill="#006838"/>
<path d="M78.962 49.3902C78.962 49.3902 79.2264 49.3254 79.6193 49.2779C79.8146 49.2682 80.0445 49.2303 80.2873 49.2379C80.5313 49.2433 80.7903 49.2487 81.0493 49.2541C81.3072 49.2844 81.5651 49.3157 81.8069 49.3438C82.0486 49.3708 82.271 49.4388 82.4631 49.4756C82.8451 49.5782 83.0987 49.6776 83.0987 49.6776L83.0966 49.7111C83.0966 49.7111 82.0616 49.6474 81.0266 49.5847C79.9927 49.5048 78.9588 49.4259 78.9588 49.4259L78.962 49.3902Z" fill="#006838"/>
<path d="M82.3713 56.4827C82.3713 56.4827 82.8613 56.4341 83.5919 56.4093C83.9567 56.4125 84.383 56.3877 84.8373 56.4104C85.2917 56.4309 85.7763 56.4514 86.2608 56.473C86.7443 56.5195 87.2268 56.5659 87.679 56.6091C88.1322 56.6513 88.552 56.7323 88.9136 56.7809C89.6334 56.9073 90.1115 57.0229 90.1115 57.0229L90.1094 57.0564C90.1094 57.0564 88.1732 56.93 86.2382 56.8036C84.3031 56.6599 82.3692 56.5173 82.3692 56.5173L82.3713 56.4827Z" fill="#006838"/>
<path d="M85.3986 62.8375C85.3986 62.8375 85.2054 62.4745 84.8676 61.8392C84.5373 61.1997 84.0279 60.3051 83.4862 59.1999C82.3886 56.9927 80.9252 54.0498 79.4617 51.108C78.0836 48.1241 76.7043 45.1412 75.6704 42.9027C75.1481 41.7867 74.7682 40.8295 74.4768 40.1737C74.193 39.5125 74.0311 39.1344 74.0311 39.1344L74.0602 39.1192L85.4288 62.8224L85.3986 62.8375Z" fill="#006838"/>
<path d="M38.7847 72.1372C51.4267 76.5149 54.2845 86.0415 66.8985 88.7337C75.8874 90.6514 81.795 85.592 83.9459 84.1627C87.4167 81.8497 95.8562 67.335 95.8131 61.5097C94.695 63.7471 92.4405 63.7374 88.9071 63.2826C85.4137 62.8299 77.4878 59.148 71.7636 59.067C63.1428 58.9449 52.8103 68.7222 38.7847 72.1372Z" fill="url(#paint5_linear)"/>
<path d="M91.9818 71.6684C91.9818 71.6684 91.8804 71.5679 91.7271 71.38C91.5868 71.1855 91.344 70.9295 91.1282 70.5859C90.9134 70.2424 90.6285 69.8566 90.3857 69.4148C90.1299 68.9783 89.8957 68.4943 89.6593 68.0125C89.4435 67.5209 89.2255 67.0304 89.055 66.554C88.8748 66.0819 88.7614 65.6173 88.6362 65.2306C88.5121 64.8449 88.47 64.4927 88.4118 64.2615C88.3664 64.0227 88.3545 63.8801 88.3545 63.8801L88.415 63.8531C88.415 63.8531 89.3366 65.7923 90.2583 67.7326C91.1497 69.687 92.0412 71.6403 92.0412 71.6403L91.9818 71.6684Z" fill="#006838"/>
<path d="M83.648 75.9995C83.648 75.9995 83.484 75.7737 83.2207 75.3664C82.9703 74.9537 82.5699 74.3844 82.1652 73.6649C81.7648 72.9432 81.2489 72.1243 80.7827 71.206C80.3122 70.2887 79.8103 69.311 79.3085 68.3322C78.852 67.3318 78.3955 66.3314 77.9681 65.3947C77.5385 64.458 77.2126 63.5462 76.8943 62.7845C76.5802 62.0207 76.3806 61.3541 76.2122 60.9015C76.0557 60.4434 75.9801 60.1744 75.9801 60.1744L76.0406 60.1452C76.0406 60.1452 77.9724 64.0939 79.9042 68.0448C81.8058 72.0076 83.7085 75.9714 83.7085 75.9714L83.648 75.9995Z" fill="#006838"/>
<path d="M72.886 75.1126C72.886 75.1126 72.7349 74.9073 72.4953 74.5335C72.2687 74.1533 71.9028 73.6325 71.5391 72.9714C71.1765 72.3091 70.7179 71.5528 70.2905 70.7134C69.8491 69.8804 69.4184 68.9729 68.9846 68.0665C68.5713 67.1504 68.1547 66.2374 67.8007 65.3634C67.4349 64.4937 67.1489 63.6586 66.8758 62.9542C66.6039 62.2509 66.4387 61.634 66.2941 61.217C66.1625 60.7935 66.1009 60.545 66.1009 60.545L66.1614 60.518C66.1614 60.518 67.873 64.1524 69.5846 67.7878C71.2661 71.4372 72.9475 75.0867 72.9475 75.0867L72.886 75.1126Z" fill="#006838"/>
<path d="M62.1207 74.2298C62.1207 74.2298 62.0063 74.1013 61.8293 73.8647C61.6664 73.6205 61.3901 73.2943 61.1354 72.8654C60.8807 72.4364 60.5505 71.9525 60.258 71.4047C59.9526 70.8635 59.6666 70.2671 59.3774 69.6718C59.1086 69.0668 58.8377 68.465 58.6187 67.8827C58.3888 67.3069 58.2301 66.7419 58.065 66.2719C57.9021 65.7998 57.8276 65.3795 57.7466 65.0986C57.6786 64.8102 57.6538 64.6395 57.6538 64.6395L57.7143 64.6125C57.7143 64.6125 58.8464 67.0022 59.9785 69.3931C61.0804 71.798 62.1823 74.2018 62.1823 74.2018L62.1207 74.2298Z" fill="#006838"/>
<path d="M51.3544 73.344C51.3544 73.344 51.2756 73.2943 51.1645 73.1949C51.0652 73.089 50.8806 72.9584 50.736 72.766C50.5925 72.5727 50.3885 72.3641 50.2342 72.1124C50.0658 71.865 49.9266 71.5841 49.7841 71.3032C49.6622 71.0126 49.537 70.7252 49.456 70.4379C49.3643 70.1548 49.333 69.8664 49.278 69.6319C49.2251 69.3964 49.2413 69.1717 49.2251 69.028C49.2208 68.8778 49.2326 68.7849 49.2326 68.7849L49.2931 68.7579C49.2931 68.7579 49.8381 69.8901 50.3842 71.0234C50.9 72.1708 51.4159 73.317 51.4159 73.317L51.3544 73.344Z" fill="#006838"/>
<path d="M86.7433 76.1183C86.7433 76.1183 86.6796 76.2933 86.5458 76.5829C86.4001 76.8638 86.2306 77.2916 85.9597 77.7562C85.6878 78.2218 85.4007 78.7858 85.037 79.3508C84.6852 79.9223 84.2751 80.5078 83.8682 81.0956C83.4419 81.6703 83.0178 82.2462 82.5882 82.7636C82.1695 83.2865 81.7281 83.7403 81.3752 84.1476C81.0212 84.5538 80.6715 84.852 80.4525 85.0799C80.2215 85.2992 80.0769 85.4159 80.0769 85.4159L80.0229 85.3781C80.0229 85.3781 81.6763 83.0445 83.3286 80.7099C85.009 78.3957 86.6882 76.0816 86.6882 76.0816L86.7433 76.1183Z" fill="#006838"/>
<path d="M78.3242 75.5608C78.3242 75.5608 78.2206 75.7942 78.0156 76.1864C77.7997 76.5699 77.5288 77.1468 77.136 77.7886C76.7421 78.4303 76.3136 79.2017 75.7978 79.9871C75.2938 80.7812 74.7207 81.6044 74.1519 82.4287C73.5637 83.2401 72.9777 84.0525 72.396 84.7925C71.8251 85.538 71.2413 86.2003 70.7664 86.7847C70.2905 87.3692 69.8394 87.8165 69.549 88.1481C69.2469 88.4712 69.0623 88.6473 69.0623 88.6473L69.0083 88.6095C69.0083 88.6095 71.3103 85.3284 73.6134 82.0473C75.9424 78.7857 78.2724 75.5241 78.2724 75.5241L78.3242 75.5608Z" fill="#006838"/>
<path d="M67.56 74.675C67.56 74.675 67.4802 74.8802 67.3183 75.227C67.1435 75.5652 66.9341 76.074 66.6125 76.6391C66.2898 77.2019 65.9466 77.8804 65.5203 78.5697C65.107 79.2665 64.6289 79.985 64.154 80.7056C63.6597 81.4132 63.1687 82.123 62.6765 82.7658C62.193 83.4151 61.6923 83.9877 61.2887 84.4955C60.884 85.0032 60.49 85.3868 60.2407 85.6741C59.9796 85.9539 59.8177 86.1041 59.8177 86.1041L59.7626 86.0663C59.7626 86.0663 61.6847 83.2012 63.6068 80.3339C65.5559 77.486 67.505 74.6382 67.505 74.6382L67.56 74.675Z" fill="#006838"/>
<path d="M56.7948 73.7913C56.7948 73.7913 56.7667 73.9155 56.6944 74.1165C56.6102 74.3088 56.5293 74.6113 56.3641 74.9235C56.1979 75.2368 56.035 75.6236 55.8051 75.9974C55.586 76.3798 55.3173 76.7634 55.0518 77.148C54.768 77.5185 54.4863 77.8913 54.1906 78.2186C53.9046 78.5524 53.5884 78.8268 53.3423 79.0818C53.0952 79.3357 52.834 79.5075 52.6775 79.6457C52.5092 79.7754 52.4012 79.8413 52.4012 79.8413L52.3473 79.8035C52.3473 79.8035 53.433 78.2813 54.5176 76.759C55.6292 75.2552 56.7419 73.7535 56.7419 73.7535L56.7948 73.7913Z" fill="#006838"/>
<path d="M45.8935 73.1182C45.8913 73.116 45.9205 73.1668 45.9453 73.2338C45.9593 73.2943 46.0165 73.4066 46.0165 73.4931C46.0165 73.5784 46.0478 73.7016 46.0241 73.7923C46.0122 73.8928 45.9636 73.9738 45.9194 74.057C45.8546 74.1272 45.7942 74.1996 45.7046 74.245C45.6248 74.2969 45.5007 74.3098 45.4197 74.339C45.3377 74.3671 45.2136 74.352 45.1521 74.3595C45.0798 74.3595 45.0226 74.3476 45.0258 74.3498L44.9718 74.312C44.9718 74.312 45.1747 73.9944 45.3776 73.6767C45.6086 73.3786 45.8385 73.0793 45.8385 73.0793L45.8935 73.1182Z" fill="#006838"/>
<path d="M40.6593 72.4138C40.6593 72.4138 41.4234 72.4408 42.7584 72.4905C44.0934 72.5531 46.0057 72.5834 48.2915 72.7228C50.5773 72.8643 53.2484 72.9766 56.1019 73.1927C58.9565 73.4034 62.0009 73.6281 65.0454 73.8539C68.0856 74.1294 71.1258 74.4049 73.9771 74.6631C76.8273 74.918 79.4812 75.2411 81.7594 75.4755C84.0366 75.7121 85.9284 75.993 87.2559 76.1497C88.5822 76.3182 89.3399 76.4154 89.3399 76.4154L89.3345 76.4813L40.6539 72.4797L40.6593 72.4138Z" fill="#006838"/>
<defs>
<linearGradient id="paint0_linear" x1="25.7773" y1="17.1107" x2="34.6522" y2="18.5625" gradientUnits="userSpaceOnUse">
<stop stop-color="#65C08A"/>
<stop offset="0.5" stop-color="#00A551"/>
<stop offset="1" stop-color="#00914D"/>
</linearGradient>
<linearGradient id="paint1_linear" x1="42.8154" y1="27.6007" x2="68.4506" y2="15.8709" gradientUnits="userSpaceOnUse">
<stop stop-color="#65C08A"/>
<stop offset="0.25" stop-color="#00A551"/>
<stop offset="0.5" stop-color="#00914D"/>
<stop offset="0.75" stop-color="#00A551"/>
<stop offset="1" stop-color="#65C08A"/>
</linearGradient>
<linearGradient id="paint2_linear" x1="28.4167" y1="86.5083" x2="25.1967" y2="77.9958" gradientUnits="userSpaceOnUse">
<stop stop-color="#65C08A"/>
<stop offset="0.5" stop-color="#00A551"/>
<stop offset="1" stop-color="#00914D"/>
</linearGradient>
<linearGradient id="paint3_linear" x1="28.9562" y1="66.2372" x2="5.87372" y2="49.8566" gradientUnits="userSpaceOnUse">
<stop stop-color="#65C08A"/>
<stop offset="0.25" stop-color="#00A551"/>
<stop offset="0.5" stop-color="#00914D"/>
<stop offset="0.75" stop-color="#00A551"/>
<stop offset="1" stop-color="#65C08A"/>
</linearGradient>
<linearGradient id="paint4_linear" x1="85.5602" y1="49.9983" x2="79.7165" y2="57.13" gradientUnits="userSpaceOnUse">
<stop stop-color="#65C08A"/>
<stop offset="0.5" stop-color="#00A551"/>
<stop offset="1" stop-color="#00914D"/>
</linearGradient>
<linearGradient id="paint5_linear" x1="67.9708" y1="59.8674" x2="65.2783" y2="88.3662" gradientUnits="userSpaceOnUse">
<stop stop-color="#65C08A"/>
<stop offset="0.25" stop-color="#00A551"/>
<stop offset="0.5" stop-color="#00914D"/>
<stop offset="0.75" stop-color="#00A551"/>
<stop offset="1" stop-color="#65C08A"/>
</linearGradient>
</defs>
</svg>
