<svg width="68" height="64" viewBox="0 0 68 64" fill="none" xmlns="http://www.w3.org/2000/svg">
<path d="M47.5734 11.5967C45.5628 11.5967 42.2708 11.5967 40.2614 11.5967H25.6369C23.6269 11.5967 22.2553 13.2187 22.5925 15.2008L29.1371 53.6931C29.4749 55.6757 31.3959 57.2972 33.4053 57.2972H40.2614C42.2708 57.2972 45.5628 57.2972 47.5734 57.2972H54.4278C56.4378 57.2972 58.3594 55.6751 58.6954 53.6931L65.2412 15.2008C65.5772 13.2181 64.2074 11.5967 62.1968 11.5967H47.5734V11.5967Z" fill="#2B4753"/>
<path d="M67.8348 13.4241C67.8348 14.434 67.0161 15.2521 66.0057 15.2521H21.8286C20.8182 15.2521 20 14.4334 20 13.4241C20 12.4154 20.8187 11.5967 21.8286 11.5967H66.0057C67.0167 11.5967 67.8348 12.4154 67.8348 13.4241Z" fill="#E2DED3"/>
<path d="M43.9174 5.76929C20.6076 5.76929 22.5406 11.6344 22.5406 11.6344H65.2965C65.2965 11.6344 67.229 5.76929 43.9174 5.76929Z" fill="#2B4753"/>
<path d="M48.1166 7.4261C47.3612 7.4261 46.7456 6.81221 46.7456 6.05568V2.74143H40.339V6.05568C40.339 6.81221 39.7251 7.4261 38.9686 7.4261C38.2109 7.4261 37.5976 6.81221 37.5976 6.05568V1.371C37.5976 0.614467 38.2109 0 38.9686 0H48.1166C48.8742 0 49.4881 0.614467 49.4881 1.371V6.05568C49.4881 6.81221 48.8742 7.4261 48.1166 7.4261Z" fill="#2B4753"/>
<path d="M20.3558 43.7427C20.102 44.7568 19.0749 45.3738 18.0589 45.1196C17.0447 44.8672 16.4282 43.8392 16.6819 42.8232L23.2813 16.4341C23.5351 15.4204 24.5631 14.8038 25.5782 15.0567C26.5915 15.31 27.209 16.3376 26.9552 17.3532L20.3558 43.7427Z" fill="#E0E0E0"/>
<path d="M15.0569 59.6914L15.4751 55.3357L13.7219 59.3585L15.0569 59.6914Z" fill="#E1A40B"/>
<path d="M28.2012 62.9774L28.2763 60.7985L28.7378 63.1119L30.1148 63.4559L28.3862 51.8173L7.00106 46.4734L0 55.9273L1.78355 56.3727L5.43733 52.1747L3.2079 56.7297L5.68439 57.3476L7.06852 55.1878L6.70126 57.6022L8.65055 58.0897L11.375 53.0366L9.91405 58.4055L11.908 58.9046L13.9498 55.4738L13.0205 59.1829L15.0574 59.6909L15.3715 59.77L17.6402 54.5346L16.7753 60.1221L19.099 60.7033C19.1119 60.6832 20.8485 56.9499 20.8485 56.9499L20.484 60.9906L21.2337 61.18L22.0548 58.5382L22.3194 61.4503L24.8535 62.1411L25.8458 56.5523L26.3895 62.5249L28.2012 62.9774Z" fill="#E0E0E0"/>
<path d="M27.5476 47.2571C27.9649 45.5906 26.9498 43.8995 25.2824 43.4809L13.6617 40.5786C11.9943 40.1604 10.3037 41.1755 9.88685 42.8433C9.47045 44.512 10.4855 46.2027 12.1529 46.6195L23.771 49.5231C25.4406 49.9409 27.1299 48.9253 27.5476 47.2571Z" fill="#BDBDBD"/>
<path d="M30.5232 51.2794C30.126 52.8619 28.703 53.8698 27.3452 53.5289L7.1137 48.4731C5.75593 48.1327 4.97315 46.5739 5.36945 44.9918C5.76485 43.4102 7.18874 42.4014 8.54651 42.7419L28.7763 47.7981C30.1358 48.1385 30.9177 49.6964 30.5232 51.2794Z" fill="#F2F2F2"/>
</svg>
