<svg width="30" height="36" viewBox="0 0 30 36" fill="none" xmlns="http://www.w3.org/2000/svg">
<path d="M16.9862 7.14404C15.7477 7.14404 13.7197 7.14404 12.4818 7.14404H3.47253C2.2343 7.14404 1.38936 8.14328 1.59708 9.36429L5.62881 33.077C5.83688 34.2984 7.02029 35.2972 8.25817 35.2972H12.4818C13.7197 35.2972 15.7477 35.2972 16.9862 35.2972H21.2088C22.4471 35.2972 23.6308 34.298 23.8378 33.077L27.8703 9.36429C28.0773 8.14292 27.2334 7.14404 25.9948 7.14404H16.9862V7.14404Z" fill="#2B4753"/>
<path d="M29.468 8.26981C29.468 8.89191 28.9637 9.39592 28.3412 9.39592H1.12647C0.504016 9.39592 0 8.89156 0 8.26981C0 7.64841 0.504367 7.14404 1.12647 7.14404H28.3412C28.964 7.14404 29.468 7.64841 29.468 8.26981Z" fill="#E2DED3"/>
<path d="M14.734 3.55408C0.374335 3.55408 1.56511 7.1672 1.56511 7.1672H27.9044C27.9044 7.1672 29.0948 3.55408 14.734 3.55408Z" fill="#2B4753"/>
<path d="M17.3208 4.57475C16.8555 4.57475 16.4762 4.19657 16.4762 3.73052V1.68882H12.5296V3.73052C12.5296 4.19657 12.1514 4.57475 11.6853 4.57475C11.2186 4.57475 10.8408 4.19657 10.8408 3.73052V0.844585C10.8408 0.378534 11.2186 0 11.6853 0H17.3208C17.7876 0 18.1658 0.378534 18.1658 0.844585V3.73052C18.1658 4.19657 17.7876 4.57475 17.3208 4.57475Z" fill="#2B4753"/>
</svg>
