<svg width="31" height="43" viewBox="0 0 31 43" fill="none" xmlns="http://www.w3.org/2000/svg">
<path d="M14.7586 0.316984C14.7586 0.316984 2.08875 -1.48159 1.67059 3.48975L27.0976 5.85113C27.5494 0.882704 14.7586 0.316984 14.7586 0.316984Z" fill="#4D4D4D"/>
<path d="M27.1612 38.0489C27.1529 39.5702 25.9017 40.8143 24.3812 40.8143H7.7451C6.2246 40.8143 4.84127 39.5773 4.67085 38.0672L1.37173 8.76951C1.20256 7.25857 2.30656 6.02197 3.82789 6.02197H24.5649C26.0863 6.02197 27.3241 7.26647 27.3154 8.78738L27.1612 38.0489Z" fill="#4D4D4D"/>
<path d="M25.5334 42.7209C28.4603 42.7209 30.8331 40.3481 30.8331 37.4212C30.8331 34.4942 28.4603 32.1215 25.5334 32.1215C22.6064 32.1215 20.2336 34.4942 20.2336 37.4212C20.2336 40.3481 22.6064 42.7209 25.5334 42.7209Z" fill="#CCCCCC"/>
<path d="M25.5338 40.0685C26.9959 40.0685 28.1812 38.8833 28.1812 37.4212C28.1812 35.9591 26.9959 34.7738 25.5338 34.7738C24.0717 34.7738 22.8865 35.9591 22.8865 37.4212C22.8865 38.8833 24.0717 40.0685 25.5338 40.0685Z" fill="#4D4D4D"/>
<path d="M28.6713 7.28889C28.6713 8.15846 27.9663 8.86343 27.0975 8.86343H1.57413C0.704142 8.86343 0 8.15846 0 7.28889C0 6.41891 0.704142 5.71436 1.57413 5.71436H27.0975C27.9663 5.71477 28.6713 6.41891 28.6713 7.28889Z" fill="#CCCCCC"/>
<path d="M15.1522 33.1532C20.8679 33.1532 25.5014 28.5197 25.5014 22.804C25.5014 17.0883 20.8679 12.4548 15.1522 12.4548C9.43648 12.4548 4.80298 17.0883 4.80298 22.804C4.80298 28.5197 9.43648 33.1532 15.1522 33.1532Z" fill="#CCCCCC"/>
<path d="M17.5971 30.4561C13.5469 31.7534 9.38694 29.6875 8.12748 25.7553C7.96288 25.2391 8.24761 24.6883 8.7622 24.5217C9.27763 24.3579 9.82963 24.6422 9.99506 25.1568C10.9195 28.0415 13.995 29.5512 16.9973 28.5885C18.9011 27.9787 20.3247 26.5247 20.8002 24.6987C20.9391 24.1771 21.4732 23.862 21.9961 23.9987C22.5211 24.1351 22.8349 24.6725 22.6978 25.1967C22.0489 27.6745 20.1431 29.6406 17.5971 30.4561Z" fill="#4D4D4D"/>
<path d="M19.7989 25.6318C19.4406 25.6272 19.2964 25.3712 19.4793 25.0619L21.3186 21.9881C21.5019 21.6805 21.797 21.6847 21.9728 21.9977L23.7136 25.1255C23.8895 25.4402 23.7373 25.6925 23.3794 25.6879L19.7989 25.6318Z" fill="#4D4D4D"/>
<path d="M12.7077 15.1517C16.7587 13.8561 20.917 15.9211 22.1785 19.8533C22.3423 20.3687 22.0563 20.9207 21.5413 21.0861C21.0272 21.2507 20.4739 20.966 20.3101 20.4522C19.3845 17.5655 16.309 16.0578 13.3058 17.0205C11.4029 17.6295 9.97965 19.0835 9.50372 20.9099C9.36572 21.4328 8.83034 21.7462 8.30702 21.6095C7.78287 21.4731 7.46946 20.9373 7.60621 20.4123C8.25423 17.935 10.1617 15.9685 12.7077 15.1517Z" fill="#4D4D4D"/>
<path d="M10.505 19.9763C10.8638 19.9813 11.0067 20.2386 10.8234 20.5474L8.98621 23.6196C8.80124 23.9285 8.5082 23.9235 8.33195 23.6109L6.59074 20.4826C6.41575 20.1692 6.56746 19.9165 6.92576 19.9215L10.505 19.9763Z" fill="#4D4D4D"/>
</svg>
