<svg width="14" height="9" viewBox="0 0 14 9" fill="none" xmlns="http://www.w3.org/2000/svg">
<path d="M12.25 3.5V1.75H11.375V3.5H9.625V4.375H11.375V6.125H12.25V4.375H14V3.5H12.25Z" fill="#003590"/>
<path d="M4.375 3.5V5.25H6.85038C6.489 6.2685 5.516 7 4.375 7C2.92775 7 1.75 5.82225 1.75 4.375C1.75 2.92775 2.92775 1.75 4.375 1.75C5.00238 1.75 5.60612 1.97487 6.07512 2.3835L7.22487 1.064C6.43738 0.378 5.42588 0 4.375 0C1.96263 0 0 1.96263 0 4.375C0 6.78737 1.96263 8.75 4.375 8.75C6.78737 8.75 8.75 6.78737 8.75 4.375V3.5H4.375Z" fill="#003590"/>
</svg>
