<svg width="431" height="129" viewBox="0 0 431 129" fill="none" xmlns="http://www.w3.org/2000/svg">
<path d="M340.058 61.3166C338.184 56.3912 338.11 52.9042 338.592 50.8772C339.075 48.8611 340.126 48.2185 340.126 48.2185C340.126 48.2185 340.058 47.3137 339.153 47.3137C338.269 47.3137 335.683 47.5754 335.683 47.5754C335.683 47.5754 337.7 43.6746 338.029 37.5286C338.35 31.3827 337.862 27.7431 337.862 26.9263C337.862 26.1084 337.544 25.3022 336.569 24.4958C335.596 23.6898 334.632 22.0767 335.114 21.8264C335.596 21.5868 336.242 22.0009 336.408 21.5104C336.476 21.3137 336.438 21.02 336.408 20.7912C336.38 20.4206 336.329 20.1374 336.329 20.1374C336.438 20.0502 336.802 20.1051 336.811 19.8652C336.53 19.3858 336.087 18.9935 336.087 18.9935C336.087 18.9935 336.155 18.3503 335.912 17.8708C335.683 17.3806 334.71 16.5744 333.659 16.8141C332.605 17.0542 331.703 16.9991 331.626 18.5357C331.578 19.4728 332.204 19.4834 332.117 19.9744C332.029 20.4643 332.067 21.0963 331.795 21.4449C331.468 21.8267 329.616 19.7233 328.309 19.2551C327.026 18.7644 325.965 18.7644 325.965 18.7644L324.432 20.0505C324.432 20.0505 319.332 18.5142 316.584 18.4378C313.83 18.3506 313.105 18.7647 313.587 19.8874C314.069 21.0207 315.051 22.1541 314.478 22.6554C313.913 23.1236 313.344 23.7771 313.913 24.1694C314.478 24.5952 315.208 24.8346 315.208 24.8346C315.208 24.8346 312.7 28.0707 317.635 27.7436C322.57 27.4164 323.786 26.0334 323.786 26.0334C323.786 26.0334 325.077 26.2075 325.484 26.5235C325.878 26.8401 326.62 27.4167 326.854 27.4936C327.104 27.5911 327.595 28.4631 329.447 28.5397C331.305 28.6269 331.795 28.3872 332.117 28.954C332.444 29.4986 333.82 30.8169 333.659 31.7872C333.492 32.7562 331.765 33.345 331.032 34.6087C329.367 37.4751 330.261 41.0381 326.12 45.3863C325.164 46.3776 323.786 47.9685 322.735 49.4287C321.677 50.8783 321.28 52.4143 321.28 52.4143C321.28 52.4143 322.735 53.7984 324.83 54.9317C326.94 56.0653 328.153 57.209 328.153 57.209L327.99 58.5716C327.99 58.5716 331.795 59.6175 330.825 61.2407C329.85 62.865 326.94 62.865 326.94 62.865L327.026 65.0442L330.092 64.9673C330.092 64.9673 330.014 69.0979 319.168 70.8627C310.615 72.2795 295.328 72.6278 287.702 72.7039L288.137 45.4404L288.175 44.0783C288.175 44.0783 290.354 43.0325 289.554 41.6478C288.955 40.6569 288.448 39.9915 288.221 39.7083L288.729 7.03935L289.655 6.53804L288.191 0.795838L286.746 6.49456L287.872 7.09422L287.585 25.9565L287.282 39.4684C287.282 39.4684 286.964 40.1115 286.223 40.4488C285.506 40.7658 285.185 40.3618 285.185 40.3618C285.185 40.3618 284.621 38.4223 282.665 36.7338C280.728 35.0117 279.51 34.6194 279.51 34.6194L279.674 33.5735C279.674 33.5735 280.821 34.2156 281.132 33.8132C281.459 33.4097 281.404 32.8431 281.161 32.2764C280.93 31.7098 280.968 31.3069 280.889 31.0672C280.821 30.8162 281.458 30.9686 281.458 30.6415C281.458 30.326 280.485 29.203 280.485 29.203C280.485 29.203 280.336 28.0699 279.993 27.4928C279.652 26.9045 279.194 26.7738 277.645 27.1659C276.119 27.5904 275.628 28.2338 275.797 29.3557C275.955 30.4888 276.277 30.9683 275.955 31.2194C275.628 31.4593 274.98 31.9384 275.386 32.3527C275.797 32.7554 276.432 33.0828 276.432 33.0828L276.198 34.4553L274.174 34.8593C274.174 34.8593 274.664 33.5732 274.087 33.2352C273.523 32.9195 273.22 32.6687 273.22 32.6687L273.245 6.16742L274.162 5.74298L272.699 0L271.244 5.70985L272.184 6.21142L272.133 32.9418C272.133 32.9418 271.501 33.5735 271.751 34.2159C271.883 34.5761 272.038 34.9354 272.155 35.2736V36.5814C271.852 37.3542 271.261 38.5095 271.261 38.5095C271.261 38.5095 270.373 35.5133 269.322 34.6954C268.262 33.9006 266.884 33.5738 266.884 33.5738V32.0263C266.884 32.0263 267.692 31.7867 268.019 31.3829C268.349 30.9689 268.099 30.4137 267.78 29.9227C267.458 29.4432 267.537 28.6264 267.21 27.5906C266.884 26.523 266.565 26.7741 266.565 26.7741C266.565 26.7741 266.325 25.8038 264.952 26.0331C263.576 26.2831 263.1 26.9265 263.179 28.387C263.249 29.8358 262.689 29.8358 262.773 30.5664C262.835 31.3071 263.505 32.0266 263.819 32.0266C264.146 32.0266 264.222 32.669 263.653 33.0836C263.1 33.4868 260.073 34.5112 260.073 34.5112C260.073 34.5112 259.683 37.7688 259.856 40.449C260.011 43.1194 260.578 44.0783 261.225 44.4813C261.868 44.907 262.198 45.1464 262.198 45.1464C262.198 45.1464 261.629 47.0746 261.473 48.7641C261.312 50.4745 261.312 51.0411 261.312 51.0411L259.856 50.3984C259.856 50.3984 259.441 48.9382 259.441 48.2193C259.441 47.4672 259.365 46.0284 259.285 45.4619C259.215 44.907 258.88 41.4198 259.215 40.0352C259.536 38.6622 259.046 37.2139 259.133 36.7343C259.215 36.2328 259.285 35.3396 258.637 34.5329C257.986 33.7368 257.752 33.4868 257.027 33.1488C256.289 32.8434 255.649 32.92 255.485 32.1897C255.316 31.4601 255.406 30.7406 255.406 30.7406C255.406 30.7406 256.289 30.8933 256.539 29.4983C256.782 28.1471 256.942 27.5909 256.049 27.1664C256.049 27.1664 256.398 26.2396 255.667 25.2704C254.94 24.2898 254.022 24.4963 254.022 24.4963L253.463 24.3332C253.463 24.3332 252.096 24.4963 251.6 25.4016C251.113 26.2831 251.374 26.654 251.374 27.2316C251.374 27.7871 250.63 28.4739 251.276 28.9535C251.57 29.1714 251.113 30.2496 251.854 30.4893C252.567 30.7406 252.567 30.7406 252.567 30.7406C252.567 30.7406 252.9 31.9391 252.404 31.787C251.922 31.6123 250.862 30.8167 249.5 30.9691C248.121 31.1547 246.993 31.1547 246.184 31.5356C245.365 31.9391 245.857 32.1022 244.643 32.1022C243.428 32.1022 241.973 32.1022 241.973 32.1022C241.973 32.1022 241.411 31.5356 241.169 31.5356C240.913 31.5356 237.846 31.3829 237.846 31.3829L237.113 31.7101L235.013 31.6123L233.961 31.3071C233.961 31.3071 233.547 30.3265 233.313 30.3265C233.313 30.3265 234.029 22.6551 236.462 19.8106C238.89 16.9776 240.188 17.2064 242.774 16.6616C245.365 16.084 247.479 15.2886 248.596 14.057C249.74 12.8478 250.222 11.4748 250.222 11.4748C250.222 11.4748 250.481 10.4505 250.007 11.2132C248.603 13.425 247.991 13.9915 247.094 14.4271C243.616 16.1168 242.128 15.528 239.216 16.4978C236.304 17.4564 235.337 18.5139 233.961 21.5104C232.582 24.4958 231.943 30.4888 231.943 30.4888C231.943 30.4888 231.207 30.8928 231.207 31.5351C231.207 32.1889 230.806 33.3219 231.12 33.5732C231.447 33.8129 231.703 33.6387 231.703 33.6387C231.703 33.6387 231.853 40.9281 233.711 44.4808C235.144 47.2161 237.045 48.0448 237.854 48.2728C238.249 50.7251 238.881 53.3181 238.094 55.2581C236.95 58.0036 236.146 61 236.146 61C236.146 61 239.706 62.9292 240.997 63.4308C242.297 63.9104 242.695 64.3891 242.695 64.3891L242.54 66.3398C242.54 66.3398 243.986 67.7125 245.858 67.9421C247.707 68.2037 249.01 68.9225 249.74 69.4023C250.475 69.9033 250.31 71.6035 250.31 71.6035L233.547 70.2408L235.013 76.6042L240.276 77.4109L241.654 80.8326C241.654 80.8326 246.419 83.4807 253.066 85.1042C259.683 86.7277 271.433 86.7278 271.433 86.7278C271.433 86.7278 269.477 90.5201 271.828 92.8737C274.174 95.227 277.497 94.6709 277.497 94.6709V99.7484H284.708V95.4672C284.708 95.4672 288.293 95.7077 289.113 95.5431C289.919 95.38 290.559 94.726 290.559 94.726V99.7484L300.148 99.956L299.636 93.6902L305.896 93.6147V100H317.144C317.144 100 317.379 95.1406 316.575 91.9039C315.767 88.6673 313.984 85.7474 313.734 85.6819C313.495 85.5949 331.954 84.3741 338.269 78.3157C344.58 72.2458 341.902 66.264 340.058 61.3166ZM237.595 45.2983C237.571 45.8864 237.62 46.5189 237.683 47.1724C237.051 46.8455 235.73 45.9084 234.452 43.1189C232.663 39.2282 233.152 33.736 233.152 33.736C233.152 33.736 233.314 33.6387 233.883 33.6387C234.452 33.6387 235.825 34.2156 235.825 34.2156L242.128 36.5594C242.129 36.5591 237.767 42.2359 237.595 45.2983ZM263.217 68.8461C263.007 69.5433 262.953 70.1313 263.062 70.415C263.179 70.688 263.217 71.9189 263.217 71.9189L259.613 71.5483C259.613 71.5483 260.422 71.2215 260.198 70.7318C259.994 70.252 259.286 70.0775 259.286 69.9253C259.286 69.7724 259.133 68.9007 259.504 67.887C259.877 66.8414 260.904 64.913 260.904 64.913L263.119 65.1744C263.119 65.1741 263.437 68.1486 263.217 68.8461ZM271.261 72.5072C271.261 72.5072 271.907 71.9735 271.752 71.6469C271.581 71.3301 270.406 71.4293 269.431 71.2215C268.458 71.0035 267.867 70.415 267.693 69.652C267.538 68.9007 268.091 65.2833 268.091 65.2833L269.322 65.3369C269.322 65.3369 270.406 53.264 270.406 50.4414C270.406 47.6522 270.504 46.2355 270.24 45.3201C269.968 44.4047 269.755 43.7613 269.755 43.7613L269.864 42.5304C269.864 42.5304 270.559 43.0534 271.322 43.1189C271.673 43.1404 271.951 43.0855 272.155 43.0319V54.5386C272.133 54.844 272.101 55.1155 272.068 55.3125C271.751 57.503 272.288 63.5615 272.016 65.01C271.751 66.4816 271.852 69.2713 271.852 69.2713L272.155 69.5765V72.5072H271.261ZM286.729 72.7145C285.234 72.7249 284.368 72.7249 284.368 72.7249C284.368 72.7249 284.621 71.7559 284.052 71.679C283.477 71.6032 281.78 71.7559 281.371 70.862C280.968 69.9794 281.458 68.5956 281.458 68.5956L282.51 68.4429L283.646 61.0655C283.646 61.0655 286.473 60.6729 286.558 59.9433C286.643 59.213 286.964 56.2271 286.964 56.2271L286.729 72.7145Z" fill="#2B4753"/>
<path d="M430.568 128.357C403.418 128.357 35.3833 128.357 0.189575 128.357C32.4063 111.562 105.102 88.1346 215.38 88.1346C325.659 88.1346 402.38 109.125 430.568 128.357Z" fill="url(#paint0_linear)"/>
<defs>
<linearGradient id="paint0_linear" x1="0.188611" y1="108.246" x2="430.568" y2="108.246" gradientUnits="userSpaceOnUse">
<stop stop-color="#70B62C"/>
<stop offset="1" stop-color="#B4CC0E"/>
</linearGradient>
</defs>
</svg>
