<svg width="54" height="60" viewBox="0 0 54 60" fill="none" xmlns="http://www.w3.org/2000/svg">
<path d="M49.0466 58.2193L45 52.3228V8H53V52.3285L49.0466 58.2193Z" stroke="#007A33" stroke-width="2"/>
<path d="M45.9392 1H52.0509C52.5116 1 52.9924 1.42095 53 2.05345V7H45V2.04819C45 1.42234 45.4763 1 45.9392 1Z" stroke="#007A33" stroke-width="2"/>
<path d="M1 59V1H39V59H1Z" stroke="#007A33" stroke-width="2"/>
<path d="M5 55V5H35V55H5Z" stroke="#007A33" stroke-width="2"/>
<line x1="7" y1="27" x2="33" y2="27" stroke="#007A33" stroke-width="2"/>
<line x1="22" y1="11" x2="33" y2="11" stroke="#007A33" stroke-width="2"/>
<line x1="22" y1="16" x2="33" y2="16" stroke="#007A33" stroke-width="2"/>
<line x1="7" y1="32" x2="33" y2="32" stroke="#007A33" stroke-width="2"/>
<line x1="7" y1="37" x2="33" y2="37" stroke="#007A33" stroke-width="2"/>
<line x1="7" y1="42" x2="33" y2="42" stroke="#007A33" stroke-width="2"/>
<line x1="7" y1="47" x2="33" y2="47" stroke="#007A33" stroke-width="2"/>
</svg>
