<svg width="70" height="60" viewBox="0 0 70 60" fill="none" xmlns="http://www.w3.org/2000/svg">
<path d="M60.6929 13.2219H47.0921H46.2652L46.1099 14.034L41.3354 39H37.2208L42.9454 10.4906L42.9454 10.4906L42.9461 10.4873C42.9551 10.4415 42.9811 10.3993 43.0208 10.3696L43.0266 10.3652L43.0324 10.3607C43.0729 10.3294 43.123 10.312 43.1749 10.3116H57.7709L60.6929 13.2219Z" fill="#E2DED3" stroke="#007A33" stroke-width="2"/>
<path d="M68.9329 10.075L68.9316 10.0763L65.8381 13.1575C65.7946 13.2008 65.7351 13.2256 65.6725 13.2256H61.0623L56.7192 8.89664V4.30838C56.7192 4.24968 56.7427 4.19221 56.786 4.14904L59.8794 1.068C59.8794 1.06798 59.8794 1.06795 59.8795 1.06793C59.8795 1.06792 59.8795 1.06791 59.8795 1.0679C59.9705 0.977368 60.1197 0.977368 60.2108 1.0679C60.2108 1.06793 60.2109 1.06797 60.2109 1.068L68.9316 9.75391L68.9332 9.75545C68.9763 9.79819 69 9.85567 69 9.91512C69 9.9743 68.9763 10.032 68.9329 10.075Z" fill="#E2DED3" stroke="#007A33" stroke-width="2"/>
<path d="M32 44.75V44.7497C32.0008 42.6424 31.4979 40.5574 30.5233 38.6412C28.9032 35.4589 26.1076 32.8808 22.6056 31.3758L32 44.75ZM32 44.75V49M32 44.75V49M32 49H14V30L15.8572 30L15.8575 30C18.1919 29.9993 20.4956 30.4698 22.6053 31.3756L32 49Z" fill="#E2DED3" stroke="#007A33" stroke-width="2"/>
<path d="M14.4999 30.5729H13V16H21V31.5837C18.8978 30.9149 16.7069 30.5731 14.5 30.5729H14.4999Z" fill="#E2DED3" stroke="#007A33" stroke-width="2"/>
<path d="M52.9871 40.2415L52.9871 40.2437L53 45.8986L53 45.9009L53 49H30.4351V44.8575C30.4351 44.8574 30.4351 44.8573 30.4351 44.8572C30.4358 42.6202 29.9699 40.4091 29.0688 38.3631L30.7292 33.0815L52.7343 35.4363C52.8825 35.4562 52.9863 35.5797 52.9871 35.7177L52.9871 40.2415Z" fill="#E2DED3" stroke="#007A33" stroke-width="2"/>
<path d="M52.8345 46.1773L52.8345 49.1143H31.3708V45.175C31.3708 45.1749 31.3708 45.1748 31.3708 45.1747C31.3713 43.4085 31.0714 41.659 30.4874 40H33.0087L52.8242 41.6611L52.8345 46.175L52.8345 46.1773Z" fill="#E2DED3" stroke="#007A33" stroke-width="2"/>
<path d="M31 17.2777V38H28.4644C26.811 34.9198 24.1986 32.4184 21 30.8396V17H30.6667C30.8912 17 31 17.1641 31 17.2777Z" fill="#E2DED3" stroke="#007A33" stroke-width="2"/>
<path d="M15.3911 30L15.3888 30L10.2777 30C10.1244 30 10 30.1244 10 30.2778C10 30.4312 10.1243 30.5555 10.2777 30.5555H15.388H15.3888V31.5555C17.4102 31.5522 19.4073 31.9954 21.2372 32.8538C24.2786 34.2761 26.7239 36.7214 28.1462 39.7628L15.3911 30ZM15.3911 30C17.6384 29.9948 19.8591 30.4861 21.8941 31.439L21.8945 31.4392C25.269 33.0178 27.9823 35.731 29.5608 39.1055L29.561 39.1058C30.5139 41.1411 31.0052 43.3617 31 45.6089V45.6112V50.7223V50.7225C31 50.8756 30.8759 51 30.7222 51C30.5689 51 30.4445 50.8756 30.4445 50.7223L30.4445 45.6128L29.4445 45.6112H30.4445V45.6116C30.4478 43.4438 29.9725 41.3019 29.0521 39.3391M15.3911 30L29.0521 39.3391M29.0521 39.3391C27.5305 36.0857 24.9148 33.4698 21.6614 31.9482L29.0521 39.3391Z" fill="#E2DED3" stroke="#007A33" stroke-width="2"/>
<path d="M25 47.0024C24.9987 53.6287 19.6266 59 13.0001 59C6.3727 59 1 53.6275 1 47C1 40.3732 6.37128 35.0013 12.9975 35C19.6127 35.0328 24.9672 40.3873 25 47.0024Z" fill="#E2DED3" stroke="#007A33" stroke-width="2"/>
<path d="M17 47C17 49.2091 15.2091 51 13 51C10.7909 51 9 49.2091 9 47C9 44.7909 10.7909 43 13 43C15.2091 43 17 44.7909 17 47Z" fill="#E2DED3" stroke="#007A33" stroke-width="2"/>
<path d="M57 52C57 55.866 53.866 59 50 59C46.134 59 43 55.866 43 52C43 48.134 46.134 45 50 45C53.866 45 57 48.134 57 52Z" fill="#E2DED3" stroke="#007A33" stroke-width="2"/>
<path d="M52 52C52 53.1046 51.1046 54 50 54C48.8954 54 48 53.1046 48 52C48 50.8954 48.8954 50 50 50C51.1046 50 52 50.8954 52 52Z" fill="#E2DED3" stroke="#007A33" stroke-width="2"/>
<rect x="10" y="16" width="23" height="2" rx="1" fill="#E2DED3" stroke="#007A33" stroke-width="2"/>
</svg>
