<svg width="57" height="60" viewBox="0 0 57 60" fill="none" xmlns="http://www.w3.org/2000/svg">
<path d="M11 11C11 8.79084 9.20916 7 7 7C9.20916 7 11 5.20916 11 3C11 5.20916 12.7908 7 15 7C12.7908 7 11 8.79084 11 11Z" fill="#E2DED3" stroke="#007A33" stroke-width="2"/>
<path d="M51 52C51 49.7908 49.2092 48 47 48C49.2092 48 51 46.2092 51 44C51 46.2092 52.7908 48 55 48C52.7908 48 51 49.7908 51 52Z" fill="#E2DED3" stroke="#007A33" stroke-width="2"/>
<rect y="60" width="2" height="18" rx="1" transform="rotate(-90 0 60)" fill="#007A33"/>
<rect x="39" y="60" width="2" height="18" rx="1" transform="rotate(-90 39 60)" fill="#007A33"/>
<path d="M22 45H34V59H22V45Z" fill="#E2DED3" stroke="#007A33" stroke-width="2"/>
<path d="M13.125 23.5294H33.1438V29.5294H7.06118C7.49109 26.0558 10.1287 23.5294 13.125 23.5294Z" fill="#E2DED3" stroke="#007A33" stroke-width="2"/>
<path d="M7 31H43V36.7581C43 41.2842 39.2205 45 34.5 45H15.5C10.7795 45 7 41.2842 7 36.7581V31Z" fill="#E2DED3" stroke="#007A33" stroke-width="2"/>
<path d="M33 6H43V31H33V6Z" fill="#E2DED3" stroke="#007A33" stroke-width="2"/>
<path d="M34.4 1H41.6C42.3516 1 43 1.62994 43 2.45614V6H33V2.45614C33 1.62994 33.6484 1 34.4 1Z" fill="#E2DED3" stroke="#007A33" stroke-width="2"/>
<rect x="35" y="12" width="2" height="5" rx="1" transform="rotate(-90 35 12)" fill="#007A33"/>
</svg>
