<svg width="44" height="62" viewBox="0 0 44 62" fill="none" xmlns="http://www.w3.org/2000/svg">
<path d="M43 22C43 26.6434 41.4941 30.9322 38.9438 34.4085C37.1879 36.8019 33.7948 42.2131 30.4547 47.5397C29.9337 48.3706 29.414 49.1995 28.9019 50.0145C26.9952 53.0496 25.1895 55.9026 23.7993 57.9954C23.1028 59.044 22.5206 59.8866 22.0871 60.4617C22.057 60.5016 22.028 60.5397 22 60.5762C21.972 60.5397 21.943 60.5016 21.9129 60.4617C21.4794 59.8866 20.8972 59.044 20.2007 57.9954C18.8105 55.9026 17.0048 53.0496 15.0981 50.0145C14.586 49.1994 14.0663 48.3706 13.5452 47.5397C10.2052 42.2131 6.81211 36.8019 5.05621 34.4085C2.50589 30.9322 1 26.6434 1 22C1 10.402 10.402 1 22 1C33.598 1 43 10.402 43 22Z" stroke="#007A33" stroke-width="2"/>
<circle cx="22" cy="22" r="16" stroke="#007A33" stroke-width="2"/>
<path d="M20.04 30V24.3529H23.56V30H27.96V22.4706H30.6L21.8 14L13 22.4706H15.64V30H20.04Z" stroke="#007A33" stroke-width="2"/>
</svg>
