<svg width="56" height="60" viewBox="0 0 56 60" fill="none" xmlns="http://www.w3.org/2000/svg">
<path d="M51.4031 59H26.7895C24.9777 59 23.5089 57.5312 23.5089 55.7194V13.4132L31.4035 7.49228H47.8227L54.6837 13.3731V55.7194C54.6837 57.5312 53.2149 59 51.4031 59Z" fill="#E2DED3" stroke="#007A33" stroke-width="2"/>
<path d="M46.5746 1L43.294 7.56123H35.9688L32.6882 1H46.5746Z" fill="#E2DED3" stroke="#007A33" stroke-width="2"/>
<path d="M8.56123 26.755H27.824C31.9999 26.755 35.3852 30.1403 35.3852 34.3163V51.4387C35.3852 55.6147 31.9999 59 27.824 59H8.56123C4.38531 59 1 55.6147 1 51.4387V34.3163C1 30.1403 4.38531 26.755 8.56123 26.755Z" fill="#E2DED3" stroke="#007A33" stroke-width="2"/>
<path d="M13.8419 22.4031H22.5434V26.824H13.8419V22.4031Z" fill="#E2DED3" stroke="#007A33" stroke-width="2"/>
<path d="M26.347 13.7705L22.8664 22.4721H13.5189L10.0383 13.7705H26.347Z" fill="#E2DED3" stroke="#007A33" stroke-width="2"/>
<path d="M15.5182 40.8423C15.0286 40.8421 14.6318 40.4449 14.632 39.9553C14.6322 39.8179 14.6642 39.6823 14.7256 39.5594L18.2719 32.4667C18.5332 32.0285 19.1003 31.885 19.5385 32.1464C19.6703 32.2249 19.7803 32.335 19.8589 32.4667L22.4469 37.6453L22.6579 37.0158C22.8126 36.5507 23.3152 36.299 23.7803 36.4537C24.2454 36.6084 24.4971 37.111 24.3424 37.5761L23.4558 40.2359C23.3428 40.5761 23.0359 40.8147 22.6783 40.8405C22.3196 40.8688 21.9801 40.6752 21.8218 40.352L19.0645 34.8455L16.3161 40.352C16.1652 40.654 15.8559 40.8442 15.5182 40.8423Z" fill="#007A33"/>
<path d="M27.0438 49.7082H19.0645C18.5749 49.7083 18.1778 49.3113 18.1778 48.8217C18.1778 48.6465 18.2297 48.4753 18.3269 48.3295L20.1001 45.6698C20.3718 45.2624 20.9224 45.1525 21.3297 45.4242C21.7371 45.6959 21.8471 46.2465 21.5753 46.6539L20.7207 47.935H25.6093L23.5905 43.8984C23.3717 43.4602 23.5495 42.9275 23.9877 42.7086C24.4259 42.4897 24.9587 42.6676 25.1775 43.1058L27.8373 48.4253C28.0562 48.8633 27.8785 49.3958 27.4405 49.6146C27.3173 49.6763 27.1815 49.7083 27.0438 49.7082Z" fill="#007A33"/>
<path d="M15.5182 49.7082H10.1987C9.70908 49.7092 9.31133 49.313 9.31034 48.8234C9.31 48.6671 9.35101 48.5136 9.42914 48.3783L11.8229 44.1865L11.3646 44.3399C10.8994 44.4946 10.3968 44.2429 10.2421 43.7778C10.0874 43.3127 10.3391 42.8101 10.8042 42.6554L13.464 41.7688C13.9272 41.61 14.4314 41.8568 14.5902 42.32C14.6743 42.5655 14.6467 42.8355 14.5146 43.0588L11.7272 47.935H15.5182C16.0078 47.935 16.4048 48.332 16.4048 48.8216C16.4048 49.3112 16.0078 49.7082 15.5182 49.7082Z" fill="#007A33"/>
</svg>
