<svg width="60" height="40" viewBox="0 0 60 40" fill="none" xmlns="http://www.w3.org/2000/svg">
<path d="M39 27H59V35H39V27Z" fill="#E2DED3" stroke="#007A33" stroke-width="2"/>
<path d="M59 27H39V9H55.1828L59 12.8557V27Z" fill="#E2DED3" stroke="#007A33" stroke-width="2"/>
<path d="M57 24.5172H59V28.5172H57V24.5172Z" fill="#E2DED3" stroke="#007A33" stroke-width="2"/>
<path d="M1 27H39V35H1V27Z" fill="#E2DED3" stroke="#007A33" stroke-width="2"/>
<path d="M39 27H1V11.1465L9.92585 1H39V27Z" fill="#E2DED3" stroke="#007A33" stroke-width="2"/>
<path d="M43 5H51V9H43V5Z" fill="#E2DED3" stroke="#007A33" stroke-width="2"/>
<path d="M16 13H24V23H16V13Z" fill="#E2DED3" stroke="#007A33" stroke-width="2"/>
<mask id="path-8-inside-1" fill="white">
<path d="M22 9.5C21.4478 9.5 21 9.4627 21 8.8V6H19V8.8C19 9.4627 18.5523 9.5 18 9.5C17.4477 9.5 17 9.4627 17 8.8V5.2C17 4.5373 17.4477 4 18 4H22C22.5522 4 23 4.5373 23 5.2V8.8C23 9.4627 22.5522 9.5 22 9.5Z"/>
</mask>
<path d="M22 9.5C21.4478 9.5 21 9.4627 21 8.8V6H19V8.8C19 9.4627 18.5523 9.5 18 9.5C17.4477 9.5 17 9.4627 17 8.8V5.2C17 4.5373 17.4477 4 18 4H22C22.5522 4 23 4.5373 23 5.2V8.8C23 9.4627 22.5522 9.5 22 9.5Z" fill="#E2DED3"/>
<path d="M21 6H23V4H21V6ZM19 6V4H17V6H19ZM22 7.5C21.8685 7.5 21.8367 7.49661 21.8408 7.49709C21.8419 7.49722 21.9957 7.51199 22.2005 7.61632C22.4435 7.74004 22.6906 7.95591 22.8506 8.26153C22.9936 8.53475 23 8.75263 23 8.8H19C19 9.17872 19.0624 9.64978 19.3066 10.1164C19.5678 10.6154 19.9614 10.9648 20.3853 11.1807C21.067 11.5279 21.8199 11.5 22 11.5V7.5ZM23 8.8V6H19V8.8H23ZM21 4H19V8H21V4ZM17 6V8.8H21V6H17ZM17 8.8C17 8.75263 17.0064 8.53475 17.1494 8.26153C17.3094 7.95591 17.5565 7.74004 17.7995 7.61632C18.0043 7.51199 18.1581 7.49722 18.1592 7.49709C18.1633 7.49661 18.1315 7.5 18 7.5V11.5C18.1801 11.5 18.933 11.5279 19.6147 11.1807C20.0386 10.9648 20.4322 10.6154 20.6934 10.1164C20.9376 9.64978 21 9.17872 21 8.8H17ZM18 7.5C17.8685 7.5 17.8367 7.49661 17.8408 7.49709C17.8419 7.49722 17.9957 7.51199 18.2005 7.61632C18.4435 7.74004 18.6906 7.95591 18.8506 8.26153C18.9936 8.53475 19 8.75263 19 8.8H15C15 9.17872 15.0624 9.64978 15.3066 10.1164C15.5678 10.6154 15.9614 10.9648 16.3853 11.1807C17.067 11.5279 17.8199 11.5 18 11.5V7.5ZM19 8.8V5.2H15V8.8H19ZM19 5.2C19 5.31221 18.9631 5.47134 18.8293 5.63186C18.692 5.79662 18.4075 6 18 6V2C16.0172 2 15 3.78965 15 5.2H19ZM18 6H22V2H18V6ZM22 6C21.5925 6 21.308 5.79662 21.1707 5.63186C21.0369 5.47134 21 5.31221 21 5.2H25C25 3.78965 23.9828 2 22 2V6ZM21 5.2V8.8H25V5.2H21ZM21 8.8C21 8.75263 21.0064 8.53475 21.1494 8.26153C21.3094 7.95591 21.5565 7.74004 21.7995 7.61632C22.0043 7.51199 22.1581 7.49722 22.1592 7.49709C22.1633 7.49661 22.1315 7.5 22 7.5V11.5C22.1801 11.5 22.933 11.5279 23.6147 11.1807C24.0386 10.9648 24.4322 10.6154 24.6934 10.1164C24.9376 9.64978 25 9.17872 25 8.8H21Z" fill="#007A33" mask="url(#path-8-inside-1)"/>
<path d="M53 19H43V13H51.5462L53 14.6614V19Z" fill="#E2DED3" stroke="#007A33" stroke-width="2"/>
<mask id="path-11-inside-2" fill="white">
<path d="M45 24H43C42.4477 24 42 23.5523 42 23C42 22.4477 42.4477 22 43 22H45C45.5522 22 46 22.4477 46 23C46 23.5523 45.5522 24 45 24Z"/>
</mask>
<path d="M45 24H43C42.4477 24 42 23.5523 42 23C42 22.4477 42.4477 22 43 22H45C45.5522 22 46 22.4477 46 23C46 23.5523 45.5522 24 45 24Z" fill="#E2DED3"/>
<path d="M45 22H43V26H45V22ZM43 22C43.5523 22 44 22.4477 44 23H40C40 24.6568 41.3432 26 43 26V22ZM44 23C44 23.5523 43.5523 24 43 24V20C41.3432 20 40 21.3432 40 23H44ZM43 24H45V20H43V24ZM45 24C44.4477 24 44 23.5523 44 23H48C48 21.3432 46.6568 20 45 20V24ZM44 23C44 22.4477 44.4477 22 45 22V26C46.6568 26 48 24.6568 48 23H44Z" fill="#007A33" mask="url(#path-11-inside-2)"/>
<path d="M14 35C14 37.2091 12.2091 39 10 39C7.79086 39 6 37.2091 6 35C6 32.7909 7.79086 31 10 31C12.2091 31 14 32.7909 14 35Z" fill="#E2DED3" stroke="#007A33" stroke-width="2"/>
<path d="M33 35C33 37.2091 31.2091 39 29 39C26.7909 39 25 37.2091 25 35C25 32.7909 26.7909 31 29 31C31.2091 31 33 32.7909 33 35Z" fill="#E2DED3" stroke="#007A33" stroke-width="2"/>
<path d="M53 35C53 37.2091 51.2091 39 49 39C46.7909 39 45 37.2091 45 35C45 32.7909 46.7909 31 49 31C51.2091 31 53 32.7909 53 35Z" fill="#E2DED3" stroke="#007A33" stroke-width="2"/>
<path d="M14 9H26V13H14V9Z" fill="#E2DED3" stroke="#007A33" stroke-width="2"/>
</svg>
