<svg width="50" height="63" viewBox="0 0 50 63" fill="none" xmlns="http://www.w3.org/2000/svg">
<path d="M47.1529 10L48.8195 20H11.1805L12.8471 10H47.1529Z" fill="#E2DED3" stroke="#007A33" stroke-width="2"/>
<path d="M27 6V10H23V1H37V10H33V6V5H32H28H27V6Z" fill="#E2DED3" stroke="#007A33" stroke-width="2"/>
<path d="M48.895 24L45.095 62H14.905L11.105 24H48.895Z" fill="#E2DED3" stroke="#007A33" stroke-width="2"/>
<path d="M5 13C5 10.7908 3.20916 9 1 9C3.20916 9 5 7.20916 5 5C5 7.20916 6.79084 9 9 9C6.79084 9 5 10.7908 5 13Z" fill="#E2DED3" stroke="#007A33" stroke-width="2"/>
<rect x="21" y="30" width="2" height="26" rx="1" fill="#007A33"/>
<rect x="29" y="30" width="2" height="26" rx="1" fill="#007A33"/>
<rect x="37" y="30" width="2" height="26" rx="1" fill="#007A33"/>
</svg>
