<svg width="159" height="160" viewBox="0 0 159 160" fill="none" xmlns="http://www.w3.org/2000/svg">
<mask id="mask0" mask-type="alpha" maskUnits="userSpaceOnUse" x="-12" y="1" width="99" height="20">
<rect width="98" height="20" transform="matrix(1 0 0 -1 -11.3212 21)" fill="#C4C4C4"/>
</mask>
<g mask="url(#mask0)">
<path d="M27.0631 7.50868C27.0631 7.50868 14.5572 66.389 0.0428162 108.47C38.3123 73.7459 75.8513 61.5981 72.9978 32.7519C71.2328 14.9841 36.1533 3.92713 27.0631 7.50868Z" fill="url(#paint0_linear)"/>
</g>
<path d="M154.036 160C145.237 114.823 167.797 90.1584 154.207 47.9256C144.522 17.8258 119.993 8.73979 112.245 4.74549C99.7288 -1.71049 43.7399 -2.34329 27.0596 7.65342C35.3833 7.1962 39.1675 13.9522 43.8348 25.2766C48.44 36.4695 51.2535 66.3791 60.7012 83.6146C74.9329 109.574 120.504 123.879 154.036 160Z" fill="url(#paint1_linear)"/>
<path d="M62.071 1.85675C62.071 1.85675 61.96 2.31612 61.6879 3.07334C61.3765 3.80185 61.0614 4.93227 60.4491 6.1309C59.8369 7.32954 59.2283 8.79376 58.3833 10.24C57.5814 11.7114 56.6039 13.1971 55.6408 14.6936C54.6097 16.1435 53.5894 17.6005 52.526 18.8924C51.4913 20.2059 50.3636 21.3221 49.4792 22.3341C48.5913 23.3425 47.6676 24.0566 47.1055 24.6201C46.5076 25.1512 46.1209 25.4311 46.1209 25.4311L45.9384 25.3055C45.9384 25.3055 49.8802 19.3841 53.8221 13.4591C57.8535 7.59872 61.8848 1.73474 61.8848 1.73474L62.071 1.85675Z" fill="#006838"/>
<path d="M88.1139 19.0859C88.1139 19.0859 87.7523 19.94 87.047 21.3827C86.3023 22.8002 85.3643 24.9068 84.0074 27.2862C82.6397 29.6547 81.1897 32.5149 79.3709 35.4075C77.5665 38.3108 75.6403 41.4006 73.7177 44.4941C71.6519 47.4943 69.5861 50.4945 67.6527 53.3081C65.723 56.1252 63.6894 58.605 62.0639 60.8049C60.4277 62.994 58.8739 64.6987 57.8786 65.9512C56.8403 67.1785 56.2066 67.8461 56.2066 67.8461L56.0204 67.7276C56.0204 67.7276 63.9543 55.5079 71.8882 43.2883C79.9116 31.1261 87.9349 18.9711 87.9349 18.9711L88.1139 19.0859Z" fill="#006838"/>
<path d="M103.462 52.0951C103.462 52.0951 103.133 52.8775 102.482 54.191C101.791 55.4829 100.931 57.4101 99.671 59.5741C98.4072 61.7345 97.0431 64.3219 95.3854 66.9704C93.7707 69.6404 91.9269 72.4109 90.0938 75.1886C88.1963 77.9196 86.3095 80.6578 84.4298 83.1556C82.586 85.6713 80.6956 87.9071 79.1597 89.8809C77.6202 91.8547 76.1559 93.3691 75.2143 94.4888C74.2369 95.5833 73.6353 96.1827 73.6353 96.1827L73.4528 96.0571C73.4528 96.0571 80.8639 85.0074 88.2787 73.9541C95.7793 62.9618 103.284 51.9731 103.284 51.9731L103.462 52.0951Z" fill="#006838"/>
<path d="M118.833 85.1115C118.833 85.1115 118.664 85.657 118.288 86.5614C117.877 87.437 117.415 88.7792 116.634 90.2326C115.85 91.6824 115.041 93.4481 113.981 95.2138C112.961 97.0045 111.754 98.8313 110.559 100.669C109.298 102.459 108.049 104.257 106.767 105.869C105.518 107.502 104.189 108.916 103.13 110.182C102.07 111.449 100.999 112.375 100.341 113.086C99.6388 113.768 99.1984 114.13 99.1984 114.13L99.0158 114.004C99.0158 114.004 103.878 106.723 108.743 99.4341C113.698 92.21 118.654 84.986 118.654 84.986L118.833 85.1115Z" fill="#006838"/>
<path d="M134.188 118.132C134.188 118.132 134.181 118.44 134.088 118.928C133.959 119.391 133.898 120.138 133.598 120.877C133.297 121.616 133.05 122.549 132.595 123.421C132.18 124.319 131.614 125.194 131.063 126.077C130.447 126.913 129.838 127.764 129.162 128.481C128.517 129.224 127.747 129.802 127.175 130.355C126.595 130.904 125.929 131.238 125.549 131.532C125.13 131.797 124.847 131.919 124.847 131.919L124.665 131.794C124.665 131.794 126.956 128.316 129.244 124.839C131.625 121.422 134.006 118.006 134.006 118.006L134.188 118.132Z" fill="#006838"/>
<path d="M83.3163 9.82702C83.3163 9.82702 83.9142 9.72653 84.9561 9.6404C85.9908 9.60093 87.4909 9.39277 89.256 9.4143C91.0211 9.4466 93.094 9.34969 95.2923 9.48248C97.4942 9.56143 99.8285 9.79471 102.159 10.01C104.486 10.3043 106.814 10.5878 108.98 10.9826C111.149 11.3414 113.158 11.8762 114.887 12.2315C116.616 12.5939 118.031 13.1143 119.037 13.3763C120.036 13.6849 120.601 13.911 120.601 13.911L120.576 14.1299C120.576 14.1299 111.25 13.1609 101.923 12.1955C92.6071 11.1153 83.2913 10.0387 83.2913 10.0387L83.3163 9.82702Z" fill="#006838"/>
<path d="M95.7077 35.4256C95.7077 35.4256 96.5419 35.3467 97.9919 35.2964C99.4347 35.2929 101.515 35.1349 103.982 35.221C106.449 35.3108 109.341 35.2892 112.413 35.4938C115.492 35.6517 118.761 35.9675 122.033 36.2654C125.299 36.6422 128.56 37.0082 131.607 37.482C134.657 37.9162 137.486 38.5227 139.917 38.939C142.348 39.3625 144.353 39.9366 145.767 40.2345C147.178 40.579 147.976 40.8267 147.976 40.8267L147.954 41.0456C147.954 41.0456 134.879 39.7501 121.808 38.4509C108.747 37.0442 95.6826 35.6409 95.6826 35.6409L95.7077 35.4256Z" fill="#006838"/>
<path d="M111.063 68.4346C111.063 68.4346 111.783 68.327 113.029 68.2301C114.275 68.1798 116.065 67.9573 118.192 67.9645C120.318 67.9753 122.807 67.8605 125.456 67.9681C128.109 68.0255 130.93 68.2336 133.748 68.4274C136.562 68.7002 139.376 68.9585 142.004 69.3354C144.635 69.6727 147.074 70.1823 149.172 70.5232C151.27 70.8677 153.003 71.3738 154.22 71.6286C155.437 71.9264 156.128 72.1525 156.128 72.1525L156.11 72.3714C156.11 72.3714 144.84 71.4994 133.569 70.6274C122.305 69.644 111.042 68.6571 111.042 68.6571L111.063 68.4346Z" fill="#006838"/>
<path d="M126.43 101.451C126.43 101.451 126.831 101.329 127.518 101.211C128.199 101.135 129.194 100.877 130.354 100.844C131.514 100.812 132.882 100.651 134.321 100.704C135.767 100.712 137.292 100.866 138.818 101.002C140.336 101.218 141.854 101.422 143.264 101.745C144.678 102.025 145.971 102.492 147.095 102.786C148.216 103.087 149.125 103.561 149.777 103.787C150.421 104.06 150.783 104.268 150.783 104.268L150.758 104.487C150.758 104.487 144.664 103.838 138.57 103.188C132.488 102.431 126.408 101.67 126.408 101.67L126.43 101.451Z" fill="#006838"/>
<path d="M142.609 134.507C142.609 134.517 142.702 134.349 142.856 134.166C143.007 134.029 143.236 133.678 143.483 133.534C143.73 133.398 144.03 133.107 144.328 133.024C144.632 132.895 144.94 132.902 145.251 132.895C145.556 132.967 145.856 133.025 146.132 133.215C146.408 133.362 146.644 133.699 146.859 133.889C147.074 134.08 147.228 134.464 147.346 134.629C147.46 134.84 147.518 135.02 147.518 135.009L147.496 135.228C147.496 135.228 146.261 135.156 145.029 135.084C143.808 134.905 142.584 134.722 142.584 134.722L142.609 134.507Z" fill="#006838"/>
<path d="M149.301 151.019C149.301 151.019 148.112 148.733 146.032 144.739C143.987 140.723 140.898 135.068 137.496 128.138C134.102 121.201 129.981 113.187 125.857 104.466C121.718 95.7493 117.3 86.4545 112.882 77.1597C108.618 67.7931 104.354 58.4265 100.355 49.6449C96.3484 40.8669 92.8648 32.5554 89.7464 25.4928C86.6387 18.423 84.3008 12.419 82.5429 8.27046C80.8244 4.10394 79.8434 1.72104 79.8434 1.72104L80.0439 1.63129L149.497 150.933L149.301 151.019Z" fill="#006838"/>
<defs>
<linearGradient id="paint0_linear" x1="12.1171" y1="56.8378" x2="41.561" y2="61.6478" gradientUnits="userSpaceOnUse">
<stop stop-color="#65C08A"/>
<stop offset="0.5" stop-color="#00A551"/>
<stop offset="1" stop-color="#00914D"/>
</linearGradient>
<linearGradient id="paint1_linear" x1="69.4403" y1="93.4478" x2="156.159" y2="53.8202" gradientUnits="userSpaceOnUse">
<stop stop-color="#65C08A"/>
<stop offset="0.25" stop-color="#00A551"/>
<stop offset="0.5" stop-color="#00914D"/>
<stop offset="0.75" stop-color="#00A551"/>
<stop offset="1" stop-color="#65C08A"/>
</linearGradient>
</defs>
</svg>
