<svg width="159" height="160" viewBox="0 0 159 160" fill="none" xmlns="http://www.w3.org/2000/svg">
<mask id="mask0" mask-type="alpha" maskUnits="userSpaceOnUse" x="-12" y="139" width="99" height="20">
<rect x="-11.3212" y="139" width="98" height="20" fill="#C4C4C4"/>
</mask>
<g mask="url(#mask0)">
<path d="M27.0631 152.491C27.0631 152.491 14.5572 93.611 0.0428467 51.5296C38.3123 86.2541 75.8513 98.4019 72.9979 127.248C71.2328 145.016 36.1534 156.073 27.0631 152.491Z" fill="url(#paint0_linear)"/>
</g>
<path d="M154.036 0C145.237 45.1773 167.797 69.8416 154.207 112.074C144.522 142.174 119.993 151.26 112.245 155.255C99.7288 161.71 43.7399 162.343 27.0596 152.347C35.3833 152.804 39.1675 146.048 43.8348 134.723C48.44 123.531 51.2535 93.6209 60.7012 76.3854C74.9329 50.4262 120.504 36.1206 154.036 0Z" fill="url(#paint1_linear)"/>
<path d="M62.071 158.143C62.071 158.143 61.96 157.684 61.6879 156.927C61.3765 156.198 61.0614 155.068 60.4491 153.869C59.8369 152.67 59.2283 151.206 58.3833 149.76C57.5814 148.289 56.6039 146.803 55.6408 145.306C54.6097 143.857 53.5894 142.4 52.526 141.108C51.4913 139.794 50.3636 138.678 49.4792 137.666C48.5913 136.657 47.6676 135.943 47.1055 135.38C46.5076 134.849 46.1209 134.569 46.1209 134.569L45.9384 134.694C45.9384 134.694 49.8802 140.616 53.8221 146.541C57.8535 152.401 61.8848 158.265 61.8848 158.265L62.071 158.143Z" fill="#006838"/>
<path d="M88.1139 140.914C88.1139 140.914 87.7523 140.06 87.047 138.617C86.3023 137.2 85.3642 135.093 84.0073 132.714C82.6397 130.345 81.1897 127.485 79.3709 124.593C77.5664 121.689 75.6403 118.599 73.7177 115.506C71.6519 112.506 69.586 109.505 67.6527 106.692C65.7229 103.875 63.6893 101.395 62.0639 99.1951C60.4277 97.006 58.8738 95.3013 57.8785 94.0488C56.8403 92.8215 56.2066 92.1539 56.2066 92.1539L56.0204 92.2724C56.0204 92.2724 63.9543 104.492 71.8881 116.712C79.9115 128.874 87.9349 141.029 87.9349 141.029L88.1139 140.914Z" fill="#006838"/>
<path d="M103.462 107.905C103.462 107.905 103.133 107.123 102.482 105.809C101.791 104.517 100.931 102.59 99.671 100.426C98.4072 98.2655 97.0431 95.6781 95.3854 93.0296C93.7707 90.3596 91.9269 87.5891 90.0938 84.8114C88.1963 82.0804 86.3095 79.3422 84.4298 76.8444C82.586 74.3287 80.6956 72.0929 79.1597 70.1191C77.6202 68.1453 76.1559 66.6309 75.2143 65.5112C74.2369 64.4167 73.6353 63.8173 73.6353 63.8173L73.4528 63.9429C73.4528 63.9429 80.8639 74.9926 88.2787 86.0459C95.7793 97.0382 103.284 108.027 103.284 108.027L103.462 107.905Z" fill="#006838"/>
<path d="M118.832 74.8885C118.832 74.8885 118.664 74.343 118.288 73.4386C117.877 72.563 117.415 71.2208 116.634 69.7674C115.85 68.3176 115.041 66.5519 113.981 64.7862C112.961 62.9955 111.754 61.1687 110.559 59.3313C109.298 57.5405 108.049 55.7427 106.767 54.1313C105.517 52.4984 104.189 51.0844 103.129 49.8176C102.07 48.5507 100.999 47.6249 100.34 46.9143C99.6388 46.2325 99.1983 45.8701 99.1983 45.8701L99.0157 45.9956C99.0157 45.9956 103.878 53.2772 108.743 60.5659C113.698 67.79 118.654 75.014 118.654 75.014L118.832 74.8885Z" fill="#006838"/>
<path d="M134.188 41.8685C134.188 41.8685 134.181 41.5599 134.088 41.0718C133.959 40.6089 133.898 39.8624 133.598 39.1231C133.297 38.3839 133.05 37.4507 132.595 36.5787C132.18 35.6815 131.614 34.8059 131.063 33.9231C130.447 33.0869 129.838 32.2363 129.162 31.5186C128.517 30.7757 127.747 30.1979 127.175 29.6452C126.595 29.0962 125.929 28.7625 125.549 28.4682C125.13 28.2027 124.847 28.0806 124.847 28.0806L124.665 28.2061C124.665 28.2061 126.956 31.6837 129.244 35.1612C131.625 38.5776 134.006 41.9941 134.006 41.9941L134.188 41.8685Z" fill="#006838"/>
<path d="M83.3163 150.173C83.3163 150.173 83.9142 150.273 84.9561 150.359C85.9908 150.399 87.4909 150.607 89.256 150.586C91.0211 150.553 93.094 150.65 95.2923 150.517C97.4942 150.438 99.8285 150.205 102.159 149.99C104.486 149.696 106.814 149.412 108.98 149.017C111.149 148.658 113.158 148.124 114.887 147.768C116.616 147.406 118.031 146.886 119.037 146.624C120.036 146.315 120.601 146.089 120.601 146.089L120.576 145.87C120.576 145.87 111.25 146.839 101.923 147.804C92.6071 148.885 83.2913 149.961 83.2913 149.961L83.3163 150.173Z" fill="#006838"/>
<path d="M95.7077 124.574C95.7077 124.574 96.5419 124.653 97.9919 124.704C99.4347 124.707 101.515 124.865 103.982 124.779C106.449 124.689 109.341 124.711 112.413 124.506C115.492 124.348 118.761 124.033 122.033 123.735C125.299 123.358 128.56 122.992 131.607 122.518C134.657 122.084 137.486 121.477 139.917 121.061C142.348 120.638 144.353 120.063 145.767 119.765C147.178 119.421 147.976 119.173 147.976 119.173L147.954 118.954C147.954 118.954 134.879 120.25 121.808 121.549C108.747 122.956 95.6826 124.359 95.6826 124.359L95.7077 124.574Z" fill="#006838"/>
<path d="M111.063 91.5654C111.063 91.5654 111.783 91.673 113.029 91.7699C114.275 91.8202 116.065 92.0427 118.192 92.0355C120.318 92.0247 122.807 92.1395 125.456 92.0319C128.109 91.9745 130.93 91.7664 133.748 91.5726C136.562 91.2998 139.376 91.0415 142.004 90.6646C144.636 90.3273 147.074 89.8177 149.172 89.4768C151.27 89.1323 153.003 88.6262 154.22 88.3714C155.437 88.0736 156.128 87.8475 156.128 87.8475L156.11 87.6286C156.11 87.6286 144.84 88.5006 133.569 89.3726C122.305 90.356 111.042 91.3429 111.042 91.3429L111.063 91.5654Z" fill="#006838"/>
<path d="M126.43 58.549C126.43 58.549 126.831 58.671 127.518 58.7894C128.199 58.8648 129.194 59.1232 130.354 59.1555C131.514 59.1878 132.882 59.3493 134.321 59.2955C135.767 59.2883 137.292 59.134 138.818 58.9976C140.336 58.7823 141.854 58.5777 143.264 58.2547C144.678 57.9748 145.971 57.5083 147.095 57.214C148.216 56.9125 149.125 56.4388 149.777 56.2128C150.421 55.94 150.783 55.7319 150.783 55.7319L150.758 55.5129C150.758 55.5129 144.664 56.1625 138.57 56.812C132.488 57.5693 126.408 58.3301 126.408 58.3301L126.43 58.549Z" fill="#006838"/>
<path d="M142.609 25.4934C142.609 25.4826 142.702 25.6513 142.856 25.8343C143.007 25.9707 143.236 26.3224 143.483 26.4659C143.73 26.6023 144.03 26.893 144.328 26.9755C144.632 27.1047 144.94 27.0976 145.251 27.1047C145.556 27.033 145.856 26.9755 146.132 26.7853C146.408 26.6381 146.644 26.3008 146.859 26.1106C147.074 25.9204 147.228 25.5365 147.346 25.3714C147.46 25.1596 147.518 24.9801 147.518 24.9909L147.496 24.772C147.496 24.772 146.261 24.8438 145.029 24.9155C143.808 25.095 142.584 25.2781 142.584 25.2781L142.609 25.4934Z" fill="#006838"/>
<path d="M149.3 8.98056C149.3 8.98056 148.112 11.2666 146.032 15.2608C143.987 19.2766 140.898 24.9325 137.496 31.8623C134.102 38.7994 129.981 46.813 125.857 55.5336C121.718 64.2507 117.3 73.5455 112.882 82.8403C108.618 92.2069 104.354 101.573 100.355 110.355C96.3484 119.133 92.8648 127.445 89.7464 134.507C86.6387 141.577 84.3008 147.581 82.5429 151.73C80.8244 155.896 79.8434 158.279 79.8434 158.279L80.0439 158.369L149.497 9.06676L149.3 8.98056Z" fill="#006838"/>
<defs>
<linearGradient id="paint0_linear" x1="12.1171" y1="103.162" x2="41.5611" y2="98.3522" gradientUnits="userSpaceOnUse">
<stop stop-color="#65C08A"/>
<stop offset="0.5" stop-color="#00A551"/>
<stop offset="1" stop-color="#00914D"/>
</linearGradient>
<linearGradient id="paint1_linear" x1="69.4403" y1="66.5522" x2="156.159" y2="106.18" gradientUnits="userSpaceOnUse">
<stop stop-color="#65C08A"/>
<stop offset="0.25" stop-color="#00A551"/>
<stop offset="0.5" stop-color="#00914D"/>
<stop offset="0.75" stop-color="#00A551"/>
<stop offset="1" stop-color="#65C08A"/>
</linearGradient>
</defs>
</svg>
