<svg width="623" height="95" viewBox="0 0 623 95" fill="none" xmlns="http://www.w3.org/2000/svg">
<path d="M152.865 50.5398L164.469 66.6511H157.243L147.172 52.5823H139.509V66.6511H133.161V34.8813H139.509V49.1771H146.734L156.805 34.8813H163.812L152.865 50.5398Z" fill="#007A33"/>
<path d="M193.299 66.6511V40.7805H192.862L176.441 66.6511H168.121V34.8813H174.469V60.752H174.907L191.328 34.8813H199.647V66.6511H193.299Z" fill="#007A33"/>
<path d="M207.887 28.3001C207.887 29.2079 207.587 30.0027 206.989 30.6824C206.39 31.3643 205.595 31.7042 204.604 31.7042C203.61 31.7042 202.814 31.3643 202.217 30.6824C201.618 30.0027 201.319 29.2079 201.319 28.3001C201.319 27.3935 201.618 26.5987 202.217 25.9179C202.814 25.2359 203.61 24.8961 204.604 24.8961C205.566 24.8961 206.355 25.2359 206.968 25.9179C207.582 26.5987 207.887 27.3935 207.887 28.3001Z" fill="#007A33"/>
<path d="M212.478 34.8801H206.128V66.65H212.478V34.8801Z" fill="#007A33"/>
<path d="M217.082 28.3001C217.082 29.2079 216.782 30.0027 216.186 30.6824C215.587 31.3643 214.79 31.7042 213.799 31.7042C212.805 31.7042 212.009 31.3643 211.413 30.6824C210.814 30.0027 210.514 29.2079 210.514 28.3001C210.514 27.3935 210.813 26.5987 211.413 25.9179C212.009 25.2359 212.806 24.8961 213.799 24.8961C214.762 24.8961 215.55 25.2359 216.163 25.9179C216.777 26.5987 217.082 27.3935 217.082 28.3001Z" fill="#007A33"/>
<path d="M218.867 34.8801H233.754C236.002 34.8801 237.95 35.0854 239.599 35.4936C241.248 35.9007 242.614 36.4766 243.695 37.219C244.775 37.958 245.578 38.8452 246.103 39.8715C246.629 40.9013 246.891 42.036 246.891 43.2756C246.891 44.8801 246.454 46.2714 245.577 47.4528C244.702 48.6308 243.388 49.5101 241.635 50.0848C243.826 50.5387 245.541 51.4236 246.781 52.7385C248.022 54.0556 248.642 55.7422 248.642 57.7995C248.642 60.5239 247.554 62.678 245.381 64.2666C243.204 65.8563 239.767 66.65 235.067 66.65H218.866V34.8801H218.867ZM233.754 48.7232C237.987 48.7232 240.103 46.9077 240.103 43.2767C240.103 41.6745 239.57 40.4406 238.506 39.5785C237.44 38.7152 235.857 38.2853 233.754 38.2853H225.215V48.7232H233.754ZM225.216 52.1272V63.2471H235.069C237.258 63.2471 238.937 62.7932 240.105 61.8866C241.272 60.9777 241.856 59.6173 241.856 57.8006C241.856 55.8643 241.272 54.4365 240.105 53.5105C238.937 52.5891 237.258 52.1272 235.069 52.1272H225.216Z" fill="#007A33"/>
<path d="M273.177 50.5398L284.781 66.6511H277.556L267.484 52.5823H259.821V66.6511H253.472V34.8813H259.821V49.1771H267.046L277.118 34.8813H284.124L273.177 50.5398Z" fill="#007A33"/>
<path d="M302.842 33.9724C305.468 33.9724 307.856 34.3362 310 35.0626C312.146 35.7902 313.985 36.8644 315.516 38.2853C317.049 39.7074 318.239 41.4624 319.085 43.5493C319.931 45.6373 320.354 48.0424 320.354 50.7656C320.354 53.49 319.931 55.8951 319.085 57.982C318.239 60.07 317.049 61.8239 315.516 63.2471C313.984 64.6703 312.146 65.7423 310 66.4687C307.856 67.1951 305.468 67.5589 302.842 67.5589C300.214 67.5589 297.819 67.1951 295.659 66.4687C293.498 65.7411 291.651 64.6703 290.119 63.2471C288.588 61.8239 287.406 60.07 286.574 57.982C285.742 55.8951 285.326 53.49 285.326 50.7656C285.326 48.0424 285.742 45.6373 286.574 43.5493C287.406 41.4624 288.589 39.7074 290.119 38.2853C291.652 36.8644 293.499 35.7902 295.659 35.0626C297.818 34.3362 300.214 33.9724 302.842 33.9724ZM302.842 37.1495C301.351 37.1495 299.959 37.422 298.658 37.9671C297.359 38.5134 296.229 39.3436 295.265 40.4634C294.302 41.5822 293.534 42.9985 292.965 44.7068C292.396 46.4174 292.111 48.437 292.111 50.7656C292.111 53.0954 292.396 55.1151 292.965 56.8245C293.534 58.5351 294.302 59.948 295.265 61.0678C296.229 62.1877 297.359 63.0202 298.658 63.5641C299.959 64.1092 301.352 64.3818 302.842 64.3818C304.33 64.3818 305.724 64.1092 307.023 63.5641C308.322 63.019 309.453 62.1877 310.416 61.0678C311.38 59.9491 312.147 58.5351 312.715 56.8245C313.284 55.1151 313.568 53.0943 313.568 50.7656C313.568 48.437 313.284 46.4174 312.715 44.7068C312.147 42.9985 311.38 41.5833 310.416 40.4634C309.455 39.3436 308.322 38.5122 307.023 37.9671C305.724 37.422 304.33 37.1495 302.842 37.1495Z" fill="#007A33"/>
<path d="M346.142 62.1136H346.579L357.965 34.8801H367.38V66.65H361.032V41.2343H360.593L350.083 66.65H342.639L332.13 41.2343H331.692V66.65H325.343V34.8801H334.758L346.142 62.1136Z" fill="#007A33"/>
<path d="M405.218 34.8801L388.797 66.65H382.01L386.827 57.3456H383.324L370.846 34.8801H378.071L388.36 53.4888H388.798L398.433 34.8801H405.218Z" fill="#007A33"/>
<path d="M439.52 34.8801V66.65H433.172V52.8069H415.218V66.65H408.869V34.8801H415.218V49.4028H433.172V34.8801H439.52Z" fill="#007A33"/>
<path d="M462.921 64.1549C464.905 64.1549 466.811 63.7991 468.636 63.0875C470.459 62.377 472.204 61.2195 473.868 59.6162L476.057 62.3394C474.393 63.9428 472.379 65.2131 470.015 66.1505C467.65 67.0879 465.14 67.5589 462.483 67.5589C459.74 67.5589 457.265 67.1951 455.06 66.4687C452.856 65.7411 450.973 64.6703 449.412 63.2471C447.849 61.8239 446.644 60.07 445.799 57.982C444.952 55.8951 444.529 53.49 444.529 50.7656C444.529 48.0424 444.945 45.6373 445.776 43.5493C446.609 41.4624 447.793 39.7074 449.325 38.2853C450.857 36.8644 452.704 35.7902 454.864 35.0626C457.024 34.3362 459.418 33.9724 462.045 33.9724C464.7 33.9724 467.211 34.4434 469.577 35.3808C471.942 36.3181 473.955 37.5885 475.62 39.193L473.429 41.9163C471.766 40.3129 470.021 39.1543 468.198 38.4438C466.372 37.7322 464.468 37.3764 462.483 37.3764C460.906 37.3764 459.432 37.641 458.061 38.1701C456.689 38.7004 455.506 39.5089 454.515 40.5991C453.522 41.6882 452.739 43.0726 452.17 44.7524C451.601 46.4333 451.317 48.437 451.317 50.7656C451.317 53.0954 451.601 55.1002 452.17 56.7789C452.739 58.4575 453.542 59.8442 454.579 60.9322C455.614 62.0224 456.839 62.832 458.257 63.3612C459.674 63.8903 461.228 64.1549 462.921 64.1549Z" fill="#007A33"/>
<path d="M486.297 38.2853V48.7232H502.279V52.1272H486.297V63.2471H506.658V66.65H479.947V34.8801H506.658V38.2841H486.297V38.2853Z" fill="#007A33"/>
<path d="M526.521 34.8801C528.712 34.8801 530.68 35.1286 532.418 35.6281C534.159 36.1276 535.627 36.8541 536.826 37.8074C538.026 38.7596 538.946 39.924 539.589 41.3004C540.232 42.6791 540.555 44.2449 540.555 45.9976C540.555 47.7538 540.234 49.3196 539.588 50.696C538.946 52.0736 538.023 53.2379 536.825 54.1901C535.626 55.1423 534.156 55.8688 532.415 56.3682C530.676 56.8677 528.709 57.1163 526.516 57.1163H517.082V66.6477H510.734V34.8778H526.521V34.8801ZM517.084 38.2852V53.7157H526.497C528.803 53.7157 530.592 53.0885 531.861 51.8318C533.133 50.5774 533.767 48.6319 533.767 45.9999C533.767 43.3679 533.133 41.4236 531.861 40.1703C530.592 38.9136 528.803 38.2864 526.497 38.2864H517.084V38.2852Z" fill="#007A33"/>
<path d="M544.845 34.8801H559.733C561.981 34.8801 563.93 35.0854 565.579 35.4936C567.227 35.9007 568.594 36.4766 569.674 37.219C570.753 37.958 571.555 38.8452 572.081 39.8715C572.607 40.9013 572.868 42.036 572.868 43.2756C572.868 44.8801 572.431 46.2714 571.555 47.4528C570.68 48.6308 569.367 49.5101 567.615 50.0848C569.805 50.5387 571.52 51.4236 572.76 52.7385C574.002 54.0556 574.621 55.7422 574.621 57.7995C574.621 60.5239 573.534 62.678 571.361 64.2666C569.186 65.8563 565.748 66.65 561.047 66.65H544.846V34.8801H544.845ZM559.733 48.7232C563.965 48.7232 566.082 46.9077 566.082 43.2767C566.082 41.6745 565.548 40.4406 564.484 39.5785C563.419 38.7152 561.836 38.2853 559.733 38.2853H551.194V48.7232H559.733ZM551.194 52.1272V63.2471H561.047C563.237 63.2471 564.915 62.7932 566.083 61.8866C567.251 60.9777 567.835 59.6173 567.835 57.8006C567.835 55.8643 567.251 54.4365 566.083 53.5105C564.915 52.5891 563.237 52.1272 561.047 52.1272H551.194Z" fill="#007A33"/>
<path d="M585.87 66.6511H579.522V34.8813H585.87V66.6511Z" fill="#007A33"/>
<path d="M609.31 64.1549C611.294 64.1549 613.199 63.7991 615.024 63.0875C616.849 62.377 618.594 61.2195 620.259 59.6162L622.447 62.3394C620.783 63.9428 618.769 65.2131 616.403 66.1505C614.04 67.0879 611.529 67.5589 608.871 67.5589C606.128 67.5589 603.653 67.1951 601.449 66.4687C599.244 65.7411 597.362 64.6703 595.802 63.2471C594.239 61.8239 593.035 60.07 592.19 57.982C591.342 55.8951 590.919 53.49 590.919 50.7656C590.919 48.0424 591.335 45.6373 592.167 43.5493C592.999 41.4624 594.183 39.7074 595.713 38.2853C597.246 36.8644 599.093 35.7902 601.253 35.0626C603.412 34.3362 605.806 33.9724 608.434 33.9724C611.089 33.9724 613.599 34.4434 615.966 35.3808C618.332 36.3181 620.346 37.5885 622.01 39.193L619.82 41.9163C618.155 40.3129 616.41 39.1543 614.587 38.4438C612.761 37.7322 610.856 37.3764 608.871 37.3764C607.296 37.3764 605.82 37.641 604.449 38.1701C603.077 38.7004 601.894 39.5089 600.903 40.5991C599.911 41.6882 599.129 43.0726 598.559 44.7524C597.99 46.4333 597.705 48.437 597.705 50.7656C597.705 53.0954 597.99 55.1002 598.559 56.7789C599.129 58.4575 599.931 59.8442 600.968 60.9322C602.004 62.0224 603.229 62.832 604.646 63.3612C606.061 63.8903 607.617 64.1549 609.31 64.1549Z" fill="#007A33"/>
<path d="M32.0022 2.38606C32.0022 2.38606 28.0184 21.0963 23.3948 34.4684C35.5857 23.4341 47.544 19.5739 46.635 10.4075C46.0727 4.76149 34.898 1.24796 32.0022 2.38606Z" fill="url(#paint0_linear)"/>
<path d="M27.7481 27.9091C27.7481 27.9091 27.9192 27.8338 28.1735 27.7711C28.299 27.7551 28.4484 27.7084 28.6046 27.7095C28.7609 27.7072 28.9274 27.7061 29.0939 27.7038C29.2593 27.7278 29.4235 27.7529 29.5775 27.7757C29.7314 27.7985 29.8729 27.8623 29.996 27.8954C30.239 27.9923 30.3986 28.0893 30.3986 28.0893L30.3964 28.1246C30.3964 28.1246 29.7326 28.0881 29.07 28.0516C28.4085 27.9969 27.7458 27.9433 27.7458 27.9433L27.7481 27.9091Z" fill="#006838"/>
<path d="M32.3193 20.9881C32.3193 20.9881 32.7276 20.9288 33.3366 20.8912C33.64 20.8878 33.9958 20.857 34.3722 20.8718C34.7508 20.8866 35.1534 20.9003 35.556 20.9152C35.9575 20.9562 36.3578 20.9972 36.7342 21.036C37.1106 21.0737 37.4584 21.1535 37.7572 21.198C38.3549 21.32 38.7506 21.434 38.7506 21.434L38.7483 21.4694C38.7483 21.4694 37.1391 21.3656 35.5309 21.263C33.924 21.1432 32.317 21.0223 32.317 21.0223L32.3193 20.9881Z" fill="#006838"/>
<path d="M36.8916 14.0682C36.8916 14.0682 37.1676 13.9998 37.5782 13.9485C37.7823 13.9382 38.023 13.8983 38.2762 13.9063C38.5305 13.912 38.8008 13.9166 39.0711 13.9223C39.3403 13.9542 39.6094 13.9873 39.8615 14.0169C40.1135 14.0454 40.3462 14.1173 40.5469 14.1549C40.9461 14.2633 41.2107 14.3682 41.2107 14.3682L41.2084 14.4035C41.2084 14.4035 40.1283 14.3374 39.0483 14.2712C37.9694 14.1891 36.8904 14.1047 36.8904 14.1047L36.8916 14.0682Z" fill="#006838"/>
<path d="M30.0177 24.4754C30.0177 24.4754 29.8181 24.2622 29.5661 23.9223C29.4532 23.7456 29.2981 23.5505 29.176 23.3202C29.0517 23.091 28.9194 22.8469 28.7871 22.6017C28.6788 22.3451 28.5704 22.0897 28.4689 21.8502C28.3663 21.6107 28.3104 21.3679 28.242 21.1683C28.1336 20.7589 28.0914 20.4715 28.0914 20.4715L28.1233 20.4555C28.1233 20.4555 28.6126 21.4534 29.1019 22.4501C29.5752 23.4559 30.0485 24.4606 30.0485 24.4606L30.0177 24.4754Z" fill="#006838"/>
<path d="M34.5878 17.5533C34.5878 17.5533 34.2833 17.1222 33.8738 16.4551C33.6833 16.1141 33.4347 15.7286 33.2146 15.2942C32.9922 14.8608 32.755 14.399 32.5177 13.936C32.3045 13.4627 32.0912 12.9883 31.8916 12.5436C31.6909 12.0999 31.5426 11.6655 31.3955 11.3051C31.1309 10.5684 30.9826 10.0621 30.9826 10.0621L31.0145 10.0461C31.0145 10.0461 31.9235 11.9152 32.8325 13.7832C33.7255 15.6602 34.6186 17.5362 34.6186 17.5362L34.5878 17.5533Z" fill="#006838"/>
<path d="M38.6982 11.3805C38.6982 11.3805 38.4746 11.7511 38.0823 12.4011C37.6831 13.0443 37.1494 13.9897 36.4422 15.0788C35.0405 17.2649 33.1701 20.1797 31.3008 23.0933C29.3482 25.9534 27.3957 28.8135 25.9313 30.9575C25.2048 32.0328 24.5444 32.8938 24.1076 33.513C23.6628 34.1277 23.4096 34.4789 23.4096 34.4789L23.3811 34.4584L38.6708 11.36L38.6982 11.3805Z" fill="#006838"/>
<path d="M71.6863 49.883C68.9366 35.7981 75.9872 28.1086 71.7399 14.9417C68.713 5.55751 61.0465 2.72479 58.6252 1.4795C54.7132 -0.533277 37.2143 -0.730565 32.0011 2.3861C34.6026 2.24355 35.7853 4.34984 37.244 7.88047C38.6833 11.37 39.5627 20.6949 42.5155 26.0684C46.9635 34.1617 61.2062 38.6217 71.6863 49.883Z" fill="url(#paint1_linear)"/>
<path d="M43.1542 0.589916C43.1542 0.589916 43.1188 0.73589 43.0321 0.976511C42.9329 1.20801 42.8325 1.56722 42.6375 1.9481C42.4425 2.32899 42.2486 2.79427 41.9794 3.25385C41.724 3.7214 41.4126 4.19352 41.1058 4.66906C40.7773 5.12977 40.4523 5.59276 40.1135 6.0033C39.7839 6.42068 39.4247 6.77536 39.143 7.09694C38.8601 7.41739 38.5659 7.64432 38.3868 7.82336C38.1964 7.99214 38.0732 8.08108 38.0732 8.08108L38.015 8.04117C38.015 8.04117 39.2707 6.15954 40.5264 4.27677C41.8106 2.41453 43.0948 0.551147 43.0948 0.551147L43.1542 0.589916Z" fill="#006838"/>
<path d="M51.4502 6.06493C51.4502 6.06493 51.335 6.33634 51.1104 6.79477C50.8731 7.24522 50.5743 7.91463 50.1421 8.6707C49.7064 9.42335 49.2445 10.3322 48.6651 11.2514C48.0903 12.174 47.4767 13.1558 46.8642 14.1388C46.2062 15.0922 45.5481 16.0456 44.9322 16.9396C44.3175 17.8348 43.6697 18.6228 43.1519 19.3219C42.6307 20.0175 42.1357 20.5592 41.8186 20.9572C41.4879 21.3472 41.286 21.5593 41.286 21.5593L41.2267 21.5217C41.2267 21.5217 43.7541 17.6387 46.2814 13.7557C48.8373 9.89091 51.3932 6.02844 51.3932 6.02844L51.4502 6.06493Z" fill="#006838"/>
<path d="M56.3396 16.5542C56.3396 16.5542 56.2347 16.8028 56.0271 17.2201C55.807 17.6307 55.5333 18.2431 55.1318 18.9307C54.7292 19.6172 54.2947 20.4394 53.7666 21.281C53.2522 22.1295 52.6649 23.0099 52.0809 23.8925C51.4765 24.7603 50.8754 25.6304 50.2766 26.4242C49.6893 27.2236 49.0871 27.934 48.5978 28.5612C48.1074 29.1884 47.6409 29.6697 47.341 30.0255C47.0296 30.3733 46.838 30.5637 46.838 30.5637L46.7798 30.5238C46.7798 30.5238 49.1407 27.0126 51.5027 23.5002C53.8921 20.0072 56.2826 16.5154 56.2826 16.5154L56.3396 16.5542Z" fill="#006838"/>
<path d="M61.2358 27.0456C61.2358 27.0456 61.1822 27.219 61.0625 27.5063C60.9313 27.7846 60.7842 28.2111 60.5356 28.6729C60.2858 29.1336 60.028 29.6947 59.6905 30.2558C59.3654 30.8248 58.9811 31.4053 58.6001 31.9892C58.1987 32.5582 57.8006 33.1295 57.3923 33.6416C56.9943 34.1604 56.5712 34.6098 56.2336 35.0123C55.896 35.4149 55.555 35.7091 55.3451 35.9349C55.1216 36.1516 54.9813 36.2667 54.9813 36.2667L54.9231 36.2268C54.9231 36.2268 56.4719 33.913 58.0219 31.5969C59.6003 29.3013 61.1788 27.0057 61.1788 27.0057L61.2358 27.0456Z" fill="#006838"/>
<path d="M66.1275 37.5383C66.1275 37.5383 66.1252 37.6364 66.0955 37.7914C66.0545 37.9386 66.0351 38.1758 65.9393 38.4107C65.8435 38.6456 65.7648 38.9421 65.62 39.2192C65.4877 39.5043 65.3074 39.7826 65.1318 40.0631C64.9356 40.3288 64.7417 40.5991 64.5262 40.8272C64.3209 41.0632 64.0757 41.2468 63.8932 41.4224C63.7085 41.5969 63.4963 41.7029 63.3754 41.7965C63.242 41.8808 63.1519 41.9196 63.1519 41.9196L63.0937 41.8797C63.0937 41.8797 63.8236 40.7747 64.5524 39.6697C65.3109 38.584 66.0693 37.4984 66.0693 37.4984L66.1275 37.5383Z" fill="#006838"/>
<path d="M49.9219 3.12262C49.9219 3.12262 50.1124 3.09068 50.4443 3.06331C50.7739 3.05077 51.2518 2.98462 51.8141 2.99147C52.3763 3.00173 53.0367 2.97094 53.737 3.01313C54.4384 3.03822 55.182 3.11235 55.9245 3.18077C56.6658 3.27428 57.4071 3.36437 58.0971 3.48981C58.7883 3.60385 59.4281 3.77377 59.979 3.88667C60.5298 4.00185 60.9803 4.1672 61.3008 4.25045C61.619 4.34852 61.7992 4.42037 61.7992 4.42037L61.7912 4.48992C61.7912 4.48992 58.8202 4.18202 55.8492 3.87525C52.8816 3.532 49.914 3.18989 49.914 3.18989L49.9219 3.12262Z" fill="#006838"/>
<path d="M53.8693 11.2571C53.8693 11.2571 54.135 11.232 54.5969 11.2161C55.0565 11.2149 55.7192 11.1647 56.505 11.1921C57.2908 11.2206 58.2123 11.2138 59.1909 11.2788C60.1717 11.329 61.213 11.4293 62.2554 11.524C63.2956 11.6437 64.3346 11.76 65.3052 11.9106C66.2769 12.0485 67.1779 12.2413 67.9523 12.3736C68.7267 12.5081 69.3654 12.6906 69.8159 12.7852C70.2653 12.8947 70.5196 12.9734 70.5196 12.9734L70.5127 13.0429C70.5127 13.0429 66.3476 12.6313 62.1836 12.2185C58.023 11.7714 53.8613 11.3255 53.8613 11.3255L53.8693 11.2571Z" fill="#006838"/>
<path d="M58.7609 21.7463C58.7609 21.7463 58.9901 21.7121 59.387 21.6814C59.7839 21.6654 60.3542 21.5947 61.0317 21.597C61.7091 21.6004 62.5018 21.5639 63.3458 21.5981C64.1909 21.6164 65.0896 21.6825 65.9872 21.7441C66.8836 21.8307 67.7801 21.9128 68.6172 22.0326C69.4555 22.1398 70.2322 22.3017 70.9005 22.41C71.5689 22.5195 72.1209 22.6803 72.5086 22.7613C72.8964 22.8559 73.1166 22.9278 73.1166 22.9278L73.1108 22.9973C73.1108 22.9973 69.5205 22.7202 65.9302 22.4431C62.3421 22.1307 58.7541 21.817 58.7541 21.817L58.7609 21.7463Z" fill="#006838"/>
<path d="M63.656 32.2378C63.656 32.2378 63.7838 32.1991 64.0027 32.1614C64.2194 32.1375 64.5365 32.0554 64.906 32.0451C65.2755 32.0348 65.7112 31.9835 66.1697 32.0006C66.6305 32.0029 67.1163 32.052 67.6022 32.0953C68.0857 32.1637 68.5693 32.2287 69.0187 32.3313C69.4692 32.4203 69.8809 32.5686 70.239 32.6621C70.596 32.7579 70.8857 32.9084 71.0933 32.9802C71.2986 33.0669 71.4138 33.133 71.4138 33.133L71.4058 33.2026C71.4058 33.2026 69.4646 32.9962 67.5235 32.7898C65.5857 32.5492 63.6491 32.3074 63.6491 32.3074L63.656 32.2378Z" fill="#006838"/>
<path d="M68.81 42.7418C68.81 42.7452 68.8396 42.6916 68.8887 42.6335C68.9366 42.5901 69.0096 42.4784 69.0882 42.4328C69.1669 42.3894 69.2627 42.2971 69.3574 42.2708C69.4543 42.2298 69.5524 42.232 69.6516 42.2298C69.7486 42.2526 69.8444 42.2708 69.9322 42.3313C70.02 42.378 70.0953 42.4852 70.1637 42.5457C70.2322 42.6061 70.2812 42.7281 70.3189 42.7806C70.3554 42.8478 70.3736 42.9049 70.3736 42.9015L70.3668 42.971C70.3668 42.971 69.9733 42.9482 69.581 42.9254C69.192 42.8684 68.802 42.8102 68.802 42.8102L68.81 42.7418Z" fill="#006838"/>
<path d="M70.9416 47.9888C70.9416 47.9888 70.5629 47.2623 69.9003 45.9931C69.2491 44.717 68.2648 42.9197 67.1813 40.7177C66.1001 38.5133 64.7874 35.9668 63.4735 33.1957C62.1551 30.4257 60.7477 27.4721 59.3403 24.5185C57.982 21.5421 56.6236 18.5657 55.3497 15.7752C54.0734 12.9859 52.9637 10.3447 51.9703 8.10047C50.9803 5.85391 50.2356 3.94606 49.6756 2.62778C49.1282 1.3038 48.8157 0.546586 48.8157 0.546586L48.8795 0.518066L71.0043 47.9614L70.9416 47.9888Z" fill="#006838"/>
<path d="M14.3174 95C14.3174 95 32.2349 89.1555 45.929 86.5429C30.442 81.3177 21.1788 72.7112 13.8304 78.0961C9.30375 81.4135 11.9018 93.0192 14.3174 95Z" fill="url(#paint2_linear)"/>
<path d="M38.1667 85.9864C38.1667 85.9864 38.015 85.8713 37.8337 85.6785C37.7573 85.5748 37.6432 85.4664 37.5656 85.3284C37.4858 85.1916 37.4003 85.0457 37.3159 84.8997C37.2543 84.7412 37.1938 84.5849 37.1368 84.4367C37.0786 84.2896 37.0638 84.1322 37.0319 84.0079C36.9942 83.7467 36.9988 83.5563 36.9988 83.5563L37.0307 83.5403C37.0307 83.5403 37.3307 84.1436 37.6306 84.748C37.9146 85.3592 38.1986 85.9693 38.1986 85.9693L38.1667 85.9864Z" fill="#006838"/>
<path d="M29.9949 85.4185C29.9949 85.4185 29.7383 85.0878 29.4007 84.5712C29.2456 84.3055 29.0403 84.0079 28.8646 83.6669C28.6879 83.3271 28.4985 82.9644 28.3092 82.6018C28.1438 82.2277 27.9785 81.8537 27.8245 81.5036C27.6683 81.1523 27.5633 80.8079 27.4527 80.5206C27.2588 79.9333 27.1596 79.5284 27.1596 79.5284L27.1904 79.5125C27.1904 79.5125 27.9066 80.9813 28.624 82.4501C29.3254 83.9269 30.0257 85.4026 30.0257 85.4026L29.9949 85.4185Z" fill="#006838"/>
<path d="M21.8163 84.8506C21.8163 84.8506 21.619 84.6408 21.3681 84.3043C21.2574 84.1299 21.1023 83.9383 20.9814 83.7102C20.8594 83.4833 20.7282 83.2426 20.5971 83.0009C20.4899 82.7477 20.3827 82.4957 20.2835 82.2585C20.1819 82.0213 20.1272 81.7807 20.061 81.5845C19.955 81.1797 19.9139 80.8957 19.9139 80.8957L19.9447 80.8798C19.9447 80.8798 20.4283 81.865 20.9119 82.8503C21.3795 83.8425 21.8471 84.8346 21.8471 84.8346L21.8163 84.8506Z" fill="#006838"/>
<path d="M34.1099 85.7048C34.1099 85.7048 34.03 85.983 33.8681 86.3742C33.7734 86.5612 33.6867 86.795 33.5522 87.0162C33.4199 87.2397 33.2773 87.4781 33.1359 87.7175C32.9717 87.9411 32.8086 88.1646 32.6546 88.3744C32.5018 88.5854 32.3227 88.7564 32.187 88.9172C31.8916 89.2206 31.6669 89.4042 31.6658 89.4042L31.6372 89.3836C31.6372 89.3836 32.2406 88.4554 32.8439 87.5248C33.4621 86.6045 34.0791 85.6843 34.0791 85.6843L34.1099 85.7048Z" fill="#006838"/>
<path d="M25.9347 85.1369C25.9347 85.1369 25.7214 85.617 25.3599 86.3103C25.166 86.6479 24.963 87.0573 24.7029 87.469C24.4452 87.8818 24.1703 88.322 23.8955 88.7622C23.5989 89.1875 23.3013 89.6129 23.023 90.012C22.7458 90.4123 22.4493 90.759 22.2143 91.0714C21.7182 91.6758 21.3612 92.0613 21.3601 92.0613L21.3316 92.0407C21.3316 92.0407 22.4675 90.3062 23.6046 88.5694C24.7554 86.8429 25.9062 85.1175 25.9062 85.1175L25.9347 85.1369Z" fill="#006838"/>
<path d="M18.6263 84.602C18.6263 84.602 19.054 84.6145 19.8033 84.635C20.5515 84.6647 21.6235 84.6635 22.9043 84.7434C25.4671 84.8859 28.8829 85.0775 32.2999 85.268C35.7089 85.5588 39.119 85.8484 41.676 86.0662C42.9545 86.1677 44.0164 86.3183 44.7611 86.3935C45.5047 86.4768 45.9301 86.5247 45.9301 86.5247L45.9279 86.56L18.624 84.6362L18.6263 84.602Z" fill="#006838"/>
<path d="M34.9014 36.2863C24.2878 45.748 14.2205 43.3806 5.13516 53.7056C-1.33838 61.0645 0.0838376 69.2365 0.236666 71.9917C0.479595 76.4437 9.06081 91.9643 14.3174 95C12.8952 92.7774 14.0985 90.6837 16.3749 87.632C18.6251 84.6191 26.1229 79.1829 29.2205 73.8927C33.8829 65.9294 30.5583 51.1489 34.9014 36.2863Z" fill="url(#paint3_linear)"/>
<path d="M7.21201 86.0721C7.21201 86.0721 7.35573 86.031 7.60436 85.9877C7.85185 85.9603 8.20997 85.8714 8.63196 85.8531C9.05395 85.8349 9.55006 85.7744 10.0758 85.7813C10.6016 85.7744 11.1605 85.8121 11.7182 85.8463C12.2748 85.9044 12.8313 85.9603 13.3491 86.0527C13.8681 86.1325 14.3471 86.2716 14.7611 86.3595C15.1739 86.4473 15.5138 86.591 15.7533 86.6594C15.9917 86.7426 16.1274 86.8065 16.1274 86.8065L16.1217 86.8761C16.1217 86.8761 13.8909 86.7095 11.6612 86.5453C9.43373 86.3435 7.20632 86.1428 7.20632 86.1428L7.21201 86.0721Z" fill="#006838"/>
<path d="M7.7264 76.0252C7.7264 76.0252 8.01495 75.991 8.51906 75.9613C9.02089 75.9453 9.74282 75.8758 10.6028 75.8803C11.4616 75.8883 12.4687 75.8427 13.5407 75.894C14.6128 75.9397 15.7567 75.9887 16.9007 76.0389C18.0412 76.1415 19.1806 76.2441 20.2492 76.3399C21.319 76.4334 22.3101 76.6091 23.1632 76.7151C24.0163 76.8257 24.7223 76.9888 25.2184 77.0709C25.7146 77.1667 25.9963 77.2374 25.9963 77.2374L25.9917 77.3069C25.9917 77.3069 21.4228 77.0218 16.8551 76.7368C12.2884 76.4163 7.72299 76.0947 7.72299 76.0947L7.7264 76.0252Z" fill="#006838"/>
<path d="M14.2091 66.4722C14.2091 66.4722 14.4737 66.4414 14.9356 66.4152C15.3952 66.4049 16.0567 66.3411 16.8425 66.3525C17.6283 66.3639 18.5487 66.3377 19.5284 66.3833C20.5093 66.4129 21.5528 66.4905 22.5952 66.5635C23.6365 66.6627 24.6778 66.7573 25.6507 66.8873C26.6247 67.0048 27.528 67.1792 28.3058 67.2944C29.0825 67.413 29.7246 67.5818 30.1762 67.6673C30.6279 67.7677 30.8833 67.8407 30.8833 67.8407L30.8776 67.9102C30.8776 67.9102 26.7079 67.5852 22.5371 67.2602C18.3697 66.901 14.2022 66.5395 14.2022 66.5395L14.2091 66.4722Z" fill="#006838"/>
<path d="M20.6917 56.9124C20.6917 56.9124 20.8674 56.8736 21.173 56.836C21.4776 56.8121 21.9155 56.73 22.4344 56.7197C22.9534 56.7094 23.5613 56.6581 24.2079 56.6752C24.8546 56.6786 25.5412 56.7265 26.2278 56.771C26.9132 56.8406 27.5975 56.9056 28.2374 57.0082C28.8772 57.0983 29.4691 57.2465 29.9789 57.3412C30.4887 57.437 30.9073 57.5887 31.2038 57.6605C31.4992 57.7472 31.6657 57.8145 31.6657 57.8145L31.66 57.884C31.66 57.884 28.9148 57.6753 26.1696 57.4689C23.4278 57.2249 20.6849 56.982 20.6849 56.982L20.6917 56.9124Z" fill="#006838"/>
<path d="M27.1744 47.3549C27.1744 47.3549 27.2599 47.3093 27.4082 47.2579C27.5542 47.2215 27.7675 47.1211 28.0172 47.0892C28.267 47.0573 28.5601 46.9786 28.8681 46.9694C29.1783 46.9455 29.5045 46.9637 29.8318 46.9786C30.1568 47.0173 30.4819 47.0538 30.783 47.1291C31.0852 47.1918 31.3624 47.3138 31.603 47.3868C31.8425 47.4598 32.0375 47.5944 32.1755 47.6525C32.3124 47.7267 32.39 47.786 32.39 47.786L32.3843 47.8555C32.3843 47.8555 31.0784 47.7654 29.7725 47.6765C28.4689 47.551 27.1664 47.4256 27.1664 47.4256L27.1744 47.3549Z" fill="#006838"/>
<path d="M5.98369 78.8431C5.98369 78.8431 5.86052 78.6892 5.67006 78.4109C5.49442 78.1258 5.19674 77.7392 4.92188 77.2397C4.64815 76.7391 4.29003 76.1712 3.97525 75.5349C3.64564 74.9031 3.33656 74.212 3.02406 73.5221C2.73323 72.8219 2.44012 72.1228 2.20289 71.4523C1.95426 70.7863 1.7809 70.1397 1.60298 69.5969C1.4262 69.0541 1.3441 68.5751 1.25514 68.2512C1.181 67.9217 1.15362 67.7278 1.15362 67.7266L1.21864 67.7004C1.21864 67.7004 2.44241 70.4716 3.66617 73.2438C4.85801 76.0286 6.04984 78.8146 6.04984 78.8146L5.98369 78.8431Z" fill="#006838"/>
<path d="M10.9324 71.296C10.9324 71.296 10.7761 71.0748 10.5309 70.6757C10.2994 70.2708 9.92303 69.7109 9.5535 69.0039C9.18398 68.2968 8.71636 67.4894 8.28183 66.5931C7.83361 65.7048 7.39794 64.7366 6.9577 63.7707C6.54027 62.7956 6.11943 61.8206 5.76359 60.8901C5.39634 59.9652 5.11122 59.0757 4.8375 58.3276C4.56491 57.5772 4.40409 56.9238 4.26038 56.4802C4.13036 56.0286 4.06992 55.7663 4.07106 55.7663L4.13493 55.7378C4.13493 55.7378 5.86623 59.6128 7.59753 63.489C9.29689 67.3788 10.9963 71.2675 10.9963 71.2675L10.9324 71.296Z" fill="#006838"/>
<path d="M17.4173 61.7396C17.4173 61.7396 17.2736 61.5549 17.0466 61.2196C16.8345 60.8775 16.4867 60.4111 16.1491 59.8136C15.8126 59.2148 15.3826 58.5329 14.988 57.7723C14.5809 57.0185 14.1874 56.194 13.7905 55.3718C13.4153 54.5393 13.0378 53.7079 12.7218 52.9108C12.3934 52.1194 12.1459 51.3542 11.9041 50.7099C11.6634 50.0678 11.5277 49.4999 11.4023 49.1179C11.2905 48.729 11.2414 48.4998 11.2414 48.4998L11.3053 48.4713C11.3053 48.4713 12.8655 51.7739 14.4246 55.0764C15.9529 58.3938 17.4812 61.7111 17.4812 61.7111L17.4173 61.7396Z" fill="#006838"/>
<path d="M23.8977 52.1822C23.8977 52.1822 23.8008 52.0898 23.6582 51.9153C23.5293 51.7352 23.299 51.4968 23.1039 51.1764C22.91 50.8559 22.6466 50.4967 22.431 50.085C22.2018 49.6779 21.9999 49.2252 21.7946 48.7759C21.611 48.3152 21.4251 47.8556 21.2894 47.4097C21.1411 46.9684 21.0624 46.5305 20.9643 46.169C20.8685 45.8063 20.8526 45.4767 20.8115 45.2578C20.7841 45.0343 20.7841 44.8997 20.7841 44.8997L20.8491 44.8735C20.8491 44.8735 21.6441 46.6878 22.439 48.5022C23.2009 50.3302 23.9639 52.1583 23.9639 52.1583L23.8977 52.1822Z" fill="#006838"/>
<path d="M30.2606 42.3885C30.2629 42.3862 30.2025 42.3862 30.1272 42.3725C30.0656 42.3508 29.9322 42.3429 29.8535 42.2961C29.7759 42.2494 29.647 42.2106 29.5775 42.1388C29.4931 42.0738 29.4452 41.986 29.3938 41.8993C29.3653 41.8035 29.3322 41.7088 29.3414 41.6028C29.3379 41.5024 29.3927 41.3827 29.4109 41.2937C29.4303 41.2036 29.5102 41.0987 29.5364 41.0394C29.5763 40.9733 29.6174 40.9277 29.614 40.93L29.6778 40.9015C29.6778 40.9015 29.8557 41.2584 30.0337 41.6165C30.1797 41.9882 30.3245 42.3588 30.3245 42.3588L30.2606 42.3885Z" fill="#006838"/>
<path d="M33.665 37.8852C33.665 37.8852 33.2374 38.5797 32.488 39.7987C31.7285 41.0087 30.6929 42.7706 29.3608 44.8255C28.0264 46.8793 26.5163 49.3061 24.8147 51.848C23.1176 54.3945 21.3065 57.1109 19.4965 59.8261C17.642 62.5117 15.7864 65.1984 14.0482 67.7164C12.3112 70.2366 10.6176 72.5391 9.20222 74.5359C7.78456 76.5327 6.53114 78.1475 5.68716 79.3004C4.83292 80.4465 4.34478 81.1022 4.34478 81.1022L4.28662 81.0623L33.6069 37.8452L33.665 37.8852Z" fill="#006838"/>
<path d="M101.254 64.927C101.254 64.927 87.3216 52.0601 78.2488 41.2995C81.5472 57.5579 78.8533 70.0234 87.1106 73.8083C92.1961 76.137 100.775 68.046 101.254 64.927Z" fill="url(#paint4_linear)"/>
<path d="M81.6567 48.4176C81.6567 48.4176 81.6373 48.6058 81.5643 48.8601C81.5152 48.9787 81.481 49.1315 81.4023 49.2683C81.3259 49.4063 81.245 49.5546 81.164 49.7017C81.0602 49.834 80.9564 49.9663 80.8583 50.0917C80.7625 50.216 80.6359 50.3084 80.5458 50.4008C80.3405 50.5672 80.1752 50.6596 80.1752 50.6596L80.1467 50.6391C80.1467 50.6391 80.5093 50.0746 80.872 49.509C81.2495 48.9536 81.627 48.3971 81.627 48.3971L81.6567 48.4176Z" fill="#006838"/>
<path d="M85.2607 55.9043C85.2607 55.9043 85.109 56.2921 84.8387 56.8463C84.6904 57.1143 84.5411 57.4427 84.3392 57.7688C84.1384 58.0938 83.9252 58.4416 83.7119 58.7895C83.4758 59.1225 83.2397 59.4555 83.0196 59.7668C82.7995 60.0781 82.5577 60.3472 82.3684 60.589C81.9646 61.0543 81.6681 61.3474 81.6681 61.3474L81.6396 61.3268C81.6396 61.3268 82.5303 59.9618 83.4222 58.5956C84.3278 57.2408 85.2333 55.8838 85.2333 55.8838L85.2607 55.9043Z" fill="#006838"/>
<path d="M88.8658 63.3932C88.8658 63.3932 88.7883 63.6691 88.6286 64.0557C88.5351 64.2405 88.4507 64.4708 88.3184 64.6909C88.1872 64.9121 88.0481 65.1471 87.9078 65.3831C87.7459 65.6044 87.5839 65.8256 87.4322 66.032C87.2817 66.2395 87.1038 66.4095 86.9703 66.5668C86.6772 66.8656 86.4548 67.047 86.4537 67.047L86.4251 67.0264C86.4251 67.0264 87.0205 66.1084 87.617 65.1904C88.2272 64.2815 88.8385 63.3726 88.8385 63.3726L88.8658 63.3932Z" fill="#006838"/>
<path d="M83.4461 52.1341C83.4461 52.1341 83.7256 52.0657 84.1407 52.0156C84.3471 52.0053 84.5901 51.9654 84.8467 51.9734C85.1045 51.9791 85.3782 51.9848 85.6519 51.9905C85.9245 52.0224 86.197 52.0555 86.4525 52.0851C86.708 52.1136 86.9429 52.1855 87.146 52.2242C87.5497 52.3326 87.8177 52.4375 87.8177 52.4375L87.8154 52.4728C87.8154 52.4728 86.7217 52.4056 85.6279 52.3394C84.5353 52.255 83.4427 52.1718 83.4427 52.1718L83.4461 52.1341Z" fill="#006838"/>
<path d="M87.049 59.6207C87.049 59.6207 87.5668 59.5694 88.3389 59.5432C88.7244 59.5466 89.1749 59.5204 89.6551 59.5443C90.1352 59.566 90.6473 59.5876 91.1594 59.6104C91.6703 59.6595 92.1802 59.7085 92.6581 59.7541C93.1371 59.7986 93.5807 59.8841 93.9628 59.9355C94.7235 60.0689 95.2288 60.1909 95.2288 60.1909L95.2265 60.2263C95.2265 60.2263 93.1804 60.0928 91.1355 59.9594C89.0905 59.8077 87.0467 59.6572 87.0467 59.6572L87.049 59.6207Z" fill="#006838"/>
<path d="M90.2482 66.3285C90.2482 66.3285 90.044 65.9453 89.687 65.2748C89.338 64.5997 88.7997 63.6554 88.2272 62.4888C87.0673 60.159 85.5207 57.0527 83.9742 53.9474C82.5178 50.7977 81.0602 47.6491 79.9676 45.2862C79.4156 44.1082 79.0141 43.0978 78.7062 42.4056C78.4062 41.7077 78.2351 41.3085 78.2351 41.3085L78.2659 41.2926L90.2801 66.3125L90.2482 66.3285Z" fill="#006838"/>
<path d="M40.9872 76.145C54.3471 80.7658 57.3672 90.8217 70.6975 93.6635C80.1968 95.6877 86.44 90.3473 88.713 88.8385C92.3809 86.397 101.3 71.076 101.254 64.927C100.073 67.2888 97.69 67.2785 93.956 66.7984C90.2641 66.3206 81.8882 62.4341 75.8389 62.3486C66.7285 62.2198 55.8093 72.5402 40.9872 76.145Z" fill="url(#paint5_linear)"/>
<path d="M97.2053 75.6499C97.2053 75.6499 97.0981 75.5439 96.9361 75.3455C96.7879 75.1402 96.5312 74.8699 96.3031 74.5073C96.0762 74.1447 95.7751 73.7375 95.5185 73.2711C95.2482 72.8104 95.0007 72.2995 94.7509 71.7909C94.5228 71.272 94.2924 70.7543 94.1122 70.2514C93.9218 69.7531 93.802 69.2627 93.6697 68.8544C93.5386 68.4473 93.4941 68.0755 93.4325 67.8315C93.3846 67.5795 93.372 67.429 93.372 67.429L93.4359 67.4005C93.4359 67.4005 94.4099 69.4474 95.3839 71.4955C96.326 73.5585 97.268 75.6203 97.268 75.6203L97.2053 75.6499Z" fill="#006838"/>
<path d="M88.3983 80.2217C88.3983 80.2217 88.2249 79.9834 87.9466 79.5535C87.682 79.1178 87.2589 78.5169 86.8312 77.7574C86.4081 76.9956 85.8629 76.1312 85.3702 75.1619C84.8729 74.1937 84.3426 73.1616 83.8123 72.1285C83.3298 71.0725 82.8474 70.0165 82.3957 69.0278C81.9418 68.0391 81.5974 67.0766 81.2609 66.2726C80.9291 65.4663 80.7181 64.7627 80.5402 64.2849C80.3748 63.8014 80.2949 63.5174 80.2949 63.5174L80.3588 63.4866C80.3588 63.4866 82.4003 67.6547 84.4418 71.8251C86.4514 76.008 88.4621 80.1921 88.4621 80.1921L88.3983 80.2217Z" fill="#006838"/>
<path d="M77.0251 79.2856C77.0251 79.2856 76.8654 79.0689 76.6122 78.6743C76.3727 78.2729 75.9861 77.7232 75.6017 77.0253C75.2185 76.3263 74.7338 75.528 74.2822 74.6419C73.8157 73.7627 73.3606 72.8048 72.9021 71.848C72.4653 70.8809 72.0251 69.9173 71.651 68.9947C71.2644 68.0767 70.9621 67.1952 70.6736 66.4517C70.3862 65.7093 70.2117 65.0581 70.0588 64.618C69.9197 64.1709 69.8547 63.9086 69.8547 63.9086L69.9185 63.8801C69.9185 63.8801 71.7274 67.7164 73.5362 71.5538C75.3132 75.406 77.0901 79.2582 77.0901 79.2582L77.0251 79.2856Z" fill="#006838"/>
<path d="M65.6484 78.3538C65.6484 78.3538 65.5275 78.2181 65.3405 77.9684C65.1683 77.7106 64.8763 77.3662 64.6072 76.9135C64.338 76.4608 63.989 75.9499 63.6799 75.3717C63.3571 74.8004 63.0549 74.1709 62.7493 73.5425C62.4653 72.9039 62.179 72.2687 61.9475 71.6541C61.7046 71.0462 61.5369 70.4498 61.3624 69.9538C61.1902 69.4554 61.1115 69.0118 61.0259 68.7153C60.9541 68.4108 60.9279 68.2307 60.9279 68.2307L60.9917 68.2021C60.9917 68.2021 62.1881 70.7247 63.3845 73.2483C64.549 75.7868 65.7135 78.3241 65.7135 78.3241L65.6484 78.3538Z" fill="#006838"/>
<path d="M54.2707 77.4186C54.2707 77.4186 54.1874 77.3662 54.07 77.2612C53.965 77.1495 53.77 77.0115 53.6172 76.8085C53.4655 76.6044 53.25 76.3843 53.0869 76.1186C52.9089 75.8574 52.7618 75.561 52.6113 75.2645C52.4824 74.9577 52.3501 74.6544 52.2646 74.351C52.1676 74.0522 52.1345 73.7478 52.0764 73.5003C52.0205 73.2517 52.0376 73.0145 52.0205 72.8628C52.0159 72.7043 52.0285 72.6062 52.0285 72.6062L52.0923 72.5777C52.0923 72.5777 52.6683 73.7728 53.2454 74.9691C53.7906 76.1802 54.3357 77.3901 54.3357 77.3901L54.2707 77.4186Z" fill="#006838"/>
<path d="M91.6692 80.3472C91.6692 80.3472 91.6019 80.5319 91.4605 80.8375C91.3065 81.134 91.1275 81.5856 90.8412 82.076C90.5538 82.5675 90.2504 83.1628 89.8661 83.7592C89.4943 84.3625 89.0609 84.9805 88.6309 85.6009C88.1804 86.2076 87.7322 86.8154 87.2783 87.3617C86.8358 87.9136 86.3693 88.3925 85.9963 88.8225C85.6223 89.2512 85.2527 89.566 85.0212 89.8066C84.7771 90.0381 84.6243 90.1613 84.6243 90.1613L84.5673 90.1214C84.5673 90.1214 86.3145 87.6582 88.0607 85.1938C89.8364 82.7511 91.6111 80.3084 91.6111 80.3084L91.6692 80.3472Z" fill="#006838"/>
<path d="M82.7721 79.7587C82.7721 79.7587 82.6626 80.0051 82.4459 80.419C82.2178 80.8239 81.9315 81.4328 81.5164 82.1102C81.1001 82.7876 80.6473 83.6018 80.1022 84.4309C79.5696 85.2691 78.9639 86.1381 78.3629 87.0082C77.7413 87.8646 77.122 88.7221 76.5073 89.5033C75.9039 90.2902 75.2869 90.9892 74.7851 91.6062C74.2821 92.2231 73.8054 92.6952 73.4986 93.0453C73.1793 93.3863 72.9842 93.5722 72.9842 93.5722L72.9272 93.5323C72.9272 93.5323 75.3599 90.0689 77.7938 86.6056C80.255 83.1628 82.7174 79.72 82.7174 79.72L82.7721 79.7587Z" fill="#006838"/>
<path d="M71.3966 78.8237C71.3966 78.8237 71.3123 79.0403 71.1412 79.4064C70.9564 79.7633 70.7352 80.3005 70.3953 80.8969C70.0543 81.491 69.6916 82.2072 69.2411 82.9347C68.8043 83.6703 68.299 84.4287 67.7972 85.1893C67.2749 85.9362 66.7559 86.6854 66.2358 87.364C65.7249 88.0493 65.1957 88.6538 64.7692 89.1897C64.3415 89.7257 63.9252 90.1306 63.6617 90.4339C63.3857 90.7293 63.2146 90.8878 63.2146 90.8878L63.1565 90.8478C63.1565 90.8478 65.1877 87.8235 67.219 84.797C69.2787 81.7909 71.3385 78.7849 71.3385 78.7849L71.3966 78.8237Z" fill="#006838"/>
<path d="M60.02 77.8909C60.02 77.8909 59.9904 78.0221 59.914 78.2342C59.825 78.4372 59.7395 78.7564 59.565 79.086C59.3893 79.4167 59.2171 79.825 58.9742 80.2196C58.7426 80.6233 58.4587 81.0281 58.1781 81.4341C57.8781 81.8252 57.5805 82.2187 57.268 82.5642C56.9657 82.9166 56.6316 83.2062 56.3715 83.4753C56.1104 83.7433 55.8344 83.9246 55.669 84.0706C55.4911 84.2075 55.377 84.277 55.377 84.277L55.32 84.2371C55.32 84.2371 56.4673 82.6303 57.6135 81.0235C58.7883 79.4361 59.9641 77.851 59.9641 77.851L60.02 77.8909Z" fill="#006838"/>
<path d="M48.4997 77.1804C48.4974 77.1781 48.5282 77.2317 48.5545 77.3024C48.5693 77.3663 48.6297 77.4849 48.6297 77.5761C48.6297 77.6662 48.6628 77.7962 48.6377 77.892C48.6252 77.9981 48.5739 78.0836 48.5271 78.1714C48.4587 78.2455 48.3948 78.3219 48.3001 78.3698C48.2157 78.4246 48.0846 78.4383 47.999 78.469C47.9124 78.4987 47.7812 78.4827 47.7162 78.4907C47.6398 78.4907 47.5793 78.4781 47.5827 78.4804L47.5257 78.4405C47.5257 78.4405 47.7401 78.1053 47.9546 77.77C48.1986 77.4552 48.4416 77.1393 48.4416 77.1393L48.4997 77.1804Z" fill="#006838"/>
<path d="M42.9683 76.4368C42.9683 76.4368 43.7757 76.4653 45.1865 76.5177C46.5974 76.5839 48.6183 76.6158 51.0339 76.7629C53.4495 76.9123 56.2723 77.0309 59.2878 77.259C62.3045 77.4814 65.5219 77.7186 68.7393 77.9569C71.9521 78.2477 75.1649 78.5385 78.1781 78.811C81.1902 79.0802 83.9947 79.4212 86.4024 79.6686C88.8088 79.9184 90.8081 80.2149 92.211 80.3802C93.6127 80.5581 94.4133 80.6607 94.4133 80.6607L94.4076 80.7303L42.9625 76.5063L42.9683 76.4368Z" fill="#006838"/>
<defs>
<linearGradient id="paint0_linear" x1="27.2411" y1="18.0613" x2="36.6194" y2="19.5971" gradientUnits="userSpaceOnUse">
<stop stop-color="#65C08A"/>
<stop offset="0.5" stop-color="#00A551"/>
<stop offset="1" stop-color="#00914D"/>
</linearGradient>
<linearGradient id="paint1_linear" x1="45.2468" y1="29.1341" x2="72.3268" y2="16.7287" gradientUnits="userSpaceOnUse">
<stop stop-color="#65C08A"/>
<stop offset="0.25" stop-color="#00A551"/>
<stop offset="0.5" stop-color="#00914D"/>
<stop offset="0.75" stop-color="#00A551"/>
<stop offset="1" stop-color="#65C08A"/>
</linearGradient>
<linearGradient id="paint2_linear" x1="30.0304" y1="91.3143" x2="26.6345" y2="82.3263" gradientUnits="userSpaceOnUse">
<stop stop-color="#65C08A"/>
<stop offset="0.5" stop-color="#00A551"/>
<stop offset="1" stop-color="#00914D"/>
</linearGradient>
<linearGradient id="paint3_linear" x1="30.6006" y1="69.917" x2="6.22635" y2="52.5997" gradientUnits="userSpaceOnUse">
<stop stop-color="#65C08A"/>
<stop offset="0.25" stop-color="#00A551"/>
<stop offset="0.5" stop-color="#00914D"/>
<stop offset="0.75" stop-color="#00A551"/>
<stop offset="1" stop-color="#65C08A"/>
</linearGradient>
<linearGradient id="paint4_linear" x1="90.419" y1="52.7759" x2="84.2521" y2="60.3109" gradientUnits="userSpaceOnUse">
<stop stop-color="#65C08A"/>
<stop offset="0.5" stop-color="#00A551"/>
<stop offset="1" stop-color="#00914D"/>
</linearGradient>
<linearGradient id="paint5_linear" x1="71.8307" y1="63.1934" x2="68.9919" y2="93.2761" gradientUnits="userSpaceOnUse">
<stop stop-color="#65C08A"/>
<stop offset="0.25" stop-color="#00A551"/>
<stop offset="0.5" stop-color="#00914D"/>
<stop offset="0.75" stop-color="#00A551"/>
<stop offset="1" stop-color="#65C08A"/>
</linearGradient>
</defs>
</svg>
