<svg width="102" height="95" viewBox="0 0 102 95" fill="none" xmlns="http://www.w3.org/2000/svg">
<path d="M32.0023 2.38606C32.0023 2.38606 28.0184 21.0963 23.3948 34.4684C35.5857 23.4341 47.544 19.5739 46.635 10.4075C46.0728 4.76149 34.898 1.24796 32.0023 2.38606Z" fill="url(#paint0_linear)"/>
<path d="M27.7481 27.9091C27.7481 27.9091 27.9192 27.8338 28.1735 27.7711C28.299 27.7552 28.4484 27.7084 28.6046 27.7095C28.7609 27.7072 28.9274 27.7061 29.0939 27.7039C29.2593 27.7278 29.4235 27.7529 29.5775 27.7757C29.7315 27.7985 29.8729 27.8624 29.9961 27.8954C30.239 27.9924 30.3987 28.0893 30.3987 28.0893L30.3964 28.1246C30.3964 28.1246 29.7326 28.0882 29.07 28.0517C28.4085 27.9969 27.7458 27.9433 27.7458 27.9433L27.7481 27.9091Z" fill="#006838"/>
<path d="M32.3193 20.9882C32.3193 20.9882 32.7276 20.9288 33.3366 20.8912C33.64 20.8878 33.9959 20.857 34.3722 20.8718C34.7509 20.8866 35.1535 20.9003 35.5561 20.9152C35.9575 20.9562 36.3579 20.9973 36.7342 21.036C37.1106 21.0737 37.4584 21.1535 37.7573 21.198C38.3549 21.32 38.7506 21.434 38.7506 21.434L38.7484 21.4694C38.7484 21.4694 37.1391 21.3656 35.531 21.263C33.924 21.1432 32.317 21.0224 32.317 21.0224L32.3193 20.9882Z" fill="#006838"/>
<path d="M36.8916 14.0683C36.8916 14.0683 37.1676 13.9998 37.5782 13.9485C37.7823 13.9383 38.023 13.8983 38.2762 13.9063C38.5305 13.912 38.8008 13.9166 39.0711 13.9223C39.3403 13.9542 39.6095 13.9873 39.8615 14.0169C40.1136 14.0454 40.3462 14.1173 40.547 14.1549C40.9461 14.2633 41.2107 14.3682 41.2107 14.3682L41.2085 14.4035C41.2085 14.4035 40.1284 14.3374 39.0483 14.2712C37.9694 14.1891 36.8905 14.1047 36.8905 14.1047L36.8916 14.0683Z" fill="#006838"/>
<path d="M30.0178 24.4754C30.0178 24.4754 29.8182 24.2622 29.5661 23.9223C29.4532 23.7456 29.2981 23.5506 29.1761 23.3202C29.0517 23.091 28.9194 22.8469 28.7871 22.6018C28.6788 22.3452 28.5704 22.0897 28.4689 21.8502C28.3663 21.6108 28.3104 21.3679 28.242 21.1683C28.1336 20.7589 28.0914 20.4715 28.0914 20.4715L28.1234 20.4556C28.1234 20.4556 28.6126 21.4534 29.1019 22.4501C29.5752 23.4559 30.0486 24.4606 30.0486 24.4606L30.0178 24.4754Z" fill="#006838"/>
<path d="M34.5878 17.5533C34.5878 17.5533 34.2833 17.1222 33.8738 16.4551C33.6834 16.1141 33.4347 15.7287 33.2146 15.2942C32.9922 14.8608 32.755 14.399 32.5178 13.936C32.3045 13.4627 32.0912 12.9883 31.8916 12.5436C31.6909 12.1 31.5426 11.6655 31.3955 11.3051C31.1309 10.5684 30.9826 10.0621 30.9826 10.0621L31.0146 10.0461C31.0146 10.0461 31.9236 11.9152 32.8325 13.7832C33.7256 15.6602 34.6186 17.5362 34.6186 17.5362L34.5878 17.5533Z" fill="#006838"/>
<path d="M38.6982 11.3805C38.6982 11.3805 38.4746 11.7511 38.0823 12.4011C37.6831 13.0443 37.1494 13.9897 36.4423 15.0788C35.0406 17.2649 33.1701 20.1797 31.3008 23.0934C29.3483 25.9534 27.3957 28.8136 25.9313 30.9575C25.2048 32.0329 24.5444 32.8938 24.1076 33.5131C23.6628 34.1277 23.4096 34.479 23.4096 34.479L23.3811 34.4584L38.6708 11.36L38.6982 11.3805Z" fill="#006838"/>
<path d="M71.6864 49.883C68.9366 35.7982 75.9873 28.1086 71.74 14.9417C68.7131 5.55751 61.0465 2.7248 58.6252 1.4795C54.7133 -0.533278 37.2144 -0.730566 32.0011 2.3861C34.6026 2.24355 35.7853 4.34985 37.244 7.88047C38.6834 11.37 39.5627 20.6949 42.5155 26.0684C46.9635 34.1617 61.2062 38.6217 71.6864 49.883Z" fill="url(#paint1_linear)"/>
<path d="M43.1542 0.589917C43.1542 0.589917 43.1188 0.735891 43.0322 0.976511C42.9329 1.20801 42.8326 1.56722 42.6375 1.94811C42.4425 2.32899 42.2486 2.79427 41.9795 3.25385C41.724 3.72141 41.4126 4.19352 41.1058 4.66906C40.7774 5.12978 40.4523 5.59277 40.1136 6.00331C39.784 6.42069 39.4247 6.77536 39.143 7.09695C38.8602 7.4174 38.5659 7.64433 38.3869 7.82337C38.1964 7.99214 38.0732 8.08109 38.0732 8.08109L38.015 8.04117C38.015 8.04117 39.2707 6.15955 40.5265 4.27678C41.8107 2.41453 43.0949 0.551147 43.0949 0.551147L43.1542 0.589917Z" fill="#006838"/>
<path d="M51.4503 6.06493C51.4503 6.06493 51.3351 6.33634 51.1104 6.79478C50.8732 7.24523 50.5744 7.91464 50.1421 8.67071C49.7064 9.42336 49.2445 10.3322 48.6651 11.2514C48.0903 12.174 47.4767 13.1558 46.8643 14.1388C46.2062 15.0922 45.5481 16.0456 44.9323 16.9396C44.3175 17.8348 43.6697 18.6228 43.1519 19.3219C42.6307 20.0175 42.1357 20.5592 41.8186 20.9572C41.4879 21.3472 41.286 21.5593 41.286 21.5593L41.2267 21.5217C41.2267 21.5217 43.7541 17.6387 46.2815 13.7557C48.8374 9.89092 51.3933 6.02844 51.3933 6.02844L51.4503 6.06493Z" fill="#006838"/>
<path d="M56.3396 16.5542C56.3396 16.5542 56.2347 16.8028 56.0272 17.2202C55.807 17.6307 55.5333 18.2431 55.1318 18.9307C54.7292 19.6172 54.2947 20.4394 53.7666 21.281C53.2523 22.1295 52.6649 23.0099 52.081 23.8925C51.4765 24.7604 50.8755 25.6305 50.2767 26.4242C49.6893 27.2236 49.0871 27.934 48.5978 28.5612C48.1074 29.1885 47.641 29.6697 47.341 30.0255C47.0297 30.3733 46.838 30.5638 46.838 30.5638L46.7799 30.5239C46.7799 30.5239 49.1407 27.0126 51.5027 23.5002C53.8921 20.0073 56.2826 16.5154 56.2826 16.5154L56.3396 16.5542Z" fill="#006838"/>
<path d="M61.2359 27.0456C61.2359 27.0456 61.1823 27.219 61.0625 27.5064C60.9314 27.7846 60.7843 28.2111 60.5356 28.6729C60.2859 29.1337 60.0281 29.6947 59.6905 30.2558C59.3655 30.8249 58.9811 31.4053 58.6002 31.9892C58.1987 32.5583 57.8007 33.1296 57.3924 33.6416C56.9943 34.1605 56.5712 34.6098 56.2336 35.0124C55.896 35.4149 55.555 35.7091 55.3452 35.9349C55.1216 36.1516 54.9813 36.2668 54.9813 36.2668L54.9232 36.2269C54.9232 36.2269 56.472 33.913 58.0219 31.5969C59.6004 29.3013 61.1789 27.0057 61.1789 27.0057L61.2359 27.0456Z" fill="#006838"/>
<path d="M66.1275 37.5383C66.1275 37.5383 66.1253 37.6364 66.0956 37.7915C66.0545 37.9386 66.0352 38.1758 65.9394 38.4107C65.8436 38.6456 65.7649 38.9421 65.62 39.2193C65.4877 39.5043 65.3075 39.7826 65.1319 40.0631C64.9357 40.3288 64.7418 40.5991 64.5262 40.8272C64.321 41.0633 64.0758 41.2469 63.8933 41.4225C63.7085 41.597 63.4964 41.703 63.3755 41.7965C63.242 41.8809 63.1519 41.9197 63.1519 41.9197L63.0938 41.8798C63.0938 41.8798 63.8237 40.7747 64.5525 39.6697C65.3109 38.584 66.0694 37.4984 66.0694 37.4984L66.1275 37.5383Z" fill="#006838"/>
<path d="M49.922 3.12262C49.922 3.12262 50.1124 3.09069 50.4443 3.06332C50.7739 3.05077 51.2518 2.98463 51.8141 2.99147C52.3764 3.00173 53.0367 2.97094 53.737 3.01313C54.4384 3.03822 55.182 3.11235 55.9245 3.18077C56.6658 3.27428 57.4072 3.36437 58.0972 3.48981C58.7883 3.60385 59.4282 3.77377 59.979 3.88667C60.5299 4.00185 60.9804 4.16721 61.3009 4.25045C61.6191 4.34853 61.7993 4.42037 61.7993 4.42037L61.7913 4.48993C61.7913 4.48993 58.8203 4.18202 55.8492 3.87526C52.8816 3.532 49.914 3.18989 49.914 3.18989L49.922 3.12262Z" fill="#006838"/>
<path d="M53.8693 11.2571C53.8693 11.2571 54.1351 11.232 54.597 11.2161C55.0566 11.2149 55.7192 11.1647 56.505 11.1921C57.2909 11.2206 58.2124 11.2138 59.1909 11.2788C60.1718 11.329 61.2131 11.4293 62.2555 11.524C63.2956 11.6437 64.3347 11.76 65.3052 11.9106C66.277 12.0485 67.1779 12.2413 67.9524 12.3736C68.7268 12.5081 69.3655 12.6906 69.816 12.7852C70.2653 12.8947 70.5197 12.9734 70.5197 12.9734L70.5128 13.043C70.5128 13.043 66.3477 12.6313 62.1837 12.2185C58.0231 11.7714 53.8613 11.3255 53.8613 11.3255L53.8693 11.2571Z" fill="#006838"/>
<path d="M58.761 21.7463C58.761 21.7463 58.9902 21.7122 59.3871 21.6814C59.784 21.6654 60.3543 21.5947 61.0317 21.597C61.7092 21.6004 62.5018 21.5639 63.3458 21.5981C64.1909 21.6164 65.0897 21.6825 65.9873 21.7441C66.8837 21.8308 67.7802 21.9128 68.6173 22.0326C69.4556 22.1398 70.2322 22.3017 70.9006 22.41C71.5689 22.5195 72.1209 22.6803 72.5087 22.7613C72.8965 22.856 73.1166 22.9278 73.1166 22.9278L73.1109 22.9974C73.1109 22.9974 69.5206 22.7203 65.9302 22.4431C62.3422 22.1307 58.7541 21.8171 58.7541 21.8171L58.761 21.7463Z" fill="#006838"/>
<path d="M63.6561 32.2379C63.6561 32.2379 63.7838 32.1991 64.0028 32.1615C64.2195 32.1375 64.5365 32.0554 64.9061 32.0451C65.2756 32.0349 65.7113 31.9835 66.1698 32.0007C66.6305 32.0029 67.1164 32.052 67.6022 32.0953C68.0858 32.1637 68.5694 32.2287 69.0187 32.3314C69.4692 32.4203 69.881 32.5686 70.2391 32.6621C70.5961 32.7579 70.8858 32.9084 71.0933 32.9803C71.2986 33.0669 71.4138 33.1331 71.4138 33.1331L71.4059 33.2026C71.4059 33.2026 69.4647 32.9962 67.5235 32.7898C65.5858 32.5492 63.6492 32.3074 63.6492 32.3074L63.6561 32.2379Z" fill="#006838"/>
<path d="M68.81 42.7418C68.81 42.7453 68.8397 42.6917 68.8887 42.6335C68.9366 42.5902 69.0096 42.4784 69.0883 42.4328C69.167 42.3895 69.2628 42.2971 69.3575 42.2709C69.4544 42.2298 69.5525 42.2321 69.6517 42.2298C69.7487 42.2526 69.8445 42.2709 69.9323 42.3313C70.0201 42.3781 70.0954 42.4853 70.1638 42.5457C70.2322 42.6061 70.2813 42.7281 70.3189 42.7806C70.3554 42.8479 70.3737 42.9049 70.3737 42.9015L70.3668 42.9711C70.3668 42.9711 69.9734 42.9483 69.581 42.9254C69.1921 42.8684 68.802 42.8103 68.802 42.8103L68.81 42.7418Z" fill="#006838"/>
<path d="M70.9416 47.9888C70.9416 47.9888 70.563 47.2624 69.9004 45.9931C69.2491 44.717 68.2649 42.9198 67.1814 40.7177C66.1002 38.5133 64.7874 35.9669 63.4736 33.1957C62.1551 30.4257 60.7477 27.4721 59.3404 24.5185C57.982 21.5421 56.6237 18.5658 55.3497 15.7752C54.0735 12.9859 52.9637 10.3447 51.9704 8.10047C50.9804 5.85392 50.2356 3.94606 49.6756 2.62778C49.1282 1.3038 48.8157 0.546586 48.8157 0.546586L48.8796 0.518066L71.0044 47.9614L70.9416 47.9888Z" fill="#006838"/>
<path d="M14.3175 95.0001C14.3175 95.0001 32.2349 89.1556 45.929 86.543C30.442 81.3178 21.1788 72.7113 13.8305 78.0962C9.30376 81.4136 11.9018 93.0192 14.3175 95.0001Z" fill="url(#paint2_linear)"/>
<path d="M38.1667 85.9865C38.1667 85.9865 38.015 85.8713 37.8337 85.6786C37.7573 85.5748 37.6432 85.4665 37.5657 85.3285C37.4858 85.1917 37.4003 85.0457 37.3159 84.8998C37.2543 84.7412 37.1939 84.585 37.1368 84.4368C37.0787 84.2896 37.0638 84.1323 37.0319 84.008C36.9943 83.7468 36.9988 83.5564 36.9988 83.5564L37.0308 83.5404C37.0308 83.5404 37.3307 84.1437 37.6307 84.7481C37.9147 85.3593 38.1987 85.9694 38.1987 85.9694L38.1667 85.9865Z" fill="#006838"/>
<path d="M29.9949 85.4186C29.9949 85.4186 29.7383 85.0879 29.4007 84.5713C29.2456 84.3056 29.0403 84.0079 28.8647 83.667C28.6879 83.3271 28.4986 82.9645 28.3092 82.6019C28.1439 82.2278 27.9785 81.8537 27.8245 81.5037C27.6683 81.1524 27.5634 80.808 27.4527 80.5206C27.2588 79.9333 27.1596 79.5285 27.1596 79.5285L27.1904 79.5126C27.1904 79.5126 27.9066 80.9814 28.624 82.4502C29.3254 83.927 30.0257 85.4026 30.0257 85.4026L29.9949 85.4186Z" fill="#006838"/>
<path d="M21.8163 84.8507C21.8163 84.8507 21.619 84.6408 21.3681 84.3044C21.2575 84.1299 21.1024 83.9384 20.9815 83.7103C20.8594 83.4833 20.7283 83.2427 20.5971 83.001C20.4899 82.7478 20.3827 82.4958 20.2835 82.2586C20.182 82.0214 20.1272 81.7807 20.0611 81.5846C19.955 81.1798 19.9139 80.8958 19.9139 80.8958L19.9447 80.8798C19.9447 80.8798 20.4283 81.8651 20.9119 82.8504C21.3795 83.8425 21.8471 84.8347 21.8471 84.8347L21.8163 84.8507Z" fill="#006838"/>
<path d="M34.1099 85.7049C34.1099 85.7049 34.0301 85.9831 33.8681 86.3743C33.7735 86.5613 33.6868 86.7951 33.5522 87.0163C33.4199 87.2398 33.2773 87.4781 33.1359 87.7176C32.9717 87.9411 32.8086 88.1647 32.6546 88.3745C32.5018 88.5855 32.3227 88.7565 32.187 88.9173C31.8916 89.2206 31.6669 89.4042 31.6658 89.4042L31.6373 89.3837C31.6373 89.3837 32.2406 88.4554 32.8439 87.5249C33.4621 86.6046 34.0791 85.6843 34.0791 85.6843L34.1099 85.7049Z" fill="#006838"/>
<path d="M25.9347 85.1369C25.9347 85.1369 25.7214 85.6171 25.3599 86.3104C25.166 86.648 24.963 87.0574 24.703 87.469C24.4452 87.8819 24.1703 88.322 23.8955 88.7622C23.5989 89.1876 23.3013 89.613 23.023 90.0121C22.7458 90.4124 22.4493 90.759 22.2144 91.0715C21.7182 91.6759 21.3613 92.0614 21.3601 92.0614L21.3316 92.0408C21.3316 92.0408 22.4676 90.3063 23.6046 88.5695C24.7554 86.843 25.9062 85.1176 25.9062 85.1176L25.9347 85.1369Z" fill="#006838"/>
<path d="M18.6263 84.6021C18.6263 84.6021 19.054 84.6146 19.8033 84.6351C20.5515 84.6648 21.6236 84.6636 22.9044 84.7435C25.4671 84.886 28.8829 85.0776 32.2999 85.2681C35.7089 85.5589 39.119 85.8485 41.6761 86.0663C42.9546 86.1678 44.0164 86.3183 44.7611 86.3936C45.5048 86.4769 45.9302 86.5247 45.9302 86.5247L45.9279 86.5601L18.624 84.6363L18.6263 84.6021Z" fill="#006838"/>
<path d="M34.9014 36.2863C24.2878 45.7481 14.2205 43.3807 5.13517 53.7057C-1.33838 61.0646 0.0838377 69.2366 0.236666 71.9917C0.479596 76.4438 9.06082 91.9644 14.3174 95.0001C12.8952 92.7775 14.0985 90.6837 16.3749 87.6321C18.6252 84.6192 26.1229 79.183 29.2205 73.8927C33.8829 65.9294 30.5583 51.1489 34.9014 36.2863Z" fill="url(#paint3_linear)"/>
<path d="M7.21202 86.0721C7.21202 86.0721 7.35574 86.0311 7.60437 85.9877C7.85186 85.9604 8.20998 85.8714 8.63197 85.8532C9.05396 85.8349 9.55007 85.7745 10.0758 85.7813C10.6016 85.7745 11.1605 85.8121 11.7182 85.8463C12.2748 85.9045 12.8313 85.9604 13.3491 86.0528C13.8681 86.1326 14.3471 86.2717 14.7611 86.3595C15.1739 86.4473 15.5138 86.591 15.7533 86.6595C15.9917 86.7427 16.1274 86.8066 16.1274 86.8066L16.1217 86.8761C16.1217 86.8761 13.8909 86.7096 11.6612 86.5454C9.43374 86.3436 7.20633 86.1429 7.20633 86.1429L7.21202 86.0721Z" fill="#006838"/>
<path d="M7.7264 76.0252C7.7264 76.0252 8.01496 75.991 8.51907 75.9614C9.02089 75.9454 9.74283 75.8758 10.6028 75.8804C11.4616 75.8884 12.4687 75.8428 13.5407 75.8941C14.6128 75.9397 15.7568 75.9887 16.9007 76.0389C18.0412 76.1416 19.1806 76.2442 20.2492 76.34C21.319 76.4335 22.3101 76.6091 23.1632 76.7152C24.0164 76.8258 24.7223 76.9888 25.2185 77.0709C25.7146 77.1667 25.9963 77.2374 25.9963 77.2374L25.9917 77.307C25.9917 77.307 21.4228 77.0219 16.8551 76.7368C12.2885 76.4164 7.72299 76.0948 7.72299 76.0948L7.7264 76.0252Z" fill="#006838"/>
<path d="M14.2091 66.4723C14.2091 66.4723 14.4737 66.4415 14.9356 66.4153C15.3952 66.405 16.0567 66.3412 16.8425 66.3526C17.6283 66.364 18.5487 66.3377 19.5284 66.3834C20.5093 66.413 21.5528 66.4905 22.5953 66.5635C23.6366 66.6627 24.6778 66.7574 25.6507 66.8874C26.6247 67.0048 27.528 67.1793 28.3058 67.2945C29.0825 67.4131 29.7246 67.5819 30.1763 67.6674C30.6279 67.7677 30.8834 67.8407 30.8834 67.8407L30.8777 67.9103C30.8777 67.9103 26.708 67.5853 22.5371 67.2603C18.3697 66.9011 14.2022 66.5396 14.2022 66.5396L14.2091 66.4723Z" fill="#006838"/>
<path d="M20.6917 56.9125C20.6917 56.9125 20.8674 56.8737 21.1731 56.8361C21.4776 56.8121 21.9155 56.73 22.4344 56.7198C22.9534 56.7095 23.5613 56.6582 24.208 56.6753C24.8546 56.6787 25.5412 56.7266 26.2278 56.7711C26.9132 56.8406 27.5976 56.9056 28.2374 57.0083C28.8772 57.0984 29.4691 57.2466 29.979 57.3412C30.4888 57.437 30.9073 57.5887 31.2039 57.6606C31.4993 57.7472 31.6658 57.8145 31.6658 57.8145L31.6601 57.8841C31.6601 57.8841 28.9149 57.6754 26.1696 57.469C23.4278 57.2249 20.6849 56.982 20.6849 56.982L20.6917 56.9125Z" fill="#006838"/>
<path d="M27.1744 47.3549C27.1744 47.3549 27.26 47.3093 27.4082 47.258C27.5542 47.2215 27.7675 47.1212 28.0173 47.0892C28.267 47.0573 28.5602 46.9786 28.8681 46.9695C29.1783 46.9455 29.5045 46.9638 29.8318 46.9786C30.1569 47.0174 30.4819 47.0539 30.783 47.1292C31.0852 47.1919 31.3624 47.3139 31.603 47.3869C31.8425 47.4598 32.0376 47.5944 32.1756 47.6526C32.3124 47.7267 32.39 47.786 32.39 47.786L32.3843 47.8556C32.3843 47.8556 31.0784 47.7655 29.7725 47.6765C28.4689 47.5511 27.1664 47.4256 27.1664 47.4256L27.1744 47.3549Z" fill="#006838"/>
<path d="M5.9837 78.8432C5.9837 78.8432 5.86053 78.6892 5.67006 78.411C5.49442 78.1259 5.19674 77.7393 4.92188 77.2398C4.64816 76.7392 4.29003 76.1713 3.97525 75.5349C3.64564 74.9031 3.33657 74.2121 3.02407 73.5221C2.73323 72.8219 2.44012 72.1229 2.2029 71.4523C1.95426 70.7863 1.7809 70.1398 1.60298 69.5969C1.4262 69.0541 1.3441 68.5752 1.25514 68.2513C1.181 67.9217 1.15363 67.7278 1.15363 67.7267L1.21864 67.7005C1.21864 67.7005 2.44241 70.4716 3.66618 73.2439C4.85801 76.0287 6.04985 78.8147 6.04985 78.8147L5.9837 78.8432Z" fill="#006838"/>
<path d="M10.9324 71.2961C10.9324 71.2961 10.7761 71.0749 10.5309 70.6757C10.2994 70.2709 9.92304 69.711 9.55351 69.0039C9.18399 68.2969 8.71637 67.4895 8.28184 66.5932C7.83361 65.7048 7.39794 64.7366 6.95771 63.7707C6.54028 62.7957 6.11943 61.8207 5.76359 60.8901C5.39635 59.9653 5.11122 59.0757 4.8375 58.3277C4.56492 57.5773 4.40409 56.9239 4.26039 56.4802C4.13037 56.0287 4.06992 55.7664 4.07106 55.7664L4.13493 55.7379C4.13493 55.7379 5.86624 59.6129 7.59754 63.489C9.2969 67.3789 10.9963 71.2676 10.9963 71.2676L10.9324 71.2961Z" fill="#006838"/>
<path d="M17.4173 61.7397C17.4173 61.7397 17.2736 61.555 17.0467 61.2197C16.8345 60.8776 16.4867 60.4112 16.1491 59.8136C15.8126 59.2149 15.3827 58.5329 14.988 57.7723C14.5809 57.0185 14.1874 56.194 13.7905 55.3718C13.4153 54.5393 13.0378 53.708 12.7218 52.9109C12.3934 52.1194 12.1459 51.3542 11.9041 50.7099C11.6635 50.0679 11.5277 49.5 11.4023 49.118C11.2905 48.7291 11.2415 48.4999 11.2415 48.4999L11.3053 48.4714C11.3053 48.4714 12.8655 51.7739 14.4246 55.0765C15.9529 58.3938 17.4812 61.7112 17.4812 61.7112L17.4173 61.7397Z" fill="#006838"/>
<path d="M23.8977 52.1822C23.8977 52.1822 23.8008 52.0899 23.6582 51.9154C23.5294 51.7352 23.299 51.4969 23.1039 51.1764C22.9101 50.856 22.6466 50.4967 22.4311 50.0851C22.2018 49.6779 21.9999 49.2252 21.7946 48.7759C21.611 48.3152 21.4251 47.8556 21.2894 47.4097C21.1411 46.9684 21.0624 46.5305 20.9644 46.169C20.8686 45.8064 20.8526 45.4768 20.8115 45.2578C20.7842 45.0343 20.7841 44.8997 20.7841 44.8997L20.8491 44.8735C20.8491 44.8735 21.6441 46.6879 22.439 48.5022C23.2009 50.3302 23.9639 52.1583 23.9639 52.1583L23.8977 52.1822Z" fill="#006838"/>
<path d="M30.2607 42.3885C30.2629 42.3862 30.2025 42.3862 30.1272 42.3726C30.0656 42.3509 29.9322 42.3429 29.8535 42.2962C29.7759 42.2494 29.647 42.2106 29.5775 42.1388C29.4931 42.0738 29.4452 41.986 29.3939 41.8993C29.3653 41.8035 29.3323 41.7089 29.3414 41.6028C29.338 41.5025 29.3927 41.3827 29.411 41.2938C29.4304 41.2037 29.5102 41.0988 29.5364 41.0395C29.5763 40.9733 29.6174 40.9277 29.614 40.93L29.6779 40.9015C29.6779 40.9015 29.8558 41.2584 30.0337 41.6165C30.1797 41.9883 30.3245 42.3589 30.3245 42.3589L30.2607 42.3885Z" fill="#006838"/>
<path d="M33.6651 37.8852C33.6651 37.8852 33.2374 38.5797 32.4881 39.7988C31.7285 41.0087 30.6929 42.7706 29.3608 44.8256C28.0264 46.8794 26.5163 49.3061 24.8147 51.8481C23.1176 54.3945 21.3065 57.1109 19.4965 59.8262C17.642 62.5118 15.7864 65.1985 14.0483 67.7165C12.3113 70.2367 10.6176 72.5391 9.20223 74.536C7.78457 76.5328 6.53115 78.1476 5.68717 79.3005C4.83292 80.4466 4.34478 81.1023 4.34478 81.1023L4.28662 81.0624L33.6069 37.8453L33.6651 37.8852Z" fill="#006838"/>
<path d="M101.254 64.9271C101.254 64.9271 87.3217 52.0602 78.2489 41.2995C81.5473 57.5579 78.8534 70.0234 87.1107 73.8084C92.1962 76.137 100.775 68.046 101.254 64.9271Z" fill="url(#paint4_linear)"/>
<path d="M81.6567 48.4177C81.6567 48.4177 81.6374 48.6058 81.5644 48.8601C81.5153 48.9787 81.4811 49.1315 81.4024 49.2684C81.326 49.4064 81.245 49.5546 81.1641 49.7017C81.0603 49.834 80.9565 49.9663 80.8584 50.0918C80.7626 50.2161 80.636 50.3084 80.5459 50.4008C80.3406 50.5673 80.1752 50.6597 80.1752 50.6597L80.1467 50.6392C80.1467 50.6392 80.5094 50.0746 80.8721 49.509C81.2496 48.9536 81.6271 48.3972 81.6271 48.3972L81.6567 48.4177Z" fill="#006838"/>
<path d="M85.2608 55.9043C85.2608 55.9043 85.1091 56.2921 84.8388 56.8463C84.6905 57.1143 84.5411 57.4427 84.3393 57.7689C84.1385 58.0939 83.9252 58.4417 83.7119 58.7895C83.4759 59.1225 83.2398 59.4555 83.0197 59.7669C82.7995 60.0782 82.5578 60.3473 82.3684 60.589C81.9647 61.0543 81.6682 61.3474 81.6682 61.3474L81.6396 61.3269C81.6396 61.3269 82.5304 59.9618 83.4223 58.5957C84.3278 57.2409 85.2334 55.8839 85.2334 55.8839L85.2608 55.9043Z" fill="#006838"/>
<path d="M88.8659 63.3932C88.8659 63.3932 88.7884 63.6692 88.6287 64.0558C88.5352 64.2405 88.4508 64.4709 88.3185 64.691C88.1873 64.9122 88.0482 65.1471 87.9079 65.3832C87.7459 65.6044 87.584 65.8256 87.4323 66.0321C87.2818 66.2396 87.1038 66.4095 86.9704 66.5669C86.6773 66.8657 86.4549 67.047 86.4537 67.047L86.4252 67.0265C86.4252 67.0265 87.0206 66.1085 87.6171 65.1904C88.2272 64.2816 88.8386 63.3727 88.8386 63.3727L88.8659 63.3932Z" fill="#006838"/>
<path d="M83.4462 52.1342C83.4462 52.1342 83.7256 52.0658 84.1408 52.0156C84.3472 52.0053 84.5902 51.9654 84.8468 51.9734C85.1045 51.9791 85.3782 51.9848 85.652 51.9905C85.9245 52.0225 86.1971 52.0555 86.4526 52.0851C86.7081 52.1137 86.943 52.1855 87.146 52.2243C87.5498 52.3326 87.8178 52.4376 87.8178 52.4376L87.8155 52.4729C87.8155 52.4729 86.7218 52.4056 85.628 52.3395C84.5354 52.2551 83.4428 52.1718 83.4428 52.1718L83.4462 52.1342Z" fill="#006838"/>
<path d="M87.0491 59.6208C87.0491 59.6208 87.5669 59.5695 88.339 59.5432C88.7245 59.5466 89.175 59.5204 89.6551 59.5444C90.1353 59.566 90.6474 59.5877 91.1595 59.6105C91.6704 59.6595 92.1803 59.7086 92.6581 59.7542C93.1372 59.7987 93.5808 59.8842 93.9629 59.9355C94.7236 60.0689 95.2289 60.191 95.2289 60.191L95.2266 60.2263C95.2266 60.2263 93.1805 60.0929 91.1355 59.9595C89.0906 59.8078 87.0468 59.6573 87.0468 59.6573L87.0491 59.6208Z" fill="#006838"/>
<path d="M90.2482 66.3286C90.2482 66.3286 90.0441 65.9454 89.6871 65.2748C89.3381 64.5997 88.7998 63.6555 88.2272 62.4889C87.0673 60.1591 85.5208 57.0527 83.9743 53.9474C82.5178 50.7977 81.0603 47.6491 79.9677 45.2862C79.4156 44.1082 79.0142 43.0978 78.7063 42.4056C78.4063 41.7077 78.2352 41.3086 78.2352 41.3086L78.266 41.2926L90.2802 66.3126L90.2482 66.3286Z" fill="#006838"/>
<path d="M40.9872 76.145C54.3472 80.7659 57.3673 90.8218 70.6976 93.6636C80.1969 95.6878 86.4401 90.3473 88.7131 88.8386C92.381 86.3971 101.3 71.076 101.254 64.9271C100.073 67.2888 97.6901 67.2786 93.9561 66.7984C90.2642 66.3206 81.8883 62.4342 75.839 62.3487C66.7286 62.2198 55.8093 72.5403 40.9872 76.145Z" fill="url(#paint5_linear)"/>
<path d="M97.2054 75.65C97.2054 75.65 97.0982 75.544 96.9362 75.3455C96.7879 75.1403 96.5313 74.87 96.3032 74.5074C96.0763 74.1447 95.7752 73.7376 95.5186 73.2712C95.2483 72.8105 95.0008 72.2996 94.751 71.791C94.5229 71.2721 94.2925 70.7544 94.1123 70.2515C93.9218 69.7531 93.8021 69.2627 93.6698 68.8545C93.5386 68.4474 93.4941 68.0756 93.4326 67.8316C93.3847 67.5795 93.3721 67.429 93.3721 67.429L93.436 67.4005C93.436 67.4005 94.41 69.4475 95.384 71.4956C96.326 73.5585 97.2681 75.6204 97.2681 75.6204L97.2054 75.65Z" fill="#006838"/>
<path d="M88.3983 80.2218C88.3983 80.2218 88.225 79.9835 87.9467 79.5535C87.6821 79.1179 87.259 78.517 86.8313 77.7575C86.4081 76.9957 85.863 76.1313 85.3703 75.1619C84.873 74.1938 84.3427 73.1617 83.8123 72.1285C83.3299 71.0725 82.8475 70.0165 82.3958 69.0278C81.9419 68.0391 81.5975 67.0766 81.261 66.2726C80.9291 65.4664 80.7181 64.7628 80.5402 64.2849C80.3748 63.8014 80.295 63.5175 80.295 63.5175L80.3589 63.4867C80.3589 63.4867 82.4004 67.6548 84.4419 71.8252C86.4515 76.0081 88.4622 80.1921 88.4622 80.1921L88.3983 80.2218Z" fill="#006838"/>
<path d="M77.0252 79.2856C77.0252 79.2856 76.8655 79.0689 76.6123 78.6744C76.3728 78.2729 75.9861 77.7233 75.6018 77.0254C75.2186 76.3263 74.7339 75.528 74.2822 74.642C73.8158 73.7627 73.3607 72.8048 72.9022 71.848C72.4654 70.881 72.0251 69.9174 71.6511 68.9948C71.2644 68.0768 70.9622 67.1953 70.6736 66.4518C70.3862 65.7094 70.2117 65.0582 70.0589 64.618C69.9198 64.171 69.8547 63.9087 69.8547 63.9087L69.9186 63.8802C69.9186 63.8802 71.7275 67.7164 73.5363 71.5538C75.3132 75.406 77.0901 79.2582 77.0901 79.2582L77.0252 79.2856Z" fill="#006838"/>
<path d="M65.6485 78.3539C65.6485 78.3539 65.5276 78.2182 65.3405 77.9684C65.1683 77.7107 64.8764 77.3663 64.6072 76.9136C64.3381 76.4608 63.989 75.95 63.68 75.3718C63.3572 74.8004 63.055 74.171 62.7493 73.5426C62.4653 72.904 62.1791 72.2688 61.9475 71.6541C61.7046 71.0463 61.537 70.4499 61.3625 69.9538C61.1902 69.4555 61.1115 69.0119 61.026 68.7154C60.9541 68.4109 60.9279 68.2307 60.9279 68.2307L60.9918 68.2022C60.9918 68.2022 62.1882 70.7247 63.3846 73.2484C64.549 75.7869 65.7135 78.3242 65.7135 78.3242L65.6485 78.3539Z" fill="#006838"/>
<path d="M54.2707 77.4187C54.2707 77.4187 54.1875 77.3662 54.07 77.2613C53.9651 77.1495 53.7701 77.0116 53.6172 76.8086C53.4656 76.6045 53.25 76.3844 53.0869 76.1187C52.909 75.8575 52.7619 75.561 52.6113 75.2645C52.4824 74.9578 52.3501 74.6544 52.2646 74.3511C52.1677 74.0523 52.1346 73.7478 52.0764 73.5004C52.0205 73.2517 52.0376 73.0145 52.0205 72.8629C52.016 72.7043 52.0285 72.6063 52.0285 72.6063L52.0924 72.5778C52.0924 72.5778 52.6683 73.7729 53.2454 74.9692C53.7906 76.1802 54.3358 77.3902 54.3358 77.3902L54.2707 77.4187Z" fill="#006838"/>
<path d="M91.6693 80.3472C91.6693 80.3472 91.602 80.532 91.4606 80.8376C91.3066 81.1341 91.1276 81.5857 90.8413 82.0761C90.5539 82.5676 90.2505 83.1629 89.8661 83.7593C89.4943 84.3625 89.061 84.9806 88.631 85.601C88.1805 86.2077 87.7323 86.8155 87.2783 87.3617C86.8358 87.9137 86.3694 88.3926 85.9964 88.8225C85.6223 89.2513 85.2528 89.5661 85.0213 89.8067C84.7772 90.0382 84.6244 90.1614 84.6244 90.1614L84.5673 90.1214C84.5673 90.1214 86.3146 87.6582 88.0607 85.1939C89.8365 82.7512 91.6112 80.3085 91.6112 80.3085L91.6693 80.3472Z" fill="#006838"/>
<path d="M82.7722 79.7588C82.7722 79.7588 82.6627 80.0051 82.446 80.4191C82.2179 80.8239 81.9316 81.4329 81.5165 82.1103C81.1002 82.7877 80.6474 83.6019 80.1022 84.431C79.5696 85.2691 78.964 86.1381 78.3629 87.0082C77.7414 87.8647 77.1221 88.7222 76.5073 89.5034C75.904 90.2903 75.287 90.9893 74.7852 91.6062C74.2822 92.2232 73.8055 92.6953 73.4987 93.0454C73.1793 93.3864 72.9843 93.5723 72.9843 93.5723L72.9273 93.5323C72.9273 93.5323 75.36 90.069 77.7938 86.6057C80.2551 83.1628 82.7174 79.72 82.7174 79.72L82.7722 79.7588Z" fill="#006838"/>
<path d="M71.3967 78.8237C71.3967 78.8237 71.3123 79.0404 71.1412 79.4065C70.9565 79.7634 70.7352 80.3005 70.3953 80.897C70.0543 81.4911 69.6917 82.2072 69.2412 82.9348C68.8043 83.6703 68.2991 84.4287 67.7973 85.1894C67.2749 85.9363 66.756 86.6855 66.2359 87.3641C65.7249 88.0494 65.1958 88.6538 64.7692 89.1898C64.3415 89.7258 63.9252 90.1306 63.6618 90.434C63.3858 90.7293 63.2147 90.8878 63.2147 90.8878L63.1565 90.8479C63.1565 90.8479 65.1878 87.8236 67.219 84.797C69.2788 81.791 71.3385 78.785 71.3385 78.785L71.3967 78.8237Z" fill="#006838"/>
<path d="M60.0201 77.891C60.0201 77.891 59.9904 78.0221 59.914 78.2342C59.8251 78.4372 59.7395 78.7565 59.565 79.0861C59.3894 79.4168 59.2172 79.8251 58.9742 80.2196C58.7427 80.6233 58.4587 81.0282 58.1781 81.4342C57.8782 81.8253 57.5805 82.2187 57.268 82.5643C56.9658 82.9166 56.6316 83.2063 56.3716 83.4754C56.1104 83.7434 55.8344 83.9247 55.669 84.0707C55.4911 84.2075 55.377 84.2771 55.377 84.2771L55.32 84.2372C55.32 84.2372 56.4674 82.6304 57.6136 81.0236C58.7883 79.4362 59.9642 77.8511 59.9642 77.8511L60.0201 77.891Z" fill="#006838"/>
<path d="M48.4998 77.1805C48.4975 77.1782 48.5283 77.2318 48.5545 77.3025C48.5693 77.3663 48.6298 77.4849 48.6298 77.5762C48.6298 77.6663 48.6629 77.7963 48.6378 77.8921C48.6252 77.9981 48.5739 78.0836 48.5271 78.1715C48.4587 78.2456 48.3948 78.322 48.3002 78.3699C48.2158 78.4246 48.0846 78.4383 47.9991 78.4691C47.9124 78.4988 47.7812 78.4828 47.7162 78.4908C47.6398 78.4908 47.5794 78.4782 47.5828 78.4805L47.5258 78.4406C47.5258 78.4406 47.7402 78.1053 47.9546 77.77C48.1987 77.4553 48.4416 77.1394 48.4416 77.1394L48.4998 77.1805Z" fill="#006838"/>
<path d="M42.9683 76.4368C42.9683 76.4368 43.7758 76.4654 45.1866 76.5178C46.5974 76.584 48.6184 76.6159 51.034 76.763C53.4496 76.9124 56.2724 77.031 59.2879 77.2591C62.3046 77.4814 65.5219 77.7186 68.7393 77.957C71.9521 78.2478 75.165 78.5386 78.1782 78.8111C81.1903 79.0802 83.9948 79.4212 86.4024 79.6687C88.8089 79.9184 90.8082 80.2149 92.2111 80.3803C93.6127 80.5582 94.4134 80.6608 94.4134 80.6608L94.4077 80.7304L42.9626 76.5064L42.9683 76.4368Z" fill="#006838"/>
<defs>
<linearGradient id="paint0_linear" x1="27.2411" y1="18.0613" x2="36.6195" y2="19.5971" gradientUnits="userSpaceOnUse">
<stop stop-color="#65C08A"/>
<stop offset="0.5" stop-color="#00A551"/>
<stop offset="1" stop-color="#00914D"/>
</linearGradient>
<linearGradient id="paint1_linear" x1="45.2468" y1="29.1341" x2="72.3268" y2="16.7287" gradientUnits="userSpaceOnUse">
<stop stop-color="#65C08A"/>
<stop offset="0.25" stop-color="#00A551"/>
<stop offset="0.5" stop-color="#00914D"/>
<stop offset="0.75" stop-color="#00A551"/>
<stop offset="1" stop-color="#65C08A"/>
</linearGradient>
<linearGradient id="paint2_linear" x1="30.0305" y1="91.3144" x2="26.6346" y2="82.3264" gradientUnits="userSpaceOnUse">
<stop stop-color="#65C08A"/>
<stop offset="0.5" stop-color="#00A551"/>
<stop offset="1" stop-color="#00914D"/>
</linearGradient>
<linearGradient id="paint3_linear" x1="30.6006" y1="69.9171" x2="6.22636" y2="52.5997" gradientUnits="userSpaceOnUse">
<stop stop-color="#65C08A"/>
<stop offset="0.25" stop-color="#00A551"/>
<stop offset="0.5" stop-color="#00914D"/>
<stop offset="0.75" stop-color="#00A551"/>
<stop offset="1" stop-color="#65C08A"/>
</linearGradient>
<linearGradient id="paint4_linear" x1="90.4191" y1="52.776" x2="84.2521" y2="60.311" gradientUnits="userSpaceOnUse">
<stop stop-color="#65C08A"/>
<stop offset="0.5" stop-color="#00A551"/>
<stop offset="1" stop-color="#00914D"/>
</linearGradient>
<linearGradient id="paint5_linear" x1="71.8308" y1="63.1935" x2="68.992" y2="93.2762" gradientUnits="userSpaceOnUse">
<stop stop-color="#65C08A"/>
<stop offset="0.25" stop-color="#00A551"/>
<stop offset="0.5" stop-color="#00914D"/>
<stop offset="0.75" stop-color="#00A551"/>
<stop offset="1" stop-color="#65C08A"/>
</linearGradient>
</defs>
</svg>
