<svg width="490" height="44" viewBox="0 0 490 44" fill="none" xmlns="http://www.w3.org/2000/svg">
<path d="M19.8646 26.5399L31.4694 42.6512H24.2431L14.1724 28.5823H6.50925V42.6512H0.161179V10.8813H6.50925V25.1771H13.7344L23.8051 10.8813H30.8125L19.8646 26.5399Z" fill="#007A33"/>
<path d="M60.2992 42.6512V16.7805H59.8624L43.4414 42.6512H35.1213V10.8813H41.4694V36.752H41.9074L58.3284 10.8813H66.6473V42.6512H60.2992Z" fill="#007A33"/>
<path d="M74.8876 4.30016C74.8876 5.20791 74.5876 6.00276 73.9889 6.68243C73.3901 7.36438 72.5951 7.7042 71.604 7.7042C70.6107 7.7042 69.8146 7.36438 69.2169 6.68243C68.6182 6.00276 68.3194 5.20791 68.3194 4.30016C68.3194 3.39356 68.6182 2.59871 69.2169 1.9179C69.8146 1.23595 70.6107 0.896118 71.604 0.896118C72.5666 0.896118 73.3547 1.23595 73.9683 1.9179C74.5819 2.59871 74.8876 3.39356 74.8876 4.30016Z" fill="#007A33"/>
<path d="M79.4781 10.8801H73.1277V42.6501H79.4781V10.8801Z" fill="#007A33"/>
<path d="M84.0824 4.30016C84.0824 5.20791 83.7824 6.00276 83.1859 6.68243C82.5872 7.36438 81.7899 7.7042 80.7988 7.7042C79.8054 7.7042 79.0094 7.36438 78.4129 6.68243C77.8141 6.00276 77.5142 5.20791 77.5142 4.30016C77.5142 3.39356 77.813 2.59871 78.4129 1.9179C79.0094 1.23595 79.8066 0.896118 80.7988 0.896118C81.7626 0.896118 82.5507 1.23595 83.1631 1.9179C83.7767 2.59871 84.0824 3.39356 84.0824 4.30016Z" fill="#007A33"/>
<path d="M85.8673 10.8801H100.754C103.002 10.8801 104.95 11.0854 106.6 11.4936C108.249 11.9008 109.614 12.4767 110.695 13.219C111.775 13.958 112.578 14.8452 113.103 15.8716C113.63 16.9013 113.891 18.036 113.891 19.2756C113.891 20.8801 113.454 22.2714 112.577 23.4528C111.702 24.6309 110.388 25.5101 108.635 26.0849C110.826 26.5387 112.542 27.4237 113.781 28.7385C115.022 30.0557 115.643 31.7423 115.643 33.7995C115.643 36.5239 114.555 38.6781 112.381 40.2666C110.205 41.8563 106.767 42.6501 102.067 42.6501H85.8661V10.8801H85.8673ZM100.754 24.7232C104.987 24.7232 107.104 22.9078 107.104 19.2768C107.104 17.6745 106.57 16.4406 105.506 15.5785C104.441 14.7152 102.857 14.2853 100.754 14.2853H92.2154V24.7232H100.754ZM92.2165 28.1273V39.2472H102.069C104.258 39.2472 105.937 38.7933 107.105 37.8867C108.273 36.9778 108.857 35.6173 108.857 33.8007C108.857 31.8643 108.273 30.4366 107.105 29.5106C105.937 28.5891 104.258 28.1273 102.069 28.1273H92.2165V28.1273Z" fill="#007A33"/>
<path d="M140.177 26.5399L151.781 42.6512H144.556L134.484 28.5823H126.821V42.6512H120.473V10.8813H126.821V25.1771H134.046L144.118 10.8813H151.124L140.177 26.5399Z" fill="#007A33"/>
<path d="M169.842 9.97241C172.469 9.97241 174.856 10.3362 177 11.0626C179.146 11.7902 180.985 12.8644 182.517 14.2853C184.049 15.7074 185.239 17.4624 186.085 19.5493C186.932 21.6374 187.355 24.0425 187.355 26.7657C187.355 29.4901 186.932 31.8951 186.085 33.982C185.239 36.0701 184.049 37.824 182.517 39.2472C180.984 40.6704 179.146 41.7423 177 42.4687C174.856 43.1952 172.469 43.559 169.842 43.559C167.214 43.559 164.819 43.1952 162.659 42.4687C160.498 41.7412 158.651 40.6704 157.12 39.2472C155.588 37.824 154.406 36.0701 153.574 33.982C152.742 31.8951 152.326 29.4901 152.326 26.7657C152.326 24.0425 152.742 21.6374 153.574 19.5493C154.406 17.4624 155.589 15.7074 157.12 14.2853C158.653 12.8644 160.499 11.7902 162.659 11.0626C164.818 10.3362 167.214 9.97241 169.842 9.97241ZM169.842 13.1495C168.351 13.1495 166.959 13.4221 165.659 13.9672C164.36 14.5134 163.229 15.3436 162.266 16.4635C161.302 17.5822 160.534 18.9986 159.965 20.7068C159.396 22.4174 159.111 24.437 159.111 26.7657C159.111 29.0955 159.396 31.1151 159.965 32.8246C160.534 34.5351 161.302 35.948 162.266 37.0679C163.229 38.1878 164.36 39.0202 165.659 39.5642C166.959 40.1093 168.353 40.3819 169.842 40.3819C171.33 40.3819 172.724 40.1093 174.023 39.5642C175.322 39.0191 176.454 38.1878 177.416 37.0679C178.38 35.9492 179.148 34.5351 179.716 32.8246C180.285 31.1151 180.569 29.0943 180.569 26.7657C180.569 24.437 180.285 22.4174 179.716 20.7068C179.148 18.9986 178.38 17.5833 177.416 16.4635C176.455 15.3436 175.322 14.5123 174.023 13.9672C172.724 13.4221 171.33 13.1495 169.842 13.1495Z" fill="#007A33"/>
<path d="M213.143 38.1136H213.58L224.965 10.8801H234.38V42.6501H228.032V17.2343H227.593L217.083 42.6501H209.639L199.13 17.2343H198.692V42.6501H192.343V10.8801H201.758L213.143 38.1136Z" fill="#007A33"/>
<path d="M272.218 10.8801L255.797 42.6501H249.011L253.827 33.3456H250.325L237.846 10.8801H245.072L255.36 29.4889H255.798L265.433 10.8801H272.218V10.8801Z" fill="#007A33"/>
<path d="M306.52 10.8801V42.6501H300.172V28.8069H282.218V42.6501H275.87V10.8801H282.218V25.4029H300.172V10.8801H306.52V10.8801Z" fill="#007A33"/>
<path d="M329.921 40.1549C331.906 40.1549 333.811 39.7991 335.636 39.0875C337.46 38.3771 339.205 37.2196 340.869 35.6162L343.057 38.3394C341.393 39.9428 339.379 41.2132 337.015 42.1506C334.651 43.088 332.14 43.559 329.483 43.559C326.74 43.559 324.265 43.1952 322.061 42.4687C319.856 41.7412 317.973 40.6704 316.413 39.2472C314.849 37.824 313.645 36.0701 312.8 33.982C311.952 31.8951 311.529 29.4901 311.529 26.7657C311.529 24.0425 311.945 21.6374 312.777 19.5493C313.609 17.4624 314.793 15.7074 316.325 14.2853C317.858 12.8644 319.704 11.7902 321.864 11.0626C324.025 10.3362 326.419 9.97241 329.045 9.97241C331.7 9.97241 334.212 10.4434 336.577 11.3808C338.943 12.3182 340.956 13.5886 342.621 15.1931L340.43 17.9163C338.767 16.3129 337.022 15.1543 335.198 14.4439C333.372 13.7323 331.469 13.3765 329.483 13.3765C327.907 13.3765 326.432 13.641 325.061 14.1702C323.689 14.7004 322.507 15.509 321.515 16.5992C320.522 17.6882 319.74 19.0727 319.171 20.7524C318.601 22.4334 318.317 24.437 318.317 26.7657C318.317 29.0955 318.601 31.1003 319.171 32.7789C319.74 34.4576 320.543 35.8443 321.579 36.9322C322.615 38.0224 323.84 38.8321 325.258 39.3612C326.674 39.8904 328.229 40.1549 329.921 40.1549Z" fill="#007A33"/>
<path d="M353.297 14.2853V24.7232H369.279V28.1273H353.297V39.2472H373.659V42.6501H346.948V10.8801H373.659V14.2842H353.297V14.2853Z" fill="#007A33"/>
<path d="M393.522 10.8801C395.713 10.8801 397.68 11.1287 399.418 11.6282C401.16 12.1277 402.628 12.8541 403.826 13.8074C405.026 14.7597 405.946 15.924 406.59 17.3004C407.233 18.6792 407.556 20.2449 407.556 21.9977C407.556 23.7539 407.234 25.3196 406.589 26.696C405.946 28.0736 405.024 29.2379 403.825 30.1902C402.626 31.1424 401.156 31.8688 399.416 32.3683C397.677 32.8678 395.709 33.1164 393.516 33.1164H384.083V42.6477H377.735V10.8778H393.522V10.8801ZM384.084 14.2853V29.7158H393.498C395.804 29.7158 397.592 29.0886 398.862 27.8319C400.133 26.5774 400.767 24.632 400.767 22C400.767 19.368 400.133 17.4236 398.862 16.1703C397.592 14.9136 395.804 14.2864 393.498 14.2864H384.084V14.2853Z" fill="#007A33"/>
<path d="M411.845 10.8801H426.733C428.981 10.8801 430.931 11.0854 432.58 11.4936C434.228 11.9008 435.594 12.4767 436.674 13.219C437.753 13.958 438.556 14.8452 439.082 15.8716C439.608 16.9013 439.869 18.036 439.869 19.2756C439.869 20.8801 439.432 22.2714 438.556 23.4528C437.68 24.6309 436.367 25.5101 434.616 26.0849C436.805 26.5387 438.521 27.4237 439.76 28.7385C441.002 30.0557 441.622 31.7423 441.622 33.7995C441.622 36.5239 440.535 38.6781 438.361 40.2666C436.186 41.8563 432.749 42.6501 428.047 42.6501H411.846V10.8801H411.845ZM426.733 24.7232C430.966 24.7232 433.083 22.9078 433.083 19.2768C433.083 17.6745 432.549 16.4406 431.485 15.5785C430.42 14.7152 428.837 14.2853 426.733 14.2853H418.194V24.7232H426.733ZM418.194 28.1273V39.2472H428.047C430.237 39.2472 431.916 38.7933 433.084 37.8867C434.252 36.9778 434.836 35.6173 434.836 33.8007C434.836 31.8643 434.252 30.4366 433.084 29.5106C431.916 28.5891 430.237 28.1273 428.047 28.1273H418.194V28.1273Z" fill="#007A33"/>
<path d="M452.871 42.6512H446.522V10.8813H452.871V42.6512Z" fill="#007A33"/>
<path d="M476.31 40.1549C478.295 40.1549 480.2 39.7991 482.024 39.0875C483.849 38.3771 485.594 37.2196 487.259 35.6162L489.448 38.3394C487.784 39.9428 485.77 41.2132 483.403 42.1506C481.04 43.088 478.53 43.559 475.871 43.559C473.128 43.559 470.653 43.1952 468.45 42.4687C466.244 41.7412 464.362 40.6704 462.802 39.2472C461.24 37.824 460.035 36.0701 459.19 33.982C458.343 31.8951 457.92 29.4901 457.92 26.7657C457.92 24.0425 458.336 21.6374 459.167 19.5493C460 17.4624 461.184 15.7074 462.713 14.2853C464.246 12.8644 466.094 11.7902 468.254 11.0626C470.413 10.3362 472.807 9.97241 475.435 9.97241C478.09 9.97241 480.6 10.4434 482.966 11.3808C485.333 12.3182 487.346 13.5886 489.01 15.1931L486.82 17.9163C485.155 16.3129 483.41 15.1543 481.588 14.4439C479.762 13.7323 477.857 13.3765 475.871 13.3765C474.296 13.3765 472.82 13.641 471.45 14.1702C470.078 14.7004 468.895 15.509 467.904 16.5992C466.911 17.6882 466.129 19.0727 465.56 20.7524C464.991 22.4334 464.706 24.437 464.706 26.7657C464.706 29.0955 464.991 31.1003 465.56 32.7789C466.129 34.4576 466.932 35.8443 467.969 36.9322C469.004 38.0224 470.229 38.8321 471.647 39.3612C473.061 39.8904 474.618 40.1549 476.31 40.1549Z" fill="#007A33"/>
</svg>
