<svg width="1440" height="500" viewBox="0 0 1440 500" fill="none" xmlns="http://www.w3.org/2000/svg">
<rect width="1440" height="500" fill="#E0F2FD"/>
<path d="M369.974 491.415H406.866V307.773L369.974 288.114V491.415Z" fill="#D2ECFC"/>
<path d="M377.353 378.818H340.988V491.416H377.353V378.818Z" fill="#D2ECFC"/>
<path d="M340.988 323.145H306.73V491.415H340.988V323.145Z" fill="#D2ECFC"/>
<path d="M330.915 277.937H316.805V446.209H330.915V277.937Z" fill="#D2ECFC"/>
<path d="M325.216 220H322.501V388.272H325.216V220Z" fill="#D2ECFC"/>
<path d="M310.42 368.809H292.5V491.417H310.42V368.809Z" fill="#D2ECFC"/>
<path d="M296.717 350.042H276.691V491.415H296.717V350.042Z" fill="#D2ECFC"/>
<path d="M238.745 491.415H279.854V251.435L238.745 277.48V491.415Z" fill="#D2ECFC"/>
<path d="M242.433 327.523H198.689V491.415H242.433V327.523Z" fill="#D2ECFC"/>
<path d="M202.906 398.835H182.879V491.415H202.906V398.835Z" fill="#D2ECFC"/>
<path d="M186.042 351.92H160.744V491.417H186.042V351.92Z" fill="#D2ECFC"/>
<path d="M107.515 491.415H161.271V328.776L134.444 308.356L107.515 328.776V491.415Z" fill="#D2ECFC"/>
<path d="M112.786 376.941H56.9193V491.417H112.786V376.941Z" fill="#D2ECFC"/>
<path d="M62.1904 301.875H26.3517V491.415H62.1904V301.875Z" fill="#D2ECFC"/>
<path d="M30.0406 360.052H0V491.417H30.0406V360.052Z" fill="#D2ECFC"/>
<path d="M448.576 362.377H400.837V491.415H448.576V362.377Z" fill="#D2ECFC"/>
<path d="M480 380.309H444.951V491.415H480V380.309Z" fill="#D2ECFC"/>
<path d="M110.027 499.998H73.1355V366.259L110.027 346.599V499.998Z" fill="url(#paint0_linear)"/>
<path d="M139.015 437.304H102.649V499.998H139.015V437.304Z" fill="url(#paint1_linear)"/>
<path d="M173.27 381.63H139.014V500H173.27V381.63Z" fill="url(#paint2_linear)"/>
<path d="M163.196 336.425H149.086V468.25H163.196V336.425Z" fill="url(#paint3_linear)"/>
<path d="M157.5 278.484H154.784V446.754H157.5V278.484Z" fill="url(#paint4_linear)"/>
<path d="M187.5 427.294H169.581V499.998H187.5V427.294Z" fill="url(#paint5_linear)"/>
<path d="M203.311 408.528H183.284V499.998H203.311V408.528Z" fill="url(#paint6_linear)"/>
<path d="M241.257 499.999H200.149V309.921L241.257 335.965V499.999Z" fill="url(#paint7_linear)"/>
<path d="M281.311 386.007H237.567V499.998H281.311V386.007Z" fill="url(#paint8_linear)"/>
<path d="M297.121 457.321H277.095V499.998H297.121V457.321Z" fill="url(#paint9_linear)"/>
<path d="M319.257 410.405H293.96V499.998H319.257V410.405Z" fill="url(#paint10_linear)"/>
<path d="M423.082 435.427H367.217V499.998H423.082V435.427Z" fill="url(#paint11_linear)"/>
<path d="M453.65 360.362H417.811V499.998H453.65V360.362Z" fill="url(#paint12_linear)"/>
<path d="M480 418.537H449.959V499.998H480V418.537Z" fill="url(#paint13_linear)"/>
<path d="M79.1645 420.864H31.425V499.998H79.1645V420.864Z" fill="url(#paint14_linear)"/>
<path d="M35.05 438.797H0V500H35.05V438.797Z" fill="url(#paint15_linear)"/>
<path d="M214.654 341.07H208.659V360.227H214.654V341.07Z" fill="#C5E6EE"/>
<path d="M229.64 341.07H223.646V360.227H229.64V341.07Z" fill="#C5E6EE"/>
<path d="M214.654 377.468H208.659V396.625H214.654V377.468Z" fill="#C5E6EE"/>
<path d="M229.64 377.468H223.646V396.625H229.64V377.468Z" fill="#C5E6EE"/>
<path d="M214.654 413.866H208.659V433.023H214.654V413.866Z" fill="#C5E6EE"/>
<path d="M229.64 413.866H223.646V433.023H229.64V413.866Z" fill="#C5E6EE"/>
<path d="M214.654 450.264H208.659V469.421H214.654V450.264Z" fill="#C5E6EE"/>
<path d="M229.64 450.264H223.646V469.421H229.64V450.264Z" fill="#C5E6EE"/>
<path d="M254.772 399.91H248.778V419.067H254.772V399.91Z" fill="#C5E6EE"/>
<path d="M269.76 399.91H263.764V419.067H269.76V399.91Z" fill="#C5E6EE"/>
<path d="M254.772 436.306H248.778V455.463H254.772V436.306Z" fill="#C5E6EE"/>
<path d="M269.76 436.306H263.764V455.463H269.76V436.306Z" fill="#C5E6EE"/>
<path d="M305.959 417.97H299.964V437.127H305.959V417.97Z" fill="#C5E6EE"/>
<path d="M320.945 417.97H314.95V437.127H320.945V417.97Z" fill="#C5E6EE"/>
<path d="M305.959 454.368H299.964V473.525H305.959V454.368Z" fill="#C5E6EE"/>
<path d="M320.945 454.368H314.95V473.525H320.945V454.368Z" fill="#C5E6EE"/>
<path d="M358.297 397.173H352.303V416.33H358.297V397.173Z" fill="#C5E6EE"/>
<path d="M343.311 433.571H337.316V452.728H343.311V433.571Z" fill="#C5E6EE"/>
<path d="M358.297 433.571H352.303V452.728H358.297V433.571Z" fill="#C5E6EE"/>
<path d="M432.772 374.184H426.777V393.341H432.772V374.184Z" fill="#C5E6EE"/>
<path d="M447.758 374.184H441.764V393.341H447.758V374.184Z" fill="#C5E6EE"/>
<path d="M432.772 410.582H426.777V429.739H432.772V410.582Z" fill="#C5E6EE"/>
<path d="M447.758 410.582H441.764V429.739H447.758V410.582Z" fill="#C5E6EE"/>
<path d="M152.86 390.056H146.867V409.215H152.86V390.056Z" fill="#C5E6EE"/>
<path d="M167.848 390.056H161.852V409.215H167.848V390.056Z" fill="#C5E6EE"/>
<path d="M152.86 426.454H146.867V445.611H152.86V426.454Z" fill="#C5E6EE"/>
<path d="M167.848 426.454H161.852V445.611H167.848V426.454Z" fill="#C5E6EE"/>
<path d="M87.8407 373.636H81.8449V392.793H87.8407V373.636Z" fill="#C5E6EE"/>
<path d="M102.826 373.636H96.8326V392.793H102.826V373.636Z" fill="#C5E6EE"/>
<path d="M87.8407 410.034H81.8449V429.191H87.8407V410.034Z" fill="#C5E6EE"/>
<path d="M102.826 410.034H96.8326V429.191H102.826V410.034Z" fill="#C5E6EE"/>
<path d="M1329.97 491.415H1366.87V307.773L1329.97 288.114V491.415Z" fill="#D2ECFC"/>
<path d="M1337.35 378.818H1300.99V491.416H1337.35V378.818Z" fill="#D2ECFC"/>
<path d="M1300.99 323.145H1266.73V491.415H1300.99V323.145Z" fill="#D2ECFC"/>
<path d="M1290.91 277.937H1276.81V446.209H1290.91V277.937Z" fill="#D2ECFC"/>
<path d="M1285.22 220H1282.5V388.272H1285.22V220Z" fill="#D2ECFC"/>
<path d="M1270.42 368.809H1252.5V491.417H1270.42V368.809Z" fill="#D2ECFC"/>
<path d="M1256.72 350.042H1236.69V491.415H1256.72V350.042Z" fill="#D2ECFC"/>
<path d="M1198.75 491.415H1239.85V251.435L1198.75 277.48V491.415Z" fill="#D2ECFC"/>
<path d="M1202.43 327.523H1158.69V491.415H1202.43V327.523Z" fill="#D2ECFC"/>
<path d="M1162.91 398.835H1142.88V491.415H1162.91V398.835Z" fill="#D2ECFC"/>
<path d="M1146.04 351.92H1120.74V491.417H1146.04V351.92Z" fill="#D2ECFC"/>
<path d="M1067.51 491.415H1121.27V328.776L1094.44 308.356L1067.51 328.776V491.415Z" fill="#D2ECFC"/>
<path d="M1072.79 376.941H1016.92V491.417H1072.79V376.941Z" fill="#D2ECFC"/>
<path d="M1022.19 301.875H986.352V491.415H1022.19V301.875Z" fill="#D2ECFC"/>
<path d="M990.041 360.052H960V491.417H990.041V360.052Z" fill="#D2ECFC"/>
<path d="M1408.58 362.377H1360.84V491.415H1408.58V362.377Z" fill="#D2ECFC"/>
<path d="M1440 380.309H1404.95V491.415H1440V380.309Z" fill="#D2ECFC"/>
<path d="M1070.03 499.998H1033.14V366.259L1070.03 346.599V499.998Z" fill="url(#paint16_linear)"/>
<path d="M1099.01 437.304H1062.65V499.998H1099.01V437.304Z" fill="url(#paint17_linear)"/>
<path d="M1133.27 381.63H1099.01V500H1133.27V381.63Z" fill="url(#paint18_linear)"/>
<path d="M1123.2 336.425H1109.09V468.25H1123.2V336.425Z" fill="url(#paint19_linear)"/>
<path d="M1117.5 278.484H1114.78V446.754H1117.5V278.484Z" fill="url(#paint20_linear)"/>
<path d="M1147.5 427.294H1129.58V499.998H1147.5V427.294Z" fill="url(#paint21_linear)"/>
<path d="M1163.31 408.528H1143.28V499.998H1163.31V408.528Z" fill="url(#paint22_linear)"/>
<path d="M1201.26 499.999H1160.15V309.921L1201.26 335.965V499.999Z" fill="url(#paint23_linear)"/>
<path d="M1241.31 386.007H1197.57V499.998H1241.31V386.007Z" fill="url(#paint24_linear)"/>
<path d="M1257.12 457.321H1237.09V499.998H1257.12V457.321Z" fill="url(#paint25_linear)"/>
<path d="M1279.26 410.405H1253.96V499.998H1279.26V410.405Z" fill="url(#paint26_linear)"/>
<path d="M1332.49 499.998H1278.73V387.26L1305.56 366.84L1332.49 387.26V499.998Z" fill="url(#paint27_linear)"/>
<path d="M1383.08 435.427H1327.22V499.998H1383.08V435.427Z" fill="url(#paint28_linear)"/>
<path d="M1413.65 360.362H1377.81V499.998H1413.65V360.362Z" fill="url(#paint29_linear)"/>
<path d="M1440 418.537H1409.96V499.998H1440V418.537Z" fill="url(#paint30_linear)"/>
<path d="M1039.16 420.864H991.425V499.998H1039.16V420.864Z" fill="url(#paint31_linear)"/>
<path d="M995.05 438.797H960V500H995.05V438.797Z" fill="url(#paint32_linear)"/>
<path d="M1174.65 341.07H1168.66V360.227H1174.65V341.07Z" fill="#C5E6EE"/>
<path d="M1189.64 341.07H1183.65V360.227H1189.64V341.07Z" fill="#C5E6EE"/>
<path d="M1174.65 377.468H1168.66V396.625H1174.65V377.468Z" fill="#C5E6EE"/>
<path d="M1189.64 377.468H1183.65V396.625H1189.64V377.468Z" fill="#C5E6EE"/>
<path d="M1174.65 413.866H1168.66V433.023H1174.65V413.866Z" fill="#C5E6EE"/>
<path d="M1189.64 413.866H1183.65V433.023H1189.64V413.866Z" fill="#C5E6EE"/>
<path d="M1174.65 450.264H1168.66V469.421H1174.65V450.264Z" fill="#C5E6EE"/>
<path d="M1189.64 450.264H1183.65V469.421H1189.64V450.264Z" fill="#C5E6EE"/>
<path d="M1214.77 399.91H1208.78V419.067H1214.77V399.91Z" fill="#C5E6EE"/>
<path d="M1229.76 399.91H1223.76V419.067H1229.76V399.91Z" fill="#C5E6EE"/>
<path d="M1214.77 436.306H1208.78V455.463H1214.77V436.306Z" fill="#C5E6EE"/>
<path d="M1229.76 436.306H1223.76V455.463H1229.76V436.306Z" fill="#C5E6EE"/>
<path d="M1265.96 417.97H1259.96V437.127H1265.96V417.97Z" fill="#C5E6EE"/>
<path d="M1280.95 417.97H1274.95V437.127H1280.95V417.97Z" fill="#C5E6EE"/>
<path d="M1265.96 454.368H1259.96V473.525H1265.96V454.368Z" fill="#C5E6EE"/>
<path d="M1280.95 454.368H1274.95V473.525H1280.95V454.368Z" fill="#C5E6EE"/>
<path d="M1303.31 397.173H1297.32V416.33H1303.31V397.173Z" fill="#C5E6EE"/>
<path d="M1318.3 397.173H1312.3V416.33H1318.3V397.173Z" fill="#C5E6EE"/>
<path d="M1303.31 433.571H1297.32V452.728H1303.31V433.571Z" fill="#C5E6EE"/>
<path d="M1318.3 433.571H1312.3V452.728H1318.3V433.571Z" fill="#C5E6EE"/>
<path d="M1392.77 374.184H1386.78V393.341H1392.77V374.184Z" fill="#C5E6EE"/>
<path d="M1407.76 374.184H1401.76V393.341H1407.76V374.184Z" fill="#C5E6EE"/>
<path d="M1392.77 410.582H1386.78V429.739H1392.77V410.582Z" fill="#C5E6EE"/>
<path d="M1407.76 410.582H1401.76V429.739H1407.76V410.582Z" fill="#C5E6EE"/>
<path d="M1112.86 390.056H1106.87V409.215H1112.86V390.056Z" fill="#C5E6EE"/>
<path d="M1127.85 390.056H1121.85V409.215H1127.85V390.056Z" fill="#C5E6EE"/>
<path d="M1112.86 426.454H1106.87V445.611H1112.86V426.454Z" fill="#C5E6EE"/>
<path d="M1127.85 426.454H1121.85V445.611H1127.85V426.454Z" fill="#C5E6EE"/>
<path d="M1047.84 373.636H1041.84V392.793H1047.84V373.636Z" fill="#C5E6EE"/>
<path d="M1062.83 373.636H1056.83V392.793H1062.83V373.636Z" fill="#C5E6EE"/>
<path d="M1047.84 410.034H1041.84V429.191H1047.84V410.034Z" fill="#C5E6EE"/>
<path d="M1062.83 410.034H1056.83V429.191H1062.83V410.034Z" fill="#C5E6EE"/>
<path d="M590.026 491.415H553.134V307.773L590.026 288.114V491.415Z" fill="#D2ECFC"/>
<path d="M582.647 378.818H619.012V491.416H582.647V378.818Z" fill="#D2ECFC"/>
<path d="M619.012 323.145H653.27V491.415H619.012V323.145Z" fill="#D2ECFC"/>
<path d="M629.085 277.937H643.195V446.209H629.085V277.937Z" fill="#D2ECFC"/>
<path d="M634.784 220H637.499V388.272H634.784V220Z" fill="#D2ECFC"/>
<path d="M649.58 368.809H667.5V491.417H649.58V368.809Z" fill="#D2ECFC"/>
<path d="M663.283 350.042H683.309V491.415H663.283V350.042Z" fill="#D2ECFC"/>
<path d="M721.255 491.415H680.146V251.435L721.255 277.48V491.415Z" fill="#D2ECFC"/>
<path d="M717.567 327.523H761.311V491.415H717.567V327.523Z" fill="#D2ECFC"/>
<path d="M757.094 398.835H777.121V491.415H757.094V398.835Z" fill="#D2ECFC"/>
<path d="M773.958 351.92H799.256V491.417H773.958V351.92Z" fill="#D2ECFC"/>
<path d="M852.485 491.415H798.729V328.776L825.556 308.356L852.485 328.776V491.415Z" fill="#D2ECFC"/>
<path d="M847.214 376.941H903.081V491.417H847.214V376.941Z" fill="#D2ECFC"/>
<path d="M897.81 301.875H933.648V491.415H897.81V301.875Z" fill="#D2ECFC"/>
<path d="M929.959 360.052H960V491.417H929.959V360.052Z" fill="#D2ECFC"/>
<path d="M511.424 362.377H559.163V491.415H511.424V362.377Z" fill="#D2ECFC"/>
<path d="M480 380.309H515.049V491.415H480V380.309Z" fill="#D2ECFC"/>
<path d="M849.973 499.998H886.865V366.259L849.973 346.599V499.998Z" fill="url(#paint33_linear)"/>
<path d="M820.985 437.304H857.351V499.998H820.985V437.304Z" fill="url(#paint34_linear)"/>
<path d="M786.73 381.63H820.986V500H786.73V381.63Z" fill="url(#paint35_linear)"/>
<path d="M796.804 336.425H810.914V468.25H796.804V336.425Z" fill="url(#paint36_linear)"/>
<path d="M802.5 278.484H805.216V446.754H802.5V278.484Z" fill="url(#paint37_linear)"/>
<path d="M772.5 427.294H790.419V499.998H772.5V427.294Z" fill="url(#paint38_linear)"/>
<path d="M756.689 408.528H776.716V499.998H756.689V408.528Z" fill="url(#paint39_linear)"/>
<path d="M718.743 499.999H759.851V309.921L718.743 335.965V499.999Z" fill="url(#paint40_linear)"/>
<path d="M678.689 386.007H722.433V499.998H678.689V386.007Z" fill="url(#paint41_linear)"/>
<path d="M662.879 457.321H682.905V499.998H662.879V457.321Z" fill="url(#paint42_linear)"/>
<path d="M640.743 410.405H666.04V499.998H640.743V410.405Z" fill="url(#paint43_linear)"/>
<path d="M587.512 499.998H641.27V387.26L614.443 366.84L587.512 387.26V499.998Z" fill="url(#paint44_linear)"/>
<path d="M536.918 435.427H592.783V499.998H536.918V435.427Z" fill="url(#paint45_linear)"/>
<path d="M506.35 360.362H542.189V499.998H506.35V360.362Z" fill="url(#paint46_linear)"/>
<path d="M480 418.537H510.041V499.998H480V418.537Z" fill="url(#paint47_linear)"/>
<path d="M880.835 420.864H928.575V499.998H880.835V420.864Z" fill="url(#paint48_linear)"/>
<path d="M924.95 438.797H960V500H924.95V438.797Z" fill="url(#paint49_linear)"/>
<path d="M745.346 341.07H751.341V360.227H745.346V341.07Z" fill="#C5E6EE"/>
<path d="M730.36 341.07H736.354V360.227H730.36V341.07Z" fill="#C5E6EE"/>
<path d="M745.346 377.468H751.341V396.625H745.346V377.468Z" fill="#C5E6EE"/>
<path d="M730.36 377.468H736.354V396.625H730.36V377.468Z" fill="#C5E6EE"/>
<path d="M745.346 413.866H751.341V433.023H745.346V413.866Z" fill="#C5E6EE"/>
<path d="M730.36 413.866H736.354V433.023H730.36V413.866Z" fill="#C5E6EE"/>
<path d="M745.346 450.264H751.341V469.421H745.346V450.264Z" fill="#C5E6EE"/>
<path d="M730.36 450.264H736.354V469.421H730.36V450.264Z" fill="#C5E6EE"/>
<path d="M705.228 399.91H711.222V419.067H705.228V399.91Z" fill="#C5E6EE"/>
<path d="M690.24 399.91H696.236V419.067H690.24V399.91Z" fill="#C5E6EE"/>
<path d="M705.228 436.306H711.222V455.463H705.228V436.306Z" fill="#C5E6EE"/>
<path d="M690.24 436.306H696.236V455.463H690.24V436.306Z" fill="#C5E6EE"/>
<path d="M654.041 417.97H660.036V437.127H654.041V417.97Z" fill="#C5E6EE"/>
<path d="M639.055 417.97H645.05V437.127H639.055V417.97Z" fill="#C5E6EE"/>
<path d="M654.041 454.368H660.036V473.525H654.041V454.368Z" fill="#C5E6EE"/>
<path d="M639.055 454.368H645.05V473.525H639.055V454.368Z" fill="#C5E6EE"/>
<path d="M616.689 397.173H622.684V416.33H616.689V397.173Z" fill="#C5E6EE"/>
<path d="M601.703 397.173H607.697V416.33H601.703V397.173Z" fill="#C5E6EE"/>
<path d="M616.689 433.571H622.684V452.728H616.689V433.571Z" fill="#C5E6EE"/>
<path d="M601.703 433.571H607.697V452.728H601.703V433.571Z" fill="#C5E6EE"/>
<path d="M527.228 374.184H533.223V393.341H527.228V374.184Z" fill="#C5E6EE"/>
<path d="M512.242 374.184H518.236V393.341H512.242V374.184Z" fill="#C5E6EE"/>
<path d="M527.228 410.582H533.223V429.739H527.228V410.582Z" fill="#C5E6EE"/>
<path d="M512.242 410.582H518.236V429.739H512.242V410.582Z" fill="#C5E6EE"/>
<path d="M807.14 390.056H813.133V409.215H807.14V390.056Z" fill="#C5E6EE"/>
<path d="M792.152 390.056H798.148V409.215H792.152V390.056Z" fill="#C5E6EE"/>
<path d="M807.14 426.454H813.133V445.611H807.14V426.454Z" fill="#C5E6EE"/>
<path d="M792.152 426.454H798.148V445.611H792.152V426.454Z" fill="#C5E6EE"/>
<path d="M872.159 373.636H878.155V392.793H872.159V373.636Z" fill="#C5E6EE"/>
<path d="M857.174 373.636H863.167V392.793H857.174V373.636Z" fill="#C5E6EE"/>
<path d="M872.159 410.034H878.155V429.191H872.159V410.034Z" fill="#C5E6EE"/>
<path d="M857.174 410.034H863.167V429.191H857.174V410.034Z" fill="#C5E6EE"/>
<path d="M382.476 392.402L377.812 390.036V376.985L382.476 374.612L367.165 363.388V356.962H369.557C370.201 356.962 370.724 356.438 370.724 355.792C370.724 355.147 370.201 354.623 369.557 354.623H367.165V352.169C367.165 351.523 366.643 351 365.999 351C365.355 351 364.833 351.523 364.833 352.169V354.623H362.44C361.797 354.623 361.274 355.147 361.274 355.792C361.274 356.438 361.797 356.962 362.44 356.962H364.833V363.388L349.522 374.612L354.186 376.985V390.036L349.522 392.402L333 400.782L335.487 404.832V424H349.523H354.187H357.043H360.138H371.862H374.957H377.813H382.477H396.512V404.831L399 400.781L382.476 392.402Z" fill="#A3CCE3"/>
<path d="M709.848 482.357C667.08 482.357 87.3653 482.357 31.9272 482.357C82.6683 455.901 197.181 419 370.889 419C544.598 419 665.45 452.059 709.848 482.357Z" fill="#528620"/>
<path d="M988.283 399.705V401.132H983.768V403.988L982.514 401.804L981.259 403.106V393.953C981.259 393.953 981.134 387.738 975.992 386.394V383.454H976.661L976.326 380.851H975.992V378.92H975.448L974.319 376.107L973.19 378.836L972.647 378.92V380.642L972.187 380.684L971.811 383.33H972.625L972.657 386.288C972.657 386.288 969.302 388.052 968.078 392.304L966.824 392.334V378.708C966.824 378.708 965.873 366.723 956.237 364.004V359.644H957.23C957.23 359.644 956.666 350.637 953.499 349C953.499 349 950.27 350.638 949.769 359.644H950.762V364.004C941.126 366.723 940.175 378.708 940.175 378.708V392.334L938.921 392.304C937.697 388.052 934.342 386.288 934.342 386.288L934.373 383.33H935.188L934.812 380.684L934.352 380.642V378.92L933.809 378.836L932.68 376.107L931.55 378.92H931.007V380.851H930.673L930.338 383.454H931.007V386.394C925.865 387.738 925.739 393.953 925.739 393.953V403.106L924.485 401.804L923.231 403.988V401.132H918.716V399.705H916V414.317V438H953.499H991V414.317V399.705H988.283Z" fill="#A3CCE3"/>
<path fill-rule="evenodd" clip-rule="evenodd" d="M1038.56 420.323C1038.53 420.209 1037.85 415.995 1037.7 415.27C1036.73 414.849 1032.05 414.481 1031.26 414.386C1030.27 409.695 1027.9 397.883 1027.4 394.983C1027.26 394.915 1026.69 394.724 1026.62 394.704C1026.62 393.881 1026.47 393.077 1026.4 392.655C1027.03 392.929 1027.93 393.377 1028.53 393.971L1028.61 394.837L1028.91 394.963L1028.88 393.735C1028.18 392.769 1026.18 392.093 1024.95 391.621C1024.94 391.483 1024.97 391.246 1024.96 390.995C1024.74 383.57 1024.94 375.551 1024.46 368.185C1024.14 363.273 1023.86 359.801 1023.14 355.201C1023.03 354.551 1022.65 354.033 1023.35 353.619C1023.87 353.573 1024.37 354.06 1024.4 354.617C1024.42 354.945 1024.34 355.147 1024.43 355.64C1024.89 358.006 1024.77 360.565 1024.92 362.968C1025.35 362.875 1025.31 363.441 1025.55 364.004C1025.72 365.305 1025.93 366.278 1026.05 367.601C1026.98 367.303 1027.29 366.685 1028.39 366.688C1028.39 365.186 1028.26 363.492 1028.26 361.991C1028.38 361.535 1029.04 362.051 1029.27 361.7C1029.22 361.347 1029.12 361.376 1029.07 361.023C1029.06 359.672 1029.07 358.368 1028.96 357.059C1028.93 356.738 1028.91 356.511 1028.9 356.176C1028.83 354.739 1028.83 353.247 1028.77 351.878C1028.71 350.565 1028.31 349.027 1028.56 348.112C1029.09 347.761 1029.61 348.474 1029.76 348.728C1029.93 348.236 1029.98 348.041 1030.15 347.81C1030.58 347.836 1030.82 347.762 1031.15 347.689C1030.83 347.081 1030.03 346.964 1029.76 346.303C1029.82 344.999 1029.68 343.774 1029.76 342.665C1029.79 342.323 1029.93 342.195 1029.94 341.972C1029.94 341.676 1029.8 341.59 1029.76 341.279C1029.73 340.996 1029.96 340.98 1029.94 340.76C1029.94 340.771 1029.77 340.704 1029.76 340.587C1029.75 340.336 1029.93 339.964 1029.94 339.547C1029.3 339.267 1029.64 340.06 1029.42 340.24C1029.35 340.299 1029.13 340.342 1029.07 340.413C1029.02 340.473 1029.13 340.712 1029.07 340.76C1028.88 340.918 1028.5 341.021 1028.21 341.279C1027.41 341.328 1027.28 340.712 1027 340.24C1027.02 339.854 1027.43 340.465 1027.86 340.24C1028.03 340.005 1028.32 339.893 1028.55 339.72C1028.31 339.094 1028.18 338.363 1027.86 337.816C1027.91 337.406 1028.51 337.831 1028.55 337.989C1028.95 337.663 1029.29 337.273 1029.94 337.642C1029.82 337.074 1029.27 336.748 1028.9 336.256C1028.79 336.112 1028.65 336.034 1028.55 335.909C1028.5 335.849 1028.61 335.611 1028.55 335.563C1028.18 335.257 1027.65 334.83 1027.34 334.177C1027.41 333.862 1027.77 334.268 1027.86 334.35C1028.27 334.704 1028.71 335.723 1029.59 335.736C1030.21 335.261 1030.11 334.931 1029.88 334.4C1030.03 333.832 1029.96 333.318 1030.28 332.791C1030.39 332.612 1030.51 332.585 1030.63 332.444C1030.68 332.381 1030.67 332.247 1030.73 332.188C1030.78 332.137 1030.93 332.155 1030.97 332.098C1031.16 331.829 1031.08 331.464 1031.32 331.231C1031.17 330.633 1030.96 330.094 1030.46 329.846C1030.89 329.455 1030.22 328.351 1031.15 328.287C1031.21 328.017 1031.07 327.684 1031.15 327.421C1031.16 327.366 1031.49 327.094 1031.49 327.074C1031.52 326.771 1031.13 326.556 1031.32 326.034C1030.74 326.034 1030.65 326.053 1030.03 326.01C1030.03 325.95 1033.43 322.886 1033.53 319.625C1033.88 318.476 1033.56 312.546 1033.36 311C1030.85 311.041 1026.49 311.226 1024.76 315.928C1024.5 316.643 1024.84 323.107 1024.97 324.082C1025.23 325.985 1025.88 327.359 1028.08 327.295C1028.08 328.869 1027.74 329.951 1026.83 330.713C1026.69 330.821 1026.44 330.801 1026.31 330.886C1026.19 330.96 1026.07 331.163 1025.96 331.232C1025.78 331.348 1025.6 331.287 1025.44 331.406C1025.32 331.502 1025.24 331.645 1025.1 331.753C1024.58 332.143 1024.11 332.562 1023.71 332.965C1023.11 332.826 1023.05 333.223 1022.5 333.138C1022.18 333.738 1021.59 334.07 1020.95 334.351C1020.78 334.748 1020.54 335.09 1020.26 335.39C1020.2 335.446 1019.96 335.332 1019.91 335.39C1019.88 335.425 1019.94 335.529 1019.91 335.564C1019.78 335.727 1019.74 335.959 1019.39 336.083C1019.23 336.561 1019.07 337.036 1018.53 337.123C1017.87 337.252 1018 336.283 1017.83 335.738C1017.78 335.544 1017.43 334.81 1017.83 334.352C1017.93 333.943 1017.49 333.848 1017.32 333.659C1017.13 333.45 1016.93 333.234 1016.8 332.966C1016.67 332.493 1017.14 332.618 1017.14 332.273C1017.21 331.745 1016.69 331.391 1017.32 331.233C1017.87 331.125 1017.72 331.835 1017.84 332.1C1017.9 332.245 1018.43 332.464 1018.18 333.139C1018.67 333.235 1018.54 332.701 1018.7 332.62C1018.78 332.579 1019.07 332.941 1019.05 332.62C1019.36 332.598 1019.41 332.833 1019.74 332.794C1020.39 332.663 1020.11 333.456 1020.6 333.487C1021.21 333.637 1020.78 333.038 1020.6 332.967C1020.53 332.55 1020.92 332.59 1020.78 332.101C1020.22 331.946 1020.53 332.666 1020.26 332.794C1019.78 332.462 1019.35 332.085 1018.87 331.753C1018.93 331.518 1019.31 331.61 1019.57 331.58C1019.39 331.235 1019.27 330.841 1018.87 330.714C1018.66 330.153 1019.43 330.581 1019.22 330.021C1018.72 330.001 1018.92 329.282 1018.36 329.328C1018.2 328.963 1017.83 328.816 1017.84 328.288C1017.55 328.288 1017.26 328.288 1016.97 328.288C1016.57 328.341 1016.78 327.788 1016.45 327.769C1015.66 327.786 1014.57 327.765 1014.21 328.116C1014.11 328.207 1014.23 328.279 1014.03 328.289C1013.72 328.306 1013.74 329.133 1013.34 329.329C1013.38 329.446 1013.17 329.652 1013.25 329.736C1013.55 330.086 1013.55 330.826 1013.1 331.269C1012.86 331.763 1013.33 331.726 1013.43 332.088C1013.31 332.239 1013.48 332.453 1013.36 332.544C1013.13 332.714 1013.11 333.038 1013.33 333.459C1013.53 333.843 1013.39 334.21 1013.44 334.318C1013.56 334.667 1013.67 334.802 1013.86 334.872C1014.07 334.949 1014.13 334.864 1014.36 335.036C1014.47 335.687 1014.39 338.526 1013.69 339.376C1013.12 339.576 1012.71 339.132 1012.3 339.029C1011.97 338.945 1011.49 338.916 1011.09 338.682C1010.89 338.559 1010.93 338.181 1010.58 338.163C1010.39 338.152 1010.21 337.759 1009.88 337.643C1009.88 337.239 1009.88 336.835 1009.88 336.431C1009.28 335.964 1009.13 335.212 1008.67 334.526C1008.56 334.353 1008.28 334.195 1008.16 334.006C1008.11 333.943 1008.21 333.706 1008.16 333.66C1008.14 333.643 1007.99 333.681 1007.98 333.66C1007.95 333.597 1008.03 333.355 1007.98 333.313C1007.84 333.196 1007.48 333.111 1007.46 332.794C1007.46 332.672 1007.12 332.314 1006.94 332.101C1006.79 331.911 1006.69 331.603 1006.43 331.581C1006.48 330.713 1005.77 330.624 1005.91 329.676C1005.99 329.131 1005.44 329.219 1005.39 328.809C1005.53 328.302 1005.95 328.914 1006.25 328.809C1006.58 328.79 1006.59 328.469 1006.77 328.29C1006.8 327.745 1006.33 327.695 1005.91 327.597C1006.13 326.852 1005.54 326.929 1005.2 326.744L1005.39 311.487L1004.87 311.058L1004.1 311.789L1003.75 326.805C1003.26 327.292 1002.9 327.807 1002.72 328.715C1002.61 329.219 1002.53 330.218 1002.6 330.84C1002.63 331.115 1002.76 331.083 1002.8 331.305C1002.84 331.51 1002.84 331.74 1002.91 331.931C1002.94 332.005 1003.2 332.191 1003.21 332.372C1003.22 332.519 1003.93 333.276 1004.15 333.442C1004.43 333.651 1004.74 333.787 1004.99 333.813C1005.45 334.687 1005.17 336.026 1005.39 336.952C1005.4 336.99 1005.55 336.972 1005.56 337.126C1005.58 337.398 1005.67 337.433 1005.73 337.645C1005.84 337.968 1005.82 338.348 1005.91 338.512C1005.99 338.662 1006.33 338.721 1006.43 338.858C1006.54 339.026 1006.47 339.234 1006.6 339.378C1006.84 339.649 1007.22 339.862 1007.46 340.071C1007.78 340.789 1007.57 341.904 1007.29 342.842C1007.23 343.06 1007.14 343.18 1007.12 343.361C1007.08 343.723 1007.32 343.833 1007.29 344.054C1007.23 344.601 1007.01 344.937 1006.95 345.44C1006.88 346.025 1007.25 346.18 1007.46 346.48C1007.26 347.079 1007.09 347.72 1007.12 348.559C1007.18 349.127 1007.62 349.322 1007.81 349.77C1007.4 350.916 1007.25 352.327 1007.29 353.928C1008.47 354.293 1009.46 354.648 1009.71 355.66C1009.82 356.085 1009.57 356.38 1009.54 356.7C1009.5 357.059 1009.59 357.514 1009.54 357.913C1009.5 358.216 1009.39 358.284 1009.37 358.606C1009.29 359.749 1009.44 360.877 1009.37 361.724C1009.11 364.735 1009 369.848 1009.19 374.023C1009.21 374.311 1009.34 374.598 1009.37 374.889C1009.5 376.265 1009.27 377.706 1009.37 378.874C1009.6 381.675 1009.79 385.434 1010.06 388.402C1010.14 389.321 1010.09 391.219 1010.25 391.976C1009.01 392.31 1007.7 392.991 1006.72 394.056C1006.75 394.209 1006.97 395.298 1007.03 395.699C1006.2 395.815 1003.79 396.538 1002.58 398.017L996.672 416.489C995.854 416.64 993.283 417.053 991.596 417.651C990.992 417.866 990.557 418.412 990.53 418.447C990.423 418.586 990.149 419.851 990 420.276L1038.56 420.323ZM1019.12 334.943C1019.08 334.749 1018.92 334.674 1018.77 334.597C1019.09 334.044 1018.77 333.799 1018.77 333.384C1018.77 333.086 1018.89 332.94 1019.12 332.865C1019.1 333.04 1019.28 333.069 1019.29 333.212C1019.3 333.408 1019.41 333.293 1019.46 333.385C1019.6 333.628 1019.56 333.946 1019.81 334.078C1020.08 334.062 1019.94 333.636 1020.33 333.731C1020.69 334.177 1020.44 334.33 1020.15 334.597C1019.93 334.808 1019.43 334.968 1019.12 334.943Z" fill="#4D4D4D"/>
<path fill-rule="evenodd" clip-rule="evenodd" d="M1004.91 330.975L1004.86 332.7L1005.37 332.723L1005.34 331.68L1005.28 331.273L1004.91 330.975ZM1029.18 361.782C1029.78 361.653 1030.3 361.461 1030.42 361.098C1030.52 360.776 1029.92 351.677 1029.71 348.647C1029.51 348.352 1029.03 347.791 1028.55 348.11C1028.31 349.026 1028.71 350.563 1028.77 351.877C1028.83 353.246 1028.83 354.738 1028.9 356.175C1028.91 356.509 1028.93 356.737 1028.96 357.057C1029.07 358.366 1029.06 359.67 1029.07 361.021C1029.12 361.374 1029.22 361.345 1029.27 361.698C1029.24 361.735 1029.22 361.761 1029.18 361.782ZM1029.86 335.588C1029.86 336.048 1029.98 336.635 1030.19 337.012C1030.4 337.39 1030.7 338.226 1030.82 339.86C1030.95 341.494 1031.24 347.398 1031.2 347.65C1031.2 347.671 1031.18 347.683 1031.14 347.687C1030.83 347.079 1030.02 346.962 1029.76 346.301C1029.82 344.997 1029.68 343.773 1029.76 342.663C1029.79 342.321 1029.93 342.193 1029.93 341.971C1029.94 341.674 1029.8 341.588 1029.76 341.278C1029.73 340.995 1029.95 340.979 1029.93 340.759C1029.94 340.769 1029.77 340.702 1029.76 340.586C1029.75 340.334 1029.93 339.963 1029.93 339.545C1029.3 339.266 1029.64 340.059 1029.42 340.238C1029.34 340.297 1029.13 340.341 1029.07 340.412C1029.02 340.472 1029.13 340.71 1029.07 340.759C1028.88 340.917 1028.5 341.019 1028.2 341.278C1027.41 341.327 1027.27 340.71 1027 340.238C1027.02 339.852 1027.43 340.463 1027.86 340.238C1028.03 340.004 1028.32 339.892 1028.55 339.719C1028.31 339.092 1028.18 338.361 1027.86 337.814C1027.91 337.405 1028.5 337.83 1028.55 337.987C1028.95 337.661 1029.29 337.271 1029.93 337.64C1029.82 337.073 1029.26 336.746 1028.9 336.254C1028.79 336.11 1028.65 336.032 1028.55 335.908C1028.5 335.847 1028.61 335.609 1028.55 335.561C1028.18 335.255 1027.65 334.829 1027.34 334.175C1027.41 333.861 1027.77 334.267 1027.86 334.349C1028.27 334.702 1028.7 335.722 1029.59 335.734C1029.68 335.665 1029.74 335.599 1029.79 335.533L1029.86 335.588ZM1022.66 343.008L1023.01 343.104C1023.01 343.104 1023.37 346.452 1023.43 346.774C1023.5 347.096 1023.66 347.096 1023.66 347.482C1023.66 347.868 1024.07 353.147 1024.07 353.147L1023.37 352.923L1022.66 343.008ZM1021.69 342.622C1021.69 342.622 1022.01 346.452 1022.18 346.645C1022.34 346.838 1022.14 347.096 1021.85 347.16C1021.56 347.224 1021.79 350.443 1022.18 350.668C1022.56 350.893 1022.53 351.345 1022.47 351.699C1022.4 352.052 1021.82 352.149 1021.82 352.343C1021.82 352.536 1022.24 352.825 1022.4 352.825C1022.56 352.825 1022.98 352.825 1022.98 352.149C1022.98 351.472 1022.11 342.75 1022.11 342.75L1021.69 342.622ZM1016.59 362.114L1017.44 391.08H1018.3L1016.59 362.114ZM1021.98 338.623V339.199C1021.9 339.526 1022.28 340.226 1021.55 340.013C1021.52 339.584 1021.6 338.649 1021.98 338.623ZM1016.51 327.779C1016.87 327.773 1017.71 327.819 1018.15 328.19C1018.66 328.613 1019.73 329.189 1020.35 330.661C1020.98 332.134 1020.57 332.083 1021 332.388C1021.42 332.693 1021.07 333.082 1021.05 333.301C1021.03 333.521 1020.77 333.745 1020.62 334.08C1020.36 334.689 1019.98 334.756 1019.59 334.926C1019.33 335.042 1019.17 335.027 1019.1 335.265C1019.05 335.451 1019.11 336.055 1019.22 336.527C1019.09 336.823 1018.89 337.061 1018.52 337.119C1017.87 337.248 1017.99 336.279 1017.83 335.734C1017.77 335.54 1017.42 334.806 1017.83 334.348C1017.92 333.939 1017.48 333.844 1017.31 333.655C1017.12 333.446 1016.93 333.23 1016.79 332.962C1016.67 332.489 1017.14 332.614 1017.14 332.269C1017.21 331.741 1016.69 331.387 1017.31 331.229C1017.87 331.121 1017.72 331.831 1017.83 332.096C1017.89 332.241 1018.43 332.46 1018.18 333.135C1018.67 333.231 1018.53 332.697 1018.7 332.616C1018.78 332.575 1019.06 332.937 1019.04 332.616C1019.35 332.594 1019.41 332.829 1019.73 332.79C1020.38 332.659 1020.11 333.452 1020.6 333.483C1021.21 333.634 1020.78 333.034 1020.6 332.963C1020.53 332.546 1020.91 332.586 1020.77 332.097C1020.21 331.942 1020.53 332.662 1020.25 332.79C1019.78 332.458 1019.35 332.081 1018.87 331.75C1018.92 331.514 1019.3 331.606 1019.56 331.576C1019.39 331.231 1019.26 330.837 1018.87 330.71C1018.66 330.149 1019.43 330.577 1019.22 330.017C1018.72 329.997 1018.92 329.278 1018.35 329.324C1018.2 328.959 1017.82 328.812 1017.83 328.284C1017.54 328.284 1017.26 328.284 1016.97 328.284C1016.6 328.334 1016.74 327.866 1016.51 327.779ZM1019.12 334.943C1019.43 334.968 1019.93 334.807 1020.15 334.597C1020.44 334.329 1020.69 334.176 1020.33 333.73C1019.94 333.635 1020.08 334.061 1019.81 334.077C1019.56 333.945 1019.6 333.627 1019.46 333.384C1019.41 333.293 1019.3 333.407 1019.29 333.211C1019.28 333.069 1019.1 333.039 1019.12 332.864C1018.9 332.94 1018.77 333.085 1018.77 333.383C1018.77 333.798 1019.09 334.043 1018.77 334.596C1018.92 334.674 1019.08 334.749 1019.12 334.943ZM1005.89 327.018C1006.05 327.031 1006.5 327.044 1006.58 327.224C1006.65 327.405 1006.72 327.623 1006.65 327.687C1006.64 327.707 1006.62 327.774 1006.62 327.861C1006.45 327.698 1006.17 327.655 1005.9 327.592C1005.98 327.321 1005.95 327.159 1005.87 327.053L1005.89 327.018ZM1006.67 328.418L1006.67 328.422C1006.71 328.512 1006.4 328.949 1006.41 329.13C1006.42 329.311 1006.49 329.774 1006.62 329.954C1006.74 330.135 1006.87 331.035 1006.96 331.306C1007.19 331.993 1010.33 335.841 1011.1 337.55C1011.89 339.322 1010.99 338.245 1011.51 338.516C1012 338.772 1013.48 339.123 1013.85 339.113C1013.8 339.206 1013.75 339.294 1013.68 339.372C1013.11 339.572 1012.71 339.128 1012.3 339.025C1011.96 338.941 1011.48 338.912 1011.09 338.678C1010.88 338.555 1010.93 338.177 1010.57 338.159C1010.38 338.148 1010.2 337.755 1009.88 337.639C1009.88 337.235 1009.88 336.831 1009.88 336.427C1009.27 335.96 1009.13 335.208 1008.67 334.522C1008.55 334.349 1008.27 334.191 1008.15 334.002C1008.11 333.939 1008.2 333.702 1008.15 333.656C1008.13 333.639 1007.99 333.677 1007.98 333.656C1007.95 333.593 1008.03 333.351 1007.98 333.309C1007.83 333.193 1007.47 333.108 1007.46 332.79C1007.45 332.668 1007.12 332.31 1006.94 332.097C1006.78 331.907 1006.68 331.599 1006.42 331.577C1006.48 330.709 1005.76 330.62 1005.9 329.672C1005.98 329.127 1005.44 329.215 1005.38 328.806C1005.53 328.298 1005.94 328.91 1006.25 328.806C1006.5 328.79 1006.56 328.589 1006.67 328.418ZM1005.8 311.831L1005.76 326.958L1005.18 326.743L1005.39 311.495L1005.8 311.831ZM1028.95 361.829L1028.94 366.441L1028.39 366.699L1028.38 366.686H1028.39C1028.39 365.184 1028.26 363.49 1028.26 361.989C1028.34 361.679 1028.68 361.821 1028.95 361.829ZM1026.08 367.59L1026.77 392.306C1025.25 391.708 1025.71 391.949 1024.97 391.652C1024.76 384.228 1024.94 375.551 1024.46 368.185C1024.14 363.273 1023.85 359.801 1023.13 355.201C1023.03 354.551 1022.65 354.033 1023.35 353.619C1023.87 353.573 1024.37 354.06 1024.4 354.617C1024.42 354.945 1024.33 355.147 1024.43 355.64C1024.89 358.006 1024.77 360.565 1024.91 362.968C1025.35 362.875 1025.31 363.441 1025.54 364.004C1025.72 365.305 1025.93 366.278 1026.05 367.601L1026.08 367.59ZM1023.02 391.281L1022.5 356.579C1022.5 356.525 1022.31 354.509 1022.27 354.505C1021.8 354.289 1021.25 354.325 1020.89 354.513L1022.33 391.218L1023.02 391.281ZM1034.01 311.212C1034.01 311.212 1034.42 318.332 1034.38 318.667C1034.34 318.998 1034.14 321.807 1032.53 323.172C1032.54 323.243 1032.54 323.32 1032.54 323.4C1032.58 326.248 1031.83 330.059 1031.37 331.191L1031.31 331.185C1031.15 330.604 1030.94 330.086 1030.45 329.844C1030.89 329.453 1030.22 328.349 1031.14 328.284C1031.21 328.015 1031.06 327.681 1031.14 327.418C1031.16 327.363 1031.49 327.092 1031.49 327.072C1031.52 326.768 1031.13 326.554 1031.32 326.032C1030.74 326.032 1030.64 326.051 1030.02 326.008C1030.03 325.968 1031.46 324.667 1032.49 322.869C1033.05 321.892 1033.49 320.77 1033.53 319.622C1033.88 318.476 1033.56 312.571 1033.36 311.008L1034.01 311.212ZM1037.46 420.321L1046.36 420.373C1046.27 420.057 1045.95 418.248 1045.83 417.823C1044.29 416.741 1041.17 415.944 1039.12 415.453L1033.24 397.456C1032.64 396.848 1030.21 395.317 1028.9 394.926L1028.9 394.963L1028.61 394.837L1028.53 393.971C1027.93 393.377 1027.03 392.928 1026.4 392.655C1026.47 393.077 1026.62 393.881 1026.62 394.704C1026.69 394.724 1027.26 394.915 1027.4 394.983C1027.89 397.883 1030.27 409.695 1031.26 414.386C1032.05 414.481 1036.65 414.889 1037.62 415.309C1037.77 416.035 1038.53 420.21 1038.55 420.323L1037.46 420.321Z" fill="#CCCCCC"/>
<path fill-rule="evenodd" clip-rule="evenodd" d="M1028.82 314.419C1028.63 314.781 1028.52 315.397 1028.53 315.752C1028.54 316.136 1028.57 316.514 1028.6 316.887C1028.63 317.261 1028.66 317.636 1028.67 318.021C1028.69 318.731 1028.52 319.518 1028.3 320.31C1028.22 320.538 1028.14 320.764 1028.06 320.991C1027.98 321.021 1027.9 321.049 1027.82 321.079C1027.6 321.16 1027.45 321.003 1027.49 320.728C1027.53 320.486 1027.69 320.234 1027.88 320.121C1027.91 320.107 1027.94 320.093 1027.97 320.078C1027.89 319.491 1027.81 318.902 1027.74 318.312C1027.66 317.507 1027.26 316.991 1026.69 316.842C1026.59 316.818 1026.57 316.792 1026.46 316.788C1026.5 319.018 1026.55 321.248 1026.59 323.478C1027 323.165 1027.45 322.797 1027.89 322.524C1028.08 323.029 1028.34 323.44 1028.71 323.724C1028.8 323.78 1028.88 323.834 1028.96 323.879C1029.09 323.722 1029.16 323.598 1029.26 323.46C1029.68 322.838 1029.91 322.007 1030.01 321.325C1030.46 321.057 1030.85 320.844 1031.27 320.649C1031.24 318.41 1031.22 316.171 1031.19 313.932C1031.08 314.065 1031.07 314.156 1030.97 314.297C1030.42 315.116 1030.04 316.087 1029.99 316.971C1029.93 317.64 1029.88 318.309 1029.82 318.975C1029.85 318.956 1029.88 318.934 1029.91 318.913C1030.1 318.801 1030.27 318.853 1030.31 319.049C1030.36 319.272 1030.22 319.598 1030 319.78C1029.92 319.847 1029.84 319.915 1029.76 319.981C1029.67 319.853 1029.58 319.724 1029.5 319.588C1029.27 319.07 1029.07 318.507 1029.07 317.779C1029.07 317.389 1029.09 316.987 1029.1 316.586C1029.12 316.185 1029.14 315.78 1029.14 315.387C1029.13 315.033 1029.01 314.555 1028.82 314.419ZM1026.78 317.44C1027.05 317.636 1027.35 318.015 1027.41 318.468C1027.48 318.954 1027.54 319.464 1027.6 319.95C1027.4 320.19 1027.16 320.523 1027.1 320.817C1027.02 320.863 1026.95 320.908 1026.87 320.953C1026.86 320.385 1026.85 319.816 1026.84 319.246C1026.83 318.677 1026.79 318.015 1026.78 317.44ZM1030.88 315.108C1030.89 315.684 1030.9 316.258 1030.9 316.829C1030.91 317.401 1030.92 317.972 1030.92 318.542C1030.85 318.588 1030.77 318.633 1030.69 318.679C1030.63 318.454 1030.45 318.333 1030.24 318.338C1030.29 317.787 1030.33 317.233 1030.38 316.681C1030.43 316.165 1030.62 315.618 1030.88 315.108ZM1028.89 319.455C1029.01 319.796 1029.17 320.089 1029.36 320.336C1029.18 320.503 1029.03 320.714 1028.92 320.94C1028.8 320.846 1028.64 320.822 1028.47 320.863C1028.65 320.398 1028.79 319.924 1028.89 319.455ZM1026.88 321.415C1026.96 321.369 1027.03 321.324 1027.11 321.278C1027.19 321.552 1027.41 321.674 1027.69 321.594C1027.75 321.573 1027.82 321.551 1027.88 321.53C1027.84 321.774 1027.83 321.884 1027.83 322.116C1027.53 322.296 1027.15 322.576 1026.91 322.767C1026.9 322.31 1026.89 321.874 1026.88 321.415ZM1030.7 319.142C1030.78 319.095 1030.85 319.051 1030.93 319.005C1030.94 319.465 1030.94 319.925 1030.95 320.385C1030.71 320.493 1030.34 320.663 1030.04 320.844C1030.03 320.611 1030 320.485 1029.95 320.302C1030.01 320.246 1030.08 320.189 1030.14 320.133C1030.42 319.884 1030.63 319.502 1030.7 319.142ZM1028.28 321.4C1028.53 321.293 1028.7 321.284 1028.7 321.573C1028.54 321.673 1028.39 321.762 1028.23 321.868C1028.23 321.672 1028.24 321.608 1028.28 321.4ZM1029.55 320.643C1029.6 320.797 1029.62 320.863 1029.62 321.06C1029.45 321.161 1029.23 321.266 1029.06 321.366C1029.06 321.077 1029.31 320.828 1029.55 320.643ZM1028.25 322.3C1028.4 322.203 1028.55 322.101 1028.7 322.032C1028.71 322.353 1028.74 322.809 1028.75 323.128C1028.52 322.997 1028.33 322.623 1028.25 322.3ZM1029.1 321.793C1029.25 321.702 1029.44 321.594 1029.6 321.52C1029.53 321.931 1029.36 322.497 1029.14 322.894C1029.14 322.575 1029.1 322.114 1029.1 321.793Z" fill="#CCCCCC"/>
<path d="M1147.82 350.547V343H1140.27V350.547H1122V428H1153.78V350.547H1147.82ZM1134.31 406.949H1129.94V400.593H1134.31V406.949ZM1134.31 397.019H1129.94V390.266H1134.31V397.019ZM1134.31 386.294H1129.94V380.336H1134.31V386.294ZM1134.31 376.364H1129.94V370.009H1134.31V376.364ZM1134.31 366.037H1129.94V359.682H1134.31V366.037ZM1145.83 406.949H1141.07V400.593H1145.83V406.949ZM1145.83 397.019H1141.07V390.266H1145.83V397.019ZM1145.83 386.294H1141.07V380.336H1145.83V386.294ZM1145.83 376.364H1141.07V370.009H1145.83V376.364ZM1145.83 366.037H1141.07V359.682H1145.83V366.037Z" fill="#F7B582"/>
<path d="M1134.31 359.682H1129.94V366.037H1134.31V359.682Z" fill="white"/>
<path d="M1145.83 359.682H1141.07V366.037H1145.83V359.682Z" fill="white"/>
<path d="M1134.31 370.009H1129.94V376.364H1134.31V370.009Z" fill="white"/>
<path d="M1145.83 370.009H1141.07V376.364H1145.83V370.009Z" fill="white"/>
<path d="M1134.31 380.336H1129.94V386.294H1134.31V380.336Z" fill="white"/>
<path d="M1145.83 380.336H1141.07V386.294H1145.83V380.336Z" fill="white"/>
<path d="M1134.31 390.266H1129.94V397.019H1134.31V390.266Z" fill="white"/>
<path d="M1145.83 390.266H1141.07V397.019H1145.83V390.266Z" fill="white"/>
<path d="M1134.31 400.593H1129.94V406.949H1134.31V400.593Z" fill="white"/>
<path d="M1145.83 400.593H1141.07V406.949H1145.83V400.593Z" fill="white"/>
<path d="M1205 335.534V466H1225.52V348.494L1205 335.534ZM1215.26 460.475H1211.31V454.951H1215.26V460.475ZM1215.26 451.4H1211.31V445.875H1215.26V451.4ZM1215.26 442.324H1211.31V436.799H1215.26V442.324ZM1215.26 433.248H1211.31V427.723H1215.26V433.248ZM1215.26 424.172H1211.31V418.647H1215.26V424.172ZM1215.26 415.096H1211.31V409.571H1215.26V415.096ZM1215.26 406.02H1211.31V400.495H1215.26V406.02ZM1215.26 396.944H1211.31V391.419H1215.26V396.944ZM1215.26 387.868H1211.31V382.343H1215.26V387.868ZM1215.26 378.792H1211.31V373.267H1215.26V378.792ZM1215.26 369.716H1211.31V364.191H1215.26V369.716ZM1215.26 360.64H1211.31V355.115H1215.26V360.64ZM1224.34 460.475H1220.39V454.951H1224.34V460.475ZM1224.34 451.4H1220.39V445.875H1224.34V451.4ZM1224.34 442.324H1220.39V436.799H1224.34V442.324ZM1224.34 433.248H1220.39V427.723H1224.34V433.248ZM1224.34 424.172H1220.39V418.647H1224.34V424.172ZM1224.34 415.096H1220.39V409.571H1224.34V415.096ZM1224.34 406.02H1220.39V400.495H1224.34V406.02ZM1224.34 396.944H1220.39V391.419H1224.34V396.944ZM1224.34 387.868H1220.39V382.343H1224.34V387.868ZM1224.34 378.792H1220.39V373.267H1224.34V378.792ZM1224.34 369.716H1220.39V364.191H1224.34V369.716ZM1224.34 360.64H1220.39V355.115H1224.34V360.64Z" fill="white"/>
<path d="M1215.26 355.115H1211.31V360.64H1215.26V355.115Z" fill="#A2E6DF"/>
<path d="M1224.34 355.115H1220.39V360.64H1224.34V355.115Z" fill="#A2E6DF"/>
<path d="M1215.26 364.191H1211.31V369.716H1215.26V364.191Z" fill="#A2E6DF"/>
<path d="M1224.34 364.191H1220.39V369.716H1224.34V364.191Z" fill="#A2E6DF"/>
<path d="M1215.26 373.267H1211.31V378.792H1215.26V373.267Z" fill="#A2E6DF"/>
<path d="M1224.34 373.267H1220.39V378.792H1224.34V373.267Z" fill="#A2E6DF"/>
<path d="M1215.26 382.343H1211.31V387.868H1215.26V382.343Z" fill="#A2E6DF"/>
<path d="M1224.34 382.343H1220.39V387.868H1224.34V382.343Z" fill="#A2E6DF"/>
<path d="M1215.26 391.419H1211.31V396.944H1215.26V391.419Z" fill="#A2E6DF"/>
<path d="M1224.34 391.419H1220.39V396.944H1224.34V391.419Z" fill="#A2E6DF"/>
<path d="M1215.26 400.495H1211.31V406.02H1215.26V400.495Z" fill="#A2E6DF"/>
<path d="M1224.34 400.495H1220.39V406.02H1224.34V400.495Z" fill="#A2E6DF"/>
<path d="M1215.26 409.571H1211.31V415.096H1215.26V409.571Z" fill="#A2E6DF"/>
<path d="M1224.34 409.571H1220.39V415.096H1224.34V409.571Z" fill="#A2E6DF"/>
<path d="M1215.26 418.647H1211.31V424.172H1215.26V418.647Z" fill="#A2E6DF"/>
<path d="M1224.34 418.647H1220.39V424.172H1224.34V418.647Z" fill="#A2E6DF"/>
<path d="M1215.26 427.723H1211.31V433.248H1215.26V427.723Z" fill="#A2E6DF"/>
<path d="M1224.34 427.723H1220.39V433.248H1224.34V427.723Z" fill="#A2E6DF"/>
<path d="M1215.26 436.799H1211.31V442.324H1215.26V436.799Z" fill="#A2E6DF"/>
<path d="M1224.34 436.799H1220.39V442.324H1224.34V436.799Z" fill="#A2E6DF"/>
<path d="M1215.26 445.875H1211.31V451.4H1215.26V445.875Z" fill="#A2E6DF"/>
<path d="M1224.34 445.875H1220.39V451.4H1224.34V445.875Z" fill="#A2E6DF"/>
<path d="M1215.26 454.951H1211.31V460.475H1215.26V454.951Z" fill="#A2E6DF"/>
<path d="M1224.34 454.951H1220.39V460.475H1224.34V454.951Z" fill="#A2E6DF"/>
<path d="M1223.15 305V466H1248.01V320.993L1223.15 305ZM1233.02 457.713H1229.07V452.189H1233.02V457.713ZM1233.02 448.637H1229.07V443.113H1233.02V448.637ZM1233.02 439.561H1229.07V434.037H1233.02V439.561ZM1233.02 430.485H1229.07V424.961H1233.02V430.485ZM1233.02 421.409H1229.07V415.885H1233.02V421.409ZM1233.02 412.333H1229.07V406.809H1233.02V412.333ZM1233.02 403.257H1229.07V397.733H1233.02V403.257ZM1233.02 394.181H1229.07V388.657H1233.02V394.181ZM1233.02 385.105H1229.07V379.581H1233.02V385.105ZM1233.02 376.029H1229.07V370.505H1233.02V376.029ZM1233.02 366.953H1229.07V361.429H1233.02V366.953ZM1233.02 357.877H1229.07V352.353H1233.02V357.877ZM1233.02 348.801H1229.07V343.277H1233.02V348.801ZM1233.02 339.725H1229.07V334.201H1233.02V339.725ZM1233.02 330.65H1229.07V325.125H1233.02V330.65ZM1242.09 457.713H1238.15V452.189H1242.09V457.713ZM1242.09 448.637H1238.15V443.113H1242.09V448.637ZM1242.09 439.561H1238.15V434.037H1242.09V439.561ZM1242.09 430.485H1238.15V424.961H1242.09V430.485ZM1242.09 421.409H1238.15V415.885H1242.09V421.409ZM1242.09 412.333H1238.15V406.809H1242.09V412.333ZM1242.09 403.257H1238.15V397.733H1242.09V403.257ZM1242.09 394.181H1238.15V388.657H1242.09V394.181ZM1242.09 385.105H1238.15V379.581H1242.09V385.105ZM1242.09 376.029H1238.15V370.505H1242.09V376.029ZM1242.09 366.953H1238.15V361.429H1242.09V366.953ZM1242.09 357.877H1238.15V352.353H1242.09V357.877ZM1242.09 348.801H1238.15V343.277H1242.09V348.801ZM1242.09 339.725H1238.15V334.201H1242.09V339.725ZM1242.09 330.65H1238.15V325.125H1242.09V330.65Z" fill="white"/>
<path d="M1233.02 325.125H1229.07V330.65H1233.02V325.125Z" fill="#A2E6DF"/>
<path d="M1242.09 325.125H1238.15V330.65H1242.09V325.125Z" fill="#A2E6DF"/>
<path d="M1233.02 334.201H1229.07V339.725H1233.02V334.201Z" fill="#A2E6DF"/>
<path d="M1242.09 334.201H1238.15V339.725H1242.09V334.201Z" fill="#A2E6DF"/>
<path d="M1233.02 343.277H1229.07V348.801H1233.02V343.277Z" fill="#A2E6DF"/>
<path d="M1242.09 343.277H1238.15V348.801H1242.09V343.277Z" fill="#A2E6DF"/>
<path d="M1233.02 352.353H1229.07V357.877H1233.02V352.353Z" fill="#A2E6DF"/>
<path d="M1242.09 352.353H1238.15V357.877H1242.09V352.353Z" fill="#A2E6DF"/>
<path d="M1233.02 361.429H1229.07V366.953H1233.02V361.429Z" fill="#A2E6DF"/>
<path d="M1242.09 361.429H1238.15V366.953H1242.09V361.429Z" fill="#A2E6DF"/>
<path d="M1233.02 370.505H1229.07V376.029H1233.02V370.505Z" fill="#A2E6DF"/>
<path d="M1242.09 370.505H1238.15V376.029H1242.09V370.505Z" fill="#A2E6DF"/>
<path d="M1233.02 379.581H1229.07V385.105H1233.02V379.581Z" fill="#A2E6DF"/>
<path d="M1242.09 379.581H1238.15V385.105H1242.09V379.581Z" fill="#A2E6DF"/>
<path d="M1233.02 388.657H1229.07V394.181H1233.02V388.657Z" fill="#A2E6DF"/>
<path d="M1242.09 388.657H1238.15V394.181H1242.09V388.657Z" fill="#A2E6DF"/>
<path d="M1233.02 397.733H1229.07V403.257H1233.02V397.733Z" fill="#A2E6DF"/>
<path d="M1242.09 397.733H1238.15V403.257H1242.09V397.733Z" fill="#A2E6DF"/>
<path d="M1233.02 406.809H1229.07V412.333H1233.02V406.809Z" fill="#A2E6DF"/>
<path d="M1242.09 406.809H1238.15V412.333H1242.09V406.809Z" fill="#A2E6DF"/>
<path d="M1233.02 415.885H1229.07V421.409H1233.02V415.885Z" fill="#A2E6DF"/>
<path d="M1242.09 415.885H1238.15V421.409H1242.09V415.885Z" fill="#A2E6DF"/>
<path d="M1233.02 424.961H1229.07V430.485H1233.02V424.961Z" fill="#A2E6DF"/>
<path d="M1242.09 424.961H1238.15V430.485H1242.09V424.961Z" fill="#A2E6DF"/>
<path d="M1233.02 434.037H1229.07V439.561H1233.02V434.037Z" fill="#A2E6DF"/>
<path d="M1242.09 434.037H1238.15V439.561H1242.09V434.037Z" fill="#A2E6DF"/>
<path d="M1233.02 443.113H1229.07V448.637H1233.02V443.113Z" fill="#A2E6DF"/>
<path d="M1242.09 443.113H1238.15V448.637H1242.09V443.113Z" fill="#A2E6DF"/>
<path d="M1233.02 452.189H1229.07V457.713H1233.02V452.189Z" fill="#A2E6DF"/>
<path d="M1242.09 452.189H1238.15V457.713H1242.09V452.189Z" fill="#A2E6DF"/>
<path d="M1352.38 395.3V392.407C1352.38 389.973 1350.41 388 1347.97 388H1342.88C1340.45 388 1338.48 389.973 1338.48 392.407V395.3H1335V475.595H1362.46V395.3H1352.38ZM1344.39 466.21H1341.26V457.867H1344.39V466.21ZM1344.39 452.653H1341.26V444.311H1344.39V452.653ZM1344.39 439.097H1341.26V430.755H1344.39V439.097ZM1344.39 425.541H1341.26V417.198H1344.39V425.541ZM1344.39 411.984H1341.26V403.642H1344.39V411.984ZM1355.51 466.21H1352.38V457.867H1355.51V466.21ZM1355.51 452.653H1352.38V444.311H1355.51V452.653ZM1355.51 439.097H1352.38V430.755H1355.51V439.097ZM1355.51 425.541H1352.38V417.198H1355.51V425.541ZM1355.51 411.984H1352.38V403.642H1355.51V411.984Z" fill="#705165"/>
<path d="M1344.39 403.642H1341.26V411.984H1344.39V403.642Z" fill="white"/>
<path d="M1355.51 403.642H1352.38V411.984H1355.51V403.642Z" fill="white"/>
<path d="M1344.39 417.198H1341.26V425.541H1344.39V417.198Z" fill="white"/>
<path d="M1355.51 417.198H1352.38V425.541H1355.51V417.198Z" fill="white"/>
<path d="M1344.39 430.755H1341.26V439.097H1344.39V430.755Z" fill="white"/>
<path d="M1355.51 430.755H1352.38V439.097H1355.51V430.755Z" fill="white"/>
<path d="M1344.39 444.311H1341.26V452.653H1344.39V444.311Z" fill="white"/>
<path d="M1355.51 444.311H1352.38V452.653H1355.51V444.311Z" fill="white"/>
<path d="M1344.39 457.867H1341.26V466.21H1344.39V457.867Z" fill="white"/>
<path d="M1355.51 457.867H1352.38V466.21H1355.51V457.867Z" fill="white"/>
<path d="M1386.8 482.357C1344.03 482.357 764.319 482.357 708.881 482.357C759.625 455.901 874.134 419 1047.84 419C1221.55 419 1342.4 452.059 1386.8 482.357Z" fill="#528620"/>
<path d="M1378.72 327.468C1365.65 362.337 1363.98 401.559 1365.43 420.849C1366.96 441.298 1375.91 455.612 1385.11 454.247C1393.28 453.038 1402.49 441.979 1401.73 406.534C1400.96 371.091 1394.06 339.736 1389.46 327.468C1385.08 315.8 1382.81 316.562 1378.72 327.468Z" fill="url(#paint50_linear)"/>
<path opacity="0.6" d="M1375.26 337.63C1365.36 369.7 1364.12 403.415 1365.43 420.849C1366.96 441.298 1375.91 455.612 1385.11 454.248C1392.63 453.134 1401.04 443.651 1401.72 414.48C1384.81 460.37 1366.28 409.497 1375.26 337.63Z" fill="#51A631"/>
<path d="M1383.89 414.304L1381.46 481.931H1385.44L1383.89 414.304Z" fill="#A35E1A"/>
<path d="M1376.89 440.972L1383.23 450.77L1383.67 446.791L1376.89 440.972Z" fill="#A35E1A"/>
<path d="M1383.67 437.57V440.602L1390.85 431.409L1383.67 437.57Z" fill="#A35E1A"/>
<path d="M248.877 369.635C243.132 384.951 242.402 402.178 243.039 410.652C243.713 419.634 247.642 425.92 251.684 425.322C255.269 424.791 259.316 419.932 258.98 404.365C258.645 388.798 255.612 375.026 253.591 369.637C251.669 364.511 250.673 364.847 248.877 369.635Z" fill="url(#paint51_linear)"/>
<path opacity="0.6" d="M247.356 374.1C243.006 388.184 242.463 402.993 243.038 410.652C243.712 419.634 247.641 425.92 251.683 425.322C254.985 424.833 258.675 420.668 258.976 407.854C251.552 428.009 243.412 405.664 247.356 374.1Z" fill="#51A631"/>
<path d="M251.146 407.777L250.078 437.48H251.825L251.146 407.777Z" fill="#A35E1A"/>
<path d="M248.07 419.491L250.855 423.793L251.047 422.045L248.07 419.491Z" fill="#A35E1A"/>
<path d="M251.047 417.996V419.329L254.205 415.289L251.047 417.996Z" fill="#A35E1A"/>
<path d="M226.446 325.829C217.446 349.833 216.301 376.834 217.297 390.116C218.352 404.191 224.51 414.048 230.846 413.107C236.468 412.276 242.811 404.66 242.283 380.262C241.757 355.86 237.004 334.276 233.838 325.829C230.826 317.798 229.262 318.321 226.446 325.829Z" fill="url(#paint52_linear)"/>
<path opacity="0.6" d="M224.063 332.824C217.247 354.902 216.396 378.112 217.297 390.116C218.351 404.191 224.51 414.047 230.846 413.107C236.022 412.342 241.807 405.812 242.279 385.732C230.643 417.322 217.883 382.301 224.063 332.824Z" fill="#51A631"/>
<path d="M230.005 385.61L228.331 432.167H231.069L230.005 385.61Z" fill="#A35E1A"/>
<path d="M225.183 403.969L229.547 410.714L229.853 407.976L225.183 403.969Z" fill="#A35E1A"/>
<path d="M229.853 401.627V403.715L234.799 397.387L229.853 401.627Z" fill="#A35E1A"/>
<path d="M234.701 404.191C225.617 413.277 224.461 423.495 225.468 428.521C226.534 433.849 232.749 437.576 239.141 437.222C244.816 436.906 251.216 434.025 250.684 424.791C250.152 415.557 245.356 407.388 242.161 404.191C239.121 401.153 237.542 401.352 234.701 404.191Z" fill="url(#paint53_linear)"/>
<path opacity="0.6" d="M232.296 406.84C225.415 415.194 224.558 423.978 225.467 428.521C226.533 433.849 232.748 437.576 239.14 437.222C244.364 436.931 250.203 434.46 250.677 426.86C238.935 438.817 226.061 425.563 232.296 406.84Z" fill="#81B424"/>
<path d="M238.133 422.06L237.211 440.836H238.72L238.133 422.06Z" fill="#A35E1A"/>
<path d="M233.185 429.268L237.881 435.893L238.048 434.382L233.185 429.268Z" fill="#A35E1A"/>
<path d="M238.048 430.885V432.036L242.827 428.263L238.048 430.885Z" fill="#A35E1A"/>
<path d="M1080.88 376.444C1066.7 390.625 1064.9 406.578 1066.47 414.424C1068.13 422.741 1077.83 428.563 1087.81 428.008C1096.67 427.516 1106.67 423.018 1105.83 408.602C1105 394.187 1097.52 381.434 1092.53 376.444C1087.78 371.698 1085.32 372.008 1080.88 376.444Z" fill="url(#paint54_linear)"/>
<path opacity="0.6" d="M1077.13 380.577C1066.39 393.62 1065.05 407.333 1066.47 414.424C1068.13 422.741 1077.83 428.563 1087.81 428.008C1095.97 427.555 1105.08 423.698 1105.83 411.833C1087.49 430.498 1067.39 409.807 1077.13 380.577Z" fill="#51A631"/>
<path d="M1086.24 404.339L1084.8 444.384H1087.16L1086.24 404.339Z" fill="#A35E1A"/>
<path d="M1078.52 415.593L1085.85 425.932L1086.11 423.576L1078.52 415.593Z" fill="#A35E1A"/>
<path d="M1086.11 418.116V419.911L1093.57 414.022L1086.11 418.116Z" fill="#A35E1A"/>
<path d="M1102.65 409.247C1093.94 417.957 1092.83 427.756 1093.79 432.575C1094.81 437.684 1100.77 441.26 1106.9 440.919C1112.34 440.617 1118.48 437.855 1117.97 429C1117.46 420.146 1112.86 412.313 1109.8 409.248C1106.88 406.332 1105.37 406.522 1102.65 409.247Z" fill="url(#paint55_linear)"/>
<path opacity="0.6" d="M1100.34 411.786C1093.74 419.797 1092.92 428.219 1093.79 432.575C1094.81 437.684 1100.77 441.26 1106.9 440.919C1111.91 440.641 1117.51 438.272 1117.97 430.985C1106.71 442.448 1094.36 429.739 1100.34 411.786Z" fill="#81B424"/>
<path d="M1105.94 426.381L1105.05 444.384H1106.5L1105.94 426.381Z" fill="#A35E1A"/>
<path d="M1101.19 433.293L1105.69 439.642L1105.86 438.196L1101.19 433.293Z" fill="#A35E1A"/>
<path d="M1105.86 434.843V435.945L1110.44 432.328L1105.86 434.843Z" fill="#A35E1A"/>
<path d="M0 482H1440V500H0V482Z" fill="#9BC451"/>
<path d="M103.33 341.324C92.0207 371.486 90.5821 405.411 91.8339 422.097C93.16 439.785 100.899 452.166 108.859 450.985C115.923 449.939 123.892 440.373 123.229 409.715C122.566 379.057 116.597 351.936 112.617 341.324C108.831 331.232 106.867 331.891 103.33 341.324Z" fill="url(#paint56_linear)"/>
<path opacity="0.6" d="M100.337 350.114C91.7696 377.854 90.7021 407.017 91.834 422.097C93.16 439.785 100.899 452.166 108.859 450.986C115.363 450.022 122.63 441.82 123.222 416.587C108.6 456.281 92.5724 412.278 100.337 350.114Z" fill="#51A631"/>
<path d="M107.8 416.435L105.697 474.931H109.138L107.8 416.435Z" fill="#A35E1A"/>
<path d="M101.743 439.503L107.226 447.977L107.609 444.536L101.743 439.503Z" fill="#A35E1A"/>
<path d="M107.609 436.56V439.182L113.823 431.231L107.609 436.56Z" fill="#A35E1A"/>
<path d="M58.7409 375.686C38.0239 396.402 35.3903 419.706 37.6837 431.167C40.1144 443.316 54.2865 451.82 68.8656 451.01C81.8045 450.292 96.4046 443.721 95.1887 422.662C93.974 401.605 83.039 382.976 75.7494 375.686C68.8186 368.754 65.2202 369.207 58.7409 375.686Z" fill="url(#paint57_linear)"/>
<path opacity="0.6" d="M53.2573 381.724C37.5674 400.776 35.6105 420.808 37.6837 431.167C40.1131 443.316 54.2865 451.82 68.8656 451.01C80.7802 450.348 94.0927 444.714 95.1775 427.383C68.3956 454.647 39.0357 424.423 53.2573 381.724Z" fill="#51A631"/>
<path d="M66.5648 416.435L64.4619 474.931H67.902L66.5648 416.435Z" fill="#A35E1A"/>
<path d="M55.286 432.875L65.9909 447.977L66.3731 444.536L55.286 432.875Z" fill="#A35E1A"/>
<path d="M66.3731 436.56V439.182L77.2709 430.58L66.3731 436.56Z" fill="#A35E1A"/>
<path d="M83.2926 423.605C70.5677 436.328 68.9485 450.642 70.3574 457.681C71.8505 465.144 80.5551 470.368 89.5109 469.871C97.4573 469.429 106.424 465.394 105.678 452.459C104.931 439.525 98.2156 428.083 93.7389 423.606C89.4812 419.346 87.272 419.624 83.2926 423.605Z" fill="url(#paint58_linear)"/>
<path opacity="0.6" d="M79.9218 427.313C70.2857 439.015 69.0846 451.318 70.3574 457.681C71.8505 465.144 80.5551 470.368 89.5097 469.871C96.8289 469.464 105.004 466.004 105.671 455.36C89.2215 472.103 71.1887 453.539 79.9218 427.313Z" fill="#81B424"/>
<path d="M88.0983 448.633L86.8056 474.931H88.9196L88.0983 448.633Z" fill="#A35E1A"/>
<path d="M81.1699 458.73L87.7445 468.005L87.9795 465.892L81.1699 458.73Z" fill="#A35E1A"/>
<path d="M87.9795 460.994V462.605L94.6716 457.32L87.9795 460.994Z" fill="#A35E1A"/>
<path d="M1318.5 413.893C1306.59 425.81 1305.07 439.213 1306.39 445.807C1307.79 452.797 1315.94 457.688 1324.33 457.222C1331.77 456.808 1340.17 453.03 1339.47 440.916C1338.77 428.804 1332.48 418.088 1328.29 413.895C1324.3 409.906 1322.23 410.167 1318.5 413.893Z" fill="url(#paint59_linear)"/>
<path opacity="0.6" d="M1315.35 417.366C1306.33 428.327 1305.2 439.848 1306.39 445.805C1307.79 452.795 1315.94 457.686 1324.33 457.22C1331.18 456.839 1338.84 453.599 1339.46 443.628C1324.06 459.311 1307.17 441.926 1315.35 417.366Z" fill="#51A631"/>
<path d="M1323.01 437.332L1321.8 470.978H1323.78L1323.01 437.332Z" fill="#A35E1A"/>
<path d="M1316.52 446.787L1322.68 455.476L1322.9 453.496L1316.52 446.787Z" fill="#A35E1A"/>
<path d="M1322.9 448.908V450.416L1329.16 445.467L1322.9 448.908Z" fill="#A35E1A"/>
<path d="M342.597 393.835C338.216 405.513 337.66 418.647 338.145 425.108C338.659 431.956 341.655 436.749 344.737 436.293C347.47 435.888 350.556 432.184 350.3 420.315C350.044 408.445 347.732 397.945 346.191 393.836C344.726 389.928 343.966 390.184 342.597 393.835Z" fill="url(#paint60_linear)"/>
<path opacity="0.6" d="M341.437 397.239C338.12 407.977 337.706 419.268 338.144 425.108C338.658 431.956 341.654 436.749 344.736 436.293C347.254 435.92 350.067 432.745 350.297 422.975C344.636 438.342 338.43 421.305 341.437 397.239Z" fill="#51A631"/>
<path d="M344.327 422.916L343.512 445.563H344.844L344.327 422.916Z" fill="#A35E1A"/>
<path d="M341.981 431.847L344.105 435.127L344.251 433.794L341.981 431.847Z" fill="#A35E1A"/>
<path d="M344.251 430.708V431.724L346.659 428.643L344.251 430.708Z" fill="#A35E1A"/>
<path d="M363.534 405.205C354.45 414.29 353.294 424.508 354.301 429.535C355.366 434.863 361.582 438.59 367.974 438.236C373.649 437.92 380.049 435.039 379.517 425.805C378.985 416.57 374.189 408.402 370.994 405.205C367.954 402.166 366.375 402.366 363.534 405.205Z" fill="url(#paint61_linear)"/>
<path opacity="0.6" d="M361.129 407.854C354.248 416.208 353.391 424.991 354.3 429.535C355.365 434.863 361.581 438.59 367.973 438.236C373.197 437.944 379.035 435.473 379.51 427.874C367.768 439.83 354.893 426.576 361.129 407.854Z" fill="#81B424"/>
<path d="M366.966 423.074L366.044 441.849H367.552L366.966 423.074Z" fill="#A35E1A"/>
<path d="M362.018 430.282L366.713 436.906L366.881 435.396L362.018 430.282Z" fill="#A35E1A"/>
<path d="M366.881 431.898V433.05L371.66 429.277L366.881 431.898Z" fill="#A35E1A"/>
<path d="M173.077 384.255V378.863H168.516V384.255H167.271V376.375H162.71V384.255H158.562V456H182.616V384.255H173.077ZM168.516 439.411H163.954V430.702H168.516V439.411ZM168.516 426.555H163.954V417.846H168.516V426.555ZM168.516 413.285H163.954V404.99H168.516V413.285ZM168.516 400.428H163.954V392.134H168.516V400.428ZM176.395 439.411H172.248V430.702H176.395V439.411ZM176.395 426.555H172.248V417.846H176.395V426.555ZM176.395 413.285H172.248V404.99H176.395V413.285ZM176.395 400.428H172.248V392.134H176.395V400.428Z" fill="#8D8B81"/>
<path d="M168.516 392.134H163.954V400.428H168.516V392.134Z" fill="white"/>
<path d="M176.395 392.134H172.248V400.428H176.395V392.134Z" fill="white"/>
<path d="M168.516 404.99H163.954V413.285H168.516V404.99Z" fill="white"/>
<path d="M176.395 404.99H172.248V413.285H176.395V404.99Z" fill="white"/>
<path d="M168.516 417.846H163.954V426.555H168.516V417.846Z" fill="white"/>
<path d="M176.395 417.846H172.248V426.555H176.395V417.846Z" fill="white"/>
<path d="M168.516 430.702H163.954V439.411H168.516V430.702Z" fill="white"/>
<path d="M176.395 430.702H172.248V439.411H176.395V430.702Z" fill="white"/>
<path d="M1419.86 394.698V388.062H1414.25V394.698H1412.72V385H1407.1V394.698H1402V483H1431.6V394.698H1419.86ZM1414.25 462.583H1408.64V451.865H1414.25V462.583ZM1414.25 446.76H1408.64V436.042H1414.25V446.76ZM1414.25 430.427H1408.64V420.219H1414.25V430.427ZM1414.25 414.604H1408.64V404.396H1414.25V414.604ZM1423.95 462.583H1418.84V451.865H1423.95V462.583ZM1423.95 446.76H1418.84V436.042H1423.95V446.76ZM1423.95 430.427H1418.84V420.219H1423.95V430.427ZM1423.95 414.604H1418.84V404.396H1423.95V414.604Z" fill="#8D8B81"/>
<path d="M1414.25 404.396H1408.64V414.604H1414.25V404.396Z" fill="white"/>
<path d="M1423.95 404.396H1418.84V414.604H1423.95V404.396Z" fill="white"/>
<path d="M1414.25 420.219H1408.64V430.427H1414.25V420.219Z" fill="white"/>
<path d="M1423.95 420.219H1418.84V430.427H1423.95V420.219Z" fill="white"/>
<path d="M1414.25 436.042H1408.64V446.76H1414.25V436.042Z" fill="white"/>
<path d="M1423.95 436.042H1418.84V446.76H1423.95V436.042Z" fill="white"/>
<path d="M1414.25 451.865H1408.64V462.583H1414.25V451.865Z" fill="white"/>
<path d="M1423.95 451.865H1418.84V462.583H1423.95V451.865Z" fill="white"/>
<path d="M178.062 394.25V455.675H200V394.25H178.062ZM186.472 445.803H182.45V439.222H186.472V445.803ZM186.472 435.931H182.45V428.984H186.472V435.931ZM186.472 425.694H182.45V419.112H186.472V425.694ZM186.472 415.822H182.45V408.875H186.472V415.822ZM186.472 405.584H182.45V398.637H186.472V405.584ZM195.612 445.803H191.225V439.222H195.612V445.803ZM195.612 435.931H191.225V428.984H195.612V435.931ZM195.612 425.694H191.225V419.112H195.612V425.694ZM195.612 415.822H191.225V408.875H195.612V415.822ZM195.612 405.584H191.225V398.637H195.612V405.584Z" fill="#524966"/>
<path d="M186.472 398.638H182.45V405.584H186.472V398.638Z" fill="white"/>
<path d="M195.612 398.638H191.225V405.584H195.612V398.638Z" fill="white"/>
<path d="M186.472 408.875H182.45V415.822H186.472V408.875Z" fill="white"/>
<path d="M195.612 408.875H191.225V415.822H195.612V408.875Z" fill="white"/>
<path d="M186.472 419.112H182.45V425.694H186.472V419.112Z" fill="white"/>
<path d="M195.612 419.112H191.225V425.694H195.612V419.112Z" fill="white"/>
<path d="M186.472 428.984H182.45V435.931H186.472V428.984Z" fill="white"/>
<path d="M195.612 428.984H191.225V435.931H195.612V428.984Z" fill="white"/>
<path d="M186.472 439.222H182.45V445.803H186.472V439.222Z" fill="white"/>
<path d="M195.612 439.222H191.225V445.803H195.612V439.222Z" fill="white"/>
<path d="M158.562 372.46V361.75H154.992V372.46H153.564V371.351C153.564 368.612 151.344 366.391 148.605 366.391H141.744C139.006 366.391 136.785 368.612 136.785 371.351V372.46H135V456H160.348V372.46H158.562ZM143.211 451.359H139.998V445.29H143.211V451.359ZM143.211 442.077H139.998V436.008H143.211V442.077ZM143.211 432.438H139.998V426.368H143.211V432.438ZM143.211 423.155H139.998V417.086H143.211V423.155ZM143.211 413.516H139.998V407.447H143.211V413.516ZM143.211 404.234H139.998V397.808H143.211V404.234ZM143.211 394.595H139.998V388.526H143.211V394.595ZM139.998 385.312V378.886H143.211V385.312H139.998ZM149.28 451.359H146.067V445.29H149.28V451.359ZM149.28 442.077H146.067V436.008H149.28V442.077ZM149.28 432.438H146.067V426.368H149.28V432.438ZM149.28 423.155H146.067V417.086H149.28V423.155ZM149.28 413.516H146.067V407.447H149.28V413.516ZM149.28 404.234H146.067V397.808H149.28V404.234ZM149.28 394.595H146.067V388.526H149.28V394.595ZM146.067 385.312V378.886H149.28V385.312H146.067ZM155.706 451.359H152.136V445.29H155.706V451.359ZM155.706 442.077H152.136V436.008H155.706V442.077ZM155.706 432.438H152.136V426.368H155.706V432.438ZM155.706 423.155H152.136V417.086H155.706V423.155ZM155.706 413.516H152.136V407.447H155.706V413.516ZM155.706 404.234H152.136V397.808H155.706V404.234ZM155.706 394.595H152.136V388.526H155.706V394.595ZM155.706 385.312H152.136V378.886H155.706V385.312Z" fill="#FFB819"/>
<path d="M143.211 378.886H139.998V385.312H143.211V378.886Z" fill="white"/>
<path d="M149.28 378.886H146.067V385.312H149.28V378.886Z" fill="white"/>
<path d="M155.706 378.886H152.136V385.312H155.706V378.886Z" fill="white"/>
<path d="M143.211 388.526H139.998V394.595H143.211V388.526Z" fill="white"/>
<path d="M149.28 388.526H146.067V394.595H149.28V388.526Z" fill="white"/>
<path d="M155.706 388.526H152.136V394.595H155.706V388.526Z" fill="white"/>
<path d="M143.211 397.808H139.998V404.234H143.211V397.808Z" fill="white"/>
<path d="M149.28 397.808H146.067V404.234H149.28V397.808Z" fill="white"/>
<path d="M155.706 397.808H152.136V404.234H155.706V397.808Z" fill="white"/>
<path d="M143.211 407.447H139.998V413.516H143.211V407.447Z" fill="white"/>
<path d="M149.28 407.447H146.067V413.516H149.28V407.447Z" fill="white"/>
<path d="M155.706 407.447H152.136V413.516H155.706V407.447Z" fill="white"/>
<path d="M143.211 417.086H139.998V423.155H143.211V417.086Z" fill="white"/>
<path d="M149.28 417.086H146.067V423.155H149.28V417.086Z" fill="white"/>
<path d="M155.706 417.086H152.136V423.155H155.706V417.086Z" fill="white"/>
<path d="M143.211 426.368H139.998V432.438H143.211V426.368Z" fill="white"/>
<path d="M149.28 426.368H146.067V432.438H149.28V426.368Z" fill="white"/>
<path d="M155.706 426.368H152.136V432.438H155.706V426.368Z" fill="white"/>
<path d="M143.211 436.008H139.998V442.077H143.211V436.008Z" fill="white"/>
<path d="M149.28 436.008H146.067V442.077H149.28V436.008Z" fill="white"/>
<path d="M155.706 436.008H152.136V442.077H155.706V436.008Z" fill="white"/>
<path d="M143.211 445.29H139.998V451.359H143.211V445.29Z" fill="white"/>
<path d="M149.28 445.29H146.067V451.359H149.28V445.29Z" fill="white"/>
<path d="M155.706 445.29H152.136V451.359H155.706V445.29Z" fill="white"/>
<defs>
<linearGradient id="paint0_linear" x1="73.1358" y1="423.299" x2="110.026" y2="423.299" gradientUnits="userSpaceOnUse">
<stop stop-color="#A3CCE3"/>
<stop offset="1" stop-color="#A3CCE3"/>
</linearGradient>
<linearGradient id="paint1_linear" x1="102.649" y1="468.651" x2="139.014" y2="468.651" gradientUnits="userSpaceOnUse">
<stop stop-color="#A3CCE3"/>
<stop offset="1" stop-color="#A3CCE3"/>
</linearGradient>
<linearGradient id="paint2_linear" x1="139.014" y1="440.815" x2="173.27" y2="440.815" gradientUnits="userSpaceOnUse">
<stop stop-color="#A3CCE3"/>
<stop offset="1" stop-color="#A3CCE3"/>
</linearGradient>
<linearGradient id="paint3_linear" x1="149.087" y1="402.337" x2="163.197" y2="402.337" gradientUnits="userSpaceOnUse">
<stop stop-color="#A3CCE3"/>
<stop offset="1" stop-color="#A3CCE3"/>
</linearGradient>
<linearGradient id="paint4_linear" x1="154.784" y1="362.62" x2="157.5" y2="362.62" gradientUnits="userSpaceOnUse">
<stop stop-color="#A3CCE3"/>
<stop offset="1" stop-color="#A3CCE3"/>
</linearGradient>
<linearGradient id="paint5_linear" x1="169.581" y1="463.646" x2="187.5" y2="463.646" gradientUnits="userSpaceOnUse">
<stop stop-color="#A3CCE3"/>
<stop offset="1" stop-color="#A3CCE3"/>
</linearGradient>
<linearGradient id="paint6_linear" x1="183.284" y1="454.263" x2="203.311" y2="454.263" gradientUnits="userSpaceOnUse">
<stop stop-color="#A3CCE3"/>
<stop offset="1" stop-color="#A3CCE3"/>
</linearGradient>
<linearGradient id="paint7_linear" x1="200.148" y1="404.96" x2="241.257" y2="404.96" gradientUnits="userSpaceOnUse">
<stop stop-color="#A3CCE3"/>
<stop offset="1" stop-color="#A3CCE3"/>
</linearGradient>
<linearGradient id="paint8_linear" x1="237.567" y1="443.003" x2="281.311" y2="443.003" gradientUnits="userSpaceOnUse">
<stop stop-color="#A3CCE3"/>
<stop offset="1" stop-color="#A3CCE3"/>
</linearGradient>
<linearGradient id="paint9_linear" x1="277.095" y1="478.659" x2="297.122" y2="478.659" gradientUnits="userSpaceOnUse">
<stop stop-color="#A3CCE3"/>
<stop offset="1" stop-color="#A3CCE3"/>
</linearGradient>
<linearGradient id="paint10_linear" x1="293.959" y1="455.201" x2="319.257" y2="455.201" gradientUnits="userSpaceOnUse">
<stop stop-color="#A3CCE3"/>
<stop offset="1" stop-color="#A3CCE3"/>
</linearGradient>
<linearGradient id="paint11_linear" x1="367.216" y1="467.713" x2="423.081" y2="467.713" gradientUnits="userSpaceOnUse">
<stop stop-color="#A3CCE3"/>
<stop offset="1" stop-color="#A3CCE3"/>
</linearGradient>
<linearGradient id="paint12_linear" x1="417.811" y1="430.18" x2="453.65" y2="430.18" gradientUnits="userSpaceOnUse">
<stop stop-color="#A3CCE3"/>
<stop offset="1" stop-color="#A3CCE3"/>
</linearGradient>
<linearGradient id="paint13_linear" x1="449.96" y1="459.268" x2="480" y2="459.268" gradientUnits="userSpaceOnUse">
<stop stop-color="#A3CCE3"/>
<stop offset="1" stop-color="#A3CCE3"/>
</linearGradient>
<linearGradient id="paint14_linear" x1="31.4253" y1="460.431" x2="79.1651" y2="460.431" gradientUnits="userSpaceOnUse">
<stop stop-color="#A3CCE3"/>
<stop offset="1" stop-color="#A3CCE3"/>
</linearGradient>
<linearGradient id="paint15_linear" x1="0.000245681" y1="469.397" x2="35.0505" y2="469.397" gradientUnits="userSpaceOnUse">
<stop stop-color="#A3CCE3"/>
<stop offset="1" stop-color="#A3CCE3"/>
</linearGradient>
<linearGradient id="paint16_linear" x1="1033.14" y1="423.299" x2="1070.03" y2="423.299" gradientUnits="userSpaceOnUse">
<stop stop-color="#A3CCE3"/>
<stop offset="1" stop-color="#A3CCE3"/>
</linearGradient>
<linearGradient id="paint17_linear" x1="1062.65" y1="468.651" x2="1099.01" y2="468.651" gradientUnits="userSpaceOnUse">
<stop stop-color="#A3CCE3"/>
<stop offset="1" stop-color="#A3CCE3"/>
</linearGradient>
<linearGradient id="paint18_linear" x1="1099.01" y1="440.815" x2="1133.27" y2="440.815" gradientUnits="userSpaceOnUse">
<stop stop-color="#A3CCE3"/>
<stop offset="1" stop-color="#A3CCE3"/>
</linearGradient>
<linearGradient id="paint19_linear" x1="1109.09" y1="402.337" x2="1123.2" y2="402.337" gradientUnits="userSpaceOnUse">
<stop stop-color="#A3CCE3"/>
<stop offset="1" stop-color="#A3CCE3"/>
</linearGradient>
<linearGradient id="paint20_linear" x1="1114.78" y1="362.62" x2="1117.5" y2="362.62" gradientUnits="userSpaceOnUse">
<stop stop-color="#A3CCE3"/>
<stop offset="1" stop-color="#A3CCE3"/>
</linearGradient>
<linearGradient id="paint21_linear" x1="1129.58" y1="463.646" x2="1147.5" y2="463.646" gradientUnits="userSpaceOnUse">
<stop stop-color="#A3CCE3"/>
<stop offset="1" stop-color="#A3CCE3"/>
</linearGradient>
<linearGradient id="paint22_linear" x1="1143.28" y1="454.263" x2="1163.31" y2="454.263" gradientUnits="userSpaceOnUse">
<stop stop-color="#A3CCE3"/>
<stop offset="1" stop-color="#A3CCE3"/>
</linearGradient>
<linearGradient id="paint23_linear" x1="1160.15" y1="404.96" x2="1201.26" y2="404.96" gradientUnits="userSpaceOnUse">
<stop stop-color="#A3CCE3"/>
<stop offset="1" stop-color="#A3CCE3"/>
</linearGradient>
<linearGradient id="paint24_linear" x1="1197.57" y1="443.003" x2="1241.31" y2="443.003" gradientUnits="userSpaceOnUse">
<stop stop-color="#A3CCE3"/>
<stop offset="1" stop-color="#A3CCE3"/>
</linearGradient>
<linearGradient id="paint25_linear" x1="1237.1" y1="478.659" x2="1257.12" y2="478.659" gradientUnits="userSpaceOnUse">
<stop stop-color="#A3CCE3"/>
<stop offset="1" stop-color="#A3CCE3"/>
</linearGradient>
<linearGradient id="paint26_linear" x1="1253.96" y1="455.201" x2="1279.26" y2="455.201" gradientUnits="userSpaceOnUse">
<stop stop-color="#A3CCE3"/>
<stop offset="1" stop-color="#A3CCE3"/>
</linearGradient>
<linearGradient id="paint27_linear" x1="1278.73" y1="433.419" x2="1332.49" y2="433.419" gradientUnits="userSpaceOnUse">
<stop stop-color="#A3CCE3"/>
<stop offset="1" stop-color="#A3CCE3"/>
</linearGradient>
<linearGradient id="paint28_linear" x1="1327.22" y1="467.713" x2="1383.08" y2="467.713" gradientUnits="userSpaceOnUse">
<stop stop-color="#A3CCE3"/>
<stop offset="1" stop-color="#A3CCE3"/>
</linearGradient>
<linearGradient id="paint29_linear" x1="1377.81" y1="430.18" x2="1413.65" y2="430.18" gradientUnits="userSpaceOnUse">
<stop stop-color="#A3CCE3"/>
<stop offset="1" stop-color="#A3CCE3"/>
</linearGradient>
<linearGradient id="paint30_linear" x1="1409.96" y1="459.268" x2="1440" y2="459.268" gradientUnits="userSpaceOnUse">
<stop stop-color="#A3CCE3"/>
<stop offset="1" stop-color="#A3CCE3"/>
</linearGradient>
<linearGradient id="paint31_linear" x1="991.425" y1="460.431" x2="1039.17" y2="460.431" gradientUnits="userSpaceOnUse">
<stop stop-color="#A3CCE3"/>
<stop offset="1" stop-color="#A3CCE3"/>
</linearGradient>
<linearGradient id="paint32_linear" x1="960" y1="469.397" x2="995.051" y2="469.397" gradientUnits="userSpaceOnUse">
<stop stop-color="#A3CCE3"/>
<stop offset="1" stop-color="#A3CCE3"/>
</linearGradient>
<linearGradient id="paint33_linear" x1="886.864" y1="423.299" x2="849.974" y2="423.299" gradientUnits="userSpaceOnUse">
<stop stop-color="#A3CCE3"/>
<stop offset="1" stop-color="#A3CCE3"/>
</linearGradient>
<linearGradient id="paint34_linear" x1="857.351" y1="468.651" x2="820.986" y2="468.651" gradientUnits="userSpaceOnUse">
<stop stop-color="#A3CCE3"/>
<stop offset="1" stop-color="#A3CCE3"/>
</linearGradient>
<linearGradient id="paint35_linear" x1="820.986" y1="440.815" x2="786.73" y2="440.815" gradientUnits="userSpaceOnUse">
<stop stop-color="#A3CCE3"/>
<stop offset="1" stop-color="#A3CCE3"/>
</linearGradient>
<linearGradient id="paint36_linear" x1="810.913" y1="402.337" x2="796.803" y2="402.337" gradientUnits="userSpaceOnUse">
<stop stop-color="#A3CCE3"/>
<stop offset="1" stop-color="#A3CCE3"/>
</linearGradient>
<linearGradient id="paint37_linear" x1="805.216" y1="362.62" x2="802.5" y2="362.62" gradientUnits="userSpaceOnUse">
<stop stop-color="#A3CCE3"/>
<stop offset="1" stop-color="#A3CCE3"/>
</linearGradient>
<linearGradient id="paint38_linear" x1="790.419" y1="463.646" x2="772.5" y2="463.646" gradientUnits="userSpaceOnUse">
<stop stop-color="#A3CCE3"/>
<stop offset="1" stop-color="#A3CCE3"/>
</linearGradient>
<linearGradient id="paint39_linear" x1="776.716" y1="454.263" x2="756.689" y2="454.263" gradientUnits="userSpaceOnUse">
<stop stop-color="#A3CCE3"/>
<stop offset="1" stop-color="#A3CCE3"/>
</linearGradient>
<linearGradient id="paint40_linear" x1="759.852" y1="404.96" x2="718.743" y2="404.96" gradientUnits="userSpaceOnUse">
<stop stop-color="#A3CCE3"/>
<stop offset="1" stop-color="#A3CCE3"/>
</linearGradient>
<linearGradient id="paint41_linear" x1="722.433" y1="443.003" x2="678.689" y2="443.003" gradientUnits="userSpaceOnUse">
<stop stop-color="#A3CCE3"/>
<stop offset="1" stop-color="#A3CCE3"/>
</linearGradient>
<linearGradient id="paint42_linear" x1="682.905" y1="478.659" x2="662.878" y2="478.659" gradientUnits="userSpaceOnUse">
<stop stop-color="#A3CCE3"/>
<stop offset="1" stop-color="#A3CCE3"/>
</linearGradient>
<linearGradient id="paint43_linear" x1="666.041" y1="455.201" x2="640.743" y2="455.201" gradientUnits="userSpaceOnUse">
<stop stop-color="#A3CCE3"/>
<stop offset="1" stop-color="#A3CCE3"/>
</linearGradient>
<linearGradient id="paint44_linear" x1="641.27" y1="433.419" x2="587.513" y2="433.419" gradientUnits="userSpaceOnUse">
<stop stop-color="#A3CCE3"/>
<stop offset="1" stop-color="#A3CCE3"/>
</linearGradient>
<linearGradient id="paint45_linear" x1="592.784" y1="467.713" x2="536.919" y2="467.713" gradientUnits="userSpaceOnUse">
<stop stop-color="#A3CCE3"/>
<stop offset="1" stop-color="#A3CCE3"/>
</linearGradient>
<linearGradient id="paint46_linear" x1="542.189" y1="430.18" x2="506.35" y2="430.18" gradientUnits="userSpaceOnUse">
<stop stop-color="#A3CCE3"/>
<stop offset="1" stop-color="#A3CCE3"/>
</linearGradient>
<linearGradient id="paint47_linear" x1="510.04" y1="459.268" x2="480" y2="459.268" gradientUnits="userSpaceOnUse">
<stop stop-color="#A3CCE3"/>
<stop offset="1" stop-color="#A3CCE3"/>
</linearGradient>
<linearGradient id="paint48_linear" x1="928.575" y1="460.431" x2="880.835" y2="460.431" gradientUnits="userSpaceOnUse">
<stop stop-color="#A3CCE3"/>
<stop offset="1" stop-color="#A3CCE3"/>
</linearGradient>
<linearGradient id="paint49_linear" x1="960" y1="469.397" x2="924.949" y2="469.397" gradientUnits="userSpaceOnUse">
<stop stop-color="#A3CCE3"/>
<stop offset="1" stop-color="#A3CCE3"/>
</linearGradient>
<linearGradient id="paint50_linear" x1="1373.11" y1="398.783" x2="1430.64" y2="343.572" gradientUnits="userSpaceOnUse">
<stop stop-color="#70B62C"/>
<stop offset="1" stop-color="#B4CC0E"/>
</linearGradient>
<linearGradient id="paint51_linear" x1="246.412" y1="400.959" x2="271.678" y2="376.709" gradientUnits="userSpaceOnUse">
<stop stop-color="#70B62C"/>
<stop offset="1" stop-color="#B4CC0E"/>
</linearGradient>
<linearGradient id="paint52_linear" x1="222.585" y1="374.925" x2="262.186" y2="336.916" gradientUnits="userSpaceOnUse">
<stop stop-color="#70B62C"/>
<stop offset="1" stop-color="#B4CC0E"/>
</linearGradient>
<linearGradient id="paint53_linear" x1="234.847" y1="425.157" x2="252.727" y2="407.996" gradientUnits="userSpaceOnUse">
<stop stop-color="#B4CC0E"/>
<stop offset="1" stop-color="#E2DE00"/>
</linearGradient>
<linearGradient id="paint54_linear" x1="1081.11" y1="409.173" x2="1109.02" y2="382.383" gradientUnits="userSpaceOnUse">
<stop stop-color="#70B62C"/>
<stop offset="1" stop-color="#B4CC0E"/>
</linearGradient>
<linearGradient id="paint55_linear" x1="1102.79" y1="429.35" x2="1119.93" y2="412.895" gradientUnits="userSpaceOnUse">
<stop stop-color="#B4CC0E"/>
<stop offset="1" stop-color="#E2DE00"/>
</linearGradient>
<linearGradient id="paint56_linear" x1="98.4785" y1="403.011" x2="148.235" y2="355.254" gradientUnits="userSpaceOnUse">
<stop stop-color="#70B62C"/>
<stop offset="1" stop-color="#B4CC0E"/>
</linearGradient>
<linearGradient id="paint57_linear" x1="59.0745" y1="423.498" x2="99.8478" y2="384.364" gradientUnits="userSpaceOnUse">
<stop stop-color="#70B62C"/>
<stop offset="1" stop-color="#B4CC0E"/>
</linearGradient>
<linearGradient id="paint58_linear" x1="83.4964" y1="452.971" x2="108.541" y2="428.933" gradientUnits="userSpaceOnUse">
<stop stop-color="#B4CC0E"/>
<stop offset="1" stop-color="#E2DE00"/>
</linearGradient>
<linearGradient id="paint59_linear" x1="1318.7" y1="441.395" x2="1342.15" y2="418.884" gradientUnits="userSpaceOnUse">
<stop stop-color="#70B62C"/>
<stop offset="1" stop-color="#B4CC0E"/>
</linearGradient>
<linearGradient id="paint60_linear" x1="340.717" y1="417.718" x2="359.981" y2="399.229" gradientUnits="userSpaceOnUse">
<stop stop-color="#70B62C"/>
<stop offset="1" stop-color="#B4CC0E"/>
</linearGradient>
<linearGradient id="paint61_linear" x1="363.68" y1="426.171" x2="381.56" y2="409.009" gradientUnits="userSpaceOnUse">
<stop stop-color="#B4CC0E"/>
<stop offset="1" stop-color="#E2DE00"/>
</linearGradient>
</defs>
</svg>
