<svg width="12" height="16" viewBox="0 0 12 16" fill="none" xmlns="http://www.w3.org/2000/svg">
<path d="M6 0C2.6916 0 0 2.52337 0 5.625C0 6.67294 0.309633 7.69562 0.895633 8.58287L5.65847 15.7784C5.7497 15.9162 5.91043 16 6.0833 16C6.08463 16 6.08593 16 6.08727 16C6.26163 15.9987 6.4227 15.9124 6.51227 15.7721L11.1537 8.50687C11.7074 7.63837 12 6.64184 12 5.625C12 2.52337 9.3084 0 6 0ZM10.2955 8.02556L6.07573 14.6308L1.74557 8.08894C1.2578 7.35044 0.993333 6.49844 0.993333 5.625C0.993333 3.04031 3.243 0.93125 6 0.93125C8.757 0.93125 11.0033 3.04031 11.0033 5.625C11.0033 6.47253 10.7563 7.30275 10.2955 8.02556Z" fill="white"/>
<path d="M6 2.8125C4.3458 2.8125 3 4.07419 3 5.625C3 7.16591 4.3239 8.4375 6 8.4375C7.69677 8.4375 9 7.14897 9 5.625C9 4.07419 7.6542 2.8125 6 2.8125ZM6 7.50625C4.89143 7.50625 3.99333 6.66147 3.99333 5.625C3.99333 4.59112 4.8972 3.74375 6 3.74375C7.1028 3.74375 8.00333 4.59112 8.00333 5.625C8.00333 6.64634 7.12613 7.50625 6 7.50625Z" fill="white"/>
</svg>
