<svg width="26" height="26" viewBox="0 0 26 26" fill="none" xmlns="http://www.w3.org/2000/svg">
<path d="M25.3316 19.1767L22.0993 15.9445C21.2082 15.0535 19.7581 15.0535 18.867 15.9445L17.3978 17.4137C16.7227 18.0888 15.6241 18.0885 14.9493 17.4139L8.58101 11.0405C7.90432 10.3639 7.90422 9.26865 8.58101 8.59189C8.81766 8.35525 9.49719 7.67574 10.0502 7.12274C10.9375 6.23559 10.9499 4.7901 10.0494 3.88975L6.81791 0.668587C5.92676 -0.222473 4.47674 -0.222472 3.58797 0.666251C2.92291 1.32549 2.7084 1.53817 2.4102 1.83376C-0.803376 5.04715 -0.803376 10.2757 2.41005 13.489L12.5003 23.5842C15.7214 26.8052 20.9349 26.8054 24.1562 23.5842L25.3316 22.4088C26.2228 21.5177 26.2228 20.0678 25.3316 19.1767ZM4.66306 1.74596C4.96009 1.44894 5.44335 1.44889 5.74135 1.74677L8.9728 4.96793C9.27055 5.26566 9.27055 5.74753 8.9728 6.04531L8.43404 6.584L4.12709 2.27724L4.66306 1.74596ZM24.2543 21.3314L23.7155 21.8702L19.4058 17.5606L19.9444 17.0219C20.2415 16.7249 20.7248 16.7248 21.0219 17.0219L24.2542 20.2541C24.5513 20.5511 24.5513 21.0345 24.2543 21.3314Z" fill="#007A33"/>
</svg>
