<svg width="113" height="59" viewBox="0 0 113 59" fill="none" xmlns="http://www.w3.org/2000/svg">
<path d="M72.5337 7.20505C63.45 16.2902 62.2941 26.5082 63.3009 31.5348C64.3664 36.8625 70.5819 40.5898 76.9737 40.2356C82.6485 39.9201 89.049 37.0389 88.5169 27.8047C87.9849 18.5704 83.1892 10.4017 79.9939 7.20505C76.9536 4.16616 75.3747 4.3655 72.5337 7.20505Z" fill="url(#paint0_linear)"/>
<path opacity="0.6" d="M70.129 9.85382C63.2481 18.2075 62.3905 26.9915 63.2998 31.5348C64.3653 36.8625 70.5808 40.5898 76.9726 40.2356C82.1971 39.9444 88.0354 37.4735 88.5101 29.8741C76.7675 41.8303 63.8935 28.5762 70.129 9.85382Z" fill="#81B424"/>
<path d="M75.9658 25.0741L75.0437 43.8495H76.5524L75.9658 25.0741Z" fill="#A35E1A"/>
<path d="M71.0181 32.282L75.7134 38.9062L75.8812 37.396L71.0181 32.282Z" fill="#A35E1A"/>
<path d="M75.8812 33.8982V35.0498L80.6597 31.2766L75.8812 33.8982Z" fill="#A35E1A"/>
<path d="M9.53369 22.205C0.450016 31.2902 -0.705862 41.5082 0.300886 46.5348C1.36643 51.8625 7.58188 55.5898 13.9737 55.2356C19.6485 54.9201 26.049 52.0389 25.5169 42.8047C24.9849 33.5704 20.1892 25.4017 16.9939 22.205C13.9536 19.1662 12.3747 19.3655 9.53369 22.205Z" fill="url(#paint1_linear)"/>
<path opacity="0.6" d="M7.129 24.8538C0.248126 33.2075 -0.609464 41.9915 0.299764 46.5348C1.36531 51.8625 7.58075 55.5898 13.9726 55.2356C19.1971 54.9444 25.0354 52.4735 25.5101 44.8741C13.7675 56.8303 0.893477 43.5762 7.129 24.8538Z" fill="#81B424"/>
<path d="M12.9658 40.074L12.0437 58.8495H13.5524L12.9658 40.074Z" fill="#A35E1A"/>
<path d="M8.01813 47.2819L12.7134 53.9061L12.8812 52.396L8.01813 47.2819Z" fill="#A35E1A"/>
<path d="M12.8812 48.8981V50.0497L17.6597 46.2766L12.8812 48.8981Z" fill="#A35E1A"/>
<path d="M51.5337 15.205C42.45 24.2902 41.2941 34.5082 42.3009 39.5348C43.3664 44.8625 49.5819 48.5898 55.9737 48.2356C61.6485 47.9201 68.049 45.0389 67.5169 35.8047C66.9849 26.5704 62.1892 18.4017 58.9939 15.205C55.9536 12.1662 54.3747 12.3655 51.5337 15.205Z" fill="url(#paint2_linear)"/>
<path opacity="0.6" d="M49.129 17.8538C42.2481 26.2075 41.3905 34.9915 42.2998 39.5348C43.3653 44.8625 49.5808 48.5898 55.9726 48.2356C61.1971 47.9444 67.0354 45.4735 67.5101 37.8741C55.7675 49.8303 42.8935 36.5762 49.129 17.8538Z" fill="#81B424"/>
<path d="M54.9658 33.0741L54.0437 51.8495H55.5524L54.9658 33.0741Z" fill="#A35E1A"/>
<path d="M50.0181 40.2819L54.7134 46.9061L54.8812 45.396L50.0181 40.2819Z" fill="#A35E1A"/>
<path d="M54.8812 41.8982V43.0497L59.6597 39.2766L54.8812 41.8982Z" fill="#A35E1A"/>
<path d="M96.5337 2.20505C87.45 11.2902 86.2941 21.5082 87.3009 26.5348C88.3664 31.8625 94.5819 35.5898 100.974 35.2356C106.649 34.9201 113.049 32.0389 112.517 22.8047C111.985 13.5704 107.189 5.40169 103.994 2.20505C100.954 -0.833842 99.3747 -0.6345 96.5337 2.20505Z" fill="url(#paint3_linear)"/>
<path opacity="0.6" d="M94.129 4.85382C87.2481 13.2075 86.3905 21.9915 87.2998 26.5348C88.3653 31.8625 94.5808 35.5898 100.973 35.2356C106.197 34.9444 112.035 32.4735 112.51 24.8741C100.768 36.8303 87.8935 23.5762 94.129 4.85382Z" fill="#81B424"/>
<path d="M99.9658 20.0741L99.0437 38.8495H100.552L99.9658 20.0741Z" fill="#A35E1A"/>
<path d="M95.0181 27.2819L99.7134 33.9061L99.8812 32.396L95.0181 27.2819Z" fill="#A35E1A"/>
<path d="M99.8812 28.8982V30.0497L104.66 26.2766L99.8812 28.8982Z" fill="#A35E1A"/>
<defs>
<linearGradient id="paint0_linear" x1="72.68" y1="28.1707" x2="90.56" y2="11.0095" gradientUnits="userSpaceOnUse">
<stop stop-color="#B4CC0E"/>
<stop offset="1" stop-color="#E2DE00"/>
</linearGradient>
<linearGradient id="paint1_linear" x1="9.67999" y1="43.1707" x2="27.56" y2="26.0095" gradientUnits="userSpaceOnUse">
<stop stop-color="#B4CC0E"/>
<stop offset="1" stop-color="#E2DE00"/>
</linearGradient>
<linearGradient id="paint2_linear" x1="51.68" y1="36.1707" x2="69.56" y2="19.0095" gradientUnits="userSpaceOnUse">
<stop stop-color="#B4CC0E"/>
<stop offset="1" stop-color="#E2DE00"/>
</linearGradient>
<linearGradient id="paint3_linear" x1="96.68" y1="23.1707" x2="114.56" y2="6.00947" gradientUnits="userSpaceOnUse">
<stop stop-color="#B4CC0E"/>
<stop offset="1" stop-color="#E2DE00"/>
</linearGradient>
</defs>
</svg>
