<svg width="36" height="96" viewBox="0 0 36 96" fill="none" xmlns="http://www.w3.org/2000/svg">
<path d="M27.1288 33.2414C22.2395 46.2761 21.6183 60.9366 22.1602 68.1485C22.7338 75.7924 26.0779 81.1418 29.5173 80.6328C32.5685 80.1812 36.0127 76.0462 35.7271 62.7979C35.4415 49.5495 32.8601 37.8292 31.1405 33.2426C29.505 28.8806 28.6568 29.1662 27.1288 33.2414Z" fill="url(#paint0_linear)"/>
<path opacity="0.6" d="M25.834 37.0408C22.1322 49.0272 21.6697 61.6299 22.1591 68.1485C22.7327 75.7924 26.0768 81.1418 29.5162 80.6329C32.3269 80.2167 35.4673 76.6724 35.7236 65.7673C29.4051 82.92 22.4776 63.9037 25.834 37.0408Z" fill="#51A631"/>
<path d="M29.0597 65.7014L28.1505 90.9801H29.637L29.0597 65.7014Z" fill="#A35E1A"/>
<path d="M26.4418 75.6704L28.812 79.3319L28.9755 77.8441L26.4418 75.6704Z" fill="#A35E1A"/>
<path d="M28.9755 74.3987V75.5325L31.663 72.0944L28.9755 74.3987Z" fill="#A35E1A"/>
<path d="M8.03925 4.96039C0.379486 25.3889 -0.594467 48.3682 0.25255 59.6711C1.15083 71.6501 6.39159 80.0385 11.7837 79.2379C16.568 78.53 21.9662 72.0492 21.5171 51.2851C21.0691 30.5186 17.0245 12.149 14.3296 4.96039C11.7666 -1.87433 10.4351 -1.42885 8.03925 4.96039Z" fill="url(#paint1_linear)"/>
<path opacity="0.6" d="M6.01084 10.9139C0.209872 29.7032 -0.513861 49.4556 0.252604 59.671C1.14966 71.6501 6.39164 80.0373 11.7837 79.2379C16.1885 78.5861 21.1119 73.0292 21.5134 55.94C11.6104 82.8249 0.751767 53.0206 6.01084 10.9139Z" fill="#51A631"/>
<path d="M11.0673 55.8363L9.64304 95.4581H11.9729L11.0673 55.8363Z" fill="#A35E1A"/>
<path d="M6.96405 71.461L10.678 77.2009L10.938 74.871L6.96405 71.461Z" fill="#A35E1A"/>
<path d="M10.938 69.4679V71.2449L15.1474 65.8589L10.938 69.4679Z" fill="#A35E1A"/>
<defs>
<linearGradient id="paint0_linear" x1="25.0307" y1="59.8994" x2="46.5328" y2="39.2618" gradientUnits="userSpaceOnUse">
<stop stop-color="#70B62C"/>
<stop offset="1" stop-color="#B4CC0E"/>
</linearGradient>
<linearGradient id="paint1_linear" x1="4.75346" y1="46.7435" x2="38.4554" y2="14.3962" gradientUnits="userSpaceOnUse">
<stop stop-color="#70B62C"/>
<stop offset="1" stop-color="#B4CC0E"/>
</linearGradient>
</defs>
</svg>
