<svg xmlns="http://www.w3.org/2000/svg" width="24" height="24" viewBox="0 0 24 24">
    <path fill="#FFF" fill-rule="evenodd" d="M8.283 3.11c-1.465.067-2.735.425-3.76 1.446-1.03 1.026-1.383 2.301-1.45 3.75-.04.906-.282 7.742.417 9.535a4.537 4.537 0 0 0 2.62 2.612c.569.222 1.219.372 2.173.416 7.974.36 10.93.164 12.177-3.028.221-.568.374-1.217.416-2.169.364-7.995-.06-9.728-1.45-11.116-1.102-1.1-2.398-1.848-11.143-1.446m.073 16.15c-.873-.039-1.347-.184-1.663-.307a2.93 2.93 0 0 1-1.7-1.694c-.532-1.363-.355-7.833-.308-8.88.047-1.025.255-1.962.978-2.686.896-.893 2.053-1.331 9.93-.975 1.029.046 1.968.253 2.694.975.895.893 1.34 2.06.978 9.907-.04.87-.186 1.343-.308 1.659-.81 2.077-2.675 2.365-10.6 2.002M15.68 7.22a1.074 1.074 0 1 0 2.15 0 1.074 1.074 0 0 0-2.15 0m-8.305 4.768a4.593 4.593 0 0 0 4.599 4.587 4.593 4.593 0 0 0 4.599-4.587 4.592 4.592 0 0 0-4.599-4.586 4.592 4.592 0 0 0-4.599 4.586m1.614 0a2.981 2.981 0 0 1 2.985-2.977 2.981 2.981 0 0 1 2.985 2.977 2.982 2.982 0 0 1-2.985 2.978A2.982 2.982 0 0 1 8.99 11.99"/>
</svg>
