<svg xmlns="http://www.w3.org/2000/svg" width="133" height="39" viewBox="0 0 133 39">
    <g fill="none" fill-rule="evenodd">
        <g stroke="#6BA539" stroke-width="3.89">
            <path d="M6.039 5.688c2.28 2.486 5.319 3.712 9.25 3.712 3.924 0 7.114-1.226 9.673-3.713-2.625-2.508-5.818-3.742-9.673-3.742-3.862 0-6.904 1.234-9.25 3.743zM28.44 11.267c-3.794.859-6.513 2.993-8.29 6.48-1.787 3.507-2.091 7.113-.903 10.926 4.292-1.292 7.124-3.646 8.636-7.094 1.534-3.496 1.718-6.902.557-10.312zM2.697 11.267c3.793.859 6.512 2.993 8.29 6.48 1.786 3.507 2.09 7.113.903 10.926-4.293-1.292-7.124-3.646-8.637-7.094-1.534-3.496-1.718-6.902-.556-10.312z"/>
        </g>
        <path fill="#151515" fill-rule="nonzero" d="M50.076 27.228c-2.075 0-3.94-.456-5.595-1.367-1.654-.912-2.948-2.169-3.88-3.77-.933-1.603-1.399-3.42-1.399-5.451 0-2.032.466-3.849 1.399-5.45.932-1.603 2.226-2.853 3.88-3.751 1.655-.9 3.52-1.348 5.595-1.348 2.075 0 3.933.449 5.574 1.348a9.86 9.86 0 0 1 3.861 3.75c.933 1.602 1.399 3.42 1.399 5.45 0 2.033-.466 3.85-1.399 5.451a9.998 9.998 0 0 1-3.86 3.77c-1.642.912-3.5 1.368-5.575 1.368zm0-3.282c1.34 0 2.54-.306 3.605-.918a6.505 6.505 0 0 0 2.501-2.579c.604-1.107.906-2.377.906-3.81 0-1.432-.302-2.702-.906-3.809-.604-1.107-1.438-1.96-2.501-2.559-1.064-.599-2.266-.898-3.605-.898-1.34 0-2.541.3-3.605.898-1.064.6-1.904 1.452-2.521 2.56-.618 1.106-.926 2.376-.926 3.809 0 1.432.308 2.702.926 3.81a6.642 6.642 0 0 0 2.521 2.578c1.064.612 2.265.918 3.605.918zm34.307-17.66v20.708h-3.625v-3.282a8.175 8.175 0 0 1-3.19 2.617c-1.288.6-2.706.9-4.256.9-2.022 0-3.834-.444-5.436-1.33a9.559 9.559 0 0 1-3.763-3.73c-.906-1.603-1.359-3.445-1.359-5.53 0-2.083.453-3.92 1.36-5.508a9.596 9.596 0 0 1 3.762-3.712c1.602-.886 3.414-1.328 5.436-1.328 1.498 0 2.876.28 4.137.84a8.02 8.02 0 0 1 3.152 2.48V6.287h3.782zm-10.755 17.66c1.313 0 2.508-.306 3.585-.918a6.467 6.467 0 0 0 2.521-2.579c.604-1.107.906-2.377.906-3.81 0-1.432-.302-2.702-.906-3.809a6.336 6.336 0 0 0-2.521-2.559c-1.077-.599-2.272-.898-3.585-.898-1.34 0-2.541.3-3.605.898-1.064.6-1.904 1.452-2.522 2.56-.617 1.106-.925 2.376-.925 3.809 0 1.432.308 2.702.925 3.81a6.642 6.642 0 0 0 2.522 2.578c1.064.612 2.265.918 3.605.918zm22.448 3.282c-1.707 0-3.348-.228-4.924-.684-1.576-.455-2.81-1.035-3.704-1.738l1.576-2.97c.92.651 2.036 1.172 3.35 1.563 1.312.39 2.639.586 3.978.586 3.31 0 4.964-.938 4.964-2.813 0-.625-.223-1.12-.67-1.485-.446-.364-1.004-.631-1.674-.8-.67-.17-1.622-.359-2.856-.567-1.681-.26-3.053-.56-4.117-.899a6.352 6.352 0 0 1-2.738-1.719c-.762-.807-1.143-1.94-1.143-3.4 0-1.875.788-3.379 2.364-4.512 1.576-1.133 3.69-1.7 6.343-1.7 1.392 0 2.784.17 4.176.509 1.392.338 2.534.794 3.427 1.367l-1.615 2.97c-1.707-1.095-3.716-1.642-6.027-1.642-1.603 0-2.824.26-3.664.782-.84.52-1.261 1.211-1.261 2.07 0 .678.236 1.212.709 1.603.473.39 1.057.677 1.753.86.696.181 1.675.39 2.935.624 1.681.287 3.04.593 4.078.918a6.096 6.096 0 0 1 2.66 1.66c.735.782 1.102 1.876 1.102 3.283 0 1.875-.807 3.367-2.423 4.474-1.615 1.107-3.815 1.66-6.599 1.66zm12.285-20.942h3.782v20.708h-3.782V6.286zm1.89-1.402c-.735 0-1.345-.235-1.831-.703a2.297 2.297 0 0 1-.73-1.72c0-.677.244-1.256.73-1.738S109.516 0 110.252 0c.735 0 1.346.228 1.832.684.486.456.729 1.022.729 1.7 0 .703-.243 1.295-.73 1.777-.485.482-1.096.723-1.831.723zm13.625 22.344c-1.708 0-3.35-.228-4.925-.684-1.576-.455-2.81-1.035-3.703-1.738l1.576-2.97c.919.651 2.035 1.172 3.348 1.563 1.313.39 2.64.586 3.98.586 3.309 0 4.963-.938 4.963-2.813 0-.625-.223-1.12-.67-1.485-.446-.364-1.004-.631-1.674-.8-.67-.17-1.622-.359-2.856-.567-1.681-.26-3.053-.56-4.117-.899a6.352 6.352 0 0 1-2.738-1.719c-.762-.807-1.143-1.94-1.143-3.4 0-1.875.788-3.379 2.364-4.512 1.576-1.133 3.69-1.7 6.343-1.7 1.392 0 2.784.17 4.176.509 1.392.338 2.535.794 3.428 1.367l-1.616 2.97c-1.707-1.095-3.716-1.642-6.027-1.642-1.602 0-2.824.26-3.664.782-.84.52-1.26 1.211-1.26 2.07 0 .678.235 1.212.708 1.603.473.39 1.057.677 1.753.86.696.181 1.675.39 2.935.624 1.681.287 3.04.593 4.078.918a6.096 6.096 0 0 1 2.66 1.66c.735.782 1.102 1.876 1.102 3.283 0 1.875-.807 3.367-2.422 4.474-1.616 1.107-3.815 1.66-6.6 1.66zM41.803 38.94a2.965 2.965 0 0 1-1.455-.353 2.562 2.562 0 0 1-1.006-.993 2.85 2.85 0 0 1-.365-1.439c0-.533.121-1.01.365-1.433a2.572 2.572 0 0 1 1.006-.987 2.965 2.965 0 0 1 1.455-.354c.473 0 .895.092 1.267.276.372.183.665.452.881.805l-.553.374c-.18-.27-.41-.473-.688-.608a2.049 2.049 0 0 0-.907-.203c-.396 0-.753.089-1.07.265a1.865 1.865 0 0 0-.74.754 2.287 2.287 0 0 0-.265 1.111c0 .423.088.795.266 1.117.177.322.424.572.74.748.316.177.673.265 1.069.265.327 0 .629-.065.907-.197s.508-.333.688-.603l.553.374a2.094 2.094 0 0 1-.886.806 2.834 2.834 0 0 1-1.262.275zm8.353 0c-.529 0-1.005-.12-1.429-.359a2.619 2.619 0 0 1-1.001-.992 2.82 2.82 0 0 1-.365-1.434c0-.533.122-1.01.365-1.433a2.582 2.582 0 0 1 1.001-.987c.424-.236.9-.354 1.429-.354.528 0 1.004.118 1.428.354.424.235.756.564.996.987.24.422.36.9.36 1.433 0 .534-.12 1.012-.36 1.434-.24.423-.572.754-.996.992-.424.24-.9.359-1.428.359zm0-.655c.389 0 .738-.088 1.048-.265.309-.176.55-.427.724-.753.174-.325.261-.696.261-1.112 0-.415-.087-.786-.26-1.111a1.85 1.85 0 0 0-.725-.754 2.076 2.076 0 0 0-1.048-.265c-.39 0-.739.089-1.048.265-.31.177-.553.428-.73.754a2.287 2.287 0 0 0-.266 1.111c0 .416.088.787.266 1.112.177.326.42.577.73.753.309.177.658.265 1.048.265zm9.698-4.904c.688 0 1.235.2 1.642.598.407.398.61.978.61 1.74v3.169h-.74v-3.096c0-.568-.143-1.001-.428-1.299-.285-.298-.692-.447-1.22-.447-.59 0-1.058.175-1.403.525-.344.35-.516.833-.516 1.45v2.867h-.74v-5.465h.709v1.008c.202-.333.481-.59.84-.774.357-.184.773-.276 1.246-.276zm8.342 5.559c-.445 0-.87-.064-1.277-.192-.407-.128-.725-.29-.955-.483l.334-.582c.23.18.518.327.866.441.347.115.709.172 1.084.172.5 0 .87-.078 1.11-.234a.743.743 0 0 0 .36-.66c0-.2-.066-.358-.198-.473a1.318 1.318 0 0 0-.5-.26 7.162 7.162 0 0 0-.803-.17 9.234 9.234 0 0 1-1.074-.255 1.579 1.579 0 0 1-.694-.442c-.19-.208-.287-.495-.287-.862 0-.457.192-.831.574-1.122.382-.291.914-.437 1.596-.437.354 0 .709.047 1.063.14.355.094.647.217.876.37l-.323.592c-.452-.312-.99-.468-1.616-.468-.473 0-.83.083-1.07.25-.24.166-.36.384-.36.654 0 .208.069.374.204.499.136.124.304.216.506.275.202.059.48.12.834.182.438.083.79.166 1.053.25.265.082.49.224.678.425.188.201.282.478.282.831 0 .478-.2.858-.6 1.138-.4.28-.954.42-1.663.42zm9.124-.384c-.139.124-.31.22-.516.285a2.086 2.086 0 0 1-.641.099c-.515 0-.91-.139-1.189-.416-.278-.277-.417-.668-.417-1.174v-3.304h-.98v-.623h.98v-1.195h.74v1.195h1.669v.623h-1.669v3.263c0 .325.082.573.245.743.164.17.398.254.704.254.153 0 .301-.024.444-.073.142-.048.265-.117.37-.207l.26.53zm4.662-4.063a1.79 1.79 0 0 1 .777-.831c.344-.187.77-.28 1.277-.28v.716l-.177-.01c-.577 0-1.03.176-1.356.53-.327.353-.49.848-.49 1.485v2.785h-.74v-5.465h.709v1.07zm11.022-1.07v5.465h-.71v-.997c-.194.332-.461.59-.802.774-.34.183-.73.275-1.168.275-.716 0-1.28-.2-1.694-.597-.414-.399-.62-.982-.62-1.751v-3.17h.74v3.097c0 .575.142 1.011.427 1.31.285.297.692.446 1.22.446.577 0 1.032-.175 1.366-.525.334-.35.5-.836.5-1.46v-2.867h.741zm6.955 5.517a2.965 2.965 0 0 1-1.454-.353 2.562 2.562 0 0 1-1.007-.993 2.85 2.85 0 0 1-.364-1.439c0-.533.121-1.01.364-1.433a2.572 2.572 0 0 1 1.007-.987 2.965 2.965 0 0 1 1.454-.354c.473 0 .896.092 1.267.276.372.183.666.452.882.805l-.553.374c-.18-.27-.41-.473-.688-.608a2.049 2.049 0 0 0-.908-.203c-.396 0-.752.089-1.068.265a1.865 1.865 0 0 0-.74.754 2.287 2.287 0 0 0-.267 1.111c0 .423.089.795.266 1.117.178.322.424.572.74.748.317.177.673.265 1.07.265.326 0 .629-.065.907-.197s.507-.333.688-.603l.553.374a2.094 2.094 0 0 1-.887.806 2.834 2.834 0 0 1-1.262.275zm9.156-.384c-.139.124-.31.22-.516.285a2.086 2.086 0 0 1-.641.099c-.515 0-.911-.139-1.19-.416-.277-.277-.416-.668-.416-1.174v-3.304h-.98v-.623h.98v-1.195h.74v1.195h1.669v.623h-1.669v3.263c0 .325.082.573.245.743.164.17.398.254.704.254.153 0 .3-.024.443-.073.143-.048.266-.117.37-.207l.261.53zm3.952-5.133h.74v5.465h-.74v-5.465zm.376-1.195a.525.525 0 0 1-.386-.156.51.51 0 0 1 0-.737.525.525 0 0 1 .386-.156c.153 0 .281.05.386.15.104.1.156.22.156.359 0 .152-.052.28-.156.384a.525.525 0 0 1-.386.156zm7.279 6.712c-.529 0-1.005-.12-1.43-.359a2.619 2.619 0 0 1-1-.992 2.82 2.82 0 0 1-.365-1.434c0-.533.121-1.01.365-1.433a2.582 2.582 0 0 1 1-.987c.425-.236.901-.354 1.43-.354.528 0 1.004.118 1.428.354.424.235.756.564.996.987.24.422.36.9.36 1.433 0 .534-.12 1.012-.36 1.434-.24.423-.572.754-.996.992-.424.24-.9.359-1.428.359zm0-.655c.389 0 .738-.088 1.048-.265.309-.176.55-.427.724-.753.174-.325.261-.696.261-1.112 0-.415-.087-.786-.26-1.111a1.85 1.85 0 0 0-.725-.754 2.076 2.076 0 0 0-1.048-.265c-.39 0-.74.089-1.048.265-.31.177-.553.428-.73.754a2.287 2.287 0 0 0-.266 1.111c0 .416.088.787.266 1.112.177.326.42.577.73.753.309.177.658.265 1.048.265zm9.698-4.904c.688 0 1.235.2 1.642.598.407.398.61.978.61 1.74v3.169h-.74v-3.096c0-.568-.143-1.001-.428-1.299-.285-.298-.692-.447-1.22-.447-.591 0-1.058.175-1.403.525-.344.35-.516.833-.516 1.45v2.867h-.74v-5.465h.709v1.008c.202-.333.481-.59.84-.774.357-.184.773-.276 1.246-.276z"/>
    </g>
</svg>
