<?xml version="1.0" standalone="no"?>
<!DOCTYPE svg PUBLIC "-//W3C//DTD SVG 20010904//EN"
 "http://www.w3.org/TR/2001/REC-SVG-20010904/DTD/svg10.dtd">
<svg version="1.0" xmlns="http://www.w3.org/2000/svg"
 width="79.000000pt" height="79.000000pt" viewBox="0 0 79.000000 79.000000"
 preserveAspectRatio="xMidYMid meet">
<metadata>
Created by potrace 1.11, written by Peter Selinger 2001-2013
</metadata>
<g transform="translate(0.000000,79.000000) scale(0.100000,-0.100000)"
fill="#000000" stroke="none">
<path d="M257 743 c-13 -21 -41 -68 -62 -105 -22 -38 -42 -68 -45 -68 -4 0
-31 18 -61 41 l-54 40 -18 -96 c-10 -53 -17 -98 -15 -100 101 -84 551 -424
557 -421 4 3 9 38 10 78 1 40 4 88 6 106 2 25 -3 36 -23 51 l-26 18 40 25 c21
13 78 47 126 74 49 27 87 52 85 56 -1 4 -36 32 -77 62 -74 54 -74 54 -100 37
-48 -34 -53 -35 -46 -14 5 15 -4 27 -41 54 -69 50 -73 52 -89 39 -21 -18 -17
-4 12 40 15 22 25 42 23 44 -2 3 -26 13 -54 24 -27 11 -67 27 -87 36 l-38 16
-23 -37z"/>
</g>
</svg>
