<?xml version="1.0" standalone="no"?>
<!DOCTYPE svg PUBLIC "-//W3C//DTD SVG 1.1//EN" "http://www.w3.org/Graphics/SVG/1.1/DTD/svg11.dtd" >
<svg xmlns="http://www.w3.org/2000/svg" xmlns:xlink="http://www.w3.org/1999/xlink" version="1.1">
<metadata>
Created by FontForge 20190801 at Mon Feb 23 21:01:44 2015
 By Jimmy Wärting
Copyright \(c\) 2015 ParaType, Inc., ParaType Ltd. All rights reserved.
</metadata>
<defs>
<font id="CirceRounded-AltBold" horiz-adv-x="596" >
  <font-face 
    font-family="Circe Rounded Alt "
    font-weight="400"
    font-stretch="normal"
    units-per-em="1000"
    panose-1="2 15 6 2 2 2 3 2 2 3"
    ascent="774"
    descent="-226"
    x-height="450"
    cap-height="700"
    bbox="-500 -320 1446 941"
    underline-thickness="50"
    underline-position="-100"
    stemh="96"
    stemv="108"
    unicode-range="U+0020-FB02"
  />
<missing-glyph horiz-adv-x="212" 
 />
    <glyph glyph-name="uniF350.var.accented" unicode="&#xf350;`" horiz-adv-x="584" 
d="M444 31l-31 69h-247l-31 -69c-13 -26 -32 -39 -57 -39c-31 0 -54 24 -54 53c0 9 2 17 6 26l191 408c15 34 39 51 72 51s58 -17 73 -51l186 -398c5 -12 8 -23 8 -32c0 -32 -27 -57 -56 -57c-27 0 -47 13 -60 39zM362 214l-72 161l-73 -161h145zM244 664l77 82
c7 7 16 11 26 11c12 0 21 -4 28 -13l19 -24c6 -7 9 -15 9 -25c0 -13 -5 -24 -16 -33l-83 -66c-9 -7 -18 -10 -27 -10c-13 0 -24 5 -33 16c-8 9 -12 20 -12 31c0 13 4 23 12 31z" />
    <glyph glyph-name="uniF355.var.accented" unicode="&#xf355;`" horiz-adv-x="498" 
d="M200 207v-92h187c32 0 59 -27 59 -56c0 -32 -27 -59 -59 -59h-250c-32 0 -59 27 -59 59v407c0 32 27 59 59 59h241c32 0 59 -27 59 -56c0 -32 -27 -59 -59 -59h-178v-88h154c32 0 59 -27 59 -56c0 -32 -27 -59 -59 -59h-154zM202 664l77 82c7 7 16 11 26 11
c12 0 21 -4 28 -13l19 -24c6 -7 9 -15 9 -25c0 -13 -5 -24 -16 -33l-83 -66c-9 -7 -18 -10 -27 -10c-13 0 -24 5 -33 16c-8 9 -12 20 -12 31c0 13 4 23 12 31z" />
    <glyph glyph-name="uniF358.var.accented" unicode="&#xf358;`" horiz-adv-x="663" 
d="M585 465v-414c0 -32 -28 -59 -61 -59s-61 27 -61 59v279l-251 -298c-24 -29 -39 -40 -70 -40c-40 0 -64 27 -64 64v415c0 32 28 59 61 59s61 -27 61 -59v-276l251 298c21 25 44 37 70 37c35 0 64 -26 64 -65zM277 664l77 82c7 7 16 11 26 11c12 0 21 -4 28 -13l19 -24
c6 -7 9 -15 9 -25c0 -13 -5 -24 -16 -33l-83 -66c-9 -7 -18 -10 -27 -10c-13 0 -24 5 -33 16c-8 9 -12 20 -12 31c0 13 4 23 12 31z" />
    <glyph glyph-name="uniF35E.var.accented" unicode="&#xf35e;`" horiz-adv-x="659" 
d="M35 261c0 77 27 142 82 194c55 51 125 77 212 77s158 -25 213 -74s82 -115 82 -197c0 -79 -28 -144 -83 -195c-56 -51 -127 -77 -212 -77c-86 0 -156 25 -211 74s-83 115 -83 198zM165 261c0 -45 16 -82 48 -112c31 -30 70 -45 116 -45c104 0 165 65 165 157
c0 47 -16 84 -47 113s-71 43 -118 43c-96 0 -164 -63 -164 -156zM287 664l77 82c7 7 16 11 26 11c12 0 21 -4 28 -13l19 -24c6 -7 9 -15 9 -25c0 -13 -5 -24 -16 -33l-83 -66c-9 -7 -18 -10 -27 -10c-13 0 -24 5 -33 16c-8 9 -12 20 -12 31c0 13 4 23 12 31z" />
    <glyph glyph-name="uniF363.var.accented" unicode="&#xf363;`" horiz-adv-x="535" 
d="M162 495l133 -215l103 213c12 25 30 37 55 37c33 0 57 -24 57 -53c0 -7 -2 -16 -7 -27l-161 -322c-45 -91 -96 -136 -168 -136c-43 0 -75 28 -75 61c0 35 23 55 62 55c7 0 12 0 16 -1h5c21 4 29 14 42 38l9 14l-182 273c-7 11 -11 23 -11 35c0 33 26 63 65 63
c23 0 42 -12 57 -35zM227 664l77 82c7 7 16 11 26 11c12 0 21 -4 28 -13l19 -24c6 -7 9 -15 9 -25c0 -13 -5 -24 -16 -33l-83 -66c-9 -7 -18 -10 -27 -10c-13 0 -24 5 -33 16c-8 9 -12 20 -12 31c0 13 4 23 12 31z" />
    <glyph glyph-name="uniF36B.var.accented" unicode="&#xf36b;`" horiz-adv-x="736" 
d="M658 471v-420c0 -32 -28 -59 -61 -59c-35 0 -62 27 -62 59v420c0 32 27 59 62 59c33 0 61 -27 61 -59zM200 248v-133c11 -1 27 -2 46 -2c63 0 95 24 95 71c0 44 -31 66 -94 66c-19 0 -34 -1 -47 -2zM78 59v412c0 32 28 59 61 59s61 -27 61 -59v-109c15 2 34 3 57 3
c141 0 214 -67 214 -178c0 -115 -89 -189 -240 -189c-17 0 -79 1 -94 1c-33 1 -59 27 -59 60zM307 664l77 82c7 7 16 11 26 11c12 0 21 -4 28 -13l19 -24c6 -7 9 -15 9 -25c0 -13 -5 -24 -16 -33l-83 -66c-9 -7 -18 -10 -27 -10c-13 0 -24 5 -33 16c-8 9 -12 20 -12 31
c0 13 4 23 12 31z" />
    <glyph glyph-name="uniF36D.var.accented" unicode="&#xf36d;`" horiz-adv-x="543" 
d="M87 128c10 0 23 -2 39 -7c35 -10 65 -15 90 -15c93 0 148 35 167 104h-186c-32 0 -58 26 -58 58c0 31 26 57 58 57h182c-22 63 -78 94 -167 94c-32 0 -62 -4 -90 -13c-12 -4 -23 -6 -32 -6c-20 0 -35 9 -45 28c-4 7 -6 14 -6 23c0 25 14 44 43 57c37 17 82 26 135 26
c86 0 157 -25 212 -75s83 -116 83 -197c0 -84 -28 -150 -84 -198c-56 -49 -132 -73 -227 -73c-52 0 -95 8 -128 24c-28 14 -42 34 -42 59c0 11 3 22 10 31c11 15 26 23 46 23zM172 664l77 82c7 7 16 11 26 11c12 0 21 -4 28 -13l19 -24c6 -7 9 -15 9 -25
c0 -13 -5 -24 -16 -33l-83 -66c-9 -7 -18 -10 -27 -10c-13 0 -24 5 -33 16c-8 9 -12 20 -12 31c0 13 4 23 12 31z" />
    <glyph glyph-name="uniF36E.var.accented" unicode="&#xf36e;`" horiz-adv-x="877" 
d="M282 210h-82v-159c0 -32 -28 -59 -61 -59s-61 27 -61 59v420c0 32 28 59 61 59s61 -27 61 -59v-146h83c25 125 125 209 273 209c89 0 159 -24 210 -73s76 -115 76 -198c0 -81 -26 -147 -77 -197c-52 -50 -122 -75 -209 -75c-73 0 -134 20 -183 59c-50 39 -80 92 -91 160z
M408 263c0 -91 61 -157 152 -157c99 0 152 65 152 157c0 95 -60 156 -152 156c-91 0 -152 -63 -152 -156zM368 664l77 82c7 7 16 11 26 11c12 0 21 -4 28 -13l19 -24c6 -7 9 -15 9 -25c0 -13 -5 -24 -16 -33l-83 -66c-9 -7 -18 -10 -27 -10c-13 0 -24 5 -33 16
c-8 9 -12 20 -12 31c0 13 4 23 12 31z" />
    <glyph glyph-name="uniF36F.var.accented" unicode="&#xf36f;`" horiz-adv-x="540" 
d="M462 466v-415c0 -32 -28 -59 -61 -59c-35 0 -62 27 -62 59v109h-92l-91 -134c-16 -23 -36 -34 -59 -34c-55 0 -72 57 -43 95l74 100c-59 34 -89 83 -89 147c0 55 20 101 60 138s100 56 180 56c32 0 73 -1 124 -2c33 -1 59 -27 59 -60zM237 275h102v135c-22 2 -46 3 -72 3
c-63 0 -98 -27 -98 -71c0 -36 31 -60 68 -67zM208 664l77 82c7 7 16 11 26 11c12 0 21 -4 28 -13l19 -24c6 -7 9 -15 9 -25c0 -13 -5 -24 -16 -33l-83 -66c-9 -7 -18 -10 -27 -10c-13 0 -24 5 -33 16c-8 9 -12 20 -12 31c0 13 4 23 12 31z" />
    <glyph glyph-name="uniF371.var.accented" unicode="&#xf371;`" horiz-adv-x="498" 
d="M89 645c0 36 28 60 65 60c29 0 58 -25 58 -60c0 -37 -27 -62 -58 -62c-37 0 -65 23 -65 62zM308 645c0 36 29 60 64 60c32 0 60 -24 60 -60c0 -39 -28 -62 -60 -62c-36 0 -64 23 -64 62zM200 207v-92h187c32 0 59 -27 59 -56c0 -32 -27 -59 -59 -59h-250
c-32 0 -59 27 -59 59v407c0 32 27 59 59 59h241c32 0 59 -27 59 -56c0 -32 -27 -59 -59 -59h-178v-88h154c32 0 59 -27 59 -56c0 -32 -27 -59 -59 -59h-154zM257 678c-14 0 -25 5 -34 16c-8 9 -12 18 -12 29c0 12 5 24 16 36l60 64c16 17 43 18 63 -2l12 -13
c7 -7 11 -17 11 -28c0 -15 -6 -28 -19 -39l-66 -52c-9 -7 -20 -11 -31 -11z" />
    <glyph glyph-name="afii10017.var.accented" unicode="&#x410;`" horiz-adv-x="689" 
d="M549 30l-58 141h-299l-59 -145c-9 -23 -26 -34 -53 -34c-32 0 -57 25 -57 56c0 7 2 14 5 22l249 585c15 33 38 50 69 50c30 0 52 -17 67 -50l248 -583c3 -9 5 -17 5 -24c0 -31 -26 -56 -57 -56c-30 0 -50 13 -60 38zM444 286l-102 251l-103 -251h205zM293 817l148 77
c5 3 10 4 16 4c15 0 25 -7 32 -21l13 -31c2 -4 3 -9 3 -14c0 -16 -8 -27 -23 -32l-155 -57c-3 -1 -7 -2 -13 -2c-18 0 -31 8 -38 25c-3 5 -4 10 -4 17c0 16 7 27 21 34z" />
    <glyph glyph-name="afii10022.var.accented" unicode="&#x415;`" horiz-adv-x="575" 
d="M220 296v-181h236c31 0 56 -25 56 -57c0 -33 -25 -58 -56 -58h-303c-31 0 -56 25 -56 56v588c0 31 25 56 56 56h293c31 0 56 -25 56 -57c0 -33 -25 -58 -56 -58h-226v-174h196c31 0 56 -25 56 -57c0 -33 -25 -58 -56 -58h-196zM265 817l148 77c5 3 10 4 16 4
c15 0 25 -7 32 -21l13 -31c2 -4 3 -9 3 -14c0 -16 -8 -27 -23 -32l-155 -57c-3 -1 -7 -2 -13 -2c-18 0 -31 8 -38 25c-3 5 -4 10 -4 17c0 16 7 27 21 34z" />
    <glyph glyph-name="afii10026.var.accented" unicode="&#x418;`" horiz-adv-x="792" 
d="M695 644v-591c0 -33 -26 -61 -61 -61s-62 26 -62 61v443l-345 -466c-19 -25 -42 -38 -68 -38c-39 0 -62 25 -62 60v592c0 35 27 61 62 61c33 0 61 -26 61 -61v-442l345 467c18 24 40 36 66 36c37 0 64 -25 64 -61zM355 817l148 77c5 3 10 4 16 4c15 0 25 -7 32 -21
l13 -31c2 -4 3 -9 3 -14c0 -16 -8 -27 -23 -32l-155 -57c-3 -1 -7 -2 -13 -2c-18 0 -31 8 -38 25c-3 5 -4 10 -4 17c0 16 7 27 21 34z" />
    <glyph glyph-name="afii10032.var.accented" unicode="&#x41e;`" horiz-adv-x="819" 
d="M45 350c0 103 34 189 103 258c68 69 155 103 261 103c105 0 193 -33 262 -100s103 -154 103 -261c0 -105 -35 -191 -104 -259s-156 -102 -261 -102s-192 33 -261 100s-103 154 -103 261zM175 350c0 -70 23 -128 68 -175s100 -71 166 -71c72 0 129 23 172 70
c42 47 63 105 63 176c0 72 -22 131 -67 177s-101 69 -168 69s-123 -23 -167 -69c-45 -46 -67 -105 -67 -177zM365 817l148 77c5 3 10 4 16 4c15 0 25 -7 32 -21l13 -31c2 -4 3 -9 3 -14c0 -16 -8 -27 -23 -32l-155 -57c-3 -1 -7 -2 -13 -2c-18 0 -31 8 -38 25
c-3 5 -4 10 -4 17c0 16 7 27 21 34z" />
    <glyph glyph-name="afii10037.var.accented" unicode="&#x423;`" horiz-adv-x="652" 
d="M149 673l213 -364l153 357c11 26 29 39 54 39c35 0 57 -22 57 -51c0 -9 -2 -18 -6 -28l-205 -463c-27 -61 -55 -104 -82 -127c-28 -24 -64 -36 -108 -36c-21 0 -39 3 -55 9c-19 7 -38 26 -38 53c0 3 1 8 2 16c7 23 22 36 46 38c2 1 5 1 10 1c7 0 28 -2 39 -2
c27 0 49 16 64 49l10 24l-257 425c-6 11 -9 23 -9 34c0 32 22 58 57 58c23 0 42 -11 55 -32zM295 817l148 77c5 3 10 4 16 4c15 0 25 -7 32 -21l13 -31c2 -4 3 -9 3 -14c0 -16 -8 -27 -23 -32l-155 -57c-3 -1 -7 -2 -13 -2c-18 0 -31 8 -38 25c-3 5 -4 10 -4 17
c0 16 7 27 21 34z" />
    <glyph glyph-name="afii10045.var.accented" unicode="&#x42b;`" horiz-adv-x="864" 
d="M767 644v-591c0 -33 -26 -61 -61 -61s-61 28 -61 61v591c0 35 26 61 61 61s61 -26 61 -61zM220 345v-229c16 0 47 -3 66 -3c92 0 138 41 138 123c0 75 -49 114 -136 114c-14 0 -37 -2 -68 -5zM97 61v583c0 35 27 61 62 61c33 0 61 -26 61 -61v-184c26 3 52 5 78 5
c169 0 256 -85 256 -226c0 -149 -106 -241 -283 -241h-58c-26 1 -44 1 -55 1c-35 1 -61 29 -61 62zM370 817l148 77c5 3 10 4 16 4c15 0 25 -7 32 -21l13 -31c2 -4 3 -9 3 -14c0 -16 -8 -27 -23 -32l-155 -57c-3 -1 -7 -2 -13 -2c-18 0 -31 8 -38 25c-3 5 -4 10 -4 17
c0 16 7 27 21 34z" />
    <glyph glyph-name="afii10047.var.accented" unicode="&#x42d;`" horiz-adv-x="661" 
d="M79 144c14 0 27 -3 40 -10c42 -20 85 -30 129 -30c125 0 222 70 242 195h-259c-31 0 -56 25 -56 58c0 32 25 57 56 57h256c-24 116 -119 182 -252 182c-38 0 -73 -8 -106 -25c-13 -7 -27 -10 -40 -10c-19 0 -34 8 -45 24c-6 8 -9 18 -9 29c0 21 12 39 36 54
c44 29 106 43 186 43c107 0 194 -33 260 -98c66 -66 99 -153 99 -262c0 -110 -33 -198 -99 -263c-66 -66 -155 -99 -267 -99c-80 0 -144 15 -193 44c-23 13 -34 31 -34 54c0 11 3 21 9 31c11 17 27 26 47 26zM223 817l148 77c5 3 10 4 16 4c15 0 25 -7 32 -21l13 -31
c2 -4 3 -9 3 -14c0 -16 -8 -27 -23 -32l-155 -57c-3 -1 -7 -2 -13 -2c-18 0 -31 8 -38 25c-3 5 -4 10 -4 17c0 16 7 27 21 34z" />
    <glyph glyph-name="afii10048.var.accented" unicode="&#x42e;`" horiz-adv-x="1081" 
d="M337 299h-117v-246c0 -33 -28 -61 -61 -61c-35 0 -62 26 -62 61v591c0 35 27 61 62 61c33 0 61 -26 61 -61v-230h119c13 87 51 159 113 214c61 55 138 83 229 83c105 0 190 -33 256 -99c66 -67 99 -154 99 -262c0 -105 -33 -192 -99 -259c-67 -68 -152 -102 -256 -102
c-90 0 -167 28 -231 85c-65 57 -102 132 -113 225zM464 350c0 -69 21 -128 64 -175s95 -71 157 -71c71 0 125 23 164 69c38 46 57 105 57 177c0 73 -20 132 -61 178c-41 45 -94 68 -160 68c-63 0 -116 -23 -158 -69s-63 -105 -63 -177zM515 817l148 77c5 3 10 4 16 4
c15 0 25 -7 32 -21l13 -31c2 -4 3 -9 3 -14c0 -16 -8 -27 -23 -32l-155 -57c-3 -1 -7 -2 -13 -2c-18 0 -31 8 -38 25c-3 5 -4 10 -4 17c0 16 7 27 21 34z" />
    <glyph glyph-name="afii10049.var.accented" unicode="&#x42f;`" horiz-adv-x="612" 
d="M515 639v-586c0 -33 -26 -61 -61 -61s-61 28 -61 61v189h-101l-143 -219c-13 -21 -31 -31 -52 -31c-35 0 -58 24 -58 53c0 12 4 24 12 36l125 186c-72 36 -123 103 -123 194c0 70 24 128 72 174c48 45 120 68 216 68c22 0 60 -1 113 -2c35 -1 61 -29 61 -62zM281 357h112
v228c-34 2 -60 3 -77 3c-80 0 -133 -48 -133 -119c0 -60 43 -101 98 -112zM293 817l148 77c5 3 10 4 16 4c15 0 25 -7 32 -21l13 -31c2 -4 3 -9 3 -14c0 -16 -8 -27 -23 -32l-155 -57c-3 -1 -7 -2 -13 -2c-18 0 -31 8 -38 25c-3 5 -4 10 -4 17c0 16 7 27 21 34z" />
    <glyph glyph-name="afii10023.var.accented" unicode="&#x401;`" horiz-adv-x="575" 
d="M97 824c0 39 26 63 59 63c29 0 55 -26 55 -63c0 -41 -26 -67 -55 -67c-35 0 -59 26 -59 67zM399 824c0 37 27 63 60 63c29 0 54 -26 54 -63c0 -41 -25 -67 -54 -67c-33 0 -60 26 -60 67zM238 772c0 7 2 13 5 19l43 87c8 17 21 26 39 26c3 0 7 -1 12 -2
c20 -5 30 -18 30 -39c0 -11 -3 -19 -10 -26l-73 -79c-7 -7 -14 -10 -21 -10c-17 0 -25 8 -25 24zM220 296v-181h236c31 0 56 -25 56 -57c0 -33 -25 -58 -56 -58h-303c-31 0 -56 25 -56 56v588c0 31 25 56 56 56h293c31 0 56 -25 56 -57c0 -33 -25 -58 -56 -58h-226v-174h196
c31 0 56 -25 56 -57c0 -33 -25 -58 -56 -58h-196z" />
    <glyph glyph-name="afii10065.var.accented" unicode="&#x430;`" horiz-adv-x="463" 
d="M35 132c0 95 68 146 164 146c41 0 75 -10 102 -29v14c0 69 -23 102 -84 102c-25 0 -49 -3 -70 -10c-11 -3 -18 -4 -23 -4c-18 0 -31 8 -39 24c-3 6 -4 12 -4 19c0 19 11 34 33 43c37 16 75 24 115 24c128 0 180 -63 180 -187v-229c0 -27 -22 -51 -51 -51s-49 22 -49 54
c-29 -36 -73 -54 -133 -54c-84 0 -141 53 -141 138zM301 132v46c-19 15 -46 22 -79 22c-41 0 -72 -20 -72 -56c0 -33 27 -53 64 -53c39 0 68 14 87 41zM197 600l61 95c7 11 18 17 32 17c9 0 16 -2 23 -7l24 -18c10 -7 15 -17 15 -31c0 -10 -3 -18 -9 -25l-72 -83
c-9 -10 -20 -15 -34 -15c-9 0 -18 3 -27 8c-13 9 -19 21 -19 37c0 8 2 15 6 22z" />
    <glyph glyph-name="afii10070.var.accented" unicode="&#x435;`" horiz-adv-x="523" 
d="M372 267v2c0 56 -39 96 -103 96c-65 0 -105 -33 -118 -98h221zM442 190h-287c9 -67 63 -105 135 -105c31 0 59 6 84 17c11 5 19 7 26 7c15 0 27 -7 36 -21c5 -8 7 -15 7 -22c0 -17 -8 -30 -23 -39c-43 -25 -90 -38 -142 -38c-73 0 -131 22 -175 65
c-45 43 -67 100 -67 171c0 67 22 124 65 169s101 67 173 67c59 0 110 -19 151 -58s62 -90 62 -151v-21c-3 -27 -18 -41 -45 -41zM224 600l61 95c7 11 18 17 32 17c9 0 16 -2 23 -7l24 -18c10 -7 15 -17 15 -31c0 -10 -3 -18 -9 -25l-72 -83c-9 -10 -21 -15 -34 -15
c-9 0 -18 3 -27 8c-13 9 -19 21 -19 37c0 8 2 15 6 22z" />
    <glyph glyph-name="afii10074.var.accented" unicode="&#x438;`" horiz-adv-x="568" 
d="M504 395v-347c0 -31 -25 -56 -57 -56c-33 0 -58 25 -58 56v232l-187 -245c-22 -29 -46 -43 -73 -43c-39 0 -65 28 -65 65v344c0 31 25 56 58 56c32 0 57 -25 57 -56v-232l187 245c21 29 45 43 72 43c40 0 66 -26 66 -62zM233 600l61 95c7 11 18 17 32 17c9 0 16 -2 23 -7
l24 -18c10 -7 15 -17 15 -31c0 -10 -3 -18 -9 -25l-72 -83c-9 -10 -20 -15 -34 -15c-9 0 -18 3 -27 8c-13 9 -19 21 -19 37c0 8 2 15 6 22z" />
    <glyph glyph-name="afii10080.var.accented" unicode="&#x43e;`" horiz-adv-x="562" 
d="M104 56c-45 44 -68 100 -68 169s23 125 68 170c45 44 104 66 177 66s133 -22 178 -66c45 -45 67 -101 67 -170s-22 -125 -67 -169c-45 -45 -105 -67 -178 -67s-132 22 -177 67zM159 225c0 -75 51 -129 122 -129c72 0 123 52 123 129c0 75 -52 128 -123 128
c-69 0 -122 -52 -122 -128zM238 600l61 95c7 11 18 17 32 17c9 0 16 -2 23 -7l24 -18c10 -7 15 -17 15 -31c0 -10 -3 -18 -9 -25l-72 -83c-9 -10 -21 -15 -34 -15c-9 0 -18 3 -27 8c-13 9 -19 21 -19 37c0 8 2 15 6 22z" />
    <glyph glyph-name="afii10085.var.accented" unicode="&#x443;`" horiz-adv-x="485" 
d="M146 415l90 -211c4 -10 11 -32 22 -65c5 29 11 51 16 66l69 209c9 29 29 43 58 43c37 0 60 -23 60 -55c0 -9 -2 -20 -6 -31l-146 -371c-31 -80 -59 -133 -84 -160s-55 -40 -90 -40c-23 0 -43 4 -59 11c-21 9 -32 26 -32 49c0 27 16 48 47 48c8 0 25 -2 32 -2h6
c23 1 44 24 62 70l10 24l-170 367c-5 11 -7 20 -7 29c0 33 25 61 68 61c23 0 43 -18 54 -42zM197 600l61 95c7 11 18 17 32 17c9 0 16 -2 23 -7l24 -18c10 -7 15 -17 15 -31c0 -10 -3 -18 -9 -25l-72 -83c-9 -10 -20 -15 -34 -15c-9 0 -18 3 -27 8c-13 9 -19 21 -19 37
c0 8 2 15 6 22z" />
    <glyph glyph-name="afii10093.var.accented" unicode="&#x44b;`" horiz-adv-x="676" 
d="M179 401v-74h56c141 0 198 -65 198 -156c0 -97 -64 -171 -207 -171h-106c-31 0 -56 25 -56 56v345c0 31 25 56 58 56c32 0 57 -25 57 -56zM612 401v-353c0 -31 -25 -56 -57 -56c-33 0 -58 25 -58 56v353c0 31 25 56 58 56c32 0 57 -25 57 -56zM179 235v-135h45
c58 0 87 22 87 67s-29 68 -86 68h-46zM269 600l61 95c7 11 18 17 32 17c9 0 16 -2 23 -7l24 -18c10 -7 15 -17 15 -31c0 -10 -3 -18 -9 -25l-72 -83c-9 -10 -20 -15 -34 -15c-9 0 -18 3 -27 8c-13 9 -19 21 -19 37c0 8 2 15 6 22z" />
    <glyph glyph-name="afii10095.var.accented" unicode="&#x44d;`" horiz-adv-x="475" 
d="M76 118c9 0 20 -3 32 -8c29 -14 59 -21 90 -21c69 0 116 35 128 100h-156c-29 0 -44 16 -44 39c0 20 15 38 44 38h155c-15 63 -65 95 -129 95c-31 0 -62 -7 -93 -22c-8 -4 -17 -6 -26 -6c-18 0 -31 7 -40 22c-5 7 -7 15 -7 23c0 18 9 32 28 43c44 27 91 40 142 40
c74 0 133 -21 178 -64s67 -100 67 -172c0 -68 -21 -124 -64 -169s-102 -67 -176 -67c-60 0 -111 14 -153 42c-14 10 -21 24 -21 41c0 11 3 20 8 27c9 13 21 19 37 19zM156 600l61 95c7 11 18 17 32 17c9 0 16 -2 23 -7l24 -18c10 -7 15 -17 15 -31c0 -10 -3 -18 -9 -25
l-72 -83c-9 -10 -21 -15 -34 -15c-9 0 -18 3 -27 8c-13 9 -19 21 -19 37c0 8 2 15 6 22z" />
    <glyph glyph-name="afii10096.var.accented" unicode="&#x44e;`" horiz-adv-x="772" 
d="M264 172h-78v-121c0 -32 -28 -59 -61 -59s-61 27 -61 59v347c0 32 28 59 61 59s61 -27 61 -59v-111h80c24 105 109 174 228 174c72 0 130 -22 175 -66c45 -45 67 -101 67 -170c0 -68 -22 -124 -67 -169s-104 -67 -175 -67c-123 0 -209 72 -230 183zM389 225
c0 -75 44 -121 108 -121c65 0 109 46 109 121s-42 121 -109 121c-64 0 -108 -48 -108 -121zM346 600l61 95c7 11 18 17 32 17c9 0 16 -2 23 -7l24 -18c10 -7 15 -17 15 -31c0 -10 -3 -18 -9 -25l-72 -83c-9 -10 -21 -15 -34 -15c-9 0 -18 3 -27 8c-13 9 -19 21 -19 37
c0 8 2 15 6 22z" />
    <glyph glyph-name="afii10097.var.accented" unicode="&#x44f;`" horiz-adv-x="475" 
d="M68 81l59 79c-45 16 -87 62 -87 130c0 95 71 160 224 160h91c31 0 56 -25 56 -56v-346c0 -31 -25 -56 -57 -56c-33 0 -58 25 -58 56v87h-64l-78 -113c-14 -20 -31 -30 -51 -30c-31 0 -51 20 -51 47c0 15 5 29 16 42zM236 220h60v130h-51c-52 0 -82 -31 -82 -68
c0 -36 36 -62 73 -62zM210 600l61 95c7 11 18 17 32 17c9 0 16 -2 23 -7l24 -18c10 -7 15 -17 15 -31c0 -10 -3 -18 -9 -25l-72 -83c-9 -10 -21 -15 -34 -15c-9 0 -18 3 -27 8c-13 9 -19 21 -19 37c0 8 2 15 6 22z" />
    <glyph glyph-name="afii10071.var.accented" unicode="&#x451;`" horiz-adv-x="523" 
d="M72 588c0 32 24 53 53 53c27 0 50 -21 50 -53c0 -35 -23 -56 -50 -56c-31 0 -53 21 -53 56zM361 588c0 32 24 53 53 53c27 0 50 -21 50 -53c0 -35 -22 -56 -50 -56c-31 0 -53 21 -53 56zM217 590l60 94c7 12 18 18 32 18c8 0 16 -3 23 -8l9 -7c10 -7 15 -17 15 -31
c0 -10 -3 -18 -9 -25l-72 -83c-9 -11 -21 -17 -34 -17c-5 0 -11 2 -18 5c-10 6 -15 15 -15 27c0 9 3 18 9 27zM372 267v2c0 56 -39 96 -103 96c-65 0 -105 -33 -118 -98h221zM487 252v-21c-3 -27 -18 -41 -44 -41h-288c9 -67 63 -105 135 -105c31 0 59 6 84 17
c11 5 19 7 26 7c15 0 27 -7 36 -21c5 -8 7 -15 7 -22c0 -17 -8 -30 -23 -39c-43 -25 -90 -38 -142 -38c-73 0 -131 22 -175 65c-45 43 -67 100 -67 171c0 67 22 124 65 169s101 67 173 67c59 0 110 -19 151 -58s62 -90 62 -151z" />
    <glyph glyph-name="fi" unicode="fi" horiz-adv-x="530" 
d="M477 394v-346c0 -31 -25 -56 -57 -56c-33 0 -58 25 -58 56v294h-178v-294c0 -31 -25 -56 -57 -56c-33 0 -58 25 -58 56v458c0 137 76 205 200 205c66 0 116 -16 151 -47c24 -21 24 -55 0 -76c-11 -10 -23 -15 -36 -15c-12 0 -28 5 -47 15c-18 10 -38 15 -60 15
c-62 0 -93 -36 -93 -107v-46h237c31 0 56 -25 56 -56z" />
    <glyph glyph-name="fl" unicode="fl" horiz-adv-x="567" 
d="M449 625v-454c0 -47 15 -71 44 -71h16c11 0 19 -1 24 -3c17 -7 26 -20 28 -41c-2 -43 -38 -64 -109 -64c-79 0 -118 44 -118 132v455c-23 16 -46 24 -71 24c-53 0 -79 -30 -79 -89v-64h25c31 0 56 -25 56 -54s-25 -54 -56 -54h-25v-294c0 -31 -25 -56 -57 -56
c-33 0 -58 25 -58 56v475c0 123 59 188 160 188c47 0 87 -10 118 -30h46c31 0 56 -25 56 -56z" />
    <glyph glyph-name=".notdef" horiz-adv-x="212" 
 />
    <glyph glyph-name="null" horiz-adv-x="0" 
 />
    <glyph glyph-name="nonmarkingreturn" horiz-adv-x="333" 
 />
    <glyph glyph-name="space" unicode=" " horiz-adv-x="212" 
 />
    <glyph glyph-name="exclam" unicode="!" horiz-adv-x="309" 
d="M216 644v-341c0 -33 -28 -61 -61 -61s-61 28 -61 61v341c0 35 28 61 61 61s61 -26 61 -61zM78 75c0 37 32 74 80 74c41 0 73 -37 73 -74c0 -43 -32 -80 -73 -80c-48 0 -80 37 -80 80z" />
    <glyph glyph-name="quotedbl" unicode="&#x22;" horiz-adv-x="431" 
d="M364 644v-129c0 -31 -26 -56 -59 -56c-31 0 -56 25 -56 56v129c0 31 25 56 58 56c32 0 57 -25 57 -56zM182 644v-129c0 -31 -26 -56 -59 -56c-31 0 -56 25 -56 56v129c0 31 25 56 58 56c32 0 57 -25 57 -56z" />
    <glyph glyph-name="numbersign" unicode="#" horiz-adv-x="724" 
d="M638 180h-166l-54 -147c-7 -21 -22 -31 -44 -31c-5 0 -11 1 -16 3c-21 7 -32 22 -32 44c0 5 1 10 3 15l43 116h-153l-55 -148c-7 -20 -22 -30 -44 -30c-5 0 -11 1 -16 3c-21 7 -32 21 -32 43c0 5 1 11 3 16l43 116h-32c-25 0 -46 22 -46 50s21 50 46 50h69l52 140h-121
c-25 0 -46 22 -46 50s21 50 46 50h159l55 148c8 20 23 30 45 30c6 0 11 -1 16 -3c21 -7 31 -22 31 -44c0 -5 -1 -10 -3 -15l-43 -116h151l55 148c7 20 22 30 45 30c7 0 13 -1 16 -2c21 -7 31 -22 31 -44c0 -6 -1 -11 -3 -16l-43 -116h40c25 0 46 -22 46 -50s-21 -50 -46 -50
h-77l-52 -140h129c25 0 46 -22 46 -50s-21 -50 -46 -50zM308 420l-52 -140h153l51 140h-152z" />
    <glyph glyph-name="dollar" unicode="$" horiz-adv-x="569" 
d="M58 100c0 13 5 26 14 37c11 13 24 20 41 20c15 0 30 -5 47 -16c39 -25 78 -37 117 -37c59 0 94 30 94 82c0 137 -317 105 -317 332c0 89 65 166 165 187v29c0 31 25 56 58 56c32 0 57 -25 57 -56v-27c43 -7 75 -18 96 -33s32 -32 32 -51c0 -9 -3 -19 -10 -30
c-11 -17 -25 -25 -43 -25c-13 0 -26 3 -40 10c-27 12 -53 18 -79 18c-69 0 -106 -29 -106 -77c0 -145 317 -99 317 -332c0 -99 -67 -172 -167 -192v-39c0 -31 -25 -56 -57 -56c-33 0 -58 25 -58 56v38c-69 11 -117 33 -144 65c-11 13 -17 26 -17 41z" />
    <glyph glyph-name="percent" unicode="%" horiz-adv-x="910" 
d="M718 633l-460 -615c-9 -12 -21 -18 -36 -18c-8 0 -16 3 -23 8c-10 8 -15 18 -15 31c0 9 3 18 8 25l461 618c7 9 17 14 29 14c8 0 17 -3 26 -9c11 -8 17 -19 17 -32c0 -9 -2 -17 -7 -22zM376 402c-37 -33 -85 -50 -142 -50s-104 17 -141 50s-56 76 -56 129s19 96 56 129
s84 49 141 49s105 -16 142 -49s55 -76 55 -129s-18 -96 -55 -129zM234 616c-51 0 -89 -34 -89 -85c0 -52 38 -86 89 -86c53 0 90 34 90 86c0 51 -38 85 -90 85zM818 40c-37 -33 -85 -50 -142 -50s-104 17 -141 50s-56 76 -56 129s19 96 56 129s84 49 141 49s105 -16 142 -49
s55 -76 55 -129s-18 -96 -55 -129zM676 254c-51 0 -89 -34 -89 -85c0 -52 38 -86 89 -86c53 0 90 34 90 86c0 51 -38 85 -90 85z" />
    <glyph glyph-name="ampersand" unicode="&#x26;" horiz-adv-x="731" 
d="M671 400v-6c-9 -92 -39 -172 -89 -239l51 -61c13 -16 20 -33 20 -50c0 -29 -23 -52 -55 -52c-21 0 -41 12 -61 37l-36 44c-51 -56 -119 -84 -206 -84c-70 0 -127 19 -170 57c-43 37 -65 85 -65 144c0 53 13 96 40 131c26 34 64 69 115 104c-53 25 -80 70 -80 134
c0 46 16 83 49 111c33 27 72 41 117 41s84 -14 117 -41c33 -28 49 -65 49 -111c0 -61 -41 -119 -90 -135l136 -177c23 45 38 94 44 147c4 36 26 59 59 59c35 0 55 -25 55 -53zM432 165l-142 194c-71 -57 -100 -95 -100 -146c0 -61 48 -109 109 -109c59 0 103 20 133 61z
M242 559c0 -32 26 -58 59 -58s59 26 59 58c0 33 -27 59 -59 59c-33 0 -59 -26 -59 -59z" />
    <glyph glyph-name="quotesingle" unicode="'" horiz-adv-x="249" 
d="M182 644v-129c0 -31 -26 -56 -59 -56c-31 0 -56 25 -56 56v129c0 31 25 56 58 56c32 0 57 -25 57 -56z" />
    <glyph glyph-name="parenleft" unicode="(" horiz-adv-x="308" 
d="M294 591c0 -11 -4 -22 -13 -33c-84 -96 -126 -207 -126 -333c0 -127 42 -238 127 -334c8 -10 12 -20 12 -31c0 -14 -6 -26 -17 -36c-8 -7 -19 -11 -33 -11c-15 0 -28 5 -37 14c-111 109 -167 242 -167 398c0 151 56 284 168 398c9 9 22 14 37 14c14 0 25 -4 32 -11
c11 -10 17 -22 17 -35z" />
    <glyph glyph-name="parenright" unicode=")" horiz-adv-x="308" 
d="M31 626c15 15 48 16 69 -3c112 -114 168 -247 168 -398c0 -156 -56 -289 -167 -398c-9 -9 -22 -14 -37 -14c-14 0 -25 4 -33 11c-11 10 -17 22 -17 36c0 11 4 21 12 31c85 96 127 207 127 334c0 126 -42 237 -126 333c-9 11 -13 22 -13 33c0 13 6 25 17 35z" />
    <glyph glyph-name="asterisk" unicode="*" horiz-adv-x="540" 
d="M272 565c-41 0 -73 32 -73 73c0 40 33 72 73 72c39 0 72 -33 72 -72c0 -40 -32 -73 -72 -73zM269 261c-40 0 -72 32 -72 71c0 40 32 74 72 74c39 0 72 -34 72 -74c0 -39 -33 -71 -72 -71zM464 517c-42 -46 -129 -11 -125 51c0 39 34 73 73 73c40 0 73 -34 73 -73
c0 -20 -7 -37 -21 -51zM412 334c-39 0 -73 32 -73 71c0 40 34 74 73 74c40 0 73 -34 73 -74c0 -39 -33 -71 -73 -71zM127 334c-39 0 -72 32 -72 71c0 40 33 74 72 74c41 0 74 -34 74 -74c0 -39 -33 -71 -74 -71zM127 496c-39 0 -72 32 -72 72c0 39 33 73 72 73
c41 0 74 -33 74 -73s-33 -72 -74 -72z" />
    <glyph glyph-name="plus" unicode="+" 
d="M243 177v133h-127c-28 0 -50 22 -50 50s22 50 50 50h127v131c0 28 22 50 54 50s54 -22 54 -50v-131h129c28 0 50 -22 50 -50s-22 -50 -50 -50h-129v-133c0 -28 -22 -50 -54 -50s-54 22 -54 50z" />
    <glyph glyph-name="comma" unicode="," horiz-adv-x="259" 
d="M126 -1c0 2 -1 5 -2 9c-11 -21 -81 -3 -77 56c0 43 29 73 77 73c53 0 88 -47 88 -112c0 -67 -33 -120 -98 -159c-5 -3 -10 -4 -14 -4c-13 0 -22 5 -29 16c-3 5 -4 10 -4 16c0 12 5 21 15 28c15 12 26 25 33 40s11 27 11 37z" />
    <glyph glyph-name="hyphen" unicode="-" horiz-adv-x="376" 
d="M115 327h146c29 0 53 -24 53 -53s-24 -54 -53 -54h-146c-29 0 -53 25 -53 54s24 53 53 53z" />
    <glyph glyph-name="period" unicode="." horiz-adv-x="243" 
d="M125 149c41 0 73 -37 73 -74c0 -43 -32 -80 -73 -80c-48 0 -80 37 -80 80c0 37 32 74 80 74z" />
    <glyph glyph-name="slash" unicode="/" horiz-adv-x="369" 
d="M377 633l-296 -796c-8 -21 -23 -31 -46 -31c-7 0 -12 1 -15 2c-21 7 -31 22 -31 45c0 5 1 11 3 17l296 796c7 21 23 31 46 31c7 0 13 -1 16 -2c20 -7 30 -22 30 -45c0 -5 -1 -11 -3 -17z" />
    <glyph glyph-name="zero" unicode="0" horiz-adv-x="553" 
d="M277 708c155 0 234 -137 234 -358c0 -223 -77 -358 -232 -358c-156 0 -237 137 -237 358s79 358 235 358zM279 99c79 0 110 75 110 251c0 175 -32 250 -112 250c-79 0 -112 -79 -112 -250c0 -167 38 -251 114 -251z" />
    <glyph glyph-name="one" unicode="1" horiz-adv-x="377" 
d="M157 50v488l-40 -30c-11 -9 -23 -13 -36 -13c-18 0 -33 7 -44 20c-9 9 -13 21 -13 35c0 18 7 33 22 44l123 93c13 10 28 15 45 15c32 0 58 -26 58 -58v-594c0 -32 -26 -58 -57 -58c-32 0 -58 26 -58 58z" />
    <glyph glyph-name="two" unicode="2" horiz-adv-x="513" 
d="M178 107h235c29 0 53 -24 53 -53s-24 -54 -53 -54h-337c-29 0 -53 24 -53 53c0 21 9 41 27 59c83 85 139 144 166 178c67 83 101 153 101 212c0 57 -32 91 -89 91c-34 0 -62 -15 -84 -44c-14 -19 -31 -29 -52 -29c-10 0 -19 2 -26 7c-17 10 -26 25 -26 45c0 11 3 21 9 32
c41 69 105 104 192 104c63 0 111 -18 146 -54s52 -79 52 -129c0 -125 -84 -261 -251 -409c-5 -5 -9 -8 -10 -9z" />
    <glyph glyph-name="three" unicode="3" horiz-adv-x="520" 
d="M436 533c0 -79 -36 -135 -107 -167c85 -16 134 -84 134 -169c0 -63 -22 -114 -65 -151c-43 -38 -98 -57 -164 -57c-81 0 -132 21 -192 68c-15 12 -23 27 -23 46c0 12 4 23 11 34c12 15 27 23 46 23c11 0 23 -4 34 -11c43 -30 82 -45 117 -45c72 0 113 41 113 97
c0 64 -49 99 -130 99c-31 0 -59 23 -59 58s26 57 57 57c57 0 105 39 105 96c0 52 -30 85 -89 85c-30 0 -61 -11 -92 -32c-11 -9 -24 -13 -39 -13c-16 0 -29 6 -40 19c-7 9 -11 20 -11 32c0 19 7 34 22 46c53 42 110 63 171 63c121 0 201 -69 201 -178z" />
    <glyph glyph-name="four" unicode="4" horiz-adv-x="562" 
d="M479 162h-32v-112c0 -32 -26 -58 -57 -58c-32 0 -58 26 -58 58v112h-269c-33 0 -58 21 -58 53c0 12 7 30 21 55l245 414c11 19 28 28 49 28c9 0 19 -3 30 -8c19 -13 28 -29 28 -50c0 -11 -3 -21 -8 -30l-208 -347h170v115c0 32 26 58 58 58c31 0 57 -26 57 -58v-115h32
c32 0 58 -26 58 -57c0 -32 -26 -58 -58 -58z" />
    <glyph glyph-name="five" unicode="5" horiz-adv-x="502" 
d="M218 104c67 0 115 49 115 118c0 72 -57 124 -149 124c-17 0 -34 -1 -50 -3c-3 0 -7 -1 -10 -1c-29 0 -47 18 -47 47c0 1 1 9 1 10l30 245c4 32 31 56 63 56h219c31 0 56 -25 56 -57c0 -33 -25 -58 -56 -58h-174l-20 -139c15 3 28 4 40 4c63 0 116 -20 158 -61
c41 -41 62 -95 62 -162c0 -73 -23 -131 -69 -174s-103 -64 -172 -64c-62 0 -120 23 -174 70c-11 10 -17 23 -17 39c0 12 4 23 12 34c11 13 24 20 39 20c13 0 25 -4 38 -13c35 -23 70 -35 105 -35z" />
    <glyph glyph-name="six" unicode="6" horiz-adv-x="566" 
d="M325 433c55 0 101 -20 139 -60s57 -91 57 -154c0 -70 -23 -126 -68 -167c-45 -42 -98 -63 -158 -63c-76 0 -137 25 -182 75s-68 111 -68 184c0 112 37 218 96 293s130 130 206 161c7 3 16 5 27 5c23 0 39 -10 47 -30c3 -5 4 -12 4 -19c0 -24 -13 -42 -39 -53
c-99 -44 -176 -125 -205 -237c31 43 79 65 144 65zM296 104c61 0 103 48 103 107c0 67 -41 115 -113 115c-57 0 -98 -35 -119 -79c0 -83 48 -143 129 -143z" />
    <glyph glyph-name="seven" unicode="7" horiz-adv-x="490" 
d="M124 83l203 502h-244c-32 0 -58 26 -58 58c0 31 26 57 58 57h324c32 0 58 -26 58 -59c0 -11 -2 -23 -7 -35l-224 -563c-11 -29 -31 -43 -60 -43c-31 0 -56 23 -56 55c0 9 2 18 6 28z" />
    <glyph glyph-name="eight" unicode="8" horiz-adv-x="599" 
d="M400 507c0 56 -41 89 -102 89c-60 0 -99 -37 -99 -89c0 -48 39 -90 92 -90h19c52 0 90 42 90 90zM180 203c0 -57 46 -99 119 -99c79 0 121 40 121 97v2c-1 63 -46 99 -110 99h-17c-61 0 -113 -39 -113 -99zM523 527c0 -69 -41 -137 -108 -166c72 -17 127 -82 127 -170
c0 -63 -23 -112 -68 -148c-46 -36 -104 -54 -174 -54s-128 18 -174 53s-69 81 -69 139c0 87 49 152 120 179c-57 25 -100 88 -100 167c0 54 21 98 64 133c43 34 95 51 158 51s117 -17 160 -51c43 -35 64 -79 64 -133z" />
    <glyph glyph-name="nine" unicode="9" horiz-adv-x="555" 
d="M241 261c-59 0 -109 21 -150 62s-61 93 -61 155c0 70 24 126 71 169s101 64 161 64c77 0 137 -25 182 -74c44 -49 66 -114 66 -193c0 -244 -121 -399 -322 -447c-7 -1 -12 -2 -15 -2c-25 0 -44 17 -48 38c-1 3 -1 6 -1 10c0 24 13 40 39 49c115 36 186 113 211 232
c-31 -42 -75 -63 -133 -63zM262 596c-63 0 -110 -51 -110 -110c0 -64 46 -117 117 -117c55 0 95 25 119 76c0 85 -46 151 -126 151z" />
    <glyph glyph-name="colon" unicode=":" horiz-adv-x="318" 
d="M162 461c41 0 73 -37 73 -74c0 -43 -32 -80 -73 -80c-48 0 -80 37 -80 80c0 37 32 74 80 74zM162 149c41 0 73 -37 73 -74c0 -43 -32 -80 -73 -80c-48 0 -80 37 -80 80c0 37 32 74 80 74z" />
    <glyph glyph-name="semicolon" unicode=";" horiz-adv-x="324" 
d="M162 461c41 0 73 -37 73 -74c0 -43 -32 -80 -73 -80c-48 0 -80 37 -80 80c0 37 32 74 80 74zM162 -1c0 2 -1 5 -2 9c-11 -21 -81 -3 -77 56c0 43 29 73 77 73c53 0 88 -47 88 -112c0 -67 -33 -120 -98 -159c-5 -3 -10 -4 -14 -4c-13 0 -22 5 -29 16c-3 5 -4 10 -4 16
c0 12 5 21 15 28c15 12 26 25 33 40s11 27 11 37z" />
    <glyph glyph-name="less" unicode="&#x3c;" horiz-adv-x="552" 
d="M64 404l350 204c11 6 21 9 31 9c29 0 52 -25 52 -53c0 -21 -11 -38 -32 -51l-275 -151l275 -153c21 -13 32 -30 32 -51c0 -29 -24 -52 -53 -52c-11 0 -20 3 -29 8l-351 204c-41 25 -41 63 0 86z" />
    <glyph glyph-name="equal" unicode="=" 
d="M117 505h362c28 0 51 -23 51 -50s-23 -50 -51 -50h-362c-28 0 -51 23 -51 50s23 50 51 50zM117 315h362c28 0 51 -23 51 -50s-23 -50 -51 -50h-362c-28 0 -51 23 -51 50s23 50 51 50z" />
    <glyph glyph-name="greater" unicode="&#x3e;" horiz-adv-x="552" 
d="M138 608l350 -204c41 -23 41 -61 0 -86l-351 -204c-9 -5 -18 -8 -29 -8c-29 0 -53 23 -53 52c0 21 11 38 32 51l275 153l-275 151c-21 13 -32 30 -32 51c0 28 23 53 52 53c10 0 20 -3 31 -9z" />
    <glyph glyph-name="question" unicode="?" horiz-adv-x="455" 
d="M292 317c-24 -24 -39 -47 -46 -69c-8 -25 -25 -37 -52 -37c-35 0 -52 25 -52 56v5c3 31 23 62 37 75c7 7 18 17 34 30c3 3 6 5 7 6c5 5 30 25 37 31s25 23 30 32c10 17 20 37 20 64c0 48 -41 86 -94 86c-33 0 -61 -7 -82 -22c-31 -21 -62 -22 -81 1c-9 11 -13 22 -13 33
c0 15 7 29 20 42c41 41 95 61 163 61c65 0 116 -17 154 -50c37 -34 56 -76 56 -126c0 -76 -30 -121 -64 -153c-20 -20 -58 -49 -74 -65zM122 75c0 37 32 74 79 74c43 0 74 -37 74 -74c0 -43 -31 -80 -74 -80c-47 0 -79 37 -79 80z" />
    <glyph glyph-name="at" unicode="@" horiz-adv-x="995" 
d="M57 225c0 124 43 228 129 313s193 127 322 127c124 0 227 -36 308 -108c81 -73 122 -167 122 -284c0 -73 -20 -137 -59 -191c-40 -55 -95 -82 -165 -82h-68c-27 0 -46 17 -47 36c-33 -31 -75 -47 -124 -47c-67 0 -121 22 -161 65s-60 100 -60 171c0 67 24 123 73 168
s110 68 185 68c61 0 118 -12 169 -37c22 -10 33 -27 33 -50v-267h20c56 0 97 66 97 166c0 80 -29 148 -88 203s-138 82 -235 82s-179 -30 -244 -91c-66 -61 -99 -141 -99 -242c0 -96 33 -175 100 -239c66 -63 147 -94 243 -94c19 0 36 1 53 3c3 0 8 1 11 1
c34 0 53 -14 58 -43c1 -3 1 -6 1 -11c0 -29 -20 -49 -51 -53c-22 -3 -46 -5 -72 -5c-130 0 -238 41 -323 124s-128 189 -128 317zM599 143v188c-31 15 -60 22 -88 22c-84 0 -134 -58 -134 -133c0 -77 47 -124 119 -124c40 0 74 16 103 47z" />
    <glyph glyph-name="A" unicode="A" horiz-adv-x="689" 
d="M549 30l-58 141h-299l-59 -145c-9 -23 -26 -34 -53 -34c-32 0 -57 25 -57 56c0 7 2 14 5 22l249 585c15 33 38 50 69 50c30 0 52 -17 67 -50l248 -583c3 -9 5 -17 5 -24c0 -31 -26 -56 -57 -56c-30 0 -50 13 -60 38zM444 286l-102 251l-103 -251h205z" />
    <glyph glyph-name="B" unicode="B" horiz-adv-x="617" 
d="M529 530c0 -75 -33 -128 -100 -160c73 -19 123 -76 123 -164c0 -139 -104 -210 -260 -210c-33 0 -78 1 -134 2c-33 1 -61 30 -61 63v577c0 33 28 61 61 62c43 2 90 3 141 3c159 0 230 -69 230 -173zM307 301h-87v-185c28 -3 55 -5 81 -5c85 0 128 34 128 101
c0 59 -45 89 -122 89zM220 585v-177h83c61 0 104 32 104 93c0 56 -42 87 -110 87c-29 0 -55 -1 -77 -3z" />
    <glyph glyph-name="C" unicode="C" horiz-adv-x="645" 
d="M509 573c-36 15 -71 23 -106 23c-66 0 -120 -22 -163 -67s-65 -104 -65 -179c0 -73 23 -132 68 -177c45 -46 103 -69 174 -69c37 0 75 9 112 27c15 7 29 10 40 10c19 0 34 -8 45 -23c7 -9 10 -20 10 -32c0 -21 -9 -37 -28 -49c-49 -32 -112 -48 -190 -48
c-107 0 -194 33 -261 99s-100 153 -100 262c0 105 32 191 95 259s151 102 263 102c59 0 111 -12 158 -36c25 -12 38 -29 38 -52c0 -9 -3 -18 -8 -29c-11 -19 -27 -28 -49 -28c-12 0 -23 2 -33 7z" />
    <glyph glyph-name="D" unicode="D" horiz-adv-x="741" 
d="M158 701c68 1 116 2 145 2c280 0 393 -161 393 -346c0 -104 -35 -190 -104 -257c-70 -68 -169 -102 -297 -102c-18 0 -64 1 -137 2c-35 0 -61 28 -61 61v578c0 33 26 61 61 62zM220 585v-470c23 -1 49 -2 79 -2c167 0 267 95 267 244c0 143 -100 231 -265 231
c-26 0 -53 -1 -81 -3z" />
    <glyph glyph-name="E" unicode="E" horiz-adv-x="575" 
d="M220 296v-181h236c31 0 56 -25 56 -57c0 -33 -25 -58 -56 -58h-303c-31 0 -56 25 -56 56v588c0 31 25 56 56 56h293c31 0 56 -25 56 -57c0 -33 -25 -58 -56 -58h-226v-174h196c31 0 56 -25 56 -57c0 -33 -25 -58 -56 -58h-196z" />
    <glyph glyph-name="F" unicode="F" horiz-adv-x="537" 
d="M411 272h-191v-219c0 -33 -28 -61 -61 -61c-35 0 -62 26 -62 61v591c0 31 25 56 56 56h288c31 0 56 -25 56 -57c0 -33 -25 -58 -56 -58h-221v-198h191c31 0 56 -25 56 -57c0 -33 -25 -58 -56 -58z" />
    <glyph glyph-name="G" unicode="G" horiz-adv-x="727" 
d="M45 350c0 104 33 190 99 259c65 68 154 102 265 102c59 0 111 -12 158 -36c25 -12 38 -29 38 -52c0 -9 -3 -18 -8 -29c-11 -19 -27 -28 -49 -28c-12 0 -23 2 -33 7c-36 15 -71 23 -106 23c-69 0 -126 -22 -169 -65c-43 -44 -65 -104 -65 -181c0 -74 22 -133 65 -178
s101 -68 172 -68c53 0 118 23 145 48v110h-113c-31 0 -56 25 -56 58c0 32 25 57 56 57h172c31 0 56 -25 56 -56v-189c0 -34 -15 -61 -44 -80c-61 -39 -147 -63 -218 -63c-113 0 -202 33 -267 98s-98 153 -98 263z" />
    <glyph glyph-name="H" unicode="H" horiz-adv-x="759" 
d="M662 644v-591c0 -33 -28 -61 -61 -61s-61 28 -61 61v246h-320v-246c0 -33 -28 -61 -61 -61c-35 0 -62 26 -62 61v591c0 35 27 61 62 61c33 0 61 -26 61 -61v-230h320v230c0 35 28 61 61 61s61 -26 61 -61z" />
    <glyph glyph-name="I" unicode="I" horiz-adv-x="347" 
d="M235 644v-591c0 -33 -26 -61 -61 -61s-62 26 -62 61v591c0 35 27 61 62 61s61 -26 61 -61z" />
    <glyph glyph-name="J" unicode="J" horiz-adv-x="386" 
d="M166 186v458c0 35 27 61 62 61s61 -26 61 -61v-479c0 -113 -57 -176 -169 -176c-25 0 -48 3 -68 10c-29 10 -43 28 -43 54c0 8 1 14 2 18c6 25 22 38 49 38c3 0 8 -1 9 -1c16 -3 27 -4 34 -4c42 0 63 27 63 82z" />
    <glyph glyph-name="K" unicode="K" horiz-adv-x="649" 
d="M483 29l-263 332v-308c0 -33 -28 -61 -61 -61c-35 0 -62 26 -62 61v591c0 35 27 61 62 61c33 0 61 -26 61 -61v-276l252 304c18 22 37 33 56 33c32 0 55 -23 55 -51c0 -17 -6 -31 -18 -44l-209 -236l227 -278c13 -16 20 -32 20 -49c0 -32 -25 -55 -61 -55
c-20 0 -40 12 -59 37z" />
    <glyph glyph-name="L" unicode="L" horiz-adv-x="547" 
d="M220 644v-529h254c33 0 61 -26 61 -57s-28 -58 -61 -58h-316c-35 0 -61 28 -61 61v583c0 35 27 61 62 61c33 0 61 -26 61 -61z" />
    <glyph glyph-name="M" unicode="M" horiz-adv-x="901" 
d="M394 263l-174 231v-441c0 -33 -28 -61 -61 -61c-35 0 -62 26 -62 61v584c0 39 28 68 69 68c29 0 55 -15 77 -44l217 -288l207 286c22 31 47 46 76 46c36 0 61 -26 61 -61v-591c0 -33 -28 -61 -61 -61s-61 28 -61 61v442l-172 -232c-33 -45 -83 -45 -116 0z" />
    <glyph glyph-name="N" unicode="N" horiz-adv-x="792" 
d="M218 671l362 -458v436c0 31 25 56 58 56c32 0 57 -25 57 -56v-601c0 -32 -23 -56 -55 -56c-25 0 -47 12 -66 37l-362 456v-437c0 -31 -25 -56 -57 -56c-33 0 -58 25 -58 56v601c0 32 26 56 59 56c23 0 44 -11 62 -34z" />
    <glyph glyph-name="O" unicode="O" horiz-adv-x="819" 
d="M45 350c0 103 34 189 103 258c68 69 155 103 261 103c105 0 193 -33 262 -100s103 -154 103 -261c0 -105 -35 -191 -104 -259s-156 -102 -261 -102s-192 33 -261 100s-103 154 -103 261zM175 350c0 -70 23 -128 68 -175s100 -71 166 -71c72 0 129 23 172 70
c42 47 63 105 63 176c0 72 -22 131 -67 177s-101 69 -168 69s-123 -23 -167 -69c-45 -46 -67 -105 -67 -177z" />
    <glyph glyph-name="P" unicode="P" horiz-adv-x="612" 
d="M296 702c205 0 271 -109 271 -225c0 -63 -23 -117 -68 -161s-108 -66 -188 -66c-41 0 -71 1 -91 3v-200c0 -33 -28 -61 -61 -61c-35 0 -62 26 -62 61v586c0 33 26 61 61 62c17 0 42 0 75 1h63zM220 585v-215c32 -3 61 -5 87 -5c77 0 130 38 130 113
c0 73 -43 109 -129 109c-15 0 -44 -1 -88 -2z" />
    <glyph glyph-name="Q" unicode="Q" horiz-adv-x="819" 
d="M619 2l-27 31c-53 -29 -114 -44 -183 -44c-105 0 -192 33 -261 100s-103 154 -103 261c0 103 34 189 103 258c68 69 155 103 261 103c105 0 193 -33 262 -100s103 -154 103 -261c0 -99 -32 -183 -96 -250l24 -27c9 -11 14 -24 14 -37c0 -16 -6 -30 -18 -41
c-10 -8 -22 -12 -35 -12c-19 0 -33 6 -44 19zM571 224l26 -30c31 44 47 96 47 156c0 72 -22 131 -67 177s-101 69 -168 69s-123 -23 -167 -69c-45 -46 -67 -105 -67 -177c0 -70 23 -128 68 -175s100 -71 166 -71c37 0 72 7 105 22l-23 26c-9 11 -13 23 -13 37
c0 17 6 30 17 40c11 9 23 14 36 14c16 0 29 -6 40 -19z" />
    <glyph glyph-name="R" unicode="R" horiz-adv-x="637" 
d="M479 27l-173 235h-86v-209c0 -33 -28 -61 -61 -61c-35 0 -62 26 -62 61v586c0 33 26 61 61 61c79 1 129 2 152 2c169 0 254 -72 254 -216c0 -54 -14 -98 -41 -131c-27 -34 -59 -57 -94 -69l153 -201c9 -11 13 -24 13 -37c0 -31 -24 -56 -59 -56c-21 0 -40 12 -57 35z
M220 585v-208h80c76 0 134 40 134 108s-43 102 -130 102c-12 0 -40 -1 -84 -2z" />
    <glyph glyph-name="S" unicode="S" horiz-adv-x="529" 
d="M43 104c0 14 5 27 15 39c11 13 25 20 43 20c15 0 30 -5 44 -15c39 -29 76 -44 111 -44c60 0 102 30 102 82c0 137 -317 105 -317 332c0 55 20 101 60 138c39 37 92 55 158 55c55 0 100 -10 137 -29c27 -14 41 -32 41 -55c0 -9 -3 -19 -9 -29c-11 -19 -26 -28 -47 -28
c-11 0 -21 2 -31 7c-31 13 -58 20 -83 20c-60 0 -96 -31 -96 -78c0 -145 317 -99 317 -332c0 -58 -22 -105 -67 -142s-100 -56 -167 -56c-73 0 -135 23 -188 68c-15 13 -23 29 -23 47z" />
    <glyph glyph-name="T" unicode="T" horiz-adv-x="597" 
d="M237 53v532h-171c-31 0 -56 25 -56 58c0 32 25 57 56 57h465c31 0 56 -25 56 -57c0 -33 -25 -58 -56 -58h-171v-532c0 -33 -28 -61 -61 -61c-35 0 -62 26 -62 61z" />
    <glyph glyph-name="U" unicode="U" horiz-adv-x="750" 
d="M541 315v329c0 35 26 61 61 61s61 -26 61 -61v-354c0 -101 -26 -176 -79 -226s-119 -75 -199 -75c-90 0 -162 27 -216 80c-55 53 -82 129 -82 228v347c0 35 27 61 62 61c33 0 61 -26 61 -61v-321c0 -136 58 -219 175 -219c104 0 156 70 156 211z" />
    <glyph glyph-name="V" unicode="V" horiz-adv-x="641" 
d="M134 666l194 -481l186 481c11 26 28 39 51 39c37 0 60 -23 60 -54c0 -10 -2 -20 -6 -30l-235 -585c-12 -29 -32 -44 -61 -44c-28 0 -48 15 -60 44l-242 586c-3 9 -5 17 -5 25c0 32 23 58 60 58c28 0 47 -13 58 -39z" />
    <glyph glyph-name="W" unicode="W" horiz-adv-x="972" 
d="M568 646l145 -446l127 454c10 34 29 51 57 51c35 0 58 -24 58 -53c0 -6 -1 -12 -3 -18l-168 -582c-12 -40 -36 -60 -71 -60c-36 0 -61 20 -74 59l-152 451l-149 -450c-13 -40 -38 -60 -75 -60c-36 0 -60 20 -72 60l-171 567c-2 7 -3 15 -3 22c0 36 25 64 69 64
c31 0 51 -17 61 -51l128 -453l142 445c13 39 38 59 76 59c37 0 62 -20 75 -59z" />
    <glyph glyph-name="X" unicode="X" horiz-adv-x="630" 
d="M167 670l151 -223l149 222c17 24 36 36 57 36c36 0 58 -25 58 -57c0 -12 -4 -24 -11 -35l-176 -256l185 -269c9 -13 13 -25 13 -38c0 -32 -25 -58 -58 -58c-22 0 -40 10 -55 31l-165 240l-163 -239c-15 -21 -34 -32 -55 -32c-33 0 -60 25 -60 56c0 13 5 27 14 40l185 269
l-174 255c-8 12 -12 24 -12 37c0 31 25 56 61 56c21 0 40 -12 56 -35z" />
    <glyph glyph-name="Y" unicode="Y" horiz-adv-x="599" 
d="M148 668l155 -261l153 261c15 25 34 37 57 37c35 0 55 -24 55 -53c0 -11 -3 -22 -10 -33l-199 -327v-239c0 -33 -26 -61 -61 -61s-62 26 -62 61v239l-195 322c-7 12 -10 23 -10 34c0 31 24 57 61 57c22 0 41 -12 56 -37z" />
    <glyph glyph-name="Z" unicode="Z" horiz-adv-x="631" 
d="M535 0h-457c-32 0 -56 21 -56 54c0 15 8 32 24 51l370 480h-311c-31 0 -56 25 -56 58c0 32 25 57 56 57h429c49 -3 82 -42 30 -107l-371 -478h342c31 0 56 -25 56 -57c0 -33 -25 -58 -56 -58z" />
    <glyph glyph-name="bracketleft" unicode="[" horiz-adv-x="350" 
d="M175 -93h106c29 0 54 -25 54 -54c0 -28 -25 -53 -54 -53h-167c-29 0 -54 25 -54 54v742c0 29 25 54 54 54h167c29 0 54 -25 54 -54s-25 -54 -54 -54h-106v-635z" />
    <glyph glyph-name="backslash" unicode="\" horiz-adv-x="370" 
d="M288 -166l-296 799c-2 6 -3 12 -3 19c0 21 9 36 27 43c6 2 12 3 18 3c22 0 37 -10 45 -30l299 -801c2 -5 3 -10 3 -15c0 -23 -11 -38 -32 -45c-3 -1 -9 -2 -16 -2c-23 0 -38 10 -45 29z" />
    <glyph glyph-name="bracketright" unicode="]" horiz-adv-x="350" 
d="M175 542h-106c-29 0 -54 25 -54 54s25 54 54 54h167c29 0 54 -25 54 -54v-742c0 -29 -25 -54 -54 -54h-167c-29 0 -54 25 -54 53c0 29 25 54 54 54h106v635z" />
    <glyph glyph-name="asciicircum" unicode="^" horiz-adv-x="507" 
d="M329 483l-75 110l-77 -110c-15 -22 -32 -33 -50 -33c-29 0 -49 21 -49 48c0 14 4 26 12 37l102 140c21 29 42 43 63 43s41 -14 62 -43l100 -140c9 -13 13 -25 13 -38c0 -27 -21 -47 -45 -47c-22 0 -41 11 -56 33z" />
    <glyph glyph-name="underscore" unicode="_" horiz-adv-x="344" 
d="M54 -85h236c29 0 54 -26 54 -58s-25 -57 -54 -57h-236c-29 0 -54 25 -54 57s25 58 54 58z" />
    <glyph glyph-name="grave" unicode="`" horiz-adv-x="315" 
d="M173 693l60 -93c4 -7 6 -14 6 -23c0 -16 -6 -28 -18 -36c-7 -5 -16 -8 -26 -8c-15 0 -27 5 -36 15l-71 81c-7 7 -10 15 -10 26c0 13 5 23 15 30l25 18c7 5 15 8 23 8c14 0 25 -6 32 -18z" />
    <glyph glyph-name="a" unicode="a" horiz-adv-x="463" 
d="M35 132c0 95 68 146 164 146c41 0 75 -10 102 -29v14c0 69 -23 102 -84 102c-25 0 -49 -3 -70 -10c-11 -3 -18 -4 -23 -4c-18 0 -31 8 -39 24c-3 6 -4 12 -4 19c0 19 11 34 33 43c37 16 75 24 115 24c128 0 180 -63 180 -187v-229c0 -27 -22 -51 -51 -51s-49 22 -49 54
c-29 -36 -73 -54 -133 -54c-84 0 -141 53 -141 138zM301 132v46c-19 15 -46 22 -79 22c-41 0 -72 -20 -72 -56c0 -33 27 -53 64 -53c39 0 68 14 87 41z" />
    <glyph glyph-name="b" unicode="b" horiz-adv-x="548" 
d="M179 644v-222c33 26 73 39 119 39c66 0 118 -21 157 -63c38 -43 57 -98 57 -166c0 -74 -23 -133 -69 -177c-47 -44 -109 -66 -188 -66c-49 0 -96 9 -141 26c-33 13 -50 37 -50 72v557c0 31 25 56 58 56c32 0 57 -25 57 -56zM179 310v-191c24 -15 51 -23 82 -23
c75 0 128 49 128 128c0 83 -50 129 -118 129c-37 0 -67 -14 -92 -43z" />
    <glyph glyph-name="c" unicode="c" horiz-adv-x="476" 
d="M351 341c-22 8 -44 12 -67 12c-33 0 -62 -12 -87 -35c-25 -24 -38 -55 -38 -93c0 -77 59 -129 130 -129c29 0 53 6 74 18c13 8 26 12 40 12c15 0 29 -7 40 -21c7 -9 10 -19 10 -30c0 -18 -8 -33 -24 -45c-37 -27 -86 -41 -146 -41c-75 0 -134 22 -179 65s-68 100 -68 171
c0 67 22 123 66 168s100 68 167 68c53 0 95 -8 127 -24c24 -11 36 -27 36 -48c0 -6 -2 -14 -7 -25c-10 -19 -25 -29 -46 -29c-9 0 -18 2 -28 6z" />
    <glyph glyph-name="d" unicode="d" horiz-adv-x="556" 
d="M492 644v-588c0 -35 -18 -64 -57 -64c-33 0 -57 22 -58 55c-35 -37 -78 -55 -129 -55c-64 0 -115 21 -154 63c-39 41 -58 96 -58 165c0 71 23 129 69 174s105 67 178 67c38 0 69 -7 94 -22v205c0 31 25 56 58 56c32 0 57 -25 57 -56zM377 145v181c-29 18 -58 27 -89 27
c-72 0 -129 -49 -129 -129c0 -77 49 -125 113 -125c39 0 74 15 105 46z" />
    <glyph glyph-name="e" unicode="e" horiz-adv-x="523" 
d="M372 267v2c0 56 -39 96 -103 96c-65 0 -105 -33 -118 -98h221zM442 190h-287c9 -67 63 -105 135 -105c31 0 59 6 84 17c11 5 19 7 26 7c15 0 27 -7 36 -21c5 -8 7 -15 7 -22c0 -17 -8 -30 -23 -39c-43 -25 -90 -38 -142 -38c-73 0 -131 22 -175 65
c-45 43 -67 100 -67 171c0 67 22 124 65 169s101 67 173 67c59 0 110 -19 151 -58s62 -90 62 -151v-21c-3 -27 -18 -41 -45 -41z" />
    <glyph glyph-name="f" unicode="f" horiz-adv-x="330" 
d="M250 342h-66v-294c0 -31 -25 -56 -57 -56c-33 0 -58 25 -58 56v475c0 123 59 188 160 188c74 0 111 -19 111 -57c0 -35 -19 -53 -57 -53c-9 0 -30 3 -38 3c-39 0 -61 -33 -61 -90v-64h66c31 0 56 -25 56 -54s-25 -54 -56 -54z" />
    <glyph glyph-name="g" unicode="g" horiz-adv-x="506" 
d="M228 109c0 -9 3 -17 9 -23c140 0 236 -50 236 -147s-95 -147 -234 -147c-140 0 -234 48 -234 147c0 72 57 120 146 139c-5 9 -8 20 -8 31c0 13 3 23 10 32c-67 27 -107 84 -107 151c0 47 18 87 53 120s82 49 139 49c43 0 82 -11 115 -32l91 20c3 1 6 1 11 1
c21 0 40 -14 45 -35c1 -2 1 -5 1 -9c0 -21 -15 -41 -36 -45l-47 -11c7 -19 11 -38 11 -58c0 -47 -18 -86 -53 -118c-36 -32 -83 -48 -142 -48c-4 -4 -6 -10 -6 -17zM112 -61c0 -35 48 -55 127 -55c84 0 126 18 126 55c0 33 -45 55 -126 55c-80 0 -127 -22 -127 -55zM177 346
c-49 -45 -16 -133 61 -127c49 0 84 29 84 73s-32 76 -84 76c-25 0 -46 -7 -61 -22z" />
    <glyph glyph-name="h" unicode="h" horiz-adv-x="546" 
d="M179 309v-261c0 -31 -25 -56 -57 -56c-33 0 -58 25 -58 56v596c0 31 25 56 58 56c32 0 57 -25 57 -56v-235c34 33 77 49 129 49c116 0 185 -61 185 -197v-213c0 -31 -25 -56 -57 -56c-33 0 -58 25 -58 56v198c0 67 -36 104 -100 104c-39 0 -72 -14 -99 -41z" />
    <glyph glyph-name="i" unicode="i" horiz-adv-x="277" 
d="M196 401v-353c0 -31 -25 -56 -57 -56c-33 0 -58 25 -58 56v353c0 31 25 56 58 56c32 0 57 -25 57 -56zM141 679c35 0 66 -27 66 -67c0 -44 -31 -72 -66 -72c-41 0 -72 28 -72 72c0 40 32 67 72 67z" />
    <glyph glyph-name="j" unicode="j" horiz-adv-x="296" 
d="M99 -23v424c0 31 25 56 58 56c32 0 57 -25 57 -56v-434c0 -117 -47 -175 -141 -175c-53 0 -96 19 -96 62c0 21 9 35 28 41c5 2 13 3 22 3h17c37 0 55 26 55 79zM160 679c35 0 66 -27 66 -67c0 -44 -31 -72 -66 -72c-41 0 -72 28 -72 72c0 40 32 67 72 67z" />
    <glyph glyph-name="k" unicode="k" horiz-adv-x="494" 
d="M342 23l-138 181c-7 9 -10 19 -10 32c0 11 3 21 10 30l120 160c15 21 33 31 54 31c35 0 55 -24 55 -53c0 -13 -4 -25 -13 -36l-102 -124l123 -158c9 -13 14 -25 14 -38c0 -31 -24 -56 -57 -56c-22 0 -41 10 -56 31zM179 644v-596c0 -31 -25 -56 -57 -56
c-33 0 -58 25 -58 56v596c0 31 25 56 58 56c32 0 57 -25 57 -56z" />
    <glyph glyph-name="l" unicode="l" horiz-adv-x="299" 
d="M179 644v-473c0 -47 14 -71 42 -71h17c11 0 18 -1 23 -3c19 -7 28 -20 28 -41c0 -43 -36 -64 -109 -64c-77 0 -116 44 -116 132v520c0 31 25 56 58 56c32 0 57 -25 57 -56z" />
    <glyph glyph-name="m" unicode="m" horiz-adv-x="800" 
d="M179 401c35 38 82 57 141 57c67 0 114 -29 131 -72c37 48 87 72 152 72c96 0 144 -55 144 -164v-246c0 -31 -25 -56 -57 -56c-33 0 -58 25 -58 56v216c0 57 -26 86 -77 86c-44 0 -75 -17 -93 -52c0 -4 1 -26 1 -33v-217c0 -31 -25 -56 -57 -56c-33 0 -58 25 -58 56v224
c0 48 -27 78 -75 78c-41 0 -73 -16 -94 -48v-254c0 -31 -25 -56 -57 -56c-33 0 -58 25 -58 56v346c0 39 23 63 59 63c32 0 56 -23 56 -56z" />
    <glyph glyph-name="n" unicode="n" horiz-adv-x="546" 
d="M123 457c32 0 56 -23 56 -51c33 35 76 52 129 52c123 0 185 -65 185 -194v-216c0 -31 -25 -56 -57 -56c-33 0 -58 25 -58 56v196c0 71 -34 106 -101 106c-37 0 -69 -14 -98 -43v-259c0 -31 -25 -56 -57 -56c-33 0 -58 25 -58 56v346c0 39 23 63 59 63z" />
    <glyph glyph-name="o" unicode="o" horiz-adv-x="562" 
d="M104 56c-45 44 -68 100 -68 169s23 125 68 170c45 44 104 66 177 66s133 -22 178 -66c45 -45 67 -101 67 -170s-22 -125 -67 -169c-45 -45 -105 -67 -178 -67s-132 22 -177 67zM159 225c0 -75 51 -129 122 -129c72 0 123 52 123 129c0 75 -52 128 -123 128
c-69 0 -122 -52 -122 -128z" />
    <glyph glyph-name="p" unicode="p" horiz-adv-x="558" 
d="M179 304v-182c27 -17 58 -26 95 -26c77 0 126 56 126 133c0 73 -43 124 -118 124c-39 0 -74 -16 -103 -49zM64 -144v536c0 41 23 65 59 65c32 0 56 -21 56 -49c29 31 83 53 139 53c61 0 111 -21 148 -64s56 -98 56 -165c0 -70 -22 -128 -66 -174s-101 -69 -172 -69
c-45 0 -80 7 -105 22v-155c0 -31 -25 -56 -57 -56c-33 0 -58 25 -58 56z" />
    <glyph glyph-name="q" unicode="q" horiz-adv-x="559" 
d="M496 358v-502c0 -31 -25 -56 -57 -56c-33 0 -58 25 -58 56v167c-35 -23 -72 -34 -111 -34c-71 0 -128 22 -170 65c-43 43 -64 100 -64 171c0 67 24 123 73 168s110 68 185 68c54 0 105 -10 152 -29c33 -14 50 -39 50 -74zM381 137v194c-31 15 -60 22 -88 22
c-84 0 -134 -58 -134 -133c0 -72 50 -124 126 -124c39 0 71 14 96 41z" />
    <glyph glyph-name="r" unicode="r" horiz-adv-x="349" 
d="M123 457c32 0 56 -22 56 -50c27 35 61 53 102 53c29 0 59 -17 59 -52c0 -39 -24 -59 -72 -59c-3 0 -12 1 -16 1h-7c-29 0 -51 -16 -66 -48v-254c0 -31 -25 -56 -57 -56c-33 0 -58 25 -58 56v346c0 39 23 63 59 63z" />
    <glyph glyph-name="s" unicode="s" horiz-adv-x="424" 
d="M34 79c0 11 3 21 10 28c10 12 22 18 36 18c11 0 22 -4 33 -11c31 -19 65 -29 104 -29c35 0 59 15 59 42s-38 42 -85 55c-70 18 -158 44 -158 142c0 85 69 137 165 137c53 0 98 -11 137 -34c16 -10 24 -23 24 -39c0 -8 -2 -16 -6 -23c-9 -15 -22 -23 -40 -23
c-9 0 -18 2 -27 6c-26 11 -53 17 -82 17c-33 0 -56 -18 -56 -39c0 -42 87 -52 157 -77c48 -17 86 -57 86 -116c0 -88 -71 -144 -182 -144c-63 0 -115 17 -156 51c-13 11 -19 24 -19 39z" />
    <glyph glyph-name="t" unicode="t" horiz-adv-x="347" 
d="M274 102c29 0 46 -21 46 -46c0 -20 -10 -35 -31 -46c-26 -13 -58 -20 -95 -20c-99 0 -140 61 -140 181v348c0 31 25 56 58 56c32 0 57 -25 57 -56v-69h89c31 0 56 -25 56 -54s-25 -54 -56 -54h-89v-164c0 -54 17 -81 52 -81c19 0 45 5 53 5z" />
    <glyph glyph-name="u" unicode="u" horiz-adv-x="535" 
d="M356 151v250c0 31 25 56 58 56c32 0 57 -25 57 -56v-353c0 -31 -25 -56 -58 -56s-57 24 -57 63c-36 -44 -84 -66 -144 -66c-93 0 -158 63 -158 186v226c0 31 25 56 58 56c32 0 57 -25 57 -56v-202c0 -69 29 -103 86 -103c39 0 73 18 101 55z" />
    <glyph glyph-name="v" unicode="v" horiz-adv-x="467" 
d="M139 415l68 -158c15 -33 26 -67 34 -102c9 37 20 72 33 104l66 162c10 24 28 36 54 36c31 0 54 -25 54 -54c0 -8 -1 -15 -4 -21l-150 -349c-11 -27 -30 -41 -57 -41s-46 14 -59 41l-153 335c-4 9 -6 19 -6 28c0 35 25 61 64 61c25 0 44 -14 56 -42z" />
    <glyph glyph-name="w" unicode="w" horiz-adv-x="708" 
d="M423 406l72 -200c5 -13 10 -34 17 -62c6 30 11 52 14 65l56 203c8 30 26 45 54 45c33 0 55 -21 55 -50c0 -4 -1 -11 -4 -22l-107 -343c-10 -33 -32 -50 -65 -50s-56 16 -69 49l-79 207c-5 13 -14 49 -15 53c-4 -19 -9 -38 -16 -55l-78 -205c-12 -33 -34 -49 -65 -49
s-53 17 -64 50l-109 336c-2 7 -3 13 -3 20c0 32 22 59 59 59c29 0 47 -15 55 -44l61 -208c3 -13 8 -33 13 -60c9 31 14 51 17 60l70 201c12 34 34 51 65 51c32 0 54 -17 66 -51z" />
    <glyph glyph-name="x" unicode="x" horiz-adv-x="478" 
d="M164 425l79 -124l82 124c15 21 32 32 53 32c33 0 53 -22 53 -50c0 -12 -4 -23 -11 -34l-96 -138l103 -152c7 -11 11 -23 11 -36c0 -31 -22 -55 -55 -55c-22 0 -40 11 -55 32l-89 138l-93 -138c-15 -21 -33 -32 -54 -32c-33 0 -52 22 -52 50c0 12 4 24 11 35l106 152
l-93 137c-7 11 -10 22 -10 35c0 31 22 56 58 56c21 0 39 -11 52 -32z" />
    <glyph glyph-name="y" unicode="y" horiz-adv-x="485" 
d="M146 415l90 -211c4 -10 11 -32 22 -65c5 29 11 51 16 66l69 209c9 29 29 43 58 43c37 0 60 -23 60 -55c0 -9 -2 -20 -6 -31l-146 -371c-31 -80 -59 -133 -84 -160s-55 -40 -90 -40c-23 0 -43 4 -59 11c-21 9 -32 26 -32 49c0 27 16 48 47 48c8 0 25 -2 32 -2h6
c23 1 44 24 62 70l10 24l-170 367c-5 11 -7 20 -7 29c0 33 25 61 68 61c23 0 43 -18 54 -42z" />
    <glyph glyph-name="z" unicode="z" horiz-adv-x="475" 
d="M389 0h-292c-47 0 -80 50 -30 104l215 238h-172c-29 0 -53 25 -53 54s24 54 53 54h280c33 0 55 -22 55 -53c0 -17 -8 -34 -24 -51l-215 -239h183c29 0 53 -24 53 -53s-24 -54 -53 -54z" />
    <glyph glyph-name="braceleft" unicode="{" horiz-adv-x="351" 
d="M66 160c-41 33 -52 45 -52 66s11 33 52 65c25 19 37 51 37 94v112c0 105 44 153 157 153h16c37 0 61 -22 61 -55c0 -29 -22 -53 -54 -53c-48 0 -65 -20 -65 -85v-117c0 -64 -30 -107 -75 -114c45 -7 75 -50 75 -114v-117c0 -65 17 -85 65 -85c32 0 54 -24 54 -53
c0 -33 -24 -55 -61 -55h-16c-113 0 -157 48 -157 153v112c0 43 -12 74 -37 93z" />
    <glyph glyph-name="bar" unicode="|" horiz-adv-x="339" 
d="M227 644v-596c0 -31 -25 -56 -57 -56c-33 0 -58 25 -58 56v596c0 31 25 56 58 56c32 0 57 -25 57 -56z" />
    <glyph glyph-name="braceright" unicode="}" horiz-adv-x="351" 
d="M285 291c41 -32 52 -44 52 -65s-11 -33 -52 -66c-25 -19 -37 -50 -37 -93v-112c0 -105 -44 -153 -157 -153h-16c-37 0 -61 22 -61 55c0 29 22 53 54 53c48 0 65 20 65 85v117c0 64 30 107 75 114c-45 7 -75 50 -75 114v117c0 65 -17 85 -65 85c-32 0 -54 24 -54 53
c0 33 24 55 61 55h16c113 0 157 -48 157 -153v-112c0 -43 12 -75 37 -94z" />
    <glyph glyph-name="asciitilde" unicode="~" 
d="M549 330c-40 -37 -83 -56 -129 -56c-27 0 -66 12 -116 35s-86 34 -109 34c-25 0 -49 -9 -73 -26c-14 -11 -28 -16 -42 -16c-12 0 -22 4 -31 12c-9 7 -13 18 -13 31c0 11 4 21 11 29c41 46 88 69 141 69c28 0 67 -11 118 -34s89 -35 115 -35c21 0 40 6 59 19
c17 11 30 16 40 16c11 0 21 -5 30 -15c8 -9 12 -20 12 -31c0 -13 -4 -23 -13 -32z" />
    <glyph glyph-name="uni00A0" unicode="&#xa0;" horiz-adv-x="212" 
 />
    <glyph glyph-name="exclamdown" unicode="&#xa1;" horiz-adv-x="309" 
d="M94 -188v341c0 33 28 61 61 61s61 -28 61 -61v-341c0 -35 -28 -61 -61 -61s-61 26 -61 61zM232 381c0 -37 -32 -74 -80 -74c-41 0 -73 37 -73 74c0 43 32 80 73 80c48 0 80 -37 80 -80z" />
    <glyph glyph-name="cent" unicode="&#xa2;" horiz-adv-x="565" 
d="M210 225c0 -77 59 -129 130 -129c28 0 53 6 74 18c13 8 27 12 40 12c16 0 29 -7 40 -21c7 -9 10 -19 10 -30c0 -18 -8 -33 -24 -45c-27 -20 -61 -33 -102 -39v-55c0 -31 -25 -56 -57 -56c-33 0 -58 25 -58 56v61c-109 24 -176 109 -176 228c0 56 16 105 49 148
c32 42 74 69 127 81v54c0 31 25 56 58 56c32 0 57 -25 57 -56v-51c25 -3 48 -10 69 -20c24 -11 36 -27 36 -48c0 -6 -2 -14 -7 -25c-9 -19 -25 -29 -46 -29c-9 0 -18 2 -28 6c-22 8 -44 12 -67 12c-33 0 -62 -12 -87 -35c-25 -24 -38 -55 -38 -93z" />
    <glyph glyph-name="sterling" unicode="&#xa3;" horiz-adv-x="588" 
d="M563 81c0 -19 -9 -35 -28 -48c-35 -25 -77 -37 -126 -37c-26 0 -64 9 -114 26s-88 26 -114 26c-22 0 -43 -7 -64 -22c-15 -9 -28 -14 -40 -14c-15 0 -29 7 -40 21c-8 9 -12 19 -12 32c0 16 6 29 17 39c23 19 46 34 68 43c22 34 33 73 33 118h-35c-28 0 -48 18 -48 47
c0 28 20 45 48 45h16c-2 5 -6 16 -13 34c-7 17 -12 30 -15 39c-6 16 -15 53 -15 85c0 55 21 101 64 138c42 37 96 55 162 55c65 0 119 -16 163 -49c18 -13 27 -29 27 -47c0 -12 -4 -23 -13 -34c-11 -14 -25 -21 -41 -21c-15 0 -30 5 -45 14c-25 15 -54 22 -86 22
c-60 0 -101 -39 -101 -96c0 -21 7 -47 21 -78c13 -32 21 -53 24 -62h127c28 0 48 -17 48 -45c0 -29 -20 -47 -48 -47h-119c-4 -35 -17 -71 -40 -106c15 -3 45 -11 88 -26s76 -22 99 -22c22 0 42 5 61 14c13 7 26 10 39 10c18 0 32 -7 41 -21c7 -11 11 -22 11 -33z" />
    <glyph glyph-name="currency" unicode="&#xa4;" horiz-adv-x="565" 
d="M43 174l44 44c-23 37 -34 78 -34 124c0 47 12 88 35 125l-42 44c-9 11 -14 22 -14 35c0 28 21 49 49 49c15 0 26 -5 35 -14l43 -44c36 21 77 32 124 32c46 0 87 -11 123 -32l46 45c9 9 21 14 35 14c15 0 26 -5 35 -14s14 -20 14 -35c0 -14 -5 -26 -14 -35l-44 -44
c24 -39 36 -81 36 -126c0 -46 -12 -87 -35 -124l42 -41c9 -9 14 -20 14 -35c0 -14 -5 -26 -14 -35c-20 -20 -52 -20 -71 -1l-42 42c-35 -22 -77 -33 -125 -33s-90 11 -125 33l-44 -45c-9 -9 -21 -14 -34 -14c-28 0 -51 23 -51 51c0 13 5 25 14 34zM283 215
c77 0 123 55 123 127c0 76 -47 127 -123 127c-75 0 -123 -51 -123 -127c0 -72 48 -127 123 -127z" />
    <glyph glyph-name="yen" unicode="&#xa5;" horiz-adv-x="565" 
d="M467 117h-126v-64c0 -33 -26 -61 -61 -61s-61 26 -61 61v64h-124c-25 0 -46 22 -46 47s21 46 46 46h124v82h-124c-25 0 -46 22 -46 47s21 46 46 46h72l-127 230c-5 9 -7 18 -7 29c0 33 25 61 61 61c25 0 43 -11 54 -33l137 -265l136 265c11 22 29 33 53 33
c33 0 58 -23 58 -54c0 -11 -3 -21 -8 -30l-132 -236h75c25 0 46 -21 46 -46s-21 -47 -46 -47h-126v-82h126c25 0 46 -21 46 -46s-21 -47 -46 -47z" />
    <glyph glyph-name="brokenbar" unicode="&#xa6;" horiz-adv-x="339" 
d="M112 496v148c0 31 25 56 58 56c32 0 57 -25 57 -56v-148c0 -31 -25 -56 -57 -56c-33 0 -58 25 -58 56zM227 204v-148c0 -31 -25 -56 -57 -56c-33 0 -58 25 -58 56v148c0 31 25 56 58 56c32 0 57 -25 57 -56z" />
    <glyph glyph-name="section" unicode="&#xa7;" horiz-adv-x="523" 
d="M202 -83c11 -7 23 -10 37 -10c33 0 60 27 60 59c0 39 -24 72 -71 99c-108 12 -171 87 -171 184c0 80 45 146 122 173c-48 31 -72 76 -72 135c0 80 64 143 171 143c45 0 83 -14 114 -42c12 -11 18 -23 18 -37c0 -10 -3 -19 -10 -28c-11 -14 -24 -21 -39 -21
c-11 0 -25 4 -43 12c-12 5 -24 8 -36 8c-32 0 -60 -26 -60 -58c0 -39 24 -73 72 -101c109 -12 172 -87 172 -184c0 -81 -44 -146 -121 -173c46 -31 69 -76 69 -133c0 -81 -63 -143 -171 -143c-47 0 -85 13 -114 39c-12 10 -18 24 -18 41c0 13 4 24 13 33c11 12 23 18 37 18
c12 0 26 -5 41 -14zM197 309c-51 -49 -20 -148 65 -146c57 0 89 39 89 86c0 45 -33 86 -89 86c-27 0 -49 -9 -65 -26z" />
    <glyph glyph-name="dieresis" unicode="&#xa8;" horiz-adv-x="443" 
d="M125 532c-36 0 -65 26 -65 67c0 39 29 64 65 64c32 0 60 -25 60 -64c0 -41 -28 -67 -60 -67zM323 532c-36 0 -64 26 -64 67c0 39 28 64 64 64c32 0 60 -25 60 -64c0 -41 -27 -67 -60 -67z" />
    <glyph glyph-name="copyright" unicode="&#xa9;" horiz-adv-x="1017" 
d="M72 221c0 122 42 225 126 310c84 84 188 126 311 126s227 -42 311 -126c83 -84 125 -187 125 -310s-42 -226 -125 -311c-84 -84 -188 -126 -311 -126s-227 42 -311 126c-84 85 -126 188 -126 311zM172 220c0 -93 32 -173 97 -238c64 -65 144 -98 241 -98
c95 0 175 33 239 98s96 145 96 238c0 94 -32 174 -96 239s-144 98 -239 98c-97 0 -177 -33 -241 -98c-65 -65 -97 -145 -97 -239zM587 341c-22 8 -44 12 -67 12c-33 0 -62 -12 -87 -35c-25 -24 -38 -55 -38 -93c0 -77 59 -129 130 -129c29 0 53 6 74 18c13 8 26 12 40 12
c15 0 29 -7 40 -21c7 -9 10 -19 10 -30c0 -18 -8 -33 -24 -45c-37 -27 -86 -41 -146 -41c-75 0 -134 22 -179 65s-68 100 -68 171c0 67 22 123 66 168s100 68 167 68c53 0 95 -8 127 -24c24 -11 36 -27 36 -48c0 -6 -2 -14 -7 -25c-10 -19 -25 -29 -46 -29c-9 0 -18 2 -28 6
z" />
    <glyph glyph-name="ordfeminine" unicode="&#xaa;" horiz-adv-x="445" 
d="M174 527c41 0 77 -7 106 -21c-3 45 -27 67 -73 67c-18 0 -37 -2 -57 -7c-4 -1 -10 -2 -17 -2c-19 0 -32 8 -38 25c-1 3 -2 7 -2 13c0 16 9 28 28 36c36 13 73 20 111 20c40 0 75 -12 104 -35s44 -57 44 -101v-173c0 -27 -20 -47 -49 -47c-31 0 -51 20 -51 47
c-28 -31 -69 -47 -124 -47c-67 0 -111 48 -111 109c0 75 48 116 129 116zM280 412v31c-25 9 -48 14 -71 14c-38 0 -57 -12 -57 -35s18 -35 55 -35c23 0 48 8 73 25z" />
    <glyph glyph-name="guillemotleft" unicode="&#xab;" horiz-adv-x="537" 
d="M486 372l-106 -122l105 -124c9 -11 13 -22 13 -35c0 -15 -6 -28 -17 -37c-8 -7 -19 -11 -32 -11c-18 0 -32 6 -42 18l-127 150c-19 23 -19 55 0 78l131 150c10 12 23 18 40 18c14 0 25 -4 34 -13c10 -9 15 -21 15 -34c0 -14 -5 -27 -14 -38zM257 372l-106 -122l105 -124
c9 -11 13 -22 13 -35c0 -15 -6 -28 -17 -37c-8 -7 -19 -11 -32 -11c-18 0 -32 6 -42 18l-127 150c-19 23 -19 55 0 78l131 150c10 12 23 18 40 18c14 0 25 -4 34 -13c10 -9 15 -21 15 -34c0 -14 -5 -27 -14 -38z" />
    <glyph glyph-name="logicalnot" unicode="&#xac;" 
d="M445 229v81h-344c-28 0 -50 22 -50 50s22 50 50 50h394c28 0 50 -22 50 -50v-131c0 -28 -22 -50 -50 -50s-50 22 -50 50z" />
    <glyph glyph-name="uni00AD" unicode="&#xad;" horiz-adv-x="376" 
d="M113 327h150c28 0 51 -24 51 -53c0 -31 -23 -54 -51 -54h-150c-28 0 -51 23 -51 54c0 29 23 53 51 53z" />
    <glyph glyph-name="registered" unicode="&#xae;" horiz-adv-x="663" 
d="M365 386l-40 62h-27v-51c0 -20 -17 -37 -38 -37s-39 17 -39 37v206c0 20 17 37 37 37h80c77 0 114 -36 114 -93c0 -39 -24 -70 -53 -81l34 -45c18 -24 7 -61 -29 -61c-15 0 -28 9 -39 26zM298 585v-82h29c29 0 47 19 47 43c0 26 -16 39 -47 39h-29zM331 208
c-79 0 -147 28 -202 85c-56 56 -84 123 -84 202s28 147 83 203s123 84 203 84c81 0 149 -28 204 -84s82 -124 82 -203s-28 -147 -83 -203s-123 -84 -203 -84zM194 357c37 -38 83 -57 137 -57s100 19 138 57c37 38 56 84 56 138s-19 100 -56 138s-83 57 -138 57
s-101 -19 -138 -57s-56 -84 -56 -138s19 -100 57 -138z" />
    <glyph glyph-name="overscore" unicode="&#xaf;" horiz-adv-x="399" 
d="M106 642h187c25 0 46 -21 46 -46s-21 -46 -46 -46h-187c-25 0 -46 21 -46 46s21 46 46 46z" />
    <glyph glyph-name="degree" unicode="&#xb0;" horiz-adv-x="425" 
d="M211 402c-46 0 -85 16 -117 48c-33 32 -49 71 -49 118c0 48 16 88 49 121c32 32 71 48 117 48c47 0 87 -15 120 -46s49 -70 49 -117s-16 -88 -49 -121c-33 -34 -73 -51 -120 -51zM212 637c-36 0 -67 -30 -67 -67s31 -68 67 -68c37 0 68 31 68 68s-31 67 -68 67z" />
    <glyph glyph-name="plusminus" unicode="&#xb1;" 
d="M351 402v-52c0 -28 -23 -51 -54 -51s-54 23 -54 51v52h-126c-28 0 -51 23 -51 50s23 50 51 50h126v130c0 28 23 51 54 51s54 -23 54 -51v-130h128c28 0 51 -23 51 -50s-23 -50 -51 -50h-128zM117 255h362c28 0 51 -23 51 -50s-23 -50 -51 -50h-362c-28 0 -51 23 -51 50
s23 50 51 50z" />
    <glyph glyph-name="twosuperior" unicode="&#xb2;" horiz-adv-x="365" 
d="M166 435h126c24 0 43 -19 43 -42c0 -24 -19 -43 -43 -43h-223c-23 0 -39 19 -39 40c5 30 13 34 47 55c90 56 135 101 135 135c0 31 -42 62 -83 17c-10 -12 -23 -18 -39 -18c-8 0 -14 1 -19 3c-19 7 -29 20 -29 41c0 9 2 16 5 23c19 39 63 58 132 58
c89 0 140 -44 140 -111c0 -63 -51 -115 -153 -158z" />
    <glyph glyph-name="threesuperior" unicode="&#xb3;" horiz-adv-x="351" 
d="M304 617c0 -43 -29 -71 -77 -82c57 -5 89 -39 89 -84c0 -64 -67 -107 -151 -107c-53 0 -97 15 -132 46c-9 9 -13 19 -13 30c0 10 4 19 11 26c7 8 16 12 27 12s23 -4 35 -13c18 -13 36 -20 55 -20c41 0 61 12 61 35c0 21 -20 32 -59 32c-21 0 -36 13 -36 36
c0 21 15 34 36 34c28 0 46 14 46 34c0 19 -15 29 -45 29c-21 0 -39 -6 -56 -17c-9 -6 -17 -9 -26 -9c-11 0 -20 4 -28 13c-5 7 -8 14 -8 22c0 13 6 24 18 34c31 25 71 38 120 38c79 0 133 -34 133 -89z" />
    <glyph glyph-name="acute" unicode="&#xb4;" horiz-adv-x="315" 
d="M82 600l61 95c7 11 18 17 32 17c9 0 16 -2 23 -7l24 -18c10 -7 15 -17 15 -31c0 -10 -3 -18 -9 -25l-72 -83c-9 -10 -20 -15 -34 -15c-9 0 -18 3 -27 8c-13 9 -19 21 -19 37c0 8 2 15 6 22z" />
    <glyph glyph-name="mu" unicode="&#xb5;" horiz-adv-x="539" 
d="M363 151v250c0 31 25 56 58 56c32 0 57 -25 57 -56v-353c0 -31 -25 -56 -58 -56s-57 24 -57 63c-36 -44 -84 -66 -144 -66c-14 0 -28 2 -43 5v-138c0 -31 -25 -56 -57 -56c-33 0 -58 25 -58 56v545c0 31 25 56 58 56c32 0 57 -25 57 -56v-211c0 -63 29 -94 86 -94
c39 0 73 18 101 55z" />
    <glyph glyph-name="mu" unicode="&#x3bc;" horiz-adv-x="539" 
d="M363 151v250c0 31 25 56 58 56c32 0 57 -25 57 -56v-353c0 -31 -25 -56 -58 -56s-57 24 -57 63c-36 -44 -84 -66 -144 -66c-14 0 -28 2 -43 5v-138c0 -31 -25 -56 -57 -56c-33 0 -58 25 -58 56v545c0 31 25 56 58 56c32 0 57 -25 57 -56v-211c0 -63 29 -94 86 -94
c39 0 73 18 101 55z" />
    <glyph glyph-name="paragraph" unicode="&#xb6;" horiz-adv-x="491" 
d="M150 -98c8 -2 17 -3 27 -3c53 0 80 38 80 113v251c-60 1 -112 21 -155 60s-65 92 -65 158c0 67 21 120 63 160c41 39 94 59 159 59h153c29 0 54 -25 54 -54s-25 -54 -54 -54h-40v-584c0 -144 -62 -216 -187 -216c-29 0 -57 6 -84 19c-23 11 -34 26 -34 47c0 7 1 14 4 20
c8 20 23 30 44 30c9 0 21 -2 35 -6z" />
    <glyph glyph-name="middot" unicode="&#xb7;" horiz-adv-x="212" 
d="M109 376c41 0 73 -37 73 -74c0 -43 -32 -80 -73 -80c-48 0 -80 37 -80 80c0 37 32 74 80 74z" />
    <glyph glyph-name="cedilla" unicode="&#xb8;" horiz-adv-x="378" 
d="M214 20v-54c69 -5 104 -34 104 -86c0 -53 -50 -88 -138 -88c-35 0 -67 8 -94 24c-10 7 -15 16 -15 29c0 5 1 10 3 14c6 11 16 17 29 17c7 0 13 -1 18 -4c15 -7 30 -10 43 -10c26 0 39 8 39 25c0 12 -5 20 -15 23c-25 9 -32 21 -32 48v62h58z" />
    <glyph glyph-name="onesuperior" unicode="&#xb9;" horiz-adv-x="261" 
d="M93 393v193l-14 -9c-7 -4 -15 -6 -22 -6c-14 0 -25 5 -33 15c-5 7 -7 14 -7 23c0 14 6 25 17 32l68 45c19 13 36 20 51 20c24 0 40 -18 40 -42v-271c0 -27 -19 -48 -50 -48s-50 21 -50 48z" />
    <glyph glyph-name="ordmasculine" unicode="&#xba;" horiz-adv-x="498" 
d="M391 351c-37 -33 -85 -50 -142 -50s-104 17 -141 50s-56 76 -56 129s19 96 56 129s84 49 141 49s105 -16 142 -49s55 -76 55 -129s-18 -96 -55 -129zM249 565c-51 0 -89 -34 -89 -85c0 -52 38 -86 89 -86c53 0 90 34 90 86c0 51 -38 85 -90 85z" />
    <glyph glyph-name="guillemotright" unicode="&#xbb;" horiz-adv-x="537" 
d="M387 250l-106 122c-19 23 -19 52 2 72c9 8 20 12 34 12c16 0 29 -6 39 -17l131 -150c19 -20 19 -60 0 -80l-127 -148c-10 -12 -23 -18 -39 -18c-14 0 -25 4 -34 12c-11 9 -17 22 -17 38c0 12 4 23 12 33zM157 250l-106 122c-19 23 -19 52 2 72c9 8 20 12 34 12
c16 0 29 -6 39 -17l131 -150c19 -20 19 -60 0 -80l-127 -148c-10 -12 -23 -18 -39 -18c-14 0 -25 4 -34 12c-11 9 -17 22 -17 38c0 12 4 23 12 33z" />
    <glyph glyph-name="onequarter" unicode="&#xbc;" horiz-adv-x="689" 
d="M98 393v193l-14 -9c-7 -4 -14 -6 -22 -6c-14 0 -25 5 -33 15c-5 7 -7 14 -7 23c0 14 6 25 17 32l68 45c19 13 36 20 51 20c24 0 40 -18 40 -42v-271c0 -27 -19 -48 -50 -48s-50 21 -50 48zM585 633l-460 -615c-9 -12 -21 -18 -36 -18c-8 0 -16 3 -23 8
c-10 8 -15 18 -15 31c0 9 3 18 8 25l461 618c7 9 17 14 29 14c9 0 17 -3 26 -9c11 -8 17 -19 17 -32c0 -9 -2 -17 -7 -22zM609 70v-29c0 -25 -21 -46 -46 -46s-46 21 -46 46v29h-147c-25 0 -46 21 -46 46c0 12 10 31 29 58l105 147c15 22 22 33 46 33c34 0 47 -35 27 -64
l-103 -142h89v31c0 25 21 46 46 46s46 -21 46 -46v-31c33 0 50 -12 50 -37s-19 -41 -50 -41z" />
    <glyph glyph-name="onehalf" unicode="&#xbd;" horiz-adv-x="692" 
d="M98 393v193l-14 -9c-7 -4 -14 -6 -22 -6c-14 0 -25 5 -33 15c-5 7 -7 14 -7 23c0 14 6 25 17 32l68 45c19 13 36 20 51 20c24 0 40 -18 40 -42v-271c0 -27 -19 -48 -50 -48s-50 21 -50 48zM575 633l-460 -615c-9 -12 -21 -18 -36 -18c-8 0 -16 3 -23 8
c-10 8 -15 18 -15 31c0 9 3 18 8 25l461 618c7 9 17 14 29 14c9 0 17 -3 26 -9c11 -8 17 -19 17 -32c0 -9 -2 -17 -7 -22zM493 85h126c24 0 43 -19 43 -42c0 -24 -19 -43 -43 -43h-223c-23 0 -39 19 -39 40c5 30 13 34 47 55c90 56 135 101 135 135c0 31 -42 62 -83 17
c-10 -12 -23 -18 -39 -18c-7 0 -14 1 -19 3c-19 7 -29 20 -29 41c0 9 2 16 5 23c19 39 63 58 132 58c89 0 140 -44 140 -111c0 -63 -51 -115 -153 -158z" />
    <glyph glyph-name="threequarters" unicode="&#xbe;" horiz-adv-x="760" 
d="M676 633l-460 -615c-9 -12 -21 -18 -36 -18c-8 0 -16 3 -23 8c-10 8 -15 18 -15 31c0 9 3 18 8 25l461 618c7 9 17 14 29 14c8 0 17 -3 26 -9c11 -8 17 -19 17 -32c0 -9 -2 -17 -7 -22zM680 70v-29c0 -25 -21 -46 -46 -46s-46 21 -46 46v29h-147c-25 0 -46 21 -46 46
c0 12 10 31 29 58l105 147c15 22 22 33 46 33c34 0 47 -35 27 -64l-103 -142h89v31c0 25 21 46 46 46s46 -21 46 -46v-31c33 0 50 -12 50 -37s-19 -41 -50 -41zM314 617c0 -43 -29 -71 -77 -82c57 -5 89 -39 89 -84c0 -64 -67 -107 -151 -107c-53 0 -97 15 -132 46
c-9 9 -13 19 -13 30c0 10 4 19 11 26c7 8 16 12 27 12s23 -4 35 -13c18 -13 36 -20 55 -20c41 0 61 12 61 35c0 21 -20 32 -59 32c-21 0 -36 13 -36 36c0 21 15 34 36 34c28 0 46 14 46 34c0 19 -15 29 -45 29c-21 0 -39 -6 -56 -17c-9 -6 -17 -9 -26 -9c-11 0 -20 4 -28 13
c-5 7 -8 14 -8 22c0 13 6 24 18 34c31 25 71 38 120 38c79 0 133 -34 133 -89z" />
    <glyph glyph-name="questiondown" unicode="&#xbf;" horiz-adv-x="455" 
d="M181 139c24 24 39 47 46 69c8 25 25 37 52 37c35 0 52 -25 52 -56v-5c-3 -31 -22 -62 -36 -75c-7 -7 -19 -17 -35 -30c-3 -3 -6 -5 -7 -6c-5 -5 -30 -24 -37 -30s-25 -24 -30 -33c-10 -17 -20 -37 -20 -64c0 -48 41 -86 94 -86c33 0 61 7 82 22c31 21 62 22 81 -1
c9 -11 13 -22 13 -33c0 -15 -7 -29 -20 -42c-41 -41 -95 -61 -163 -61c-65 0 -116 17 -153 50c-38 34 -57 76 -57 126c0 76 30 121 64 154c20 19 58 48 74 64zM351 381c0 -37 -32 -74 -79 -74c-43 0 -74 37 -74 74c0 43 31 80 74 80c47 0 79 -37 79 -80z" />
    <glyph glyph-name="Agrave" unicode="&#xc0;" horiz-adv-x="689" 
d="M549 30l-58 141h-299l-59 -145c-9 -23 -26 -34 -53 -34c-32 0 -57 25 -57 56c0 7 2 14 5 22l249 585c15 33 38 50 69 50c30 0 52 -17 67 -50l248 -583c3 -9 5 -17 5 -24c0 -31 -26 -56 -57 -56c-30 0 -50 13 -60 38zM444 286l-102 251l-103 -251h205zM250 893l146 -75
c15 -7 22 -19 22 -36c0 -4 -1 -9 -4 -16c-7 -16 -20 -24 -38 -24c-6 0 -11 1 -14 2l-153 55c-16 5 -24 17 -24 34c0 5 1 10 3 14l13 29c7 14 17 21 32 21c7 0 12 -1 17 -4z" />
    <glyph glyph-name="Aacute" unicode="&#xc1;" horiz-adv-x="689" 
d="M549 30l-58 141h-299l-59 -145c-9 -23 -26 -34 -53 -34c-32 0 -57 25 -57 56c0 7 2 14 5 22l249 585c15 33 38 50 69 50c30 0 52 -17 67 -50l248 -583c3 -9 5 -17 5 -24c0 -31 -26 -56 -57 -56c-30 0 -50 13 -60 38zM444 286l-102 251l-103 -251h205zM293 817l148 77
c5 3 10 4 16 4c15 0 25 -7 32 -21l13 -31c2 -4 3 -9 3 -14c0 -16 -8 -27 -23 -32l-155 -57c-3 -1 -7 -2 -13 -2c-18 0 -31 8 -38 25c-3 5 -4 10 -4 17c0 16 7 27 21 34z" />
    <glyph glyph-name="Acircumflex" unicode="&#xc2;" horiz-adv-x="689" 
d="M549 30l-58 141h-299l-59 -145c-9 -23 -26 -34 -53 -34c-32 0 -57 25 -57 56c0 7 2 14 5 22l249 585c15 33 38 50 69 50c30 0 52 -17 67 -50l248 -583c3 -9 5 -17 5 -24c0 -31 -26 -56 -57 -56c-30 0 -50 13 -60 38zM444 286l-102 251l-103 -251h205zM445 746l-102 53
l-102 -53c-5 -3 -12 -5 -20 -5c-15 0 -26 6 -34 18c-4 6 -6 13 -6 21c0 14 6 25 17 33l113 70c9 7 20 10 33 10c11 0 22 -3 32 -9l115 -71c11 -7 17 -18 17 -32c0 -8 -2 -15 -7 -22c-9 -12 -20 -18 -35 -18c-8 0 -15 2 -21 5z" />
    <glyph glyph-name="Atilde" unicode="&#xc3;" horiz-adv-x="689" 
d="M549 30l-58 141h-299l-59 -145c-9 -23 -26 -34 -53 -34c-32 0 -57 25 -57 56c0 7 2 14 5 22l249 585c15 33 38 50 69 50c30 0 52 -17 67 -50l248 -583c3 -9 5 -17 5 -24c0 -31 -26 -56 -57 -56c-30 0 -50 13 -60 38zM444 286l-102 251l-103 -251h205zM520 797
c-39 -35 -75 -52 -109 -52c-17 0 -40 7 -69 22c-30 15 -54 22 -72 22c-12 0 -28 -6 -47 -18c-9 -5 -17 -8 -25 -8c-11 0 -22 6 -31 17c-5 7 -8 14 -8 23c0 13 5 24 14 31c37 31 72 46 103 46c21 0 45 -7 74 -22s52 -23 69 -23c12 0 28 6 47 19c20 15 45 16 60 -3
c6 -7 9 -15 9 -24c0 -11 -5 -21 -15 -30z" />
    <glyph glyph-name="Adieresis" unicode="&#xc4;" horiz-adv-x="689" 
d="M549 30l-58 141h-299l-59 -145c-9 -23 -26 -34 -53 -34c-32 0 -57 25 -57 56c0 7 2 14 5 22l249 585c15 33 38 50 69 50c30 0 52 -17 67 -50l248 -583c3 -9 5 -17 5 -24c0 -31 -26 -56 -57 -56c-30 0 -50 13 -60 38zM444 286l-102 251l-103 -251h205zM232 887
c39 0 71 -25 71 -62c0 -41 -32 -66 -71 -66c-44 0 -77 25 -77 66c0 37 33 62 77 62zM464 887c39 0 71 -25 71 -62c0 -41 -32 -66 -71 -66c-44 0 -77 25 -77 66c0 37 33 62 77 62z" />
    <glyph glyph-name="Aring" unicode="&#xc5;" horiz-adv-x="693" 
d="M195 179l-62 -153c-9 -23 -27 -34 -53 -34c-32 0 -57 25 -57 56c0 7 2 14 5 22l264 627c-57 16 -85 50 -85 103c0 72 58 108 139 108c84 0 143 -36 143 -108c0 -53 -28 -87 -85 -103l261 -621c3 -7 5 -15 5 -25c0 -32 -24 -59 -56 -59c-29 0 -49 13 -60 40l-60 147h-299z
M447 294l-102 249l-103 -249h205zM292 800c0 -31 23 -47 55 -47c33 0 57 16 57 47c0 30 -19 45 -57 45c-37 0 -55 -15 -55 -45z" />
    <glyph glyph-name="AE" unicode="&#xc6;" horiz-adv-x="945" 
d="M590 296v-181h236c31 0 56 -25 56 -57c0 -33 -25 -58 -56 -58h-303c-31 0 -56 25 -56 56v125h-233l-111 -159c-15 -20 -34 -30 -57 -30c-31 0 -53 27 -53 56c0 11 4 22 11 33l424 589c15 20 34 30 58 30h310c31 0 56 -25 56 -57c0 -33 -25 -58 -56 -58h-226v-174h196
c31 0 56 -25 56 -57c0 -33 -25 -58 -56 -58h-196zM467 296v218l-152 -218h152z" />
    <glyph glyph-name="Ccedilla" unicode="&#xc7;" horiz-adv-x="645" 
d="M421 -11v-22c74 -6 111 -35 111 -87s-50 -88 -133 -88c-46 0 -84 10 -115 31c-9 5 -13 14 -13 25c0 6 2 12 5 17c7 11 16 16 28 16c6 0 12 -1 17 -4c20 -10 37 -15 50 -15c26 0 39 8 39 25c0 11 -6 19 -17 24c-20 9 -30 24 -30 43v37c-96 9 -173 46 -231 111
s-87 147 -87 248c0 105 32 191 95 259s151 102 263 102c59 0 111 -12 158 -36c25 -12 38 -29 38 -52c0 -9 -3 -18 -8 -29c-11 -19 -27 -28 -49 -28c-12 0 -23 2 -33 7c-36 15 -71 23 -106 23c-66 0 -120 -22 -163 -67s-65 -104 -65 -179c0 -73 23 -132 68 -177
c45 -46 103 -69 174 -69c37 0 75 9 112 27c15 7 29 10 40 10c19 0 34 -8 45 -23c7 -9 10 -20 10 -32c0 -21 -9 -37 -28 -49c-44 -30 -102 -46 -175 -48z" />
    <glyph glyph-name="Egrave" unicode="&#xc8;" horiz-adv-x="575" 
d="M220 296v-181h236c31 0 56 -25 56 -57c0 -33 -25 -58 -56 -58h-303c-31 0 -56 25 -56 56v588c0 31 25 56 56 56h293c31 0 56 -25 56 -57c0 -33 -25 -58 -56 -58h-226v-174h196c31 0 56 -25 56 -57c0 -33 -25 -58 -56 -58h-196zM214 893l146 -75c15 -7 22 -19 22 -36
c0 -4 -1 -9 -4 -16c-7 -16 -20 -24 -38 -24c-6 0 -11 1 -14 2l-153 55c-16 5 -24 17 -24 34c0 5 1 10 3 14l13 29c7 14 17 21 32 21c7 0 12 -1 17 -4z" />
    <glyph glyph-name="Eacute" unicode="&#xc9;" horiz-adv-x="575" 
d="M220 296v-181h236c31 0 56 -25 56 -57c0 -33 -25 -58 -56 -58h-303c-31 0 -56 25 -56 56v588c0 31 25 56 56 56h293c31 0 56 -25 56 -57c0 -33 -25 -58 -56 -58h-226v-174h196c31 0 56 -25 56 -57c0 -33 -25 -58 -56 -58h-196zM250 817l148 77c5 3 10 4 16 4
c15 0 25 -7 32 -21l13 -31c2 -4 3 -9 3 -14c0 -16 -8 -27 -23 -32l-155 -57c-3 -1 -7 -2 -13 -2c-18 0 -31 8 -38 25c-3 5 -4 10 -4 17c0 16 7 27 21 34z" />
    <glyph glyph-name="Ecircumflex" unicode="&#xca;" horiz-adv-x="575" 
d="M220 296v-181h236c31 0 56 -25 56 -57c0 -33 -25 -58 -56 -58h-303c-31 0 -56 25 -56 56v588c0 31 25 56 56 56h293c31 0 56 -25 56 -57c0 -33 -25 -58 -56 -58h-226v-174h196c31 0 56 -25 56 -57c0 -33 -25 -58 -56 -58h-196zM400 746l-102 53l-102 -53
c-5 -3 -12 -5 -20 -5c-15 0 -26 6 -34 18c-4 6 -6 13 -6 21c0 14 6 25 17 33l113 70c9 7 20 10 33 10c11 0 22 -3 32 -9l115 -71c11 -7 17 -18 17 -32c0 -8 -2 -15 -7 -22c-9 -12 -21 -18 -35 -18c-8 0 -15 2 -21 5z" />
    <glyph glyph-name="Edieresis" unicode="&#xcb;" horiz-adv-x="575" 
d="M220 296v-181h236c31 0 56 -25 56 -57c0 -33 -25 -58 -56 -58h-303c-31 0 -56 25 -56 56v588c0 31 25 56 56 56h293c31 0 56 -25 56 -57c0 -33 -25 -58 -56 -58h-226v-174h196c31 0 56 -25 56 -57c0 -33 -25 -58 -56 -58h-196zM190 887c39 0 71 -25 71 -62
c0 -41 -32 -66 -71 -66c-44 0 -77 25 -77 66c0 37 33 62 77 62zM422 887c39 0 71 -25 71 -62c0 -41 -32 -66 -71 -66c-44 0 -77 25 -77 66c0 37 33 62 77 62z" />
    <glyph glyph-name="Igrave" unicode="&#xcc;" horiz-adv-x="347" 
d="M235 644v-591c0 -33 -26 -61 -61 -61s-62 26 -62 61v591c0 35 27 61 62 61s61 -26 61 -61zM69 893l146 -75c15 -7 22 -19 22 -36c0 -4 -1 -9 -4 -16c-7 -16 -20 -24 -38 -24c-6 0 -11 1 -14 2l-153 55c-16 5 -24 17 -24 34c0 5 1 10 3 14l13 29c7 14 17 21 32 21
c7 0 12 -1 17 -4z" />
    <glyph glyph-name="Iacute" unicode="&#xcd;" horiz-adv-x="347" 
d="M235 644v-591c0 -33 -26 -61 -61 -61s-62 26 -62 61v591c0 35 27 61 62 61s61 -26 61 -61zM133 817l148 77c5 3 10 4 16 4c15 0 25 -7 32 -21l13 -31c2 -4 3 -9 3 -14c0 -16 -8 -27 -23 -32l-155 -57c-3 -1 -7 -2 -13 -2c-18 0 -31 8 -38 25c-3 5 -4 10 -4 17
c0 16 7 27 21 34z" />
    <glyph glyph-name="Icircumflex" unicode="&#xce;" horiz-adv-x="347" 
d="M235 644v-591c0 -33 -26 -61 -61 -61s-62 26 -62 61v591c0 35 27 61 62 61s61 -26 61 -61zM273 746l-102 53l-102 -53c-5 -3 -11 -5 -20 -5c-15 0 -26 6 -34 18c-4 6 -6 13 -6 21c0 14 6 25 17 33l113 70c9 7 20 10 33 10c11 0 22 -3 32 -9l115 -71c11 -7 17 -18 17 -32
c0 -8 -2 -15 -7 -22c-9 -12 -20 -18 -35 -18c-8 0 -15 2 -21 5z" />
    <glyph glyph-name="Idieresis" unicode="&#xcf;" horiz-adv-x="347" 
d="M235 644v-591c0 -33 -26 -61 -61 -61s-62 26 -62 61v591c0 35 27 61 62 61s61 -26 61 -61zM60 887c39 0 71 -25 71 -62c0 -41 -32 -66 -71 -66c-44 0 -77 25 -77 66c0 37 33 62 77 62zM292 887c39 0 71 -25 71 -62c0 -41 -32 -66 -71 -66c-44 0 -77 25 -77 66
c0 37 33 62 77 62z" />
    <glyph glyph-name="Eth" unicode="&#xd0;" horiz-adv-x="749" 
d="M303 -2c-19 0 -67 1 -144 2c-31 0 -54 24 -54 55v242h-41c-29 0 -54 25 -54 54s25 54 54 54h41v240c0 31 23 55 54 56c19 0 46 0 82 1c35 1 59 1 70 1c280 0 393 -161 393 -346c0 -104 -35 -190 -104 -257c-70 -68 -169 -102 -297 -102zM350 297h-123v-182
c23 -1 49 -2 80 -2c167 0 267 95 267 244c0 143 -100 231 -265 231c-27 0 -54 -1 -82 -3v-180h123c29 0 54 -25 54 -54s-25 -54 -54 -54z" />
    <glyph glyph-name="Ntilde" unicode="&#xd1;" horiz-adv-x="792" 
d="M218 671l362 -458v436c0 31 25 56 58 56c32 0 57 -25 57 -56v-601c0 -32 -23 -56 -55 -56c-25 0 -47 12 -66 37l-362 456v-437c0 -31 -25 -56 -57 -56c-33 0 -58 25 -58 56v601c0 32 26 56 59 56c23 0 44 -11 62 -34zM578 797c-39 -35 -75 -52 -109 -52
c-17 0 -40 7 -69 22c-30 15 -54 22 -72 22c-12 0 -28 -6 -47 -18c-9 -5 -17 -8 -25 -8c-11 0 -22 6 -31 17c-5 7 -8 14 -8 23c0 13 5 24 14 31c37 31 72 46 103 46c21 0 45 -7 74 -22s52 -23 69 -23c12 0 28 6 47 19c20 15 45 16 60 -3c6 -7 9 -15 9 -24
c0 -11 -5 -21 -15 -30z" />
    <glyph glyph-name="Ograve" unicode="&#xd2;" horiz-adv-x="819" 
d="M45 350c0 103 34 189 103 258c68 69 155 103 261 103c105 0 193 -33 262 -100s103 -154 103 -261c0 -105 -35 -191 -104 -259s-156 -102 -261 -102s-192 33 -261 100s-103 154 -103 261zM175 350c0 -70 23 -128 68 -175s100 -71 166 -71c72 0 129 23 172 70
c42 47 63 105 63 176c0 72 -22 131 -67 177s-101 69 -168 69s-123 -23 -167 -69c-45 -46 -67 -105 -67 -177zM334 893l146 -75c15 -7 22 -19 22 -36c0 -4 -1 -9 -4 -16c-7 -16 -20 -24 -38 -24c-6 0 -11 1 -14 2l-153 55c-16 5 -24 17 -24 34c0 5 1 10 3 14l13 29
c7 14 17 21 32 21c7 0 12 -1 17 -4z" />
    <glyph glyph-name="Oacute" unicode="&#xd3;" horiz-adv-x="819" 
d="M45 350c0 103 34 189 103 258c68 69 155 103 261 103c105 0 193 -33 262 -100s103 -154 103 -261c0 -105 -35 -191 -104 -259s-156 -102 -261 -102s-192 33 -261 100s-103 154 -103 261zM175 350c0 -70 23 -128 68 -175s100 -71 166 -71c72 0 129 23 172 70
c42 47 63 105 63 176c0 72 -22 131 -67 177s-101 69 -168 69s-123 -23 -167 -69c-45 -46 -67 -105 -67 -177zM365 817l148 77c5 3 10 4 16 4c15 0 25 -7 32 -21l13 -31c2 -4 3 -9 3 -14c0 -16 -8 -27 -23 -32l-155 -57c-3 -1 -7 -2 -13 -2c-18 0 -31 8 -38 25
c-3 5 -4 10 -4 17c0 16 7 27 21 34z" />
    <glyph glyph-name="Ocircumflex" unicode="&#xd4;" horiz-adv-x="819" 
d="M45 350c0 103 34 189 103 258c68 69 155 103 261 103c105 0 193 -33 262 -100s103 -154 103 -261c0 -105 -35 -191 -104 -259s-156 -102 -261 -102s-192 33 -261 100s-103 154 -103 261zM175 350c0 -70 23 -128 68 -175s100 -71 166 -71c72 0 129 23 172 70
c42 47 63 105 63 176c0 72 -22 131 -67 177s-101 69 -168 69s-123 -23 -167 -69c-45 -46 -67 -105 -67 -177zM512 746l-102 53l-102 -53c-5 -3 -12 -5 -20 -5c-15 0 -26 6 -34 18c-4 6 -6 13 -6 21c0 14 6 25 17 33l113 70c9 7 20 10 33 10c11 0 22 -3 32 -9l115 -71
c11 -7 17 -18 17 -32c0 -8 -2 -15 -7 -22c-9 -12 -21 -18 -35 -18c-8 0 -15 2 -21 5z" />
    <glyph glyph-name="Otilde" unicode="&#xd5;" horiz-adv-x="819" 
d="M45 350c0 103 34 189 103 258c68 69 155 103 261 103c105 0 193 -33 262 -100s103 -154 103 -261c0 -105 -35 -191 -104 -259s-156 -102 -261 -102s-192 33 -261 100s-103 154 -103 261zM175 350c0 -70 23 -128 68 -175s100 -71 166 -71c72 0 129 23 172 70
c42 47 63 105 63 176c0 72 -22 131 -67 177s-101 69 -168 69s-123 -23 -167 -69c-45 -46 -67 -105 -67 -177zM580 797c-39 -35 -75 -52 -109 -52c-17 0 -40 7 -69 22c-30 15 -54 22 -72 22c-12 0 -28 -6 -47 -18c-9 -5 -17 -8 -25 -8c-11 0 -22 6 -31 17c-5 7 -8 14 -8 23
c0 13 5 24 14 31c37 31 72 46 103 46c21 0 45 -7 74 -22s52 -23 69 -23c12 0 28 6 47 19c20 15 45 16 60 -3c6 -7 9 -15 9 -24c0 -11 -5 -21 -15 -30z" />
    <glyph glyph-name="Odieresis" unicode="&#xd6;" horiz-adv-x="819" 
d="M45 350c0 103 34 189 103 258c68 69 155 103 261 103c105 0 193 -33 262 -100s103 -154 103 -261c0 -105 -35 -191 -104 -259s-156 -102 -261 -102s-192 33 -261 100s-103 154 -103 261zM175 350c0 -70 23 -128 68 -175s100 -71 166 -71c72 0 129 23 172 70
c42 47 63 105 63 176c0 72 -22 131 -67 177s-101 69 -168 69s-123 -23 -167 -69c-45 -46 -67 -105 -67 -177zM293 887c39 0 71 -25 71 -62c0 -41 -32 -66 -71 -66c-44 0 -77 25 -77 66c0 37 33 62 77 62zM525 887c39 0 71 -25 71 -62c0 -41 -32 -66 -71 -66
c-44 0 -77 25 -77 66c0 37 33 62 77 62z" />
    <glyph glyph-name="multiply" unicode="&#xd7;" horiz-adv-x="516" 
d="M93 266l94 94l-93 93c-19 19 -19 51 1 71c9 9 21 14 35 14c15 0 26 -5 35 -14l93 -93l93 93c9 9 21 14 35 14c29 0 50 -21 50 -50c0 -14 -5 -26 -14 -35l-93 -93l94 -94c9 -9 14 -20 14 -35c0 -14 -5 -26 -14 -35c-20 -20 -52 -20 -71 -1l-94 94l-94 -94
c-9 -9 -21 -14 -34 -14c-28 0 -51 23 -51 51c0 13 5 25 14 34z" />
    <glyph glyph-name="Oslash" unicode="&#xd8;" horiz-adv-x="819" 
d="M99 124l10 10c-43 61 -64 133 -64 216c0 103 34 189 103 258c68 69 155 103 261 103c81 0 156 -22 225 -65c11 11 23 16 38 16c25 0 45 -19 45 -46c0 -14 -5 -26 -16 -36c49 -67 73 -144 73 -230c0 -105 -35 -191 -104 -259s-156 -102 -261 -102c-92 0 -170 25 -234 76
l-9 -9c-10 -9 -21 -13 -32 -13c-13 0 -25 5 -34 15c-19 19 -18 50 -1 66zM607 487l-341 -333c41 -33 88 -50 143 -50c72 0 129 23 172 70c42 47 63 105 63 176c0 51 -12 96 -37 137zM204 227l338 329c-41 27 -85 40 -133 40c-67 0 -123 -23 -167 -69
c-45 -46 -67 -105 -67 -177c0 -45 10 -86 29 -123z" />
    <glyph glyph-name="Ugrave" unicode="&#xd9;" horiz-adv-x="750" 
d="M541 315v329c0 35 26 61 61 61s61 -26 61 -61v-354c0 -101 -26 -176 -79 -226s-119 -75 -199 -75c-90 0 -162 27 -216 80c-55 53 -82 129 -82 228v347c0 35 27 61 62 61c33 0 61 -26 61 -61v-321c0 -136 58 -219 175 -219c104 0 156 70 156 211zM287 893l146 -75
c15 -7 22 -19 22 -36c0 -4 -1 -9 -4 -16c-7 -16 -20 -24 -38 -24c-6 0 -11 1 -14 2l-153 55c-16 5 -24 17 -24 34c0 5 1 10 3 14l13 29c7 14 17 21 32 21c7 0 12 -1 17 -4z" />
    <glyph glyph-name="Uacute" unicode="&#xda;" horiz-adv-x="750" 
d="M541 315v329c0 35 26 61 61 61s61 -26 61 -61v-354c0 -101 -26 -176 -79 -226s-119 -75 -199 -75c-90 0 -162 27 -216 80c-55 53 -82 129 -82 228v347c0 35 27 61 62 61c33 0 61 -26 61 -61v-321c0 -136 58 -219 175 -219c104 0 156 70 156 211zM328 817l148 77
c5 3 10 4 16 4c15 0 25 -7 32 -21l13 -31c2 -4 3 -9 3 -14c0 -16 -8 -27 -23 -32l-155 -57c-3 -1 -7 -2 -13 -2c-18 0 -31 8 -38 25c-3 5 -4 10 -4 17c0 16 7 27 21 34z" />
    <glyph glyph-name="Ucircumflex" unicode="&#xdb;" horiz-adv-x="750" 
d="M541 315v329c0 35 26 61 61 61s61 -26 61 -61v-354c0 -101 -26 -176 -79 -226s-119 -75 -199 -75c-90 0 -162 27 -216 80c-55 53 -82 129 -82 228v347c0 35 27 61 62 61c33 0 61 -26 61 -61v-321c0 -136 58 -219 175 -219c104 0 156 70 156 211zM474 746l-102 53
l-102 -53c-5 -3 -12 -5 -20 -5c-15 0 -26 6 -34 18c-4 6 -6 13 -6 21c0 14 6 25 17 33l113 70c9 7 20 10 33 10c11 0 22 -3 32 -9l115 -71c11 -7 17 -18 17 -32c0 -8 -2 -15 -7 -22c-9 -12 -21 -18 -35 -18c-8 0 -15 2 -21 5z" />
    <glyph glyph-name="Udieresis" unicode="&#xdc;" horiz-adv-x="750" 
d="M541 315v329c0 35 26 61 61 61s61 -26 61 -61v-354c0 -101 -26 -176 -79 -226s-119 -75 -199 -75c-90 0 -162 27 -216 80c-55 53 -82 129 -82 228v347c0 35 27 61 62 61c33 0 61 -26 61 -61v-321c0 -136 58 -219 175 -219c104 0 156 70 156 211zM255 887
c39 0 71 -25 71 -62c0 -41 -32 -66 -71 -66c-44 0 -77 25 -77 66c0 37 33 62 77 62zM487 887c39 0 71 -25 71 -62c0 -41 -32 -66 -71 -66c-44 0 -77 25 -77 66c0 37 33 62 77 62z" />
    <glyph glyph-name="Yacute" unicode="&#xdd;" horiz-adv-x="599" 
d="M148 668l155 -261l153 261c15 25 34 37 57 37c35 0 55 -24 55 -53c0 -11 -3 -22 -10 -33l-199 -327v-239c0 -33 -26 -61 -61 -61s-62 26 -62 61v239l-195 322c-7 12 -10 23 -10 34c0 31 24 57 61 57c22 0 41 -12 56 -37zM252 817l148 77c5 3 10 4 16 4c15 0 25 -7 32 -21
l13 -31c2 -4 3 -9 3 -14c0 -16 -8 -27 -23 -32l-155 -57c-3 -1 -7 -2 -13 -2c-18 0 -31 8 -38 25c-3 5 -4 10 -4 17c0 16 7 27 21 34z" />
    <glyph glyph-name="Thorn" unicode="&#xde;" horiz-adv-x="612" 
d="M296 599c95 0 164 -21 207 -63c43 -43 64 -96 64 -161c0 -63 -23 -117 -68 -161c-45 -45 -108 -67 -188 -67c-34 0 -64 1 -91 4v-98c0 -33 -28 -61 -61 -61c-35 0 -62 26 -62 61v591c0 35 27 61 62 61c33 0 61 -26 61 -61v-47c5 0 18 0 38 1s33 1 38 1zM220 481v-214
c32 -3 61 -5 87 -5c77 0 130 39 130 114c0 72 -46 108 -139 108c-33 0 -59 -1 -78 -3z" />
    <glyph glyph-name="germandbls" unicode="&#xdf;" horiz-adv-x="551" 
d="M230 62c0 9 3 18 8 27c7 13 18 19 34 19c8 0 16 -1 25 -4c18 -5 30 -8 37 -8c55 -5 91 66 39 120c-34 35 -78 51 -112 92c-17 20 -26 43 -26 68c0 47 21 85 41 105c20 19 41 45 41 70c0 29 -28 52 -65 52c-52 0 -75 -34 -75 -113v-442c0 -31 -25 -56 -57 -56
c-33 0 -58 25 -58 56v452c0 141 69 211 207 211c49 0 89 -13 122 -40c32 -27 48 -59 48 -98c0 -100 -81 -104 -81 -174c0 -95 163 -87 163 -242c0 -47 -15 -86 -45 -119s-68 -49 -114 -49s-83 11 -111 34c-14 12 -21 25 -21 39z" />
    <glyph glyph-name="agrave" unicode="&#xe0;" horiz-adv-x="463" 
d="M35 132c0 95 68 146 164 146c41 0 75 -10 102 -29v14c0 69 -23 102 -84 102c-25 0 -49 -3 -70 -10c-11 -3 -18 -4 -23 -4c-18 0 -31 8 -39 24c-3 6 -4 12 -4 19c0 19 11 34 33 43c37 16 75 24 115 24c128 0 180 -63 180 -187v-229c0 -27 -22 -51 -51 -51s-49 22 -49 54
c-29 -36 -73 -54 -133 -54c-84 0 -141 53 -141 138zM301 132v46c-19 15 -46 22 -79 22c-41 0 -72 -20 -72 -56c0 -33 27 -53 64 -53c39 0 68 14 87 41zM234 693l60 -93c4 -7 6 -14 6 -23c0 -16 -6 -28 -18 -36c-7 -5 -16 -8 -26 -8c-15 0 -27 5 -36 15l-71 81
c-7 7 -10 15 -10 26c0 13 5 23 15 30l25 18c7 5 15 8 23 8c15 0 25 -6 32 -18z" />
    <glyph glyph-name="aacute" unicode="&#xe1;" horiz-adv-x="463" 
d="M35 132c0 95 68 146 164 146c41 0 75 -10 102 -29v14c0 69 -23 102 -84 102c-25 0 -49 -3 -70 -10c-11 -3 -18 -4 -23 -4c-18 0 -31 8 -39 24c-3 6 -4 12 -4 19c0 19 11 34 33 43c37 16 75 24 115 24c128 0 180 -63 180 -187v-229c0 -27 -22 -51 -51 -51s-49 22 -49 54
c-29 -36 -73 -54 -133 -54c-84 0 -141 53 -141 138zM301 132v46c-19 15 -46 22 -79 22c-41 0 -72 -20 -72 -56c0 -33 27 -53 64 -53c39 0 68 14 87 41zM177 600l61 95c7 11 18 17 32 17c9 0 16 -2 23 -7l24 -18c10 -7 15 -17 15 -31c0 -10 -3 -18 -9 -25l-72 -83
c-9 -10 -20 -15 -34 -15c-9 0 -18 3 -27 8c-13 9 -19 21 -19 37c0 8 2 15 6 22z" />
    <glyph glyph-name="acircumflex" unicode="&#xe2;" horiz-adv-x="463" 
d="M35 132c0 95 68 146 164 146c41 0 75 -10 102 -29v14c0 69 -23 102 -84 102c-25 0 -49 -3 -70 -10c-11 -3 -18 -4 -23 -4c-18 0 -31 8 -39 24c-3 6 -4 12 -4 19c0 19 11 34 33 43c37 16 75 24 115 24c128 0 180 -63 180 -187v-229c0 -27 -22 -51 -51 -51s-49 22 -49 54
c-29 -36 -73 -54 -133 -54c-84 0 -141 53 -141 138zM301 132v46c-19 15 -46 22 -79 22c-41 0 -72 -20 -72 -56c0 -33 27 -53 64 -53c39 0 68 14 87 41zM135 523c-14 0 -25 6 -33 17c-6 7 -9 16 -9 26c0 14 5 26 16 35l89 77c9 8 20 12 33 12c14 0 25 -4 34 -13l88 -76
c10 -9 15 -20 15 -34c0 -12 -3 -22 -10 -29c-9 -11 -21 -17 -34 -17c-9 0 -18 3 -27 10l-67 54l-68 -53c-8 -6 -17 -9 -27 -9z" />
    <glyph glyph-name="atilde" unicode="&#xe3;" horiz-adv-x="463" 
d="M35 132c0 95 68 146 164 146c41 0 75 -10 102 -29v14c0 69 -23 102 -84 102c-25 0 -49 -3 -70 -10c-11 -3 -18 -4 -23 -4c-18 0 -31 8 -39 24c-3 6 -4 12 -4 19c0 19 11 34 33 43c37 16 75 24 115 24c128 0 180 -63 180 -187v-229c0 -27 -22 -51 -51 -51s-49 22 -49 54
c-29 -36 -73 -54 -133 -54c-84 0 -141 53 -141 138zM301 132v46c-19 15 -46 22 -79 22c-41 0 -72 -20 -72 -56c0 -33 27 -53 64 -53c39 0 68 14 87 41zM381 573c-36 -32 -69 -48 -99 -48c-15 0 -34 8 -57 25s-43 25 -58 25c-7 0 -20 -6 -38 -17c-11 -7 -20 -10 -27 -10
c-9 0 -19 5 -28 15c-5 5 -7 12 -7 20c0 13 5 25 16 34c33 28 64 42 93 42c16 0 36 -8 60 -25s43 -25 56 -25c18 0 30 11 41 19c11 7 20 11 29 11s18 -4 26 -13c6 -7 9 -14 9 -22c0 -11 -5 -22 -16 -31z" />
    <glyph glyph-name="adieresis" unicode="&#xe4;" horiz-adv-x="463" 
d="M35 132c0 95 68 146 164 146c41 0 75 -10 102 -29v14c0 69 -23 102 -84 102c-25 0 -49 -3 -70 -10c-11 -3 -18 -4 -23 -4c-18 0 -31 8 -39 24c-3 6 -4 12 -4 19c0 19 11 34 33 43c37 16 75 24 115 24c128 0 180 -63 180 -187v-229c0 -27 -22 -51 -51 -51s-49 22 -49 54
c-29 -36 -73 -54 -133 -54c-84 0 -141 53 -141 138zM301 132v46c-19 15 -46 22 -79 22c-41 0 -72 -20 -72 -56c0 -33 27 -53 64 -53c39 0 68 14 87 41zM139 532c-36 0 -65 26 -65 67c0 39 29 64 65 64c32 0 60 -25 60 -64c0 -41 -28 -67 -60 -67zM337 532
c-36 0 -64 26 -64 67c0 39 28 64 64 64c32 0 60 -25 60 -64c0 -41 -27 -67 -60 -67z" />
    <glyph glyph-name="aring" unicode="&#xe5;" horiz-adv-x="463" 
d="M35 132c0 95 68 146 164 146c41 0 75 -10 102 -29v14c0 69 -23 102 -84 102c-25 0 -49 -3 -70 -10c-11 -3 -18 -4 -23 -4c-18 0 -31 8 -39 24c-3 6 -4 12 -4 19c0 19 11 34 33 43c37 16 75 24 115 24c128 0 180 -63 180 -187v-229c0 -27 -22 -51 -51 -51s-49 22 -49 54
c-29 -36 -73 -54 -133 -54c-84 0 -141 53 -141 138zM301 132v46c-19 15 -46 22 -79 22c-41 0 -72 -20 -72 -56c0 -33 27 -53 64 -53c39 0 68 14 87 41zM237 494c-72 0 -126 53 -126 118c0 67 54 120 126 120c73 0 128 -53 128 -120c0 -65 -55 -118 -128 -118zM239 669
c-71 6 -71 -117 0 -113c68 -4 68 119 0 113z" />
    <glyph glyph-name="ae" unicode="&#xe6;" horiz-adv-x="765" 
d="M409 271l206 -4c-3 59 -40 98 -107 98c-45 0 -79 -19 -101 -57c1 -15 2 -27 2 -37zM300 129l1 57c-24 9 -50 14 -79 14c-41 0 -72 -23 -72 -56c0 -31 24 -53 64 -53c31 0 59 13 86 38zM302 274c0 59 -32 91 -85 91c-25 0 -49 -3 -70 -10c-11 -3 -18 -4 -23 -4
c-18 0 -31 8 -39 24c-3 6 -5 13 -5 20c0 19 10 32 30 41c41 17 80 25 119 25c62 0 108 -16 138 -47c42 31 92 47 150 47c59 0 110 -19 151 -58s62 -90 62 -151c0 -9 0 -16 -1 -20c-4 -28 -19 -42 -44 -42h-276v-43c19 -37 64 -62 123 -62c33 0 62 6 87 17c11 5 20 8 29 8
c15 0 27 -7 34 -20c5 -9 8 -17 8 -24c0 -16 -9 -29 -28 -40c-43 -25 -89 -37 -139 -37c-72 0 -130 20 -173 59c-48 -38 -99 -57 -154 -57c-104 0 -161 54 -161 147c0 85 67 140 164 140c33 0 83 -11 102 -22c1 4 1 10 1 18z" />
    <glyph glyph-name="ccedilla" unicode="&#xe7;" horiz-adv-x="476" 
d="M314 -10v-24c69 -5 104 -34 104 -86c0 -53 -50 -88 -138 -88c-35 0 -67 8 -94 24c-10 7 -15 16 -15 29c0 5 1 10 3 14c6 11 16 17 29 17c7 0 13 -1 18 -4c15 -7 30 -10 43 -10c26 0 39 8 39 25c0 12 -5 20 -15 23c-25 9 -32 21 -32 48v32c-135 11 -220 102 -220 235
c0 67 22 123 66 168s100 68 167 68c53 0 95 -8 127 -24c24 -11 36 -27 36 -48c0 -6 -2 -14 -7 -25c-10 -19 -25 -29 -46 -29c-9 0 -18 2 -28 6c-22 8 -44 12 -67 12c-33 0 -62 -12 -87 -35c-25 -24 -38 -55 -38 -93c0 -77 59 -129 130 -129c29 0 53 6 74 18
c13 8 26 12 40 12c15 0 29 -7 40 -21c7 -9 10 -19 10 -30c0 -18 -8 -33 -24 -45c-31 -23 -69 -37 -115 -40z" />
    <glyph glyph-name="egrave" unicode="&#xe8;" horiz-adv-x="523" 
d="M372 267v2c0 56 -39 96 -103 96c-65 0 -105 -33 -118 -98h221zM442 190h-287c9 -67 63 -105 135 -105c31 0 59 6 84 17c11 5 19 7 26 7c15 0 27 -7 36 -21c5 -8 7 -15 7 -22c0 -17 -8 -30 -23 -39c-43 -25 -90 -38 -142 -38c-73 0 -131 22 -175 65
c-45 43 -67 100 -67 171c0 67 22 124 65 169s101 67 173 67c59 0 110 -19 151 -58s62 -90 62 -151v-21c-3 -27 -18 -41 -45 -41zM274 693l60 -93c4 -7 6 -14 6 -23c0 -16 -6 -28 -18 -36c-7 -5 -16 -8 -26 -8c-15 0 -27 5 -36 15l-71 81c-7 7 -10 15 -10 26c0 13 5 23 15 30
l25 18c7 5 15 8 23 8c15 0 25 -6 32 -18z" />
    <glyph glyph-name="eacute" unicode="&#xe9;" horiz-adv-x="523" 
d="M372 267v2c0 56 -39 96 -103 96c-65 0 -105 -33 -118 -98h221zM442 190h-287c9 -67 63 -105 135 -105c31 0 59 6 84 17c11 5 19 7 26 7c15 0 27 -7 36 -21c5 -8 7 -15 7 -22c0 -17 -8 -30 -23 -39c-43 -25 -90 -38 -142 -38c-73 0 -131 22 -175 65
c-45 43 -67 100 -67 171c0 67 22 124 65 169s101 67 173 67c59 0 110 -19 151 -58s62 -90 62 -151v-21c-3 -27 -18 -41 -45 -41zM227 600l61 95c7 11 18 17 32 17c9 0 16 -2 23 -7l24 -18c10 -7 15 -17 15 -31c0 -10 -3 -18 -9 -25l-72 -83c-9 -10 -20 -15 -34 -15
c-9 0 -18 3 -27 8c-13 9 -19 21 -19 37c0 8 2 15 6 22z" />
    <glyph glyph-name="ecircumflex" unicode="&#xea;" horiz-adv-x="523" 
d="M372 267v2c0 56 -39 96 -103 96c-65 0 -105 -33 -118 -98h221zM442 190h-287c9 -67 63 -105 135 -105c31 0 59 6 84 17c11 5 19 7 26 7c15 0 27 -7 36 -21c5 -8 7 -15 7 -22c0 -17 -8 -30 -23 -39c-43 -25 -90 -38 -142 -38c-73 0 -131 22 -175 65
c-45 43 -67 100 -67 171c0 67 22 124 65 169s101 67 173 67c59 0 110 -19 151 -58s62 -90 62 -151v-21c-3 -27 -18 -41 -45 -41zM173 523c-14 0 -25 6 -33 17c-6 7 -9 16 -9 26c0 14 5 26 16 35l89 77c9 8 20 12 33 12c14 0 25 -4 34 -13l88 -76c10 -9 15 -20 15 -34
c0 -12 -3 -22 -10 -29c-9 -11 -21 -17 -34 -17c-9 0 -18 3 -27 10l-67 54l-68 -53c-8 -6 -17 -9 -27 -9z" />
    <glyph glyph-name="edieresis" unicode="&#xeb;" horiz-adv-x="523" 
d="M372 267v2c0 56 -39 96 -103 96c-65 0 -105 -33 -118 -98h221zM442 190h-287c9 -67 63 -105 135 -105c31 0 59 6 84 17c11 5 19 7 26 7c15 0 27 -7 36 -21c5 -8 7 -15 7 -22c0 -17 -8 -30 -23 -39c-43 -25 -90 -38 -142 -38c-73 0 -131 22 -175 65
c-45 43 -67 100 -67 171c0 67 22 124 65 169s101 67 173 67c59 0 110 -19 151 -58s62 -90 62 -151v-21c-3 -27 -18 -41 -45 -41zM172 532c-36 0 -65 26 -65 67c0 39 29 64 65 64c32 0 60 -25 60 -64c0 -41 -28 -67 -60 -67zM370 532c-36 0 -64 26 -64 67c0 39 28 64 64 64
c32 0 60 -25 60 -64c0 -41 -27 -67 -60 -67z" />
    <glyph glyph-name="igrave" unicode="&#xec;" horiz-adv-x="277" 
d="M196 401v-353c0 -31 -25 -56 -57 -56c-33 0 -58 25 -58 56v353c0 31 25 56 58 56c32 0 57 -25 57 -56zM109 693l60 -93c4 -7 6 -14 6 -23c0 -16 -6 -28 -18 -36c-7 -5 -16 -8 -26 -8c-15 0 -27 5 -36 15l-71 81c-7 7 -10 15 -10 26c0 13 5 23 15 30l25 18c7 5 15 8 23 8
c14 0 25 -6 32 -18z" />
    <glyph glyph-name="iacute" unicode="&#xed;" horiz-adv-x="277" 
d="M196 401v-353c0 -31 -25 -56 -57 -56c-33 0 -58 25 -58 56v353c0 31 25 56 58 56c32 0 57 -25 57 -56zM85 600l61 95c7 11 18 17 32 17c9 0 16 -2 23 -7l24 -18c10 -7 15 -17 15 -31c0 -10 -3 -18 -9 -25l-72 -83c-9 -10 -20 -15 -34 -15c-9 0 -18 3 -27 8
c-13 9 -19 21 -19 37c0 8 2 15 6 22z" />
    <glyph glyph-name="icircumflex" unicode="&#xee;" horiz-adv-x="277" 
d="M196 401v-353c0 -31 -25 -56 -57 -56c-33 0 -58 25 -58 56v353c0 31 25 56 58 56c32 0 57 -25 57 -56zM43 523c-14 0 -25 6 -33 17c-6 7 -9 15 -9 26c0 14 5 26 16 35l89 77c9 8 20 12 33 12c14 0 25 -4 34 -13l88 -76c10 -9 15 -20 15 -34c0 -12 -3 -22 -10 -29
c-9 -11 -21 -17 -34 -17c-9 0 -18 3 -27 10l-67 54l-68 -53c-8 -6 -17 -9 -27 -9z" />
    <glyph glyph-name="idieresis" unicode="&#xef;" horiz-adv-x="277" 
d="M196 401v-353c0 -31 -25 -56 -57 -56c-33 0 -58 25 -58 56v353c0 31 25 56 58 56c32 0 57 -25 57 -56zM42 532c-36 0 -65 26 -65 67c0 39 29 64 65 64c32 0 60 -25 60 -64c0 -41 -28 -67 -60 -67zM240 532c-36 0 -64 26 -64 67c0 39 28 64 64 64c32 0 60 -25 60 -64
c0 -41 -27 -67 -60 -67z" />
    <glyph glyph-name="eth" unicode="&#xf0;" horiz-adv-x="562" 
d="M104 56c-45 44 -68 100 -68 169s23 125 68 170c45 44 104 66 177 66c41 0 73 -15 95 -45c-13 43 -34 83 -61 122l-73 -26c-6 -2 -12 -3 -17 -3c-24 0 -47 16 -52 37c-2 5 -3 10 -3 15c0 25 13 43 39 53l29 10c-4 4 -10 9 -18 16c-17 14 -26 29 -26 45c0 9 3 18 10 27
c8 11 19 17 34 17c10 0 21 -4 32 -11c25 -15 50 -33 76 -55l51 18c6 2 12 3 19 3c23 0 45 -15 50 -35c1 -3 2 -8 2 -15c0 -27 -14 -45 -42 -56c63 -96 100 -214 100 -314c0 -172 -94 -275 -245 -275c-73 0 -132 22 -177 67zM159 225c0 -75 51 -129 122 -129
c75 0 123 59 123 156v17c-15 49 -62 84 -123 84c-69 0 -122 -52 -122 -128z" />
    <glyph glyph-name="ntilde" unicode="&#xf1;" horiz-adv-x="546" 
d="M123 457c32 0 56 -23 56 -51c33 35 76 52 129 52c123 0 185 -65 185 -194v-216c0 -31 -25 -56 -57 -56c-33 0 -58 25 -58 56v196c0 71 -34 106 -101 106c-37 0 -69 -14 -98 -43v-259c0 -31 -25 -56 -57 -56c-33 0 -58 25 -58 56v346c0 39 23 63 59 63zM425 573
c-36 -32 -69 -48 -99 -48c-15 0 -34 8 -57 25s-43 25 -58 25c-7 0 -20 -6 -38 -17c-11 -7 -20 -10 -27 -10c-9 0 -19 5 -28 15c-5 5 -7 12 -7 20c0 13 5 25 16 34c33 28 64 42 93 42c16 0 36 -8 60 -25s43 -25 56 -25c18 0 30 11 41 19c11 7 20 11 29 11s18 -4 26 -13
c6 -7 9 -14 9 -22c0 -11 -5 -22 -16 -31z" />
    <glyph glyph-name="ograve" unicode="&#xf2;" horiz-adv-x="562" 
d="M104 56c-45 44 -68 100 -68 169s23 125 68 170c45 44 104 66 177 66s133 -22 178 -66c45 -45 67 -101 67 -170s-22 -125 -67 -169c-45 -45 -105 -67 -178 -67s-132 22 -177 67zM159 225c0 -75 51 -129 122 -129c72 0 123 52 123 129c0 75 -52 128 -123 128
c-69 0 -122 -52 -122 -128zM270 693l60 -93c4 -7 6 -14 6 -23c0 -16 -6 -28 -18 -36c-7 -5 -16 -8 -26 -8c-15 0 -27 5 -36 15l-71 81c-7 7 -10 15 -10 26c0 13 5 23 15 30l25 18c7 5 15 8 23 8c15 0 25 -6 32 -18z" />
    <glyph glyph-name="oacute" unicode="&#xf3;" horiz-adv-x="562" 
d="M104 56c-45 44 -68 100 -68 169s23 125 68 170c45 44 104 66 177 66s133 -22 178 -66c45 -45 67 -101 67 -170s-22 -125 -67 -169c-45 -45 -105 -67 -178 -67s-132 22 -177 67zM159 225c0 -75 51 -129 122 -129c72 0 123 52 123 129c0 75 -52 128 -123 128
c-69 0 -122 -52 -122 -128zM233 600l61 95c7 11 18 17 32 17c9 0 16 -2 23 -7l24 -18c10 -7 15 -17 15 -31c0 -10 -3 -18 -9 -25l-72 -83c-9 -10 -20 -15 -34 -15c-9 0 -18 3 -27 8c-13 9 -19 21 -19 37c0 8 2 15 6 22z" />
    <glyph glyph-name="ocircumflex" unicode="&#xf4;" horiz-adv-x="562" 
d="M104 56c-45 44 -68 100 -68 169s23 125 68 170c45 44 104 66 177 66s133 -22 178 -66c45 -45 67 -101 67 -170s-22 -125 -67 -169c-45 -45 -105 -67 -178 -67s-132 22 -177 67zM159 225c0 -75 51 -129 122 -129c72 0 123 52 123 129c0 75 -52 128 -123 128
c-69 0 -122 -52 -122 -128zM187 523c-14 0 -25 6 -33 17c-6 7 -9 16 -9 26c0 14 5 26 16 35l89 77c9 8 20 12 33 12c14 0 25 -4 34 -13l88 -76c10 -9 15 -20 15 -34c0 -12 -3 -22 -10 -29c-9 -11 -21 -17 -34 -17c-9 0 -18 3 -27 10l-67 54l-68 -53c-8 -6 -17 -9 -27 -9z
" />
    <glyph glyph-name="otilde" unicode="&#xf5;" horiz-adv-x="562" 
d="M104 56c-45 44 -68 100 -68 169s23 125 68 170c45 44 104 66 177 66s133 -22 178 -66c45 -45 67 -101 67 -170s-22 -125 -67 -169c-45 -45 -105 -67 -178 -67s-132 22 -177 67zM159 225c0 -75 51 -129 122 -129c72 0 123 52 123 129c0 75 -52 128 -123 128
c-69 0 -122 -52 -122 -128zM433 573c-36 -32 -69 -48 -99 -48c-15 0 -34 8 -57 25s-43 25 -58 25c-7 0 -20 -6 -38 -17c-11 -7 -20 -10 -27 -10c-9 0 -19 5 -28 15c-5 5 -7 12 -7 20c0 13 5 25 16 34c33 28 64 42 93 42c16 0 36 -8 60 -25s43 -25 56 -25c18 0 30 11 41 19
c11 7 20 11 29 11s18 -4 26 -13c6 -7 9 -14 9 -22c0 -11 -5 -22 -16 -31z" />
    <glyph glyph-name="odieresis" unicode="&#xf6;" horiz-adv-x="562" 
d="M104 56c-45 44 -68 100 -68 169s23 125 68 170c45 44 104 66 177 66s133 -22 178 -66c45 -45 67 -101 67 -170s-22 -125 -67 -169c-45 -45 -105 -67 -178 -67s-132 22 -177 67zM159 225c0 -75 51 -129 122 -129c72 0 123 52 123 129c0 75 -52 128 -123 128
c-69 0 -122 -52 -122 -128zM191 532c-36 0 -65 26 -65 67c0 39 29 64 65 64c32 0 60 -25 60 -64c0 -41 -28 -67 -60 -67zM389 532c-36 0 -64 26 -64 67c0 39 28 64 64 64c32 0 60 -25 60 -64c0 -41 -27 -67 -60 -67z" />
    <glyph glyph-name="divide" unicode="&#xf7;" 
d="M298 622c40 0 67 -30 67 -65c0 -37 -27 -70 -67 -70c-41 0 -68 33 -68 70c0 35 27 65 68 65zM298 230c39 0 67 -33 67 -66c0 -37 -27 -70 -67 -70c-41 0 -68 31 -68 70c0 33 27 66 68 66zM116 410h364c28 0 50 -22 50 -50s-22 -50 -50 -50h-364c-28 0 -50 22 -50 50
s22 50 50 50z" />
    <glyph glyph-name="oslash" unicode="&#xf8;" horiz-adv-x="577" 
d="M130 36l-17 -15c-9 -12 -32 -13 -45 3c-5 7 -8 14 -8 22c0 11 4 19 11 24l13 11c-32 40 -48 88 -48 144c0 68 24 124 71 169s108 67 182 67c61 0 113 -16 158 -48l17 15c7 5 14 8 21 8c10 0 18 -4 24 -11c5 -7 8 -13 8 -20c0 -10 -4 -18 -12 -25l-13 -11
c33 -41 49 -89 49 -144c0 -68 -23 -124 -70 -169s-108 -67 -182 -67c-62 0 -115 16 -159 47zM404 288l-188 -173c21 -13 46 -19 73 -19c79 0 130 52 130 129c0 24 -5 45 -15 63zM173 162l188 172c-21 13 -45 19 -72 19c-77 0 -130 -51 -130 -128c0 -23 5 -44 14 -63z" />
    <glyph glyph-name="ugrave" unicode="&#xf9;" horiz-adv-x="535" 
d="M356 151v250c0 31 25 56 58 56c32 0 57 -25 57 -56v-353c0 -31 -25 -56 -58 -56s-57 24 -57 63c-36 -44 -84 -66 -144 -66c-93 0 -158 63 -158 186v226c0 31 25 56 58 56c32 0 57 -25 57 -56v-202c0 -69 29 -103 86 -103c39 0 73 18 101 55zM252 693l60 -93
c4 -7 6 -14 6 -23c0 -16 -6 -28 -18 -36c-7 -5 -16 -8 -26 -8c-15 0 -27 5 -36 15l-71 81c-7 7 -10 15 -10 26c0 13 5 23 15 30l25 18c7 5 15 8 23 8c15 0 25 -6 32 -18z" />
    <glyph glyph-name="uacute" unicode="&#xfa;" horiz-adv-x="535" 
d="M356 151v250c0 31 25 56 58 56c32 0 57 -25 57 -56v-353c0 -31 -25 -56 -58 -56s-57 24 -57 63c-36 -44 -84 -66 -144 -66c-93 0 -158 63 -158 186v226c0 31 25 56 58 56c32 0 57 -25 57 -56v-202c0 -69 29 -103 86 -103c39 0 73 18 101 55zM223 600l61 95
c7 11 18 17 32 17c9 0 16 -2 23 -7l24 -18c10 -7 15 -17 15 -31c0 -10 -3 -18 -9 -25l-72 -83c-9 -10 -20 -15 -34 -15c-9 0 -18 3 -27 8c-13 9 -19 21 -19 37c0 8 2 15 6 22z" />
    <glyph glyph-name="ucircumflex" unicode="&#xfb;" horiz-adv-x="535" 
d="M356 151v250c0 31 25 56 58 56c32 0 57 -25 57 -56v-353c0 -31 -25 -56 -58 -56s-57 24 -57 63c-36 -44 -84 -66 -144 -66c-93 0 -158 63 -158 186v226c0 31 25 56 58 56c32 0 57 -25 57 -56v-202c0 -69 29 -103 86 -103c39 0 73 18 101 55zM171 523c-14 0 -25 6 -33 17
c-6 7 -9 16 -9 26c0 14 5 26 16 35l89 77c9 8 20 12 33 12c14 0 25 -4 34 -13l88 -76c10 -9 15 -20 15 -34c0 -12 -3 -22 -10 -29c-9 -11 -21 -17 -34 -17c-9 0 -18 3 -27 10l-67 54l-68 -53c-8 -6 -17 -9 -27 -9z" />
    <glyph glyph-name="udieresis" unicode="&#xfc;" horiz-adv-x="535" 
d="M356 151v250c0 31 25 56 58 56c32 0 57 -25 57 -56v-353c0 -31 -25 -56 -58 -56s-57 24 -57 63c-36 -44 -84 -66 -144 -66c-93 0 -158 63 -158 186v226c0 31 25 56 58 56c32 0 57 -25 57 -56v-202c0 -69 29 -103 86 -103c39 0 73 18 101 55zM168 532c-36 0 -65 26 -65 67
c0 39 29 64 65 64c32 0 60 -25 60 -64c0 -41 -28 -67 -60 -67zM366 532c-36 0 -64 26 -64 67c0 39 28 64 64 64c32 0 60 -25 60 -64c0 -41 -27 -67 -60 -67z" />
    <glyph glyph-name="yacute" unicode="&#xfd;" horiz-adv-x="485" 
d="M146 415l90 -211c4 -10 11 -32 22 -65c5 29 11 51 16 66l69 209c9 29 29 43 58 43c37 0 60 -23 60 -55c0 -9 -2 -20 -6 -31l-146 -371c-31 -80 -59 -133 -84 -160s-55 -40 -90 -40c-23 0 -43 4 -59 11c-21 9 -32 26 -32 49c0 27 16 48 47 48c8 0 25 -2 32 -2h6
c23 1 44 24 62 70l10 24l-170 367c-5 11 -7 20 -7 29c0 33 25 61 68 61c23 0 43 -18 54 -42zM187 600l61 95c7 11 18 17 32 17c9 0 16 -2 23 -7l24 -18c10 -7 15 -17 15 -31c0 -10 -3 -18 -9 -25l-72 -83c-9 -10 -20 -15 -34 -15c-9 0 -18 3 -27 8c-13 9 -19 21 -19 37
c0 8 2 15 6 22z" />
    <glyph glyph-name="thorn" unicode="&#xfe;" horiz-adv-x="558" 
d="M179 11v-155c0 -31 -25 -56 -57 -56c-33 0 -58 25 -58 56v788c0 31 25 56 58 56c32 0 57 -25 57 -56v-230c36 31 82 47 139 47c61 0 111 -21 148 -64s56 -98 56 -165c0 -70 -22 -128 -66 -174s-101 -69 -172 -69c-45 0 -80 7 -105 22zM179 304v-182c27 -17 58 -26 95 -26
c77 0 126 56 126 133c0 73 -43 124 -118 124c-39 0 -74 -16 -103 -49z" />
    <glyph glyph-name="ydieresis" unicode="&#xff;" horiz-adv-x="485" 
d="M146 415l90 -211c4 -10 11 -32 22 -65c5 29 11 51 16 66l69 209c9 29 29 43 58 43c37 0 60 -23 60 -55c0 -9 -2 -20 -6 -31l-146 -371c-31 -80 -59 -133 -84 -160s-55 -40 -90 -40c-23 0 -43 4 -59 11c-21 9 -32 26 -32 49c0 27 16 48 47 48c8 0 25 -2 32 -2h6
c23 1 44 24 62 70l10 24l-170 367c-5 11 -7 20 -7 29c0 33 25 61 68 61c23 0 43 -18 54 -42zM150 532c-36 0 -65 26 -65 67c0 39 29 64 65 64c32 0 60 -25 60 -64c0 -41 -28 -67 -60 -67zM348 532c-36 0 -64 26 -64 67c0 39 28 64 64 64c32 0 60 -25 60 -64
c0 -41 -27 -67 -60 -67z" />
    <glyph glyph-name="Amacron" unicode="&#x100;" horiz-adv-x="689" 
d="M549 30l-58 141h-299l-59 -145c-9 -23 -26 -34 -53 -34c-32 0 -57 25 -57 56c0 7 2 14 5 22l249 585c15 33 38 50 69 50c30 0 52 -17 67 -50l248 -583c3 -9 5 -17 5 -24c0 -31 -26 -56 -57 -56c-30 0 -50 13 -60 38zM444 286l-102 251l-103 -251h205zM236 852h217
c25 0 46 -21 46 -46s-21 -46 -46 -46h-217c-25 0 -46 21 -46 46s21 46 46 46z" />
    <glyph glyph-name="amacron" unicode="&#x101;" horiz-adv-x="463" 
d="M35 132c0 95 68 146 164 146c41 0 75 -10 102 -29v14c0 69 -23 102 -84 102c-25 0 -49 -3 -70 -10c-11 -3 -18 -4 -23 -4c-18 0 -31 8 -39 24c-3 6 -4 12 -4 19c0 19 11 34 33 43c37 16 75 24 115 24c128 0 180 -63 180 -187v-229c0 -27 -22 -51 -51 -51s-49 22 -49 54
c-29 -36 -73 -54 -133 -54c-84 0 -141 53 -141 138zM301 132v46c-19 15 -46 22 -79 22c-41 0 -72 -20 -72 -56c0 -33 27 -53 64 -53c39 0 68 14 87 41zM142 642h187c25 0 46 -21 46 -46s-21 -46 -46 -46h-187c-25 0 -46 21 -46 46s21 46 46 46z" />
    <glyph glyph-name="Abreve" unicode="&#x102;" horiz-adv-x="689" 
d="M549 30l-58 141h-299l-59 -145c-9 -23 -26 -34 -53 -34c-32 0 -57 25 -57 56c0 7 2 14 5 22l249 585c15 33 38 50 69 50c30 0 52 -17 67 -50l248 -583c3 -9 5 -17 5 -24c0 -31 -26 -56 -57 -56c-30 0 -50 13 -60 38zM444 286l-102 251l-103 -251h205zM535 849
c0 -11 -3 -19 -9 -25c-43 -48 -113 -87 -176 -87c-68 0 -128 29 -179 87c-12 12 -13 37 2 52c8 8 17 12 27 12c11 0 22 -4 34 -13c32 -25 71 -38 116 -38c43 0 80 13 113 38c12 9 23 13 33 13c11 0 20 -4 28 -12c7 -7 11 -16 11 -27z" />
    <glyph glyph-name="abreve" unicode="&#x103;" horiz-adv-x="463" 
d="M35 132c0 95 68 146 164 146c41 0 75 -10 102 -29v14c0 69 -23 102 -84 102c-25 0 -49 -3 -70 -10c-11 -3 -18 -4 -23 -4c-18 0 -31 8 -39 24c-3 6 -4 12 -4 19c0 19 11 34 33 43c37 16 75 24 115 24c128 0 180 -63 180 -187v-229c0 -27 -22 -51 -51 -51s-49 22 -49 54
c-29 -36 -73 -54 -133 -54c-84 0 -141 53 -141 138zM301 132v46c-19 15 -46 22 -79 22c-41 0 -72 -20 -72 -56c0 -33 27 -53 64 -53c39 0 68 14 87 41zM384 637c0 -9 -2 -16 -7 -21c-43 -56 -93 -84 -152 -84c-57 0 -104 28 -142 83c-5 7 -7 14 -7 21c0 11 5 20 14 27
c7 5 15 8 23 8c11 0 20 -4 28 -12c27 -23 56 -34 89 -34c34 0 64 11 91 33c10 8 20 12 29 12c7 0 15 -3 22 -8c8 -6 12 -14 12 -25z" />
    <glyph glyph-name="Aogonek" unicode="&#x104;" horiz-adv-x="689" 
d="M549 30l-58 141h-299l-59 -145c-9 -23 -26 -34 -53 -34c-32 0 -57 25 -57 56c0 7 2 14 5 22l249 585c15 33 38 50 69 50c30 0 52 -17 67 -50l248 -583c3 -9 5 -17 5 -24c0 -31 -26 -56 -57 -56c-9 0 -17 1 -23 3c-35 -11 -58 -38 -58 -63c0 -27 17 -40 51 -40
c39 0 56 -5 61 -28c1 -3 1 -7 1 -12c0 -20 -9 -33 -27 -40c-19 -8 -41 -12 -67 -12c-76 0 -134 30 -134 94c0 63 61 105 145 120c-4 5 -7 11 -9 16zM444 286l-102 251l-103 -251h205z" />
    <glyph glyph-name="aogonek" unicode="&#x105;" horiz-adv-x="463" 
d="M35 132c0 95 68 146 164 146c41 0 75 -10 102 -29v14c0 69 -23 102 -84 102c-25 0 -49 -3 -70 -10c-11 -3 -18 -4 -23 -4c-18 0 -31 8 -39 24c-3 6 -4 12 -4 19c0 19 11 34 33 43c37 16 75 24 115 24c128 0 180 -63 180 -187v-229c0 -27 -22 -51 -51 -51c-3 0 -8 1 -13 2
c-20 -10 -30 -28 -30 -55c0 -33 21 -49 49 -49c39 0 56 -5 61 -28c1 -3 1 -7 1 -12c0 -20 -9 -33 -27 -40c-19 -8 -41 -12 -67 -12c-76 0 -132 27 -132 91c0 52 55 102 119 121c-7 9 -10 21 -10 36c-29 -36 -73 -54 -133 -54c-84 0 -141 53 -141 138zM301 132v46
c-19 15 -46 22 -79 22c-41 0 -72 -20 -72 -56c0 -33 27 -53 64 -53c39 0 68 14 87 41z" />
    <glyph glyph-name="Cacute" unicode="&#x106;" horiz-adv-x="645" 
d="M509 573c-36 15 -71 23 -106 23c-66 0 -120 -22 -163 -67s-65 -104 -65 -179c0 -73 23 -132 68 -177c45 -46 103 -69 174 -69c37 0 75 9 112 27c15 7 29 10 40 10c19 0 34 -8 45 -23c7 -9 10 -20 10 -32c0 -21 -9 -37 -28 -49c-49 -32 -112 -48 -190 -48
c-107 0 -194 33 -261 99s-100 153 -100 262c0 105 32 191 95 259s151 102 263 102c59 0 111 -12 158 -36c25 -12 38 -29 38 -52c0 -9 -3 -18 -8 -29c-11 -19 -27 -28 -49 -28c-12 0 -23 2 -33 7zM333 817l148 77c5 3 10 4 16 4c15 0 25 -7 32 -21l13 -31c2 -4 3 -9 3 -14
c0 -16 -8 -27 -23 -32l-155 -57c-3 -1 -7 -2 -13 -2c-18 0 -31 8 -38 25c-3 5 -4 10 -4 17c0 16 7 27 21 34z" />
    <glyph glyph-name="cacute" unicode="&#x107;" horiz-adv-x="476" 
d="M351 341c-22 8 -44 12 -67 12c-33 0 -62 -12 -87 -35c-25 -24 -38 -55 -38 -93c0 -77 59 -129 130 -129c29 0 53 6 74 18c13 8 26 12 40 12c15 0 29 -7 40 -21c7 -9 10 -19 10 -30c0 -18 -8 -33 -24 -45c-37 -27 -86 -41 -146 -41c-75 0 -134 22 -179 65s-68 100 -68 171
c0 67 22 123 66 168s100 68 167 68c53 0 95 -8 127 -24c24 -11 36 -27 36 -48c0 -6 -2 -14 -7 -25c-10 -19 -25 -29 -46 -29c-9 0 -18 2 -28 6zM218 600l61 95c7 11 18 17 32 17c9 0 16 -2 23 -7l24 -18c10 -7 15 -17 15 -31c0 -10 -3 -18 -9 -25l-72 -83
c-9 -10 -21 -15 -34 -15c-9 0 -18 3 -27 8c-13 9 -19 21 -19 37c0 8 2 15 6 22z" />
    <glyph glyph-name="Ccircumflex" unicode="&#x108;" horiz-adv-x="645" 
d="M509 573c-36 15 -71 23 -106 23c-66 0 -120 -22 -163 -67s-65 -104 -65 -179c0 -73 23 -132 68 -177c45 -46 103 -69 174 -69c37 0 75 9 112 27c15 7 29 10 40 10c19 0 34 -8 45 -23c7 -9 10 -20 10 -32c0 -21 -9 -37 -28 -49c-49 -32 -112 -48 -190 -48
c-107 0 -194 33 -261 99s-100 153 -100 262c0 105 32 191 95 259s151 102 263 102c59 0 111 -12 158 -36c25 -12 38 -29 38 -52c0 -9 -3 -18 -8 -29c-11 -19 -27 -28 -49 -28c-12 0 -23 2 -33 7zM487 746l-102 53l-102 -53c-5 -3 -12 -5 -20 -5c-15 0 -26 6 -34 18
c-4 6 -6 13 -6 21c0 14 6 25 17 33l113 70c9 7 20 10 33 10c11 0 22 -3 32 -9l115 -71c11 -7 17 -18 17 -32c0 -8 -2 -15 -7 -22c-9 -12 -20 -18 -35 -18c-8 0 -15 2 -21 5z" />
    <glyph glyph-name="ccircumflex" unicode="&#x109;" horiz-adv-x="476" 
d="M351 341c-22 8 -44 12 -67 12c-33 0 -62 -12 -87 -35c-25 -24 -38 -55 -38 -93c0 -77 59 -129 130 -129c29 0 53 6 74 18c13 8 26 12 40 12c15 0 29 -7 40 -21c7 -9 10 -19 10 -30c0 -18 -8 -33 -24 -45c-37 -27 -86 -41 -146 -41c-75 0 -134 22 -179 65s-68 100 -68 171
c0 67 22 123 66 168s100 68 167 68c53 0 95 -8 127 -24c24 -11 36 -27 36 -48c0 -6 -2 -14 -7 -25c-10 -19 -25 -29 -46 -29c-9 0 -18 2 -28 6zM181 523c-14 0 -25 6 -33 17c-6 7 -9 16 -9 26c0 14 5 26 16 35l89 77c9 8 20 12 33 12c14 0 25 -4 34 -13l88 -76
c10 -9 15 -20 15 -34c0 -12 -3 -22 -10 -29c-9 -11 -21 -17 -34 -17c-9 0 -18 3 -27 10l-67 54l-68 -53c-8 -6 -17 -9 -27 -9z" />
    <glyph glyph-name="Cdotaccent" unicode="&#x10a;" horiz-adv-x="645" 
d="M509 573c-36 15 -71 23 -106 23c-66 0 -120 -22 -163 -67s-65 -104 -65 -179c0 -73 23 -132 68 -177c45 -46 103 -69 174 -69c37 0 75 9 112 27c15 7 29 10 40 10c19 0 34 -8 45 -23c7 -9 10 -20 10 -32c0 -21 -9 -37 -28 -49c-49 -32 -112 -48 -190 -48
c-107 0 -194 33 -261 99s-100 153 -100 262c0 105 32 191 95 259s151 102 263 102c59 0 111 -12 158 -36c25 -12 38 -29 38 -52c0 -9 -3 -18 -8 -29c-11 -19 -27 -28 -49 -28c-12 0 -23 2 -33 7zM383 902c40 0 75 -28 75 -71c0 -45 -35 -75 -75 -75c-44 0 -79 28 -79 75
c0 43 35 71 79 71z" />
    <glyph glyph-name="cdotaccent" unicode="&#x10b;" horiz-adv-x="476" 
d="M351 341c-22 8 -44 12 -67 12c-33 0 -62 -12 -87 -35c-25 -24 -38 -55 -38 -93c0 -77 59 -129 130 -129c29 0 53 6 74 18c13 8 26 12 40 12c15 0 29 -7 40 -21c7 -9 10 -19 10 -30c0 -18 -8 -33 -24 -45c-37 -27 -86 -41 -146 -41c-75 0 -134 22 -179 65s-68 100 -68 171
c0 67 22 123 66 168s100 68 167 68c53 0 95 -8 127 -24c24 -11 36 -27 36 -48c0 -6 -2 -14 -7 -25c-10 -19 -25 -29 -46 -29c-9 0 -18 2 -28 6zM275 679c35 0 66 -27 66 -67c0 -44 -31 -72 -66 -72c-41 0 -72 28 -72 72c0 40 32 67 72 67z" />
    <glyph glyph-name="Ccaron" unicode="&#x10c;" horiz-adv-x="645" 
d="M509 573c-36 15 -71 23 -106 23c-66 0 -120 -22 -163 -67s-65 -104 -65 -179c0 -73 23 -132 68 -177c45 -46 103 -69 174 -69c37 0 75 9 112 27c15 7 29 10 40 10c19 0 34 -8 45 -23c7 -9 10 -20 10 -32c0 -21 -9 -37 -28 -49c-49 -32 -112 -48 -190 -48
c-107 0 -194 33 -261 99s-100 153 -100 262c0 105 32 191 95 259s151 102 263 102c59 0 111 -12 158 -36c25 -12 38 -29 38 -52c0 -9 -3 -18 -8 -29c-11 -19 -27 -28 -49 -28c-12 0 -23 2 -33 7zM512 897c15 0 26 -6 33 -17c4 -6 6 -13 6 -20c0 -14 -6 -25 -18 -34l-112 -70
c-9 -7 -21 -10 -34 -10c-12 0 -23 3 -33 9l-113 71c-11 7 -17 18 -17 32c0 9 2 16 7 23c8 11 19 17 33 17c8 0 15 -2 22 -6l103 -60l102 60c5 3 12 5 21 5z" />
    <glyph glyph-name="ccaron" unicode="&#x10d;" horiz-adv-x="476" 
d="M351 341c-22 8 -44 12 -67 12c-33 0 -62 -12 -87 -35c-25 -24 -38 -55 -38 -93c0 -77 59 -129 130 -129c29 0 53 6 74 18c13 8 26 12 40 12c15 0 29 -7 40 -21c7 -9 10 -19 10 -30c0 -18 -8 -33 -24 -45c-37 -27 -86 -41 -146 -41c-75 0 -134 22 -179 65s-68 100 -68 171
c0 67 22 123 66 168s100 68 167 68c53 0 95 -8 127 -24c24 -11 36 -27 36 -48c0 -6 -2 -14 -7 -25c-10 -19 -25 -29 -46 -29c-9 0 -18 2 -28 6zM370 691c11 0 21 -4 30 -13c7 -7 10 -16 10 -27c0 -14 -5 -25 -15 -33l-93 -81c-9 -8 -20 -12 -33 -12c-14 0 -25 4 -34 13
l-92 80c-9 9 -14 20 -14 33c0 10 4 19 11 28s18 14 32 14c12 0 22 -4 29 -11l69 -63l70 61c9 7 19 11 30 11z" />
    <glyph glyph-name="Dcaron" unicode="&#x10e;" horiz-adv-x="741" 
d="M158 701c68 1 116 2 145 2c280 0 393 -161 393 -346c0 -104 -35 -190 -104 -257c-70 -68 -169 -102 -297 -102c-18 0 -64 1 -137 2c-35 0 -61 28 -61 61v578c0 33 26 61 61 62zM220 585v-470c23 -1 49 -2 79 -2c167 0 267 95 267 244c0 143 -100 231 -265 231
c-26 0 -53 -1 -81 -3zM460 897c15 0 26 -6 33 -17c4 -6 6 -13 6 -20c0 -14 -6 -25 -18 -34l-112 -70c-9 -7 -21 -10 -34 -10c-12 0 -23 3 -33 9l-113 71c-11 7 -17 18 -17 32c0 9 2 16 7 23c8 11 19 17 33 17c7 0 15 -2 22 -6l103 -60l102 60c5 3 12 5 21 5z" />
    <glyph glyph-name="dcaron" unicode="&#x10f;" horiz-adv-x="556" 
d="M492 644v-588c0 -35 -18 -64 -57 -64c-33 0 -57 22 -58 55c-35 -37 -78 -55 -129 -55c-64 0 -115 21 -154 63c-39 41 -58 96 -58 165c0 71 23 129 69 174s105 67 178 67c38 0 69 -7 94 -22v205c0 31 25 56 58 56c32 0 57 -25 57 -56zM377 145v181c-29 18 -58 27 -89 27
c-72 0 -129 -49 -129 -129c0 -77 49 -125 113 -125c39 0 74 15 105 46zM542 541c0 9 3 18 9 28c16 25 24 48 24 69c0 6 0 10 -1 13c-2 10 -3 18 -3 25c0 16 9 24 28 24h48c23 0 34 -11 34 -34c0 -65 -23 -117 -70 -155c-7 -5 -16 -8 -27 -8c-12 0 -21 3 -28 9
c-9 9 -14 18 -14 29z" />
    <glyph glyph-name="Dcroat" unicode="&#x110;" horiz-adv-x="749" 
d="M303 -2c-19 0 -67 1 -144 2c-31 0 -54 24 -54 55v242h-41c-29 0 -54 25 -54 54s25 54 54 54h41v240c0 31 23 55 54 56c19 0 46 0 82 1c35 1 59 1 70 1c280 0 393 -161 393 -346c0 -104 -35 -190 -104 -257c-70 -68 -169 -102 -297 -102zM350 297h-123v-182
c23 -1 49 -2 80 -2c167 0 267 95 267 244c0 143 -100 231 -265 231c-27 0 -54 -1 -82 -3v-180h123c29 0 54 -25 54 -54s-25 -54 -54 -54z" />
    <glyph glyph-name="dslash" unicode="&#x111;" horiz-adv-x="561" 
d="M377 145v181c-29 18 -58 27 -89 27c-72 0 -129 -49 -129 -129c0 -77 49 -125 113 -125c39 0 74 15 105 46zM377 439v81h-83c-25 0 -45 20 -45 47c0 25 20 46 45 46h83v31c0 31 25 56 58 56c32 0 57 -25 57 -56v-31h33c25 0 45 -21 45 -46c0 -27 -20 -47 -45 -47h-33v-464
c0 -35 -18 -64 -57 -64c-33 0 -57 22 -58 55c-35 -37 -78 -55 -129 -55c-64 0 -115 21 -154 63c-39 41 -58 96 -58 165c0 71 23 129 69 174s105 67 178 67c38 0 69 -7 94 -22z" />
    <glyph glyph-name="Emacron" unicode="&#x112;" horiz-adv-x="575" 
d="M220 296v-181h236c31 0 56 -25 56 -57c0 -33 -25 -58 -56 -58h-303c-31 0 -56 25 -56 56v588c0 31 25 56 56 56h293c31 0 56 -25 56 -57c0 -33 -25 -58 -56 -58h-226v-174h196c31 0 56 -25 56 -57c0 -33 -25 -58 -56 -58h-196zM191 852h217c25 0 46 -21 46 -46
s-21 -46 -46 -46h-217c-25 0 -46 21 -46 46s21 46 46 46z" />
    <glyph glyph-name="emacron" unicode="&#x113;" horiz-adv-x="523" 
d="M372 267v2c0 56 -39 96 -103 96c-65 0 -105 -33 -118 -98h221zM442 190h-287c9 -67 63 -105 135 -105c31 0 59 6 84 17c11 5 19 7 26 7c15 0 27 -7 36 -21c5 -8 7 -15 7 -22c0 -17 -8 -30 -23 -39c-43 -25 -90 -38 -142 -38c-73 0 -131 22 -175 65
c-45 43 -67 100 -67 171c0 67 22 124 65 169s101 67 173 67c59 0 110 -19 151 -58s62 -90 62 -151v-21c-3 -27 -18 -41 -45 -41zM171 642h187c25 0 46 -21 46 -46s-21 -46 -46 -46h-187c-25 0 -46 21 -46 46s21 46 46 46z" />
    <glyph glyph-name="Edotaccent" unicode="&#x116;" horiz-adv-x="575" 
d="M220 296v-181h236c31 0 56 -25 56 -57c0 -33 -25 -58 -56 -58h-303c-31 0 -56 25 -56 56v588c0 31 25 56 56 56h293c31 0 56 -25 56 -57c0 -33 -25 -58 -56 -58h-226v-174h196c31 0 56 -25 56 -57c0 -33 -25 -58 -56 -58h-196zM306 902c40 0 75 -28 75 -71
c0 -45 -35 -75 -75 -75c-44 0 -79 28 -79 75c0 43 35 71 79 71z" />
    <glyph glyph-name="edotaccent" unicode="&#x117;" horiz-adv-x="523" 
d="M372 267v2c0 56 -39 96 -103 96c-65 0 -105 -33 -118 -98h221zM442 190h-287c9 -67 63 -105 135 -105c31 0 59 6 84 17c11 5 19 7 26 7c15 0 27 -7 36 -21c5 -8 7 -15 7 -22c0 -17 -8 -30 -23 -39c-43 -25 -90 -38 -142 -38c-73 0 -131 22 -175 65
c-45 43 -67 100 -67 171c0 67 22 124 65 169s101 67 173 67c59 0 110 -19 151 -58s62 -90 62 -151v-21c-3 -27 -18 -41 -45 -41zM269 679c35 0 66 -27 66 -67c0 -44 -31 -72 -66 -72c-41 0 -72 28 -72 72c0 40 32 67 72 67z" />
    <glyph glyph-name="Eogonek" unicode="&#x118;" horiz-adv-x="575" 
d="M460 0h-9c-48 0 -90 -36 -90 -68c0 -27 17 -40 51 -40c39 0 56 -5 61 -28c1 -3 1 -7 1 -12c0 -20 -9 -33 -27 -40c-19 -8 -41 -12 -67 -12c-76 0 -134 30 -134 94c0 47 31 83 94 106h-187c-31 0 -56 25 -56 56v588c0 31 25 56 56 56h293c31 0 56 -25 56 -57
c0 -33 -25 -58 -56 -58h-226v-174h196c31 0 56 -25 56 -57c0 -33 -25 -58 -56 -58h-196v-181h236c31 0 56 -25 56 -57s-23 -55 -52 -58z" />
    <glyph glyph-name="eogonek" unicode="&#x119;" horiz-adv-x="523" 
d="M442 190h-287c9 -67 63 -105 135 -105c31 0 59 6 84 17c11 5 19 7 26 7c15 0 27 -7 36 -21c5 -8 7 -15 7 -22c0 -17 -8 -30 -23 -39c-40 -24 -86 -37 -139 -38c-27 -13 -44 -37 -44 -57c0 -27 17 -40 51 -40c39 0 56 -5 61 -28c1 -3 1 -7 1 -12c0 -20 -9 -33 -27 -40
c-19 -8 -41 -12 -67 -12c-76 0 -134 30 -134 94c0 46 29 80 86 103c-105 25 -172 111 -172 228c0 67 22 124 65 169s101 67 173 67c59 0 110 -19 151 -58s62 -90 62 -151v-21c-3 -27 -18 -41 -45 -41zM372 267v2c0 56 -39 96 -103 96c-65 0 -105 -33 -118 -98h221z" />
    <glyph glyph-name="Ecaron" unicode="&#x11a;" horiz-adv-x="575" 
d="M220 296v-181h236c31 0 56 -25 56 -57c0 -33 -25 -58 -56 -58h-303c-31 0 -56 25 -56 56v588c0 31 25 56 56 56h293c31 0 56 -25 56 -57c0 -33 -25 -58 -56 -58h-226v-174h196c31 0 56 -25 56 -57c0 -33 -25 -58 -56 -58h-196zM432 897c15 0 26 -6 33 -17
c4 -6 6 -13 6 -20c0 -14 -6 -25 -18 -34l-112 -70c-9 -7 -21 -10 -34 -10c-12 0 -23 3 -33 9l-113 71c-11 7 -17 18 -17 32c0 9 2 16 7 23c8 11 19 17 33 17c8 0 15 -2 22 -6l103 -60l102 60c5 3 12 5 21 5z" />
    <glyph glyph-name="ecaron" unicode="&#x11b;" horiz-adv-x="523" 
d="M372 267v2c0 56 -39 96 -103 96c-65 0 -105 -33 -118 -98h221zM442 190h-287c9 -67 63 -105 135 -105c31 0 59 6 84 17c11 5 19 7 26 7c15 0 27 -7 36 -21c5 -8 7 -15 7 -22c0 -17 -8 -30 -23 -39c-43 -25 -90 -38 -142 -38c-73 0 -131 22 -175 65
c-45 43 -67 100 -67 171c0 67 22 124 65 169s101 67 173 67c59 0 110 -19 151 -58s62 -90 62 -151v-21c-3 -27 -18 -41 -45 -41zM374 691c11 0 21 -4 30 -13c7 -7 10 -16 10 -27c0 -14 -5 -25 -15 -33l-93 -81c-9 -8 -20 -12 -33 -12c-14 0 -25 4 -34 13l-92 80
c-9 9 -14 20 -14 33c0 10 4 19 11 28s18 14 32 14c12 0 22 -4 29 -11l69 -63l70 61c9 7 19 11 30 11z" />
    <glyph glyph-name="Gcircumflex" unicode="&#x11c;" horiz-adv-x="727" 
d="M45 350c0 104 33 190 99 259c65 68 154 102 265 102c59 0 111 -12 158 -36c25 -12 38 -29 38 -52c0 -9 -3 -18 -8 -29c-11 -19 -27 -28 -49 -28c-12 0 -23 2 -33 7c-36 15 -71 23 -106 23c-69 0 -126 -22 -169 -65c-43 -44 -65 -104 -65 -181c0 -74 22 -133 65 -178
s101 -68 172 -68c53 0 118 23 145 48v110h-113c-31 0 -56 25 -56 58c0 32 25 57 56 57h172c31 0 56 -25 56 -56v-189c0 -34 -15 -61 -44 -80c-61 -39 -147 -63 -218 -63c-113 0 -202 33 -267 98s-98 153 -98 263zM487 746l-102 53l-102 -53c-5 -3 -12 -5 -20 -5
c-15 0 -26 6 -34 18c-4 6 -6 13 -6 21c0 14 6 25 17 33l113 70c9 7 20 10 33 10c11 0 22 -3 32 -9l115 -71c11 -7 17 -18 17 -32c0 -8 -2 -15 -7 -22c-9 -12 -20 -18 -35 -18c-8 0 -15 2 -21 5z" />
    <glyph glyph-name="gcircumflex" unicode="&#x11d;" horiz-adv-x="506" 
d="M228 109c0 -9 3 -17 9 -23c140 0 236 -50 236 -147s-95 -147 -234 -147c-140 0 -234 48 -234 147c0 72 57 120 146 139c-5 9 -8 20 -8 31c0 13 3 23 10 32c-67 27 -107 84 -107 151c0 47 18 87 53 120s82 49 139 49c43 0 82 -11 115 -32l91 20c3 1 6 1 11 1
c21 0 40 -14 45 -35c1 -2 1 -5 1 -9c0 -21 -15 -41 -36 -45l-47 -11c7 -19 11 -38 11 -58c0 -47 -18 -86 -53 -118c-36 -32 -83 -48 -142 -48c-4 -4 -6 -10 -6 -17zM112 -61c0 -35 48 -55 127 -55c84 0 126 18 126 55c0 33 -45 55 -126 55c-80 0 -127 -22 -127 -55zM177 346
c-49 -45 -16 -133 61 -127c49 0 84 29 84 73s-32 76 -84 76c-25 0 -46 -7 -61 -22zM148 523c-14 0 -25 6 -33 17c-6 7 -9 16 -9 26c0 14 5 26 16 35l89 77c9 8 20 12 33 12c14 0 25 -4 34 -13l88 -76c10 -9 15 -20 15 -34c0 -12 -3 -22 -10 -29c-9 -11 -21 -17 -34 -17
c-9 0 -18 3 -27 10l-67 54l-68 -53c-8 -6 -17 -9 -27 -9z" />
    <glyph glyph-name="Gbreve" unicode="&#x11e;" horiz-adv-x="727" 
d="M45 350c0 104 33 190 99 259c65 68 154 102 265 102c59 0 111 -12 158 -36c25 -12 38 -29 38 -52c0 -9 -3 -18 -8 -29c-11 -19 -27 -28 -49 -28c-12 0 -23 2 -33 7c-36 15 -71 23 -106 23c-69 0 -126 -22 -169 -65c-43 -44 -65 -104 -65 -181c0 -74 22 -133 65 -178
s101 -68 172 -68c53 0 118 23 145 48v110h-113c-31 0 -56 25 -56 58c0 32 25 57 56 57h172c31 0 56 -25 56 -56v-189c0 -34 -15 -61 -44 -80c-61 -39 -147 -63 -218 -63c-113 0 -202 33 -267 98s-98 153 -98 263zM592 849c0 -11 -3 -19 -9 -25c-43 -48 -113 -87 -176 -87
c-68 0 -128 29 -179 87c-12 12 -13 37 2 52c8 8 17 12 27 12c11 0 22 -4 34 -13c31 -25 70 -38 116 -38c43 0 80 13 113 38c12 9 23 13 33 13c11 0 20 -4 28 -12c7 -7 11 -16 11 -27z" />
    <glyph glyph-name="gbreve" unicode="&#x11f;" horiz-adv-x="506" 
d="M228 109c0 -9 3 -17 9 -23c140 0 236 -50 236 -147s-95 -147 -234 -147c-140 0 -234 48 -234 147c0 72 57 120 146 139c-5 9 -8 20 -8 31c0 13 3 23 10 32c-67 27 -107 84 -107 151c0 47 18 87 53 120s82 49 139 49c43 0 82 -11 115 -32l91 20c3 1 6 1 11 1
c21 0 40 -14 45 -35c1 -2 1 -5 1 -9c0 -21 -15 -41 -36 -45l-47 -11c7 -19 11 -38 11 -58c0 -47 -18 -86 -53 -118c-36 -32 -83 -48 -142 -48c-4 -4 -6 -10 -6 -17zM112 -61c0 -35 48 -55 127 -55c84 0 126 18 126 55c0 33 -45 55 -126 55c-80 0 -127 -22 -127 -55zM177 346
c-49 -45 -16 -133 61 -127c49 0 84 29 84 73s-32 76 -84 76c-25 0 -46 -7 -61 -22zM397 637c0 -9 -2 -16 -7 -21c-43 -56 -93 -84 -152 -84c-57 0 -104 28 -142 83c-5 7 -7 14 -7 21c0 11 5 20 14 27c7 5 15 8 23 8c11 0 20 -4 28 -12c27 -23 56 -34 89 -34
c34 0 64 11 91 33c10 8 20 12 29 12c7 0 15 -3 22 -8c8 -6 12 -14 12 -25z" />
    <glyph glyph-name="Gdotaccent" unicode="&#x120;" horiz-adv-x="727" 
d="M45 350c0 104 33 190 99 259c65 68 154 102 265 102c59 0 111 -12 158 -36c25 -12 38 -29 38 -52c0 -9 -3 -18 -8 -29c-11 -19 -27 -28 -49 -28c-12 0 -23 2 -33 7c-36 15 -71 23 -106 23c-69 0 -126 -22 -169 -65c-43 -44 -65 -104 -65 -181c0 -74 22 -133 65 -178
s101 -68 172 -68c53 0 118 23 145 48v110h-113c-31 0 -56 25 -56 58c0 32 25 57 56 57h172c31 0 56 -25 56 -56v-189c0 -34 -15 -61 -44 -80c-61 -39 -147 -63 -218 -63c-113 0 -202 33 -267 98s-98 153 -98 263zM378 902c40 0 75 -28 75 -71c0 -45 -35 -75 -75 -75
c-44 0 -79 28 -79 75c0 43 35 71 79 71z" />
    <glyph glyph-name="gdotaccent" unicode="&#x121;" horiz-adv-x="506" 
d="M228 109c0 -9 3 -17 9 -23c140 0 236 -50 236 -147s-95 -147 -234 -147c-140 0 -234 48 -234 147c0 72 57 120 146 139c-5 9 -8 20 -8 31c0 13 3 23 10 32c-67 27 -107 84 -107 151c0 47 18 87 53 120s82 49 139 49c43 0 82 -11 115 -32l91 20c3 1 6 1 11 1
c21 0 40 -14 45 -35c1 -2 1 -5 1 -9c0 -21 -15 -41 -36 -45l-47 -11c7 -19 11 -38 11 -58c0 -47 -18 -86 -53 -118c-36 -32 -83 -48 -142 -48c-4 -4 -6 -10 -6 -17zM112 -61c0 -35 48 -55 127 -55c84 0 126 18 126 55c0 33 -45 55 -126 55c-80 0 -127 -22 -127 -55zM177 346
c-49 -45 -16 -133 61 -127c49 0 84 29 84 73s-32 76 -84 76c-25 0 -46 -7 -61 -22zM241 679c35 0 66 -27 66 -67c0 -44 -31 -72 -66 -72c-41 0 -72 28 -72 72c0 40 32 67 72 67z" />
    <glyph glyph-name="Gcommaaccent" unicode="&#x122;" horiz-adv-x="727" 
d="M45 350c0 104 33 190 99 259c65 68 154 102 265 102c59 0 111 -12 158 -36c25 -12 38 -29 38 -52c0 -9 -3 -18 -8 -29c-11 -19 -27 -28 -49 -28c-12 0 -23 2 -33 7c-36 15 -71 23 -106 23c-69 0 -126 -22 -169 -65c-43 -44 -65 -104 -65 -181c0 -74 22 -133 65 -178
s101 -68 172 -68c53 0 118 23 145 48v110h-113c-31 0 -56 25 -56 58c0 32 25 57 56 57h172c31 0 56 -25 56 -56v-189c0 -34 -15 -61 -44 -80c-61 -39 -147 -63 -218 -63c-113 0 -202 33 -267 98s-98 153 -98 263zM324 -168c0 9 5 18 14 27c12 10 18 25 18 45
c0 7 -1 19 -1 23c0 12 7 20 20 23l59 13c2 1 4 1 7 1c21 0 30 -22 30 -46c0 -56 -41 -98 -96 -117c-4 -2 -9 -3 -15 -3c-13 0 -23 5 -30 15c-4 6 -6 12 -6 19z" />
    <glyph glyph-name="gcommaaccent" unicode="&#x123;" horiz-adv-x="506" 
d="M228 109c0 -9 3 -17 9 -23c140 0 236 -50 236 -147s-95 -147 -234 -147c-140 0 -234 48 -234 147c0 72 57 120 146 139c-5 9 -8 20 -8 31c0 13 3 23 10 32c-67 27 -107 84 -107 151c0 47 18 87 53 120s82 49 139 49c43 0 82 -11 115 -32l91 20c3 1 6 1 11 1
c21 0 40 -14 45 -35c1 -2 1 -5 1 -9c0 -21 -15 -41 -36 -45l-47 -11c7 -19 11 -38 11 -58c0 -47 -18 -86 -53 -118c-36 -32 -83 -48 -142 -48c-4 -4 -6 -10 -6 -17zM112 -61c0 -35 48 -55 127 -55c84 0 126 18 126 55c0 33 -45 55 -126 55c-80 0 -127 -22 -127 -55zM177 346
c-49 -45 -16 -133 61 -127c49 0 84 29 84 73s-32 76 -84 76c-25 0 -46 -7 -61 -22zM318 665c0 -9 -5 -18 -14 -27c-12 -10 -18 -25 -18 -45c0 -7 1 -19 1 -23c0 -12 -7 -20 -20 -23l-59 -13c-2 -1 -4 -1 -7 -1c-21 0 -30 22 -30 46c0 56 41 98 96 117c4 2 9 3 15 3
c13 0 23 -5 30 -15c4 -6 6 -12 6 -19z" />
    <glyph glyph-name="Hcircumflex" unicode="&#x124;" horiz-adv-x="759" 
d="M662 644v-591c0 -33 -28 -61 -61 -61s-61 28 -61 61v246h-320v-246c0 -33 -28 -61 -61 -61c-35 0 -62 26 -62 61v591c0 35 27 61 62 61c33 0 61 -26 61 -61v-230h320v230c0 35 28 61 61 61s61 -26 61 -61zM481 746l-102 53l-102 -53c-5 -3 -12 -5 -20 -5
c-15 0 -26 6 -34 18c-4 6 -6 13 -6 21c0 14 6 25 17 33l113 70c9 7 20 10 33 10c11 0 22 -3 32 -9l115 -71c11 -7 17 -18 17 -32c0 -8 -2 -15 -7 -22c-9 -12 -20 -18 -35 -18c-8 0 -15 2 -21 5z" />
    <glyph glyph-name="hcircumflex" unicode="&#x125;" horiz-adv-x="546" 
d="M179 309v-261c0 -31 -25 -56 -57 -56c-33 0 -58 25 -58 56v596c0 31 25 56 58 56c32 0 57 -25 57 -56v-235c34 33 77 49 129 49c116 0 185 -61 185 -197v-213c0 -31 -25 -56 -57 -56c-33 0 -58 25 -58 56v198c0 67 -36 104 -100 104c-39 0 -72 -14 -99 -41zM254 746
l-102 53l-102 -53c-5 -3 -11 -5 -20 -5c-15 0 -26 6 -34 18c-4 6 -6 13 -6 21c0 14 6 25 17 33l113 70c9 7 20 10 33 10c11 0 22 -3 32 -9l115 -71c11 -7 17 -18 17 -32c0 -8 -2 -15 -7 -22c-9 -12 -21 -18 -35 -18c-8 0 -15 2 -21 5z" />
    <glyph glyph-name="Hbar" unicode="&#x126;" horiz-adv-x="769" 
d="M225 414h320v92h-320v-92zM545 53v246h-320v-246c0 -33 -26 -61 -61 -61s-62 26 -62 61v453h-27c-29 0 -53 25 -53 54s24 53 53 53h27v32c0 33 27 60 62 60s61 -27 61 -60v-32h320v32c0 33 26 60 61 60s61 -27 61 -60v-32h27c29 0 53 -24 53 -53s-24 -54 -53 -54h-27
v-453c0 -33 -26 -61 -61 -61s-61 28 -61 61z" />
    <glyph glyph-name="hbar" unicode="&#x127;" horiz-adv-x="583" 
d="M216 309v-261c0 -31 -25 -56 -57 -56c-33 0 -58 25 -58 56v457h-50c-31 0 -56 25 -56 54c0 28 25 53 56 53h50v32c0 31 25 56 58 56c32 0 57 -25 57 -56v-32h92c31 0 56 -25 56 -53c0 -29 -25 -54 -56 -54h-92v-96c34 33 77 49 129 49c116 0 185 -61 185 -197v-213
c0 -31 -25 -56 -57 -56c-33 0 -58 25 -58 56v198c0 67 -36 104 -100 104c-39 0 -72 -14 -99 -41z" />
    <glyph glyph-name="Imacron" unicode="&#x12a;" horiz-adv-x="347" 
d="M235 644v-591c0 -33 -26 -61 -61 -61s-62 26 -62 61v591c0 35 27 61 62 61s61 -26 61 -61zM69 852h217c25 0 46 -21 46 -46s-21 -46 -46 -46h-217c-25 0 -46 21 -46 46s21 46 46 46z" />
    <glyph glyph-name="imacron" unicode="&#x12b;" horiz-adv-x="277" 
d="M196 401v-353c0 -31 -25 -56 -57 -56c-33 0 -58 25 -58 56v353c0 31 25 56 58 56c32 0 57 -25 57 -56zM45 642h187c25 0 46 -21 46 -46s-21 -46 -46 -46h-187c-25 0 -46 21 -46 46s21 46 46 46z" />
    <glyph glyph-name="Iogonek" unicode="&#x12e;" horiz-adv-x="347" 
d="M235 644v-591c0 -33 -26 -61 -61 -61c-6 0 -14 1 -23 4c-36 -9 -62 -39 -62 -64c0 -27 17 -40 51 -40c39 0 56 -5 61 -28c1 -3 1 -7 1 -12c0 -20 -9 -33 -27 -40c-19 -8 -41 -12 -67 -12c-76 0 -134 30 -134 94s64 107 151 120c-9 11 -13 24 -13 39v591c0 35 27 61 62 61
s61 -26 61 -61z" />
    <glyph glyph-name="iogonek" unicode="&#x12f;" horiz-adv-x="277" 
d="M196 401v-353c0 -31 -25 -56 -57 -56c-9 0 -17 2 -25 5c-37 -9 -65 -40 -65 -65c0 -27 17 -40 51 -40c39 0 56 -5 61 -28c1 -3 1 -7 1 -12c0 -20 -9 -33 -27 -40c-19 -8 -41 -12 -67 -12c-76 0 -134 30 -134 94c0 65 68 109 157 121c-7 9 -10 20 -10 33v353
c0 31 25 56 58 56c32 0 57 -25 57 -56zM141 679c35 0 66 -27 66 -67c0 -44 -31 -72 -66 -72c-41 0 -72 28 -72 72c0 40 32 67 72 67z" />
    <glyph glyph-name="Idot" unicode="&#x130;" horiz-adv-x="347" 
d="M235 644v-591c0 -33 -26 -61 -61 -61s-62 26 -62 61v591c0 35 27 61 62 61s61 -26 61 -61zM176 902c40 0 75 -28 75 -71c0 -45 -35 -75 -75 -75c-44 0 -79 28 -79 75c0 43 35 71 79 71z" />
    <glyph glyph-name="dotlessi" unicode="&#x131;" horiz-adv-x="277" 
d="M196 401v-353c0 -31 -25 -56 -57 -56c-33 0 -58 25 -58 56v353c0 31 25 56 58 56c32 0 57 -25 57 -56z" />
    <glyph glyph-name="Jcircumflex" unicode="&#x134;" horiz-adv-x="386" 
d="M166 186v458c0 35 27 61 62 61s61 -26 61 -61v-479c0 -113 -57 -176 -169 -176c-25 0 -48 3 -68 10c-29 10 -43 28 -43 54c0 8 1 14 2 18c6 25 22 38 49 38c3 0 8 -1 9 -1c16 -3 27 -4 34 -4c42 0 63 27 63 82zM326 746l-102 53l-102 -53c-5 -3 -11 -5 -20 -5
c-15 0 -26 6 -34 18c-4 6 -6 13 -6 21c0 14 6 25 17 33l113 70c9 7 20 10 33 10c11 0 22 -3 32 -9l115 -71c11 -7 17 -18 17 -32c0 -8 -2 -15 -7 -22c-9 -12 -21 -18 -35 -18c-8 0 -15 2 -21 5z" />
    <glyph glyph-name="jcircumflex" unicode="&#x135;" horiz-adv-x="296" 
d="M99 -23v424c0 31 25 56 58 56c32 0 57 -25 57 -56v-434c0 -117 -47 -175 -141 -175c-53 0 -96 19 -96 62c0 21 9 35 28 41c5 2 13 3 22 3h17c37 0 55 26 55 79zM61 523c-14 0 -25 6 -33 17c-6 7 -9 15 -9 26c0 14 5 26 16 35l89 77c9 8 20 12 33 12c14 0 25 -4 34 -13
l88 -76c10 -9 15 -20 15 -34c0 -12 -3 -22 -10 -29c-9 -11 -21 -17 -34 -17c-9 0 -18 3 -27 10l-67 54l-68 -53c-8 -6 -17 -9 -27 -9z" />
    <glyph glyph-name="Kcommaaccent" unicode="&#x136;" horiz-adv-x="649" 
d="M483 29l-263 332v-308c0 -33 -28 -61 -61 -61c-35 0 -62 26 -62 61v591c0 35 27 61 62 61c33 0 61 -26 61 -61v-276l252 304c18 22 37 33 56 33c32 0 55 -23 55 -51c0 -17 -6 -31 -18 -44l-209 -236l227 -278c13 -16 20 -32 20 -49c0 -32 -25 -55 -61 -55
c-20 0 -40 12 -59 37zM254 -168c0 9 5 18 14 27c12 10 18 25 18 45c0 7 -1 19 -1 23c0 12 7 20 20 23l59 13c2 1 4 1 7 1c21 0 30 -22 30 -46c0 -56 -41 -98 -96 -117c-4 -2 -9 -3 -15 -3c-13 0 -23 5 -30 15c-4 6 -6 12 -6 19z" />
    <glyph glyph-name="kcommaaccent" unicode="&#x137;" horiz-adv-x="494" 
d="M342 23l-138 181c-7 9 -10 19 -10 32c0 11 3 21 10 30l120 160c15 21 33 31 54 31c35 0 55 -24 55 -53c0 -13 -4 -25 -13 -36l-102 -124l123 -158c9 -13 14 -25 14 -38c0 -31 -24 -56 -57 -56c-22 0 -41 10 -56 31zM179 644v-596c0 -31 -25 -56 -57 -56
c-33 0 -58 25 -58 56v596c0 31 25 56 58 56c32 0 57 -25 57 -56zM165 -168c0 9 5 18 14 27c12 10 18 25 18 45c0 7 -1 19 -1 23c0 12 7 20 20 23l59 13c2 1 4 1 7 1c21 0 30 -22 30 -46c0 -56 -41 -98 -96 -117c-4 -2 -9 -3 -15 -3c-13 0 -23 5 -30 15c-4 6 -6 12 -6 19z
" />
    <glyph glyph-name="Lacute" unicode="&#x139;" horiz-adv-x="547" 
d="M220 644v-529h254c33 0 61 -26 61 -57s-28 -58 -61 -58h-316c-35 0 -61 28 -61 61v583c0 35 27 61 62 61c33 0 61 -26 61 -61zM228 817l148 77c5 3 10 4 16 4c15 0 25 -7 32 -21l13 -31c2 -4 3 -9 3 -14c0 -16 -8 -27 -23 -32l-155 -57c-3 -1 -7 -2 -13 -2
c-18 0 -31 8 -38 25c-3 5 -4 10 -4 17c0 16 7 27 21 34z" />
    <glyph glyph-name="lacute" unicode="&#x13a;" horiz-adv-x="299" 
d="M179 644v-473c0 -47 14 -71 42 -71h17c11 0 18 -1 23 -3c19 -7 28 -20 28 -41c0 -43 -36 -64 -109 -64c-77 0 -116 44 -116 132v520c0 31 25 56 58 56c32 0 57 -25 57 -56zM104 817l148 77c5 3 10 4 16 4c15 0 25 -7 32 -21l13 -31c2 -4 3 -9 3 -14c0 -16 -8 -27 -23 -32
l-155 -57c-3 -1 -7 -2 -13 -2c-18 0 -31 8 -38 25c-3 5 -4 10 -4 17c0 16 7 27 21 34z" />
    <glyph glyph-name="Lcommaaccent" unicode="&#x13b;" horiz-adv-x="547" 
d="M220 644v-529h254c33 0 61 -26 61 -57s-28 -58 -61 -58h-316c-35 0 -61 28 -61 61v583c0 35 27 61 62 61c33 0 61 -26 61 -61zM229 -168c0 9 5 18 14 27c12 10 18 25 18 45c0 7 -1 19 -1 23c0 12 7 20 20 23l59 13c2 1 4 1 7 1c21 0 30 -22 30 -46
c0 -56 -41 -98 -96 -117c-4 -2 -9 -3 -15 -3c-13 0 -23 5 -30 15c-4 6 -6 12 -6 19z" />
    <glyph glyph-name="lcommaaccent" unicode="&#x13c;" horiz-adv-x="299" 
d="M179 644v-473c0 -47 14 -71 42 -71h17c11 0 18 -1 23 -3c19 -7 28 -20 28 -41c0 -43 -36 -64 -109 -64c-77 0 -116 44 -116 132v520c0 31 25 56 58 56c32 0 57 -25 57 -56zM95 -168c0 9 5 18 14 27c12 10 18 25 18 45c0 7 -1 19 -1 23c0 12 7 20 20 23l59 13c2 1 4 1 7 1
c21 0 30 -22 30 -46c0 -56 -41 -98 -96 -117c-4 -2 -9 -3 -15 -3c-13 0 -23 5 -30 15c-4 6 -6 12 -6 19z" />
    <glyph glyph-name="Lcaron" unicode="&#x13d;" horiz-adv-x="547" 
d="M220 644v-529h254c33 0 61 -26 61 -57s-28 -58 -61 -58h-316c-35 0 -61 28 -61 61v583c0 35 27 61 62 61c33 0 61 -26 61 -61zM335 541c0 9 3 18 9 28c16 25 24 48 24 69c0 6 0 10 -1 13c-2 10 -3 18 -3 25c0 16 9 24 28 24h48c23 0 34 -11 34 -34
c0 -65 -23 -117 -70 -155c-13 -11 -40 -11 -55 1c-9 9 -14 18 -14 29z" />
    <glyph glyph-name="lcaron" unicode="&#x13e;" horiz-adv-x="299" 
d="M179 644v-473c0 -47 14 -71 42 -71h17c11 0 18 -1 23 -3c19 -7 28 -20 28 -41c0 -43 -36 -64 -109 -64c-77 0 -116 44 -116 132v520c0 31 25 56 58 56c32 0 57 -25 57 -56zM235 541c0 9 3 18 9 28c16 25 24 48 24 69c0 6 0 10 -1 13c-2 10 -3 18 -3 25c0 16 9 24 28 24
h48c23 0 34 -11 34 -34c0 -65 -23 -117 -70 -155c-13 -11 -40 -11 -55 1c-9 9 -14 18 -14 29z" />
    <glyph glyph-name="Ldot" unicode="&#x13f;" horiz-adv-x="547" 
d="M220 644v-529h254c33 0 61 -26 61 -57s-28 -58 -61 -58h-316c-35 0 -61 28 -61 61v583c0 35 27 61 62 61c33 0 61 -26 61 -61zM436 449c41 0 73 -37 73 -74c0 -43 -32 -80 -73 -80c-48 0 -80 37 -80 80c0 37 32 74 80 74z" />
    <glyph glyph-name="ldot" unicode="&#x140;" horiz-adv-x="350" 
d="M179 644v-473c0 -47 14 -71 42 -71h17c11 0 18 -1 23 -3c19 -7 28 -20 28 -41c0 -43 -36 -64 -109 -64c-77 0 -116 44 -116 132v520c0 31 25 56 58 56c32 0 57 -25 57 -56zM300 405c35 0 66 -27 66 -67c0 -44 -31 -72 -66 -72c-41 0 -72 28 -72 72c0 40 32 67 72 67z" />
    <glyph glyph-name="Lslash" unicode="&#x141;" horiz-adv-x="551" 
d="M42 332l60 29v283c0 35 27 61 62 61s61 -26 61 -61v-226l93 42c6 3 14 5 23 5c23 0 39 -10 48 -30c3 -8 5 -15 5 -21c0 -23 -11 -39 -32 -50l-137 -64v-185h261c29 0 54 -25 54 -57s-25 -58 -54 -58h-330c-29 0 -54 25 -54 54v189l-15 -7c-6 -3 -14 -5 -23 -5
c-23 0 -39 10 -48 30c-3 6 -5 13 -5 22c0 23 10 40 31 49z" />
    <glyph glyph-name="lslash" unicode="&#x142;" horiz-adv-x="322" 
d="M283 329l-87 -41v-117c0 -47 14 -71 42 -71h17c11 0 18 -1 23 -3c19 -7 28 -20 28 -41c0 -43 -36 -64 -109 -64c-77 0 -116 44 -116 132v112c-8 -4 -16 -6 -23 -6c-21 0 -36 9 -46 28c-4 8 -6 16 -6 24c0 23 10 40 31 50l44 21v291c0 31 25 56 58 56c32 0 57 -25 57 -56
v-240l44 21c7 3 15 5 24 5c23 0 39 -10 48 -29c3 -5 4 -12 4 -20c0 -24 -11 -41 -33 -52z" />
    <glyph glyph-name="Nacute" unicode="&#x143;" horiz-adv-x="792" 
d="M218 671l362 -458v436c0 31 25 56 58 56c32 0 57 -25 57 -56v-601c0 -32 -23 -56 -55 -56c-25 0 -47 12 -66 37l-362 456v-437c0 -31 -25 -56 -57 -56c-33 0 -58 25 -58 56v601c0 32 26 56 59 56c23 0 44 -11 62 -34zM355 817l148 77c5 3 10 4 16 4c15 0 25 -7 32 -21
l13 -31c2 -4 3 -9 3 -14c0 -16 -8 -27 -23 -32l-155 -57c-3 -1 -7 -2 -13 -2c-18 0 -31 8 -38 25c-3 5 -4 10 -4 17c0 16 7 27 21 34z" />
    <glyph glyph-name="nacute" unicode="&#x144;" horiz-adv-x="546" 
d="M123 457c32 0 56 -23 56 -51c33 35 76 52 129 52c123 0 185 -65 185 -194v-216c0 -31 -25 -56 -57 -56c-33 0 -58 25 -58 56v196c0 71 -34 106 -101 106c-37 0 -69 -14 -98 -43v-259c0 -31 -25 -56 -57 -56c-33 0 -58 25 -58 56v346c0 39 23 63 59 63zM232 600l61 95
c7 11 18 17 32 17c9 0 16 -2 23 -7l24 -18c10 -7 15 -17 15 -31c0 -10 -3 -18 -9 -25l-72 -83c-9 -10 -21 -15 -34 -15c-9 0 -18 3 -27 8c-13 9 -19 21 -19 37c0 8 2 15 6 22z" />
    <glyph glyph-name="Ncommaaccent" unicode="&#x145;" horiz-adv-x="792" 
d="M218 671l362 -458v436c0 31 25 56 58 56c32 0 57 -25 57 -56v-601c0 -32 -23 -56 -55 -56c-25 0 -47 12 -66 37l-362 456v-437c0 -31 -25 -56 -57 -56c-33 0 -58 25 -58 56v601c0 32 26 56 59 56c23 0 44 -11 62 -34zM316 -168c0 9 5 18 14 27c12 10 18 25 18 45
c0 7 -1 19 -1 23c0 12 7 20 20 23l59 13c2 1 4 1 7 1c21 0 30 -22 30 -46c0 -56 -41 -98 -96 -117c-4 -2 -9 -3 -15 -3c-13 0 -23 5 -30 15c-4 6 -6 12 -6 19z" />
    <glyph glyph-name="ncommaaccent" unicode="&#x146;" horiz-adv-x="546" 
d="M123 457c32 0 56 -23 56 -51c33 35 76 52 129 52c123 0 185 -65 185 -194v-216c0 -31 -25 -56 -57 -56c-33 0 -58 25 -58 56v196c0 71 -34 106 -101 106c-37 0 -69 -14 -98 -43v-259c0 -31 -25 -56 -57 -56c-33 0 -58 25 -58 56v346c0 39 23 63 59 63zM191 -168
c0 9 5 18 14 27c12 10 18 25 18 45c0 7 -1 19 -1 23c0 12 7 20 20 23l59 13c2 1 4 1 7 1c21 0 30 -22 30 -46c0 -56 -41 -98 -96 -117c-4 -2 -9 -3 -15 -3c-13 0 -23 5 -30 15c-4 6 -6 12 -6 19z" />
    <glyph glyph-name="Ncaron" unicode="&#x147;" horiz-adv-x="792" 
d="M218 671l362 -458v436c0 31 25 56 58 56c32 0 57 -25 57 -56v-601c0 -32 -23 -56 -55 -56c-25 0 -47 12 -66 37l-362 456v-437c0 -31 -25 -56 -57 -56c-33 0 -58 25 -58 56v601c0 32 26 56 59 56c23 0 44 -11 62 -34zM522 897c15 0 26 -6 33 -17c4 -6 6 -13 6 -20
c0 -14 -6 -25 -18 -34l-112 -70c-9 -7 -21 -10 -34 -10c-12 0 -23 3 -33 9l-113 71c-11 7 -17 18 -17 32c0 9 2 16 7 23c8 11 19 17 33 17c8 0 15 -2 22 -6l103 -60l102 60c5 3 12 5 21 5z" />
    <glyph glyph-name="ncaron" unicode="&#x148;" horiz-adv-x="546" 
d="M123 457c32 0 56 -23 56 -51c33 35 76 52 129 52c123 0 185 -65 185 -194v-216c0 -31 -25 -56 -57 -56c-33 0 -58 25 -58 56v196c0 71 -34 106 -101 106c-37 0 -69 -14 -98 -43v-259c0 -31 -25 -56 -57 -56c-33 0 -58 25 -58 56v346c0 39 23 63 59 63zM373 691
c11 0 21 -4 30 -13c7 -7 10 -16 10 -27c0 -14 -5 -25 -15 -33l-93 -81c-9 -8 -20 -12 -33 -12c-14 0 -25 4 -34 13l-92 80c-9 9 -14 20 -14 33c0 10 4 19 11 28s18 14 32 14c12 0 22 -4 29 -11l69 -63l70 61c9 7 19 11 30 11z" />
    <glyph glyph-name="Omacron" unicode="&#x14c;" horiz-adv-x="819" 
d="M45 350c0 103 34 189 103 258c68 69 155 103 261 103c105 0 193 -33 262 -100s103 -154 103 -261c0 -105 -35 -191 -104 -259s-156 -102 -261 -102s-192 33 -261 100s-103 154 -103 261zM175 350c0 -70 23 -128 68 -175s100 -71 166 -71c72 0 129 23 172 70
c42 47 63 105 63 176c0 72 -22 131 -67 177s-101 69 -168 69s-123 -23 -167 -69c-45 -46 -67 -105 -67 -177zM308 852h217c25 0 46 -21 46 -46s-21 -46 -46 -46h-217c-25 0 -46 21 -46 46s21 46 46 46z" />
    <glyph glyph-name="omacron" unicode="&#x14d;" horiz-adv-x="562" 
d="M104 56c-45 44 -68 100 -68 169s23 125 68 170c45 44 104 66 177 66s133 -22 178 -66c45 -45 67 -101 67 -170s-22 -125 -67 -169c-45 -45 -105 -67 -178 -67s-132 22 -177 67zM159 225c0 -75 51 -129 122 -129c72 0 123 52 123 129c0 75 -52 128 -123 128
c-69 0 -122 -52 -122 -128zM195 642h187c25 0 46 -21 46 -46s-21 -46 -46 -46h-187c-25 0 -46 21 -46 46s21 46 46 46z" />
    <glyph glyph-name="Ohungarumlaut" unicode="&#x150;" horiz-adv-x="819" 
d="M45 350c0 103 34 189 103 258c68 69 155 103 261 103c105 0 193 -33 262 -100s103 -154 103 -261c0 -105 -35 -191 -104 -259s-156 -102 -261 -102s-192 33 -261 100s-103 154 -103 261zM175 350c0 -70 23 -128 68 -175s100 -71 166 -71c72 0 129 23 172 70
c42 47 63 105 63 176c0 72 -22 131 -67 177s-101 69 -168 69s-123 -23 -167 -69c-45 -46 -67 -105 -67 -177zM467 802l104 87c7 6 16 9 26 9c9 0 18 -4 27 -11l28 -24c6 -5 9 -11 9 -19c0 -11 -5 -18 -14 -22l-129 -74c-7 -5 -17 -7 -28 -7c-12 0 -21 4 -28 11
c-5 6 -8 13 -8 22c0 11 4 21 13 28zM281 804l68 80c9 11 21 16 34 16c7 0 13 -2 20 -5l37 -19c8 -4 12 -11 12 -20c0 -7 -3 -13 -9 -18l-108 -85c-8 -6 -17 -9 -27 -9c-11 0 -19 3 -26 9c-15 15 -14 35 -1 51z" />
    <glyph glyph-name="ohungarumlaut" unicode="&#x151;" horiz-adv-x="562" 
d="M104 56c-45 44 -68 100 -68 169s23 125 68 170c45 44 104 66 177 66s133 -22 178 -66c45 -45 67 -101 67 -170s-22 -125 -67 -169c-45 -45 -105 -67 -178 -67s-132 22 -177 67zM159 225c0 -75 51 -129 122 -129c72 0 123 52 123 129c0 75 -52 128 -123 128
c-69 0 -122 -52 -122 -128zM323 598l66 90c9 11 20 16 34 16c10 0 18 -3 24 -8l19 -15c10 -8 15 -18 15 -30c0 -9 -4 -18 -11 -25l-74 -79c-11 -11 -24 -17 -38 -17c-9 0 -18 3 -25 9c-12 9 -18 21 -18 36c0 8 3 16 8 23zM157 601l57 94c7 12 18 18 33 18c8 0 15 -2 22 -7
l16 -11c11 -8 16 -19 16 -33c0 -11 -3 -19 -8 -25l-64 -87c-8 -11 -20 -16 -35 -16c-9 0 -17 3 -26 8c-12 8 -18 19 -18 34c0 9 2 18 7 25z" />
    <glyph glyph-name="OE" unicode="&#x152;" horiz-adv-x="1038" 
d="M683 296v-181h236c31 0 56 -25 56 -57c0 -33 -25 -58 -56 -58h-340c-11 0 -19 9 -19 20c-48 -21 -99 -31 -154 -31c-107 0 -194 33 -261 99s-100 153 -100 262c0 105 32 191 95 259s151 102 263 102c57 0 110 -11 157 -33c0 12 10 22 22 22h327c31 0 56 -25 56 -57
c0 -33 -25 -58 -56 -58h-226v-174h196c31 0 56 -25 56 -57c0 -33 -25 -58 -56 -58h-196zM560 144v405c-47 31 -100 47 -157 47c-66 0 -120 -22 -163 -67s-65 -104 -65 -179c0 -73 23 -132 68 -177c45 -46 103 -69 174 -69c53 0 100 13 143 40z" />
    <glyph glyph-name="oe" unicode="&#x153;" horiz-adv-x="840" 
d="M353 225c0 35 6 68 18 97c-25 21 -55 31 -90 31s-64 -12 -87 -35c-24 -24 -36 -55 -36 -93c0 -75 52 -129 123 -129c36 0 66 11 89 32c-11 30 -17 62 -17 97zM689 267v2c0 56 -40 96 -103 96c-65 0 -105 -33 -118 -98h221zM763 190h-291c9 -67 62 -105 134 -105
c31 0 59 6 84 17c11 5 19 7 26 7c15 0 27 -7 36 -21c5 -8 7 -15 7 -22c0 -17 -8 -30 -23 -39c-43 -25 -90 -38 -142 -38c-63 0 -115 16 -156 48c-42 -32 -94 -48 -157 -48c-73 0 -132 22 -177 67c-45 44 -68 100 -68 169s23 125 68 170c45 44 104 66 177 66
c62 0 114 -17 157 -50c42 33 93 50 153 50c59 0 110 -19 151 -58s62 -90 62 -151v-21c0 -25 -18 -41 -41 -41z" />
    <glyph glyph-name="Racute" unicode="&#x154;" horiz-adv-x="637" 
d="M479 27l-173 235h-86v-209c0 -33 -28 -61 -61 -61c-35 0 -62 26 -62 61v586c0 33 26 61 61 61c79 1 129 2 152 2c169 0 254 -72 254 -216c0 -54 -14 -98 -41 -131c-27 -34 -59 -57 -94 -69l153 -201c9 -11 13 -24 13 -37c0 -31 -24 -56 -59 -56c-21 0 -40 12 -57 35z
M220 585v-208h80c76 0 134 40 134 108s-43 102 -130 102c-12 0 -40 -1 -84 -2zM240 817l148 77c5 3 10 4 16 4c15 0 25 -7 32 -21l13 -31c2 -4 3 -9 3 -14c0 -16 -8 -27 -23 -32l-155 -57c-3 -1 -7 -2 -13 -2c-18 0 -31 8 -38 25c-3 5 -4 10 -4 17c0 16 7 27 21 34z" />
    <glyph glyph-name="racute" unicode="&#x155;" horiz-adv-x="349" 
d="M123 457c32 0 56 -22 56 -50c27 35 61 53 102 53c29 0 59 -17 59 -52c0 -39 -24 -59 -72 -59c-3 0 -12 1 -16 1h-7c-29 0 -51 -16 -66 -48v-254c0 -31 -25 -56 -57 -56c-33 0 -58 25 -58 56v346c0 39 23 63 59 63zM144 600l61 95c7 11 18 17 32 17c9 0 16 -2 23 -7
l24 -18c10 -7 15 -17 15 -31c0 -10 -3 -18 -9 -25l-72 -83c-9 -10 -21 -15 -34 -15c-9 0 -18 3 -27 8c-13 9 -19 21 -19 37c0 8 2 15 6 22z" />
    <glyph glyph-name="Rcommaaccent" unicode="&#x156;" horiz-adv-x="637" 
d="M479 27l-173 235h-86v-209c0 -33 -28 -61 -61 -61c-35 0 -62 26 -62 61v586c0 33 26 61 61 61c79 1 129 2 152 2c169 0 254 -72 254 -216c0 -54 -14 -98 -41 -131c-27 -34 -59 -57 -94 -69l153 -201c9 -11 13 -24 13 -37c0 -31 -24 -56 -59 -56c-21 0 -40 12 -57 35z
M220 585v-208h80c76 0 134 40 134 108s-43 102 -130 102c-12 0 -40 -1 -84 -2zM246 -168c0 9 5 18 14 27c12 10 18 25 18 45c0 7 -1 19 -1 23c0 12 7 20 20 23l59 13c2 1 4 1 7 1c21 0 30 -22 30 -46c0 -56 -41 -98 -96 -117c-4 -2 -9 -3 -15 -3c-13 0 -23 5 -30 15
c-4 6 -6 12 -6 19z" />
    <glyph glyph-name="rcommaaccent" unicode="&#x157;" horiz-adv-x="349" 
d="M123 457c32 0 56 -22 56 -50c27 35 61 53 102 53c29 0 59 -17 59 -52c0 -39 -24 -59 -72 -59c-3 0 -12 1 -16 1h-7c-29 0 -51 -16 -66 -48v-254c0 -31 -25 -56 -57 -56c-33 0 -58 25 -58 56v346c0 39 23 63 59 63zM89 -168c0 9 5 18 14 27c12 10 18 25 18 45
c0 7 -1 19 -1 23c0 12 7 20 20 23l59 13c2 1 4 1 7 1c21 0 30 -22 30 -46c0 -56 -41 -98 -96 -117c-4 -2 -9 -3 -15 -3c-13 0 -23 5 -30 15c-4 6 -6 12 -6 19z" />
    <glyph glyph-name="Rcaron" unicode="&#x158;" horiz-adv-x="637" 
d="M479 27l-173 235h-86v-209c0 -33 -28 -61 -61 -61c-35 0 -62 26 -62 61v586c0 33 26 61 61 61c79 1 129 2 152 2c169 0 254 -72 254 -216c0 -54 -14 -98 -41 -131c-27 -34 -59 -57 -94 -69l153 -201c9 -11 13 -24 13 -37c0 -31 -24 -56 -59 -56c-21 0 -40 12 -57 35z
M220 585v-208h80c76 0 134 40 134 108s-43 102 -130 102c-12 0 -40 -1 -84 -2zM427 897c15 0 26 -6 33 -17c4 -6 6 -13 6 -20c0 -14 -6 -25 -18 -34l-112 -70c-9 -7 -21 -10 -34 -10c-12 0 -23 3 -33 9l-113 71c-11 7 -17 18 -17 32c0 9 2 16 7 23c8 11 19 17 33 17
c7 0 15 -2 22 -6l103 -60l102 60c5 3 12 5 21 5z" />
    <glyph glyph-name="rcaron" unicode="&#x159;" horiz-adv-x="349" 
d="M123 457c32 0 56 -22 56 -50c27 35 61 53 102 53c29 0 59 -17 59 -52c0 -39 -24 -59 -72 -59c-3 0 -12 1 -16 1h-7c-29 0 -51 -16 -66 -48v-254c0 -31 -25 -56 -57 -56c-33 0 -58 25 -58 56v346c0 39 23 63 59 63zM298 691c11 0 21 -4 30 -13c7 -7 10 -16 10 -27
c0 -14 -5 -25 -15 -33l-93 -81c-9 -8 -20 -12 -33 -12c-14 0 -25 4 -34 13l-92 80c-9 9 -14 20 -14 33c0 10 4 19 11 28s18 14 32 14c12 0 22 -4 29 -11l69 -63l70 61c9 7 19 11 30 11z" />
    <glyph glyph-name="Sacute" unicode="&#x15a;" horiz-adv-x="529" 
d="M43 104c0 14 5 27 15 39c11 13 25 20 43 20c15 0 30 -5 44 -15c39 -29 76 -44 111 -44c60 0 102 30 102 82c0 137 -317 105 -317 332c0 55 20 101 60 138c39 37 92 55 158 55c55 0 100 -10 137 -29c27 -14 41 -32 41 -55c0 -9 -3 -19 -9 -29c-11 -19 -26 -28 -47 -28
c-11 0 -21 2 -31 7c-31 13 -58 20 -83 20c-60 0 -96 -31 -96 -78c0 -145 317 -99 317 -332c0 -58 -22 -105 -67 -142s-100 -56 -167 -56c-73 0 -135 23 -188 68c-15 13 -23 29 -23 47zM222 817l148 77c5 3 10 4 16 4c15 0 25 -7 32 -21l13 -31c2 -4 3 -9 3 -14
c0 -16 -8 -27 -23 -32l-155 -57c-3 -1 -7 -2 -13 -2c-18 0 -31 8 -38 25c-3 5 -4 10 -4 17c0 16 7 27 21 34z" />
    <glyph glyph-name="sacute" unicode="&#x15b;" horiz-adv-x="424" 
d="M34 79c0 11 3 21 10 28c10 12 22 18 36 18c11 0 22 -4 33 -11c31 -19 65 -29 104 -29c35 0 59 15 59 42s-38 42 -85 55c-70 18 -158 44 -158 142c0 85 69 137 165 137c53 0 98 -11 137 -34c16 -10 24 -23 24 -39c0 -8 -2 -16 -6 -23c-9 -15 -22 -23 -40 -23
c-9 0 -18 2 -27 6c-26 11 -53 17 -82 17c-33 0 -56 -18 -56 -39c0 -42 87 -52 157 -77c48 -17 86 -57 86 -116c0 -88 -71 -144 -182 -144c-63 0 -115 17 -156 51c-13 11 -19 24 -19 39zM151 600l61 95c7 11 18 17 32 17c9 0 16 -2 23 -7l24 -18c10 -7 15 -17 15 -31
c0 -10 -3 -18 -9 -25l-72 -83c-9 -10 -20 -15 -34 -15c-9 0 -18 3 -27 8c-13 9 -19 21 -19 37c0 8 2 15 6 22z" />
    <glyph glyph-name="Scircumflex" unicode="&#x15c;" horiz-adv-x="529" 
d="M43 104c0 14 5 27 15 39c11 13 25 20 43 20c15 0 30 -5 44 -15c39 -29 76 -44 111 -44c60 0 102 30 102 82c0 137 -317 105 -317 332c0 55 20 101 60 138c39 37 92 55 158 55c55 0 100 -10 137 -29c27 -14 41 -32 41 -55c0 -9 -3 -19 -9 -29c-11 -19 -26 -28 -47 -28
c-11 0 -21 2 -31 7c-31 13 -58 20 -83 20c-60 0 -96 -31 -96 -78c0 -145 317 -99 317 -332c0 -58 -22 -105 -67 -142s-100 -56 -167 -56c-73 0 -135 23 -188 68c-15 13 -23 29 -23 47zM356 746l-102 53l-102 -53c-5 -3 -11 -5 -20 -5c-15 0 -26 6 -34 18c-4 6 -6 13 -6 21
c0 14 6 25 17 33l113 70c9 7 20 10 33 10c11 0 22 -3 32 -9l115 -71c11 -7 17 -18 17 -32c0 -8 -2 -15 -7 -22c-9 -12 -21 -18 -35 -18c-8 0 -15 2 -21 5z" />
    <glyph glyph-name="scircumflex" unicode="&#x15d;" horiz-adv-x="424" 
d="M34 79c0 11 3 21 10 28c10 12 22 18 36 18c11 0 22 -4 33 -11c31 -19 65 -29 104 -29c35 0 59 15 59 42s-38 42 -85 55c-70 18 -158 44 -158 142c0 85 69 137 165 137c53 0 98 -11 137 -34c16 -10 24 -23 24 -39c0 -8 -2 -16 -6 -23c-9 -15 -22 -23 -40 -23
c-9 0 -18 2 -27 6c-26 11 -53 17 -82 17c-33 0 -56 -18 -56 -39c0 -42 87 -52 157 -77c48 -17 86 -57 86 -116c0 -88 -71 -144 -182 -144c-63 0 -115 17 -156 51c-13 11 -19 24 -19 39zM111 523c-14 0 -25 6 -33 17c-6 7 -9 16 -9 26c0 14 5 26 16 35l89 77c9 8 20 12 33 12
c14 0 25 -4 34 -13l88 -76c10 -9 15 -20 15 -34c0 -12 -3 -22 -10 -29c-9 -11 -21 -17 -34 -17c-9 0 -18 3 -27 10l-67 54l-68 -53c-8 -6 -17 -9 -27 -9z" />
    <glyph glyph-name="Scedilla" unicode="&#x15e;" horiz-adv-x="529" 
d="M271 -10v-23c74 -6 111 -35 111 -87s-50 -88 -133 -88c-46 0 -84 10 -115 31c-9 5 -13 14 -13 25c0 6 2 12 5 17c7 11 16 16 28 16c6 0 12 -1 17 -4c20 -10 37 -15 50 -15c26 0 39 8 39 25c0 11 -6 19 -17 24c-20 9 -30 24 -30 43v37c-55 6 -104 28 -147 66
c-15 13 -23 29 -23 47c0 14 5 27 15 39c11 13 25 20 43 20c15 0 30 -5 44 -15c39 -29 76 -44 111 -44c60 0 102 30 102 82c0 137 -317 105 -317 332c0 55 20 101 60 138c39 37 92 55 158 55c55 0 100 -10 137 -29c27 -14 41 -32 41 -55c0 -9 -3 -19 -9 -29
c-11 -19 -26 -28 -47 -28c-11 0 -21 2 -31 7c-31 13 -58 20 -83 20c-60 0 -96 -31 -96 -78c0 -145 317 -99 317 -332c0 -55 -20 -101 -61 -137c-41 -37 -93 -57 -156 -60z" />
    <glyph glyph-name="scedilla" unicode="&#x15f;" horiz-adv-x="424" 
d="M238 -9v-25c69 -5 104 -34 104 -86c0 -53 -50 -88 -138 -88c-35 0 -67 8 -94 24c-10 7 -15 16 -15 29c0 5 1 10 3 14c6 11 16 17 29 17c7 0 13 -1 18 -4c15 -7 30 -10 43 -10c26 0 39 8 39 25c0 12 -5 20 -15 23c-25 9 -32 21 -32 48v32c-50 5 -92 21 -127 50
c-13 11 -19 24 -19 39c0 11 3 21 10 28c10 12 22 18 36 18c11 0 22 -4 33 -11c31 -19 65 -29 104 -29c35 0 59 15 59 42s-38 42 -85 55c-70 18 -158 44 -158 142c0 85 69 137 165 137c53 0 98 -11 137 -34c16 -10 24 -23 24 -39c0 -8 -2 -16 -6 -23c-9 -15 -22 -23 -40 -23
c-9 0 -18 2 -27 6c-26 11 -53 17 -82 17c-33 0 -56 -18 -56 -39c0 -42 87 -52 157 -77c48 -17 86 -57 86 -116c0 -80 -58 -133 -153 -142z" />
    <glyph glyph-name="Scaron" unicode="&#x160;" horiz-adv-x="529" 
d="M43 104c0 14 5 27 15 39c11 13 25 20 43 20c15 0 30 -5 44 -15c39 -29 76 -44 111 -44c60 0 102 30 102 82c0 137 -317 105 -317 332c0 55 20 101 60 138c39 37 92 55 158 55c55 0 100 -10 137 -29c27 -14 41 -32 41 -55c0 -9 -3 -19 -9 -29c-11 -19 -26 -28 -47 -28
c-11 0 -21 2 -31 7c-31 13 -58 20 -83 20c-60 0 -96 -31 -96 -78c0 -145 317 -99 317 -332c0 -58 -22 -105 -67 -142s-100 -56 -167 -56c-73 0 -135 23 -188 68c-15 13 -23 29 -23 47zM384 897c15 0 26 -6 33 -17c4 -6 6 -13 6 -20c0 -14 -6 -25 -18 -34l-112 -70
c-9 -7 -21 -10 -34 -10c-12 0 -23 3 -33 9l-113 71c-11 7 -17 18 -17 32c0 9 2 16 7 23c8 11 19 17 33 17c8 0 15 -2 22 -6l103 -60l102 60c5 3 12 5 21 5z" />
    <glyph glyph-name="scaron" unicode="&#x161;" horiz-adv-x="424" 
d="M34 79c0 11 3 21 10 28c10 12 22 18 36 18c11 0 22 -4 33 -11c31 -19 65 -29 104 -29c35 0 59 15 59 42s-38 42 -85 55c-70 18 -158 44 -158 142c0 85 69 137 165 137c53 0 98 -11 137 -34c16 -10 24 -23 24 -39c0 -8 -2 -16 -6 -23c-9 -15 -22 -23 -40 -23
c-9 0 -18 2 -27 6c-26 11 -53 17 -82 17c-33 0 -56 -18 -56 -39c0 -42 87 -52 157 -77c48 -17 86 -57 86 -116c0 -88 -71 -144 -182 -144c-63 0 -115 17 -156 51c-13 11 -19 24 -19 39zM306 691c11 0 21 -4 30 -13c7 -7 10 -16 10 -27c0 -14 -5 -25 -15 -33l-93 -81
c-9 -8 -20 -12 -33 -12c-14 0 -25 4 -34 13l-92 80c-9 9 -14 20 -14 33c0 10 4 19 11 28s18 14 32 14c12 0 22 -4 29 -11l69 -63l70 61c9 7 19 11 30 11z" />
    <glyph glyph-name="Tcedilla" unicode="&#x162;" horiz-adv-x="597" 
d="M327 -1v-32c74 -6 111 -35 111 -87s-50 -88 -133 -88c-46 0 -84 10 -115 31c-9 5 -13 14 -13 25c0 6 2 12 5 17c7 11 16 16 28 16c6 0 12 -1 17 -4c20 -10 37 -15 50 -15c26 0 39 8 39 25c0 11 -6 19 -17 24c-20 9 -30 24 -30 43v46c-21 11 -32 29 -32 53v532h-171
c-31 0 -56 25 -56 58c0 32 25 57 56 57h465c31 0 56 -25 56 -57c0 -33 -25 -58 -56 -58h-171v-532c0 -25 -11 -43 -33 -54z" />
    <glyph glyph-name="tcedilla" unicode="&#x163;" horiz-adv-x="347" 
d="M214 -9v-25c69 -5 104 -34 104 -86c0 -53 -50 -88 -138 -88c-35 0 -67 8 -94 24c-10 7 -15 16 -15 29c0 5 1 10 3 14c6 11 16 17 29 17c7 0 13 -1 18 -4c15 -7 30 -10 43 -10c26 0 39 8 39 25c0 12 -5 20 -15 23c-25 9 -32 21 -32 48v36c-68 13 -102 72 -102 177v348
c0 31 25 56 58 56c32 0 57 -25 57 -56v-69h89c31 0 56 -25 56 -54s-25 -54 -56 -54h-89v-164c0 -54 17 -81 52 -81c19 0 45 5 53 5c29 0 46 -21 46 -46c0 -20 -10 -35 -31 -46c-23 -12 -48 -18 -75 -19z" />
    <glyph glyph-name="Tcaron" unicode="&#x164;" horiz-adv-x="597" 
d="M237 53v532h-171c-31 0 -56 25 -56 58c0 32 25 57 56 57h465c31 0 56 -25 56 -57c0 -33 -25 -58 -56 -58h-171v-532c0 -33 -28 -61 -61 -61c-35 0 -62 26 -62 61zM419 897c15 0 26 -6 33 -17c4 -6 6 -13 6 -20c0 -14 -6 -25 -18 -34l-112 -70c-9 -7 -21 -10 -34 -10
c-12 0 -23 3 -33 9l-113 71c-11 7 -17 18 -17 32c0 9 2 16 7 23c8 11 19 17 33 17c7 0 15 -2 22 -6l103 -60l102 60c5 3 12 5 21 5z" />
    <glyph glyph-name="tcaron" unicode="&#x165;" horiz-adv-x="347" 
d="M274 102c29 0 46 -21 46 -46c0 -20 -10 -35 -31 -46c-26 -13 -58 -20 -95 -20c-99 0 -140 61 -140 181v348c0 31 25 56 58 56c32 0 57 -25 57 -56v-69h89c31 0 56 -25 56 -54s-25 -54 -56 -54h-89v-164c0 -54 17 -81 52 -81c19 0 45 5 53 5zM230 541c0 9 3 18 9 28
c16 25 24 48 24 69c0 6 0 10 -1 13c-2 10 -3 18 -3 25c0 16 9 24 28 24h48c23 0 34 -11 34 -34c0 -65 -23 -117 -70 -155c-7 -5 -16 -8 -27 -8c-12 0 -21 3 -28 9c-9 9 -14 18 -14 29z" />
    <glyph glyph-name="Umacron" unicode="&#x16a;" horiz-adv-x="750" 
d="M541 315v329c0 35 26 61 61 61s61 -26 61 -61v-354c0 -101 -26 -176 -79 -226s-119 -75 -199 -75c-90 0 -162 27 -216 80c-55 53 -82 129 -82 228v347c0 35 27 61 62 61c33 0 61 -26 61 -61v-321c0 -136 58 -219 175 -219c104 0 156 70 156 211zM274 852h217
c25 0 46 -21 46 -46s-21 -46 -46 -46h-217c-25 0 -46 21 -46 46s21 46 46 46z" />
    <glyph glyph-name="umacron" unicode="&#x16b;" horiz-adv-x="535" 
d="M356 151v250c0 31 25 56 58 56c32 0 57 -25 57 -56v-353c0 -31 -25 -56 -58 -56s-57 24 -57 63c-36 -44 -84 -66 -144 -66c-93 0 -158 63 -158 186v226c0 31 25 56 58 56c32 0 57 -25 57 -56v-202c0 -69 29 -103 86 -103c39 0 73 18 101 55zM170 642h187
c25 0 46 -21 46 -46s-21 -46 -46 -46h-187c-25 0 -46 21 -46 46s21 46 46 46z" />
    <glyph glyph-name="Ubreve" unicode="&#x16c;" horiz-adv-x="750" 
d="M541 315v329c0 35 26 61 61 61s61 -26 61 -61v-354c0 -101 -26 -176 -79 -226s-119 -75 -199 -75c-90 0 -162 27 -216 80c-55 53 -82 129 -82 228v347c0 35 27 61 62 61c33 0 61 -26 61 -61v-321c0 -136 58 -219 175 -219c104 0 156 70 156 211zM562 849
c0 -11 -3 -19 -9 -25c-43 -48 -113 -87 -176 -87c-68 0 -128 29 -179 87c-12 12 -13 37 2 52c8 8 17 12 27 12c11 0 22 -4 34 -13c31 -25 70 -38 116 -38c43 0 80 13 113 38c12 9 23 13 33 13c11 0 20 -4 28 -12c7 -7 11 -16 11 -27z" />
    <glyph glyph-name="ubreve" unicode="&#x16d;" horiz-adv-x="535" 
d="M356 151v250c0 31 25 56 58 56c32 0 57 -25 57 -56v-353c0 -31 -25 -56 -58 -56s-57 24 -57 63c-36 -44 -84 -66 -144 -66c-93 0 -158 63 -158 186v226c0 31 25 56 58 56c32 0 57 -25 57 -56v-202c0 -69 29 -103 86 -103c39 0 73 18 101 55zM421 637c0 -9 -2 -16 -7 -21
c-43 -56 -93 -84 -152 -84c-57 0 -104 28 -142 83c-5 7 -7 14 -7 21c0 11 5 20 14 27c7 5 15 8 23 8c11 0 20 -4 28 -12c27 -23 56 -34 89 -34c34 0 64 11 91 33c10 8 20 12 29 12c7 0 15 -3 22 -8c8 -6 12 -14 12 -25z" />
    <glyph glyph-name="Uring" unicode="&#x16e;" horiz-adv-x="750" 
d="M541 315v329c0 35 26 61 61 61s61 -26 61 -61v-354c0 -101 -26 -176 -79 -226s-119 -75 -199 -75c-90 0 -162 27 -216 80c-55 53 -82 129 -82 228v347c0 35 27 61 62 61c33 0 61 -26 61 -61v-321c0 -136 58 -219 175 -219c104 0 156 70 156 211zM375 908
c84 0 143 -36 143 -108c0 -71 -60 -110 -143 -110c-81 0 -139 39 -139 110c0 72 58 108 139 108zM376 753c33 0 57 16 57 47c0 30 -19 45 -57 45c-37 0 -55 -15 -55 -45c0 -31 23 -47 55 -47z" />
    <glyph glyph-name="uring" unicode="&#x16f;" horiz-adv-x="535" 
d="M356 151v250c0 31 25 56 58 56c32 0 57 -25 57 -56v-353c0 -31 -25 -56 -58 -56s-57 24 -57 63c-36 -44 -84 -66 -144 -66c-93 0 -158 63 -158 186v226c0 31 25 56 58 56c32 0 57 -25 57 -56v-202c0 -69 29 -103 86 -103c39 0 73 18 101 55zM263 494
c-72 0 -126 53 -126 118c0 67 54 120 126 120c73 0 128 -53 128 -120c0 -65 -55 -118 -128 -118zM265 669c-71 6 -71 -117 0 -113c68 -4 68 119 0 113z" />
    <glyph glyph-name="Uhungarumlaut" unicode="&#x170;" horiz-adv-x="750" 
d="M541 315v329c0 35 26 61 61 61s61 -26 61 -61v-354c0 -101 -26 -176 -79 -226s-119 -75 -199 -75c-90 0 -162 27 -216 80c-55 53 -82 129 -82 228v347c0 35 27 61 62 61c33 0 61 -26 61 -61v-321c0 -136 58 -219 175 -219c104 0 156 70 156 211zM419 802l104 87
c7 6 16 9 26 9c9 0 18 -4 27 -11l28 -24c6 -5 9 -11 9 -19c0 -11 -5 -18 -14 -22l-129 -74c-7 -5 -17 -7 -28 -7c-12 0 -21 4 -28 11c-5 6 -8 13 -8 22c0 11 4 21 13 28zM233 804l68 80c9 11 21 16 34 16c7 0 13 -2 20 -5l37 -19c8 -4 12 -11 12 -20c0 -7 -3 -13 -9 -18
l-108 -85c-8 -6 -17 -9 -27 -9c-11 0 -19 3 -26 9c-15 15 -14 35 -1 51z" />
    <glyph glyph-name="uhungarumlaut" unicode="&#x171;" horiz-adv-x="535" 
d="M356 151v250c0 31 25 56 58 56c32 0 57 -25 57 -56v-353c0 -31 -25 -56 -58 -56s-57 24 -57 63c-36 -44 -84 -66 -144 -66c-93 0 -158 63 -158 186v226c0 31 25 56 58 56c32 0 57 -25 57 -56v-202c0 -69 29 -103 86 -103c39 0 73 18 101 55zM305 598l66 90
c9 11 20 16 34 16c10 0 18 -3 24 -8l19 -15c10 -8 15 -18 15 -30c0 -9 -4 -18 -11 -25l-74 -79c-11 -11 -24 -17 -38 -17c-9 0 -18 3 -25 9c-12 9 -18 21 -18 36c0 8 3 16 8 23zM139 601l57 94c7 12 18 18 33 18c8 0 15 -2 22 -7l16 -11c11 -8 16 -19 16 -33
c0 -11 -3 -19 -8 -25l-64 -87c-8 -11 -20 -16 -35 -16c-9 0 -17 3 -26 8c-12 8 -18 19 -18 34c0 9 2 18 7 25z" />
    <glyph glyph-name="Uogonek" unicode="&#x172;" horiz-adv-x="750" 
d="M541 315v329c0 35 26 61 61 61s61 -26 61 -61v-354c0 -97 -25 -171 -74 -221c-50 -50 -113 -77 -190 -80c-27 -13 -44 -37 -44 -57c0 -27 17 -40 51 -40c39 0 56 -5 61 -28c1 -3 1 -7 1 -12c0 -20 -9 -33 -27 -40c-19 -8 -41 -12 -67 -12c-76 0 -134 30 -134 94
c0 43 27 77 80 101c-144 23 -233 127 -233 302v347c0 35 27 61 62 61c33 0 61 -26 61 -61v-321c0 -136 58 -219 175 -219c104 0 156 70 156 211z" />
    <glyph glyph-name="uogonek" unicode="&#x173;" horiz-adv-x="535" 
d="M356 151v250c0 31 25 56 58 56c32 0 57 -25 57 -56v-353c0 -31 -25 -56 -58 -56c-8 0 -16 2 -24 5c-37 -9 -64 -40 -64 -65c0 -27 17 -40 51 -40c39 0 56 -5 61 -28c1 -3 1 -7 1 -12c0 -20 -9 -33 -27 -40c-19 -8 -41 -12 -67 -12c-76 0 -134 30 -134 94
c0 65 68 109 157 121c-7 11 -11 25 -11 40c-36 -44 -84 -66 -144 -66c-93 0 -158 63 -158 186v226c0 31 25 56 58 56c32 0 57 -25 57 -56v-202c0 -69 29 -103 86 -103c39 0 73 18 101 55z" />
    <glyph glyph-name="Ydieresis" unicode="&#x178;" horiz-adv-x="599" 
d="M148 668l155 -261l153 261c15 25 34 37 57 37c35 0 55 -24 55 -53c0 -11 -3 -22 -10 -33l-199 -327v-239c0 -33 -26 -61 -61 -61s-62 26 -62 61v239l-195 322c-7 12 -10 23 -10 34c0 31 24 57 61 57c22 0 41 -12 56 -37zM185 887c39 0 71 -25 71 -62
c0 -41 -32 -66 -71 -66c-44 0 -77 25 -77 66c0 37 33 62 77 62zM417 887c39 0 71 -25 71 -62c0 -41 -32 -66 -71 -66c-44 0 -77 25 -77 66c0 37 33 62 77 62z" />
    <glyph glyph-name="Zacute" unicode="&#x179;" horiz-adv-x="631" 
d="M535 0h-457c-32 0 -56 21 -56 54c0 15 8 32 24 51l370 480h-311c-31 0 -56 25 -56 58c0 32 25 57 56 57h429c49 -3 82 -42 30 -107l-371 -478h342c31 0 56 -25 56 -57c0 -33 -25 -58 -56 -58zM267 817l148 77c5 3 10 4 16 4c15 0 25 -7 32 -21l13 -31c2 -4 3 -9 3 -14
c0 -16 -8 -27 -23 -32l-155 -57c-3 -1 -7 -2 -13 -2c-18 0 -31 8 -38 25c-3 5 -4 10 -4 17c0 16 7 27 21 34z" />
    <glyph glyph-name="zacute" unicode="&#x17a;" horiz-adv-x="475" 
d="M389 0h-292c-47 0 -80 50 -30 104l215 238h-172c-29 0 -53 25 -53 54s24 54 53 54h280c33 0 55 -22 55 -53c0 -17 -8 -34 -24 -51l-215 -239h183c29 0 53 -24 53 -53s-24 -54 -53 -54zM198 600l61 95c7 11 18 17 32 17c9 0 16 -2 23 -7l24 -18c10 -7 15 -17 15 -31
c0 -10 -3 -18 -9 -25l-72 -83c-9 -10 -21 -15 -34 -15c-9 0 -18 3 -27 8c-13 9 -19 21 -19 37c0 8 2 15 6 22z" />
    <glyph glyph-name="Zdotaccent" unicode="&#x17b;" horiz-adv-x="631" 
d="M535 0h-457c-32 0 -56 21 -56 54c0 15 8 32 24 51l370 480h-311c-31 0 -56 25 -56 58c0 32 25 57 56 57h429c49 -3 82 -42 30 -107l-371 -478h342c31 0 56 -25 56 -57c0 -33 -25 -58 -56 -58zM315 902c40 0 75 -28 75 -71c0 -45 -35 -75 -75 -75c-44 0 -79 28 -79 75
c0 43 35 71 79 71z" />
    <glyph glyph-name="zdotaccent" unicode="&#x17c;" horiz-adv-x="475" 
d="M389 0h-292c-47 0 -80 50 -30 104l215 238h-172c-29 0 -53 25 -53 54s24 54 53 54h280c33 0 55 -22 55 -53c0 -17 -8 -34 -24 -51l-215 -239h183c29 0 53 -24 53 -53s-24 -54 -53 -54zM245 679c35 0 66 -27 66 -67c0 -44 -31 -72 -66 -72c-41 0 -72 28 -72 72
c0 40 32 67 72 67z" />
    <glyph glyph-name="Zcaron" unicode="&#x17d;" horiz-adv-x="631" 
d="M535 0h-457c-32 0 -56 21 -56 54c0 15 8 32 24 51l370 480h-311c-31 0 -56 25 -56 58c0 32 25 57 56 57h429c49 -3 82 -42 30 -107l-371 -478h342c31 0 56 -25 56 -57c0 -33 -25 -58 -56 -58zM441 897c15 0 26 -6 33 -17c4 -6 6 -13 6 -20c0 -14 -6 -25 -18 -34l-112 -70
c-9 -7 -21 -10 -34 -10c-12 0 -23 3 -33 9l-113 71c-11 7 -17 18 -17 32c0 9 2 16 7 23c8 11 19 17 33 17c7 0 15 -2 22 -6l103 -60l102 60c5 3 12 5 21 5z" />
    <glyph glyph-name="zcaron" unicode="&#x17e;" horiz-adv-x="475" 
d="M389 0h-292c-47 0 -80 50 -30 104l215 238h-172c-29 0 -53 25 -53 54s24 54 53 54h280c33 0 55 -22 55 -53c0 -17 -8 -34 -24 -51l-215 -239h183c29 0 53 -24 53 -53s-24 -54 -53 -54zM353 691c11 0 21 -4 30 -13c7 -7 10 -16 10 -27c0 -14 -5 -25 -15 -33l-93 -81
c-9 -8 -20 -12 -33 -12c-14 0 -25 4 -34 13l-92 80c-9 9 -14 20 -14 33c0 10 4 19 11 28s18 14 32 14c12 0 22 -4 29 -11l69 -63l70 61c9 7 19 11 30 11z" />
    <glyph glyph-name="longs" unicode="&#x17f;" horiz-adv-x="285" 
d="M69 48v475c0 123 59 188 160 188c74 0 111 -19 111 -57c0 -35 -19 -53 -57 -53c-9 0 -30 3 -38 3c-39 0 -61 -33 -61 -90v-466c0 -31 -25 -56 -57 -56c-33 0 -58 25 -58 56z" />
    <glyph glyph-name="uni018F" unicode="&#x18f;" horiz-adv-x="766" 
d="M160 657c63 36 129 54 200 54c108 0 195 -33 262 -98c66 -66 99 -153 99 -262s-32 -197 -96 -263c-65 -66 -151 -99 -258 -99c-101 0 -182 34 -244 101c-63 67 -94 157 -94 271c0 32 25 53 53 53h506c-24 113 -116 182 -235 182c-39 0 -84 -12 -133 -36
c-12 -5 -23 -8 -34 -8c-21 0 -37 9 -48 27c-5 9 -8 18 -8 29c0 21 10 38 30 49zM593 299h-434c4 -55 25 -101 62 -138c37 -38 85 -57 144 -57c124 0 207 70 228 195z" />
    <glyph glyph-name="florin" unicode="&#x192;" horiz-adv-x="573" 
d="M557 648c0 -8 -2 -16 -7 -25c-8 -16 -22 -24 -43 -24c-9 0 -19 1 -32 3c-3 1 -8 1 -14 1c-38 0 -62 -30 -73 -89l-11 -64h59c31 0 56 -25 56 -54s-25 -54 -56 -54h-78l-66 -375c-23 -119 -61 -175 -156 -175c-31 0 -57 5 -78 16c-19 9 -28 24 -28 45c0 8 1 15 4 20
c9 23 26 28 71 28c39 0 63 26 72 77l64 364h-61c-31 0 -56 25 -56 54s25 54 56 54h80l13 73c25 132 71 188 168 188c31 0 58 -5 80 -15c24 -11 36 -27 36 -48z" />
    <glyph glyph-name="uni01DD" unicode="&#x1dd;" horiz-adv-x="509" 
d="M148 185v-2c0 -59 40 -98 105 -98c67 0 105 37 116 100h-221zM252 -11c-64 0 -117 19 -159 58c-43 39 -64 89 -64 151v21c0 25 19 43 43 43h294c-11 63 -62 103 -133 103c-31 0 -59 -6 -84 -17c-11 -5 -19 -7 -26 -7c-15 0 -27 7 -36 21c-5 8 -7 15 -7 22
c0 17 8 30 23 39c43 25 90 38 142 38c72 0 129 -21 172 -64c42 -43 63 -101 63 -172c0 -69 -20 -125 -60 -169c-40 -45 -96 -67 -168 -67z" />
    <glyph glyph-name="Scommaaccent" unicode="&#x218;" horiz-adv-x="529" 
d="M43 104c0 14 5 27 15 39c11 13 25 20 43 20c15 0 30 -5 44 -15c39 -29 76 -44 111 -44c60 0 102 30 102 82c0 137 -317 105 -317 332c0 55 20 101 60 138c39 37 92 55 158 55c55 0 100 -10 137 -29c27 -14 41 -32 41 -55c0 -9 -3 -19 -9 -29c-11 -19 -26 -28 -47 -28
c-11 0 -21 2 -31 7c-31 13 -58 20 -83 20c-60 0 -96 -31 -96 -78c0 -145 317 -99 317 -332c0 -58 -22 -105 -67 -142s-100 -56 -167 -56c-73 0 -135 23 -188 68c-15 13 -23 29 -23 47zM186 -168c0 9 5 18 14 27c12 10 18 25 18 45c0 7 -1 19 -1 23c0 12 7 20 20 23l59 13
c2 1 4 1 7 1c21 0 30 -22 30 -46c0 -56 -41 -98 -96 -117c-4 -2 -9 -3 -15 -3c-13 0 -23 5 -30 15c-4 6 -6 12 -6 19z" />
    <glyph glyph-name="scommaaccent" unicode="&#x219;" horiz-adv-x="424" 
d="M34 79c0 11 3 21 10 28c10 12 22 18 36 18c11 0 22 -4 33 -11c31 -19 65 -29 104 -29c35 0 59 15 59 42s-38 42 -85 55c-70 18 -158 44 -158 142c0 85 69 137 165 137c53 0 98 -11 137 -34c16 -10 24 -23 24 -39c0 -8 -2 -16 -6 -23c-9 -15 -22 -23 -40 -23
c-9 0 -18 2 -27 6c-26 11 -53 17 -82 17c-33 0 -56 -18 -56 -39c0 -42 87 -52 157 -77c48 -17 86 -57 86 -116c0 -88 -71 -144 -182 -144c-63 0 -115 17 -156 51c-13 11 -19 24 -19 39zM131 -168c0 9 5 18 14 27c12 10 18 25 18 45c0 7 -1 19 -1 23c0 12 7 20 20 23l59 13
c2 1 4 1 7 1c21 0 30 -22 30 -46c0 -56 -41 -98 -96 -117c-4 -2 -9 -3 -15 -3c-13 0 -23 5 -30 15c-4 6 -6 12 -6 19z" />
    <glyph glyph-name="Tcommaaccent" unicode="&#x21a;" horiz-adv-x="597" 
d="M237 53v532h-171c-31 0 -56 25 -56 58c0 32 25 57 56 57h465c31 0 56 -25 56 -57c0 -33 -25 -58 -56 -58h-171v-532c0 -33 -28 -61 -61 -61c-35 0 -62 26 -62 61zM214 -168c0 9 5 18 14 27c12 10 18 25 18 45c0 7 -1 19 -1 23c0 12 7 20 20 23l59 13c2 1 4 1 7 1
c21 0 30 -22 30 -46c0 -56 -41 -98 -96 -117c-4 -2 -9 -3 -15 -3c-13 0 -23 5 -30 15c-4 6 -6 12 -6 19z" />
    <glyph glyph-name="tcommaaccent" unicode="&#x21b;" horiz-adv-x="347" 
d="M274 102c29 0 46 -21 46 -46c0 -20 -10 -35 -31 -46c-26 -13 -58 -20 -95 -20c-99 0 -140 61 -140 181v348c0 31 25 56 58 56c32 0 57 -25 57 -56v-69h89c31 0 56 -25 56 -54s-25 -54 -56 -54h-89v-164c0 -54 17 -81 52 -81c19 0 45 5 53 5zM95 -168c0 9 5 18 14 27
c12 10 18 25 18 45c0 7 -1 19 -1 23c0 12 7 20 20 23l59 13c2 1 4 1 7 1c21 0 30 -22 30 -46c0 -56 -41 -98 -96 -117c-4 -2 -9 -3 -15 -3c-13 0 -23 5 -30 15c-4 6 -6 12 -6 19z" />
    <glyph glyph-name="uni0237" unicode="&#x237;" horiz-adv-x="296" 
d="M99 -23v424c0 31 25 56 58 56c32 0 57 -25 57 -56v-434c0 -117 -47 -175 -141 -175c-53 0 -96 19 -96 62c0 21 9 35 28 41c5 2 13 3 22 3h17c37 0 55 26 55 79z" />
    <glyph glyph-name="uni0259" unicode="&#x259;" horiz-adv-x="509" 
d="M148 185v-2c0 -59 40 -98 105 -98c67 0 105 37 116 100h-221zM252 -11c-64 0 -117 19 -159 58c-43 39 -64 89 -64 151v21c0 25 19 43 43 43h294c-11 63 -62 103 -133 103c-31 0 -59 -6 -84 -17c-11 -5 -19 -7 -26 -7c-15 0 -27 7 -36 21c-5 8 -7 15 -7 22
c0 17 8 30 23 39c43 25 90 38 142 38c72 0 129 -21 172 -64c42 -43 63 -101 63 -172c0 -69 -20 -125 -60 -169c-40 -45 -96 -67 -168 -67z" />
    <glyph glyph-name="afii57929" unicode="&#x2bc;" horiz-adv-x="222" 
d="M56 470c0 8 3 17 9 26c14 21 21 45 21 70c0 10 -2 20 -5 30c-3 11 -4 18 -4 21c0 13 9 25 26 34l30 18c5 3 10 4 16 4c15 0 26 -6 31 -19c9 -20 14 -41 14 -62c0 -62 -23 -112 -70 -151c-12 -12 -42 -12 -54 0c-9 9 -14 19 -14 29z" />
    <glyph glyph-name="circumflex" unicode="&#x2c6;" horiz-adv-x="429" 
d="M119 523c-14 0 -25 6 -33 17c-6 7 -9 16 -9 26c0 14 5 26 16 35l89 77c9 8 20 12 33 12c14 0 25 -4 34 -13l88 -76c10 -9 15 -20 15 -34c0 -12 -3 -22 -10 -29c-9 -11 -21 -17 -34 -17c-9 0 -18 3 -27 10l-67 54l-68 -53c-8 -6 -17 -9 -27 -9z" />
    <glyph glyph-name="caron" unicode="&#x2c7;" horiz-adv-x="429" 
d="M315 691c11 0 21 -4 30 -13c7 -7 10 -16 10 -27c0 -14 -5 -25 -15 -33l-93 -81c-9 -8 -20 -12 -33 -12c-14 0 -25 4 -34 13l-92 80c-9 9 -14 20 -14 33c0 10 4 19 11 28s18 14 32 14c12 0 22 -4 29 -11l69 -63l70 61c9 7 19 11 30 11z" />
    <glyph glyph-name="breve" unicode="&#x2d8;" horiz-adv-x="433" 
d="M375 637c0 -9 -2 -16 -7 -21c-43 -56 -93 -84 -152 -84c-57 0 -104 28 -142 83c-5 7 -7 14 -7 21c0 11 5 20 14 27c7 5 15 8 23 8c11 0 20 -4 28 -12c27 -23 56 -34 89 -34c34 0 64 11 91 33c10 8 20 12 29 12c7 0 15 -3 22 -8c8 -6 12 -14 12 -25z" />
    <glyph glyph-name="dotaccent" unicode="&#x2d9;" horiz-adv-x="258" 
d="M132 679c35 0 66 -27 66 -67c0 -44 -31 -72 -66 -72c-41 0 -72 28 -72 72c0 40 32 67 72 67z" />
    <glyph glyph-name="ring" unicode="&#x2da;" horiz-adv-x="374" 
d="M186 494c-72 0 -126 53 -126 118c0 67 54 120 126 120c73 0 128 -53 128 -120c0 -65 -55 -118 -128 -118zM188 669c-71 6 -71 -117 0 -113c68 -4 68 119 0 113z" />
    <glyph glyph-name="ogonek" unicode="&#x2db;" horiz-adv-x="357" 
d="M274 0h-9c-48 0 -90 -36 -90 -68c0 -27 17 -40 51 -40c39 0 56 -5 61 -28c1 -3 1 -7 1 -12c0 -20 -9 -33 -27 -40c-19 -8 -41 -12 -67 -12c-76 0 -134 30 -134 94c0 39 21 69 63 91c41 23 89 34 142 34h9v-19z" />
    <glyph glyph-name="tilde" unicode="&#x2dc;" horiz-adv-x="464" 
d="M386 573c-36 -32 -69 -48 -99 -48c-15 0 -34 8 -57 25s-43 25 -58 25c-7 0 -20 -6 -38 -17c-11 -7 -20 -10 -27 -10c-10 0 -19 5 -28 15c-5 5 -7 12 -7 20c0 13 5 25 16 34c33 28 64 42 93 42c16 0 36 -8 60 -25s43 -25 56 -25c9 0 22 6 41 19c11 7 20 11 29 11
s18 -4 26 -13c6 -7 9 -14 9 -22c0 -11 -5 -22 -16 -31z" />
    <glyph glyph-name="hungarumlaut" unicode="&#x2dd;" horiz-adv-x="484" 
d="M248 598l66 90c9 11 20 16 34 16c10 0 18 -3 24 -8l19 -15c10 -8 15 -18 15 -30c0 -9 -4 -18 -11 -25l-74 -79c-11 -11 -24 -17 -38 -17c-10 0 -18 3 -25 9c-12 9 -18 21 -18 36c0 8 3 16 8 23zM82 601l57 94c7 12 18 18 33 18c8 0 15 -2 22 -7l16 -11
c11 -8 16 -19 16 -33c0 -11 -3 -19 -8 -25l-64 -87c-8 -11 -20 -16 -35 -16c-9 0 -17 3 -26 8c-12 8 -18 19 -18 34c0 9 2 18 7 25z" />
    <glyph glyph-name="gravecomb" unicode="&#x300;" horiz-adv-x="0" 
d="M-283 697l64 -101c5 -8 7 -16 7 -24c0 -15 -6 -26 -18 -34c-7 -5 -16 -8 -26 -8c-13 0 -25 5 -35 15l-79 87c-5 5 -8 13 -8 22c0 12 4 21 13 28l33 24c5 5 12 7 20 7c12 0 22 -5 29 -16z" />
    <glyph glyph-name="acutecomb" unicode="&#x301;" horiz-adv-x="0" 
d="M-299 600l61 95c7 11 18 17 32 17c9 0 16 -2 23 -7l24 -18c10 -7 15 -18 15 -31c0 -10 -3 -18 -9 -25l-72 -83c-9 -10 -20 -15 -34 -15c-9 0 -18 3 -27 8c-13 9 -19 21 -19 37c0 8 2 15 6 22z" />
    <glyph glyph-name="uni0394" unicode="&#x394;" horiz-adv-x="704" 
d="M40 78l256 596c9 23 27 34 53 34s44 -11 54 -34l261 -597c3 -8 5 -15 5 -22c0 -29 -24 -55 -56 -55h-521c-32 0 -57 25 -57 56c0 7 2 14 5 22zM515 115l-169 387l-161 -387h330z" />
    <glyph glyph-name="uni0394" unicode="&#x2206;" horiz-adv-x="704" 
d="M40 78l256 596c9 23 27 34 53 34s44 -11 54 -34l261 -597c3 -8 5 -15 5 -22c0 -29 -24 -55 -56 -55h-521c-32 0 -57 25 -57 56c0 7 2 14 5 22zM515 115l-169 387l-161 -387h330z" />
    <glyph glyph-name="uni03A9" unicode="&#x3a9;" horiz-adv-x="823" 
d="M313 127c31 -16 38 -20 48 -37c5 -9 7 -20 7 -34c0 -31 -25 -56 -56 -56h-202c-31 0 -56 25 -56 58c0 32 25 57 56 57h101c-39 13 -75 44 -107 94c-33 49 -49 106 -49 171c0 99 34 179 102 240s153 91 255 91c103 0 189 -30 256 -90c67 -61 101 -141 101 -241
c0 -67 -16 -125 -49 -172c-33 -48 -69 -79 -108 -93h100c31 0 56 -25 56 -57c0 -33 -25 -58 -56 -58h-201c-31 0 -56 25 -56 56c0 28 12 45 24 53c5 4 16 10 31 18c81 43 129 133 129 233c0 65 -21 120 -62 167c-42 46 -97 69 -165 69c-71 0 -127 -23 -167 -69
c-40 -47 -60 -103 -60 -170c0 -45 11 -89 34 -133s54 -76 94 -97z" />
    <glyph glyph-name="uni03A9" unicode="&#x2126;" horiz-adv-x="823" 
d="M313 127c31 -16 38 -20 48 -37c5 -9 7 -20 7 -34c0 -31 -25 -56 -56 -56h-202c-31 0 -56 25 -56 58c0 32 25 57 56 57h101c-39 13 -75 44 -107 94c-33 49 -49 106 -49 171c0 99 34 179 102 240s153 91 255 91c103 0 189 -30 256 -90c67 -61 101 -141 101 -241
c0 -67 -16 -125 -49 -172c-33 -48 -69 -79 -108 -93h100c31 0 56 -25 56 -57c0 -33 -25 -58 -56 -58h-201c-31 0 -56 25 -56 56c0 28 12 45 24 53c5 4 16 10 31 18c81 43 129 133 129 233c0 65 -21 120 -62 167c-42 46 -97 69 -165 69c-71 0 -127 -23 -167 -69
c-40 -47 -60 -103 -60 -170c0 -45 11 -89 34 -133s54 -76 94 -97z" />
    <glyph glyph-name="pi" unicode="&#x3c0;" horiz-adv-x="612" 
d="M18 47c0 23 12 43 37 58c41 27 61 72 61 175v62h-29c-29 0 -54 25 -54 54s25 54 54 54h426c29 0 54 -25 54 -54s-25 -54 -54 -54h-23v-176c0 -48 8 -68 36 -68h6c3 0 9 1 12 1c33 0 50 -14 50 -43c0 -48 -56 -66 -117 -66c-68 0 -102 43 -102 129v223h-145v-45
c0 -203 -50 -305 -151 -305c-35 0 -61 22 -61 55z" />
    <glyph glyph-name="afii10023" unicode="&#x401;" horiz-adv-x="575" 
d="M220 296v-181h236c31 0 56 -25 56 -57c0 -33 -25 -58 -56 -58h-303c-31 0 -56 25 -56 56v588c0 31 25 56 56 56h293c31 0 56 -25 56 -57c0 -33 -25 -58 -56 -58h-226v-174h196c31 0 56 -25 56 -57c0 -33 -25 -58 -56 -58h-196zM196 887c39 0 71 -25 71 -62
c0 -41 -32 -66 -71 -66c-44 0 -77 25 -77 66c0 37 33 62 77 62zM428 887c39 0 71 -25 71 -62c0 -41 -32 -66 -71 -66c-44 0 -77 25 -77 66c0 37 33 62 77 62z" />
    <glyph glyph-name="afii10051" unicode="&#x402;" horiz-adv-x="764" 
d="M237 53v532h-171c-31 0 -56 25 -56 58c0 32 25 57 56 57h465c31 0 56 -25 56 -57c0 -33 -25 -58 -56 -58h-171v-202c44 27 94 40 149 40c140 0 210 -73 210 -220c0 -141 -66 -214 -174 -214c-33 0 -63 8 -92 23c-23 13 -35 31 -35 54c0 9 2 17 5 23c9 19 25 28 48 28
c12 0 42 -13 58 -13c41 0 68 32 68 97c0 71 -37 107 -111 107c-43 0 -85 -12 -126 -37v-218c0 -33 -28 -61 -61 -61c-35 0 -62 26 -62 61z" />
    <glyph glyph-name="afii10052" unicode="&#x403;" horiz-adv-x="507" 
d="M97 53v591c0 31 25 56 56 56h283c31 0 56 -25 56 -57c0 -33 -25 -58 -56 -58h-216v-532c0 -33 -28 -61 -61 -61c-35 0 -62 28 -62 61zM285 817l148 77c5 3 10 4 16 4c15 0 25 -7 32 -21l13 -31c2 -4 3 -9 3 -14c0 -16 -8 -27 -23 -32l-155 -57c-3 -1 -7 -2 -13 -2
c-18 0 -31 8 -38 25c-3 5 -4 10 -4 17c0 16 7 27 21 34z" />
    <glyph glyph-name="afii10053" unicode="&#x404;" horiz-adv-x="661" 
d="M581 144c20 0 36 -9 47 -26c7 -11 10 -22 10 -32c0 -22 -11 -40 -34 -53c-49 -29 -113 -44 -193 -44c-112 0 -201 33 -267 99c-66 65 -99 153 -99 263c0 109 33 196 99 262c66 65 153 98 260 98c80 0 142 -14 186 -43c23 -14 35 -32 35 -53c0 -10 -3 -20 -9 -29
c-12 -17 -27 -25 -46 -25c-13 0 -25 3 -38 10c-33 17 -68 25 -106 25c-133 0 -228 -66 -252 -182h256c31 0 56 -25 56 -57c0 -33 -25 -58 -56 -58h-259c20 -125 117 -195 242 -195c44 0 87 10 129 30c13 7 26 10 39 10z" />
    <glyph glyph-name="afii10054" unicode="&#x405;" horiz-adv-x="529" 
d="M43 104c0 14 5 27 15 39c11 13 25 20 43 20c15 0 30 -5 44 -15c39 -29 76 -44 111 -44c60 0 102 30 102 82c0 137 -317 105 -317 332c0 55 20 101 60 138c39 37 92 55 158 55c55 0 100 -10 137 -29c27 -14 41 -32 41 -55c0 -9 -3 -19 -9 -29c-11 -19 -26 -28 -47 -28
c-11 0 -21 2 -31 7c-31 13 -58 20 -83 20c-60 0 -96 -31 -96 -78c0 -145 317 -99 317 -332c0 -58 -22 -105 -67 -142s-100 -56 -167 -56c-73 0 -135 23 -188 68c-15 13 -23 29 -23 47z" />
    <glyph glyph-name="afii10055" unicode="&#x406;" horiz-adv-x="347" 
d="M235 644v-591c0 -33 -26 -61 -61 -61s-62 26 -62 61v591c0 35 27 61 62 61s61 -26 61 -61z" />
    <glyph glyph-name="afii10056" unicode="&#x407;" horiz-adv-x="348" 
d="M26 825c0 37 29 62 66 62c35 0 63 -25 63 -62c0 -41 -28 -66 -63 -66c-37 0 -66 25 -66 66zM193 825c0 37 30 62 67 62c33 0 62 -26 62 -62c0 -41 -27 -66 -62 -66c-39 0 -67 25 -67 66zM235 644v-591c0 -33 -26 -61 -61 -61s-62 26 -62 61v591c0 35 27 61 62 61
s61 -26 61 -61z" />
    <glyph glyph-name="afii10057" unicode="&#x408;" horiz-adv-x="386" 
d="M166 186v458c0 35 27 61 62 61s61 -26 61 -61v-479c0 -113 -57 -176 -169 -176c-25 0 -48 3 -68 10c-29 10 -43 28 -43 54c0 8 1 14 2 18c6 25 22 38 49 38c3 0 8 -1 9 -1c16 -3 27 -4 34 -4c42 0 63 27 63 82z" />
    <glyph glyph-name="afii10058" unicode="&#x409;" horiz-adv-x="1005" 
d="M626 345v-229c1 0 9 0 26 -1s30 -2 39 -2c93 0 139 41 139 123c0 75 -50 114 -137 114c-15 0 -37 -2 -67 -5zM175 560l6 79c1 33 30 61 65 61h319c33 0 61 -28 61 -61v-179c26 3 52 5 77 5c169 0 257 -85 257 -226c0 -151 -104 -241 -283 -241h-58c-25 1 -43 1 -54 1
c-35 1 -61 29 -61 62v524h-204l-14 -132c-20 -188 -47 -312 -83 -376s-72 -85 -121 -85c-43 0 -70 25 -70 58c0 32 16 53 49 64s58 51 74 118c15 67 29 177 40 328z" />
    <glyph glyph-name="afii10059" unicode="&#x40a;" horiz-adv-x="1032" 
d="M530 323h-310v-270c0 -33 -28 -61 -61 -61c-35 0 -62 26 -62 61v591c0 35 27 61 62 61c33 0 61 -26 61 -61v-206h310v206c0 35 28 61 61 61s61 -26 61 -61v-201c29 3 55 4 78 4c169 0 257 -82 257 -217c0 -143 -106 -232 -283 -232h-59c-25 1 -43 1 -54 1
c-35 1 -61 29 -61 62v262zM652 327v-211c2 0 11 0 28 -1c16 -1 29 -2 38 -2c93 0 139 38 139 114c0 68 -50 105 -137 105c-22 0 -45 -2 -68 -5z" />
    <glyph glyph-name="afii10060" unicode="&#x40b;" horiz-adv-x="765" 
d="M598 53v111c0 96 -40 144 -120 144c-40 0 -79 -13 -118 -38v-217c0 -33 -28 -61 -61 -61c-35 0 -62 26 -62 61v532h-171c-31 0 -56 25 -56 58c0 32 25 57 56 57h465c31 0 56 -25 56 -57c0 -33 -25 -58 -56 -58h-171v-202c42 27 92 40 150 40c106 0 210 -57 210 -223v-147
c0 -35 -26 -61 -61 -61c-33 0 -61 28 -61 61z" />
    <glyph glyph-name="afii10061" unicode="&#x40c;" horiz-adv-x="649" 
d="M483 29l-263 332v-308c0 -33 -28 -61 -61 -61c-35 0 -62 26 -62 61v591c0 35 27 61 62 61c33 0 61 -26 61 -61v-276l252 304c18 22 37 33 56 33c32 0 55 -23 55 -51c0 -17 -6 -31 -18 -44l-209 -236l227 -278c13 -16 20 -32 20 -49c0 -32 -25 -55 -61 -55
c-20 0 -40 12 -59 37zM330 817l148 77c5 3 10 4 16 4c15 0 25 -7 32 -21l13 -31c2 -4 3 -9 3 -14c0 -16 -8 -27 -23 -32l-155 -57c-3 -1 -7 -2 -13 -2c-18 0 -31 8 -38 25c-3 5 -4 10 -4 17c0 16 7 27 21 34z" />
    <glyph glyph-name="afii10062" unicode="&#x40e;" horiz-adv-x="652" 
d="M149 673l213 -364l153 357c11 26 29 39 54 39c35 0 57 -22 57 -51c0 -9 -2 -18 -6 -28l-205 -463c-27 -61 -55 -104 -82 -127c-28 -24 -64 -36 -108 -36c-21 0 -39 3 -55 9c-19 7 -38 26 -38 53c0 3 1 8 2 16c7 23 22 36 46 38c2 1 5 1 10 1c7 0 28 -2 39 -2
c27 0 49 16 64 49l10 24l-257 425c-6 11 -9 23 -9 34c0 32 22 58 57 58c23 0 42 -11 55 -32zM538 871c0 -87 -80 -144 -200 -144s-200 57 -200 144c0 33 22 59 59 59s56 -24 56 -59c0 -39 28 -59 85 -59s85 20 85 59c0 35 19 59 56 59s59 -26 59 -59z" />
    <glyph glyph-name="afii10145" unicode="&#x40f;" horiz-adv-x="742" 
d="M428 0v-92c0 -33 -26 -61 -57 -61s-58 28 -58 61v92h-155c-35 0 -61 28 -61 61v583c0 35 27 61 62 61c33 0 61 -26 61 -61v-529h302v529c0 35 27 61 62 61s61 -26 61 -61v-583c0 -33 -26 -61 -61 -61h-156z" />
    <glyph glyph-name="afii10017" unicode="&#x410;" horiz-adv-x="689" 
d="M549 30l-58 141h-299l-59 -145c-9 -23 -26 -34 -53 -34c-32 0 -57 25 -57 56c0 7 2 14 5 22l249 585c15 33 38 50 69 50c30 0 52 -17 67 -50l248 -583c3 -9 5 -17 5 -24c0 -31 -26 -56 -57 -56c-30 0 -50 13 -60 38zM444 286l-102 251l-103 -251h205z" />
    <glyph glyph-name="afii10018" unicode="&#x411;" horiz-adv-x="614" 
d="M220 585v-156c27 4 59 6 94 6c145 0 235 -82 235 -211c0 -145 -98 -228 -270 -228c-16 0 -58 1 -126 3c-32 1 -56 26 -56 57v588c0 31 25 56 56 56h297c31 0 56 -25 56 -57c0 -33 -25 -58 -56 -58h-230zM220 314v-199c37 -3 63 -4 78 -4c86 0 129 35 129 104
c0 64 -40 105 -123 105c-25 0 -53 -2 -84 -6z" />
    <glyph glyph-name="afii10019" unicode="&#x412;" horiz-adv-x="617" 
d="M529 530c0 -75 -33 -128 -100 -160c73 -19 123 -76 123 -164c0 -139 -104 -210 -260 -210c-33 0 -78 1 -134 2c-33 1 -61 30 -61 63v577c0 33 28 61 61 62c43 2 90 3 141 3c159 0 230 -69 230 -173zM307 301h-87v-185c28 -3 55 -5 81 -5c85 0 128 34 128 101
c0 59 -45 89 -122 89zM220 585v-177h83c61 0 104 32 104 93c0 56 -42 87 -110 87c-29 0 -55 -1 -77 -3z" />
    <glyph glyph-name="afii10020" unicode="&#x413;" horiz-adv-x="507" 
d="M97 53v591c0 31 25 56 56 56h283c31 0 56 -25 56 -57c0 -33 -25 -58 -56 -58h-216v-532c0 -33 -28 -61 -61 -61c-35 0 -62 28 -62 61z" />
    <glyph glyph-name="afii10021" unicode="&#x414;" horiz-adv-x="756" 
d="M258 700h322c31 0 56 -25 56 -56v-529h39c31 0 56 -25 56 -56v-128c0 -31 -25 -56 -57 -56c-33 0 -58 25 -58 56v69h-489v-69c0 -31 -25 -56 -57 -56c-33 0 -58 25 -58 56v128c0 31 25 56 56 56h19c21 25 43 77 66 156c23 78 37 174 42 289l4 84c3 31 28 56 59 56z
M222 115h292v470h-193l-11 -122c-6 -82 -18 -156 -37 -221s-36 -108 -51 -127z" />
    <glyph glyph-name="afii10022" unicode="&#x415;" horiz-adv-x="575" 
d="M220 296v-181h236c31 0 56 -25 56 -57c0 -33 -25 -58 -56 -58h-303c-31 0 -56 25 -56 56v588c0 31 25 56 56 56h293c31 0 56 -25 56 -57c0 -33 -25 -58 -56 -58h-226v-174h196c31 0 56 -25 56 -57c0 -33 -25 -58 -56 -58h-196z" />
    <glyph glyph-name="afii10024" unicode="&#x416;" horiz-adv-x="913" 
d="M766 22l-248 341v-310c0 -33 -28 -61 -61 -61s-61 28 -61 61v310l-249 -341c-15 -20 -33 -30 -55 -30c-51 0 -67 56 -40 91l212 282l-195 249c-9 11 -14 24 -14 38c0 29 23 53 55 53c19 0 37 -11 54 -34l232 -305v278c0 35 28 61 61 61s61 -26 61 -61v-278l231 305
c17 23 36 34 57 34c32 0 54 -23 54 -52c0 -14 -5 -27 -14 -39l-196 -248l212 -283c8 -11 12 -23 12 -37c0 -29 -20 -54 -55 -54c-21 0 -38 10 -53 30z" />
    <glyph glyph-name="afii10025" unicode="&#x417;" horiz-adv-x="569" 
d="M267 711c127 0 210 -71 210 -192c0 -57 -33 -118 -94 -155c81 -23 121 -84 121 -168c0 -62 -24 -112 -72 -150c-49 -38 -106 -57 -173 -57c-79 0 -148 26 -207 77c-13 11 -19 25 -19 44c0 15 5 28 14 38c12 14 27 21 44 21c11 0 24 -4 37 -13c48 -35 90 -52 125 -52
c73 0 129 36 129 104c0 56 -44 92 -124 92h-16c-33 0 -57 24 -57 59c0 32 23 56 55 56h14c55 0 101 36 101 92c0 57 -41 89 -102 89c-34 0 -69 -12 -105 -35c-15 -10 -29 -15 -41 -15c-15 0 -29 7 -41 21c-8 10 -12 21 -12 32c0 19 8 35 24 47c57 43 120 65 189 65z" />
    <glyph glyph-name="afii10026" unicode="&#x418;" horiz-adv-x="792" 
d="M695 644v-591c0 -33 -26 -61 -61 -61s-62 26 -62 61v443l-345 -466c-19 -25 -42 -38 -68 -38c-39 0 -62 25 -62 60v592c0 35 27 61 62 61c33 0 61 -26 61 -61v-442l345 467c18 24 40 36 66 36c37 0 64 -25 64 -61z" />
    <glyph glyph-name="afii10027" unicode="&#x419;" horiz-adv-x="792" 
d="M695 644v-591c0 -33 -26 -61 -61 -61s-62 26 -62 61v443l-345 -466c-19 -25 -42 -38 -68 -38c-39 0 -62 25 -62 60v592c0 35 27 61 62 61c33 0 61 -26 61 -61v-442l345 467c18 24 40 36 66 36c37 0 64 -25 64 -61zM608 871c0 -87 -80 -144 -200 -144s-200 57 -200 144
c0 33 22 59 59 59s56 -24 56 -59c0 -39 28 -59 85 -59s85 20 85 59c0 35 19 59 56 59s59 -26 59 -59z" />
    <glyph glyph-name="afii10028" unicode="&#x41a;" horiz-adv-x="649" 
d="M483 29l-263 332v-308c0 -33 -28 -61 -61 -61c-35 0 -62 26 -62 61v591c0 35 27 61 62 61c33 0 61 -26 61 -61v-276l252 304c18 22 37 33 56 33c32 0 55 -23 55 -51c0 -17 -6 -31 -18 -44l-209 -236l227 -278c13 -16 20 -32 20 -49c0 -32 -25 -55 -61 -55
c-20 0 -40 12 -59 37z" />
    <glyph glyph-name="afii10029" unicode="&#x41b;" horiz-adv-x="723" 
d="M626 639v-586c0 -33 -28 -61 -61 -61s-61 28 -61 61v532h-204l-14 -132c-20 -188 -47 -312 -83 -376s-72 -85 -121 -85c-43 0 -70 25 -70 58c0 32 16 53 49 64s58 51 74 118c15 67 29 177 40 328l6 79c1 33 30 61 65 61h319c33 0 61 -28 61 -61z" />
    <glyph glyph-name="afii10030" unicode="&#x41c;" horiz-adv-x="901" 
d="M394 263l-174 231v-441c0 -33 -28 -61 -61 -61c-35 0 -62 26 -62 61v584c0 39 28 68 69 68c29 0 55 -15 77 -44l217 -288l207 286c22 31 47 46 76 46c36 0 61 -26 61 -61v-591c0 -33 -28 -61 -61 -61s-61 28 -61 61v442l-172 -232c-33 -45 -83 -45 -116 0z" />
    <glyph glyph-name="afii10031" unicode="&#x41d;" horiz-adv-x="759" 
d="M662 644v-591c0 -33 -28 -61 -61 -61s-61 28 -61 61v246h-320v-246c0 -33 -28 -61 -61 -61c-35 0 -62 26 -62 61v591c0 35 27 61 62 61c33 0 61 -26 61 -61v-230h320v230c0 35 28 61 61 61s61 -26 61 -61z" />
    <glyph glyph-name="afii10032" unicode="&#x41e;" horiz-adv-x="819" 
d="M45 350c0 103 34 189 103 258c68 69 155 103 261 103c105 0 193 -33 262 -100s103 -154 103 -261c0 -105 -35 -191 -104 -259s-156 -102 -261 -102s-192 33 -261 100s-103 154 -103 261zM175 350c0 -70 23 -128 68 -175s100 -71 166 -71c72 0 129 23 172 70
c42 47 63 105 63 176c0 72 -22 131 -67 177s-101 69 -168 69s-123 -23 -167 -69c-45 -46 -67 -105 -67 -177z" />
    <glyph glyph-name="afii10033" unicode="&#x41f;" horiz-adv-x="752" 
d="M655 639v-586c0 -33 -26 -61 -61 -61s-62 26 -62 61v532h-312v-532c0 -33 -28 -61 -61 -61c-35 0 -62 26 -62 61v586c0 33 26 61 61 61h436c35 0 61 -28 61 -61z" />
    <glyph glyph-name="afii10034" unicode="&#x420;" horiz-adv-x="612" 
d="M296 702c205 0 271 -109 271 -225c0 -63 -23 -117 -68 -161s-108 -66 -188 -66c-41 0 -71 1 -91 3v-200c0 -33 -28 -61 -61 -61c-35 0 -62 26 -62 61v586c0 33 26 61 61 62c17 0 42 0 75 1h63zM220 585v-215c32 -3 61 -5 87 -5c77 0 130 38 130 113
c0 73 -43 109 -129 109c-15 0 -44 -1 -88 -2z" />
    <glyph glyph-name="afii10035" unicode="&#x421;" horiz-adv-x="645" 
d="M509 573c-36 15 -71 23 -106 23c-66 0 -120 -22 -163 -67s-65 -104 -65 -179c0 -73 23 -132 68 -177c45 -46 103 -69 174 -69c37 0 75 9 112 27c15 7 29 10 40 10c19 0 34 -8 45 -23c7 -9 10 -20 10 -32c0 -21 -9 -37 -28 -49c-49 -32 -112 -48 -190 -48
c-107 0 -194 33 -261 99s-100 153 -100 262c0 105 32 191 95 259s151 102 263 102c59 0 111 -12 158 -36c25 -12 38 -29 38 -52c0 -9 -3 -18 -8 -29c-11 -19 -27 -28 -49 -28c-12 0 -23 2 -33 7z" />
    <glyph glyph-name="afii10036" unicode="&#x422;" horiz-adv-x="597" 
d="M237 53v532h-171c-31 0 -56 25 -56 58c0 32 25 57 56 57h465c31 0 56 -25 56 -57c0 -33 -25 -58 -56 -58h-171v-532c0 -33 -28 -61 -61 -61c-35 0 -62 26 -62 61z" />
    <glyph glyph-name="afii10037" unicode="&#x423;" horiz-adv-x="652" 
d="M149 673l213 -364l153 357c11 26 29 39 54 39c35 0 57 -22 57 -51c0 -9 -2 -18 -6 -28l-205 -463c-27 -61 -55 -104 -82 -127c-28 -24 -64 -36 -108 -36c-21 0 -39 3 -55 9c-19 7 -38 26 -38 53c0 3 1 8 2 16c7 23 22 36 46 38c2 1 5 1 10 1c7 0 28 -2 39 -2
c27 0 49 16 64 49l10 24l-257 425c-6 11 -9 23 -9 34c0 32 22 58 57 58c23 0 42 -11 55 -32z" />
    <glyph glyph-name="afii10038" unicode="&#x424;" horiz-adv-x="839" 
d="M481 85v-32c0 -33 -26 -61 -61 -61s-62 26 -62 61v32c-98 0 -176 24 -235 73c-59 48 -88 115 -88 202c0 86 29 153 88 201s137 73 235 74v12c0 35 27 61 62 61s61 -28 61 -61v-12c97 -1 176 -26 235 -75s88 -115 88 -200c0 -86 -29 -153 -88 -201
c-59 -49 -138 -73 -235 -74zM481 522v-324c129 1 193 55 193 162c0 97 -66 161 -193 162zM358 198v324c-125 -1 -193 -65 -193 -162c0 -104 69 -161 193 -162z" />
    <glyph glyph-name="afii10039" unicode="&#x425;" horiz-adv-x="630" 
d="M167 670l151 -223l149 222c17 24 36 36 57 36c36 0 58 -25 58 -57c0 -12 -4 -24 -11 -35l-176 -256l185 -269c9 -13 13 -25 13 -38c0 -32 -25 -58 -58 -58c-22 0 -40 10 -55 31l-165 240l-163 -239c-15 -21 -34 -32 -55 -32c-33 0 -60 25 -60 56c0 13 5 27 14 40l185 269
l-174 255c-8 12 -12 24 -12 37c0 31 25 56 61 56c21 0 40 -12 56 -35z" />
    <glyph glyph-name="afii10040" unicode="&#x426;" horiz-adv-x="770" 
d="M745 54v-120c0 -33 -26 -59 -57 -59c-32 0 -58 26 -58 59v66h-472c-35 0 -61 28 -61 61v583c0 35 27 61 62 61c33 0 61 -26 61 -61v-529h307v529c0 35 27 61 62 61c33 0 61 -26 61 -61v-529h34c35 0 61 -26 61 -61z" />
    <glyph glyph-name="afii10041" unicode="&#x427;" horiz-adv-x="667" 
d="M447 399v245c0 35 27 61 62 61c33 0 61 -26 61 -61v-591c0 -33 -28 -61 -61 -61c-35 0 -62 26 -62 61v234c-44 -32 -100 -48 -167 -48c-60 0 -110 18 -151 54s-62 93 -62 170v181c0 35 27 61 62 61c33 0 61 -26 61 -61v-146c0 -96 41 -144 123 -144c45 0 90 15 134 45z
" />
    <glyph glyph-name="afii10042" unicode="&#x428;" horiz-adv-x="997" 
d="M900 644v-583c0 -33 -28 -61 -61 -61h-681c-35 0 -61 28 -61 61v583c0 35 27 61 62 61c33 0 61 -26 61 -61v-529h217v529c0 35 27 61 62 61c33 0 61 -26 61 -61v-529h217v529c0 35 27 61 62 61c33 0 61 -26 61 -61z" />
    <glyph glyph-name="afii10043" unicode="&#x429;" horiz-adv-x="1020" 
d="M995 54v-118c0 -33 -26 -61 -57 -61s-58 28 -58 61v64h-722c-35 0 -61 28 -61 61v583c0 35 27 61 62 61c33 0 61 -26 61 -61v-529h217v529c0 35 27 61 62 61c33 0 61 -26 61 -61v-529h217v529c0 35 27 61 62 61c33 0 61 -26 61 -61v-529h34c35 0 61 -26 61 -61z" />
    <glyph glyph-name="afii10044" unicode="&#x42a;" horiz-adv-x="673" 
d="M337 -2h-62c-27 1 -47 1 -58 1c-31 1 -56 26 -56 57v529h-98c-31 0 -56 25 -56 58c0 32 25 57 56 57h164c31 0 56 -25 56 -56v-184c27 3 54 5 81 5c176 0 264 -85 264 -226c0 -149 -106 -241 -291 -241zM283 345v-229c18 0 50 -3 69 -3c97 0 146 41 146 123
c0 76 -55 114 -144 114c-16 0 -40 -2 -71 -5z" />
    <glyph glyph-name="afii10045" unicode="&#x42b;" horiz-adv-x="864" 
d="M767 644v-591c0 -33 -26 -61 -61 -61s-61 28 -61 61v591c0 35 26 61 61 61s61 -26 61 -61zM220 345v-229c16 0 47 -3 66 -3c92 0 138 41 138 123c0 75 -49 114 -136 114c-14 0 -37 -2 -68 -5zM97 61v583c0 35 27 61 62 61c33 0 61 -26 61 -61v-184c26 3 52 5 78 5
c169 0 256 -85 256 -226c0 -149 -106 -241 -283 -241h-58c-26 1 -44 1 -55 1c-35 1 -61 29 -61 62z" />
    <glyph glyph-name="afii10046" unicode="&#x42c;" horiz-adv-x="609" 
d="M220 345v-229c44 -2 67 -3 68 -3c97 0 146 41 146 123c0 76 -55 114 -144 114c-15 0 -39 -2 -70 -5zM97 61v583c0 35 27 61 62 61c33 0 61 -26 61 -61v-184c26 3 53 5 80 5c176 0 264 -85 264 -226c0 -149 -106 -241 -290 -241h-60c-26 1 -45 1 -56 1
c-35 1 -61 29 -61 62z" />
    <glyph glyph-name="afii10047" unicode="&#x42d;" horiz-adv-x="661" 
d="M79 144c14 0 27 -3 40 -10c42 -20 85 -30 129 -30c125 0 222 70 242 195h-259c-31 0 -56 25 -56 58c0 32 25 57 56 57h256c-24 116 -119 182 -252 182c-38 0 -73 -8 -106 -25c-13 -7 -27 -10 -40 -10c-19 0 -34 8 -45 24c-6 8 -9 18 -9 29c0 21 12 39 36 54
c44 29 106 43 186 43c107 0 194 -33 260 -98c66 -66 99 -153 99 -262c0 -110 -33 -198 -99 -263c-66 -66 -155 -99 -267 -99c-80 0 -144 15 -193 44c-23 13 -34 31 -34 54c0 11 3 21 9 31c11 17 27 26 47 26z" />
    <glyph glyph-name="afii10048" unicode="&#x42e;" horiz-adv-x="1081" 
d="M337 299h-117v-246c0 -33 -28 -61 -61 -61c-35 0 -62 26 -62 61v591c0 35 27 61 62 61c33 0 61 -26 61 -61v-230h119c13 87 51 159 113 214c61 55 138 83 229 83c105 0 190 -33 256 -99c66 -67 99 -154 99 -262c0 -105 -33 -192 -99 -259c-67 -68 -152 -102 -256 -102
c-90 0 -167 28 -231 85c-65 57 -102 132 -113 225zM464 350c0 -69 21 -128 64 -175s95 -71 157 -71c71 0 125 23 164 69c38 46 57 105 57 177c0 73 -20 132 -61 178c-41 45 -94 68 -160 68c-63 0 -116 -23 -158 -69s-63 -105 -63 -177z" />
    <glyph glyph-name="afii10049" unicode="&#x42f;" horiz-adv-x="612" 
d="M515 639v-586c0 -33 -26 -61 -61 -61s-61 28 -61 61v189h-101l-143 -219c-13 -21 -31 -31 -52 -31c-35 0 -58 24 -58 53c0 12 4 24 12 36l125 186c-72 36 -123 103 -123 194c0 70 24 128 72 174c48 45 120 68 216 68c22 0 60 -1 113 -2c35 -1 61 -29 61 -62zM281 357h112
v228c-34 2 -60 3 -77 3c-80 0 -133 -48 -133 -119c0 -60 43 -101 98 -112z" />
    <glyph glyph-name="afii10065" unicode="&#x430;" horiz-adv-x="463" 
d="M35 132c0 95 68 146 164 146c41 0 75 -10 102 -29v14c0 69 -23 102 -84 102c-25 0 -49 -3 -70 -10c-11 -3 -18 -4 -23 -4c-18 0 -31 8 -39 24c-3 6 -4 12 -4 19c0 19 11 34 33 43c37 16 75 24 115 24c128 0 180 -63 180 -187v-229c0 -27 -22 -51 -51 -51s-49 22 -49 54
c-29 -36 -73 -54 -133 -54c-84 0 -141 53 -141 138zM301 132v46c-19 15 -46 22 -79 22c-41 0 -72 -20 -72 -56c0 -33 27 -53 64 -53c39 0 68 14 87 41z" />
    <glyph glyph-name="afii10066" unicode="&#x431;" horiz-adv-x="544" 
d="M512 221c0 -65 -22 -119 -66 -164s-101 -68 -170 -68c-75 0 -135 26 -178 77c-44 51 -66 121 -66 208c0 193 57 313 170 362c24 10 54 19 89 26s60 13 74 20c21 9 39 14 54 14c18 0 32 -6 41 -18c9 -13 14 -25 14 -36c0 -20 -10 -37 -30 -52c-23 -17 -57 -30 -101 -37
c-45 -7 -78 -16 -99 -27c-57 -26 -89 -82 -96 -168c29 49 94 84 159 84c124 0 205 -86 205 -221zM155 250c1 -89 47 -154 118 -154s116 52 116 120c0 69 -40 119 -111 119c-61 0 -107 -36 -123 -85z" />
    <glyph glyph-name="afii10067" unicode="&#x432;" horiz-adv-x="502" 
d="M445 337c0 -52 -37 -93 -84 -101c64 -16 96 -51 96 -105c0 -91 -71 -136 -214 -136c-29 0 -70 1 -123 4c-32 1 -56 26 -56 58v337c0 31 25 57 56 58c70 2 110 3 121 3c136 0 204 -39 204 -118zM251 191h-72v-100c45 -3 71 -4 76 -4c51 0 81 20 81 52c0 35 -28 52 -85 52z
M179 360v-99h75c40 0 69 19 69 52s-24 49 -72 49c-32 0 -56 -1 -72 -2z" />
    <glyph glyph-name="afii10068" unicode="&#x433;" horiz-adv-x="374" 
d="M310 342h-131v-294c0 -31 -25 -56 -57 -56c-33 0 -58 25 -58 56v346c0 31 25 56 56 56h190c31 0 56 -25 56 -54s-25 -54 -56 -54z" />
    <glyph glyph-name="afii10069" unicode="&#x434;" horiz-adv-x="554" 
d="M436 0h-319v-51c0 -29 -25 -54 -53 -54c-29 0 -54 25 -54 54v104c0 29 25 54 56 54c36 46 57 124 64 235l3 54c1 29 27 54 58 54h224c29 0 54 -25 54 -54v-289h21c29 0 54 -25 54 -54v-104c0 -29 -25 -54 -54 -54s-54 25 -54 54v51zM187 107h167v235h-110l-3 -46
c-8 -87 -26 -150 -54 -189z" />
    <glyph glyph-name="afii10070" unicode="&#x435;" horiz-adv-x="523" 
d="M372 267v2c0 56 -39 96 -103 96c-65 0 -105 -33 -118 -98h221zM442 190h-287c9 -67 63 -105 135 -105c31 0 59 6 84 17c11 5 19 7 26 7c15 0 27 -7 36 -21c5 -8 7 -15 7 -22c0 -17 -8 -30 -23 -39c-43 -25 -90 -38 -142 -38c-73 0 -131 22 -175 65
c-45 43 -67 100 -67 171c0 67 22 124 65 169s101 67 173 67c59 0 110 -19 151 -58s62 -90 62 -151v-21c-3 -27 -18 -41 -45 -41z" />
    <glyph glyph-name="afii10072" unicode="&#x436;" horiz-adv-x="674" 
d="M617 370l-94 -138l106 -153c7 -9 10 -20 10 -33c0 -29 -21 -54 -53 -54c-23 0 -41 11 -54 32l-113 176c-12 20 -12 44 0 64l100 161c13 21 31 32 56 32c32 0 53 -24 53 -53c0 -13 -4 -25 -11 -34zM393 401v-353c0 -31 -25 -56 -57 -56c-33 0 -58 25 -58 56v353
c0 31 25 56 58 56c32 0 57 -25 57 -56zM253 199l-110 -174c-14 -22 -33 -33 -56 -33c-32 0 -52 25 -52 54c0 13 3 25 10 34l104 152l-93 135c-7 9 -10 20 -10 33c0 31 22 57 57 57c21 0 39 -11 52 -33l98 -159c6 -10 9 -21 9 -34c0 -11 -3 -22 -9 -32z" />
    <glyph glyph-name="afii10073" unicode="&#x437;" horiz-adv-x="458" 
d="M221 461c117 0 180 -48 180 -128c0 -44 -31 -82 -83 -101c61 -13 95 -54 95 -107c0 -84 -81 -136 -204 -136c-71 0 -115 11 -163 48c-12 9 -18 21 -18 36c0 11 4 21 11 30c10 11 22 17 36 17c12 0 23 -3 32 -10c33 -19 63 -29 92 -29c59 0 92 22 92 55
c0 31 -25 51 -68 51h-47c-23 0 -37 18 -37 39c0 20 14 38 37 38h42c36 0 60 24 60 55c0 33 -26 49 -79 49c-26 0 -56 -9 -89 -26c-7 -3 -15 -5 -24 -5c-17 0 -29 6 -37 19c-5 7 -7 15 -7 24c0 19 8 32 23 39c51 28 103 42 156 42z" />
    <glyph glyph-name="afii10074" unicode="&#x438;" horiz-adv-x="568" 
d="M504 395v-347c0 -31 -25 -56 -57 -56c-33 0 -58 25 -58 56v232l-187 -245c-22 -29 -46 -43 -73 -43c-39 0 -65 28 -65 65v344c0 31 25 56 58 56c32 0 57 -25 57 -56v-232l187 245c21 29 45 43 72 43c40 0 66 -26 66 -62z" />
    <glyph glyph-name="afii10075" unicode="&#x439;" horiz-adv-x="568" 
d="M504 395v-347c0 -31 -25 -56 -57 -56c-33 0 -58 25 -58 56v232l-187 -245c-22 -29 -46 -43 -73 -43c-39 0 -65 28 -65 65v344c0 31 25 56 58 56c32 0 57 -25 57 -56v-232l187 245c21 29 45 43 72 43c40 0 66 -26 66 -62zM388 710c33 0 53 -22 53 -54
c0 -80 -56 -136 -153 -136c-107 0 -157 53 -157 136c0 33 18 54 50 54c35 0 55 -21 55 -54c0 -31 16 -54 52 -54c32 0 48 23 48 54c0 36 17 54 52 54z" />
    <glyph glyph-name="afii10076" unicode="&#x43a;" horiz-adv-x="495" 
d="M343 22l-136 175c-15 19 -14 44 -1 61l121 168c15 21 34 31 56 31c32 0 53 -24 53 -52c0 -15 -4 -27 -13 -38l-106 -131l122 -148c10 -12 15 -26 15 -42c0 -31 -21 -54 -58 -54c-20 0 -38 10 -53 30zM179 401v-353c0 -31 -25 -56 -57 -56c-33 0 -58 25 -58 56v353
c0 31 25 56 58 56c32 0 57 -25 57 -56z" />
    <glyph glyph-name="afii10077" unicode="&#x43b;" horiz-adv-x="529" 
d="M465 394v-346c0 -31 -25 -56 -57 -56c-33 0 -58 25 -58 56v287h-119l-3 -48c-17 -204 -64 -295 -148 -295c-36 0 -61 21 -61 57c0 25 13 45 39 62c35 23 54 75 59 199l4 84c3 31 28 56 59 56h229c31 0 56 -25 56 -56z" />
    <glyph glyph-name="afii10078" unicode="&#x43c;" horiz-adv-x="631" 
d="M277 153l-98 118v-223c0 -31 -25 -56 -57 -56c-33 0 -58 25 -58 56v346c0 37 25 63 61 63c22 0 44 -14 67 -41l129 -158l122 158c21 27 42 41 65 41c37 0 59 -24 59 -56v-353c0 -31 -25 -56 -57 -56c-33 0 -58 25 -58 56v223l-94 -118c-11 -14 -24 -21 -40 -21
c-15 0 -29 7 -41 21z" />
    <glyph glyph-name="afii10079" unicode="&#x43d;" horiz-adv-x="555" 
d="M491 401v-353c0 -31 -25 -56 -57 -56c-33 0 -58 25 -58 56v124h-197v-124c0 -31 -25 -56 -57 -56c-33 0 -58 25 -58 56v353c0 31 25 56 58 56c32 0 57 -25 57 -56v-121h197v121c0 31 25 56 58 56c32 0 57 -25 57 -56z" />
    <glyph glyph-name="afii10080" unicode="&#x43e;" horiz-adv-x="562" 
d="M104 56c-45 44 -68 100 -68 169s23 125 68 170c45 44 104 66 177 66s133 -22 178 -66c45 -45 67 -101 67 -170s-22 -125 -67 -169c-45 -45 -105 -67 -178 -67s-132 22 -177 67zM159 225c0 -75 51 -129 122 -129c72 0 123 52 123 129c0 75 -52 128 -123 128
c-69 0 -122 -52 -122 -128z" />
    <glyph glyph-name="afii10081" unicode="&#x43f;" horiz-adv-x="550" 
d="M486 394v-346c0 -31 -25 -56 -57 -56c-33 0 -58 25 -58 56v294h-192v-294c0 -31 -25 -56 -57 -56c-33 0 -58 25 -58 56v346c0 31 25 56 56 56h310c31 0 56 -25 56 -56z" />
    <glyph glyph-name="afii10082" unicode="&#x440;" horiz-adv-x="558" 
d="M179 304v-182c27 -17 58 -26 95 -26c77 0 126 56 126 133c0 73 -43 124 -118 124c-39 0 -74 -16 -103 -49zM64 -144v536c0 41 23 65 59 65c32 0 56 -21 56 -49c29 31 83 53 139 53c61 0 111 -21 148 -64s56 -98 56 -165c0 -70 -22 -128 -66 -174s-101 -69 -172 -69
c-45 0 -80 7 -105 22v-155c0 -31 -25 -56 -57 -56c-33 0 -58 25 -58 56z" />
    <glyph glyph-name="afii10083" unicode="&#x441;" horiz-adv-x="476" 
d="M351 341c-22 8 -44 12 -67 12c-33 0 -62 -12 -87 -35c-25 -24 -38 -55 -38 -93c0 -77 59 -129 130 -129c29 0 53 6 74 18c13 8 26 12 40 12c15 0 29 -7 40 -21c7 -9 10 -19 10 -30c0 -18 -8 -33 -24 -45c-37 -27 -86 -41 -146 -41c-75 0 -134 22 -179 65s-68 100 -68 171
c0 67 22 123 66 168s100 68 167 68c53 0 95 -8 127 -24c24 -11 36 -27 36 -48c0 -6 -2 -14 -7 -25c-10 -19 -25 -29 -46 -29c-9 0 -18 2 -28 6z" />
    <glyph glyph-name="afii10084" unicode="&#x442;" horiz-adv-x="444" 
d="M280 335v-287c0 -31 -25 -56 -57 -56c-33 0 -58 25 -58 56v287h-92c-31 0 -56 25 -56 58c0 32 25 57 56 57h298c31 0 56 -25 56 -57c0 -33 -25 -58 -56 -58h-91z" />
    <glyph glyph-name="afii10085" unicode="&#x443;" horiz-adv-x="485" 
d="M146 415l90 -211c4 -10 11 -32 22 -65c5 29 11 51 16 66l69 209c9 29 29 43 58 43c37 0 60 -23 60 -55c0 -9 -2 -20 -6 -31l-146 -371c-31 -80 -59 -133 -84 -160s-55 -40 -90 -40c-23 0 -43 4 -59 11c-21 9 -32 26 -32 49c0 27 16 48 47 48c8 0 25 -2 32 -2h6
c23 1 44 24 62 70l10 24l-170 367c-5 11 -7 20 -7 29c0 33 25 61 68 61c23 0 43 -18 54 -42z" />
    <glyph glyph-name="afii10086" unicode="&#x444;" horiz-adv-x="687" 
d="M402 -11v-133c0 -31 -26 -56 -58 -56c-33 0 -59 25 -59 56v133c-78 0 -139 22 -183 66s-66 101 -66 170c0 65 22 120 67 167c45 46 105 69 182 69v183c0 31 26 56 59 56c32 0 58 -25 58 -56v-183c77 0 138 -22 183 -67c44 -45 66 -101 66 -169c0 -140 -88 -236 -249 -236
zM402 353v-257c83 0 126 50 126 129c0 72 -45 128 -126 128zM285 96v257c-84 0 -126 -53 -126 -128c0 -79 43 -129 126 -129z" />
    <glyph glyph-name="afii10087" unicode="&#x445;" horiz-adv-x="478" 
d="M164 425l79 -124l82 124c15 21 32 32 53 32c33 0 53 -22 53 -50c0 -12 -4 -23 -11 -34l-96 -138l103 -152c7 -11 11 -23 11 -36c0 -31 -22 -55 -55 -55c-22 0 -40 11 -55 32l-89 138l-93 -138c-15 -21 -33 -32 -54 -32c-33 0 -52 22 -52 50c0 12 4 24 11 35l106 152
l-93 137c-7 11 -10 22 -10 35c0 31 22 56 58 56c21 0 39 -11 52 -32z" />
    <glyph glyph-name="afii10088" unicode="&#x446;" horiz-adv-x="566" 
d="M554 51v-103c0 -31 -25 -53 -54 -53s-54 22 -54 53v52h-326c-31 0 -56 25 -56 56v345c0 31 25 56 58 56c32 0 57 -25 57 -56v-294h185v294c0 31 25 56 58 56c32 0 57 -25 57 -56v-294h19c31 0 56 -25 56 -56z" />
    <glyph glyph-name="afii10089" unicode="&#x447;" horiz-adv-x="491" 
d="M312 255v146c0 31 25 56 58 56c32 0 57 -25 57 -56v-353c0 -31 -25 -56 -57 -56c-33 0 -58 25 -58 56v107c-33 -17 -70 -26 -112 -26c-113 0 -163 60 -163 177v93c0 33 26 58 62 58s61 -23 61 -58v-79c0 -55 24 -83 73 -83c32 0 58 6 79 18z" />
    <glyph glyph-name="afii10090" unicode="&#x448;" horiz-adv-x="728" 
d="M664 401v-345c0 -31 -25 -56 -56 -56h-488c-31 0 -56 25 -56 56v345c0 31 25 56 58 56c32 0 57 -25 57 -56v-294h127v294c0 31 25 56 58 56c32 0 57 -25 57 -56v-294h128v294c0 31 25 56 58 56c32 0 57 -25 57 -56z" />
    <glyph glyph-name="afii10091" unicode="&#x449;" horiz-adv-x="751" 
d="M739 51v-103c0 -31 -25 -53 -54 -53s-54 22 -54 53v52h-511c-31 0 -56 25 -56 56v345c0 31 25 56 58 56c32 0 57 -25 57 -56v-294h127v294c0 31 25 56 58 56c32 0 57 -25 57 -56v-294h128v294c0 31 25 56 58 56c32 0 57 -25 57 -56v-294h19c31 0 56 -25 56 -56z" />
    <glyph glyph-name="afii10092" unicode="&#x44a;" horiz-adv-x="536" 
d="M301 0h-113c-31 0 -56 25 -56 56v286h-61c-31 0 -56 25 -56 54s25 54 56 54h120c31 0 56 -25 56 -56v-67h63c141 0 198 -65 198 -156c0 -97 -64 -171 -207 -171zM247 235v-135h52c57 0 86 22 86 67s-28 68 -85 68h-53z" />
    <glyph glyph-name="afii10093" unicode="&#x44b;" horiz-adv-x="676" 
d="M179 401v-74h56c141 0 198 -65 198 -156c0 -97 -64 -171 -207 -171h-106c-31 0 -56 25 -56 56v345c0 31 25 56 58 56c32 0 57 -25 57 -56zM612 401v-353c0 -31 -25 -56 -57 -56c-33 0 -58 25 -58 56v353c0 31 25 56 58 56c32 0 57 -25 57 -56zM179 235v-135h45
c58 0 87 22 87 67s-29 68 -86 68h-46z" />
    <glyph glyph-name="afii10094" unicode="&#x44c;" horiz-adv-x="467" 
d="M179 401v-74h62c141 0 198 -65 198 -156c0 -97 -64 -171 -207 -171h-112c-31 0 -56 25 -56 56v345c0 31 25 56 58 56c32 0 57 -25 57 -56zM179 235v-135h51c58 0 87 22 87 67s-29 68 -86 68h-52z" />
    <glyph glyph-name="afii10095" unicode="&#x44d;" horiz-adv-x="475" 
d="M76 118c9 0 20 -3 32 -8c29 -14 59 -21 90 -21c69 0 116 35 128 100h-156c-29 0 -44 16 -44 39c0 20 15 38 44 38h155c-15 63 -65 95 -129 95c-31 0 -62 -7 -93 -22c-8 -4 -17 -6 -26 -6c-18 0 -31 7 -40 22c-5 7 -7 15 -7 23c0 18 9 32 28 43c44 27 91 40 142 40
c74 0 133 -21 178 -64s67 -100 67 -172c0 -68 -21 -124 -64 -169s-102 -67 -176 -67c-60 0 -111 14 -153 42c-14 10 -21 24 -21 41c0 11 3 20 8 27c9 13 21 19 37 19z" />
    <glyph glyph-name="afii10096" unicode="&#x44e;" horiz-adv-x="772" 
d="M264 172h-78v-121c0 -32 -28 -59 -61 -59s-61 27 -61 59v347c0 32 28 59 61 59s61 -27 61 -59v-111h80c24 105 109 174 228 174c72 0 130 -22 175 -66c45 -45 67 -101 67 -170c0 -68 -22 -124 -67 -169s-104 -67 -175 -67c-123 0 -209 72 -230 183zM389 225
c0 -75 44 -121 108 -121c65 0 109 46 109 121s-42 121 -109 121c-64 0 -108 -48 -108 -121z" />
    <glyph glyph-name="afii10097" unicode="&#x44f;" horiz-adv-x="475" 
d="M68 81l59 79c-45 16 -87 62 -87 130c0 95 71 160 224 160h91c31 0 56 -25 56 -56v-346c0 -31 -25 -56 -57 -56c-33 0 -58 25 -58 56v87h-64l-78 -113c-14 -20 -31 -30 -51 -30c-31 0 -51 20 -51 47c0 15 5 29 16 42zM236 220h60v130h-51c-52 0 -82 -31 -82 -68
c0 -36 36 -62 73 -62z" />
    <glyph glyph-name="afii10071" unicode="&#x451;" horiz-adv-x="523" 
d="M372 267v2c0 56 -39 96 -103 96c-65 0 -105 -33 -118 -98h221zM442 190h-287c9 -67 63 -105 135 -105c31 0 59 6 84 17c11 5 19 7 26 7c15 0 27 -7 36 -21c5 -8 7 -15 7 -22c0 -17 -8 -30 -23 -39c-43 -25 -90 -38 -142 -38c-73 0 -131 22 -175 65
c-45 43 -67 100 -67 171c0 67 22 124 65 169s101 67 173 67c59 0 110 -19 151 -58s62 -90 62 -151v-21c-3 -27 -18 -41 -45 -41zM174 532c-36 0 -65 26 -65 67c0 39 29 64 65 64c32 0 60 -25 60 -64c0 -41 -28 -67 -60 -67zM372 532c-36 0 -64 26 -64 67c0 39 28 64 64 64
c32 0 60 -25 60 -64c0 -41 -27 -67 -60 -67z" />
    <glyph glyph-name="afii10099" unicode="&#x452;" horiz-adv-x="590" 
d="M52 525h73v130c0 31 25 56 58 56c32 0 57 -25 57 -56v-130h113c25 0 45 -21 45 -46c0 -27 -20 -47 -45 -47h-113v-118c34 33 77 49 129 49c116 0 185 -61 185 -193c0 -157 -54 -269 -177 -384c-20 -17 -49 -17 -66 0c-8 8 -12 18 -12 29c0 13 5 26 16 38
c48 49 81 95 98 137c17 43 25 93 25 152c0 75 -33 113 -98 113c-39 0 -73 -14 -100 -41v-166c0 -31 -25 -56 -57 -56c-33 0 -58 25 -58 56v384h-73c-25 0 -45 20 -45 47c0 25 20 46 45 46z" />
    <glyph glyph-name="afii10100" unicode="&#x453;" horiz-adv-x="374" 
d="M310 342h-131v-294c0 -31 -25 -56 -57 -56c-33 0 -58 25 -58 56v346c0 31 25 56 56 56h190c31 0 56 -25 56 -54s-25 -54 -56 -54zM188 600l61 95c7 11 18 17 32 17c9 0 16 -2 23 -7l24 -18c10 -7 15 -17 15 -31c0 -10 -3 -18 -9 -25l-72 -83c-9 -10 -20 -15 -34 -15
c-9 0 -18 3 -27 8c-13 9 -19 21 -19 37c0 8 2 15 6 22z" />
    <glyph glyph-name="afii10101" unicode="&#x454;" horiz-adv-x="487" 
d="M283 89c31 0 61 7 90 21c12 5 23 8 32 8c16 0 28 -6 37 -19c5 -7 8 -16 8 -27c0 -17 -7 -31 -21 -41c-42 -28 -93 -42 -153 -42c-74 0 -132 22 -175 67s-65 101 -65 169c0 72 22 129 67 172s104 64 178 64c51 0 98 -13 142 -40c19 -11 28 -25 28 -43c0 -8 -2 -16 -7 -23
c-9 -15 -22 -22 -40 -22c-9 0 -18 2 -26 6c-31 15 -62 22 -93 22c-64 0 -114 -32 -129 -95h155c29 0 44 -18 44 -38c0 -23 -15 -39 -44 -39h-156c12 -65 59 -100 128 -100z" />
    <glyph glyph-name="afii10102" unicode="&#x455;" horiz-adv-x="424" 
d="M34 79c0 11 3 21 10 28c10 12 22 18 36 18c11 0 22 -4 33 -11c31 -19 65 -29 104 -29c35 0 59 15 59 42s-38 42 -85 55c-70 18 -158 44 -158 142c0 85 69 137 165 137c53 0 98 -11 137 -34c16 -10 24 -23 24 -39c0 -8 -2 -16 -6 -23c-9 -15 -22 -23 -40 -23
c-9 0 -18 2 -27 6c-26 11 -53 17 -82 17c-33 0 -56 -18 -56 -39c0 -42 87 -52 157 -77c48 -17 86 -57 86 -116c0 -88 -71 -144 -182 -144c-63 0 -115 17 -156 51c-13 11 -19 24 -19 39z" />
    <glyph glyph-name="afii10103" unicode="&#x456;" horiz-adv-x="277" 
d="M196 401v-353c0 -31 -25 -56 -57 -56c-33 0 -58 25 -58 56v353c0 31 25 56 58 56c32 0 57 -25 57 -56zM141 679c35 0 66 -27 66 -67c0 -44 -31 -72 -66 -72c-41 0 -72 28 -72 72c0 40 32 67 72 67z" />
    <glyph glyph-name="afii10104" unicode="&#x457;" horiz-adv-x="315" 
d="M25 597c0 35 26 56 59 56c28 0 54 -23 54 -56c0 -36 -25 -59 -54 -59c-35 0 -59 22 -59 59zM177 597c0 33 26 56 59 56c29 0 54 -23 54 -56c0 -36 -25 -59 -54 -59c-33 0 -59 23 -59 59zM213 401v-353c0 -31 -25 -56 -57 -56c-33 0 -58 25 -58 56v353c0 31 25 56 58 56
c32 0 57 -25 57 -56z" />
    <glyph glyph-name="afii10105" unicode="&#x458;" horiz-adv-x="296" 
d="M99 -23v424c0 31 25 56 58 56c32 0 57 -25 57 -56v-434c0 -117 -47 -175 -141 -175c-53 0 -96 19 -96 62c0 21 9 35 28 41c5 2 13 3 22 3h17c37 0 55 26 55 79zM160 679c35 0 66 -27 66 -67c0 -44 -31 -72 -66 -72c-41 0 -72 28 -72 72c0 40 32 67 72 67z" />
    <glyph glyph-name="afii10106" unicode="&#x459;" horiz-adv-x="724" 
d="M465 235v-135h31c57 0 86 22 86 67s-28 68 -85 68h-32zM117 310l4 84c3 31 28 56 59 56h229c31 0 56 -25 56 -56v-67h42c141 0 198 -65 198 -156c0 -97 -64 -171 -207 -171h-92c-31 0 -56 25 -56 56v279h-119l-3 -48c-13 -197 -62 -295 -148 -295c-36 0 -61 21 -61 57
c0 25 13 45 39 62c35 23 54 75 59 199z" />
    <glyph glyph-name="afii10107" unicode="&#x45a;" horiz-adv-x="759" 
d="M491 401v-79h42c141 0 198 -62 198 -153c0 -97 -64 -169 -207 -169h-92c-31 0 -56 25 -56 56v121h-197v-129c0 -31 -25 -56 -57 -56c-33 0 -58 25 -58 56v353c0 31 25 56 58 56c32 0 57 -25 57 -56v-116h197v116c0 31 25 56 58 56c32 0 57 -25 57 -56zM491 230v-130h31
c58 0 87 22 87 65s-29 65 -86 65h-32z" />
    <glyph glyph-name="afii10108" unicode="&#x45b;" horiz-adv-x="590" 
d="M125 48v384h-73c-25 0 -45 20 -45 47c0 25 20 46 45 46h73v119c0 31 25 56 58 56c32 0 57 -25 57 -56v-119h113c25 0 45 -21 45 -46c0 -27 -20 -47 -45 -47h-113v-118c34 33 77 49 129 49c116 0 185 -61 185 -197v-118c0 -31 -25 -56 -57 -56c-33 0 -58 25 -58 56v103
c0 67 -36 104 -99 104c-39 0 -73 -14 -100 -41v-166c0 -31 -25 -56 -57 -56c-33 0 -58 25 -58 56z" />
    <glyph glyph-name="afii10109" unicode="&#x45c;" horiz-adv-x="495" 
d="M343 22l-136 175c-15 19 -14 44 -1 61l121 168c15 21 34 31 56 31c32 0 53 -24 53 -52c0 -15 -4 -27 -13 -38l-106 -131l122 -148c10 -12 15 -26 15 -42c0 -31 -21 -54 -58 -54c-20 0 -38 10 -53 30zM179 401v-353c0 -31 -25 -56 -57 -56c-33 0 -58 25 -58 56v353
c0 31 25 56 58 56c32 0 57 -25 57 -56zM211 600l61 95c7 11 18 17 32 17c9 0 16 -2 23 -7l24 -18c10 -7 15 -17 15 -31c0 -10 -3 -18 -9 -25l-72 -83c-9 -10 -20 -15 -34 -15c-9 0 -18 3 -27 8c-13 9 -19 21 -19 37c0 8 2 15 6 22z" />
    <glyph glyph-name="afii10110" unicode="&#x45e;" horiz-adv-x="485" 
d="M146 415l90 -211c4 -10 11 -32 22 -65c5 29 11 51 16 66l69 209c9 29 29 43 58 43c37 0 60 -23 60 -55c0 -9 -2 -20 -6 -31l-146 -371c-31 -80 -59 -133 -84 -160s-55 -40 -90 -40c-23 0 -43 4 -59 11c-21 9 -32 26 -32 49c0 27 16 48 47 48c8 0 25 -2 32 -2h6
c23 1 44 24 62 70l10 24l-170 367c-5 11 -7 20 -7 29c0 33 25 61 68 61c23 0 43 -18 54 -42zM348 710c33 0 53 -22 53 -54c0 -80 -56 -136 -153 -136c-107 0 -157 53 -157 136c0 33 18 54 50 54c35 0 55 -21 55 -54c0 -31 16 -54 52 -54c32 0 48 23 48 54c0 36 17 54 52 54z
" />
    <glyph glyph-name="afii10193" unicode="&#x45f;" horiz-adv-x="540" 
d="M324 0v-65c0 -31 -25 -53 -54 -53s-54 22 -54 53v65h-96c-31 0 -56 25 -56 56v345c0 31 25 56 58 56c32 0 57 -25 57 -56v-294h182v294c0 31 25 56 58 56c32 0 57 -25 57 -56v-345c0 -31 -25 -56 -56 -56h-96z" />
    </font>
</defs>
</svg>
