<svg width="199" height="80" viewBox="0 0 199 80" fill="none" xmlns="http://www.w3.org/2000/svg">
<path d="M40.831 51.117L49.643 62.805H41.183L33.252 51.471H29.859V62.805H22.897V31.273H37.085C45.016 31.273 48.056 36.256 48.056 41.372C48.056 45.65 45.809 49.972 40.566 51.118H40.831V51.117ZM29.859 36.653V46.135H35.234C38.539 46.135 41.271 45.385 41.271 41.371C41.271 37.27 38.539 36.653 35.234 36.653H29.859Z" fill="#040406"/>
<path d="M54.709 31.272H61.627V62.759H54.709V31.272Z" fill="#040406"/>
<path d="M64.401 62.76L78.677 31.317H85.639L99.694 62.76H92.997L89.913 55.793H74.007L70.702 62.76H64.401ZM82.246 37.226L76.959 49.398H87.401L82.29 37.226H82.246Z" fill="#040406"/>
<path d="M109.16 41.018V62.804H103.123V31.184H111.055L125.11 50.853V31.184H130.971V62.804H125.11L109.16 41.018Z" fill="#040406"/>
<path d="M150.607 63.156C141.619 63.156 134.349 55.88 134.349 46.885C134.349 37.844 141.619 30.567 150.607 30.567C159.552 30.567 166.91 37.844 166.91 46.885C166.91 55.88 159.552 63.156 150.607 63.156ZM141.002 46.885C141.002 52.133 145.365 56.498 150.607 56.498C155.851 56.498 160.125 52.133 160.125 46.885C160.125 41.637 155.852 37.226 150.607 37.226C145.365 37.226 141.002 41.637 141.002 46.885Z" fill="#FFCE36"/>
<path d="M176.326 41.018V62.804H170.289V31.184H178.221L192.276 50.853V31.184H198.137V62.804H192.276L176.326 41.018Z" fill="#040406"/>
<path d="M47.726 78.667H14.898L11.443 74.256L8.98203 67.575L10.192 62.172L8.45401 56.687L5.992 54.844L3.24701 47.475L3.64102 38.894L2.14301 37.206L2.59201 35.971L1.047 35.637L3.388 29.167L5.63501 26.489L5.81302 23.944L4.591 22.518L4.14401 20.695L0 16.239V7.582L5.48102 0L12.45 8.043L12.255 14.321L19.266 12.762H48.716L53.606 18.477H75.619V20H52.913L48.023 14.286H19.425L10.666 16.219L10.908 8.549L5.586 2.45L1.52301 8.078V15.638L5.539 19.951L5.98602 21.804L7.38 23.423L7.12601 27.093L4.73602 29.945L3.08502 34.509L4.633 34.843L3.896 36.871L5.20102 38.342L4.793 47.233L7.27301 53.887L9.76801 55.756L11.779 62.105L10.578 67.474L12.8 73.505L15.646 77.143H46.91L49.607 73.144L50.879 73.995L47.726 78.667Z" fill="#040406"/>
<path d="M13.333 47.81H11.81V42.984L8.63699 35.147L5.54297 27.156L6.98499 26.598L10.047 34.576L13.333 42.681V47.81Z" fill="#040406"/>
<path d="M1.36801 16.611L0.630005 15.267L4.35501 13.22L7.76202 10.391L11.267 7.70898L12.198 8.92699L8.70502 11.599L5.22202 14.494L1.36801 16.611Z" fill="#040406"/>
<path d="M21.334 49.859L13.072 27.389L11.137 17.471L9.18997 20.977L7.28198 24.084L5.97498 23.282L7.87399 20.189L11.837 13.05L14.554 26.975L22.773 49.33L21.334 49.859Z" fill="#040406"/>
<path d="M4.92599 39.29L3.91699 38.135L6.52997 35.853L9.22198 34.362L13.089 27.404L16.544 17.143H33.073L41.402 23.81H56V25.334H40.861L32.532 18.667H17.646L14.497 28.021L10.349 35.487L7.41599 37.114L4.92599 39.29Z" fill="#040406"/>
<path d="M22.396 50.713L13.15 48.412L3.99597 48.112L4.04599 46.579L13.363 46.885L22.766 49.225L22.396 50.713Z" fill="#040406"/>
<path d="M23.1317 50.523L22.0226 49.4647L10.4294 61.6137L11.5385 62.672L23.1317 50.523Z" fill="#040406"/>
<path d="M12.785 74.175L11.457 73.406L14.203 68.663L21.869 49.682L23.291 50.256L15.5851 69.338L12.785 74.175Z" fill="#040406"/>
<path d="M30.356 73.334H19.228L14.487 70.196L9.40601 68.244L9.96701 66.839L15.207 68.825L19.699 71.81H29.781L35.724 66.667H60.762V68.191H36.298L30.356 73.334Z" fill="#040406"/>
<path d="M16.0402 77.7186L15.6619 68.9915L14.1293 69.0579L14.5075 77.785L16.0402 77.7186Z" fill="#040406"/>
<path d="M22.7899 50.7084L22.3837 49.2292L6.43614 53.6084L6.84234 55.0877L22.7899 50.7084Z" fill="#040406"/>
<path d="M7.907 35.01L3.69666 34.6453L3.56427 36.1736L7.77462 36.5383L7.907 35.01Z" fill="#040406"/>
<path d="M7.866 20.95L4.008 14.032L4.88702 1.18402L6.41602 1.28902L5.56802 13.682L9.20602 20.203L7.866 20.95Z" fill="#040406"/>
<path d="M7.77005 20.601L7.46405 11.111L4.91003 1.43198L6.39304 1.03998L8.99005 10.888L9.30304 20.552L7.77005 20.601Z" fill="#040406"/>
<path d="M23.619 14.477H22.096V75.811H23.619V14.477Z" fill="#040406"/>
<path d="M44.833 30.929L39.02 28.953H14.096V27.429H39.269L45.317 29.458L44.833 30.929Z" fill="#040406"/>
<path d="M9.61002 37.184C10.872 37.184 11.895 36.1609 11.895 34.899C11.895 33.637 10.872 32.614 9.61002 32.614C8.34805 32.614 7.32501 33.637 7.32501 34.899C7.32501 36.1609 8.34805 37.184 9.61002 37.184Z" fill="#FFCE36"/>
<path d="M13.817 29.715C15.079 29.715 16.102 28.6919 16.102 27.43C16.102 26.168 15.079 25.145 13.817 25.145C12.555 25.145 11.532 26.168 11.532 27.43C11.532 28.6919 12.555 29.715 13.817 29.715Z" fill="#FFCE36"/>
<path d="M45.812 32.164C47.074 32.164 48.097 31.1409 48.097 29.879C48.097 28.617 47.074 27.594 45.812 27.594C44.55 27.594 43.527 28.617 43.527 29.879C43.527 31.1409 44.55 32.164 45.812 32.164Z" fill="#FFCE36"/>
<path d="M8.55801 21.828C9.81998 21.828 10.843 20.8049 10.843 19.543C10.843 18.281 9.81998 17.258 8.55801 17.258C7.29604 17.258 6.27301 18.281 6.27301 19.543C6.27301 20.8049 7.29604 21.828 8.55801 21.828Z" fill="#FFCE36"/>
<path d="M12.555 49.595C13.817 49.595 14.84 48.5719 14.84 47.31C14.84 46.048 13.817 45.025 12.555 45.025C11.2931 45.025 10.27 46.048 10.27 47.31C10.27 48.5719 11.2931 49.595 12.555 49.595Z" fill="#FFCE36"/>
<path d="M14.6581 71.262C15.92 71.262 16.9431 70.2389 16.9431 68.977C16.9431 67.715 15.92 66.692 14.6581 66.692C13.3961 66.692 12.373 67.715 12.373 68.977C12.373 70.2389 13.3961 71.262 14.6581 71.262Z" fill="#FFCE36"/>
<path d="M22.898 80C24.1683 80 25.198 78.9702 25.198 77.7C25.198 76.4297 24.1683 75.4 22.898 75.4C21.6278 75.4 20.598 76.4297 20.598 77.7C20.598 78.9702 21.6278 80 22.898 80Z" fill="#FFCE36"/>
<path d="M22.898 15.778C24.1683 15.778 25.198 14.7482 25.198 13.478C25.198 12.2077 24.1683 11.178 22.898 11.178C21.6278 11.178 20.598 12.2077 20.598 13.478C20.598 14.7482 21.6278 15.778 22.898 15.778Z" fill="#FFCE36"/>
<path d="M56.559 26.994C57.821 26.994 58.844 25.971 58.844 24.709C58.844 23.447 57.821 22.424 56.559 22.424C55.2971 22.424 54.274 23.447 54.274 24.709C54.274 25.971 55.2971 26.994 56.559 26.994Z" fill="#FFCE36"/>
<path d="M76.314 21.525C77.576 21.525 78.599 20.5019 78.599 19.24C78.599 17.978 77.576 16.955 76.314 16.955C75.052 16.955 74.029 17.978 74.029 19.24C74.029 20.5019 75.052 21.525 76.314 21.525Z" fill="#FFCE36"/>
<path d="M50.688 75.049C51.95 75.049 52.973 74.0259 52.973 72.764C52.973 71.502 51.95 70.479 50.688 70.479C49.426 70.479 48.403 71.502 48.403 72.764C48.403 74.0259 49.426 75.049 50.688 75.049Z" fill="#FFCE36"/>
<path d="M60.841 69.714C62.1024 69.714 63.125 68.6914 63.125 67.43C63.125 66.1685 62.1024 65.146 60.841 65.146C59.5796 65.146 58.557 66.1685 58.557 67.43C58.557 68.6914 59.5796 69.714 60.841 69.714Z" fill="#FFCE36"/>
</svg>
