<?xml version="1.0" encoding="UTF-8"?>
<svg width="83px" height="63px" viewBox="0 0 83 63" version="1.1" xmlns="http://www.w3.org/2000/svg" xmlns:xlink="http://www.w3.org/1999/xlink">
    <!-- Generator: sketchtool 49.3 (51167) - http://www.bohemiancoding.com/sketch -->
    <title>E31A1CBF-DAB3-4E2E-963A-F93D9CEBECC7</title>
    <desc>Created with sketchtool.</desc>
    <defs></defs>
    <g id="Page-1" stroke="none" stroke-width="1" fill="none" fill-rule="evenodd">
        <g id="Alignment-TBG-Homepage-Copy" transform="translate(-1144.000000, -644.000000)">
            <g id="Branches" transform="translate(70.000000, 644.000000)">
                <g id="Group-17" transform="translate(1073.000000, 0.000000)">
                    <g id="Alignment-Media-Color-Dark-Bg">
                        <g id="Alignment-Media-Color-Bright-Bg">
                            <path d="M10.719625,4.916 L7.80197283,12.45392 L13.6372772,12.45392 L10.719625,4.916 Z M7.12286413,15.24944 L5.66307065,19.0184 L1.81575543,19.0184 L9.26079891,0.97232 L12.2036033,0.97232 L19.6486467,19.0184 L15.8003641,19.0184 L14.341538,15.24944 L7.12286413,15.24944 Z" id="Fill-3" fill="#423F39"></path>
                            <polygon id="Fill-4" fill="#423F39" points="22.0306543 1.084448 25.8034804 1.084448 25.8034804 15.960608 32.3691652 15.960608 32.3691652 18.905888 22.0306543 18.905888"></polygon>
                            <polygon id="Fill-5" fill="#423F39" points="34.7501087 19.01888 38.5229348 19.01888 38.5229348 1.19744 34.7501087 1.19744"></polygon>
                            <g id="Group-27" transform="translate(0.804348, 0.424640)">
                                <path d="M50.1942587,8.784672 L58.1171935,8.784672 L58.1171935,10.656672 C58.1171935,13.027872 57.6654217,14.974752 56.8354,16.172832 C55.5768239,17.969952 53.2376717,18.918432 49.9688565,18.918432 C46.8248348,18.918432 44.6607804,18.119712 43.000737,16.372512 C41.4413022,14.725152 40.7118891,12.628512 40.7118891,9.857952 C40.7118891,3.992352 44.2331935,0.447072 50.044313,0.447072 C52.7859,0.447072 54.9731717,1.096992 56.8605522,2.494752 L55.4771826,4.990752 C54.1944217,3.967392 52.3080087,3.368352 50.3712913,3.368352 C46.8490196,3.368352 44.6356283,5.814432 44.6356283,9.733152 C44.6356283,11.455392 45.0138783,12.853152 45.7674761,14.001312 C46.6990739,15.399072 47.9818348,15.998112 49.9940087,15.998112 C52.9116609,15.998112 54.3956391,14.725152 54.3956391,12.229152 L54.3956391,11.455392 L50.1942587,11.455392 L50.1942587,8.784672 Z" id="Fill-6" fill="#423F39"></path>
                                <polygon id="Fill-8" fill="#423F39" points="61.0348457 0.77232 63.7522478 0.77232 73.1581935 12.65328 73.1581935 0.77232 76.5788891 0.77232 76.5788891 18.8184 74.0646391 18.8184 64.4313565 6.38832 64.4313565 18.59376 61.0348457 18.59376"></polygon>
                                <polygon id="Fill-10" fill="#423F39" points="24.1361228 22.739808 37.6776663 22.739808 37.6776663 25.685088 27.8083402 25.685088 27.8083402 29.878368 36.8979489 29.878368 36.8979489 32.823648 27.8083402 32.823648 27.8083402 37.615968 37.7589272 37.615008 37.7589272 40.560288 24.1361228 40.561248"></polygon>
                                <polygon id="Fill-12" fill="#423F39" points="40.5514957 22.737984 43.2688978 22.737984 54.6096261 34.725504 54.6096261 22.737984 58.0303217 22.737984 57.8397457 40.593984 55.3245283 40.593984 43.9480065 28.460544 43.9480065 40.665984 40.5514957 40.665984"></polygon>
                                <polygon id="Fill-14" fill="#423F39" points="66.895012 25.684992 61.0345554 25.684032 61.0345554 22.738752 76.8146424 22.737792 76.8146424 25.683072 70.6939576 25.684992 70.6939576 40.562112 66.895012 40.562112"></polygon>
                                <polygon id="Fill-16" fill="#423F39" points="17.0317946 40.59408 17.0085772 29.87856 11.826262 38.51472 9.99112065 38.51472 4.834925 30.1032 4.83395761 40.59408 1.00985978 40.59408 1.06113152 22.74 4.43152283 22.74 10.971088 33.74736 17.5106533 22.74 20.8558924 22.74 20.854925 40.59408"></polygon>
                                <polygon id="Fill-18" fill="#E29C00" points="16.9042924 62.419104 16.8801076 51.935904 11.6977924 60.572064 9.86265109 60.572064 4.70645543 52.160544 4.70645543 62.419104 0.882357609 62.419104 0.882357609 44.947104 4.25274891 44.947104 10.8426185 55.804704 17.3318793 44.947104 20.6771185 44.947104 20.7274228 62.419104"></polygon>
                                <polygon id="Fill-20" fill="#E29C00" points="24.7520609 44.597184 37.758637 44.597184 37.758637 47.541504 28.4242783 47.542464 28.4242783 51.735744 36.5464957 51.735744 36.5464957 54.681024 28.4242783 54.681024 28.4242783 59.473344 37.758637 59.473344 37.758637 62.418624 24.7520609 62.418624"></polygon>
                                <path d="M46.1782304,59.47344 C48.1904043,59.47344 49.5989261,59.07408 50.5295565,58.22544 C51.0577522,57.70128 51.5859478,56.85264 51.9129261,55.92912 C52.1392957,55.33008 52.2399043,54.58128 52.2399043,53.508 C52.2399043,52.06032 52.0889913,51.28656 51.5607957,50.2632 C50.5798609,48.29136 49.0707304,47.54256 46.1782304,47.54256 L44.3421217,47.54256 L44.3421217,59.47344 L46.1782304,59.47344 Z M40.5944478,44.59728 L45.3482087,44.59728 C49.0455783,44.59728 51.1583609,45.09552 52.919013,46.36944 C55.0317957,47.86704 56.1384913,50.36304 56.1384913,53.508 C56.1384913,56.65296 55.0317957,59.14896 52.919013,60.64656 C51.1583609,61.91952 49.0455783,62.41872 45.3482087,62.41872 L40.5944478,62.41872 L40.5944478,44.59728 Z" id="Fill-22" fill="#E29C00"></path>
                                <polygon id="Fill-24" fill="#E29C00" points="59.1559783 62.41824 62.9288043 62.41824 62.9288043 44.5968 59.1559783 44.5968"></polygon>
                                <path d="M73.7952207,48.316224 L70.8766011,55.854144 L76.7138402,55.854144 L73.7952207,48.316224 Z M70.1984598,58.649664 L68.7386663,62.418624 L64.8913511,62.418624 L72.3363946,44.372544 L75.2791989,44.372544 L82.7242424,62.418624 L78.8759598,62.418624 L77.4171337,58.649664 L70.1984598,58.649664 Z" id="Fill-26" fill="#E29C00"></path>
                            </g>
                        </g>
                    </g>
                </g>
            </g>
        </g>
    </g>
</svg>