<?xml version="1.0" encoding="UTF-8"?>
<svg width="86px" height="83px" viewBox="0 0 86 83" version="1.1" xmlns="http://www.w3.org/2000/svg" xmlns:xlink="http://www.w3.org/1999/xlink">
    <!-- Generator: sketchtool 49.3 (51167) - http://www.bohemiancoding.com/sketch -->
    <title>40D85D96-B03E-4BB2-8F9F-C4F5B0767049</title>
    <desc>Created with sketchtool.</desc>
    <defs></defs>
    <g id="Symbols" stroke="none" stroke-width="1" fill="none" fill-rule="evenodd">
        <g id="Alignment-Color-Bright-Bg">
            <g>
                <polygon id="Fill-2" fill="#8B867C" points="63.6545 11.7885 63.6545 10.5595 85.4035 10.5595 85.4035 62.3885 0.9165 62.3875 0.9165 61.1585 84.1565 61.2145 84.1565 11.7015"></polygon>
                <polygon id="Fill-3" fill="#8B867C" points="64.6799 1.6708 63.2649 1.6708 63.2649 0.7268 67.3109 0.7268 67.3109 1.6708 65.8879 1.6708 65.8879 6.4358 64.6799 6.4358"></polygon>
                <polygon id="Fill-4" fill="#8B867C" points="71.9123 0.727 73.1123 0.727 73.1123 3.014 75.2703 3.014 75.2703 0.727 76.4703 0.727 76.4703 6.436 75.2703 6.436 75.2703 3.957 73.1123 3.957 73.1123 6.436 71.9123 6.436"></polygon>
                <polygon id="Fill-5" fill="#8B867C" points="81.6955 0.727 85.0785 0.727 85.0785 1.671 82.8635 1.671 82.8635 3.014 84.8305 3.014 84.8305 3.957 82.8635 3.957 82.8635 5.493 85.1815 5.493 85.1815 6.436 81.6955 6.436"></polygon>
                <path d="M10.1213,19.2875 L7.1053,27.1395 L13.1373,27.1395 L10.1213,19.2875 Z M6.4033,30.0515 L4.8943,33.9775 L0.9173,33.9775 L8.6133,15.1795 L11.6553,15.1795 L19.3513,33.9775 L15.3733,33.9775 L13.8653,30.0515 L6.4033,30.0515 Z" id="Fill-6" fill="#423F39"></path>
                <polygon id="Fill-7" fill="#423F39" points="21.8137 15.2963 25.7137 15.2963 25.7137 30.7923 32.5007 30.7923 32.5007 33.8603 21.8137 33.8603"></polygon>
                <polygon id="Fill-8" fill="#423F39" points="34.962 33.978 38.862 33.978 38.862 15.414 34.962 15.414"></polygon>
                <g id="Group-41" transform="translate(0.000000, 14.609000)">
                    <path d="M51.758,9.1507 L59.948,9.1507 L59.948,11.1007 C59.948,13.5707 59.481,15.5987 58.623,16.8467 C57.322,18.7187 54.904,19.7067 51.525,19.7067 C48.275,19.7067 46.038,18.8747 44.322,17.0547 C42.71,15.3387 41.956,13.1547 41.956,10.2687 C41.956,4.1587 45.596,0.4657 51.603,0.4657 C54.437,0.4657 56.698,1.1427 58.649,2.5987 L57.219,5.1987 C55.893,4.1327 53.943,3.5087 51.941,3.5087 C48.3,3.5087 46.012,6.0567 46.012,10.1387 C46.012,11.9327 46.403,13.3887 47.182,14.5847 C48.145,16.0407 49.471,16.6647 51.551,16.6647 C54.567,16.6647 56.101,15.3387 56.101,12.7387 L56.101,11.9327 L51.758,11.9327 L51.758,9.1507 Z" id="Fill-9" fill="#423F39"></path>
                    <polygon id="Fill-11" fill="#423F39" points="62.9641 0.8045 65.7731 0.8045 75.4961 13.1805 75.4961 0.8045 79.0321 0.8045 79.0321 19.6025 76.4331 19.6025 66.4751 6.6545 66.4751 19.3685 62.9641 19.3685"></polygon>
                    <path d="M2.843,56.7733 C3.282,56.7733 3.483,56.7333 3.634,56.6133 C3.754,56.5093 3.85,56.2703 3.85,56.0543 C3.85,55.7733 3.722,55.5183 3.53,55.4143 C3.378,55.3263 3.195,55.3023 2.811,55.3023 L2.187,55.3023 L2.187,56.7733 L2.843,56.7733 Z M2.803,54.4063 C3.162,54.4063 3.346,54.3663 3.483,54.2473 C3.618,54.1353 3.698,53.9513 3.698,53.7433 C3.698,53.5113 3.602,53.3033 3.435,53.1833 C3.33,53.1033 3.122,53.0633 2.803,53.0633 L2.187,53.0633 L2.187,54.4063 L2.803,54.4063 Z M0.916,52.0803 L2.786,52.0803 C3.498,52.0803 4.034,52.2003 4.354,52.4233 C4.714,52.6793 4.93,53.1353 4.93,53.6473 C4.93,54.1273 4.754,54.4623 4.346,54.7343 C4.657,54.9103 4.73,54.9663 4.85,55.1183 C5.081,55.4063 5.186,55.7343 5.186,56.1423 C5.186,56.7333 4.97,57.1973 4.57,57.4693 C4.226,57.7013 3.819,57.7893 3.042,57.7893 L0.916,57.7893 L0.916,52.0803 Z" id="Fill-13" fill="#8B867C"></path>
                    <polygon id="Fill-15" fill="#8B867C" points="9.8625 51.9036 11.2215 51.9036 11.2215 56.5496 13.2455 56.5496 13.2455 57.6126 9.8625 57.6126"></polygon>
                    <path d="M19.1623,54.9105 C19.1623,56.1255 19.7463,56.8295 20.7623,56.8295 C21.7533,56.8295 22.3453,56.1255 22.3453,54.9345 C22.3453,53.7435 21.7533,53.0395 20.7543,53.0395 C19.7623,53.0395 19.1623,53.7435 19.1623,54.9105 M23.7523,54.9345 C23.7523,56.7255 22.5683,57.8925 20.7623,57.8925 C18.9143,57.8925 17.7553,56.7335 17.7553,54.8945 C17.7553,54.1185 18.0193,53.3915 18.4823,52.8875 C19.0433,52.2805 19.7863,51.9755 20.7543,51.9755 C22.5763,51.9755 23.7523,53.1355 23.7523,54.9345" id="Fill-17" fill="#8B867C"></path>
                    <path d="M32.8967,57.3372 C32.5047,57.6722 31.8007,57.8572 30.9147,57.8572 C29.0507,57.8572 28.0837,56.8572 28.0837,54.9542 C28.0837,53.0192 29.1157,51.9402 30.9457,51.9402 C31.6497,51.9402 32.1937,52.0762 32.7057,52.3632 L32.2817,53.3232 C31.9687,53.1072 31.5777,53.0032 31.0897,53.0032 C30.0427,53.0032 29.4907,53.6752 29.4907,54.9302 C29.4907,55.4582 29.5867,55.8742 29.7867,56.2012 C30.0347,56.6092 30.4337,56.7932 31.0737,56.7932 C31.6817,56.7932 32.0737,56.6652 32.4897,56.3372 L32.8967,57.3372 Z" id="Fill-19" fill="#8B867C"></path>
                    <polygon id="Fill-21" fill="#8B867C" points="37.2053 52.0438 38.5633 52.0438 38.5633 54.4188 40.3543 52.0438 41.7783 52.0438 39.6913 54.6108 42.0103 57.7528 40.3943 57.7528 38.5633 54.9858 38.5633 57.7528 37.2053 57.7528"></polygon>
                    <path d="M50.3449,57.3734 C49.9529,57.7084 49.2499,57.8934 48.3629,57.8934 C46.4989,57.8934 45.5319,56.8934 45.5319,54.9904 C45.5319,53.0554 46.5629,51.9764 48.3939,51.9764 C49.0979,51.9764 49.6419,52.1124 50.1539,52.3994 L49.7299,53.3594 C49.4169,53.1434 49.0259,53.0394 48.5379,53.0394 C47.4909,53.0394 46.9389,53.7114 46.9389,54.9664 C46.9389,55.4944 47.0349,55.9104 47.2349,56.2374 C47.4829,56.6454 47.8819,56.8294 48.5219,56.8294 C49.1299,56.8294 49.5219,56.7014 49.9379,56.3734 L50.3449,57.3734 Z" id="Fill-23" fill="#8B867C"></path>
                    <polygon id="Fill-25" fill="#8B867C" points="54.7404 52.0799 56.0994 52.0799 56.0994 54.3189 58.0274 54.3189 58.0274 52.0799 59.3864 52.0799 59.3864 57.7889 58.0274 57.7889 58.0274 55.3819 56.0994 55.3819 56.0994 57.7889 54.7404 57.7889"></polygon>
                    <path d="M66.5373,53.4075 L65.6823,55.6615 L67.3853,55.6615 L66.5373,53.4075 Z M65.4413,56.6695 L65.0173,57.7885 L63.6353,57.7885 L66.0013,52.0085 L67.0723,52.0085 L69.4323,57.7885 L68.0483,57.7885 L67.6243,56.6695 L65.4413,56.6695 Z" id="Fill-27" fill="#8B867C"></path>
                    <polygon id="Fill-29" fill="#8B867C" points="73.945 57.753 75.303 57.753 75.303 52.044 73.945 52.044"></polygon>
                    <polygon id="Fill-31" fill="#8B867C" points="80.0197 52.0799 81.0027 52.0799 83.8087 55.6539 83.8087 52.0799 85.0407 52.0799 85.0407 57.8609 84.1217 57.8609 81.2427 54.1029 81.2427 57.7889 80.0197 57.7889"></polygon>
                    <path d="M45.5461,64.5907 L48.1521,64.5907 L48.1521,65.2307 C48.1521,66.0457 48.0081,66.6697 47.7211,67.0527 C47.3131,67.6127 46.5691,67.9007 45.5291,67.9007 C44.5141,67.9007 43.8261,67.6537 43.2991,67.0927 C42.8031,66.5657 42.5791,65.9017 42.5791,64.9907 C42.5791,64.0547 42.8521,63.3117 43.3791,62.7677 C43.9141,62.2317 44.6101,61.9757 45.5461,61.9757 C46.4491,61.9757 47.1371,62.1837 47.7521,62.6317 L47.2651,63.5437 C46.8731,63.2237 46.2741,63.0317 45.6741,63.0317 C44.6261,63.0317 43.9861,63.7667 43.9861,64.9587 C43.9861,65.4697 44.0911,65.8937 44.2981,66.2377 C44.5631,66.6697 44.9301,66.8457 45.5461,66.8457 C46.3941,66.8457 46.8091,66.4937 46.8091,65.7817 L46.8091,65.5497 L45.5461,65.5497 L45.5461,64.5907 Z" id="Fill-32" fill="#8B867C"></path>
                    <path d="M54.8908,64.6224 C55.2828,64.6224 55.4818,64.5664 55.6098,64.4224 C55.7218,64.2944 55.8178,64.0394 55.8178,63.8634 C55.8178,63.6474 55.7058,63.3754 55.5778,63.2554 C55.4508,63.1434 55.2658,63.1034 54.9218,63.1034 L54.3148,63.1034 L54.3148,64.6224 L54.8908,64.6224 Z M54.3148,67.7894 L53.0118,67.7894 L53.0118,62.0804 L54.8818,62.0804 C55.6898,62.0804 56.1858,62.2004 56.5448,62.4724 C56.9378,62.7684 57.1538,63.2474 57.1538,63.8154 C57.1538,64.2784 56.9768,64.6784 56.6648,64.9344 C56.4338,65.1264 56.1378,65.2944 55.8978,65.3664 L57.5448,67.7894 L56.1138,67.7894 L54.6738,65.5904 L54.3148,65.5904 L54.3148,67.7894 Z" id="Fill-33" fill="#8B867C"></path>
                    <path d="M62.7014,64.9622 C62.7014,66.1772 63.2854,66.8812 64.3014,66.8812 C65.2924,66.8812 65.8844,66.1772 65.8844,64.9862 C65.8844,63.7952 65.2924,63.0912 64.2934,63.0912 C63.3014,63.0912 62.7014,63.7952 62.7014,64.9622 M67.2914,64.9862 C67.2914,66.7772 66.1074,67.9442 64.3014,67.9442 C62.4534,67.9442 61.2944,66.7852 61.2944,64.9462 C61.2944,64.1702 61.5584,63.4432 62.0214,62.9392 C62.5824,62.3322 63.3254,62.0272 64.2934,62.0272 C66.1154,62.0272 67.2914,63.1872 67.2914,64.9862" id="Fill-34" fill="#8B867C"></path>
                    <path d="M73.0178,62.0799 L73.0178,65.7499 C73.0178,66.1899 73.0578,66.3899 73.1698,66.5409 C73.3138,66.7259 73.5858,66.8299 73.9458,66.8299 C74.3368,66.8299 74.6248,66.7089 74.7528,66.4859 C74.8408,66.3499 74.8728,66.1499 74.8728,65.7499 L74.8728,62.0799 L76.2328,62.0799 L76.2328,65.2779 C76.2328,66.3019 76.1368,66.7659 75.8488,67.1419 C75.4648,67.6369 74.8178,67.8929 73.9458,67.8929 C73.0018,67.8929 72.3148,67.5889 71.9548,67.0209 C71.7388,66.6689 71.6588,66.1979 71.6588,65.2779 L71.6588,62.0799 L73.0178,62.0799 Z" id="Fill-35" fill="#8B867C"></path>
                    <path d="M82.7219,64.8582 C83.1379,64.8582 83.3379,64.8022 83.4819,64.6502 C83.6179,64.4982 83.6979,64.2662 83.6979,64.0102 C83.6979,63.7232 83.5939,63.4592 83.4339,63.3152 C83.2979,63.2032 83.0979,63.1552 82.7219,63.1552 L82.2099,63.1552 L82.2099,64.8582 L82.7219,64.8582 Z M82.2099,67.8402 L80.9069,67.8402 L80.9069,62.1312 L82.6979,62.1312 C83.5299,62.1312 84.0409,62.2592 84.4169,62.5552 C84.8169,62.8752 85.0399,63.3952 85.0399,64.0102 C85.0399,64.6822 84.7769,65.2422 84.3219,65.5452 C83.9859,65.7702 83.5049,65.8812 82.8979,65.8812 L82.2099,65.8812 L82.2099,67.8402 Z" id="Fill-36" fill="#8B867C"></path>
                    <polygon id="Fill-37" fill="#423F39" points="24.8215 23.6873 38.8195 23.6873 38.8195 26.7553 28.6175 26.7553 28.6175 31.1233 38.0135 31.1233 38.0135 34.1913 28.6175 34.1913 28.6175 39.1833 38.9035 39.1823 38.9035 42.2503 24.8215 42.2513"></polygon>
                    <polygon id="Fill-38" fill="#423F39" points="41.7902 23.6854 44.5992 23.6854 56.3222 36.1724 56.3222 23.6854 59.8582 23.6854 59.6612 42.2854 57.0612 42.2854 45.3012 29.6464 45.3012 42.3604 41.7902 42.3604"></polygon>
                    <polygon id="Fill-39" fill="#423F39" points="69.0217 26.7552 62.9637 26.7542 62.9637 23.6862 79.2757 23.6852 79.2757 26.7532 72.9487 26.7552 72.9487 42.2522 69.0217 42.2522"></polygon>
                    <polygon id="Fill-40" fill="#423F39" points="17.4777 42.2855 17.4537 31.1235 12.0967 40.1195 10.1997 40.1195 4.8697 31.3575 4.8687 42.2855 0.9157 42.2855 0.9687 23.6875 4.4527 23.6875 11.2127 35.1535 17.9727 23.6875 21.4307 23.6875 21.4297 42.2855"></polygon>
                </g>
            </g>
        </g>
    </g>
</svg>