<?xml version="1.0" encoding="UTF-8"?>
<svg width="166px" height="63px" viewBox="0 0 166 63" version="1.1" xmlns="http://www.w3.org/2000/svg" xmlns:xlink="http://www.w3.org/1999/xlink">
    <!-- Generator: sketchtool 49.3 (51167) - http://www.bohemiancoding.com/sketch -->
    <title>9E823FB3-BAA1-4679-81FE-7BCB8F3240A6</title>
    <desc>Created with sketchtool.</desc>
    <defs></defs>
    <g id="Page-1" stroke="none" stroke-width="1" fill="none" fill-rule="evenodd">
        <g id="Alignment-TBG-Homepage-Copy" transform="translate(-71.000000, -644.000000)">
            <g id="Branches" transform="translate(70.000000, 644.000000)">
                <g id="consulting">
                    <g id="Alignment-Consulting-Color-Dark-Bg">
                        <g id="Alignment-Consulting-Color-Bright-Bg">
                            <path d="M10.6141408,4.916 L7.71608492,12.45392 L13.5121966,12.45392 L10.6141408,4.916 Z M7.04153743,15.24944 L5.5915486,19.0184 L1.77007374,19.0184 L9.16511285,0.97232 L12.088152,0.97232 L19.4831911,19.0184 L15.6607553,19.0184 L14.2117274,15.24944 L7.04153743,15.24944 Z" id="Fill-3" fill="#423F39"></path>
                            <polygon id="Fill-4" fill="#423F39" points="21.8492961 1.084448 25.5967821 1.084448 25.5967821 15.960608 32.1183687 15.960608 32.1183687 18.905888 21.8492961 18.905888"></polygon>
                            <polygon id="Fill-5" fill="#423F39" points="34.4831285 19.01888 38.2306145 19.01888 38.2306145 1.19744 34.4831285 1.19744"></polygon>
                            <g id="Group-36" transform="translate(0.765363, 0.424640)">
                                <path d="M49.8572268,8.784672 L57.7269475,8.784672 L57.7269475,10.656672 C57.7269475,13.027872 57.2782101,14.974752 56.4537631,16.172832 C55.2036402,17.969952 52.8801989,18.918432 49.6333385,18.918432 C46.5104335,18.918432 44.360914,18.119712 42.7120201,16.372512 C41.1630592,14.725152 40.4385453,12.628512 40.4385453,9.857952 C40.4385453,3.992352 43.9361989,0.447072 49.7082883,0.447072 C52.4314615,0.447072 54.6040425,1.096992 56.4787464,2.494752 L55.1046682,4.990752 C53.8305229,3.967392 51.9567799,3.368352 50.0330704,3.368352 C46.5344559,3.368352 44.3359307,5.814432 44.3359307,9.733152 C44.3359307,11.455392 44.7116402,12.853152 45.4601765,14.001312 C46.3855173,15.399072 47.6596626,15.998112 49.6583218,15.998112 C52.5563777,15.998112 54.0303888,14.725152 54.0303888,12.229152 L54.0303888,11.455392 L49.8572268,11.455392 L49.8572268,8.784672 Z" id="Fill-6" fill="#423F39"></path>
                                <polygon id="Fill-8" fill="#423F39" points="60.6250994 0.77232 63.3242503 0.77232 72.6670212 12.65328 72.6670212 0.77232 76.0647419 0.77232 76.0647419 18.8184 73.5673788 18.8184 63.9987978 6.38832 63.9987978 18.59376 60.6250994 18.59376"></polygon>
                                <polygon id="Fill-10" fill="#423F39" points="23.9741095 22.739808 37.4247017 22.739808 37.4247017 25.685088 27.6216626 25.685088 27.6216626 29.878368 36.6502212 29.878368 36.6502212 32.823648 27.6216626 32.823648 27.6216626 37.615968 37.5054168 37.615008 37.5054168 40.560288 23.9741095 40.561248"></polygon>
                                <polygon id="Fill-12" fill="#423F39" points="40.2783642 22.737984 42.9775151 22.737984 54.2430346 34.725504 54.2420737 22.737984 57.6397944 22.737984 57.4514592 40.593984 54.9531352 40.593984 43.6530235 28.460544 43.6530235 40.665984 40.2793251 40.665984"></polygon>
                                <polygon id="Fill-14" fill="#B7915A" points="40.4022235 44.25504 43.1013743 44.25504 54.365933 56.24256 54.365933 44.25504 57.7636536 44.25504 57.5743575 62.11104 55.0760335 62.11104 43.7759218 49.9776 43.7759218 62.18304 40.4022235 62.18304"></polygon>
                                <polygon id="Fill-16" fill="#423F39" points="66.4458101 25.684992 60.6247151 25.684032 60.6247151 22.738752 76.2988156 22.737792 76.2988156 25.683072 70.2192402 25.684992 70.2192402 40.562112 66.4458101 40.562112"></polygon>
                                <polygon id="Fill-18" fill="#B7915A" points="109.501158 47.5128 103.680063 47.51184 103.680063 44.56656 119.354163 44.56656 119.354163 47.51184 113.274588 47.5128 113.274588 62.38992 109.501158 62.38992"></polygon>
                                <polygon id="Fill-20" fill="#423F39" points="16.9174972 40.59408 16.8944358 29.87856 11.7469274 38.51472 9.92411173 38.51472 4.80254749 30.1032 4.80158659 40.59408 1.00317318 40.59408 1.05410056 22.74 4.40185475 22.74 10.8974972 33.74736 17.3931397 22.74 20.7159106 22.74 20.7149497 40.59408"></polygon>
                                <path d="M15.7445341,60.857184 C14.5203553,61.880544 12.3208693,62.454624 9.62364022,62.454624 C3.92650056,62.454624 0.878545251,59.309664 0.878545251,53.369184 C0.878545251,47.403744 4.0764,43.983264 9.72261229,43.983264 C11.8971151,43.983264 13.644981,44.408544 15.1449363,45.332064 L13.9697631,47.952864 C12.9704335,47.277984 11.6962883,46.929504 10.1223441,46.929504 C6.64967374,46.929504 4.77593073,49.175904 4.77593073,53.319264 C4.77593073,55.066464 5.12569609,56.464224 5.80024358,57.562464 C6.64967374,58.885344 7.99876872,59.509344 10.0733385,59.509344 C11.9711039,59.509344 13.2711933,59.109984 14.5693609,58.086624 L15.7445341,60.857184 Z" id="Fill-22" fill="#B7915A"></path>
                                <path d="M22.3376112,53.144352 C22.3376112,57.137952 24.3602927,59.509152 27.7839575,59.509152 C31.1317117,59.509152 33.2062816,57.112992 33.2062816,53.219232 C33.2062816,49.325472 31.1317117,46.929312 27.7589743,46.929312 C24.4362034,46.929312 22.3376112,49.325472 22.3376112,53.144352 M37.0777229,53.219232 C37.0777229,58.785312 33.3802034,62.454432 27.8089408,62.454432 C22.0877788,62.454432 18.4652089,58.810272 18.4652089,53.094432 C18.4652089,50.648352 19.2896559,48.401952 20.7386838,46.804512 C22.4875106,44.932512 24.810952,43.984032 27.7589743,43.984032 C33.3802034,43.984032 37.0777229,47.653152 37.0777229,53.219232" id="Fill-24" fill="#B7915A"></path>
                                <path d="M62.1452335,57.987072 C63.3684514,58.960512 65.1682056,59.509632 67.1678257,59.509632 C69.4403397,59.509632 70.5895687,58.785792 70.5895687,57.338112 C70.5895687,56.664192 70.3147531,56.089152 69.790105,55.689792 C69.265457,55.316352 69.265457,55.316352 66.8170994,54.442752 C63.3684514,53.219712 61.8704179,51.547392 61.8704179,48.926592 C61.8704179,45.830592 64.0439598,43.983552 67.6415464,43.983552 C69.6402056,43.983552 71.2900603,44.407872 72.9379933,45.306432 L71.7387978,47.952192 C70.4396693,47.253312 69.2404737,46.928832 67.7914458,46.928832 C66.142552,46.928832 65.1682056,47.577792 65.1682056,48.676032 C65.1682056,49.226112 65.4680045,49.800192 65.942686,50.173632 C66.4673341,50.548032 66.8420827,50.723712 68.5659263,51.322752 C72.6381944,52.745472 74.0372559,54.193152 74.0372559,56.988672 C74.0372559,58.636032 73.4376581,60.183552 72.4892559,61.032192 C71.3890324,61.955712 69.6152223,62.454912 67.291781,62.454912 C64.6185743,62.454912 62.3700827,61.855872 60.9210547,60.757632 L62.1452335,57.987072 Z" id="Fill-26" fill="#B7915A"></path>
                                <path d="M80.3327441,44.307936 L80.3327441,55.715616 C80.3327441,57.213216 80.4576603,57.912096 80.8573922,58.461216 C81.357057,59.135136 82.3064201,59.509536 83.5805654,59.509536 C84.9556045,59.509536 85.9289899,59.085216 86.4036715,58.261536 C86.7034704,57.737376 86.8034034,57.063456 86.8034034,55.715616 L86.8034034,44.307936 L90.5518503,44.307936 L90.5518503,54.417696 C90.5518503,57.487776 90.2510905,58.960416 89.4016603,60.108576 C88.227448,61.656096 86.2537721,62.454816 83.5555821,62.454816 C80.6575263,62.454816 78.5589341,61.506336 77.4846547,59.709216 C76.8341296,58.635936 76.5852581,57.188256 76.5852581,54.417696 L76.5852581,44.307936 L80.3327441,44.307936 Z" id="Fill-28" fill="#B7915A"></path>
                                <polygon id="Fill-30" fill="#B7915A" points="94.3727486 44.307936 98.1202346 44.307936 98.1202346 59.185056 104.641821 59.185056 104.641821 62.130336 94.3727486 62.130336"></polygon>
                                <polygon id="Fill-32" fill="#B7915A" points="122.685966 62.13024 126.433453 62.13024 126.433453 44.30784 122.685966 44.30784"></polygon>
                                <polygon id="Fill-34" fill="#B7915A" points="130.25608 44.307936 132.955231 44.307936 142.298002 56.189856 142.298002 44.307936 145.695723 44.307936 145.695723 62.354976 143.19836 62.354976 133.628818 49.924896 133.628818 62.130336 130.25608 62.130336"></polygon>
                                <path d="M158.187727,52.320768 L166.056487,52.320768 L166.056487,54.192768 C166.056487,56.563968 165.60775,58.510848 164.782342,59.708928 C163.53318,61.506048 161.210699,62.454528 157.962878,62.454528 C154.839973,62.454528 152.690454,61.655808 151.04156,59.908608 C149.492599,58.261248 148.768085,56.164608 148.768085,53.394048 C148.768085,47.528448 152.265739,43.983168 158.037828,43.983168 C160.761001,43.983168 162.933582,44.633088 164.808286,46.030848 L163.434208,48.526848 C162.160063,47.502528 160.28632,46.903488 158.36261,46.903488 C154.863996,46.903488 152.66547,49.350528 152.66547,53.269248 C152.66547,54.991488 153.04118,56.389248 153.790677,57.537408 C154.715057,58.935168 155.988241,59.534208 157.986901,59.534208 C160.885917,59.534208 162.359928,58.261248 162.359928,55.765248 L162.359928,54.991488 L158.187727,54.991488 L158.187727,52.320768 Z" id="Fill-35" fill="#B7915A"></path>
                            </g>
                        </g>
                    </g>
                </g>
            </g>
        </g>
    </g>
</svg>