<?xml version="1.0" encoding="UTF-8"?>
<svg width="77px" height="64px" viewBox="0 0 77 64" version="1.1" xmlns="http://www.w3.org/2000/svg" xmlns:xlink="http://www.w3.org/1999/xlink">
    <!-- Generator: sketchtool 49.3 (51167) - http://www.bohemiancoding.com/sketch -->
    <title>F804876D-D58C-4A2D-88F3-D910CE4646B4</title>
    <desc>Created with sketchtool.</desc>
    <defs></defs>
    <g id="Page-1" stroke="none" stroke-width="1" fill="none" fill-rule="evenodd">
        <g id="Alignment-TBG-Homepage-Copy" transform="translate(-469.000000, -644.000000)">
            <g id="Branches" transform="translate(70.000000, 644.000000)">
                <g id="labs" transform="translate(399.000000, 0.000000)">
                    <g id="Alignment-Labs-Color-Dark-Bg">
                        <g id="Alignment-Labs-Color-Bright-Bg">
                            <path d="M9.68285,4.916 L6.7720593,12.45392 L12.5936407,12.45392 L9.68285,4.916 Z M6.09454767,15.24944 L4.63818721,19.0184 L0.799919767,19.0184 L8.22745465,0.97232 L11.1633384,0.97232 L18.5908733,19.0184 L14.7516407,19.0184 L13.2962453,15.24944 L6.09454767,15.24944 Z" id="Fill-3" fill="#423F39"></path>
                            <polygon id="Fill-4" fill="#423F39" points="20.9673756 1.084448 24.7313291 1.084448 24.7313291 15.960608 31.2815733 15.960608 31.2815733 18.905888 20.9673756 18.905888"></polygon>
                            <polygon id="Fill-5" fill="#423F39" points="33.657593 19.01888 37.4215465 19.01888 37.4215465 1.19744 33.657593 1.19744"></polygon>
                            <g id="Group-26" transform="translate(0.755814, 0.424640)">
                                <path d="M49.111293,8.784672 L57.0155953,8.784672 L57.0155953,10.656672 C57.0155953,13.027872 56.564886,14.974752 55.7368163,16.172832 C54.4812,17.969952 52.1475488,18.918432 48.8864209,18.918432 C45.749793,18.918432 43.5908279,18.119712 41.9346884,16.372512 C40.3789209,14.725152 39.6512233,12.628512 39.6512233,9.857952 C39.6512233,3.992352 43.1642465,0.447072 48.9617,0.447072 C51.6968395,0.447072 53.8789674,1.096992 55.7619093,2.494752 L54.381793,4.990752 C53.1020488,3.967392 51.2200721,3.368352 49.2879093,3.368352 C45.7739209,3.368352 43.5657349,5.814432 43.5657349,9.733152 C43.5657349,11.455392 43.9430953,12.853152 44.6949209,14.001312 C45.6243279,15.399072 46.9040721,15.998112 48.911514,15.998112 C51.8223047,15.998112 53.302793,14.725152 53.302793,12.229152 L53.302793,11.455392 L49.111293,11.455392 L49.111293,8.784672 Z" id="Fill-6" fill="#423F39"></path>
                                <polygon id="Fill-8" fill="#423F39" points="59.9264826 0.77232 62.6374942 0.77232 72.0213198 12.65328 72.0213198 0.77232 75.4339709 0.77232 75.4339709 18.8184 72.9256337 18.8184 63.3150058 6.38832 63.3150058 18.59376 59.9264826 18.59376"></polygon>
                                <polygon id="Fill-10" fill="#423F39" points="23.1144384 22.739808 36.624136 22.739808 36.624136 25.685088 26.7780198 25.685088 26.7780198 29.878368 35.8462523 29.878368 35.8462523 32.823648 26.7780198 32.823648 26.7780198 37.615968 36.7052058 37.615008 36.7052058 40.560288 23.1144384 40.561248"></polygon>
                                <polygon id="Fill-12" fill="#423F39" points="39.4903384 22.737984 42.20135 22.737984 53.5163733 34.725504 53.5154081 22.737984 56.9280593 22.737984 56.7388965 40.593984 54.2295942 40.593984 42.8798267 28.460544 42.8798267 40.665984 39.4913035 40.665984"></polygon>
                                <polygon id="Fill-14" fill="#423F39" points="65.7727709 25.684992 59.9260965 25.684032 59.9260965 22.738752 75.6690733 22.737792 75.6690733 25.683072 69.5627826 25.684992 69.5627826 40.562112 65.7727709 40.562112"></polygon>
                                <polygon id="Fill-16" fill="#423F39" points="16.0259488 40.59408 16.0037512 29.87856 10.8336233 38.51472 9.00279767 38.51472 3.85872791 30.1032 3.85679767 40.59408 0.0416930233 40.59408 0.0938093023 22.74 3.45627442 22.74 9.98046047 33.74736 16.5046465 22.74 19.8420186 22.74 19.8400884 40.59408"></polygon>
                                <polygon id="Fill-18" fill="#9754CC" points="0.0421755814 44.539968 3.80612907 44.539968 3.80612907 59.416128 10.3563733 59.416128 10.3563733 62.361408 0.0421755814 62.361408"></polygon>
                                <path d="M21.206886,48.259104 L18.2960953,55.797024 L24.1176767,55.797024 L21.206886,48.259104 Z M17.6185837,58.592544 L16.1622233,62.361504 L12.3239558,62.361504 L19.7514907,44.315424 L22.6873744,44.315424 L30.1149093,62.361504 L26.2756767,62.361504 L24.8202814,58.592544 L17.6185837,58.592544 Z" id="Fill-20" fill="#9754CC"></path>
                                <path d="M38.8588628,59.541408 C40.2891651,59.541408 41.0168628,59.391648 41.5187233,58.967328 C41.9713628,58.617888 42.2975721,57.819168 42.2975721,57.045408 C42.2975721,56.071968 41.8458977,55.173408 41.168386,54.823008 C40.6414326,54.524448 39.9880488,54.423648 38.7333977,54.423648 L36.5503047,54.423648 L36.5503047,59.541408 L38.8588628,59.541408 Z M38.6832116,51.928608 C39.9127698,51.928608 40.5400953,51.778848 41.0168628,51.379488 C41.5187233,50.980128 41.7947465,50.356128 41.7947465,49.631328 C41.7947465,48.807648 41.4444093,48.108768 40.8412116,47.684448 C40.4899093,47.409888 39.7371186,47.285088 38.6832116,47.285088 L36.5503047,47.285088 L36.5503047,51.928608 L38.6832116,51.928608 Z M33.0372814,44.540448 L38.5828395,44.540448 C40.7668977,44.540448 42.4220721,44.888928 43.4007,45.562848 C44.529886,46.361568 45.2073977,47.784288 45.2073977,49.357728 C45.2073977,50.930208 44.5810372,52.027488 43.1999558,52.852128 C44.2287698,53.376288 44.4797,53.551008 44.8811884,54.050208 C45.6349442,54.973728 45.9862465,55.997088 45.9862465,57.295008 C45.9862465,59.092128 45.3087349,60.539808 44.0531186,61.388448 C43.0243047,62.087328 41.7445605,62.361888 39.4109093,62.361888 L33.0372814,62.361888 L33.0372814,44.540448 Z" id="Fill-22" fill="#9754CC"></path>
                                <path d="M49.6098721,58.218144 C50.8384651,59.191584 52.6461279,59.740704 54.6545349,59.740704 C56.9370349,59.740704 58.091314,59.016864 58.091314,57.569184 C58.091314,56.895264 57.8152907,56.321184 57.2883372,55.921824 C56.7613837,55.547424 56.7613837,55.547424 54.3022674,54.673824 C50.8384651,53.450784 49.3338488,51.778464 49.3338488,49.157664 C49.3338488,46.062624 51.5169419,44.215584 55.1303372,44.215584 C57.1377791,44.215584 58.7948837,44.638944 60.4500581,45.538464 L59.245593,48.184224 C57.9407558,47.485344 56.7362907,47.160864 55.2808953,47.160864 C53.6247558,47.160864 52.6461279,47.809824 52.6461279,48.908064 C52.6461279,49.457184 52.9472442,50.031264 53.4240116,50.405664 C53.9509651,50.780064 54.3273605,50.954784 56.0587791,51.553824 C60.1489419,52.976544 61.5541512,54.424224 61.5541512,57.219744 C61.5541512,58.867104 60.9519186,60.414624 59.9993488,61.263264 C58.8942907,62.186784 57.112686,62.685984 54.7790349,62.685984 C52.0940814,62.685984 49.8357093,62.086944 48.380314,60.988704 L49.6098721,58.218144 Z" id="Fill-24" fill="#9754CC"></path>
                            </g>
                        </g>
                    </g>
                </g>
            </g>
        </g>
    </g>
</svg>