<?xml version="1.0" encoding="UTF-8"?>
<svg width="107px" height="63px" viewBox="0 0 107 63" version="1.1" xmlns="http://www.w3.org/2000/svg" xmlns:xlink="http://www.w3.org/1999/xlink">
    <!-- Generator: sketchtool 49.3 (51167) - http://www.bohemiancoding.com/sketch -->
    <title>DB433DD2-BF0C-4732-B150-A39B21BBD98C</title>
    <desc>Created with sketchtool.</desc>
    <defs></defs>
    <g id="Page-1" stroke="none" stroke-width="1" fill="none" fill-rule="evenodd">
        <g id="Alignment-TBG-Homepage-Copy" transform="translate(-800.000000, -644.000000)">
            <g id="Branches" transform="translate(70.000000, 644.000000)">
                <g id="Group-22" transform="translate(730.000000, 0.000000)">
                    <g id="Alignment-Capital-Color-Dark-Bg">
                        <g id="Alignment-Capital-Color-Bright-Bg">
                            <path d="M9.69386496,4.916 L6.78097607,12.45392 L12.6067538,12.45392 L9.69386496,4.916 Z M6.10297607,15.24944 L4.64556581,19.0184 L0.804531624,19.0184 L8.23742051,0.97232 L11.1754205,0.97232 L18.6083094,19.0184 L14.7663094,19.0184 L13.309865,15.24944 L6.10297607,15.24944 Z" id="Fill-3" fill="#423F39"></path>
                            <polygon id="Fill-4" fill="#423F39" points="20.9865248 1.084448 24.7531915 1.084448 24.7531915 15.960608 31.3081573 15.960608 31.3081573 18.905888 20.9865248 18.905888"></polygon>
                            <polygon id="Fill-5" fill="#423F39" points="33.6852137 19.01888 37.4518803 19.01888 37.4518803 1.19744 33.6852137 1.19744"></polygon>
                            <g id="Group-30" transform="translate(0.760684, 0.424640)">
                                <path d="M49.1464043,8.784672 L57.0564043,8.784672 L57.0564043,10.656672 C57.0564043,13.027872 56.6053701,14.974752 55.7767034,16.172832 C54.5201821,17.969952 52.1848487,18.918432 48.9213701,18.918432 C45.7824812,18.918432 43.6219598,18.119712 41.9646265,16.372512 C40.4077376,14.725152 39.6795154,12.628512 39.6795154,9.857952 C39.6795154,3.992352 43.1950709,0.447072 48.9967034,0.447072 C51.7338145,0.447072 53.9175154,1.096992 55.8018145,2.494752 L54.4207034,4.990752 C53.1400368,3.967392 51.2567034,3.368352 49.3231479,3.368352 C45.8066265,3.368352 43.5968487,5.814432 43.5968487,9.733152 C43.5968487,11.455392 43.9744812,12.853152 44.7268487,14.001312 C45.6569256,15.399072 46.9375923,15.998112 48.9464812,15.998112 C51.8593701,15.998112 53.3409256,14.725152 53.3409256,12.229152 L53.3409256,11.455392 L49.1464043,11.455392 L49.1464043,8.784672 Z" id="Fill-6" fill="#423F39"></path>
                                <polygon id="Fill-8" fill="#423F39" points="59.9692932 0.77232 62.682259 0.77232 72.0728487 12.65328 72.0728487 0.77232 75.4879598 0.77232 75.4879598 18.8184 72.9778145 18.8184 63.360259 6.38832 63.360259 18.59376 59.9692932 18.59376"></polygon>
                                <polygon id="Fill-10" fill="#423F39" points="23.1308103 22.739808 36.6502462 22.739808 36.6502462 25.685088 26.7970325 25.685088 26.7970325 29.878368 35.8718017 29.878368 35.8718017 32.823648 26.7970325 32.823648 26.7970325 37.615968 36.7313744 37.615008 36.7313744 40.560288 23.1308103 40.561248"></polygon>
                                <polygon id="Fill-12" fill="#423F39" points="39.5193838 22.737984 42.2323496 22.737984 53.5545632 34.725504 53.5545632 22.737984 56.9696744 22.737984 56.7794094 40.593984 54.2682983 40.593984 42.9103496 28.460544 42.9103496 40.665984 39.5193838 40.665984"></polygon>
                                <polygon id="Fill-14" fill="#423F39" points="65.8198923 25.684992 59.9690034 25.684032 59.9690034 22.738752 75.7233282 22.737792 75.7233282 25.683072 69.6126359 25.684992 69.6126359 40.562112 65.8198923 40.562112"></polygon>
                                <polygon id="Fill-16" fill="#0070C4" points="66.7857043 47.25456 60.9348154 47.2536 60.9348154 44.30832 76.6891402 44.30736 76.6891402 47.25264 70.5784479 47.25456 70.5784479 62.13168 66.7857043 62.13168"></polygon>
                                <polygon id="Fill-18" fill="#423F39" points="16.0380803 40.59408 16.0149009 29.87856 10.8410462 38.51472 9.00890085 38.51472 3.86112308 30.1032 3.86015726 40.59408 0.0423025641 40.59408 0.0934905983 22.74 3.45837949 22.74 9.98726838 33.74736 16.5161573 22.74 19.855935 22.74 19.8549692 40.59408"></polygon>
                                <path d="M15.0770009,60.857184 C13.8465564,61.880544 11.6358128,62.454624 8.92477863,62.454624 C3.19847949,62.454624 0.134923932,59.309664 0.134923932,53.369184 C0.134923932,47.402784 3.34914615,43.983264 9.02425726,43.983264 C11.2089239,43.983264 12.9667017,44.407584 14.4743342,45.332064 L13.2931462,47.952864 C12.2887017,47.277984 11.0090009,46.929504 9.42603504,46.929504 C5.9355906,46.929504 4.05225726,49.175904 4.05225726,53.319264 C4.05225726,55.066464 4.40381282,56.464224 5.08181282,57.562464 C5.9355906,58.885344 7.2915906,59.509344 9.37677863,59.509344 C11.2842573,59.509344 12.5910009,59.109984 13.8958128,58.086624 L15.0770009,60.857184 Z" id="Fill-20" fill="#0070C4"></path>
                                <path d="M26.7374419,48.027456 L23.8235872,55.565376 L29.6512966,55.565376 L26.7374419,48.027456 Z M23.146553,58.360896 L21.6891427,62.129856 L17.8481085,62.129856 L25.2809974,44.083776 L28.2189974,44.083776 L35.6518863,62.129856 L31.8098863,62.129856 L30.3534419,58.360896 L23.146553,58.360896 Z" id="Fill-22" fill="#0070C4"></path>
                                <path d="M43.8241043,52.944672 C45.2303265,52.944672 45.9083265,52.769952 46.4115145,52.245792 C46.9127709,51.746592 47.2150701,50.947872 47.2150701,50.049312 C47.2150701,49.050912 46.8374376,48.177312 46.2347709,47.678112 C45.7827709,47.303712 45.0796598,47.153952 43.8241043,47.153952 L42.0914376,47.153952 L42.0914376,52.944672 L43.8241043,52.944672 Z M42.0914376,62.129952 L38.4754376,62.129952 L38.4754376,44.308512 L43.799959,44.308512 C46.3361812,44.308512 47.867959,44.682912 49.0230701,45.605472 C50.2786256,46.579872 50.9566256,48.177312 50.9566256,50.049312 C50.9566256,52.120992 50.1269932,53.843232 48.7207709,54.766752 C47.6921812,55.465632 46.2347709,55.790112 44.3272923,55.790112 L42.0914376,55.790112 L42.0914376,62.129952 Z" id="Fill-24" fill="#0070C4"></path>
                                <polygon id="Fill-26" fill="#0070C4" points="54.2564188 62.13024 58.0230855 62.13024 58.0230855 44.3088 54.2564188 44.3088"></polygon>
                                <path d="M84.0098983,48.027456 L81.0970094,55.565376 L86.9227872,55.565376 L84.0098983,48.027456 Z M80.4190094,58.360896 L78.9615991,62.129856 L75.120565,62.129856 L82.5534538,44.083776 L85.4914538,44.083776 L92.9243427,62.129856 L89.0823427,62.129856 L87.6258983,58.360896 L80.4190094,58.360896 Z" id="Fill-28" fill="#0070C4"></path>
                                <polygon id="Fill-29" fill="#0070C4" points="95.7477974 44.308416 99.5144641 44.308416 99.5144641 59.184576 106.06943 59.184576 106.06943 62.129856 95.7477974 62.129856"></polygon>
                            </g>
                        </g>
                    </g>
                </g>
            </g>
        </g>
    </g>
</svg>