<?xml version="1.0" encoding="UTF-8"?>
<svg width="156px" height="39px" viewBox="0 0 156 39" version="1.1" xmlns="http://www.w3.org/2000/svg" xmlns:xlink="http://www.w3.org/1999/xlink">
    <!-- Generator: sketchtool 49.3 (51167) - http://www.bohemiancoding.com/sketch -->
    <title>2C31377D-51FD-4E19-9E99-72E47DC2635D</title>
    <desc>Created with sketchtool.</desc>
    <defs>
        <polygon id="path-1" points="9.13935304 0.00619354839 18.3302301 5.26327742 9.12852496 10.5262452 0.0973140496 5.26327742 9.1178975 0.00619354839 9.13935304 0.00619354839"></polygon>
        <polygon id="path-3" points="0.0270922314 7.04036129 12.2959805 0.0795870968 12.2959805 10.6056774 0.0270922314 17.5667613"></polygon>
        <polygon id="path-5" points="9.22895306 0.0577548387 9.22895306 10.584 0.0272479339 15.8471226 0.0272479339 5.32087742"></polygon>
        <polygon id="path-7" points="0.00934214876 0.0630982912 9.20170512 5.32087742 9.20170512 15.8472774 0.00934214876 10.5893436"></polygon>
        <polygon id="path-9" points="0.00934214876 0.0795110372 9.20170512 5.33713548 9.20170512 15.8635355 0.00934214876 10.6057564"></polygon>
        <path d="M14.335683,6.8372129 L14.335683,6.3243871 C14.335683,4.78606452 13.4883501,3.93135484 11.9632443,3.93135484 L4.33740397,3.93135484 L4.33740397,9.23024516 L11.9632443,9.23024516 C13.4883501,9.23024516 14.335683,8.37553548 14.335683,6.8372129 Z M19.9278932,15.5546323 L19.9278932,17.7767226 C19.9278932,21.8790194 17.8944188,23.9301677 13.8273144,23.9301677 L0.948228099,23.9301677 C0.439859504,23.9301677 0.100895207,23.5882839 0.100895207,23.0754581 L0.100895207,0.854709677 C0.100895207,0.341883871 0.439859504,0 0.948228099,0 L12.4716129,0 C16.5387174,0 18.5721917,2.05114839 18.5721917,6.15344516 L18.5721917,6.8372129 C18.5721917,10.0848 16.1997531,10.7685677 16.1997531,10.7685677 L16.1997531,10.9395097 C16.1997531,10.9395097 19.9278932,11.6232774 19.9278932,15.5546323 Z M15.6913845,17.6057806 L15.6913845,15.5546323 C15.6913845,14.0163097 14.8440516,13.1616 13.3189458,13.1616 L4.33740397,13.1616 L4.33740397,19.9988129 L13.3189458,19.9988129 C14.8440516,19.9988129 15.6913845,19.1441032 15.6913845,17.6057806 Z M31.9598023,20.8533677 C33.6544681,20.8533677 34.8406096,19.656929 34.8406096,17.9476645 L34.8406096,16.751071 L29.2483993,16.751071 C28.0621021,16.751071 27.3843293,17.4348387 27.3843293,18.6312774 L27.3843293,18.9731613 C27.3843293,20.1697548 28.0621021,20.8533677 29.2483993,20.8533677 L31.9598023,20.8533677 Z M38.5687498,11.6232774 L38.5687498,23.0754581 C38.5687498,23.5882839 38.2299412,23.9301677 37.7215726,23.9301677 L35.6879425,23.9301677 C35.1795739,23.9301677 34.8406096,23.5882839 34.8406096,23.0754581 L34.8406096,22.2209032 L34.6712053,22.2209032 C34.6712053,22.2209032 33.8238724,24.2720516 31.2818737,24.2720516 L28.7400307,24.2720516 C25.3506992,24.2720516 23.6561891,22.5627871 23.6561891,19.1441032 L23.6561891,18.6312774 C23.6561891,15.2127484 25.3506992,13.5034839 28.7400307,13.5034839 L34.8406096,13.5034839 L34.8406096,11.7942194 C34.8406096,10.4266839 33.9932767,9.57212903 32.6375752,9.57212903 L30.2651365,9.57212903 C29.078995,9.57212903 28.4010664,10.2557419 28.4010664,11.4523355 C28.4010664,11.9650065 28.0621021,12.3068903 27.5537336,12.3068903 L25.5202592,12.3068903 C25.0118906,12.3068903 24.6729263,11.9650065 24.6729263,11.4523355 C24.6729263,8.03365161 26.5369964,6.15344516 30.0957322,6.15344516 L33.1460995,6.15344516 C36.7046797,6.15344516 38.5687498,8.03365161 38.5687498,11.6232774 Z M58.7348678,11.6232774 L58.7348678,23.0754581 C58.7348678,23.5882839 58.3959035,23.9301677 57.8875349,23.9301677 L55.8539048,23.9301677 C55.3455362,23.9301677 55.0067276,23.5882839 55.0067276,23.0754581 L55.0067276,11.7942194 C55.0067276,10.4266839 54.1593947,9.57212903 52.8036932,9.57212903 L49.9227302,9.57212903 C48.2282202,9.57212903 47.041923,10.7685677 47.041923,12.4778323 L47.041923,23.0754581 C47.041923,23.5882839 46.7029587,23.9301677 46.1945901,23.9301677 L44.1611157,23.9301677 C43.6527471,23.9301677 43.3137828,23.5882839 43.3137828,23.0754581 L43.3137828,7.35003871 C43.3137828,6.8372129 43.6527471,6.49532903 44.1611157,6.49532903 L46.1945901,6.49532903 C46.7029587,6.49532903 47.041923,6.8372129 47.041923,7.35003871 L47.041923,8.20459355 L47.2113273,8.20459355 C47.2113273,8.20459355 48.0586602,6.15344516 50.6006588,6.15344516 L53.3120618,6.15344516 C56.8707977,6.15344516 58.7348678,8.03365161 58.7348678,11.6232774 Z M75.0032856,18.6312774 L75.0032856,18.1186065 C75.0032856,17.6057806 75.3420942,17.2638968 75.8506185,17.2638968 L77.8840929,17.2638968 C78.3924615,17.2638968 78.7314258,17.6057806 78.7314258,18.1186065 L78.7314258,18.8022194 C78.7314258,22.3918452 76.8673557,24.2720516 73.3086198,24.2720516 L68.7331468,24.2720516 C65.1744109,24.2720516 63.3103408,22.3918452 63.3103408,18.8022194 L63.3103408,11.6232774 C63.3103408,8.03365161 65.1744109,6.15344516 68.7331468,6.15344516 L73.3086198,6.15344516 C76.8673557,6.15344516 78.7314258,8.03365161 78.7314258,11.6232774 L78.7314258,12.3068903 C78.7314258,12.8197161 78.3924615,13.1616 77.8840929,13.1616 L75.8506185,13.1616 C75.3420942,13.1616 75.0032856,12.8197161 75.0032856,12.3068903 L75.0032856,11.7942194 C75.0032856,10.4266839 74.1559527,9.57212903 72.8002512,9.57212903 L69.2415154,9.57212903 C67.8858139,9.57212903 67.038481,10.4266839 67.038481,11.7942194 L67.038481,18.6312774 C67.038481,19.9988129 67.8858139,20.8533677 69.2415154,20.8533677 L72.8002512,20.8533677 C74.1559527,20.8533677 75.0032856,19.9988129 75.0032856,18.6312774 Z M86.5266704,11.7942194 L86.5266704,18.6312774 C86.5266704,19.9988129 87.3740033,20.8533677 88.7297048,20.8533677 L92.6272493,20.8533677 C93.9829507,20.8533677 94.8302836,19.9988129 94.8302836,18.6312774 L94.8302836,11.7942194 C94.8302836,10.4266839 93.9829507,9.57212903 92.6272493,9.57212903 L88.7297048,9.57212903 C87.3740033,9.57212903 86.5266704,10.4266839 86.5266704,11.7942194 Z M82.7985302,18.8022194 L82.7985302,11.6232774 C82.7985302,8.03365161 84.6626003,6.15344516 88.2213362,6.15344516 L93.1356179,6.15344516 C96.6943537,6.15344516 98.5584238,8.03365161 98.5584238,11.6232774 L98.5584238,18.8022194 C98.5584238,22.3918452 96.6943537,24.2720516 93.1356179,24.2720516 L88.2213362,24.2720516 C84.6626003,24.2720516 82.7985302,22.3918452 82.7985302,18.8022194 Z M110.420773,6.15344516 L112.115439,6.15344516 C112.623807,6.15344516 112.962772,6.49532903 112.962772,7.00815484 L112.962772,8.88836129 C112.962772,9.4011871 112.623807,9.74291613 112.115439,9.74291613 L109.743,9.74291613 C108.048334,9.74291613 106.862193,10.9395097 106.862193,12.6487742 L106.862193,23.0754581 C106.862193,23.5882839 106.523228,23.9301677 106.01486,23.9301677 L103.98123,23.9301677 C103.472861,23.9301677 103.133897,23.5882839 103.133897,23.0754581 L103.133897,7.35003871 C103.133897,6.8372129 103.472861,6.49532903 103.98123,6.49532903 L106.01486,6.49532903 C106.523228,6.49532903 106.862193,6.8372129 106.862193,7.35003871 L106.862193,8.20459355 L107.031597,8.20459355 C107.031597,8.20459355 107.87893,6.15344516 110.420773,6.15344516 Z" id="path-11"></path>
    </defs>
    <g id="Page-1" stroke="none" stroke-width="1" fill="none" fill-rule="evenodd">
        <g id="Alignment-TBG-Homepage-Copy" transform="translate(-990.000000, -2420.000000)">
            <g id="Cutomer-Spotlight" transform="translate(70.000000, 1838.000000)">
                <g id="Group-29" transform="translate(450.000000, 576.000000)">
                    <g id="Bancor" transform="translate(470.000000, 6.000000)">
                        <g id="bancor">
                            <g id="Group-3" transform="translate(2.335537, 0.000000)">
                                <mask id="mask-2" fill="white">
                                    <use xlink:href="#path-1"></use>
                                </mask>
                                <g id="Clip-2"></g>
                                <polygon id="Fill-1" fill="#070E2A" mask="url(#mask-2)" points="0.0840793388 10.5414194 18.338638 10.5414194 18.338638 0.00619354839 0.0840793388 0.00619354839"></polygon>
                            </g>
                            <g id="Group-6" transform="translate(12.923306, 21.058065)">
                                <mask id="mask-4" fill="white">
                                    <use xlink:href="#path-3"></use>
                                </mask>
                                <g id="Clip-5"></g>
                                <polygon id="Fill-4" fill="#070E2A" mask="url(#mask-4)" points="0.0155702479 17.5772903 12.309838 17.5772903 12.309838 0.0743225806 0.0155702479 0.0743225806"></polygon>
                            </g>
                            <g id="Group-9" transform="translate(12.923306, 8.516129)">
                                <mask id="mask-6" fill="white">
                                    <use xlink:href="#path-5"></use>
                                </mask>
                                <g id="Clip-8"></g>
                                <polygon id="Fill-7" fill="#070E2A" mask="url(#mask-6)" points="0.0155702479 15.8492903 9.24561322 15.8492903 9.24561322 0.0557419355 0.0155702479 0.0557419355"></polygon>
                            </g>
                            <g id="Group-12" transform="translate(0.000000, 8.516129)">
                                <mask id="mask-8" fill="white">
                                    <use xlink:href="#path-7"></use>
                                </mask>
                                <g id="Clip-11"></g>
                                <polygon id="Fill-10" fill="#070E2A" mask="url(#mask-8)" points="0.00934214876 15.8492903 9.20201653 15.8492903 9.20201653 0.0557419355 0.00934214876 0.0557419355"></polygon>
                            </g>
                            <g id="Group-15" transform="translate(0.000000, 22.761290)">
                                <mask id="mask-10" fill="white">
                                    <use xlink:href="#path-9"></use>
                                </mask>
                                <g id="Clip-14"></g>
                                <polygon id="Fill-13" fill="#070E2A" mask="url(#mask-10)" points="0.00934214876 15.8740645 9.20201653 15.8740645 9.20201653 0.0619354839 0.00934214876 0.0619354839"></polygon>
                            </g>
                            <g id="Group-18" transform="translate(42.662479, 7.587097)">
                                <mask id="mask-12" fill="white">
                                    <use xlink:href="#path-11"></use>
                                </mask>
                                <g id="Clip-17"></g>
                                <polygon id="Fill-16" fill="#070E2A" mask="url(#mask-12)" points="0.0965355372 24.2849032 112.968377 24.2849032 112.968377 0 0.0965355372 0"></polygon>
                            </g>
                        </g>
                    </g>
                </g>
            </g>
        </g>
    </g>
</svg>