<?xml version="1.0" encoding="UTF-8"?>
<svg width="80px" height="40px" viewBox="0 0 80 40" version="1.1" xmlns="http://www.w3.org/2000/svg" xmlns:xlink="http://www.w3.org/1999/xlink">
    <!-- Generator: sketchtool 49.3 (51167) - http://www.bohemiancoding.com/sketch -->
    <title>B1025C32-C141-42A7-A69F-31498135DFB0</title>
    <desc>Created with sketchtool.</desc>
    <defs></defs>
    <g id="Page-1" stroke="none" stroke-width="1" fill="none" fill-rule="evenodd">
        <g id="Alignment-TBG-Homepage-Copy" transform="translate(-990.000000, -1838.000000)" fill="#5DCD11" fill-rule="nonzero">
            <g id="Cutomer-Spotlight" transform="translate(70.000000, 1838.000000)">
                <g id="Group-25" transform="translate(450.000000, 0.000000)">
                    <g id="Kik" transform="translate(470.000000, 0.000000)">
                        <g id="kik">
                            <path d="M74.5143299,18.8930953 C77.0297673,18.8930953 79.068242,20.9289052 79.068242,23.440447 C79.068242,25.9519887 77.0297673,27.9877986 74.5143299,27.9877986 C71.9990984,27.9877986 69.9608297,25.9519887 69.9608297,23.440447 C69.9608297,20.9289052 71.9990984,18.8930953 74.5143299,18.8930953" id="Fill-1"></path>
                            <path d="M33.7274762,39.6878242 L33.7208832,39.6878242 C31.4438241,39.6878242 29.5979887,37.8357353 29.5988128,35.551933 L29.6049938,14.9295158 C29.605818,12.6384806 31.4633971,10.7849449 33.7472552,10.7961047 C36.016073,10.8070576 37.8493405,12.6550134 37.8493405,14.9305491 L37.8497526,35.5529663 C37.8497526,37.8365619 36.0041233,39.6878242 33.7274762,39.6878242" id="Fill-3"></path>
                            <path d="M16.59789,23.0835132 L21.806158,17.9422201 C23.4908767,16.2792253 23.4539971,13.5430439 21.7251876,11.9261343 C20.1012481,10.4071817 17.5732427,10.4381807 15.9868009,11.9968121 L8.26701016,19.5804157 L8.23507529,4.22948752 C8.2305426,1.99507715 6.49905467,0.0929764355 4.27288533,0.0103123453 C1.9313384,-0.0766916098 0.000206031406,1.8020565 0.000206031406,4.13731705 L0,35.5682708 C0,37.8384334 1.83470967,39.6787427 4.09796466,39.6787427 C6.36101363,39.6787427 8.19572329,37.83864 8.19592933,35.5684774 L8.19613536,30.4366907 L10.273344,28.503591 L17.2946883,37.9837155 C18.644606,39.8064587 21.2055765,40.2001464 23.0376077,38.866568 C24.8951868,37.5143901 25.2979782,34.9030315 23.9348744,33.0511492 L16.59789,23.0835132 Z" id="Fill-5"></path>
                            <path d="M59.7126002,23.0835132 L64.9208681,17.9422201 C66.6055869,16.2792253 66.5687073,13.5430439 64.8398978,11.9261343 C63.2159582,10.4071817 60.6879528,10.4381807 59.1015111,11.9968121 L51.3817203,19.5804157 L51.3497854,4.22948752 C51.3452527,1.99507715 49.6137648,0.0929764355 47.3875954,0.0103123453 C45.0460486,-0.0766916098 43.1149162,1.8020565 43.1149162,4.13731705 L43.1147101,35.5682708 C43.1147101,37.8384334 44.9494198,39.6787427 47.2126748,39.6787427 C49.4759298,39.6787427 51.3104334,37.83864 51.3106394,35.5684774 L51.3108455,30.4366907 L53.3880541,28.503591 L60.4093984,37.9837155 C61.7593162,39.8064587 64.3202865,40.2001464 66.1523178,38.866568 C68.0098969,37.5143901 68.4126884,34.9030315 67.0495846,33.0511492 L59.7126002,23.0835132 Z" id="Fill-8"></path>
                        </g>
                    </g>
                </g>
            </g>
        </g>
    </g>
</svg>