<?xml version="1.0" encoding="UTF-8"?>
<svg width="109px" height="48px" viewBox="0 0 109 48" version="1.1" xmlns="http://www.w3.org/2000/svg" xmlns:xlink="http://www.w3.org/1999/xlink">
    <!-- Generator: sketchtool 49.3 (51167) - http://www.bohemiancoding.com/sketch -->
    <title>834A2B74-4679-47AE-91BC-9F5CE5817E0A</title>
    <desc>Created with sketchtool.</desc>
    <defs></defs>
    <g id="Page-1" stroke="none" stroke-width="1" fill="none" fill-rule="evenodd">
        <g id="Alignment-TBG-Homepage-Copy" transform="translate(-520.000000, -2414.000000)">
            <g id="Cutomer-Spotlight" transform="translate(70.000000, 1838.000000)">
                <g id="Group-29" transform="translate(450.000000, 576.000000)">
                    <g id="LeadCoin">
                        <g id="Group-31">
                            <g id="lead-coin">
                                <polygon id="Fill-1" fill="#140C34" points="0.16487395 47.5768163 108.413945 47.5768163 108.413945 0.304653061 0.16487395 0.304653061"></polygon>
                                <polygon id="Fill-2" fill="#E83B4F" points="21.1190771 24.0543673 32.4364961 24.0543673 32.4364961 22.5688163 21.1190771 22.5688163"></polygon>
                                <polygon id="Fill-3" fill="#E83B4F" points="19.6303046 25.5399184 24.0951501 25.5399184 24.0951501 21.0832653 19.6303046 21.0832653"></polygon>
                                <g id="Group-8" transform="translate(10.795318, 11.701224)" fill="#FFFFFF">
                                    <path d="M11.9598385,23.2135347 C10.7718628,23.2135347 9.57603601,23.0313306 8.4175021,22.6605551 C3.85942437,21.2014531 0.634568427,17.1910041 0.201283613,12.4434122 C-0.232982593,7.68112653 2.23669178,3.26806531 6.4929913,1.20063673 C10.2119784,-0.606220408 14.6758424,-0.246710204 18.1431023,2.13859592 L18.8781654,2.64406531 L17.8648776,4.11198367 L17.1293238,3.60651429 C14.1910345,1.58512653 10.4151267,1.27753469 7.27467047,2.80324898 C3.69209694,4.54349388 1.6135075,8.26398367 1.97956693,12.2822694 C2.34758914,16.315249 5.08910924,19.723249 8.96266567,20.9634122 C11.9024271,21.9048 15.1233574,21.4096163 17.5802737,19.6394939 L18.3040507,19.1173714 L19.3492338,20.5627592 L18.6249661,21.0843918 C16.6818088,22.4847184 14.3377527,23.2135347 11.9598385,23.2135347" id="Fill-4"></path>
                                    <path d="M81.7459272,18.0422694 L81.7459272,21.8896163 L80.0260368,21.8896163 L80.0260368,15.2411265 L81.7959782,15.2411265 L84.4962799,18.8979429 L84.4962799,15.2411265 L86.2254935,15.2411265 L86.2254935,21.8896163 L84.5664494,21.8896163 L81.7459272,18.0422694 Z M70.109065,21.8891265 L71.8294461,21.8891265 L71.8294461,15.2406367 L70.109065,15.2406367 L70.109065,21.8891265 Z M60.1837514,16.6468408 C59.0733057,16.6468408 58.3637589,17.4829224 58.3637589,18.5697796 C58.3637589,19.6468408 59.0733057,20.493698 60.1837514,20.493698 C61.2834017,20.493698 61.9934392,19.6468408 61.9934392,18.5697796 C61.9934392,17.4829224 61.2834017,16.6468408 60.1837514,16.6468408 Z M60.1837514,15.1314122 C62.2235758,15.1314122 63.7437529,16.5464327 63.7437529,18.5697796 C63.7437529,20.5936163 62.2235758,22.0096163 60.1837514,22.0096163 C58.1434362,22.0096163 56.6139359,20.5936163 56.6139359,18.5697796 C56.6139359,16.5464327 58.1434362,15.1314122 60.1837514,15.1314122 Z M45.297989,18.5697796 C45.297989,16.5175347 46.8584032,15.131902 48.9075509,15.131902 C50.5180161,15.131902 51.3777159,16.0390041 51.8183612,16.915249 L50.3379305,17.6132082 C50.1171172,17.0847184 49.5469281,16.6468408 48.9075509,16.6468408 C47.8182051,16.6468408 47.0483027,17.483902 47.0483027,18.5697796 C47.0483027,19.6556571 47.8182051,20.4927184 48.9075509,20.4927184 C49.5469281,20.4927184 50.1171172,20.0558204 50.3379305,19.526351 L51.8183612,20.2238204 C51.3880206,21.0819429 50.5180161,22.0086367 48.9075509,22.0086367 C46.8584032,22.0086367 45.297989,20.613698 45.297989,18.5697796 Z M82.576676,7.10806531 C83.7455146,7.10806531 84.4261103,6.26022857 84.4261103,5.27377959 C84.4261103,4.24667755 83.8058702,3.44977959 82.5859992,3.44977959 L81.4966535,3.44977959 L81.4966535,7.10806531 L82.576676,7.10806531 Z M79.7762724,1.95443265 L82.576676,1.95443265 C84.6763654,1.95443265 86.1862378,3.21075918 86.1862378,5.27377959 C86.1862378,7.3368 84.6763654,8.60390204 82.5859992,8.60390204 L79.7762724,8.60390204 L79.7762724,1.95443265 Z M69.8406541,6.15051429 L71.5394446,6.15051429 L70.6900494,3.64863673 L69.8406541,6.15051429 Z M72.0105131,7.64635102 L69.380381,7.64635102 L69.0501424,8.60292245 L67.0996247,8.60292245 L69.6105176,1.95443265 L71.7690905,1.95443265 L74.2897973,8.60292245 L72.3392796,8.60292245 L72.0105131,7.64635102 Z M56.9235653,1.95443265 L61.812863,1.95443265 L61.812863,3.45026939 L58.6439464,3.45026939 L58.6439464,4.48667755 L61.7426934,4.48667755 L61.7426934,5.9810449 L58.6439464,5.9810449 L58.6439464,7.10708571 L61.812863,7.10708571 L61.812863,8.60292245 L56.9235653,8.60292245 L56.9235653,1.95443265 Z M46.6375899,1.95443265 L48.357971,1.95443265 L48.357971,7.10708571 L51.036682,7.10708571 L51.036682,8.60292245 L46.6375899,8.60292245 L46.6375899,1.95443265 Z" id="Fill-6"></path>
                                </g>
                                <polygon id="Fill-9" fill="#FFFFFF" points="30.4648785 24.0543673 41.9545318 24.0543673 41.9545318 22.5688163 30.4648785 22.5688163"></polygon>
                                <polygon id="Fill-10" fill="#FFFFFF" points="38.2335819 25.5399184 42.6984274 25.5399184 42.6984274 21.0832653 38.2335819 21.0832653"></polygon>
                                <path d="M40.8382959,34.6021714 C34.3959445,34.6021714 29.1553082,29.3706612 29.1553082,22.9406204 C29.1553082,16.5100898 34.3959445,11.2785796 40.8382959,11.2785796 C47.2806474,11.2785796 52.5212836,16.5100898 52.5212836,22.9406204 C52.5212836,29.3706612 47.2806474,34.6021714 40.8382959,34.6021714 M40.8382959,13.0619265 C35.3812626,13.0619265 30.9414427,17.4931102 30.9414427,22.9406204 C30.9414427,28.3881306 35.3812626,32.8193143 40.8382959,32.8193143 C46.2953292,32.8193143 50.7351492,28.3881306 50.7351492,22.9406204 C50.7351492,17.4931102 46.2953292,13.0619265 40.8382959,13.0619265" id="Fill-11" fill="#E83B4F"></path>
                            </g>
                        </g>
                    </g>
                </g>
            </g>
        </g>
    </g>
</svg>