<?xml version="1.0" encoding="UTF-8"?>
<svg width="310px" height="318px" viewBox="0 0 310 318" version="1.1" xmlns="http://www.w3.org/2000/svg" xmlns:xlink="http://www.w3.org/1999/xlink">
    <!-- Generator: sketchtool 49.3 (51167) - http://www.bohemiancoding.com/sketch -->
    <title>B59BE594-C980-4187-B727-EE2803123212</title>
    <desc>Created with sketchtool.</desc>
    <defs></defs>
    <g id="Page-1" stroke="none" stroke-width="1" fill="none" fill-rule="evenodd" fill-opacity="0.199999988">
        <g id="Alignment-TBG-Homepage-Copy" transform="translate(-59.000000, -2974.000000)" fill="#C2BAAB">
            <g id="Main-Visual-Copy" transform="translate(214.000000, 3394.000000) scale(1, -1) translate(-214.000000, -3394.000000) translate(59.000000, 2974.000000)">
                <rect id="Rectangle-4" x="3" y="20" width="2" height="566"></rect>
                <rect id="Rectangle-4-Copy" x="0" y="10" width="2" height="566"></rect>
                <rect id="Rectangle-4" x="10" y="80" width="2" height="566"></rect>
                <rect id="Rectangle-4-Copy-2" x="17" y="120" width="2" height="566"></rect>
                <rect id="Rectangle-4-Copy-3" x="24" y="110" width="2" height="566"></rect>
                <rect id="Rectangle-4-Copy-4" x="31" y="160" width="2" height="566"></rect>
                <rect id="Rectangle-4-Copy-5" x="38" y="120" width="2" height="566"></rect>
                <rect id="Rectangle-4-Copy-6" x="45" y="90" width="2" height="566"></rect>
                <rect id="Rectangle-4" x="52" y="209" width="2" height="566"></rect>
                <rect id="Rectangle-4" x="59" y="173" width="2" height="566"></rect>
                <rect id="Rectangle-4-Copy-9" x="66" y="146" width="2" height="566"></rect>
                <rect id="Rectangle-4-Copy-12" x="73" y="176" width="2" height="566"></rect>
                <rect id="Rectangle-4-Copy-13" x="80" y="211" width="2" height="566"></rect>
                <rect id="Rectangle-4-Copy-15" x="87" y="221" width="2" height="566"></rect>
                <rect id="Rectangle-4-Copy-16" x="94" y="241" width="2" height="566"></rect>
                <rect id="Rectangle-4-Copy-17" x="101" y="254" width="2" height="566"></rect>
                <rect id="Rectangle-4-Copy-18" x="108" y="274" width="2" height="566"></rect>
                <rect id="Rectangle-4" x="115" y="266" width="2" height="566"></rect>
                <rect id="Rectangle-4" x="122" y="236" width="2" height="566"></rect>
                <rect id="Rectangle-4" x="129" y="249" width="2" height="566"></rect>
                <rect id="Rectangle-4" x="136" y="199" width="2" height="566"></rect>
                <rect id="Rectangle-4" x="143" y="209" width="2" height="566"></rect>
                <rect id="Rectangle-4" x="150" y="199" width="2" height="566"></rect>
                <rect id="Rectangle-4" x="157" y="192" width="2" height="566"></rect>
                <rect id="Rectangle-4" x="164" y="199" width="2" height="566"></rect>
                <rect id="Rectangle-4" x="171" y="380" width="2" height="410"></rect>
                <rect id="Rectangle-4" x="178" y="176" width="2" height="566"></rect>
                <rect id="Rectangle-4" x="185" y="134" width="2" height="566"></rect>
                <rect id="Rectangle-4" x="192" y="82" width="2" height="566"></rect>
                <rect id="Rectangle-4" x="199" y="96" width="2" height="566"></rect>
                <rect id="Rectangle-4" x="206" y="140" width="2" height="566"></rect>
                <rect id="Rectangle-4" x="213" y="79" width="2" height="566"></rect>
                <rect id="Rectangle-4" x="220" y="56" width="2" height="566"></rect>
                <rect id="Rectangle-4" x="227" y="73" width="2" height="566"></rect>
                <rect id="Rectangle-4" x="308" y="0" width="2" height="566"></rect>
            </g>
        </g>
    </g>
</svg>