<?xml version="1.0" encoding="UTF-8"?>
<svg width="191px" height="560px" viewBox="0 0 191 560" version="1.1" xmlns="http://www.w3.org/2000/svg" xmlns:xlink="http://www.w3.org/1999/xlink">
    <!-- Generator: sketchtool 49.3 (51167) - http://www.bohemiancoding.com/sketch -->
    <title>615D9B02-FA50-4DED-9EBD-D68F3E4CA31E</title>
    <desc>Created with sketchtool.</desc>
    <defs></defs>
    <g id="Page-1" stroke="none" stroke-width="1" fill="none" fill-rule="evenodd" fill-opacity="0.5">
        <g id="Alignment-TBG-Homepage-Copy" transform="translate(-899.000000, 0.000000)" fill="#C2BAAB">
            <g id="Header" transform="translate(70.000000, -206.000000)">
                <g id="Main-Visual" transform="translate(813.000000, 0.000000)">
                    <rect id="Rectangle-4" x="16" y="0" width="2" height="566"></rect>
                    <rect id="Rectangle-4" x="23" y="60" width="2" height="566"></rect>
                    <rect id="Rectangle-4" x="30" y="119" width="2" height="566"></rect>
                    <rect id="Rectangle-4" x="37" y="177" width="2" height="566"></rect>
                    <rect id="Rectangle-4" x="44" y="47" width="2" height="566"></rect>
                    <rect id="Rectangle-4" x="51" y="106" width="2" height="566"></rect>
                    <rect id="Rectangle-4" x="58" y="142" width="2" height="566"></rect>
                    <rect id="Rectangle-4" x="65" y="106" width="2" height="566"></rect>
                    <rect id="Rectangle-4" x="72" y="129" width="2" height="566"></rect>
                    <rect id="Rectangle-4" x="79" y="106" width="2" height="566"></rect>
                    <rect id="Rectangle-4" x="86" y="119" width="2" height="566"></rect>
                    <rect id="Rectangle-4" x="93" y="129" width="2" height="566"></rect>
                    <rect id="Rectangle-4" x="100" y="119" width="2" height="566"></rect>
                    <rect id="Rectangle-4" x="107" y="106" width="2" height="566"></rect>
                    <rect id="Rectangle-4" x="114" y="142" width="2" height="566"></rect>
                    <rect id="Rectangle-4" x="121" y="94" width="2" height="637"></rect>
                    <rect id="Rectangle-4" x="128" y="129" width="2" height="566"></rect>
                    <rect id="Rectangle-4" x="135" y="106" width="2" height="566"></rect>
                    <rect id="Rectangle-4" x="142" y="60" width="2" height="706"></rect>
                    <rect id="Rectangle-4" x="149" y="106" width="2" height="566"></rect>
                    <rect id="Rectangle-4" x="156" y="94" width="2" height="566"></rect>
                    <rect id="Rectangle-4" x="163" y="142" width="2" height="566"></rect>
                    <rect id="Rectangle-4" x="170" y="106" width="2" height="566"></rect>
                    <rect id="Rectangle-4" x="177" y="60" width="2" height="566"></rect>
                    <rect id="Rectangle-4" x="184" y="119" width="2" height="566"></rect>
                    <rect id="Rectangle-4" x="191" y="106" width="2" height="566"></rect>
                    <rect id="Rectangle-4" x="198" y="23" width="2" height="566"></rect>
                    <rect id="Rectangle-4" x="205" y="0" width="2" height="566"></rect>
                </g>
            </g>
        </g>
    </g>
</svg>