<?xml version="1.0" encoding="UTF-8"?>
<svg width="300px" height="133px" viewBox="0 0 300 133" version="1.1" xmlns="http://www.w3.org/2000/svg" xmlns:xlink="http://www.w3.org/1999/xlink">
    <!-- Generator: sketchtool 49.3 (51167) - http://www.bohemiancoding.com/sketch -->
    <title>5F5993C6-346F-4F14-8646-E256786378D7</title>
    <desc>Created with sketchtool.</desc>
    <defs></defs>
    <g id="Page-1" stroke="none" stroke-width="1" fill="none" fill-rule="evenodd" fill-opacity="0.5">
        <g id="Mobile" transform="translate(-20.000000, -224.000000)" fill="#C2BAAB">
            <g id="header" transform="translate(20.000000, 20.000000)">
                <g id="Main-Visual" transform="translate(150.500000, 270.500000) rotate(90.000000) translate(-150.500000, -270.500000) translate(84.000000, 120.500000)">
                    <polygon id="Rectangle-4" points="-4.26325641e-14 0.5 2 0.5 2 12.75 6.31088724e-30 12.75"></polygon>
                    <polygon id="Rectangle-4" points="4 0.5 6 0.5 6 44 4 44"></polygon>
                    <polygon id="Rectangle-4" points="8 0.5 10 0.5 10 25 8 25"></polygon>
                    <polygon id="Rectangle-4" points="12 0.5 14 0.5 14 44 12 44"></polygon>
                    <polygon id="Rectangle-4" points="16 0.5 18 0.5 18 80 16 80"></polygon>
                    <polygon id="Rectangle-4" points="20 0.5 22 0.5 22 44 20 44"></polygon>
                    <polygon id="Rectangle-4" points="24 0.5 26 0.5 26 67 24 67"></polygon>
                    <polygon id="Rectangle-4-Copy-9" points="76 0.5 78 0.5 78 56 76 56"></polygon>
                    <polygon id="Rectangle-4-Copy-8" points="80 0.5 82 0.5 82 80 80 80"></polygon>
                    <polygon id="Rectangle-4-Copy-7" points="84 0.5 86 0.5 86 41 84 41"></polygon>
                    <polygon id="Rectangle-4-Copy-6" points="88 0.5 90 0.5 90 67 88 67"></polygon>
                    <polygon id="Rectangle-4-Copy-10" points="92 0.5 94 0.5 94 86 92 86"></polygon>
                    <polygon id="Rectangle-4-Copy-15" points="96 0.5 98 0.5 98 56 96 56"></polygon>
                    <polygon id="Rectangle-4-Copy-14" points="100 0.5 102 0.5 102 80 100 80"></polygon>
                    <polygon id="Rectangle-4-Copy-13" points="104 0.5 106 0.5 106 88 104 88"></polygon>
                    <polygon id="Rectangle-4-Copy-12" points="108 0.5 110 0.5 110 118 108 118"></polygon>
                    <polygon id="Rectangle-4-Copy-11" points="112 0.5 114 0.5 114 150.25 112 150.25"></polygon>
                    <polygon id="Rectangle-4-Copy-22" points="116 0.5 118 0.5 118 134 116 134"></polygon>
                    <polygon id="Rectangle-4-Copy-21" points="120 0.5 122 0.5 122 160.825 120 160.825"></polygon>
                    <polygon id="Rectangle-4-Copy-20" points="123.6 0.5 125.6 0.5 125.6 176.725 123.6 176.725"></polygon>
                    <polygon id="Rectangle-4-Copy-23" points="127.2 0.5 129.2 0.5 129.2 205.875 127.2 205.875"></polygon>
                    <polygon id="Rectangle-4" points="28 0.5 30 0.5 30 44 28 44"></polygon>
                    <polygon id="Rectangle-4" points="32 0.5 34 0.5 34 57 32 57"></polygon>
                    <polygon id="Rectangle-4" points="36 0.5 38 0.5 38 67 36 67"></polygon>
                    <polygon id="Rectangle-4" points="40 0.5 42 0.5 42 27 40 27"></polygon>
                    <polygon id="Rectangle-4" points="44 0.5 46 0.5 46 44 44 44"></polygon>
                    <polygon id="Rectangle-4" points="48 0.5 50 0.5 50 80 48 80"></polygon>
                    <polygon id="Rectangle-4" points="52 0.5 54 0.5 54 33 52 33"></polygon>
                    <polygon id="Rectangle-4" points="56 0.5 58 0.5 58 67 56 67"></polygon>
                    <polygon id="Rectangle-4" points="60 0.5 62 0.5 62 44 60 44"></polygon>
                    <polygon id="Rectangle-4" points="66 0.5 66 88 64 88 64 0.5"></polygon>
                    <polygon id="Rectangle-4" points="68 0.5 70 0.5 70 44 68 44"></polygon>
                    <polygon id="Rectangle-4-Copy-2" points="72 0.5 74 0.5 74 64 72 64"></polygon>
                    <polygon id="Rectangle-4-Copy" points="131 0.5 133 0.5 133 300 131 300"></polygon>
                </g>
            </g>
        </g>
    </g>
</svg>