<?xml version="1.0" encoding="UTF-8"?>
<svg width="130px" height="40px" viewBox="0 0 130 40" version="1.1" xmlns="http://www.w3.org/2000/svg" xmlns:xlink="http://www.w3.org/1999/xlink">
    <!-- Generator: sketchtool 49.3 (51167) - http://www.bohemiancoding.com/sketch -->
    <title>1172E2CE-0321-4810-90D9-86086A0E1180</title>
    <desc>Created with sketchtool.</desc>
    <defs></defs>
    <g id="Page-1" stroke="none" stroke-width="1" fill="none" fill-rule="evenodd">
        <g id="Alignment-TBG-Homepage-Copy" transform="translate(-990.000000, -2149.000000)" fill-rule="nonzero">
            <g id="Cutomer-Spotlight" transform="translate(70.000000, 1838.000000)">
                <g id="Group-24" transform="translate(450.000000, 311.000000)">
                    <g id="Orbs" transform="translate(469.000000, 0.000000)">
                        <g id="orbs" transform="translate(1.000000, 0.000000)">
                            <g id="Group-37" transform="translate(60.000000, 12.000000)" fill="#282455">
                                <path d="M0.162085308,8.45971564 C0.162085308,3.42369668 4.02938389,0.0739336493 8.52511848,0.0739336493 C10.7456542,0.0363591102 12.8874815,0.896014707 14.4658701,2.45834641 C16.0442586,4.02067811 16.9257688,6.15360374 16.9109005,8.37440758 C16.9109005,12.9781991 13.3023697,16.6748815 8.50236967,16.6748815 C6.30474569,16.7114403 4.18429814,15.8649368 2.61602819,14.3249962 C1.04775824,12.7850556 0.162745553,10.6803897 0.159241706,8.48246445 L0.162085308,8.45971564 Z M2.69004739,8.37440758 C2.69004739,11.7014218 5.15260664,14.4255924 8.56777251,14.4255924 C12.0483412,14.4255924 14.3601896,11.5080569 14.3601896,8.3943128 C14.3601896,5.28056872 12.0483412,2.32037915 8.5450237,2.32037915 C5.04170616,2.32037915 2.68720379,5.12985782 2.68720379,8.35165877 L2.69004739,8.37440758 Z" id="Shape"></path>
                                <path d="M24.042654,0.37535545 L28.5582938,0.37535545 C31.0663507,0.37535545 32.3630332,0.722274882 33.2047393,1.30521327 C34.5241706,2.15829384 35.3232227,3.83317536 35.3232227,5.62748815 C35.3320878,6.71264401 35.0129343,7.77516764 34.4075829,8.67582938 C33.585782,9.81327014 32.5478673,10.2113744 31.3165877,10.4274882 L35.0758294,16.3706161 L32.3744076,16.3706161 L27.9867299,9.1507109 L28.5554502,9.1507109 C29.6587678,9.1507109 30.9981043,9.10805687 31.7545024,8.45971564 C32.48674,7.79069267 32.8898208,6.83493413 32.8578199,5.8436019 C32.8712132,4.77495062 32.3629123,3.76683817 31.4957346,3.14218009 C30.8047393,2.70995261 29.9175355,2.62464455 28.771564,2.62464455 L26.5876777,2.62464455 L26.5876777,16.3706161 L24.028436,16.3706161 L24.042654,0.37535545 Z" id="Shape"></path>
                                <path d="M42.1535545,0.37535545 L46.9194313,0.37535545 C48.4322275,0.37535545 49.535545,0.676777251 50.3118483,1.22843602 C51.4777251,1.94218009 51.9327014,3.19620853 51.9327014,4.47014218 C51.9757674,5.88942659 51.1805411,7.20143872 49.9023697,7.81990521 C51.6698562,8.30900743 52.8745403,9.94225846 52.8199052,11.7753555 C52.7971564,13.3535545 52.1061611,14.692891 50.8748815,15.4265403 C49.7374408,16.2056872 48.7990521,16.3563981 46.8341232,16.3563981 L42.1535545,16.3563981 L42.1535545,0.37535545 Z M44.7127962,7.00947867 L46.8085308,7.00947867 C47.3610977,7.04001504 47.9137922,6.95177785 48.4293839,6.7507109 C49.228436,6.31848341 49.5099526,5.61327014 49.5099526,4.78293839 C49.552512,3.99799443 49.1291246,3.26152318 48.4293839,2.90331754 C47.8972496,2.67803796 47.3197128,2.58064558 46.743128,2.61895735 L44.7127962,2.61895735 L44.7127962,7.00947867 Z M44.7127962,14.1184834 L47.2720379,14.1184834 C47.8517701,14.1368316 48.4299785,14.0491367 48.9781991,13.8597156 C49.757346,13.5127962 50.3601896,12.8445498 50.3829384,11.6331754 C50.4254635,10.6760676 49.8637868,9.79489455 48.9781991,9.42938389 C48.3652598,9.1977942 47.7096624,9.10081233 47.0559242,9.1450237 L44.7014218,9.1450237 L44.7127962,14.1184834 Z" id="Shape"></path>
                                <path d="M61.6890995,11.636019 C61.8625592,14.036019 63.5488152,14.5109005 64.3905213,14.5109005 C65.8287612,14.5315874 67.0151162,13.3896414 67.0492891,11.9516588 C67.0492891,10.1800948 65.5364929,9.76777251 63.4834123,9.01137441 C62.2322275,8.61042654 59.4312796,7.67772512 59.4312796,4.67772512 C59.4312796,1.67772512 61.9592417,0.0739336493 64.4672986,0.0739336493 C66.5203791,0.0739336493 69.0909953,1.21137441 69.2872038,4.48151659 L66.7791469,4.48151659 C66.6056872,3.62843602 66.2104265,2.23222749 64.3791469,2.23222749 C63.0824645,2.23222749 61.9592417,3.11943128 61.9592417,4.48151659 C61.9592417,6.03696682 63.1478673,6.42654028 65.7184834,7.37630332 C67.7090047,8.22938389 69.5658768,9.23601896 69.5658768,11.8293839 C69.5658768,14.4227488 67.814218,16.6635071 64.3990521,16.6635071 C61.2227488,16.6635071 59.1895735,14.7184834 59.1469194,11.6274882 L61.6890995,11.636019 Z" id="Shape"></path>
                            </g>
                            <g id="Group-38">
                                <path d="M11.5241706,25.5696682 C11.4104265,26.0094787 11.0464455,26.1175355 10.7146919,25.8066351 L4.2521327,19.7763033 C3.92037915,19.4654028 3.99241706,19.0748815 4.41516588,18.9061611 L13.4805687,15.2834123 C13.9033175,15.1146919 14.1554502,15.3364929 14.0492891,15.7763033 L11.5241706,25.5696682 Z" id="Shape" fill="#282455"></path>
                                <path d="M6.18388626,31.3023697 C5.83886256,31.6 5.49194313,31.4767773 5.41042654,31.0293839 L3.63981043,21.2322275 C3.55829384,20.7848341 3.76492891,20.6635071 4.09668246,20.9819905 L10.2464455,26.7222749 C10.4048511,26.8635141 10.4935308,27.0669893 10.4891559,27.2791725 C10.484781,27.4913557 10.3877894,27.6910026 10.2236967,27.8255924 L6.18388626,31.3023697 Z" id="Shape" fill="#413A80"></path>
                                <path d="M13.6037915,13.3308057 C13.7473906,13.4674407 13.8069725,13.670428 13.7600039,13.8629994 C13.7130352,14.0555709 13.5666856,14.208331 13.3763033,14.2635071 L4.36018957,17.8672986 C3.93744076,18.036019 3.72322275,17.8255924 3.88056872,17.3990521 L7.58293839,7.45023697 C7.74218009,7.02369668 8.11374408,6.95734597 8.41137441,7.30236967 L13.6037915,13.3308057 Z" id="Shape" fill="#413A80"></path>
                                <path d="M4.15924171,29.636019 C4.24075829,30.0834123 4.1042654,30.1364929 3.85781991,29.7554502 L0.362085308,24.3563981 C0.116886433,23.9330348 0.134546371,23.4069158 0.407582938,23.0009479 L1.96966825,20.9156398 C2.24075829,20.5516588 2.53838863,20.6199052 2.61042654,21.0672986 L4.15924171,29.636019 Z" id="Shape" fill="#413A80"></path>
                                <path d="M3.05971564,16.7886256 C2.90047393,17.2151659 2.65402844,17.2094787 2.50995261,16.7791469 L1.31563981,13.1962085 C1.18432428,12.7194656 1.3181125,12.2089008 1.66635071,11.8578199 L5.92417062,8 C6.26161137,7.69478673 6.40758294,7.79336493 6.24834123,8.21990521 L3.05971564,16.7886256 Z" id="Shape" fill="#413A80"></path>
                                <path d="M1.93554502,18.1706161 C2.06928975,18.6638702 1.98434184,19.1908235 1.70236967,19.6170616 L0.479620853,21.2549763 C0.208530806,21.6189573 0.0227488152,21.5469194 0.0701421801,21.0957346 L0.655924171,15.4085308 C0.703317536,14.9554502 0.858767773,14.9383886 1.0028436,15.3706161 L1.93554502,18.1706161 Z" id="Shape" fill="#413A80"></path>
                                <path d="M6.73933649,5.36113744 C6.89099526,5.53744076 6.73933649,5.92985782 6.40189573,6.23507109 L4.48720379,7.97156398 C4.14976303,8.27677725 4.09668246,8.22748815 4.36777251,7.86350711 L5.97156398,5.70616114 C6.24265403,5.34028436 6.58957346,5.18672986 6.73933649,5.36113744 Z" id="Shape" fill="#413A80"></path>
                                <path d="M18.8246445,35.6398104 C18.5952607,36.0322275 18.1971564,36.0473934 17.9393365,35.6720379 L12.9327014,28.3867299 C12.6748815,28.0075829 12.8341232,27.6682464 13.2872038,27.628436 L23.3459716,26.5895735 C23.7990521,26.5421801 23.9810427,26.8265403 23.7516588,27.2189573 L18.8246445,35.6398104 Z" id="Shape" fill="#413A80"></path>
                                <path d="M16.7279621,35.6398104 C16.985782,36.0189573 16.8436019,36.2085308 16.4132701,36.0549763 L6.98388626,32.8511848 C6.5535545,32.7052133 6.48341232,32.343128 6.82843602,32.0454976 L10.8701422,28.5649289 C11.0276993,28.422949 11.2394596,28.3569583 11.4497812,28.3842965 C11.6601027,28.4116347 11.8479561,28.5295682 11.963981,28.707109 L16.7279621,35.6398104 Z" id="Shape" fill="#413A80"></path>
                                <path d="M23.5545024,24.8853081 C23.8521327,25.2303318 23.7232227,25.5507109 23.2720379,25.5962085 L13.0635071,26.650237 C12.8709231,26.6913444 12.6712609,26.6240296 12.5428779,26.4747103 C12.414495,26.3253911 12.3778765,26.1178932 12.4473934,25.9336493 L15.0028436,15.9943128 C15.1165877,15.5545024 15.4521327,15.4748815 15.7478673,15.8199052 L23.5545024,24.8853081 Z" id="Shape" fill="#4DB9AE"></path>
                                <path d="M30.9004739,33.4028436 C31.1981043,33.7478673 31.0767773,34.1061611 30.6312796,34.1990521 L20.242654,36.3848341 C19.7971564,36.4777251 19.6208531,36.2331754 19.850237,35.8407583 L24.7507109,27.4597156 C24.8346513,27.2833484 25.0053265,27.1642732 25.199829,27.146379 C25.3943314,27.1284848 25.5838676,27.2144205 25.6985782,27.3725118 L30.9004739,33.4028436 Z" id="Shape" fill="#413A80"></path>
                                <path d="M14.1819905,38.9914692 C13.7395961,39.2011881 13.2163167,39.140102 12.8341232,38.8341232 L8.01137441,34.5781991 C7.67014218,34.2767773 7.74407583,34.1516588 8.17440758,34.2976303 L16.4265403,37.1014218 C16.856872,37.2473934 16.8815166,37.543128 16.4815166,37.757346 L14.1819905,38.9914692 Z" id="Shape" fill="#413A80"></path>
                                <path d="M25.3876777,39.3971564 C24.9887291,39.6899661 24.4634178,39.7464045 24.0113744,39.5450237 L20.6445498,37.8388626 C20.2388626,37.6322275 20.2654028,37.3876777 20.7165877,37.2947867 L29.664455,35.4104265 C30.1099526,35.3175355 30.185782,35.4748815 29.8331754,35.7630332 L25.3876777,39.3971564 Z" id="Shape" fill="#413A80"></path>
                                <path d="M16.0132701,39.6075829 C15.5582938,39.5867299 15.5146919,39.3933649 15.9165877,39.1791469 L17.7175355,38.2123223 C18.1808975,37.996502 18.7146771,37.9902872 19.1829384,38.1952607 L21.814218,39.5336493 C22.2199052,39.7402844 22.1800948,39.8919431 21.7251185,39.87109 L16.0132701,39.6075829 Z" id="Shape" fill="#413A80"></path>
                                <path d="M32.5630332,35.3421801 C32.7146919,35.5184834 32.5099526,35.8369668 32.1080569,36.0511848 L29.7364929,37.3175355 C29.3345972,37.5317536 29.2947867,37.47109 29.6473934,37.1829384 L31.6473934,35.5469194 C32,35.2606635 32.4170616,35.1677725 32.5630332,35.3421801 Z" id="Shape" fill="#413A80"></path>
                                <path d="M26.5687204,24.7791469 C26.1459716,24.9478673 25.8938389,24.7260664 26,24.2862559 L28.5175355,14.4909953 C28.6312796,14.0511848 28.9952607,13.943128 29.3270142,14.2540284 L35.7971564,20.2843602 C36.12891,20.5952607 36.056872,20.985782 35.6341232,21.1545024 L26.5687204,24.7791469 Z" id="Shape" fill="#282455"></path>
                                <path d="M36.4094787,18.8341232 C36.4909953,19.2815166 36.2843602,19.4028436 35.9526066,19.0843602 L29.8009479,13.3440758 C29.6425423,13.2028366 29.5538625,12.9993614 29.5582374,12.7871782 C29.5626123,12.574995 29.6596039,12.3753481 29.8236967,12.2407583 L33.8654028,8.76018957 C34.2104265,8.46255924 34.557346,8.58578199 34.6388626,9.03317536 L36.4094787,18.8341232 Z" id="Shape" fill="#413A80"></path>
                                <path d="M32.464455,32.6066351 C32.3052133,33.0331754 31.9336493,33.0995261 31.636019,32.7545024 L26.4436019,26.7298578 C26.3000028,26.5932228 26.2404209,26.3902355 26.2873895,26.1976641 C26.3343582,26.0050926 26.4807078,25.8523325 26.67109,25.7971564 L35.6872038,22.1952607 C36.1099526,22.0265403 36.3260664,22.2369668 36.1668246,22.6635071 L32.464455,32.6066351 Z" id="Shape" fill="#413A80"></path>
                                <path d="M39.6872038,15.7061611 C39.9331968,16.129996 39.9155286,16.6570962 39.6417062,17.0635071 L38.0796209,19.1488152 C37.8066351,19.5127962 37.5109005,19.4445498 37.4388626,18.9971564 L35.8900474,10.4265403 C35.8085308,9.97914692 35.9450237,9.92606635 36.1914692,10.307109 L39.6872038,15.7061611 Z" id="Shape" fill="#413A80"></path>
                                <path d="M38.7336493,26.864455 C38.8649648,27.3411979 38.7311766,27.8517627 38.3829384,28.2028436 L34.1232227,32.0625592 C33.785782,32.3677725 33.6398104,32.2691943 33.7990521,31.842654 L36.9876777,23.2720379 C37.1469194,22.8454976 37.3933649,22.8492891 37.5374408,23.2815166 L38.7336493,26.864455 Z" id="Shape" fill="#413A80"></path>
                                <path d="M39.3933649,24.6445498 C39.3459716,25.0976303 39.1905213,25.1146919 39.0464455,24.6824645 L38.1042654,21.8919431 C37.970772,21.3986759 38.055703,20.8718272 38.3374408,20.4454976 L39.5601896,18.8075829 C39.8312796,18.4436019 40.0170616,18.5156398 39.9696682,18.9668246 L39.3933649,24.6445498 Z" id="Shape" fill="#413A80"></path>
                                <path d="M34.0777251,34.3563981 C33.8066351,34.7222749 33.4616114,34.8758294 33.3099526,34.7014218 C33.1582938,34.5270142 33.3099526,34.1327014 33.6473934,33.8274882 L35.5620853,32.0909953 C35.8995261,31.785782 35.9526066,31.8350711 35.6815166,32.1990521 L34.0777251,34.3563981 Z" id="Shape" fill="#413A80"></path>
                                <path d="M27.1090047,11.6796209 C27.3668246,12.0587678 27.2075829,12.4 26.7545024,12.4379147 L16.6957346,13.4767773 C16.242654,13.5241706 16.0606635,13.2398104 16.2900474,12.8473934 L21.2189573,4.41895735 C21.4483412,4.02654028 21.8464455,4.01137441 22.1042654,4.38672986 L27.1090047,11.6796209 Z" id="Shape" fill="#282455"></path>
                                <path d="M29.1810427,11.4957346 C29.0234855,11.6377145 28.8117252,11.7037052 28.6014037,11.676367 C28.3910821,11.6490289 28.2032288,11.5310953 28.0872038,11.3535545 L23.3175355,4.42085308 C23.0597156,4.04170616 23.2018957,3.8521327 23.6322275,4.0056872 L33.0654028,7.20379147 C33.4957346,7.34976303 33.5658768,7.71184834 33.2208531,8.00947867 L29.1810427,11.4957346 Z" id="Shape" fill="#413A80"></path>
                                <path d="M25.0464455,24.0758294 C24.9327014,24.5156398 24.5971564,24.5952607 24.3014218,24.250237 L16.492891,15.1772512 C16.1952607,14.8322275 16.3241706,14.5137441 16.7753555,14.4663507 L26.9838863,13.4123223 C27.1764703,13.3712149 27.3761325,13.4385296 27.5045154,13.5878489 C27.6328984,13.7371682 27.6695169,13.944666 27.6,14.12891 L25.0464455,24.0758294 Z" id="Shape" fill="#413A80"></path>
                                <path d="M15.3061611,12.6009479 C15.2214151,12.7764147 15.0509191,12.8946415 14.8568783,12.9124933 C14.6628375,12.930345 14.4736322,12.8452108 14.3582938,12.6881517 L9.1563981,6.65971564 C8.85876777,6.31469194 8.98009479,5.9563981 9.42559242,5.86350711 L19.814218,3.67582938 C20.2597156,3.58293839 20.436019,3.82748815 20.2066351,4.21990521 L15.3061611,12.6009479 Z" id="Shape" fill="#413A80"></path>
                                <path d="M23.6208531,2.96113744 C23.1905213,2.81516588 23.1658768,2.51943128 23.5658768,2.30521327 L25.8654028,1.07109005 C26.3074431,0.860841853 26.8306943,0.921188693 27.2132701,1.22654028 L32.0379147,5.48246445 C32.3791469,5.78388626 32.3052133,5.91090047 31.8748815,5.76303318 L23.6208531,2.96113744 Z" id="Shape" fill="#413A80"></path>
                                <path d="M10.3829384,4.65592417 C9.93744076,4.74881517 9.86161137,4.58957346 10.214218,4.30331754 L14.6616114,0.665402844 C15.0607077,0.37297418 15.5858078,0.316558462 16.0379147,0.517535545 L19.4047393,2.22369668 C19.8104265,2.43033175 19.7838863,2.67488152 19.3327014,2.76777251 L10.3829384,4.65592417 Z" id="Shape" fill="#413A80"></path>
                                <path d="M22.3317536,1.85023697 C21.8681742,2.06569698 21.33429,2.07122231 20.8663507,1.86540284 L18.2350711,0.528909953 C17.8199052,0.322274882 17.8691943,0.170616114 18.3222749,0.18957346 L24.036019,0.454976303 C24.4909953,0.475829384 24.5345972,0.669194313 24.1327014,0.883412322 L22.3317536,1.85023697 Z" id="Shape" fill="#413A80"></path>
                                <path d="M8.4,4.51563981 C8.04739336,4.80379147 7.64170616,4.89478673 7.48436019,4.72037915 C7.32701422,4.54597156 7.53744076,4.22559242 7.93933649,4.01137441 L10.3109005,2.7450237 C10.7127962,2.53080569 10.7526066,2.59146919 10.4,2.87962085 L8.4,4.51563981 Z" id="Shape" fill="#413A80"></path>
                                <path d="M5.35545024,33.3156398 C5.53175355,33.163981 5.92417062,33.3156398 6.22938389,33.6530806 L7.96587678,35.5677725 C8.27109005,35.9052133 8.22180095,35.9582938 7.85781991,35.6872038 L5.6985782,34.0834123 C5.33459716,33.8123223 5.17914692,33.4672986 5.35545024,33.3156398 Z" id="Shape" fill="#413A80"></path>
                                <path d="M35.3364929,7.49194313 C35.5127962,7.34028436 35.8312796,7.5450237 36.0454976,7.9450237 L37.3118483,10.3165877 C37.5260664,10.7184834 37.4654028,10.7582938 37.1772512,10.4056872 L35.5412322,8.4056872 C35.2606635,8.0549763 35.1601896,7.6436019 35.3364929,7.49194313 Z" id="Shape" fill="#413A80"></path>
                                <path d="M34.3507109,5.97914692 C34.7165877,6.25023697 34.8701422,6.59526066 34.6938389,6.74691943 C34.5175355,6.8985782 34.1251185,6.74691943 33.8199052,6.40947867 L32.0834123,4.49478673 C31.7781991,4.15734597 31.8274882,4.1042654 32.1914692,4.37535545 L34.3507109,5.97914692 Z" id="Shape" fill="#413A80"></path>
                                <path d="M4.50995261,31.6587678 C4.79810427,32.0113744 4.88909953,32.4170616 4.71279621,32.5744076 C4.53649289,32.7317536 4.21800948,32.521327 4.00379147,32.121327 L2.73744076,29.7478673 C2.52322275,29.3459716 2.58388626,29.3061611 2.87203791,29.6587678 L4.50995261,31.6587678 Z" id="Shape" fill="#413A80"></path>
                            </g>
                        </g>
                    </g>
                </g>
            </g>
        </g>
    </g>
</svg>