<?xml version="1.0" encoding="UTF-8"?>
<svg width="235px" height="26px" viewBox="0 0 235 26" version="1.1" xmlns="http://www.w3.org/2000/svg" xmlns:xlink="http://www.w3.org/1999/xlink">
    <!-- Generator: sketchtool 49.3 (51167) - http://www.bohemiancoding.com/sketch -->
    <title>E43A6E54-1D24-4A06-A53F-F1C316F1FDDE</title>
    <desc>Created with sketchtool.</desc>
    <defs></defs>
    <g id="Page-1" stroke="none" stroke-width="1" fill="none" fill-rule="evenodd">
        <g id="Alignment-TBG-Homepage-Copy" transform="translate(-520.000000, -1852.000000)" fill="#000000" fill-rule="nonzero">
            <g id="Cutomer-Spotlight" transform="translate(70.000000, 1838.000000)">
                <g id="Group-25" transform="translate(450.000000, 0.000000)">
                    <g id="Sirin" transform="translate(0.000000, 14.000000)">
                        <g id="sirin">
                            <path d="M96.4483031,12.5635714 L100.602999,12.5635714 C101.779314,12.639473 102.933362,12.2170583 103.783454,11.3994338 C104.633546,10.5818092 105.101468,9.44420115 105.073007,8.26428571 C105.093773,7.08989828 104.622115,5.96053201 103.772606,5.15052678 C102.923097,4.34052155 101.773474,3.92400052 100.602999,4.00214286 L95.1499605,4.00214286 L95.1499605,25.0714286 L91.6537096,25.0714286 L91.6537096,0.408571429 L100.621547,0.408571429 C102.749976,0.298754332 104.827317,1.08500774 106.350982,2.57710692 C107.874646,4.0692061 108.705834,6.13122617 108.643449,8.26428571 C108.728541,12.0218917 105.997181,15.2510836 102.281571,15.7857143 L110.053078,25.0714286 L105.41614,25.0714286 L96.4483031,14.2535714 L96.4483031,12.5635714 Z" id="Shape"></path>
                            <path d="M74.7659826,6.74142857 C74.2744672,4.51285714 71.8725335,3.56571429 69.7209945,3.60285714 C68.0306323,3.54804972 66.3985581,4.22471959 65.2417127,5.46 C64.7585654,6.12079744 64.5431956,6.94024726 64.6389108,7.75357143 C64.8151144,10.2978571 67.597277,10.6135714 70.203236,10.8642857 C73.5882005,11.2914286 77.789266,12.1735714 78.7352013,16.1292857 C78.8440897,16.6643165 78.9030779,17.2083228 78.9114049,17.7542857 C78.9114049,22.5178571 74.1817285,25.2757143 69.7395422,25.2757143 C65.9279795,25.2757143 61.3095896,23.0192857 60.8551697,18.5992857 L60.8551697,17.9307143 L64.4534333,17.8564286 L64.4534333,18.3857143 L64.4534333,18.2464286 C64.7038279,20.54 67.4859905,21.7471429 69.7766377,21.7471429 C72.4196922,21.7471429 75.3409629,20.2614286 75.3409629,17.7171429 C75.3377015,17.432603 75.3034956,17.1492653 75.2389503,16.8721429 C74.812352,15.015 72.2805841,14.6807143 69.8044594,14.4392857 C65.9558011,14.0492857 61.4579716,13.2042857 61.0591949,8.05071429 C60.8991122,6.37072317 61.3794798,4.692266 62.4039069,3.35214286 C64.2868122,1.19612408 67.0385218,0.00264904436 69.8971981,0.102142857 C73.7087609,0.102142857 77.6594317,2.08 78.2900552,6.60214286 L74.7659826,6.74142857 Z" id="Shape"></path>
                            <polygon id="Shape" points="122.906669 25.0714286 126.467837 25.0714286 126.467837 7.8 138.384767 25.0714286 141.213299 25.0714286 141.213299 0.352857143 137.679953 0.352857143 137.679953 17.7635714 125.66101 0.352857143 122.906669 0.315714286"></polygon>
                            <polygon id="Shape" points="155.652723 0.39 155.652723 25.0714286 169.480071 25.0714286 169.480071 24.505 156.218429 24.505 156.218429 0.39"></polygon>
                            <path d="M197.459353,24.5421429 L207.864641,24.5421429 C215.728887,24.5421429 215.728887,12.1457143 207.864641,12.1457143 L197.459353,12.1457143 L197.459353,24.5421429 Z M197.459353,11.5421429 L206.872336,11.5421429 C208.949241,11.6201271 210.841552,10.3544795 211.564917,8.40357143 C212.095066,7.00363002 212.095066,5.45779856 211.564917,4.05785714 C210.839501,2.11395623 208.952768,0.853281576 206.88161,0.928571429 L197.459353,0.928571429 L197.459353,11.5421429 Z M212.056433,3.84428571 C212.619644,5.38207257 212.619644,7.07007029 212.056433,8.60785714 C211.551088,9.98470311 210.505836,11.0950244 209.162983,11.6814286 C216.396606,13 215.979282,25.0714286 207.864641,25.0714286 L196.893646,25.0714286 L196.893646,0.39 L206.872336,0.39 C209.173323,0.306346765 211.266338,1.71596822 212.056433,3.88142857 L212.056433,3.84428571 Z" id="Shape"></path>
                            <path d="M233.071034,5.57142857 C232.876496,4.57054969 232.411368,3.64231894 231.726322,2.88785714 C230.069392,1.31354546 227.840472,0.487960256 225.559195,0.603571429 C223.231452,0.603571429 220.588398,1.53214286 219.067482,3.38928571 C218.223279,4.45735215 217.830451,5.81400665 217.973165,7.16857143 C218.603788,15.8228571 232.468232,9.02571429 234.165351,16.9464286 C235.296764,22.1742857 230.325967,25.3035714 225.633386,25.3035714 C222.035122,25.3035714 217.667127,23.2514286 217.240529,19.2678571 L217.240529,19.0171429 L217.806235,18.9428571 L217.806235,19.1935714 C218.195738,22.9078571 222.322612,24.765 225.670481,24.765 C229.97356,24.765 234.629045,21.9792857 233.608919,17.0671429 C232.023086,9.72214286 218.093725,16.4357143 217.453828,7.215 C217.299631,5.73998244 217.71434,4.26173334 218.613062,3.08285714 C222.211326,-1.56 232.366219,-0.975 233.562549,5.41357143 L233.562549,5.69214286 L233.033938,5.79428571 L233.071034,5.57142857 Z" id="Shape"></path>
                            <rect id="Rectangle-path" x="113.920284" y="0.39" width="3.60753749" height="24.6814286"></rect>
                            <rect id="Rectangle-path" x="82.9548145" y="0.39" width="3.60753749" height="24.6814286"></rect>
                            <polygon id="Shape" points="182.686069 0 172.781571 25.0714286 173.375099 25.0714286 176.481847 17.3921429 176.732242 16.77 176.732242 16.77 177.242305 15.5628571 182.97356 0.742857143 188.695541 15.4607143 189.465272 17.3828571 192.599842 25.0714286 193.19337 25.0714286 183.288871 0"></polygon>
                            <path d="M22.2573007,7.28928571 C22.8586949,7.49376587 23.5106816,7.49376587 24.1120758,7.28928571 C24.3948907,8.44086301 25.0462976,9.46813856 25.9668508,10.2142857 C25.5680742,13.4364286 24.3624704,14.6157143 23.1846882,14.6157143 C21.3299132,14.6157143 20.5787293,10.855 20.523086,10.205 C21.4238395,9.46600522 22.0374699,8.43431578 22.2573007,7.28928571 Z M20.597277,18.7757143 C20.8476717,19.9085714 21.6081294,22.3692857 23.2310576,22.36 C24.3624704,22.36 25.6051697,20.9207143 25.957577,18.8314286 C25.0858327,18.2371429 24.5664957,17.095 24.1769929,15.4328571 C23.551732,15.6266593 22.8825616,15.6266593 22.2573007,15.4328571 C22.1388993,16.7152145 21.5469642,17.9072183 20.597277,18.7757143 Z M10.3960142,22.7685714 C11.0359116,23.79 12.3342541,25.4335714 13.7717048,24.9042857 C14.2353986,24.7371429 14.2724941,23.6971429 14.1148382,22.7964286 C12.9532041,21.8956301 12.1217463,20.6354246 11.75,19.2121429 C11.398054,19.3098875 11.0261765,19.3098875 10.6742305,19.2121429 C10.8040647,21.0228571 10.8040647,22.1371429 10.3774665,22.7685714 L10.3960142,22.7685714 Z M4.91515391,19.2678571 C5.4808603,22.0535714 5.53650355,22.3414286 5.4437648,22.7035714 C6.32478295,24.3935714 7.25217048,25.0435714 8.41140489,24.9971429 C8.86582478,24.9971429 8.58760852,23.9664286 7.97553275,22.8242857 C6.92325308,21.8138176 6.10084404,20.5881307 5.56432518,19.2307143 C5.35600938,19.3053687 5.13060702,19.3182652 4.91515391,19.2678571 Z M1.40035517,19.2678571 C2.68014996,24.7371429 5.10990529,24.4957143 4.97079716,24.2357143 C4.60276432,23.5487377 4.09017097,22.9499486 3.46842936,22.4807143 C2.3277427,21.3571429 1.47454617,18.8592857 1.40962904,19.2678571 L1.40035517,19.2678571 Z M17.2215864,22.8242857 C17.9356748,25.1178571 19.5956985,25.1178571 20.2726914,25.0157143 C21.2000789,24.8671429 21.5524862,24.0871429 21.7565114,22.75 C20.7320551,21.8131937 20.0552819,20.5561277 19.8368193,19.1842857 C19.3341753,19.3074753 18.8092738,19.3074753 18.3066298,19.1842857 C18.2417127,20.5864286 18.0469613,22.0721429 17.2215864,22.8242857 Z M6.09293607,18.7571429 C6.58445146,20.1035714 8.18883189,22.4714286 9.30169692,22.4714286 C9.78393844,22.4714286 10.1641673,21.5428571 9.83958169,18.8778571 C8.88211385,18.0506112 8.22909546,16.9259857 7.98480663,15.6835714 C7.58827048,15.8550286 7.13864349,15.8550286 6.74210734,15.6835714 C6.7679831,16.7467491 6.54902805,17.8016169 6.10220994,18.7664286 L6.09293607,18.7571429 Z M1.98460931,18.7571429 C2.33701657,19.8157143 3.2644041,21.905 4.33089976,22.3042857 C4.87805841,22.5085714 4.85951066,21.7192857 4.13614838,18.8871429 C3.36320435,17.9696637 2.81959682,16.8810607 2.55031571,15.7114286 C2.37290315,15.7482177 2.1898435,15.7482177 2.01243094,15.7114286 C2.08662194,16.7142857 2.01243094,18.4785714 1.99388319,18.7571429 L1.98460931,18.7571429 Z M12.4084451,18.8221429 C12.6031965,19.4071429 13.8737174,21.9235714 15.3482636,22.2392857 C17.2030387,22.6385714 17.2957774,20.2614286 17.3421468,18.8592857 C16.3032089,18.0692257 15.587696,16.9269053 15.3297159,15.6464286 C14.7742559,15.8439983 14.1647479,15.8240977 13.6233228,15.5907143 C13.3914759,17.2621429 12.9834254,18.265 12.417719,18.8221429 L12.4084451,18.8221429 Z M11.1286504,18.4228571 C11.972573,18.4228571 12.6124704,17.2435714 12.8814128,15.0985714 C12.2415154,14.4857143 11.453236,13.2414286 11.2677585,10.5485714 C10.9130992,10.6494904 10.5373744,10.6494904 10.1827151,10.5485714 C9.74684294,12.9535714 9.35734017,14.4207143 8.6339779,15.1914286 C8.80090766,15.8321429 9.69119968,18.3485714 11.1286504,18.4228571 Z M3.13456985,15.1821429 C3.867206,17.6985714 4.47000789,18.4414286 4.98934491,18.4321429 C6.13003157,18.4321429 5.91673244,16.4635714 6.00019732,15.08 C5.5550513,14.5414286 4.8409629,13.2228571 4.8409629,10.5764286 C4.63188834,10.6365418 4.41014007,10.6365418 4.20106551,10.5764286 C3.47770324,14.495 3.43133386,14.6992857 3.13456985,15.1821429 Z M0.686266772,10.6135714 C0.370955012,10.4464286 -0.908839779,15.99 1.14068666,18.1814286 C1.40035517,18.46 1.41890292,15.2471429 1.41890292,15.2471429 C0.741910024,14.0957143 1.03867403,10.7807143 0.686266772,10.6135714 Z M16.0716259,15.2564286 C16.1829124,15.665 16.9990134,18.4228571 18.9465272,18.4507143 C20.3283346,18.4507143 21.1537096,16.965 21.5061168,14.9221429 C20.3967239,13.7177805 19.726714,12.1731544 19.6049724,10.5392857 C19.0658272,10.671888 18.5026416,10.671888 17.9634964,10.5392857 C17.5461721,13.0464286 16.9804657,14.4671429 16.0716259,15.2285714 L16.0716259,15.2564286 Z M5.56432518,10.2142857 C5.63851618,12.4985714 6.27841358,14.8571429 7.33563536,14.8571429 C8.39285714,14.8571429 9.06985004,12.3407143 9.4593528,10.1214286 C8.79245652,9.35333904 8.45871439,8.3508345 8.53196527,7.33571429 C8.11934938,7.49238255 7.65911715,7.46188713 7.27071823,7.25214286 C7.2058011,7.42857143 6.49171271,9.75928571 5.56432518,10.2142857 Z M2.2906472,14.9128571 C2.92127072,14.9128571 3.58898974,10.0935714 3.58898974,10.0935714 C3.15437867,9.25343354 3.02959162,8.28674333 3.23658248,7.36357143 C3.04683802,7.40474921 2.84897154,7.38526209 2.67087609,7.30785714 C2.30935252,8.25911393 1.89445871,9.18916644 1.4281768,10.0935714 C1.22415154,11.5235714 1.43745067,14.9221429 2.2906472,14.9128571 Z M12.0560379,10.2142857 C12.1487766,11.8485714 12.9834254,14.8571429 14.4579716,14.8571429 C16.2014601,14.9128571 16.804262,12.6007143 17.1937648,10.14 C16.3325648,9.41826266 15.7950301,8.3819368 15.7006709,7.26142857 C15.1201577,7.48051723 14.4766135,7.46048513 13.9108129,7.20571429 C13.6351794,8.3836053 12.9841258,9.4396585 12.0560379,10.2142857 Z M13.2987372,6.73214286 C12.6160526,5.76458851 12.3954038,4.54437266 12.6959353,3.39857143 C12.3910218,3.47086287 12.0734613,3.47086287 11.7685478,3.39857143 C11.1589869,4.70637069 10.3132179,5.89007009 9.2738753,6.89 C9.2738753,7.215 9.39443567,9.75928571 10.7391476,9.79642857 C11.7407261,9.815 12.5568272,8.645 13.2894633,6.70428571 L13.2987372,6.73214286 Z M6.91831097,3.39857143 C6.7596722,3.43543795 6.59470823,3.43543795 6.43606946,3.39857143 C6.38970008,3.42642857 4.63693765,6.5 3.98776638,6.89928571 C3.72809787,8.24571429 3.72809787,9.685 4.55347277,9.79642857 C5.37884767,9.90785714 5.81471981,9.15571429 6.71428571,6.63 C6.34685364,5.56903233 6.42036314,4.40476133 6.91831097,3.39857143 Z M3.20876085,3.45428571 C1.23342541,4.79142857 0.343133386,9.41571429 0.779005525,9.59214286 C1.61258784,8.6675344 2.1264048,7.49857384 2.24427782,6.25857143 C2.18863457,5.34857143 3.55189424,3.36142857 3.24585635,3.45428571 L3.20876085,3.45428571 Z M21.5339384,6.72285714 C20.641467,5.82360185 20.1355683,4.61056101 20.1243094,3.34285714 C19.6407434,3.44040475 19.1426031,3.44040475 18.6590371,3.34285714 C18.2875699,4.71719468 17.5237275,5.9531657 16.4611287,6.89928571 C16.6651539,8.255 17.3328729,9.685 18.6219416,9.77785714 C20.6250987,9.91714286 21.1815312,7.95785714 21.5339384,6.72285714 Z M4.0526835,3.08285714 C2.68014996,5.005 2.65232833,6.63928571 3.17166535,6.64857143 C3.85793212,6.64857143 5.61069455,3.46357143 5.95382794,2.84142857 C5.83326756,2.23785714 7.28926598,0.807857143 6.73283346,0.761428571 C5.98164957,0.78 4.19179163,2.88785714 4.0526835,3.08285714 Z M35.8342541,19.2307143 C35.4823082,19.328459 35.1104306,19.328459 34.7584846,19.2307143 C34.3867383,20.653996 33.5552805,21.9142016 32.3936464,22.815 C32.2359905,23.7435714 32.273086,24.7557143 32.7367798,24.9228571 C34.1742305,25.4428571 35.472573,23.8085714 36.1124704,22.7871429 C35.6858721,22.1371429 35.6858721,21.0228571 35.8342541,19.2307143 Z M40.9627072,19.2307143 C40.4137923,20.5957128 39.5752629,21.8250137 38.5051302,22.8335714 C37.8930545,23.9757143 37.5777427,24.9878571 38.0692581,25.0064286 C39.2377664,25.0064286 40.1651539,24.4028571 41.0368982,22.7128571 C40.9441594,22.3414286 41.0368982,22.0535714 41.5655091,19.2771429 C41.3640359,19.3157775 41.1559088,19.2997473 40.9627072,19.2307143 Z M43.0215075,22.4807143 C42.3997659,22.9499486 41.8871725,23.5487377 41.5191397,24.2357143 C41.3985793,24.4957143 43.8097869,24.7464286 45.0895817,19.2678571 C45.0153907,18.8592857 44.1621942,21.3571429 43.0122336,22.4807143 L43.0215075,22.4807143 Z M28.183307,19.2121429 C27.6806631,19.3353325 27.1557616,19.3353325 26.6531176,19.2121429 C26.4346549,20.5839848 25.7578818,21.8410508 24.7334254,22.7778571 C24.9467245,24.0685714 25.2713102,24.895 26.2172455,25.0435714 C26.8942384,25.1457143 28.554262,25.1457143 29.2683504,22.8521429 C28.4337017,22.0721429 28.2482242,20.5864286 28.1740331,19.2121429 L28.183307,19.2121429 Z M39.7663773,15.6371429 C39.3698411,15.8086 38.9202141,15.8086 38.523678,15.6371429 C38.2793892,16.8795571 37.6263708,18.0041826 36.6689029,18.8314286 C36.3535912,21.45 36.73382,22.4064286 37.2067877,22.425 C38.3289266,22.425 39.9240331,20.0757143 40.4155485,18.7107143 C39.9669305,17.7494892 39.744829,16.6979258 39.7663773,15.6371429 Z M44.468232,15.73 C44.2908195,15.7667892 44.1077598,15.7667892 43.9303473,15.73 C43.6610662,16.8996321 43.1174586,17.9882351 42.3445146,18.9057143 C41.6211523,21.7378571 41.6026046,22.5271429 42.1497632,22.3228571 C43.2162589,21.9235714 44.1436464,19.825 44.4960537,18.7757143 C44.5146014,18.4785714 44.394041,16.7142857 44.4589582,15.73 L44.468232,15.73 Z M32.8573402,15.6 C32.3159151,15.8333834 31.7064071,15.8532841 31.1509471,15.6557143 C30.892967,16.9361911 30.1774541,18.0785114 29.1385162,18.8685714 C29.1848856,20.2614286 29.2961721,22.6478571 31.1323994,22.2485714 C32.6069455,21.9328571 33.914562,19.4164286 34.0722178,18.8314286 C33.4694159,18.265 33.0984609,17.2621429 32.8573402,15.6 Z M37.855959,15.21 C37.1233228,14.4114286 36.7430939,12.9442857 36.3072218,10.5671429 C35.9525625,10.6680618 35.5768377,10.6680618 35.2221784,10.5671429 C35.0367009,13.2228571 34.2947908,14.5042857 33.6085241,15.1171429 C33.8774665,17.2621429 34.5359116,18.4785714 35.3612865,18.4414286 C36.7894633,18.3485714 37.6890292,15.8321429 37.855959,15.21 Z M42.2795975,10.5671429 C42.0705229,10.627256 41.8487746,10.627256 41.6397001,10.5671429 C41.6397001,13.2414286 40.9256117,14.5228571 40.4804657,15.0707143 C40.5453828,16.4542857 40.3413575,18.4135714 41.4913181,18.4228571 C42.0292028,18.4228571 42.6320047,17.6892857 43.3460931,15.1728571 C43.058603,14.6992857 43.0122336,14.495 42.2795975,10.5671429 Z M45.0617601,15.21 C45.0617601,15.21 45.0617601,18.4228571 45.3399763,18.1442857 C47.3895028,15.9528571 46.109708,10.4092857 45.7943962,10.5764286 C45.4790845,10.7435714 45.7480268,14.0957143 45.0803078,15.2471429 L45.0617601,15.21 Z M28.5264404,10.5207143 C27.9872952,10.6533166 27.4241097,10.6533166 26.8849645,10.5207143 C26.7530477,12.1383029 26.0837186,13.6650138 24.98382,14.8571429 C25.3362273,16.9 26.1616022,18.4042857 27.5434096,18.3857143 C29.4631018,18.3857143 30.3255722,15.6 30.418311,15.1914286 C29.5094712,14.4671429 28.9437648,13.0464286 28.5264404,10.5207143 Z M39.2284925,7.23357143 C38.8400936,7.4433157 38.3798614,7.47381112 37.9672455,7.31714286 C38.0404963,8.33226307 37.7067542,9.33476761 37.0398579,10.1028571 C37.4015391,12.35 38.0228887,14.8571429 39.1357537,14.8571429 C40.2486188,14.8571429 40.8328729,12.4614286 40.9070639,10.2142857 C39.9982242,9.75928571 39.2841358,7.42857143 39.2284925,7.23357143 Z M45.0617601,10.1214286 C44.5954781,9.21702358 44.1805843,8.28697107 43.8190608,7.33571429 C43.6409653,7.41311923 43.4430988,7.43260635 43.2533544,7.39142857 C43.4603452,8.31460047 43.3355582,9.28129068 42.9009471,10.1214286 C42.9009471,10.1214286 43.5872139,14.8571429 44.1992897,14.9128571 C45.0524862,14.9221429 45.2657853,11.5235714 45.0617601,10.1214286 Z M32.5420284,7.20571429 C31.9908153,7.45097012 31.3664419,7.47424774 30.7985399,7.27071429 C30.7041806,8.39122252 30.166646,9.42754837 29.3054459,10.1492857 C29.6949487,12.61 30.2977506,14.9221429 32.0412391,14.8664286 C33.4879637,14.82 34.3504341,11.83 34.4431728,10.2235714 C33.4961886,9.45349349 32.8282042,8.39314199 32.5420284,7.20571429 Z M35.7322415,9.79642857 C37.0769534,9.79642857 37.1882399,7.215 37.1975138,6.89 C36.1648869,5.86759524 35.3314826,4.66155246 34.7399369,3.33357143 C34.4350233,3.40586287 34.1174628,3.40586287 33.8125493,3.33357143 C34.1130808,4.47937266 33.892432,5.69958851 33.2097474,6.66714286 C33.9331097,8.645 34.7492107,9.815 35.7322415,9.79642857 Z M39.7663773,6.63 C40.6937648,9.15571429 41.2223757,9.88 41.9271902,9.79642857 C42.6320047,9.71285714 42.7525651,8.24571429 42.4928966,6.89928571 C41.8344515,6.48142857 40.0909629,3.42642857 40.0538674,3.35214286 C39.8952286,3.38900938 39.7302647,3.38900938 39.5716259,3.35214286 C40.0794832,4.37265884 40.1498139,5.55639318 39.7663773,6.63 Z M44.245659,6.25857143 C44.3635321,7.49857384 44.877349,8.6675344 45.7109313,9.59214286 C46.1560773,9.41571429 45.2565114,4.79142857 43.2533544,3.445 C42.9380426,3.36142857 44.3013023,5.34857143 44.245659,6.25857143 Z M27.8772691,9.75928571 C29.1570639,9.65714286 29.8340568,8.23642857 30.0380821,6.88071429 C28.9686641,5.93705291 28.1982216,4.70083456 27.8216259,3.32428571 C27.3380599,3.42183332 26.8399196,3.42183332 26.3563536,3.32428571 C26.3450946,4.59198958 25.8391959,5.80503043 24.9467245,6.70428571 C25.3084057,7.95785714 25.8648382,9.91714286 27.8772691,9.75928571 Z M39.7571034,0.761428571 C39.191397,0.817142857 40.6844909,2.23785714 40.5082873,2.84142857 C40.8699684,3.46357143 42.613457,6.65785714 43.2904499,6.64857143 C43.8190608,6.64857143 43.7912391,5.005 42.4187056,3.09214286 C42.2888713,2.88785714 40.5082873,0.78 39.7571034,0.761428571 Z" id="Shape"></path>
                            <path d="M11.0359116,1.22571429 C11.0359116,1.22571429 11.2955801,0.52 10.8782557,0.492142857 C10.2569061,0.436428571 8.50414365,2.86 7.66949487,3.22214286 C7.56748224,3.50071429 6.52880821,6.435 7.86424625,6.63928571 C9.19968429,6.84357143 10.26618,4.49428571 11.0359116,3.07357143 C10.6742305,2.665 10.785517,1.97785714 11.0359116,1.22571429 Z" id="Shape"></path>
                            <path d="M17.1473954,1.07714286 C17.1772682,0.8754925 17.1174011,0.670861459 16.9835846,0.517222576 C16.849768,0.363583692 16.6554396,0.276365147 16.4518548,0.278571429 C15.691397,0.222857143 14.5970797,2.65571429 13.4934886,3.06428571 C13.1967245,4.64285714 13.4471192,6.40714286 14.7454617,6.55571429 C16.4425809,6.75071429 17.3421468,4.615 17.8800316,3.08285714 C17.3516463,2.55563877 17.0834084,1.8212925 17.1473954,1.07714286 Z" id="Shape"></path>
                            <path d="M35.4911208,1.22571429 C35.4911208,1.22571429 35.2407261,0.529285714 35.6580505,0.492142857 C36.2701263,0.436428571 38.0228887,2.86 38.8575375,3.22214286 C38.9595501,3.50071429 39.9982242,6.435 38.6627861,6.63928571 C37.3273481,6.84357143 36.2608524,4.50357143 35.4911208,3.07357143 C35.8528019,2.665 35.7322415,1.97785714 35.4911208,1.22571429 Z" id="Shape"></path>
                            <path d="M29.3796369,1.07714286 C29.3497642,0.8754925 29.4096312,0.670861459 29.5434478,0.517222576 C29.6772644,0.363583692 29.8715928,0.276365147 30.0751776,0.278571429 C30.8356354,0.222857143 31.9299526,2.65571429 33.0335438,3.06428571 C33.3303078,4.57785714 33.0799132,6.36071429 31.7815706,6.50928571 C30.0844515,6.70428571 29.1848856,4.56857143 28.6470008,3.03642857 C29.1625743,2.52006799 29.4297467,1.80556993 29.3796369,1.07714286 Z" id="Shape"></path>
                            <path d="M23.277427,0.232142857 C21.8585241,0.176428571 22.3500395,2.47 20.894041,3.14785714 C20.968232,4.34571429 21.4041042,6.57428571 23.2125099,6.565 C25.3269534,6.565 25.5958958,3.705 25.6515391,3.14785714 C24.4923047,2.72071429 24.5015785,0.278571429 23.277427,0.232142857 Z" id="Shape"></path>
                        </g>
                    </g>
                </g>
            </g>
        </g>
    </g>
</svg>