<?xml version="1.0" encoding="UTF-8"?>
<svg width="111px" height="28px" viewBox="0 0 111 28" version="1.1" xmlns="http://www.w3.org/2000/svg" xmlns:xlink="http://www.w3.org/1999/xlink">
    <!-- Generator: sketchtool 49.3 (51167) - http://www.bohemiancoding.com/sketch -->
    <title>BE2BD7F8-1465-4CB5-9AD2-078478C9FAF7</title>
    <desc>Created with sketchtool.</desc>
    <defs></defs>
    <g id="Page-1" stroke="none" stroke-width="1" fill="none" fill-rule="evenodd">
        <g id="Alignment-TBG-Homepage-Copy" transform="translate(-520.000000, -2161.000000)" fill="#7324F0">
            <g id="Cutomer-Spotlight" transform="translate(70.000000, 1838.000000)">
                <g id="Group-24" transform="translate(450.000000, 311.000000)">
                    <g id="Stox" transform="translate(0.000000, 12.000000)">
                        <g id="stox">
                            <path d="M111,2.15471838 L111,0 C103.605819,0.011503225 97.4752292,5.68883776 96.9495326,13.0112978 C96.4233394,5.6890021 90.2925845,0.0121605522 82.8987342,0 L82.8987342,2.15471838 C89.4881495,2.15471838 94.8301939,7.4581981 94.8301939,14.0004108 C94.8301939,20.5427879 89.4881495,25.8462676 82.8987342,25.8462676 L82.8987342,28 C90.29275,27.9878394 96.4236705,22.3106692 96.9500292,14.9880449 C97.4757258,22.3105049 103.605984,27.9878394 111,28 L111,25.845939 C104.410254,25.845939 99.0683747,20.5422949 99.0683747,14.0000822 C99.0683747,7.45770511 104.410254,2.15422538 111,2.15422538 L111,2.15471838 Z" id="Fill-1"></path>
                            <polyline id="Fill-3" points="36.5316456 28 36.5316456 26.413952 36.4649268 14 33.721519 14 33.721519 28"></polyline>
                            <path d="M63.2266936,25.845269 C56.6604517,25.844776 51.3379249,20.5406078 51.3384197,13.9978637 C51.3390794,7.45610555 56.6612763,2.15308769 63.2266936,2.15243036 C69.7927706,2.15243036 75.1154623,7.45610555 75.1154623,13.9983567 C75.1154623,20.5407721 69.7927706,25.844283 63.2266936,25.844283 L63.2266936,25.845269 Z M63.2266936,0 C55.4667095,0.000492998251 49.1765555,6.26913009 49.1772152,14.000986 C49.17771,21.7331706 55.4690184,28.000493 63.2290026,28 C70.9886569,27.9993427 77.2788109,21.7311986 77.278481,13.999507 C77.26941,6.27093775 70.9832143,0.00821663752 63.2266936,0 Z" id="Fill-5"></path>
                            <path d="M25.6870497,0 C18.0064448,0.00838092108 11.7819685,6.27106528 11.7731495,13.9994248 C11.7654736,20.5386796 6.49884774,25.838051 0,25.8457746 L0,28 C7.68093153,27.9912904 13.9054078,21.7281131 13.9139002,13.9994248 C13.9215761,7.46033442 19.1883653,2.16145598 25.6870497,2.15471838 L43.556962,2.15471838 L43.556962,0 L25.6870497,0 Z" id="Fill-7"></path>
                        </g>
                    </g>
                </g>
            </g>
        </g>
    </g>
</svg>