<?xml version="1.0" encoding="UTF-8"?>
<svg width="225px" height="37px" viewBox="0 0 225 37" version="1.1" xmlns="http://www.w3.org/2000/svg" xmlns:xlink="http://www.w3.org/1999/xlink">
    <!-- Generator: sketchtool 49.3 (51167) - http://www.bohemiancoding.com/sketch -->
    <title>3B30684B-ED23-4A44-8E11-D9F559EBF431</title>
    <desc>Created with sketchtool.</desc>
    <defs></defs>
    <g id="Page-1" stroke="none" stroke-width="1" fill="none" fill-rule="evenodd" fill-opacity="0.199999988">
        <g id="Mobile-Contact-form-erroe" transform="translate(-95.000000, -2537.000000)" fill="#C2BAAB">
            <g id="team" transform="translate(0.000000, 2251.000000)">
                <g id="visual" transform="translate(215.500000, 304.500000) scale(1, -1) rotate(-90.000000) translate(-215.500000, -304.500000) translate(197.000000, 184.000000)">
                    <polygon id="Rectangle-4-Copy-16" points="0 5 2 5 2 240.414062 0 240.414062"></polygon>
                    <polygon id="Rectangle-4-Copy-17" points="7 18 9 18 9 240.414062 7 240.414062"></polygon>
                    <polygon id="Rectangle-4-Copy-18" points="14 38 16 38 16 240.414062 14 240.414062"></polygon>
                    <polygon id="Rectangle-4" points="21 30 23 30 23 240.414062 21 240.414062"></polygon>
                    <polygon id="Rectangle-4" points="28 0 30 0 30 240.414062 28 240.414062"></polygon>
                    <polygon id="Rectangle-4" points="35 13 37 13 37 240.414062 35 240.414062"></polygon>
                </g>
            </g>
        </g>
    </g>
</svg>