<svg xmlns="http://www.w3.org/2000/svg" viewBox="0 0 134.49 178.52"><defs><style>.cls-1{fill:#fff;}</style></defs><g id="Слой_2" data-name="Слой 2"><g id="Layer_1" data-name="Layer 1"><path class="cls-1" d="M42.28,178.52h87.28a4.94,4.94,0,0,0,4.93-4.94V4.94A4.94,4.94,0,0,0,129.56,0H4.94A4.94,4.94,0,0,0,0,4.94v169.3a4,4,0,0,0,4,4Zm28-163a2.42,2.42,0,1,1,4.84.07V49.35a2.42,2.42,0,1,1-4.84.08Zm-9.58,0a2.43,2.43,0,0,1,2.87-2.38,2.5,2.5,0,0,1,2,2.5V49.31a2.5,2.5,0,0,1-2,2.49,2.42,2.42,0,0,1-2.87-2.37Zm-9,3.54a2.5,2.5,0,0,1,2-2.5A2.42,2.42,0,0,1,56.54,19V45a2.42,2.42,0,1,1-4.83.07ZM48,37.06a2.43,2.43,0,0,1-3.2,2.3A2.47,2.47,0,0,1,43.11,37V27.76a2.45,2.45,0,0,1,1.64-2.37A2.42,2.42,0,0,1,48,27.68ZM83.6,100.34a16.44,16.44,0,1,1-18-18A16.49,16.49,0,0,1,83.6,100.34ZM84.34,45a2.43,2.43,0,0,1-2.87,2.38,2.5,2.5,0,0,1-2-2.5V19.1a2.5,2.5,0,0,1,2-2.5A2.42,2.42,0,0,1,84.34,19Zm8.23-8a2.43,2.43,0,0,1-3.2,2.3A2.47,2.47,0,0,1,87.73,37V27.76a2.45,2.45,0,0,1,1.64-2.37,2.42,2.42,0,0,1,3.2,2.29Z"/></g></g></svg>