<svg xmlns="http://www.w3.org/2000/svg" viewBox="0 0 27.56 19.12"><defs><style>.cls-1{fill:#fff;}</style></defs><g id="Слой_2" data-name="Слой 2"><g id="Layer_1" data-name="Layer 1"><path class="cls-1" d="M23.54,18.82a1.12,1.12,0,0,1-.76.3,1.15,1.15,0,0,1-.78-.3,1,1,0,0,1,0-1.46A10.64,10.64,0,0,0,22,1.77,1,1,0,0,1,22,.31a1.12,1.12,0,0,1,1.54,0A12.65,12.65,0,0,1,23.54,18.82ZM19.94,3.7a1.1,1.1,0,0,0-1.54,0,1,1,0,0,0,0,1.46,6,6,0,0,1,0,8.78,1,1,0,0,0,0,1.46,1.11,1.11,0,0,0,.78.31,1.08,1.08,0,0,0,.76-.31,7.83,7.83,0,0,0,2.55-5.84A8,8,0,0,0,19.94,3.7ZM5.57,1.77a1,1,0,0,0,0-1.46A1.12,1.12,0,0,0,4,.31,12.65,12.65,0,0,0,4,18.82a1.13,1.13,0,0,0,.75.3,1.25,1.25,0,0,0,.79-.3,1,1,0,0,0,0-1.46A10.64,10.64,0,0,1,5.57,1.77ZM9.14,5.18a1,1,0,0,0,0-1.45,1.1,1.1,0,0,0-1.54,0,8,8,0,0,0,0,11.7,1.15,1.15,0,0,0,.78.3,1.12,1.12,0,0,0,.76-.3,1,1,0,0,0,0-1.46A6,6,0,0,1,9.14,5.18Zm4.64,1a3.51,3.51,0,0,0-3.6,3.41A3.51,3.51,0,0,0,13.78,13a3.51,3.51,0,0,0,3.6-3.42A3.51,3.51,0,0,0,13.78,6.15Z"/></g></g></svg>