<svg xmlns="http://www.w3.org/2000/svg" xmlns:xlink="http://www.w3.org/1999/xlink" viewBox="0 0 75.53 91.3"><defs><style>.cls-1,.cls-2,.cls-3{opacity:0.8;}.cls-1{fill:url(#linear-gradient);}.cls-2{fill:url(#linear-gradient-2);}.cls-3{fill:url(#linear-gradient-3);}</style><linearGradient id="linear-gradient" x1="11.35" y1="19.57" x2="68.68" y2="46.31" gradientUnits="userSpaceOnUse"><stop offset="0" stop-color="#2e318a"/><stop offset="0.75" stop-color="#00a6e7"/><stop offset="0.94" stop-color="#fff"/></linearGradient><linearGradient id="linear-gradient-2" x1="11.89" y1="30.5" x2="60.8" y2="79.41" gradientUnits="userSpaceOnUse"><stop offset="0" stop-color="#fffdf0"/><stop offset="0.24" stop-color="#dd0384"/><stop offset="1" stop-color="#802988"/></linearGradient><linearGradient id="linear-gradient-3" x1="40.9" y1="40.54" x2="70.29" y2="69.92" gradientUnits="userSpaceOnUse"><stop offset="0" stop-color="#2e318a"/><stop offset="0.6" stop-color="#00a6e7"/><stop offset="0.94" stop-color="#fff"/></linearGradient></defs><g id="Слой_2" data-name="Слой 2"><g id="Layer_1" data-name="Layer 1"><path class="cls-1" d="M7.85,53.51A7.86,7.86,0,0,1,2.3,40.1L40.1,2.3a7.85,7.85,0,0,1,11.11,0l22,22A7.86,7.86,0,0,1,62.12,35.43L45.65,19,13.41,51.21A7.87,7.87,0,0,1,7.85,53.51Z"/><path class="cls-2" d="M45.65,91.3A7.79,7.79,0,0,1,40.1,89L2.3,51.21A7.86,7.86,0,0,1,13.41,40.1L45.65,72.34,59.29,58.71a7.85,7.85,0,0,1,11.1,11.1L51.21,89A7.83,7.83,0,0,1,45.65,91.3Z"/><path class="cls-3" d="M64.84,72.11a7.84,7.84,0,0,1-5.49-2.23L40.86,51.81a7.85,7.85,0,1,1,11-11.23L70.33,58.64a7.85,7.85,0,0,1-5.49,13.47Z"/></g></g></svg>