<svg xmlns="http://www.w3.org/2000/svg" xmlns:xlink="http://www.w3.org/1999/xlink" viewBox="0 0 133.75 133.75"><defs><style>.cls-1{fill:url(#New_Gradient_Swatch_4);}.cls-2{fill:#fff;}</style><linearGradient id="New_Gradient_Swatch_4" y1="66.88" x2="133.75" y2="66.88" gradientUnits="userSpaceOnUse"><stop offset="0" stop-color="#dd0384"/><stop offset="1" stop-color="#802988"/></linearGradient></defs><g id="Слой_2" data-name="Слой 2"><g id="Layer_1" data-name="Layer 1"><circle class="cls-1" cx="66.88" cy="66.88" r="66.88"/><path class="cls-2" d="M49.33,99.1A3.35,3.35,0,0,1,46,96.46L39.27,66.57a3.4,3.4,0,0,1,2.55-4,3.82,3.82,0,0,1,.75-.08,3.4,3.4,0,0,1,3.29,2.63l3.47,15.34,4.22-8.62c.36-.72.73-1.45,1.12-2.19,9.33-17.7,23.82-29.12,41.9-33a3.53,3.53,0,0,1,.72-.08A3.38,3.38,0,0,1,98,43.18c-39,8.44-45.26,52.54-45.31,53a3.37,3.37,0,0,1-3.2,2.92Z"/></g></g></svg>