<svg xmlns="http://www.w3.org/2000/svg" viewBox="0 0 66.28 35.01"><defs><style>.cls-1{fill:#fff;}</style></defs><g id="Слой_2" data-name="Слой 2"><g id="Layer_1" data-name="Layer 1"><path class="cls-1" d="M19.43.36H2.1A2.11,2.11,0,0,0,0,2.46V32.91A2.11,2.11,0,0,0,2.1,35H19.43a2.11,2.11,0,0,0,2.1-2.1V2.46A2,2,0,0,0,19.43.36ZM9.19,2.3h3.15a.53.53,0,0,1,.52.53.52.52,0,0,1-.52.52H9.19a.52.52,0,0,1-.53-.52A.58.58,0,0,1,9.19,2.3ZM20.53,5.35V28.61H1V5.35ZM10.76,33.23a1.45,1.45,0,1,1,0-2.89,1.44,1.44,0,0,1,1.47,1.47A1.46,1.46,0,0,1,10.76,33.23Z"/><path class="cls-1" d="M2.94,14.27H7.61a.56.56,0,0,0,.53-.52V9.08a.56.56,0,0,0-.53-.53H2.94a.56.56,0,0,0-.52.53v4.67A.52.52,0,0,0,2.94,14.27ZM3.47,9.6H7.09v3.62H3.47Z"/><rect class="cls-1" x="4.46" y="10.6" width="1.58" height="1.58"/><path class="cls-1" d="M14,14.27h4.67a.56.56,0,0,0,.52-.52V9.08a.56.56,0,0,0-.52-.53H14a.56.56,0,0,0-.53.53v4.67A.52.52,0,0,0,14,14.27Zm.52-4.67h3.62v3.62H14.49Z"/><rect class="cls-1" x="15.49" y="10.6" width="1.58" height="1.58"/><path class="cls-1" d="M2.94,25.72H7.61a.56.56,0,0,0,.53-.52V20.52A.56.56,0,0,0,7.61,20H2.94a.56.56,0,0,0-.52.52V25.2A.52.52,0,0,0,2.94,25.72Zm.53-4.67H7.09v3.62H3.47Z"/><rect class="cls-1" x="4.46" y="22.1" width="1.58" height="1.58"/><path class="cls-1" d="M18.59,20H13.91a.56.56,0,0,0-.52.52V25.2a.56.56,0,0,0,.52.52h4.68a.56.56,0,0,0,.52-.52V20.52A.52.52,0,0,0,18.59,20Zm-.53,4.67H14.44V21.05h3.62Z"/><rect class="cls-1" x="15.49" y="22.1" width="1.58" height="1.58"/><path class="cls-1" d="M12,11a.5.5,0,0,0,.53-.53V9.86a.53.53,0,0,0-1.05,0v.58A.53.53,0,0,0,12,11Z"/><path class="cls-1" d="M9.56,9.6h.57a.53.53,0,1,0,0-1H9.56a.53.53,0,1,0,0,1Z"/><path class="cls-1" d="M10.34,12.33V10.91a.53.53,0,0,0-1.05,0v1.95a.5.5,0,0,0,.53.52h.79a.53.53,0,0,0,0-1.05Z"/><path class="cls-1" d="M4.94,16.43a.5.5,0,0,0-.53-.53H2.94a.53.53,0,0,0,0,1H4.41A.53.53,0,0,0,4.94,16.43Z"/><path class="cls-1" d="M3.78,19.16H5.93a.5.5,0,0,0,.53-.53V17.27a.53.53,0,1,0-1,0v.84H3.78a.49.49,0,0,0-.52.52A.52.52,0,0,0,3.78,19.16Z"/><path class="cls-1" d="M11.71,21.31a.5.5,0,0,0-.53.53v1.47a.53.53,0,0,0,1.05,0V21.84A.52.52,0,0,0,11.71,21.31Z"/><path class="cls-1" d="M9.66,20.79v-.53a.53.53,0,0,0-1.05,0v.53a.53.53,0,0,0,1.05,0Z"/><path class="cls-1" d="M14,19.16a.53.53,0,0,0,0-1.05h-.53a.53.53,0,0,0,0,1.05Z"/><path class="cls-1" d="M10.87,24.36H10V22.73a.53.53,0,1,0-1,0v2.15a.5.5,0,0,0,.52.53h1.37a.5.5,0,0,0,.52-.53A.52.52,0,0,0,10.87,24.36Z"/><path class="cls-1" d="M8.72,16.48A.49.49,0,0,0,9.24,16V14.75a.53.53,0,1,0-1.05,0V16A.52.52,0,0,0,8.72,16.48Z"/><path class="cls-1" d="M10.4,16h1.26a.5.5,0,0,0,.52-.53.5.5,0,0,0-.52-.53H10.4a.5.5,0,0,0-.53.53A.53.53,0,0,0,10.4,16Z"/><path class="cls-1" d="M12.81,16.69a.53.53,0,1,0,1,0V15.43a.53.53,0,1,0-1,0Z"/><path class="cls-1" d="M6.56,15.27A.49.49,0,0,0,6,14.75a.5.5,0,0,0-.53.52v.63a.53.53,0,1,0,1,0Z"/><path class="cls-1" d="M11.76,12.8v.63a.53.53,0,1,0,1.05,0V12.8a.53.53,0,0,0-1.05,0Z"/><path class="cls-1" d="M16.91,15.9H15.49a.53.53,0,1,0,0,1H17a.49.49,0,0,0,.52-.52A.54.54,0,0,0,16.91,15.9Z"/><path class="cls-1" d="M18,18.11H16.33a.53.53,0,1,0,0,1.05h2.15a.5.5,0,0,0,.53-.53V17.27a.53.53,0,1,0-1.05,0Z"/><path class="cls-1" d="M18.59,16.43a.5.5,0,0,0,.52-.53v-.63a.53.53,0,0,0-1.05,0v.63A.53.53,0,0,0,18.59,16.43Z"/><path class="cls-1" d="M8.09,17.58a.53.53,0,1,0,0,1.05H9.56a.53.53,0,0,0,0-1.05Z"/><path class="cls-1" d="M11.81,17.58a.5.5,0,0,0-.52.53v1.78a.53.53,0,1,0,1.05,0V18.11A.57.57,0,0,0,11.81,17.58Z"/><path class="cls-1" d="M48.36,34.71h17a1,1,0,0,0,1-1V1a1,1,0,0,0-1-1H41.1a1,1,0,0,0-1,1V33.88a.77.77,0,0,0,.77.77ZM53.81,3a.47.47,0,0,1,.62-.45.47.47,0,0,1,.32.46V9.6a.48.48,0,0,1-.32.46.47.47,0,0,1-.62-.45ZM52,3a.47.47,0,0,1,.55-.47.49.49,0,0,1,.39.49V9.59a.48.48,0,0,1-.39.48A.46.46,0,0,1,52,9.61Zm-1.76.68a.47.47,0,0,1,.38-.48.47.47,0,0,1,.56.46V8.74a.47.47,0,1,1-.94,0Zm-.73,3.5a.47.47,0,0,1-.62.44.47.47,0,0,1-.32-.46V5.4a.47.47,0,1,1,.94,0Zm2.73,23.86a.2.2,0,0,1-.18.19H50.37a.19.19,0,0,1-.19-.19V29.43a.2.2,0,0,1,.19-.19H52a.2.2,0,0,1,.18.19Zm1.24-3.62a.18.18,0,0,1,.19.19.18.18,0,0,1-.19.18H53a.19.19,0,0,1-.19-.18.18.18,0,0,1,.19-.19Zm0-1.57v-.2a.18.18,0,0,1,.18-.19.18.18,0,0,1,.19.19v.2a.18.18,0,0,1-.19.18A.18.18,0,0,1,53.38,25.88Zm-.32,1h-.27a.17.17,0,0,1-.19-.18v-.68a.18.18,0,0,1,.19-.19.18.18,0,0,1,.18.19v.5h.09a.18.18,0,1,1,0,.36Zm-.16-1.33h-.21a.17.17,0,0,1-.18-.18.18.18,0,0,1,.18-.19h.21a.18.18,0,0,1,.18.19A.17.17,0,0,1,52.9,25.58Zm-.32,1.82v.42a.17.17,0,0,1-.18.18.19.19,0,0,1-.19-.18V27.4a.18.18,0,0,1,.19-.19A.17.17,0,0,1,52.58,27.4Zm.11,1a.18.18,0,0,1,.19.19.18.18,0,0,1-.19.18h-.51a.18.18,0,0,1-.19-.18.18.18,0,0,1,.19-.19ZM52.19,27a.2.2,0,0,1-.18.19H50.37a.18.18,0,0,1-.19-.19V25.4a.2.2,0,0,1,.19-.19H52a.2.2,0,0,1,.18.19Zm-.73.95a.18.18,0,0,1-.19-.19v-.22a.17.17,0,0,1,.19-.18.17.17,0,0,1,.18.18v.22A.18.18,0,0,1,51.46,28Zm.14.29v.48a.18.18,0,0,1-.18.19h-.76a.19.19,0,0,1-.18-.19.17.17,0,0,1,.18-.18h.57v-.3a.18.18,0,0,1,.19-.18A.17.17,0,0,1,51.6,28.28Zm-1.23-.48h.51a.18.18,0,0,1,.19.19.19.19,0,0,1-.19.18h-.51a.17.17,0,0,1-.19-.18A.18.18,0,0,1,50.37,27.8Zm2,1.72v-.18a.17.17,0,0,1,.19-.19.17.17,0,0,1,.18.19v.18a.17.17,0,0,1-.18.18A.17.17,0,0,1,52.36,29.52Zm.8,1.63h-.49a.18.18,0,0,1-.18-.19V30.2a.17.17,0,0,1,.18-.18.17.17,0,0,1,.19.18v.58h.3a.18.18,0,0,1,.18.18A.18.18,0,0,1,53.16,31.15Zm.48-.74a.18.18,0,0,1-.19.18.17.17,0,0,1-.18-.18v-.52a.18.18,0,0,1,.18-.19.2.2,0,0,1,.19.19Zm0-1.2a.17.17,0,0,1-.18.18.18.18,0,0,1-.19-.18v-.63a.18.18,0,0,1,.19-.19.2.2,0,0,1,.18.19Zm0-2.09a.18.18,0,0,1-.18-.19v-.22a.17.17,0,0,1,.18-.18.18.18,0,0,1,.19.18v.22A.18.18,0,0,1,53.65,27.12Zm.19,1v-.44a.17.17,0,0,1,.18-.19.18.18,0,0,1,.19.19v.44a.18.18,0,0,1-.19.18A.17.17,0,0,1,53.84,28.08Zm0,.68a.18.18,0,0,1,.19-.18h.18a.18.18,0,0,1,.19.18.18.18,0,0,1-.19.19h-.18A.18.18,0,0,1,53.89,28.76Zm2.17,2.31a.21.21,0,0,1-.19.19H54.23a.2.2,0,0,1-.19-.19V29.43a.2.2,0,0,1,.19-.19h1.64a.2.2,0,0,1,.19.19Zm-.76-2.9h-.52A.17.17,0,0,1,54.6,28a.18.18,0,0,1,.18-.19h.5a.19.19,0,0,1,.2.19A.17.17,0,0,1,55.3,28.17Zm.35.41v-.3a.17.17,0,0,1,.18-.18.17.17,0,0,1,.19.18v.48a.18.18,0,0,1-.19.19h-.75a.18.18,0,0,1-.19-.19.18.18,0,0,1,.19-.18Zm.41-.78a.18.18,0,0,1-.19.19.19.19,0,0,1-.18-.19v-.22a.17.17,0,0,1,.18-.18.18.18,0,0,1,.19.18Zm0-.76a.2.2,0,0,1-.18.19H54.25a.18.18,0,0,1-.19-.19V25.4a.2.2,0,0,1,.19-.19h1.64a.2.2,0,0,1,.18.19Zm.32-7.53A3.2,3.2,0,1,1,52.88,16,3.21,3.21,0,0,1,56.39,19.51Zm.14-10.76a.46.46,0,0,1-.55.46.48.48,0,0,1-.39-.48v-5A.48.48,0,0,1,56,3.23a.46.46,0,0,1,.55.46Zm1.6-1.54a.47.47,0,0,1-.62.44.48.48,0,0,1-.32-.46V5.4a.48.48,0,0,1,.32-.46.46.46,0,0,1,.62.44Z"/><circle class="cls-1" cx="24.82" cy="18.12" r="0.92"/><circle class="cls-1" cx="28.8" cy="18.12" r="0.92"/><circle class="cls-1" cx="32.77" cy="18.12" r="0.92"/><circle class="cls-1" cx="36.74" cy="18.12" r="0.92"/></g></g></svg>