<svg xmlns="http://www.w3.org/2000/svg" viewBox="0 0 19.28 19.77"><defs><style>.cls-1{fill:#fff;}</style></defs><g id="Слой_2" data-name="Слой 2"><g id="Layer_1" data-name="Layer 1"><path class="cls-1" d="M.6,6.59H6A.65.65,0,0,0,6.59,6V.6A.65.65,0,0,0,6,0H.6A.65.65,0,0,0,0,.6V6A.6.6,0,0,0,.6,6.59Zm.61-5.38H5.38V5.38H1.21Z"/><rect class="cls-1" x="2.36" y="2.36" width="1.81" height="1.81"/><path class="cls-1" d="M13.3,6.59h5.38a.65.65,0,0,0,.6-.61V.6a.65.65,0,0,0-.6-.6H13.3a.65.65,0,0,0-.61.6V6A.61.61,0,0,0,13.3,6.59Zm.6-5.38h4.17V5.38H13.9Z"/><rect class="cls-1" x="15.05" y="2.36" width="1.81" height="1.81"/><path class="cls-1" d="M.6,19.77H6a.66.66,0,0,0,.61-.61V13.78a.65.65,0,0,0-.61-.6H.6a.65.65,0,0,0-.6.6v5.38A.61.61,0,0,0,.6,19.77Zm.61-5.38H5.38v4.17H1.21Z"/><rect class="cls-1" x="2.36" y="15.6" width="1.81" height="1.81"/><path class="cls-1" d="M18.62,13.18H13.24a.65.65,0,0,0-.61.6v5.38a.66.66,0,0,0,.61.61h5.38a.65.65,0,0,0,.6-.61V13.78A.6.6,0,0,0,18.62,13.18ZM18,18.56H13.84V14.39H18Z"/><rect class="cls-1" x="15.05" y="15.6" width="1.81" height="1.81"/><path class="cls-1" d="M11.06,2.78a.57.57,0,0,0,.61-.6V1.51a.57.57,0,0,0-.61-.6.57.57,0,0,0-.6.6v.67A.6.6,0,0,0,11.06,2.78Z"/><path class="cls-1" d="M8.22,1.21h.67A.57.57,0,0,0,9.49.6a.57.57,0,0,0-.6-.6H8.22a.57.57,0,0,0-.6.6A.57.57,0,0,0,8.22,1.21Z"/><path class="cls-1" d="M9.13,4.35V2.72a.61.61,0,0,0-1.21,0V5a.57.57,0,0,0,.6.6h.91A.57.57,0,0,0,10,5a.57.57,0,0,0-.6-.61Z"/><path class="cls-1" d="M2.9,9.07a.57.57,0,0,0-.6-.61H.6a.61.61,0,0,0,0,1.21H2.3A.6.6,0,0,0,2.9,9.07Z"/><path class="cls-1" d="M1.57,12.21H4.05a.57.57,0,0,0,.6-.6V10a.57.57,0,0,0-.6-.6.57.57,0,0,0-.6.6v1H1.57a.57.57,0,0,0-.6.61A.6.6,0,0,0,1.57,12.21Z"/><path class="cls-1" d="M10.7,14.69a.57.57,0,0,0-.61.6V17a.57.57,0,0,0,.61.6.57.57,0,0,0,.6-.6v-1.7A.6.6,0,0,0,10.7,14.69Z"/><path class="cls-1" d="M8.34,14.08v-.6a.61.61,0,0,0-1.21,0v.6a.61.61,0,1,0,1.21,0Z"/><path class="cls-1" d="M13.36,12.21a.61.61,0,0,0,0-1.21h-.61a.61.61,0,0,0,0,1.21Z"/><path class="cls-1" d="M9.73,18.19h-1V16.32a.6.6,0,0,0-1.2,0V18.8a.57.57,0,0,0,.6.6H9.73a.57.57,0,0,0,.61-.6A.62.62,0,0,0,9.73,18.19Z"/><path class="cls-1" d="M7.25,9.13a.57.57,0,0,0,.61-.61V7.13a.57.57,0,0,0-.61-.6.57.57,0,0,0-.6.6V8.52A.6.6,0,0,0,7.25,9.13Z"/><path class="cls-1" d="M9.19,8.52h1.45a.57.57,0,0,0,.6-.6.57.57,0,0,0-.6-.61H9.19a.58.58,0,0,0-.61.61A.61.61,0,0,0,9.19,8.52Z"/><path class="cls-1" d="M12,9.37a.61.61,0,0,0,1.21,0V7.92a.61.61,0,1,0-1.21,0Z"/><path class="cls-1" d="M4.78,7.74a.58.58,0,0,0-.61-.61.57.57,0,0,0-.6.61v.72a.57.57,0,0,0,.6.61.58.58,0,0,0,.61-.61Z"/><path class="cls-1" d="M10.76,4.9v.72a.61.61,0,1,0,1.21,0V4.9a.61.61,0,1,0-1.21,0Z"/><path class="cls-1" d="M16.68,8.46H15.05a.61.61,0,0,0,0,1.21h1.69a.57.57,0,0,0,.61-.6A.62.62,0,0,0,16.68,8.46Z"/><path class="cls-1" d="M17.89,11H16a.61.61,0,1,0,0,1.21H18.5a.57.57,0,0,0,.6-.6V10a.61.61,0,0,0-1.21,0Z"/><path class="cls-1" d="M18.62,9.07a.57.57,0,0,0,.6-.61V7.74a.61.61,0,1,0-1.21,0v.72A.61.61,0,0,0,18.62,9.07Z"/><path class="cls-1" d="M6.53,10.4a.57.57,0,0,0-.61.6.58.58,0,0,0,.61.61H8.22A.58.58,0,0,0,8.83,11a.57.57,0,0,0-.61-.6Z"/><path class="cls-1" d="M10.82,10.4a.57.57,0,0,0-.6.6v2.06a.6.6,0,0,0,1.2,0V11A.65.65,0,0,0,10.82,10.4Z"/></g></g></svg>