<svg xmlns="http://www.w3.org/2000/svg">
<defs>
<font id="PTSansProLightItalic" horiz-adv-x="515" >
  <font-face 
    font-family="PTSansProLightItalic"
    font-weight="400"
    font-style="italic"
    font-stretch="normal"
    units-per-em="1000"
    panose-1="2 11 4 3 2 2 3 9 2 4"
    ascent="771"
    descent="-229"
    x-height="500"
    cap-height="700"
    bbox="-281 -239 1131 1000"
    underline-thickness="50"
    underline-position="-100"
    slope="-12"
    unicode-range="U+0020-FB04"
  />
<missing-glyph horiz-adv-x="750" 
d="M50 0v700h650v-700h-650zM620 570l-50 50l-195 -217l-195 217l-50 -50l197 -220l-197 -220l50 -50l195 217l195 -217l50 50l-198 220zM129 63v-36h8v12h4q16 0 16 12t-17 12h-11zM137 57h4q8 0 8 -5q0 -6 -9 -6h-3v11zM189 57v6h-31v-6h12v-30h7v30h12zM222 37
q0 -4 -7 -4q-5 0 -9 2l-3 -7q8 -2 13 -2q14 0 14 12q0 7 -9 10t-9 6t6 3q3 0 9 -2l2 7q-8 2 -11 2q-14 0 -14 -11q0 -7 9 -10.5t9 -5.5zM235 52l2 -5q6 2 9 2q5 0 5 -4v-2l-1 1h-4q-12 0 -12 -10q0 -8 8 -8q6 0 9 5l2 -4h6q-1 1 -1 7v11q0 10 -10 10q-4 0 -13 -3zM245 32
q-4 0 -4 4t5 4h4l1 -1v-3q-1 -4 -6 -4zM284 27h8v16q0 12 -9 12q-7 0 -10 -5l-2 4h-5v-27h7v17q1 4 6 4t5 -6v-15zM299 34l-2 -6q6 -2 10 -2q11 0 11 9q0 5 -8 9q-5 2 -5 3q0 2 3 2q2 0 8 -2l2 6q-6 2 -10 2q-10 0 -10 -9q0 -5 8 -9q5 -2 5 -3q0 -2 -3 -2t-9 2zM338 42
q0 -21 20 -21t20 21q0 20 -20 20q-8 0 -14 -5.5t-6 -14.5zM344 42q0 15 14 15t14 -15t-14 -15t-14 15zM365 33l-1 5q-2 -1 -4 -1q-4 0 -4 5q0 4 4 4h3l2 4q-3 2 -7 2q-9 0 -9 -10q0 -11 9 -11q5 0 7 2zM399 63v-36h8v12h4q16 0 16 12t-17 12h-11zM407 57h4q8 0 8 -5
q0 -6 -9 -6h-3v11zM430 52l2 -5q6 2 9 2q5 0 5 -4v-2l-2 1h-3q-13 0 -13 -10q0 -8 9 -8q6 0 9 5l2 -4h6q-1 1 -1 7v11q0 10 -10 10q-4 0 -13 -3zM440 32q-4 0 -4 4t5 4h3l2 -1v-3q-1 -4 -6 -4zM477 47l1 7q-1 1 -4 1q-4 0 -6 -5h-1l-1 4h-6v-27h8v17q0 4 6 4zM482 52l1 -5
q8 2 9 2q5 0 5 -4v-2l-1 1h-4q-13 0 -13 -10q0 -8 9 -8q7 0 9 5h1l1 -4h6q-1 1 -1 7v11q0 10 -10 10q-3 0 -12 -3zM491 32q-4 0 -4 4t5 4h4l1 -1v-3q-1 -4 -6 -4zM533 57v6h-31v-6h12v-30h7v30h12zM547 39l-6 15h-8l12 -27q-2 -5 -5 -5l-1 1l-2 -6q1 -1 5 -1q6 0 10 13

<glyph glyph-name="IJ" unicode="IJ" horiz-adv-x="545" 
d="M382 163l114 537h68l-117 -553q-18 -83 -54 -119.5t-109 -36.5q-48 0 -70 14l25 62q19 -12 54 -12q39 0 58 26t31 82zM69 0l148 700h68l-148 -700h-68z" />
    <glyph glyph-name="ij" unicode="ij" horiz-adv-x="465" 
d="M60 0l106 500h65l-106 -500h-65zM183 656q0 21 14 36t35 15t35.5 -15t14.5 -36t-14.5 -36t-35.5 -15t-35 15t-14 36zM262 0l106 500h65l-112 -528q-20 -94 -61.5 -137t-111.5 -43q-16 0 -25 1l13 55q57 0 82 34t44 118zM384 656q0 21 14 36t35 15t35.5 -15t14.5 -36
t-14.5 -36t-35.5 -15t-35 15t-14 36z" />
    <glyph glyph-name="uniF374.var.accented" unicode="&#xf374;`" horiz-adv-x="468" 
d="M391 80l4 -58q-53 -31 -129 -31q-96 0 -149.5 60.5t-53.5 157.5q0 70 18.5 126.5t47.5 92.5t68 61t78 35t78 10q80 0 130 -20l-29 -63q-38 19 -110 19q-66 0 -122.5 -41t-77.5 -128h236l-13 -62h-231q-1 -9 -1 -26q0 -80 42 -119t106 -39q60 0 108 25zM321 597l89 148h75
l-4 -19l-121 -129h-39z" />
    <glyph glyph-name="uniF376.var.accented" unicode="&#xf376;`" horiz-adv-x="277" 
d="M69 0l111 525h68l-111 -525h-68zM195 597l89 148h75l-4 -19l-121 -129h-39z" />
    <glyph glyph-name="uniF377.var.accented" unicode="&#xf377;`" horiz-adv-x="314" 
d="M124 684q5 20 19.5 33t33.5 13q18 0 27 -13t5 -33q-4 -19 -19 -32t-33 -13q-19 0 -28.5 12.5t-4.5 32.5zM335 684q5 20 19 33t33 13t28 -13t4 -33t-19 -32.5t-33 -12.5t-28 12.5t-4 32.5zM186 612l87 138h65l-4 -19l-114 -119h-34zM88 0l111 525h68l-111 -525h-68z" />
    <glyph glyph-name="uniF350.var.accented" unicode="&#xf350;`" horiz-adv-x="454" 
d="M343 0l-23 139h-195l-80 -139h-73l314 532h33l88 -532h-64zM246 348l-86 -147h151l-24 148l-3 81h-1zM302 597l89 148h75l-4 -19l-121 -129h-39z" />
    <glyph glyph-name="uniF355.var.accented" unicode="&#xf355;`" horiz-adv-x="449" 
d="M45 0l111 525h293l-13 -62h-225l-35 -164h206l-13 -62h-206l-37 -175h229l-13 -62h-297zM283 597l89 148h75l-4 -19l-121 -129h-39z" />
    <glyph glyph-name="uniF358.var.accented" unicode="&#xf358;`" horiz-adv-x="554" 
d="M360 0l72 340l18 62h-3l-47 -66l-315 -336h-40l111 525h68l-72 -341l-19 -62h4l47 66l315 337h40l-111 -525h-68zM321 597l89 148h75l-4 -19l-121 -129h-39z" />
    <glyph glyph-name="uniF35E.var.accented" unicode="&#xf35e;`" horiz-adv-x="551" 
d="M63 207q0 62 16.5 119t47.5 104t83.5 75.5t118.5 28.5q87 0 140 -56.5t53 -154.5q0 -137 -72 -234.5t-197 -97.5q-96 0 -143 62t-47 154zM135 214q0 -161 131 -161q83 0 133.5 77t50.5 190q0 67 -29.5 109.5t-97.5 42.5q-86 0 -137 -73.5t-51 -184.5zM311 597l89 148h75
l-4 -19l-121 -129h-39z" />
    <glyph glyph-name="uniF363.var.accented" unicode="&#xf363;`" horiz-adv-x="430" 
d="M153 525l75 -272l5 -68h4l31 70l154 270h77l-206 -346q-67 -113 -99.5 -148t-82.5 -35q-46 0 -72 17l34 60q23 -13 49 -13q20 0 36 18t39 60l-115 387h71zM263 597l89 148h75l-4 -19l-121 -129h-39z" />
    <glyph glyph-name="uniF36B.var.accented" unicode="&#xf36b;`" horiz-adv-x="632" 
d="M438 0l111 525h68l-111 -525h-68zM45 5l110 520h68l-42 -200q33 6 64 6q73 0 116.5 -36t43.5 -100q0 -93 -61.5 -147.5t-182.5 -54.5q-72 0 -116 12zM180 55q72 0 112.5 35t40.5 92q0 47 -27.5 67t-82.5 20q-29 0 -55 -7l-43 -202q15 -5 55 -5zM357 597l89 148h75l-4 -19
l-121 -129h-39z" />
    <glyph glyph-name="uniF36D.var.accented" unicode="&#xf36d;`" horiz-adv-x="466" 
d="M134 236l13 62h221v29q-1 145 -138 145q-66 0 -114 -25l-5 57q57 30 139 30q79 0 132.5 -48.5t53.5 -158.5v-3q-1 -149 -83 -241t-227 -92q-76 0 -121 20l31 63q38 -21 101 -21q172 0 220 183h-223zM231 597l89 148h75l-4 -19l-121 -129h-39z" />
    <glyph glyph-name="uniF36E.var.accented" unicode="&#xf36e;`" horiz-adv-x="717" 
d="M224 525l-48 -225h85q23 106 86.5 170t157.5 64q64 0 107 -31.5t59.5 -75t16.5 -96.5q0 -143 -68 -241.5t-193 -98.5q-96 0 -138.5 71.5t-35.5 173.5h-90l-50 -236h-68l111 525h68zM321 209q0 -156 120 -156q77 0 126 78t49 189q0 152 -118 152q-73 0 -125 -73.5
t-52 -189.5zM388 597l89 148h75l-4 -19l-121 -129h-39z" />
    <glyph glyph-name="uniF36F.var.accented" unicode="&#xf36f;`" horiz-adv-x="468" 
d="M453 520l-110 -520h-68l48 227l-79 -16l-177 -211h-75l154 185l52 33q-97 34 -97 132q0 50 21.5 87t58 57t76.5 29t84 9q65 0 112 -12zM322 470q-60 0 -104.5 -26.5t-44.5 -89.5q0 -88 107 -88h51l43 200q-17 4 -52 4zM316 597l89 148h75l-4 -19l-121 -129h-39z" />
    <glyph glyph-name="uniF371.var.accented" unicode="&#xf371;`" horiz-adv-x="449" 
d="M45 0l111 525h293l-13 -62h-225l-35 -164h206l-13 -62h-206l-37 -175h229l-13 -62h-297zM181 684q5 20 19.5 33t33.5 13q18 0 27 -13t5 -33q-4 -19 -19 -32t-33 -13q-19 0 -28.5 12.5t-4.5 32.5zM392 684q5 20 19 33t33 13t28 -13t4 -33t-19 -32.5t-33 -12.5t-28 12.5
t-4 32.5zM243 612l87 138h65l-4 -19l-114 -119h-34z" />
    <glyph glyph-name="uniF38A.var.accented" unicode="&#xf38a;`" horiz-adv-x="447" 
d="M409 388l-221 -395h-29l-92 532h66l59 -349l-1 -82h2l37 84l98 187q52 99 87.5 132.5t84.5 33.5q40 0 70 -17l-32 -61q-22 14 -48 14q-37 0 -81 -79zM264 597l89 148h75l-4 -19l-121 -129h-39z" />
    <glyph glyph-name="afii10053.var.accented" unicode="&#x404;`" horiz-adv-x="555" 
d="M482 87l7 -58q-61 -41 -169 -41q-112 0 -179 80.5t-67 205.5q0 108 33 194t87.5 138t120 79t135.5 27q100 0 160 -27l-32 -63q-47 26 -139 26q-97 0 -175.5 -68.5t-105.5 -186.5h306l-14 -64h-302q-2 -30 -2 -47q0 -102 51 -166t140 -64q86 0 145 35zM402 752l140 118
h106l-4 -19l-176 -99h-66z" />
    <glyph glyph-name="afii10055.var.accented" unicode="&#x406;`" horiz-adv-x="277" 
d="M69 0l148 700h68l-148 -700h-68zM211 752l140 118h106l-4 -19l-176 -99h-66z" />
    <glyph glyph-name="afii10056.var.accented" unicode="&#x407;`" horiz-adv-x="277" 
d="M255 850l85 78h98l-4 -19l-134 -59h-45zM167 793q0 19 13 32t33 13t33 -13t13 -32q0 -18 -13 -31t-33 -13t-33 13t-13 31zM288 793q0 19 13 32t33 13t33 -13t13 -32q0 -18 -13 -31t-33 -13t-33 13t-13 31zM69 0l148 700h68l-148 -700h-68z" />
    <glyph glyph-name="afii10017.var.accented" unicode="&#x410;`" horiz-adv-x="552" 
d="M437 0l-29 203h-253l-114 -203h-73l407 712h24l104 -712h-66zM319 490l-129 -225h209l-32 227l-2 105h-1zM374 752l140 118h106l-4 -19l-176 -99h-66z" />
    <glyph glyph-name="afii10022.var.accented" unicode="&#x415;`" horiz-adv-x="512" 
d="M45 0l148 700h355l-13 -62h-287l-52 -246h263l-13 -62h-263l-57 -268h292l-13 -62h-360zM297 752l140 118h106l-4 -19l-176 -99h-66z" />
    <glyph glyph-name="afii10026.var.accented" unicode="&#x418;`" horiz-adv-x="650" 
d="M456 0l103 488l22 78h-3l-58 -81l-435 -485h-40l148 700h68l-105 -498l-23 -73h4l57 78l438 493h40l-148 -700h-68zM362 752l140 118h106l-4 -19l-176 -99h-66z" />
    <glyph glyph-name="afii10032.var.accented" unicode="&#x41e;`" horiz-adv-x="653" 
d="M76 255q-1 123 42.5 226.5t125 167t185.5 63.5q101 0 159.5 -62.5t58.5 -200.5q0 -125 -42.5 -230t-120 -168t-174.5 -63q-232 0 -234 267zM148 255q-1 -98 41.5 -151.5t120.5 -53.5q114 0 189.5 116t75.5 281q0 203 -160 203q-115 0 -190 -116t-77 -279zM403 752
l140 118h106l-4 -19l-176 -99h-66z" />
    <glyph glyph-name="afii10037.var.accented" unicode="&#x423;`" horiz-adv-x="522" 
d="M192 700l97 -382l7 -89h4l39 92l214 379h76l-262 -449q-92 -158 -134 -207t-98 -49q-47 0 -81 22l35 60q28 -18 56 -18q24 0 49.5 32t60.5 94l-135 515h72zM316 752l140 118h106l-4 -19l-176 -99h-66z" />
    <glyph glyph-name="afii10045.var.accented" unicode="&#x42b;`" horiz-adv-x="724" 
d="M530 0l148 700h68l-148 -700h-68zM45 7l147 693h68l-58 -276q44 8 86 8q84 0 138 -44t54 -129q0 -70 -26 -123.5t-70 -84t-95.5 -45t-109.5 -14.5q-79 0 -134 15zM198 54q87 0 148.5 52t61.5 146q0 118 -145 118q-43 0 -75 -9l-63 -301q24 -6 73 -6zM392 752l140 118h106
l-4 -19l-176 -99h-66z" />
    <glyph glyph-name="afii10047.var.accented" unicode="&#x42d;`" horiz-adv-x="553" 
d="M183 326l13 62h283q2 18 2 52q0 210 -186 210q-77 0 -136 -32l-7 56q71 38 160 38q68 0 117 -23.5t74 -63.5t35.5 -82.5t10.5 -90.5q0 -99 -23.5 -182t-70 -146.5t-122.5 -99.5t-174 -36q-88 0 -143 24l32 63q46 -25 125 -25q109 0 192 72.5t105 203.5h-287zM263 752
l140 118h106l-4 -19l-176 -99h-66z" />
    <glyph glyph-name="afii10048.var.accented" unicode="&#x42e;`" horiz-adv-x="860" 
d="M261 700l-65 -309h124q47 162 130 241.5t191 79.5q100 0 156 -57t56 -172q0 -134 -40.5 -245.5t-121 -180.5t-186.5 -69q-101 0 -150 66.5t-49 179.5q0 48 7 93h-131l-69 -327h-68l148 700h68zM377 229q0 -79 35 -129t113 -50q108 0 182 124.5t74 297.5q0 82 -36.5 130
t-103.5 48q-116 0 -190 -122.5t-74 -298.5zM421 752l140 118h106l-4 -19l-176 -99h-66z" />
    <glyph glyph-name="afii10049.var.accented" unicode="&#x42f;`" horiz-adv-x="539" 
d="M561 693l-147 -693h-68l66 310l-103 -21l-235 -289h-83l204 254l66 45q-48 14 -86 56.5t-38 115.5q0 65 25.5 113t68 74t90.5 38t102 12q83 0 138 -15zM409 646q-39 0 -72.5 -8.5t-63.5 -27.5t-47 -53t-17 -81q0 -58 37.5 -92t104.5 -34h69l62 290q-20 6 -73 6zM373 752
l140 118h106l-4 -19l-176 -99h-66z" />
    <glyph glyph-name="afii10023.var.accented" unicode="&#x401;`" horiz-adv-x="512" 
d="M287 752l92 118h89l-4 -19l-123 -99h-54zM217 813q0 19 13 32t33 13t33 -13t13 -32q0 -18 -13 -31t-33 -13t-33 13t-13 31zM461 813q0 19 13 32t33 13t33 -13t13 -32q0 -18 -13 -31t-33 -13t-33 13t-13 31zM45 0l148 700h355l-13 -62h-287l-52 -246h263l-13 -62h-263
l-57 -268h292l-13 -62h-360z" />
    <glyph glyph-name="afii10065.var.accented" unicode="&#x430;`" horiz-adv-x="483" 
d="M471 489l-64 -293q-14 -66 -14 -141q0 -33 3 -57h-49l-14 87h-4q-29 -40 -72 -68.5t-92 -28.5q-117 0 -117 155q0 65 16.5 128t48.5 118.5t88 89.5t128 34q63 0 142 -24zM182 44q45 0 88.5 38.5t66.5 81.5l58 278q-30 15 -81 15q-62 0 -108.5 -48.5t-68 -119.5
t-21.5 -151q0 -42 17 -68t49 -26zM305 572l89 148h75l-4 -19l-121 -129h-39z" />
    <glyph glyph-name="afii10070.var.accented" unicode="&#x435;`" horiz-adv-x="463" 
d="M363 90l23 -41q-71 -61 -174 -61q-78 0 -118 45t-40 128q0 157 79 254t183 97q67 0 101 -33.5t34 -83.5q0 -70 -68 -109.5t-196 -39.5q-19 0 -59 2q-8 -37 -8 -72q0 -60 26 -96t78 -36q83 0 139 46zM305 456q-120 0 -164 -157h29q42 0 71.5 2.5t66 11t56 29t19.5 52.5
q0 25 -18 43.5t-60 18.5zM293 572l89 148h75l-4 -19l-121 -129h-39z" />
    <glyph glyph-name="afii10074.var.accented" unicode="&#x438;`" horiz-adv-x="511" 
d="M143 500h65l-72 -339q-6 -27 -6 -50q0 -67 54 -67q48 0 98 41.5t80 94.5l67 320h64l-63 -297q-27 -129 -24 -203h-49v96h-4q-34 -45 -82.5 -76.5t-103.5 -31.5q-103 0 -103 108q0 35 10 78zM309 572l89 148h75l-4 -19l-121 -129h-39z" />
    <glyph glyph-name="afii10080.var.accented" unicode="&#x43e;`" horiz-adv-x="499" 
d="M54 155q0 155 75 256t184 101q77 0 113.5 -46.5t36.5 -119.5q0 -149 -72 -253.5t-178 -104.5q-82 0 -120.5 48.5t-38.5 118.5zM122 173q0 -129 99 -129q70 0 122 89.5t52 206.5q0 57 -22 86.5t-74 29.5q-70 0 -123.5 -85.5t-53.5 -197.5zM291 572l89 148h75l-4 -19
l-121 -129h-39z" />
    <glyph glyph-name="afii10085.var.accented" unicode="&#x443;`" horiz-adv-x="436" 
d="M135 500l53 -333l7 -100h5l42 101l172 332h67l-234 -445l-34 -65l-33 -58q-22 -37 -37 -55.5t-35.5 -41t-40 -31.5t-39.5 -9q-32 0 -48 8l21 60q16 -4 23 -4q31 0 60.5 32.5t68.5 108.5l-84 500h66zM268 572l89 148h75l-4 -19l-121 -129h-39z" />
    <glyph glyph-name="afii10093.var.accented" unicode="&#x44b;`" horiz-adv-x="630" 
d="M159 240l-28 -129q-6 -27 5.5 -44t40.5 -17q64 0 110 40.5t46 101.5q0 36 -18.5 50.5t-72.5 14.5q-44 0 -83 -17zM220 500l-48 -200q48 13 96 13q133 0 133 -107q0 -97 -73 -154.5t-164 -57.5q-100 0 -100 84q0 19 4 35l88 387h64zM441 0l106 500h65l-106 -500h-65z
M335 572l89 148h75l-4 -19l-121 -129h-39z" />
    <glyph glyph-name="afii10095.var.accented" unicode="&#x44d;`" horiz-adv-x="441" 
d="M114 224l12 56h207q4 30 4 42q1 134 -103 134q-75 0 -127 -34l-19 46q69 44 162 44q78 0 116.5 -44t38.5 -113q0 -100 -22.5 -173.5t-61.5 -114.5t-84.5 -60t-97.5 -19q-99 0 -145 29l30 55q41 -28 114 -28q72 0 122 46t69 134h-215zM222 572l89 148h75l-4 -19l-121 -129
h-39z" />
    <glyph glyph-name="afii10096.var.accented" unicode="&#x44e;`" horiz-adv-x="676" 
d="M263 285q28 105 89 166t143 61q77 0 111 -46t34 -120q0 -148 -72 -253t-173 -105q-146 0 -146 167q0 34 5 74h-102l-48 -229h-64l106 500h64l-45 -215h98zM313 173q0 -65 20 -97t70 -32q66 0 117.5 90t51.5 206q0 58 -19.5 87t-71.5 29q-69 0 -118.5 -85t-49.5 -198z
M359 572l89 148h75l-4 -19l-121 -129h-39z" />
    <glyph glyph-name="afii10097.var.accented" unicode="&#x44f;`" horiz-adv-x="463" 
d="M279 0l44 211l-80 -12l-170 -199h-85l151 174l48 37q-44 7 -70.5 34t-26.5 73q0 89 67.5 141.5t162.5 52.5q69 0 125 -23l-102 -489h-64zM281 251l51 2l42 191q-12 12 -71 12q-64 0 -104.5 -35.5t-40.5 -93.5q0 -81 123 -76zM307 572l89 148h75l-4 -19l-121 -129h-39z
" />
    <glyph glyph-name="afii10071.var.accented" unicode="&#x451;`" horiz-adv-x="463" 
d="M363 90l23 -41q-71 -61 -174 -61q-78 0 -118 45t-40 128q0 157 79 254t183 97q67 0 101 -33.5t34 -83.5q0 -70 -68 -109.5t-196 -39.5q-19 0 -59 2q-8 -37 -8 -72q0 -60 26 -96t78 -36q83 0 139 46zM305 456q-120 0 -164 -157h29q42 0 71.5 2.5t66 11t56 29t19.5 52.5
q0 25 -18 43.5t-60 18.5zM168 625q0 23 17 39t37 16q33 0 33 -34q0 -24 -16.5 -40.5t-35.5 -16.5q-18 0 -26.5 11t-8.5 25zM379 625q0 22 16.5 38.5t36.5 16.5q33 0 33 -35q0 -23 -16 -39.5t-36 -16.5q-34 0 -34 36zM231 562l87 138h65l-4 -19l-114 -119h-34z" />
    <glyph glyph-name="afii10101.var.accented" unicode="&#x454;`" horiz-adv-x="435" 
d="M373 86l16 -44q-68 -54 -165 -54q-80 0 -125 50t-45 126q0 168 84.5 258t201.5 90q59 0 105 -22l-24 -51q-40 17 -88 17q-68 0 -121 -46t-76 -123h234l-13 -56h-233q-2 -15 -2 -47q0 -140 132 -140q59 0 119 42zM301 572l89 148h75l-4 -19l-121 -129h-39z" />
    <glyph glyph-name="afii10103.var.accented" unicode="&#x456;`" horiz-adv-x="261" 
d="M60 0l106 500h65l-106 -500h-65zM182 656q0 21 14 36t35 15t35.5 -15t14.5 -36t-14.5 -36t-35.5 -15t-35 15t-14 36zM202 752l140 118h106l-4 -19l-176 -99h-66z" />
    <glyph glyph-name="afii10104.var.accented" unicode="&#x457;`" horiz-adv-x="252" 
d="M113 655q0 19 11.5 32.5t30.5 13.5t30.5 -13.5t11.5 -32.5t-11.5 -32t-30.5 -13t-30.5 13t-11.5 32zM226 655q0 19 11.5 32.5t30.5 13.5t30.5 -13.5t11.5 -32.5t-11.5 -32t-30.5 -13t-30.5 13t-11.5 32zM40 0l106 500h65l-106 -500h-65zM182 752l140 118h106l-4 -19
l-176 -99h-66z" />
    <glyph glyph-name="afii10062.var.accented" unicode="&#x40e;`" horiz-adv-x="522" 
d="M192 700l97 -382l7 -89h4l39 92l214 379h76l-262 -449q-92 -158 -134 -207t-98 -49q-47 0 -81 22l35 60q28 -18 56 -18q24 0 49.5 32t60.5 94l-135 515h72zM245 849l69 20q-4 -38 15.5 -60t58.5 -22q81 0 109 81l55 -17q-49 -116 -176 -116q-66 0 -100.5 29t-30.5 85z
M344 832l140 118h99l-4 -19l-171 -99h-64z" />
    <glyph glyph-name="afii10110.var.accented" unicode="&#x45e;`" horiz-adv-x="436" 
d="M135 500l53 -333l7 -100h5l42 101l172 332h67l-234 -445l-34 -65l-33 -58q-22 -37 -37 -55.5t-35.5 -41t-40 -31.5t-39.5 -9q-32 0 -48 8l21 60q16 -4 23 -4q31 0 60.5 32.5t68.5 108.5l-84 500h66zM176 678l61 23q-1 -84 73 -84q75 0 109 83l46 -17q-19 -55 -65 -86.5
t-102 -31.5q-54 0 -89.5 29t-32.5 84zM295 683l89 148h75l-4 -19l-120 -129h-40z" />
    <glyph glyph-name="afii10148.var.accented" unicode="&#x474;`" horiz-adv-x="559" 
d="M515 522l-276 -534h-25l-109 712h68l72 -495l2 -103h1l39 104l130 262q72 147 116 193t108 46q51 0 82 -22l-34 -60q-27 18 -58 18q-29 0 -55.5 -27.5t-60.5 -93.5zM326 752l140 118h106l-4 -19l-176 -99h-66z" />
    <glyph glyph-name="afii10196.var.accented" unicode="&#x475;`" horiz-adv-x="480" 
d="M410 362l-226 -374h-23l-97 512h68l56 -300l8 -99h1l46 101l54 90q75 125 102 157q49 58 103 58q31 0 50 -8l-21 -59q-17 2 -32 4.5t-38 -17t-51 -65.5zM275 572l89 148h75l-4 -19l-121 -129h-39z" />
    <glyph glyph-name="uni04AE.var.accented" unicode="&#x4ae;`" horiz-adv-x="523" 
d="M184 0l59 282l-134 418h74l94 -316l4 -58h1l30 60l226 314h77l-303 -417l-60 -283h-68zM321 752l140 118h106l-4 -19l-176 -99h-66z" />
    <glyph glyph-name="uni04AF.var.accented" unicode="&#x4af;`" horiz-adv-x="447" 
d="M146 0l-82 500h70l52 -330l4 -109h1l50 111l180 328h76l-286 -500l-43 -200h-65zM266 572l89 148h75l-4 -19l-121 -129h-39z" />
    <glyph glyph-name="uni04B0.var.accented" unicode="&#x4b0;`" horiz-adv-x="523" 
d="M100 227l12 56h130l-133 417h74l94 -316l4 -58h1l30 60l226 314h77l-303 -417h152l-12 -56h-152l-48 -227h-68l47 227h-131zM321 752l140 118h106l-4 -19l-176 -99h-66z" />
    <glyph glyph-name="uni04B1.var.accented" unicode="&#x4b1;`" horiz-adv-x="459" 
d="M30 -56l11 56h117l-82 500h70l52 -330l4 -109h1l50 111l180 328h76l-286 -500h112l-11 -56h-113l-31 -144h-65l31 144h-116zM278 572l89 148h75l-4 -19l-121 -129h-39z" />
    <glyph glyph-name="uni04D0.var.accented" unicode="&#x4d0;`" horiz-adv-x="552" 
d="M437 0l-29 203h-253l-114 -203h-73l407 712h24l104 -712h-66zM319 490l-129 -225h209l-32 227l-2 105h-1zM260 849l69 20q-4 -38 15.5 -60t58.5 -22q81 0 109 81l55 -17q-49 -116 -176 -116q-66 0 -100.5 29t-30.5 85zM359 832l140 118h99l-4 -19l-171 -99h-64z" />
    <glyph glyph-name="uni04D1.var.accented" unicode="&#x4d1;`" horiz-adv-x="483" 
d="M471 489l-64 -293q-14 -66 -14 -141q0 -33 3 -57h-49l-14 87h-4q-29 -40 -72 -68.5t-92 -28.5q-117 0 -117 155q0 65 16.5 128t48.5 118.5t88 89.5t128 34q63 0 142 -24zM182 44q45 0 88.5 38.5t66.5 81.5l58 278q-30 15 -81 15q-62 0 -108.5 -48.5t-68 -119.5
t-21.5 -151q0 -42 17 -68t49 -26zM198 678l61 23q-1 -84 73 -84q75 0 109 83l46 -17q-19 -55 -65 -86.5t-102 -31.5q-54 0 -89.5 29t-32.5 84zM317 683l89 148h75l-4 -19l-120 -129h-40z" />
    <glyph glyph-name="uni04D2.var.accented" unicode="&#x4d2;`" horiz-adv-x="552" 
d="M437 0l-29 203h-253l-114 -203h-73l407 712h24l104 -712h-66zM319 490l-129 -225h209l-32 227l-2 105h-1zM308 752l92 118h89l-4 -19l-123 -99h-54zM238 813q0 19 13 32t33 13t33 -13t13 -32q0 -18 -13 -31t-33 -13t-33 13t-13 31zM482 813q0 19 13 32t33 13t33 -13
t13 -32q0 -18 -13 -31t-33 -13t-33 13t-13 31z" />
    <glyph glyph-name="uni04D3.var.accented" unicode="&#x4d3;`" horiz-adv-x="483" 
d="M471 489l-64 -293q-14 -66 -14 -141q0 -33 3 -57h-49l-14 87h-4q-29 -40 -72 -68.5t-92 -28.5q-117 0 -117 155q0 65 16.5 128t48.5 118.5t88 89.5t128 34q63 0 142 -24zM182 44q45 0 88.5 38.5t66.5 81.5l58 278q-30 15 -81 15q-62 0 -108.5 -48.5t-68 -119.5
t-21.5 -151q0 -42 17 -68t49 -26zM192 625q0 23 17 39t37 16q33 0 33 -34q0 -24 -16.5 -40.5t-35.5 -16.5q-18 0 -26.5 11t-8.5 25zM403 625q0 22 16.5 38.5t36.5 16.5q33 0 33 -35q0 -23 -16 -39.5t-36 -16.5q-34 0 -34 36zM255 562l87 138h65l-4 -19l-114 -119h-34z" />
    <glyph glyph-name="uni04D4.var.accented" unicode="&#x4d4;`" horiz-adv-x="800" 
d="M463 615h-2l-52 -103l-188 -247h168zM333 0l43 203h-205l-152 -203h-80l540 700h357l-13 -62h-287l-52 -246h263l-13 -62h-263l-57 -268h292l-13 -62h-360zM496 752l140 118h106l-4 -19l-176 -99h-66z" />
    <glyph glyph-name="uni04D5.var.accented" unicode="&#x4d5;`" horiz-adv-x="756" 
d="M172 48q50 0 94.5 39t67.5 75l8 71q-32 2 -48 2q-88 0 -142 -27t-54 -84q0 -76 74 -76zM343 89h-7q-34 -43 -83 -70t-103 -27q-59 0 -89.5 34.5t-30.5 83.5q0 178 275 178q31 0 47 -1q21 67 21 104q0 33 -19.5 47t-65.5 14q-32 0 -76.5 -10.5t-72.5 -25.5l-11 53
q72 39 191 39q103 0 115 -68q30 36 76 54t90 18q68 0 106 -31.5t38 -79.5q0 -41 -16.5 -70t-43 -46.5t-72 -28t-92.5 -14.5t-115 -5q-8 -38 -8 -68q0 -125 129 -125q30 0 65 12.5t57 29.5l15 -47q-72 -51 -171 -51q-57 0 -96.5 27t-52.5 74zM590 456q-127 0 -174 -163
q62 0 102 2.5t79.5 12t59 30.5t19.5 54q0 64 -86 64zM426 572l89 148h75l-4 -19l-121 -129h-39z" />
    <glyph glyph-name="uni04D6.var.accented" unicode="&#x4d6;`" horiz-adv-x="512" 
d="M45 0l148 700h355l-13 -62h-287l-52 -246h263l-13 -62h-263l-57 -268h292l-13 -62h-360zM253 849l69 20q-4 -38 15.5 -60t58.5 -22q81 0 109 81l55 -17q-49 -116 -176 -116q-66 0 -100.5 29t-30.5 85zM352 832l140 118h99l-4 -19l-171 -99h-64z" />
    <glyph glyph-name="uni04D7.var.accented" unicode="&#x4d7;`" horiz-adv-x="463" 
d="M363 90l23 -41q-71 -61 -174 -61q-78 0 -118 45t-40 128q0 157 79 254t183 97q67 0 101 -33.5t34 -83.5q0 -70 -68 -109.5t-196 -39.5q-19 0 -59 2q-8 -37 -8 -72q0 -60 26 -96t78 -36q83 0 139 46zM305 456q-120 0 -164 -157h29q42 0 71.5 2.5t66 11t56 29t19.5 52.5
q0 25 -18 43.5t-60 18.5zM207 678l61 23q-1 -84 73 -84q75 0 109 83l46 -17q-19 -55 -65 -86.5t-102 -31.5q-54 0 -89.5 29t-32.5 84zM326 683l89 148h75l-4 -19l-120 -129h-40z" />
    <glyph glyph-name="uni04D8.var.accented" unicode="&#x4d8;`" horiz-adv-x="597" 
d="M506 326h-364q-15 -60 -15 -105q0 -76 34.5 -123.5t105.5 -47.5q95 0 156 75.5t83 200.5zM91 388h424q3 23 3 49q0 41 -7.5 76t-25 67.5t-50 51t-77.5 18.5q-39 0 -83.5 -13t-73.5 -29l-7 56q86 48 172 48q42 0 77.5 -10.5t70.5 -37t55.5 -81.5t20.5 -134
q0 -125 -36 -228t-112 -168t-180 -65q-98 0 -150.5 60t-52.5 163q0 78 32 177zM331 752l140 118h106l-4 -19l-176 -99h-66z" />
    <glyph glyph-name="afii10846.var.accented" unicode="&#x4d9;`" horiz-adv-x="483" 
d="M126 414l-19 50q67 48 167 48q88 0 130.5 -51t42.5 -119q0 -161 -71 -257.5t-195 -96.5q-61 0 -103 36.5t-42 87.5q0 49 17.5 82.5t50.5 51.5t73 25.5t94 7.5q65 0 107 -7q5 33 5 54q0 66 -35 98t-88 32q-71 0 -134 -42zM196 44q56 0 102 44.5t66 127.5q-63 9 -101 9
q-41 0 -73.5 -7.5t-59 -31t-26.5 -62.5q0 -33 23 -56.5t69 -23.5zM245 572l89 148h75l-4 -19l-121 -129h-39z" />
    <glyph glyph-name="uni04DA.var.accented" unicode="&#x4da;`" horiz-adv-x="597" 
d="M506 326h-364q-15 -60 -15 -105q0 -76 34.5 -123.5t105.5 -47.5q95 0 156 75.5t83 200.5zM91 388h424q3 23 3 49q0 41 -7.5 76t-25 67.5t-50 51t-77.5 18.5q-39 0 -83.5 -13t-73.5 -29l-7 56q86 48 172 48q42 0 77.5 -10.5t70.5 -37t55.5 -81.5t20.5 -134
q0 -125 -36 -228t-112 -168t-180 -65q-98 0 -150.5 60t-52.5 163q0 78 32 177zM311 752l92 118h89l-4 -19l-123 -99h-54zM241 813q0 19 13 32t33 13t33 -13t13 -32q0 -18 -13 -31t-33 -13t-33 13t-13 31zM485 813q0 19 13 32t33 13t33 -13t13 -32q0 -18 -13 -31t-33 -13
t-33 13t-13 31z" />
    <glyph glyph-name="uni04DB.var.accented" unicode="&#x4db;`" horiz-adv-x="483" 
d="M126 414l-19 50q67 48 167 48q88 0 130.5 -51t42.5 -119q0 -161 -71 -257.5t-195 -96.5q-61 0 -103 36.5t-42 87.5q0 49 17.5 82.5t50.5 51.5t73 25.5t94 7.5q65 0 107 -7q5 33 5 54q0 66 -35 98t-88 32q-71 0 -134 -42zM196 44q56 0 102 44.5t66 127.5q-63 9 -101 9
q-41 0 -73.5 -7.5t-59 -31t-26.5 -62.5q0 -33 23 -56.5t69 -23.5zM142 625q0 23 17 39t37 16q33 0 33 -34q0 -24 -16.5 -40.5t-35.5 -16.5q-18 0 -26.5 11t-8.5 25zM353 625q0 22 16.5 38.5t36.5 16.5q33 0 33 -35q0 -23 -16 -39.5t-36 -16.5q-34 0 -34 36zM205 562l87 138
h65l-4 -19l-114 -119h-34z" />
    <glyph glyph-name="uni04E2.var.accented" unicode="&#x4e2;`" horiz-adv-x="650" 
d="M456 0l103 488l22 78h-3l-58 -81l-435 -485h-40l148 700h68l-105 -498l-23 -73h4l57 78l438 493h40l-148 -700h-68zM302 734l12 56h295l-12 -56h-295zM395 822l140 118h106l-4 -19l-176 -99h-66z" />
    <glyph glyph-name="uni04E3.var.accented" unicode="&#x4e3;`" horiz-adv-x="511" 
d="M143 500h65l-72 -339q-6 -27 -6 -50q0 -67 54 -67q48 0 98 41.5t80 94.5l67 320h64l-63 -297q-27 -129 -24 -203h-49v96h-4q-34 -45 -82.5 -76.5t-103.5 -31.5q-103 0 -103 108q0 35 10 78zM303 682l89 148h75l-4 -19l-121 -129h-39zM187 584l12 56h276l-12 -56h-276z
" />
    <glyph glyph-name="uni04E4.var.accented" unicode="&#x4e4;`" horiz-adv-x="650" 
d="M456 0l103 488l22 78h-3l-58 -81l-435 -485h-40l148 700h68l-105 -498l-23 -73h4l57 78l438 493h40l-148 -700h-68zM360 752l92 118h89l-4 -19l-123 -99h-54zM290 813q0 19 13 32t33 13t33 -13t13 -32q0 -18 -13 -31t-33 -13t-33 13t-13 31zM534 813q0 19 13 32t33 13
t33 -13t13 -32q0 -18 -13 -31t-33 -13t-33 13t-13 31z" />
    <glyph glyph-name="uni04E5.var.accented" unicode="&#x4e5;`" horiz-adv-x="511" 
d="M143 500h65l-72 -339q-6 -27 -6 -50q0 -67 54 -67q48 0 98 41.5t80 94.5l67 320h64l-63 -297q-27 -129 -24 -203h-49v96h-4q-34 -45 -82.5 -76.5t-103.5 -31.5q-103 0 -103 108q0 35 10 78zM187 625q0 23 17 39t37 16q33 0 33 -34q0 -24 -16.5 -40.5t-35.5 -16.5
q-18 0 -26.5 11t-8.5 25zM398 625q0 22 16.5 38.5t36.5 16.5q33 0 33 -35q0 -23 -16 -39.5t-36 -16.5q-34 0 -34 36zM250 562l87 138h65l-4 -19l-114 -119h-34z" />
    <glyph glyph-name="uni04E6.var.accented" unicode="&#x4e6;`" horiz-adv-x="653" 
d="M364 752l92 118h89l-4 -19l-123 -99h-54zM294 813q0 19 13 32t33 13t33 -13t13 -32q0 -18 -13 -31t-33 -13t-33 13t-13 31zM538 813q0 19 13 32t33 13t33 -13t13 -32q0 -18 -13 -31t-33 -13t-33 13t-13 31zM76 255q-1 123 42.5 226.5t125 167t185.5 63.5
q101 0 159.5 -62.5t58.5 -200.5q0 -125 -42.5 -230t-120 -168t-174.5 -63q-232 0 -234 267zM148 255q-1 -98 41.5 -151.5t120.5 -53.5q114 0 189.5 116t75.5 281q0 203 -160 203q-115 0 -190 -116t-77 -279z" />
    <glyph glyph-name="uni04E7.var.accented" unicode="&#x4e7;`" horiz-adv-x="499" 
d="M178 625q0 23 17 39t37 16q33 0 33 -34q0 -24 -16.5 -40.5t-35.5 -16.5q-18 0 -26.5 11t-8.5 25zM389 625q0 22 16.5 38.5t36.5 16.5q33 0 33 -35q0 -23 -16 -39.5t-36 -16.5q-34 0 -34 36zM241 562l87 138h65l-4 -19l-114 -119h-34zM54 155q0 155 75 256t184 101
q77 0 113.5 -46.5t36.5 -119.5q0 -149 -72 -253.5t-178 -104.5q-82 0 -120.5 48.5t-38.5 118.5zM122 173q0 -129 99 -129q70 0 122 89.5t52 206.5q0 57 -22 86.5t-74 29.5q-70 0 -123.5 -85.5t-53.5 -197.5z" />
    <glyph glyph-name="uni04E8.var.accented" unicode="&#x4e8;`" horiz-adv-x="653" 
d="M75 255v3q0 123 42.5 225.5t123 165.5t183.5 63q102 0 162 -63t60 -200q0 -125 -41.5 -230t-118 -168t-173.5 -63q-116 0 -176.5 68.5t-61.5 198.5zM562 324h-411q-4 -46 -4 -69v-3q0 -96 44 -149t122 -53q91 0 157.5 76t91.5 198zM162 388h409q3 29 3 59q0 60 -14.5 102
t-40 63t-52 29.5t-57.5 8.5q-89 0 -155 -73t-93 -189zM402 752l140 118h106l-4 -19l-176 -99h-66z" />
    <glyph glyph-name="uni04E9.var.accented" unicode="&#x4e9;`" horiz-adv-x="499" 
d="M54 155q0 155 75 256t184 101q77 0 113.5 -46.5t36.5 -119.5q0 -149 -72 -253.5t-178 -104.5q-82 0 -120.5 48.5t-38.5 118.5zM135 277h255q5 33 5 63q0 57 -22 86.5t-74 29.5t-97.5 -50.5t-66.5 -128.5zM379 221h-254q-3 -24 -3 -48q0 -129 99 -129q50 0 93.5 49.5
t64.5 127.5zM289 572l89 148h75l-4 -19l-121 -129h-39z" />
    <glyph glyph-name="uni04EA.var.accented" unicode="&#x4ea;`" horiz-adv-x="653" 
d="M75 255v3q0 123 42.5 225.5t123 165.5t183.5 63q102 0 162 -63t60 -200q0 -125 -41.5 -230t-118 -168t-173.5 -63q-116 0 -176.5 68.5t-61.5 198.5zM562 324h-411q-4 -46 -4 -69v-3q0 -96 44 -149t122 -53q91 0 157.5 76t91.5 198zM162 388h409q3 29 3 59q0 60 -14.5 102
t-40 63t-52 29.5t-57.5 8.5q-89 0 -155 -73t-93 -189zM340 752l92 118h89l-4 -19l-123 -99h-54zM270 813q0 19 13 32t33 13t33 -13t13 -32q0 -18 -13 -31t-33 -13t-33 13t-13 31zM514 813q0 19 13 32t33 13t33 -13t13 -32q0 -18 -13 -31t-33 -13t-33 13t-13 31z" />
    <glyph glyph-name="uni04EB.var.accented" unicode="&#x4eb;`" horiz-adv-x="499" 
d="M54 155q0 155 75 256t184 101q77 0 113.5 -46.5t36.5 -119.5q0 -149 -72 -253.5t-178 -104.5q-82 0 -120.5 48.5t-38.5 118.5zM135 277h255q5 33 5 63q0 57 -22 86.5t-74 29.5t-97.5 -50.5t-66.5 -128.5zM379 221h-254q-3 -24 -3 -48q0 -129 99 -129q50 0 93.5 49.5
t64.5 127.5zM187 625q0 23 17 39t37 16q33 0 33 -34q0 -24 -16.5 -40.5t-35.5 -16.5q-18 0 -26.5 11t-8.5 25zM398 625q0 22 16.5 38.5t36.5 16.5q33 0 33 -35q0 -23 -16 -39.5t-36 -16.5q-34 0 -34 36zM250 562l87 138h65l-4 -19l-114 -119h-34z" />
    <glyph glyph-name="uni04EC.var.accented" unicode="&#x4ec;`" horiz-adv-x="553" 
d="M183 326l13 62h283q2 18 2 52q0 210 -186 210q-77 0 -136 -32l-7 56q71 38 160 38q68 0 117 -23.5t74 -63.5t35.5 -82.5t10.5 -90.5q0 -99 -23.5 -182t-70 -146.5t-122.5 -99.5t-174 -36q-88 0 -143 24l32 63q46 -25 125 -25q109 0 192 72.5t105 203.5h-287zM276 752
l92 118h89l-4 -19l-123 -99h-54zM206 813q0 19 13 32t33 13t33 -13t13 -32q0 -18 -13 -31t-33 -13t-33 13t-13 31zM450 813q0 19 13 32t33 13t33 -13t13 -32q0 -18 -13 -31t-33 -13t-33 13t-13 31z" />
    <glyph glyph-name="uni04ED.var.accented" unicode="&#x4ed;`" horiz-adv-x="441" 
d="M114 224l12 56h207q4 30 4 42q1 134 -103 134q-75 0 -127 -34l-19 46q69 44 162 44q78 0 116.5 -44t38.5 -113q0 -100 -22.5 -173.5t-61.5 -114.5t-84.5 -60t-97.5 -19q-99 0 -145 29l30 55q41 -28 114 -28q72 0 122 46t69 134h-215zM109 625q0 23 17 39t37 16
q33 0 33 -34q0 -24 -16.5 -40.5t-35.5 -16.5q-18 0 -26.5 11t-8.5 25zM320 625q0 22 16.5 38.5t36.5 16.5q33 0 33 -35q0 -23 -16 -39.5t-36 -16.5q-34 0 -34 36zM172 562l87 138h65l-4 -19l-114 -119h-34z" />
    <glyph glyph-name="uni04EE.var.accented" unicode="&#x4ee;`" horiz-adv-x="522" 
d="M192 700l97 -382l7 -89h4l39 92l214 379h76l-262 -449q-92 -158 -134 -207t-98 -49q-47 0 -81 22l35 60q28 -18 56 -18q24 0 49.5 32t60.5 94l-135 515h72zM222 734l12 56h295l-12 -56h-295zM330 822l140 118h106l-4 -19l-176 -99h-66z" />
    <glyph glyph-name="uni04EF.var.accented" unicode="&#x4ef;`" horiz-adv-x="436" 
d="M135 500l53 -333l7 -100h5l42 101l172 332h67l-234 -445l-34 -65l-33 -58q-22 -37 -37 -55.5t-35.5 -41t-40 -31.5t-39.5 -9q-32 0 -48 8l21 60q16 -4 23 -4q31 0 60.5 32.5t68.5 108.5l-84 500h66zM252 682l89 148h75l-4 -19l-121 -129h-39zM136 584l12 56h276l-12 -56
h-276z" />
    <glyph glyph-name="uni04F0.var.accented" unicode="&#x4f0;`" horiz-adv-x="522" 
d="M192 700l97 -382l7 -89h4l39 92l214 379h76l-262 -449q-92 -158 -134 -207t-98 -49q-47 0 -81 22l35 60q28 -18 56 -18q24 0 49.5 32t60.5 94l-135 515h72zM299 752l92 118h89l-4 -19l-123 -99h-54zM229 813q0 19 13 32t33 13t33 -13t13 -32q0 -18 -13 -31t-33 -13
t-33 13t-13 31zM473 813q0 19 13 32t33 13t33 -13t13 -32q0 -18 -13 -31t-33 -13t-33 13t-13 31z" />
    <glyph glyph-name="uni04F1.var.accented" unicode="&#x4f1;`" horiz-adv-x="436" 
d="M135 500l53 -333l7 -100h5l42 101l172 332h67l-234 -445l-34 -65l-33 -58q-22 -37 -37 -55.5t-35.5 -41t-40 -31.5t-39.5 -9q-32 0 -48 8l21 60q16 -4 23 -4q31 0 60.5 32.5t68.5 108.5l-84 500h66zM141 625q0 23 17 39t37 16q33 0 33 -34q0 -24 -16.5 -40.5t-35.5 -16.5
q-18 0 -26.5 11t-8.5 25zM352 625q0 22 16.5 38.5t36.5 16.5q33 0 33 -35q0 -23 -16 -39.5t-36 -16.5q-34 0 -34 36zM204 562l87 138h65l-4 -19l-114 -119h-34z" />
    <glyph glyph-name="uni04F2.var.accented" unicode="&#x4f2;`" horiz-adv-x="522" 
d="M192 700l97 -382l7 -89h4l39 92l214 379h76l-262 -449q-92 -158 -134 -207t-98 -49q-47 0 -81 22l35 60q28 -18 56 -18q24 0 49.5 32t60.5 94l-135 515h72zM239 731l43 89h70l-4 -16l-72 -73h-37zM397 731l145 89h88l-4 -16l-180 -73h-49zM324 752l121 118h99l-4 -19
l-152 -99h-64z" />
    <glyph glyph-name="uni04F3.var.accented" unicode="&#x4f3;`" horiz-adv-x="436" 
d="M135 500l53 -333l7 -100h5l42 101l172 332h67l-234 -445l-34 -65l-33 -58q-22 -37 -37 -55.5t-35.5 -41t-40 -31.5t-39.5 -9q-32 0 -48 8l21 60q16 -4 23 -4q31 0 60.5 32.5t68.5 108.5l-84 500h66zM171 571l41 129h65l-3 -16l-71 -113h-32zM295 571l125 129h73l-3 -16
l-160 -113h-35zM267 622l89 148h75l-4 -19l-120 -129h-40z" />
    <glyph glyph-name="uni04F8.var.accented" unicode="&#x4f8;`" horiz-adv-x="724" 
d="M530 0l148 700h68l-148 -700h-68zM45 7l147 693h68l-58 -276q44 8 86 8q84 0 138 -44t54 -129q0 -70 -26 -123.5t-70 -84t-95.5 -45t-109.5 -14.5q-79 0 -134 15zM198 54q87 0 148.5 52t61.5 146q0 118 -145 118q-43 0 -75 -9l-63 -301q24 -6 73 -6zM387 752l92 118h89
l-4 -19l-123 -99h-54zM317 813q0 19 13 32t33 13t33 -13t13 -32q0 -18 -13 -31t-33 -13t-33 13t-13 31zM561 813q0 19 13 32t33 13t33 -13t13 -32q0 -18 -13 -31t-33 -13t-33 13t-13 31z" />
    <glyph glyph-name="uni04F9.var.accented" unicode="&#x4f9;`" horiz-adv-x="630" 
d="M159 240l-28 -129q-6 -27 5.5 -44t40.5 -17q64 0 110 40.5t46 101.5q0 36 -18.5 50.5t-72.5 14.5q-44 0 -83 -17zM220 500l-48 -200q48 13 96 13q133 0 133 -107q0 -97 -73 -154.5t-164 -57.5q-100 0 -100 84q0 19 4 35l88 387h64zM441 0l106 500h65l-106 -500h-65z
M240 625q0 23 17 39t37 16q33 0 33 -34q0 -24 -16.5 -40.5t-35.5 -16.5q-18 0 -26.5 11t-8.5 25zM451 625q0 22 16.5 38.5t36.5 16.5q33 0 33 -35q0 -23 -16 -39.5t-36 -16.5q-34 0 -34 36zM303 562l87 138h65l-4 -19l-114 -119h-34z" />
    <glyph glyph-name="uniF37E.var.accented" unicode="&#xf37e;`" horiz-adv-x="430" 
d="M153 525l75 -272l5 -68h4l31 70l154 270h77l-206 -346q-67 -113 -99.5 -148t-82.5 -35q-46 0 -72 17l34 60q23 -13 49 -13q20 0 36 18t39 60l-115 387h71zM183 703l61 23q-1 -84 73 -84q75 0 109 83l46 -17q-19 -55 -65 -86.5t-102 -31.5q-54 0 -89.5 29t-32.5 84z
M302 708l89 148h75l-4 -19l-120 -129h-40z" />
    <glyph glyph-name="uniF3A2.var.accented" unicode="&#xf3a2;`" horiz-adv-x="436" 
d="M144 0l43 205l-109 320h72l75 -226l2 -48h1l24 49l164 225h80l-241 -319l-43 -206h-68zM273 597l89 148h75l-4 -19l-121 -129h-39z" />
    <glyph glyph-name="uniF3A3.var.accented" unicode="&#xf3a3;`" horiz-adv-x="436" 
d="M64 150l12 56h110l-108 319h72l75 -226l2 -48h1l24 49l164 225h80l-241 -319h119l-12 -56h-119l-31 -150h-68l31 150h-111zM283 597l89 148h75l-4 -19l-121 -129h-39z" />
    <glyph glyph-name="uniF3B2.var.accented" unicode="&#xf3b2;`" horiz-adv-x="454" 
d="M343 0l-23 139h-195l-80 -139h-73l314 532h33l88 -532h-64zM246 348l-86 -147h151l-24 148l-3 81h-1zM191 703l61 23q-1 -84 73 -84q75 0 109 83l46 -17q-19 -55 -65 -86.5t-102 -31.5q-54 0 -89.5 29t-32.5 84zM310 708l89 148h75l-4 -19l-120 -129h-40z" />
    <glyph glyph-name="uniF3B3.var.accented" unicode="&#xf3b3;`" horiz-adv-x="454" 
d="M343 0l-23 139h-195l-80 -139h-73l314 532h33l88 -532h-64zM246 348l-86 -147h151l-24 148l-3 81h-1zM182 684q5 20 19.5 33t33.5 13q18 0 27 -13t5 -33q-4 -19 -19 -32t-33 -13q-19 0 -28.5 12.5t-4.5 32.5zM393 684q5 20 19 33t33 13t28 -13t4 -33t-19 -32.5t-33 -12.5
t-28 12.5t-4 32.5zM244 612l87 138h65l-4 -19l-114 -119h-34z" />
    <glyph glyph-name="uniF3B4.var.accented" unicode="&#xf3b4;`" horiz-adv-x="661" 
d="M350 438h-3l-41 -79l-129 -155h123zM257 0l30 142h-154l-116 -142h-79l429 525h294l-13 -62h-225l-35 -164h206l-13 -62h-206l-37 -175h229l-13 -62h-297zM397 597l89 148h75l-4 -19l-121 -129h-39z" />
    <glyph glyph-name="uniF3B5.var.accented" unicode="&#xf3b5;`" horiz-adv-x="449" 
d="M45 0l111 525h293l-13 -62h-225l-35 -164h206l-13 -62h-206l-37 -175h229l-13 -62h-297zM189 703l61 23q-1 -84 73 -84q75 0 109 83l46 -17q-19 -55 -65 -86.5t-102 -31.5q-54 0 -89.5 29t-32.5 84zM308 708l89 148h75l-4 -19l-120 -129h-40z" />
    <glyph glyph-name="uniF3B6.var.accented" unicode="&#xf3b6;`" horiz-adv-x="503" 
d="M394 236h-269q-9 -34 -9 -66q0 -53 26.5 -85t78.5 -32q66 0 110.5 49t62.5 134zM74 298h328q5 82 -26 128t-97 46q-67 0 -126 -32l-6 58q68 36 141 36q79 0 132.5 -52.5t53.5 -159.5q0 -140 -70 -235.5t-192 -95.5q-77 0 -119.5 49t-42.5 130q0 59 24 128zM292 597
l89 148h75l-4 -19l-121 -129h-39z" />
    <glyph glyph-name="uniF3B7.var.accented" unicode="&#xf3b7;`" horiz-adv-x="503" 
d="M394 236h-269q-9 -34 -9 -66q0 -53 26.5 -85t78.5 -32q66 0 110.5 49t62.5 134zM74 298h328q5 82 -26 128t-97 46q-67 0 -126 -32l-6 58q68 36 141 36q79 0 132.5 -52.5t53.5 -159.5q0 -140 -70 -235.5t-192 -95.5q-77 0 -119.5 49t-42.5 130q0 59 24 128zM187 684
q5 20 19.5 33t33.5 13q18 0 27 -13t5 -33q-4 -19 -19 -32t-33 -13q-19 0 -28.5 12.5t-4.5 32.5zM398 684q5 20 19 33t33 13t28 -13t4 -33t-19 -32.5t-33 -12.5t-28 12.5t-4 32.5zM249 612l87 138h65l-4 -19l-114 -119h-34z" />
    <glyph glyph-name="uniF3BB.var.accented" unicode="&#xf3bb;`" horiz-adv-x="554" 
d="M360 0l72 340l18 62h-3l-47 -66l-315 -336h-40l111 525h68l-72 -341l-19 -62h4l47 66l315 337h40l-111 -525h-68zM339 707l89 148h75l-4 -19l-121 -129h-39zM233 609l12 56h276l-12 -56h-276z" />
    <glyph glyph-name="uniF3BC.var.accented" unicode="&#xf3bc;`" horiz-adv-x="554" 
d="M360 0l72 340l18 62h-3l-47 -66l-315 -336h-40l111 525h68l-72 -341l-19 -62h4l47 66l315 337h40l-111 -525h-68zM238 684q5 20 19.5 33t33.5 13q18 0 27 -13t5 -33q-4 -19 -19 -32t-33 -13q-19 0 -28.5 12.5t-4.5 32.5zM449 684q5 20 19 33t33 13t28 -13t4 -33
t-19 -32.5t-33 -12.5t-28 12.5t-4 32.5zM300 612l87 138h65l-4 -19l-114 -119h-34z" />
    <glyph glyph-name="uniF3BD.var.accented" unicode="&#xf3bd;`" horiz-adv-x="551" 
d="M63 207q0 62 16.5 119t47.5 104t83.5 75.5t118.5 28.5q87 0 140 -56.5t53 -154.5q0 -137 -72 -234.5t-197 -97.5q-96 0 -143 62t-47 154zM135 214q0 -161 131 -161q83 0 133.5 77t50.5 190q0 67 -29.5 109.5t-97.5 42.5q-86 0 -137 -73.5t-51 -184.5zM233 684
q5 20 19.5 33t33.5 13q18 0 27 -13t5 -33q-4 -19 -19 -32t-33 -13q-19 0 -28.5 12.5t-4.5 32.5zM444 684q5 20 19 33t33 13t28 -13t4 -33t-19 -32.5t-33 -12.5t-28 12.5t-4 32.5zM295 612l87 138h65l-4 -19l-114 -119h-34z" />
    <glyph glyph-name="uniF3BE.var.accented" unicode="&#xf3be;`" horiz-adv-x="551" 
d="M63 207q0 62 16.5 119t47.5 104t83.5 75.5t118.5 28.5q87 0 140 -56.5t53 -154.5q0 -137 -72 -234.5t-197 -97.5q-96 0 -143 62t-47 154zM442 235h-307v-21q0 -161 131 -161q66 0 112.5 50t63.5 132zM143 297h306q1 7 1 23q0 67 -29.5 109.5t-97.5 42.5q-69 0 -116 -48
t-64 -127zM321 597l89 148h75l-4 -19l-121 -129h-39z" />
    <glyph glyph-name="uniF3BF.var.accented" unicode="&#xf3bf;`" horiz-adv-x="551" 
d="M63 207q0 62 16.5 119t47.5 104t83.5 75.5t118.5 28.5q87 0 140 -56.5t53 -154.5q0 -137 -72 -234.5t-197 -97.5q-96 0 -143 62t-47 154zM442 235h-307v-21q0 -161 131 -161q66 0 112.5 50t63.5 132zM143 297h306q1 7 1 23q0 67 -29.5 109.5t-97.5 42.5q-69 0 -116 -48
t-64 -127zM222 684q5 20 19.5 33t33.5 13q18 0 27 -13t5 -33q-4 -19 -19 -32t-33 -13q-19 0 -28.5 12.5t-4.5 32.5zM433 684q5 20 19 33t33 13t28 -13t4 -33t-19 -32.5t-33 -12.5t-28 12.5t-4 32.5zM284 612l87 138h65l-4 -19l-114 -119h-34z" />
    <glyph glyph-name="uniF3C0.var.accented" unicode="&#xf3c0;`" horiz-adv-x="466" 
d="M134 236l13 62h221v29q-1 145 -138 145q-66 0 -114 -25l-5 57q57 30 139 30q79 0 132.5 -48.5t53.5 -158.5v-3q-1 -149 -83 -241t-227 -92q-76 0 -121 20l31 63q38 -21 101 -21q172 0 220 183h-223zM146 684q5 20 19.5 33t33.5 13q18 0 27 -13t5 -33q-4 -19 -19 -32
t-33 -13q-19 0 -28.5 12.5t-4.5 32.5zM357 684q5 20 19 33t33 13t28 -13t4 -33t-19 -32.5t-33 -12.5t-28 12.5t-4 32.5zM208 612l87 138h65l-4 -19l-114 -119h-34z" />
    <glyph glyph-name="uniF3C1.var.accented" unicode="&#xf3c1;`" horiz-adv-x="430" 
d="M153 525l75 -272l5 -68h4l31 70l154 270h77l-206 -346q-67 -113 -99.5 -148t-82.5 -35q-46 0 -72 17l34 60q23 -13 49 -13q20 0 36 18t39 60l-115 387h71zM265 707l89 148h75l-4 -19l-121 -129h-39zM165 609l12 56h276l-12 -56h-276z" />
    <glyph glyph-name="uniF3C2.var.accented" unicode="&#xf3c2;`" horiz-adv-x="430" 
d="M153 525l75 -272l5 -68h4l31 70l154 270h77l-206 -346q-67 -113 -99.5 -148t-82.5 -35q-46 0 -72 17l34 60q23 -13 49 -13q20 0 36 18t39 60l-115 387h71zM181 684q5 20 19.5 33t33.5 13q18 0 27 -13t5 -33q-4 -19 -19 -32t-33 -13q-19 0 -28.5 12.5t-4.5 32.5zM392 684
q5 20 19 33t33 13t28 -13t4 -33t-19 -32.5t-33 -12.5t-28 12.5t-4 32.5zM243 612l87 138h65l-4 -19l-114 -119h-34z" />
    <glyph glyph-name="uniF3C3.var.accented" unicode="&#xf3c3;`" horiz-adv-x="430" 
d="M153 525l75 -272l5 -68h4l31 70l154 270h77l-206 -346q-67 -113 -99.5 -148t-82.5 -35q-46 0 -72 17l34 60q23 -13 49 -13q20 0 36 18t39 60l-115 387h71zM185 596l41 129h65l-3 -16l-71 -113h-32zM309 596l125 129h73l-3 -16l-160 -113h-35zM281 647l89 148h75l-4 -19
l-120 -129h-40z" />
    <glyph glyph-name="uniF3C6.var.accented" unicode="&#xf3c6;`" horiz-adv-x="632" 
d="M438 0l111 525h68l-111 -525h-68zM45 5l110 520h68l-42 -200q33 6 64 6q73 0 116.5 -36t43.5 -100q0 -93 -61.5 -147.5t-182.5 -54.5q-72 0 -116 12zM180 55q72 0 112.5 35t40.5 92q0 47 -27.5 67t-82.5 20q-29 0 -55 -7l-43 -202q15 -5 55 -5zM270 684q5 20 19.5 33
t33.5 13q18 0 27 -13t5 -33q-4 -19 -19 -32t-33 -13q-19 0 -28.5 12.5t-4.5 32.5zM481 684q5 20 19 33t33 13t28 -13t4 -33t-19 -32.5t-33 -12.5t-28 12.5t-4 32.5zM332 612l87 138h65l-4 -19l-114 -119h-34z" />
    <glyph glyph-name="uniF684" unicode="&#xf769;&#xf76a;" horiz-adv-x="497" 
d="M325 139l82 386h68l-86 -402q-28 -131 -136 -131q-43 0 -66 13l26 61q20 -10 43 -10q29 0 44.5 21t24.5 62zM69 0l111 525h68l-111 -525h-68z" />
    <glyph glyph-name="f_f" unicode="ff" horiz-adv-x="534" 
d="M409 444h-195l-83 -478q-15 -84 -46.5 -129t-98.5 -45q-57 0 -96 18l19 48q30 -10 77 -10q37 0 57 37t34 123l72 436h-79l12 56h74l11 49q32 143 153 143q42 0 94 -21l-21 -52q-41 17 -72 17q-38 0 -60.5 -26t-34.5 -85l-5 -25h195l13 67q15 78 45 111.5t96 33.5
q55 0 114 -24l-21 -52q-48 20 -92 20q-37 0 -55 -26t-28 -87l-7 -43h100l-9 -56h-98l-73 -427q-15 -84 -46.5 -129t-98.5 -45q-57 0 -96 18l19 48q30 -10 77 -10q37 0 57 37t34 123z" />
    <glyph glyph-name="fi" unicode="fi" horiz-adv-x="510" 
d="M214 444l-74 -444q-19 -115 -51.5 -161.5t-102.5 -46.5q-57 0 -96 18l19 48q30 -10 77 -10q65 0 90 152l74 444h-76l12 56h76l6 28q37 178 210 178q100 0 152 -38l-28 -49q-44 31 -135 31q-68 0 -96 -35.5t-45 -114.5h249l-86 -500h-64l74 444h-185z" />
    <glyph glyph-name="fl" unicode="fl" horiz-adv-x="543" 
d="M76 0l64 444h-76l12 56h76l6 28q20 94 67.5 139t133.5 45q99 0 162 -18l-93 -581q-11 -65 31 -65q31 0 64 11l-4 -50q-36 -17 -88 -17q-95 0 -71 108l86 547q-43 9 -97 9q-63 0 -89.5 -37t-43.5 -119h105l-12 -56h-105l-64 -444q-16 -114 -49.5 -161t-104.5 -47
q-57 0 -96 18l19 48q30 -10 77 -10q65 0 90 152z" />
    <glyph glyph-name="f_f_i" unicode="ffi" horiz-adv-x="769" 
d="M221 500h200l6 28q37 178 210 178q100 0 152 -38l-28 -49q-44 31 -135 31q-68 0 -96 -35.5t-45 -114.5h249l-86 -500h-64l74 444h-186l-71 -427q-14 -83 -46 -128.5t-99 -45.5q-57 0 -96 18l19 48q30 -10 77 -10q37 0 57 37t34 123l62 385h-195l-83 -478
q-15 -84 -46.5 -129t-98.5 -45q-57 0 -96 18l19 48q30 -10 77 -10q37 0 57 37t34 123l72 436h-79l12 56h74l11 49q31 143 153 143q42 0 94 -21l-21 -52q-41 17 -72 17q-39 0 -62 -26t-33 -85z" />
    <glyph glyph-name="f_f_l" unicode="ffl" horiz-adv-x="810" 
d="M473 444l-72 -427q-15 -84 -46.5 -129t-98.5 -45q-57 0 -96 18l19 48q30 -10 77 -10q37 0 57 37t34 123l62 385h-195l-83 -478q-15 -84 -46.5 -129t-98.5 -45q-57 0 -96 18l19 48q30 -10 77 -10q37 0 57 37t34 123l72 436h-79l12 56h74l11 49q31 143 153 143q42 0 94 -21
l-21 -52q-41 17 -72 17q-39 0 -62 -26t-33 -85l-5 -25h200l6 28q20 94 67.5 139t133.5 45q99 0 162 -18l-103 -581q-3 -15 -3 -27q0 -38 34 -38q31 0 64 11l-4 -50q-36 -17 -88 -17q-75 0 -75 70q0 19 4 38l96 547q-43 9 -97 9q-63 0 -89.5 -37t-43.5 -119h105l-12 -56h-105
z" />
    <glyph glyph-name=".notdef" horiz-adv-x="750" 
d="M50 0v700h650v-700h-650zM620 570l-50 50l-195 -217l-195 217l-50 -50l197 -220l-197 -220l50 -50l195 217l195 -217l50 50l-198 220zM129 63v-36h8v12h4q16 0 16 12t-17 12h-11zM137 57h4q8 0 8 -5q0 -6 -9 -6h-3v11zM189 57v6h-31v-6h12v-30h7v30h12zM222 37
q0 -4 -7 -4q-5 0 -9 2l-3 -7q8 -2 13 -2q14 0 14 12q0 7 -9 10t-9 6t6 3q3 0 9 -2l2 7q-8 2 -11 2q-14 0 -14 -11q0 -7 9 -10.5t9 -5.5zM235 52l2 -5q6 2 9 2q5 0 5 -4v-2l-1 1h-4q-12 0 -12 -10q0 -8 8 -8q6 0 9 5l2 -4h6q-1 1 -1 7v11q0 10 -10 10q-4 0 -13 -3zM245 32
q-4 0 -4 4t5 4h4l1 -1v-3q-1 -4 -6 -4zM284 27h8v16q0 12 -9 12q-7 0 -10 -5l-2 4h-5v-27h7v17q1 4 6 4t5 -6v-15zM299 34l-2 -6q6 -2 10 -2q11 0 11 9q0 5 -8 9q-5 2 -5 3q0 2 3 2q2 0 8 -2l2 6q-6 2 -10 2q-10 0 -10 -9q0 -5 8 -9q5 -2 5 -3q0 -2 -3 -2t-9 2zM338 42
q0 -21 20 -21t20 21q0 20 -20 20q-8 0 -14 -5.5t-6 -14.5zM344 42q0 15 14 15t14 -15t-14 -15t-14 15zM365 33l-1 5q-2 -1 -4 -1q-4 0 -4 5q0 4 4 4h3l2 4q-3 2 -7 2q-9 0 -9 -10q0 -11 9 -11q5 0 7 2zM399 63v-36h8v12h4q16 0 16 12t-17 12h-11zM407 57h4q8 0 8 -5
q0 -6 -9 -6h-3v11zM430 52l2 -5q6 2 9 2q5 0 5 -4v-2l-2 1h-3q-13 0 -13 -10q0 -8 9 -8q6 0 9 5l2 -4h6q-1 1 -1 7v11q0 10 -10 10q-4 0 -13 -3zM440 32q-4 0 -4 4t5 4h3l2 -1v-3q-1 -4 -6 -4zM477 47l1 7q-1 1 -4 1q-4 0 -6 -5h-1l-1 4h-6v-27h8v17q0 4 6 4zM482 52l1 -5
q8 2 9 2q5 0 5 -4v-2l-1 1h-4q-13 0 -13 -10q0 -8 9 -8q7 0 9 5h1l1 -4h6q-1 1 -1 7v11q0 10 -10 10q-3 0 -12 -3zM491 32q-4 0 -4 4t5 4h4l1 -1v-3q-1 -4 -6 -4zM533 57v6h-31v-6h12v-30h7v30h12zM547 39l-6 15h-8l12 -27q-2 -5 -5 -5l-1 1l-2 -6q1 -1 5 -1q6 0 10 13
l10 25h-8l-5 -15v-5h-1zM565 54v-38h8v12q2 -2 5 -2q14 0 14 15q0 14 -11 14q-5 0 -9 -4h-1l-1 3h-5zM579 49q5 0 5 -8q0 -9 -7 -9q-2 0 -4 2v10q0 5 6 5zM621 29l-3 5q-2 -2 -7 -2q-7 0 -7 6h18v6q0 11 -12 11q-14 0 -14 -15q0 -14 14 -14q5 0 11 3zM610 49q6 0 5 -6h-11
q0 6 6 6z" />
    <glyph glyph-name=".null" horiz-adv-x="0" 
 />
    <glyph glyph-name="nonmarkingreturn" horiz-adv-x="333" 
 />
    <glyph glyph-name="space" unicode=" " horiz-adv-x="270" 
 />
    <glyph glyph-name="exclam" unicode="!" horiz-adv-x="271" 
d="M168 349l74 351h69l-74 -351l-53 -179h-39zM90 42q0 25 14.5 39.5t38.5 14.5t38.5 -14.5t14.5 -39.5q0 -24 -14.5 -39t-38.5 -15t-38.5 15t-14.5 39z" />
    <glyph glyph-name="quotedbl" unicode="&#x22;" horiz-adv-x="292" 
d="M80 512l40 188h67l-68 -188h-39zM185 512l40 188h67l-68 -188h-39z" />
    <glyph glyph-name="numbersign" unicode="#" 
d="M275 60l40 170h-109l-40 -170h-60l40 170h-79l12 56h81l32 138h-75l12 56h77l38 160h60l-38 -160h109l38 160h60l-38 -160h78l-14 -56h-78l-32 -138h74l-14 -56h-74l-40 -170h-60zM252 424l-32 -138h109l32 138h-109z" />
    <glyph glyph-name="dollar" unicode="$" 
d="M180 -100l19 91q-43 7 -81 25.5t-57 36.5l33 53q64 -44 118 -53l63 294q-38 29 -58.5 47.5t-39.5 53.5t-19 77q0 84 52.5 131.5t141.5 54.5l20 89h57l-19 -89q66 -6 126 -37l-30 -54q-62 24 -110 29l-56 -263q38 -28 60.5 -50t42.5 -63.5t20 -91.5q0 -81 -54.5 -134.5
t-153.5 -57.5l-18 -89h-57zM315 316l-56 -265q62 5 98 37.5t36 87.5q0 77 -78 140zM299 417l49 232q-57 -5 -88.5 -35.5t-31.5 -77.5q0 -62 71 -119z" />
    <glyph glyph-name="percent" unicode="%" horiz-adv-x="721" 
d="M60 488q0 109 56.5 166.5t126.5 57.5q55 0 83.5 -31t28.5 -88q0 -102 -52.5 -161.5t-131.5 -59.5q-50 0 -80.5 31t-30.5 85zM120 497q0 -73 62 -73q47 0 80 45.5t33 121.5q0 69 -63 69q-45 0 -78.5 -48.5t-33.5 -114.5zM378 116q0 109 56.5 166.5t126.5 57.5
q55 0 83.5 -31t28.5 -88q0 -102 -52.5 -161.5t-131.5 -59.5q-50 0 -80.5 31t-30.5 85zM438 125q0 -73 62 -73q47 0 80 45.5t33 121.5q0 69 -63 69q-45 0 -78.5 -48.5t-33.5 -114.5zM90 21l500 692l44 -32l-499 -693z" />
    <glyph glyph-name="ampersand" unicode="&#x26;" horiz-adv-x="770" 
d="M90 145q0 88 65 165.5t154 123.5q-11 30 -15.5 44t-8 36.5t-3.5 49.5q0 58 42.5 103t119.5 45q61 0 83.5 -28t22.5 -65q0 -108 -164 -197q40 -118 128 -244q52 49 109 157l47 -24q-18 -34 -59 -90t-70 -86q56 -69 101 -99l-52 -48q-46 29 -96 96q-110 -96 -227 -96
q-80 0 -128.5 44t-48.5 113zM464 127q-39 56 -77 131.5t-57 130.5q-172 -111 -172 -229q0 -55 34 -83.5t97 -28.5q47 0 95.5 23.5t79.5 55.5zM346 565q0 -47 21 -101q63 38 91 70t28 71q0 51 -53 51q-44 0 -65.5 -27t-21.5 -64z" />
    <glyph glyph-name="quotesingle" unicode="'" horiz-adv-x="199" 
d="M104 512l40 188h67l-68 -188h-39z" />
    <glyph glyph-name="parenleft" unicode="(" horiz-adv-x="256" 
d="M181 -187l-39 -31q-90 137 -90 290q0 195 80 361t203 279l30 -31q-117 -127 -180 -281.5t-63 -314.5q0 -144 59 -272z" />
    <glyph glyph-name="parenright" unicode=")" horiz-adv-x="256" 
d="M85 679l42 28q43 -58 63.5 -137t20.5 -149q0 -195 -78.5 -362t-199.5 -279l-32 31q103 107 173.5 268t70.5 311q0 187 -60 289z" />
    <glyph glyph-name="asterisk" unicode="*" horiz-adv-x="328" 
d="M111 686l46 26l24 -41l19 -56l22 57l23 39l45 -25l-25 -41l-46 -49l69 11h46v-52h-44l-65 11l45 -48l23 -38l-44 -26l-25 41l-24 60l-20 -58l-24 -40l-47 26l26 40l42 43l-59 -11h-48v52h48l63 -11l-44 45z" />
    <glyph glyph-name="plus" unicode="+" horiz-adv-x="475" 
d="M55 306v64h178v182h64v-182h178v-64h-178v-184h-64v184h-178z" />
    <glyph glyph-name="comma" unicode="," horiz-adv-x="189" 
d="M18 31q0 25 16 41t46 16q21 0 34.5 -15.5t13.5 -36.5v-2q-3 -70 -45.5 -119t-88.5 -64l-14 36q38 14 62 44t28 62q-4 -3 -12 -3q-15 0 -27.5 11.5t-12.5 29.5z" />
    <glyph glyph-name="hyphen" unicode="-" horiz-adv-x="342" 
d="M64 258l14 60h228l-14 -60h-228z" />
    <glyph glyph-name="period" unicode="." horiz-adv-x="202" 
d="M36 42q0 25 14.5 39.5t38.5 14.5t38.5 -14.5t14.5 -39.5q0 -24 -14.5 -39t-38.5 -15t-38.5 15t-14.5 39z" />
    <glyph glyph-name="slash" unicode="/" horiz-adv-x="325" 
d="M-97 -116l524 828l51 -28l-524 -828z" />
    <glyph glyph-name="zero" unicode="0" 
d="M57 217q0 213 84 354t213 141q175 0 175 -227q0 -123 -32.5 -234.5t-100.5 -187t-159 -75.5q-49 0 -85.5 19.5t-56.5 53t-29 72.5t-9 84zM125 222q0 -174 122 -174q60 0 110 62.5t77 159.5t27 203q0 93 -26.5 136t-90.5 43q-86 0 -152.5 -123.5t-66.5 -306.5z" />
    <glyph glyph-name="one" unicode="1" 
d="M64 0l13 64h134l108 506l20 57l-46 -45l-126 -82l-25 45l244 167h27l-138 -648h130l-13 -64h-328z" />
    <glyph glyph-name="two" unicode="2" 
d="M510 573q0 -91 -92.5 -220t-216.5 -250l-54 -44v-3l60 8h211l-13 -64h-374l4 20l44 43l61 59l66 67q42 44 70.5 76.5t63 77t55 79.5t35 72.5t14.5 67.5q0 43 -20 66.5t-70 23.5q-62 0 -146 -55l-18 52q84 63 183 63q67 0 102 -38t35 -101z" />
    <glyph glyph-name="three" unicode="3" 
d="M187 50q93 0 145 54t52 130q0 56 -28.5 84t-97.5 28h-73l4 20l190 235l50 43l-60 -8h-192l13 64h334l-4 -20l-207 -253l-37 -29v-2l31 6q63 0 103 -39.5t40 -117.5q0 -112 -71 -184.5t-203 -72.5q-77 0 -132 24l31 63q43 -25 112 -25z" />
    <glyph glyph-name="four" unicode="4" 
d="M522 280l-13 -60h-114l-46 -220h-64l46 220h-295l5 24l419 468h40l-92 -432h114zM344 280l50 235l27 81h-3l-47 -67l-184 -204l-55 -52l68 7h144z" />
    <glyph glyph-name="five" unicode="5" 
d="M183 50q90 0 144.5 55t54.5 142q0 118 -136 118l-81 -5l72 340h289l-13 -64h-226l-46 -213l40 2q89 0 128 -48t39 -118q0 -76 -25.5 -131.5t-68 -84.5t-88.5 -42t-97 -13q-69 0 -120 22l30 60q47 -20 104 -20z" />
    <glyph glyph-name="six" unicode="6" 
d="M475 242q0 -112 -65 -183t-171 -71q-74 0 -125 52.5t-51 162.5q0 97 38 188t98.5 157.5t136.5 110.5t153 53l3 -56q-112 -19 -213 -110t-136 -205q21 29 67 50t98 21q74 0 120.5 -44t46.5 -126zM407 234q0 54 -28.5 86t-85.5 32q-47 0 -92 -24t-67 -59q-7 -42 -7 -58
q0 -74 29.5 -118.5t89.5 -44.5q80 0 120.5 55t40.5 131z" />
    <glyph glyph-name="seven" unicode="7" 
d="M142 0h-71l369 597l52 49l-58 -10h-272l13 64h390l-5 -24z" />
    <glyph glyph-name="eight" unicode="8" 
d="M62 145q0 69 46.5 128.5t131.5 94.5q-29 23 -43 37t-28 45.5t-14 73.5q0 87 61 137.5t149 50.5q66 0 109.5 -38t43.5 -108q0 -58 -42.5 -113.5t-111.5 -92.5q29 -25 45 -42.5t31 -50t15 -70.5q0 -89 -56.5 -149t-175.5 -60q-78 0 -119.5 45t-41.5 112zM389 182
q0 54 -25.5 88t-77.5 67q-73 -33 -115.5 -81t-42.5 -106q0 -43 26 -72.5t85 -29.5q62 0 106 36t44 98zM221 528q0 -47 23.5 -78t71.5 -61q136 87 136 166q0 48 -25.5 72.5t-69.5 24.5q-56 0 -96 -34t-40 -90z" />
    <glyph glyph-name="nine" unicode="9" 
d="M105 470q0 112 66.5 177t169.5 65q77 0 127.5 -56t50.5 -154q0 -109 -40 -205t-103 -159t-136.5 -102.5t-145.5 -47.5l-3 57q127 27 216.5 107.5t126.5 194.5q-68 -59 -171 -59q-60 0 -109 46.5t-49 135.5zM173 476q0 -68 35 -98t80 -30q47 0 90.5 18.5t66.5 46.5
q8 36 8 80q0 74 -32.5 116.5t-91.5 42.5q-66 0 -111 -45t-45 -131z" />
    <glyph glyph-name="colon" unicode=":" horiz-adv-x="261" 
d="M175 454q0 25 14.5 39.5t38.5 14.5t38.5 -14.5t14.5 -39.5q0 -24 -14.5 -39t-38.5 -15t-38.5 15t-14.5 39zM90 54q0 25 14.5 39.5t38.5 14.5t38.5 -14.5t14.5 -39.5q0 -24 -14.5 -39t-38.5 -15t-38.5 15t-14.5 39z" />
    <glyph glyph-name="semicolon" unicode=";" horiz-adv-x="270" 
d="M92 31q0 25 16 41t46 16q21 0 34.5 -15.5t13.5 -36.5v-2q-3 -70 -45.5 -119t-88.5 -64l-14 36q38 14 62 44t28 62q-4 -3 -12 -3q-15 0 -27.5 11.5t-12.5 29.5zM184 454q0 25 14.5 39.5t38.5 14.5t38.5 -14.5t14.5 -39.5q0 -24 -14.5 -39t-38.5 -15t-38.5 15t-14.5 39z
" />
    <glyph glyph-name="less" unicode="&#x3c;" horiz-adv-x="475" 
d="M437 88l-382 221v20l377 231l34 -55l-240 -147l-91 -38l90 -32l246 -146z" />
    <glyph glyph-name="equal" unicode="=" horiz-adv-x="475" 
d="M55 386v64h420v-64h-420zM55 226v64h420v-64h-420z" />
    <glyph glyph-name="greater" unicode="&#x3e;" horiz-adv-x="475" 
d="M89 560l382 -221v-20l-377 -231l-34 55l240 147l91 38l-90 32l-246 146z" />
    <glyph glyph-name="question" unicode="?" horiz-adv-x="410" 
d="M176 170h-54q6 54 33.5 100.5t61.5 79.5l69 65q34 31 57 69.5t23 82.5q0 89 -97 89q-54 0 -132 -42l-17 50q46 26 81.5 37t92.5 11q63 0 101.5 -35.5t38.5 -95.5q0 -57 -24 -104t-59 -80t-71.5 -64t-66 -73t-37.5 -90zM80 42q0 25 14.5 39.5t38.5 14.5t38.5 -14.5
t14.5 -39.5q0 -24 -14.5 -39t-38.5 -15t-38.5 15t-14.5 39z" />
    <glyph glyph-name="at" unicode="@" horiz-adv-x="1065" 
d="M709 462l34 31h26l-52 -291q-12 -67 -12 -92q0 -50 40 -50q75 0 135.5 76.5t60.5 189.5q0 152 -99 239t-262 87q-167 0 -281.5 -116t-114.5 -293q0 -180 107.5 -281.5t285.5 -101.5q71 0 133 28l17 -57q-73 -31 -161 -31q-125 0 -224.5 48.5t-160.5 149t-61 238.5
q0 141 63.5 251t169 167.5t232.5 57.5q183 0 301.5 -104.5t118.5 -281.5q0 -129 -81 -227.5t-191 -98.5q-43 0 -65.5 19t-22.5 64q0 18 5 48h-4q-33 -54 -81.5 -92.5t-102.5 -38.5q-49 0 -83.5 42.5t-34.5 110.5q0 86 35.5 166t97 130.5t130.5 50.5q33 0 54.5 -9.5
t47.5 -28.5zM657 231l31 169q-34 40 -81 40q-79 0 -137 -89t-58 -190t77 -101q39 0 86 51t82 120z" />
    <glyph glyph-name="A" unicode="A" horiz-adv-x="552" 
d="M437 0l-29 203h-253l-114 -203h-73l407 712h24l104 -712h-66zM319 490l-129 -225h209l-32 227l-2 105h-1z" />
    <glyph glyph-name="B" unicode="B" horiz-adv-x="554" 
d="M556 553q0 -79 -45.5 -128t-117.5 -59v-4q48 -9 79.5 -46t31.5 -88q0 -55 -18.5 -97.5t-47.5 -68t-69 -42t-78 -22.5t-80 -6q-118 0 -166 13l146 689q86 14 184 14q76 0 128.5 -40t52.5 -115zM232 54q83 0 141.5 40.5t58.5 122.5q0 109 -179 109h-72l-56 -264
q27 -8 107 -8zM194 386h54q54 0 83 4q153 31 153 152q0 104 -130 104q-80 0 -107 -6z" />
    <glyph glyph-name="C" unicode="C" horiz-adv-x="545" 
d="M472 87l7 -58q-61 -41 -159 -41q-112 0 -179 80.5t-67 205.5q0 108 33 194t87.5 138t120 79t135.5 27q90 0 150 -27l-32 -63q-47 26 -129 26q-121 0 -207 -101t-86 -265q0 -102 51 -166t140 -64q76 0 135 35z" />
    <glyph glyph-name="D" unicode="D" horiz-adv-x="623" 
d="M45 -1l148 701q56 8 170 8q121 0 187.5 -65t66.5 -193q0 -58 -11.5 -116.5t-41 -121.5t-74 -111t-117.5 -79t-164 -31q-116 0 -164 8zM358 644q-75 0 -110 -5l-122 -580q26 -4 90 -4q86 0 152 36.5t103 95t55.5 123.5t18.5 130q0 204 -187 204z" />
    <glyph glyph-name="E" unicode="E" horiz-adv-x="512" 
d="M45 0l148 700h355l-13 -62h-287l-52 -246h263l-13 -62h-263l-57 -268h292l-13 -62h-360z" />
    <glyph glyph-name="F" unicode="F" horiz-adv-x="493" 
d="M45 0l148 700h355l-13 -62h-287l-54 -256h268l-13 -62h-268l-68 -320h-68z" />
    <glyph glyph-name="G" unicode="G" horiz-adv-x="582" 
d="M368 306l8 40h179l-65 -307q-68 -51 -170 -51q-103 0 -174.5 74.5t-71.5 210.5q0 95 24.5 172t64 126t91 81.5t102 46t101.5 13.5q94 0 152 -26l-32 -63q-42 25 -129 25q-125 0 -213.5 -97t-88.5 -270q0 -98 48 -163.5t140 -65.5q55 0 105 25l44 209z" />
    <glyph glyph-name="H" unicode="H" horiz-adv-x="642" 
d="M448 0l69 327h-335l-69 -327h-68l148 700h68l-65 -309h335l65 309h68l-148 -700h-68z" />
    <glyph glyph-name="I" unicode="I" horiz-adv-x="277" 
d="M69 0l148 700h68l-148 -700h-68z" />
    <glyph glyph-name="J" unicode="J" horiz-adv-x="268" 
d="M105 163l114 537h68l-117 -553q-18 -83 -54 -119.5t-109 -36.5q-48 0 -70 14l25 62q19 -12 54 -12q39 0 58 26t31 82z" />
    <glyph glyph-name="K" unicode="K" horiz-adv-x="572" 
d="M420 0l-185 329h-53l-69 -329h-68l148 700h68l-70 -329l41 14l298 315h87l-293 -306l-44 -30l38 -40l180 -324h-78z" />
    <glyph glyph-name="L" unicode="L" horiz-adv-x="492" 
d="M445 64l-13 -64h-387l148 700h68l-135 -636h319z" />
    <glyph glyph-name="M" unicode="M" horiz-adv-x="750" 
d="M556 0l105 494l28 97h-4l-54 -92l-250 -328h-20l-120 328l-14 92h-4l-8 -96l-105 -495h-65l148 700h43l135 -367l15 -77h1l46 79l281 365h58l-148 -700h-68z" />
    <glyph glyph-name="N" unicode="N" horiz-adv-x="644" 
d="M489 -12l-229 491l-34 101h-3l-12 -101l-101 -479h-65l151 712h28l229 -488l33 -96h4l9 96l102 476h65l-151 -712h-26z" />
    <glyph glyph-name="O" unicode="O" horiz-adv-x="653" 
d="M76 255q-1 123 42.5 226.5t125 167t185.5 63.5q101 0 159.5 -62.5t58.5 -200.5q0 -125 -42.5 -230t-120 -168t-174.5 -63q-232 0 -234 267zM148 255q-1 -98 41.5 -151.5t120.5 -53.5q114 0 189.5 116t75.5 281q0 203 -160 203q-115 0 -190 -116t-77 -279z" />
    <glyph glyph-name="P" unicode="P" horiz-adv-x="528" 
d="M45 0l146 693q61 15 158 15q96 0 154 -43.5t58 -134.5q0 -72 -27 -125t-73.5 -82t-99 -42t-113.5 -13t-78 4l-57 -272h-68zM332 646q-56 0 -84 -6l-64 -305q15 -5 73 -5q48 0 88 10t73 31.5t52 60.5t19 92q0 122 -157 122z" />
    <glyph glyph-name="Q" unicode="Q" horiz-adv-x="653" 
d="M649 -102l-13 -62q-48 -12 -91 -12q-68 0 -174 34t-148 34q-22 0 -43 -6l13 62q28 6 56 6q50 0 150 -33t165 -33q42 0 85 10zM76 255q-1 123 42.5 226.5t125 167t185.5 63.5q101 0 159.5 -62.5t58.5 -200.5q0 -125 -42.5 -230t-120 -168t-174.5 -63q-232 0 -234 267z
M148 255q-1 -98 41.5 -151.5t120.5 -53.5q114 0 189.5 116t75.5 281q0 203 -160 203q-115 0 -190 -116t-77 -279z" />
    <glyph glyph-name="R" unicode="R" horiz-adv-x="564" 
d="M45 0l147 693q81 15 153 15q81 0 136.5 -41.5t55.5 -128.5q0 -86 -51.5 -145t-151.5 -76l36 -38l110 -279h-74l-126 308l-99 16l-68 -324h-68zM341 646q-59 0 -92 -6l-58 -270h73q40 0 74 8t63.5 26t46.5 52t17 81q0 42 -32 75.5t-92 33.5z" />
    <glyph glyph-name="S" unicode="S" horiz-adv-x="504" 
d="M396 178q0 35 -18.5 64t-47.5 47l-61 41q-32 23 -60.5 45t-47 59t-18.5 83q0 99 68 147t177 48q114 0 171 -31l-34 -61q-54 30 -154 30q-71 0 -113.5 -33.5t-42.5 -91.5q0 -32 14 -57.5t36.5 -44t49.5 -35.5t53.5 -35.5t49 -40t36.5 -54t14 -72.5q0 -93 -69 -145.5
t-198 -52.5q-117 0 -180 36l36 64q63 -38 156 -38q75 0 129 30t54 98z" />
    <glyph glyph-name="T" unicode="T" horiz-adv-x="524" 
d="M612 700l-13 -64h-209l-135 -636h-68l135 636h-209l13 64h486z" />
    <glyph glyph-name="U" unicode="U" horiz-adv-x="622" 
d="M489 256l94 444h65l-99 -470q-27 -127 -86 -182.5t-174 -55.5q-197 0 -197 172q0 41 11 94l94 442h68l-93 -444q-10 -46 -10 -84q0 -63 33 -89.5t104 -26.5q82 0 124.5 46t65.5 154z" />
    <glyph glyph-name="V" unicode="V" horiz-adv-x="533" 
d="M173 700l72 -494l2 -104h1l45 106l276 492h73l-403 -712h-25l-109 712h68z" />
    <glyph glyph-name="W" unicode="W" horiz-adv-x="780" 
d="M185 700l21 -484l-8 -114h1l39 116l243 482h33l38 -484l-8 -114h1l40 116l224 482h69l-337 -712h-34l-38 487l6 105h-4l-40 -106l-242 -486h-34l-40 712h70z" />
    <glyph glyph-name="X" unicode="X" horiz-adv-x="584" 
d="M-3 0l300 358l-134 342h76l90 -245l13 -54l34 54l201 245h83l-283 -339l145 -361h-75l-101 259l-15 57l-37 -57l-214 -259h-83z" />
    <glyph glyph-name="Y" unicode="Y" horiz-adv-x="523" 
d="M184 0l59 282l-134 418h74l94 -316l4 -58h1l30 60l226 314h77l-303 -417l-60 -283h-68z" />
    <glyph glyph-name="Z" unicode="Z" horiz-adv-x="520" 
d="M1 0l13 64l452 533l47 39h-377l13 64h444l-13 -64l-455 -536l-45 -36h378l-13 -64h-444z" />
    <glyph glyph-name="bracketleft" unicode="[" horiz-adv-x="286" 
d="M32 -230l164 930h162l-10 -59h-97l-143 -811h97l-11 -60h-162z" />
    <glyph glyph-name="backslash" unicode="\" horiz-adv-x="370" 
d="M84 712l370 -827l-58 -25l-372 827z" />
    <glyph glyph-name="bracketright" unicode="]" horiz-adv-x="286" 
d="M277 700l-164 -930h-162l11 60h97l143 811h-97l10 59h162z" />
    <glyph glyph-name="asciicircum" unicode="^" horiz-adv-x="500" 
d="M109 440l184 272h20l166 -272h-72l-81 138l-24 68l-32 -69l-96 -137h-65z" />
    <glyph glyph-name="underscore" unicode="_" horiz-adv-x="400" 
d="M-43 -201v60h400v-60h-400z" />
    <glyph glyph-name="grave" unicode="`" horiz-adv-x="238" 
d="M385 720l30 -148h-37l-79 129l4 19h82z" />
    <glyph glyph-name="a" unicode="a" horiz-adv-x="483" 
d="M471 489l-64 -293q-14 -66 -14 -141q0 -33 3 -57h-49l-14 87h-4q-29 -40 -72 -68.5t-92 -28.5q-117 0 -117 155q0 65 16.5 128t48.5 118.5t88 89.5t128 34q63 0 142 -24zM182 44q45 0 88.5 38.5t66.5 81.5l58 278q-30 15 -81 15q-62 0 -108.5 -48.5t-68 -119.5
t-21.5 -151q0 -42 17 -68t49 -26z" />
    <glyph glyph-name="b" unicode="b" horiz-adv-x="522" 
d="M48 31l142 669h64l-61 -285h4q80 97 175 97q58 0 86 -40t28 -108q0 -168 -87 -270t-203 -102q-49 0 -89 11.5t-59 27.5zM356 456q-50 0 -103.5 -44.5t-80.5 -97.5l-52 -244q31 -22 90 -22q76 0 142 83.5t66 218.5q0 52 -17 79t-45 27z" />
    <glyph glyph-name="c" unicode="c" horiz-adv-x="422" 
d="M346 86l18 -42q-30 -25 -73 -40.5t-79 -15.5q-47 0 -80 15.5t-49 41t-22.5 50.5t-6.5 51q0 163 81.5 264.5t193.5 101.5q49 0 103 -22l-24 -54q-34 20 -99 20q-71 0 -129 -87t-58 -194q0 -66 27.5 -98.5t76.5 -32.5q60 0 120 42z" />
    <glyph glyph-name="d" unicode="d" horiz-adv-x="509" 
d="M527 700l-112 -529q-15 -68 -15 -130q0 -17 2 -43h-43l-14 87h-4q-28 -39 -74 -68t-95 -29q-118 0 -118 171q0 58 17 118t48 112.5t83.5 85.5t115.5 33q56 0 101 -17l44 209h64zM196 44q41 0 86 39t67 81l57 268q-33 20 -100 20q-54 0 -97 -43.5t-65 -112t-22 -146.5
q0 -46 18.5 -76t55.5 -30z" />
    <glyph glyph-name="e" unicode="e" horiz-adv-x="463" 
d="M363 90l23 -41q-71 -61 -174 -61q-78 0 -118 45t-40 128q0 157 79 254t183 97q67 0 101 -33.5t34 -83.5q0 -70 -68 -109.5t-196 -39.5q-19 0 -59 2q-8 -37 -8 -72q0 -60 26 -96t78 -36q83 0 139 46zM305 456q-120 0 -164 -157h29q42 0 71.5 2.5t66 11t56 29t19.5 52.5
q0 25 -18 43.5t-60 18.5z" />
    <glyph glyph-name="f" unicode="f" horiz-adv-x="274" 
d="M312 444h-98l-83 -478q-15 -84 -46.5 -129t-98.5 -45q-57 0 -96 18l19 48q30 -10 77 -10q37 0 57 37t34 123l72 436h-79l12 56h74l13 67q15 78 45 111.5t96 33.5q55 0 114 -24l-21 -52q-48 20 -92 20q-37 0 -55 -26t-28 -87l-7 -43h100z" />
    <glyph glyph-name="g" unicode="g" horiz-adv-x="505" 
d="M487 478l-107 -506q-39 -184 -201 -184q-84 0 -171 45l31 48q1 0 8.5 -4.5t10.5 -5.5l12 -6q9 -5 16 -7t18.5 -5t22.5 -4.5t26 -3t31 -1.5q104 0 138 156l18 85h-4q-70 -97 -164 -97q-55 0 -87.5 39.5t-32.5 111.5q0 53 11 104.5t34.5 99.5t56.5 84.5t80.5 58.5t102.5 22
q85 0 150 -30zM193 44q50 0 96 44t72 98l53 250q-27 16 -92 16q-85 0 -143.5 -90.5t-58.5 -212.5q0 -48 20 -76.5t53 -28.5z" />
    <glyph glyph-name="h" unicode="h" horiz-adv-x="530" 
d="M413 0h-64l60 285q14 65 14 100q0 38 -16 54.5t-51 16.5q-52 0 -108.5 -47.5t-79.5 -101.5l-64 -307h-64l148 700h64l-61 -285h4q83 97 188 97q53 0 79.5 -24t26.5 -84q0 -43 -13 -104z" />
    <glyph glyph-name="i" unicode="i" horiz-adv-x="261" 
d="M60 0l106 500h65l-106 -500h-65zM182 656q0 21 14 36t35 15t35.5 -15t14.5 -36t-14.5 -36t-35.5 -15t-35 15t-14 36z" />
    <glyph glyph-name="j" unicode="j" horiz-adv-x="250" 
d="M47 0l106 500h65l-112 -528q-20 -94 -61.5 -137t-111.5 -43q-16 0 -25 1l13 55q57 0 82 34t44 118zM169 656q0 21 14 36t35 15t35.5 -15t14.5 -36t-14.5 -36t-35.5 -15t-35 15t-14 36z" />
    <glyph glyph-name="k" unicode="k" horiz-adv-x="446" 
d="M332 0l-122 229h-58l-48 -229h-64l148 700h64l-91 -429l44 11l189 218h82l-185 -203l-44 -32l37 -40l119 -225h-71z" />
    <glyph glyph-name="l" unicode="l" horiz-adv-x="269" 
d="M249 700l-124 -587q-7 -33 0 -49t21 -16q37 0 69 11l1 -50q-36 -17 -88 -17q-74 0 -74 73q0 21 6 49l124 586h65z" />
    <glyph glyph-name="m" unicode="m" horiz-adv-x="762" 
d="M375 0h-65l60 285q17 82 17 115q0 56 -46 56q-47 0 -94.5 -43t-75.5 -90l-67 -323h-64l106 500h43l-6 -85h4q31 30 50 46t57 33.5t77 17.5q44 0 60 -26.5t16 -79.5q33 43 82.5 74.5t97.5 31.5t71.5 -22.5t23.5 -78.5q0 -42 -15 -111l-63 -300h-65l64 305q15 73 15 94
q0 57 -51 57q-42 0 -92.5 -46t-73.5 -93z" />
    <glyph glyph-name="n" unicode="n" horiz-adv-x="522" 
d="M403 0h-64l67 317q10 52 10 71q0 68 -69 68q-51 0 -100 -40.5t-76 -91.5l-67 -324h-64l106 500h43l-4 -85h4q81 97 183 97q110 0 110 -109q0 -31 -9 -73z" />
    <glyph glyph-name="o" unicode="o" horiz-adv-x="499" 
d="M54 155q0 155 75 256t184 101q77 0 113.5 -46.5t36.5 -119.5q0 -149 -72 -253.5t-178 -104.5q-82 0 -120.5 48.5t-38.5 118.5zM122 173q0 -129 99 -129q70 0 122 89.5t52 206.5q0 57 -22 86.5t-74 29.5q-70 0 -123.5 -85.5t-53.5 -197.5z" />
    <glyph glyph-name="p" unicode="p" horiz-adv-x="508" 
d="M0 -200l149 700h43l-5 -85h4q78 97 170 97q52 0 84.5 -35t32.5 -116q0 -168 -84 -270.5t-186 -102.5q-72 0 -100 21l-44 -209h-64zM341 456q-53 0 -97 -45t-72 -100l-50 -243q33 -24 78 -24q85 0 147.5 87t62.5 228q0 43 -18 70t-51 27z" />
    <glyph glyph-name="q" unicode="q" horiz-adv-x="504" 
d="M480 477l-144 -677h-64l60 285h-4q-73 -97 -159 -97q-119 0 -119 154q0 88 36 171t104.5 139t151.5 56q38 0 78.5 -10t59.5 -21zM183 44q49 0 98.5 50.5t74.5 103.5l52 239q-28 15 -82 15q-82 0 -145 -93.5t-63 -211.5q0 -50 17 -76.5t48 -26.5z" />
    <glyph glyph-name="r" unicode="r" horiz-adv-x="323" 
d="M377 500l-17 -57q-17 4 -36 4q-50 0 -88.5 -31.5t-61.5 -83.5l-70 -332h-64l106 500h43v-85h4q59 92 139 92q23 0 45 -7z" />
    <glyph glyph-name="s" unicode="s" horiz-adv-x="398" 
d="M267 140q0 25 -13.5 46t-33.5 34l-44 29q-24 16 -44 31.5t-33.5 41.5t-13.5 58q0 55 51 93.5t125 38.5q80 0 129 -27l-23 -52q-40 23 -110 23q-46 0 -75 -19.5t-29 -56.5q0 -29 28.5 -54.5t62.5 -43.5t62.5 -53t28.5 -82q0 -76 -51.5 -117.5t-140.5 -41.5q-88 0 -139 32
l25 55q47 -31 121 -31q54 0 85.5 24t31.5 72z" />
    <glyph glyph-name="t" unicode="t" horiz-adv-x="311" 
d="M60 444l13 56h76l21 100l69 20l-25 -120h133l-13 -56h-133l-67 -318q-5 -25 -5 -38q0 -44 46 -44q44 0 88 25v-54q-50 -27 -114 -27q-88 0 -88 81q0 16 5 41l70 334h-76z" />
    <glyph glyph-name="u" unicode="u" horiz-adv-x="511" 
d="M143 500h65l-72 -339q-6 -27 -6 -50q0 -67 54 -67q48 0 98 41.5t80 94.5l67 320h64l-63 -297q-27 -129 -24 -203h-49v96h-4q-34 -45 -82.5 -76.5t-103.5 -31.5q-103 0 -103 108q0 35 10 78z" />
    <glyph glyph-name="v" unicode="v" horiz-adv-x="447" 
d="M132 500l56 -300l11 -99h1l46 101l177 298h74l-313 -512h-23l-97 512h68z" />
    <glyph glyph-name="w" unicode="w" horiz-adv-x="686" 
d="M375 500h48l50 -300l5 -99h1l41 101l153 298h67l-272 -512h-27l-56 341l-2 86h-1l-40 -87l-199 -340h-23l-60 512h65l34 -300l-1 -99h4l41 101z" />
    <glyph glyph-name="x" unicode="x" horiz-adv-x="481" 
d="M-18 0l229 256l-111 244h75l62 -145l19 -54l40 54l129 145h80l-216 -240l123 -260h-72l-74 159l-21 57l-41 -57l-141 -159h-81z" />
    <glyph glyph-name="y" unicode="y" horiz-adv-x="436" 
d="M135 500l53 -333l7 -100h5l42 101l172 332h67l-234 -445l-34 -65l-33 -58q-22 -37 -37 -55.5t-35.5 -41t-40 -31.5t-39.5 -9q-32 0 -48 8l21 60q16 -4 23 -4q31 0 60.5 32.5t68.5 108.5l-84 500h66z" />
    <glyph glyph-name="z" unicode="z" horiz-adv-x="428" 
d="M0 0l12 60l293 337l52 43h-264l13 60h330l-13 -60l-297 -340l-51 -40h267l-12 -60h-330z" />
    <glyph glyph-name="braceleft" unicode="{" horiz-adv-x="320" 
d="M92 -130l43 246q3 18 3 32q0 57 -63 57l11 60q75 0 90 85l45 250q9 46 36 73.5t69 27.5h74l-10 -60h-48q-26 0 -40 -14t-20 -46l-43 -246q-7 -41 -30.5 -65.5t-52.5 -29.5l-1 -6q22 -3 36.5 -23.5t14.5 -51.5q0 -8 -2 -24l-44 -245q-2 -16 -2 -21q0 -39 42 -39h47
l-11 -60h-74q-34 0 -53.5 18.5t-19.5 53.5q0 13 3 28z" />
    <glyph glyph-name="bar" unicode="|" horiz-adv-x="240" 
d="M120 -130v830h60v-830h-60z" />
    <glyph glyph-name="braceright" unicode="}" horiz-adv-x="320" 
d="M258 601l-44 -246q-9 -49 7 -69t54 -20l-11 -60q-76 0 -91 -85l-44 -250q-9 -46 -36 -73.5t-69 -27.5h-74l11 60h47q26 0 39.5 14t19.5 46l44 246q7 41 30.5 65.5t53.5 29.5l1 6q-27 4 -42 31.5t-8 67.5l43 245q5 31 -3.5 45.5t-35.5 14.5h-46l10 60h74q41 0 59.5 -25.5
t10.5 -74.5z" />
    <glyph glyph-name="asciitilde" unicode="~" horiz-adv-x="475" 
d="M76 306l-31 51q74 57 139 57q39 0 97.5 -27t86.5 -27q41 0 82 36l31 -51q-68 -47 -123 -47q-36 0 -91 27t-85 27q-49 0 -106 -46z" />
    <glyph glyph-name="uni00A0" unicode="&#xa0;" horiz-adv-x="270" 
 />
    <glyph glyph-name="exclamdown" unicode="&#xa1;" horiz-adv-x="292" 
d="M167 151l-75 -351h-68l75 351l52 179h40zM138 458q0 25 14.5 39.5t38.5 14.5t38.5 -14.5t14.5 -39.5q0 -24 -14.5 -39t-38.5 -15t-38.5 15t-14.5 39z" />
    <glyph glyph-name="cent" unicode="&#xa2;" 
d="M379 455l-87 -410q56 8 103 41l18 -42q-50 -43 -127 -54l-19 -90h-56l19 89q-49 6 -79 35t-39 59t-9 63q0 149 68.5 247t168.5 115l20 92h56l-19 -89q35 -2 84 -21l-24 -54q-29 16 -78 19zM248 47l86 406q-65 -15 -114 -97.5t-49 -180.5q0 -112 77 -128z" />
    <glyph glyph-name="sterling" unicode="&#xa3;" 
d="M107 341l13 56h64q-7 42 -7 81q0 111 69.5 172.5t176.5 61.5q78 0 131 -30l-24 -55q-43 25 -125 25q-67 0 -113.5 -45.5t-46.5 -122.5q0 -55 8 -87h160l-13 -56h-134q6 -27 6 -73q0 -62 -20 -109.5t-46 -72.5l-44 -35l-1 -4l61 13h249l-13 -60h-418l13 62
q62 2 106.5 58.5t44.5 141.5q0 34 -9 79h-88z" />
    <glyph glyph-name="currency" unicode="&#xa4;" 
d="M42 548l42 42l78 -77l22 -34q42 33 103 33q58 0 102 -33l23 34l78 77l42 -42l-77 -78l-34 -23q33 -44 33 -102q0 -61 -33 -103l34 -22l77 -78l-42 -42l-78 77l-22 33q-46 -32 -103 -32q-60 0 -103 32l-22 -33l-78 -77l-42 42l77 78l33 22q-32 43 -32 103q0 57 32 103
l-33 22zM180 345q0 -48 30 -79.5t77 -31.5q46 0 76.5 32t30.5 79t-30.5 79t-76.5 32q-47 0 -77 -32t-30 -79z" />
    <glyph glyph-name="yen" unicode="&#xa5;" 
d="M121 270l12 56h90l-118 374h73l97 -316l4 -58h1l30 60l222 314h78l-273 -374h91l-12 -56h-113l-13 -64h112l-12 -56h-112l-32 -150h-68l31 150h-114l12 56h114l13 64h-113z" />
    <glyph glyph-name="brokenbar" unicode="&#xa6;" horiz-adv-x="240" 
d="M120 0v275h60v-275h-60zM180 700v-275h-60v275h60z" />
    <glyph glyph-name="section" unicode="&#xa7;" horiz-adv-x="466" 
d="M91 338q0 78 77 128l45 19q-41 33 -41 86q0 60 50.5 100.5t124.5 40.5q79 0 134 -31l-28 -54q-45 25 -112 25q-44 0 -72.5 -23.5t-28.5 -59.5q0 -24 20.5 -40.5t50 -28t59.5 -25.5t50.5 -41.5t20.5 -68.5q0 -40 -21.5 -75t-55.5 -55l-55 -18q48 -32 48 -90v-4
q-1 -65 -51 -100t-121 -35t-135 35l29 54q50 -29 111 -29q45 0 74 18t29 55q0 26 -21 45t-50.5 32t-59 28.5t-50.5 43.5t-21 68zM373 356q0 18 -5.5 31t-20.5 23.5t-24 16t-35 15.5l-36 15q-93 -38 -93 -110q0 -13 2.5 -23t10.5 -19l13 -15q5 -6 20 -14l21 -10q6 -3 26 -12
l25 -10q96 41 96 112z" />
    <glyph glyph-name="dieresis" unicode="&#xa8;" horiz-adv-x="245" 
d="M198 654q0 19 11.5 32.5t30.5 13.5t30.5 -13.5t11.5 -32.5t-11.5 -32t-30.5 -13t-30.5 13t-11.5 32zM376 654q0 19 11.5 32.5t30.5 13.5t30.5 -13.5t11.5 -32.5t-11.5 -32t-30.5 -13t-30.5 13t-11.5 32z" />
    <glyph glyph-name="copyright" unicode="&#xa9;" horiz-adv-x="800" 
d="M76 290q0 161 100.5 255.5t249.5 94.5t249.5 -94.5t100.5 -255.5t-100.5 -255.5t-249.5 -94.5q-160 0 -255 93t-95 257zM140 290q0 -136 81 -213t205 -77t205 77t81 213t-81 213t-205 77t-205 -77t-81 -213zM521 180l19 -54q-49 -26 -116 -26q-79 0 -122.5 51t-43.5 139
q0 90 45 140t121 50q8 0 15 -0.5t14 -1.5t12 -1.5t12 -2.5t10 -2.5t11 -3.5l11 -4l12 -5q9 -4 12 -5l-24 -55q-43 21 -80 21q-103 0 -103 -130q0 -62 28.5 -96t82.5 -34q47 0 84 20z" />
    <glyph glyph-name="ordfeminine" unicode="&#xaa;" horiz-adv-x="376" 
d="M128 631l-4 47q66 30 139 30q43 0 68 -20t25 -51t-25 -125t-24 -132h-42l-3 46h-3q-50 -50 -110 -50q-42 0 -65.5 24.5t-23.5 61.5q0 58 50 87.5t125 29.5q31 0 56 -4q6 21 6 37q0 44 -58 44q-63 0 -111 -25zM165 428q67 0 106 59l9 43q-28 2 -43 2q-118 0 -118 -66
q0 -38 46 -38z" />
    <glyph glyph-name="guillemotleft" unicode="&#xab;" horiz-adv-x="451" 
d="M322 38l-111 221l200 230l40 -43l-127 -149l-56 -37l34 -37l69 -146zM151 38l-111 221l200 230l40 -43l-127 -149l-56 -37l34 -37l69 -146z" />
    <glyph glyph-name="logicalnot" unicode="&#xac;" horiz-adv-x="500" 
d="M67 324v64h420v-185h-60v121h-360z" />
    <glyph glyph-name="uni00AD" unicode="&#xad;" horiz-adv-x="342" 
d="M111 256l14 64h228l-14 -64h-228z" />
    <glyph glyph-name="registered" unicode="&#xae;" horiz-adv-x="702" 
d="M142 451q0 122 75 191.5t186 69.5q114 0 187.5 -69t73.5 -192q0 -122 -75 -191.5t-186 -69.5q-114 0 -187.5 69t-73.5 192zM198 451q0 -101 58 -155t147 -54q93 0 149 53t56 156q0 101 -58 155t-147 54q-93 0 -149 -53t-56 -156zM300 322v259q35 10 100 10q46 0 74 -19
t28 -59q0 -31 -20 -48.5t-51 -19.5l28 -14l76 -109h-61l-74 104l-48 15v-119h-52zM389 546q-29 0 -37 -4v-71h34q61 0 61 40q0 35 -58 35z" />
    <glyph glyph-name="macron" unicode="&#xaf;" horiz-adv-x="313" 
d="M314 584l12 56h276l-12 -56h-276z" />
    <glyph glyph-name="degree" unicode="&#xb0;" horiz-adv-x="422" 
d="M145 576q0 59 39.5 97.5t96.5 38.5q58 0 97 -37t39 -99t-39 -99t-97 -37t-97 37t-39 99zM201 576q0 -38 23.5 -61t56.5 -23t57 23t24 61t-24 61t-57 23t-56.5 -23t-23.5 -61z" />
    <glyph glyph-name="plusminus" unicode="&#xb1;" horiz-adv-x="475" 
d="M55 426v64h178v182h64v-182h178v-64h-178v-124h-64v124h-178zM55 186v64h420v-64h-420z" />
    <glyph glyph-name="twosuperior" unicode="&#xb2;" horiz-adv-x="372" 
d="M409 714q0 -58 -52.5 -126.5t-131.5 -133.5l-50 -33v-2l57 15h138l-12 -54h-271l5 24q34 26 71 57.5t82.5 75.5t74.5 88.5t29 77.5q0 48 -57 48q-46 0 -98 -31l-9 49q55 38 128 38q39 0 67.5 -21.5t28.5 -71.5z" />
    <glyph glyph-name="threesuperior" unicode="&#xb3;" horiz-adv-x="372" 
d="M222 425q55 0 85 28.5t30 71.5q0 30 -18 44t-64 14h-55l4 19l122 125l37 27l-47 -6h-124l12 52h237l-6 -26l-129 -132l-24 -17v-2l20 3q39 0 65.5 -25t26.5 -66q0 -32 -9 -59.5t-28.5 -51.5t-57 -37.5t-88.5 -13.5q-47 0 -94 18l23 53q38 -19 82 -19z" />
    <glyph glyph-name="acute" unicode="&#xb4;" horiz-adv-x="238" 
d="M340 572l89 148h75l-4 -19l-121 -129h-39z" />
    <glyph glyph-name="mu" unicode="&#xb5;" horiz-adv-x="521" 
d="M139 500h65l-61 -285q-19 -83 -2 -125t75 -42q53 0 99.5 34.5t73.5 91.5l70 326h64l-72 -337q-21 -104 -20 -163h-42l-11 74h-4q-30 -37 -77 -61.5t-102 -24.5q-80 0 -100 72h-5l-7 -127l-28 -133h-65z" />
    <glyph glyph-name="mu" unicode="&#x3bc;" horiz-adv-x="521" 
d="M139 500h65l-61 -285q-19 -83 -2 -125t75 -42q53 0 99.5 34.5t73.5 91.5l70 326h64l-72 -337q-21 -104 -20 -163h-42l-11 74h-4q-30 -37 -77 -61.5t-102 -24.5q-80 0 -100 72h-5l-7 -127l-28 -133h-65z" />
    <glyph glyph-name="paragraph" unicode="&#xb6;" horiz-adv-x="486" 
d="M374 -130v830h60v-830h-60zM224 -130v444q-61 0 -103.5 59.5t-42.5 134.5q0 77 46 134.5t122 57.5h38v-830h-60z" />
    <glyph glyph-name="periodcentered" unicode="&#xb7;" horiz-adv-x="202" 
d="M36 292q0 25 14.5 39.5t38.5 14.5t38.5 -14.5t14.5 -39.5q0 -24 -14.5 -39t-38.5 -15t-38.5 15t-14.5 39z" />
    <glyph glyph-name="cedilla" unicode="&#xb8;" horiz-adv-x="363" 
d="M380 0l-33 -43q26 -3 43 -21t17 -49q0 -47 -34 -71t-84 -24q-28 0 -52 4l17 37q1 0 7.5 -0.5t11.5 -0.5q32 0 52.5 10.5t20.5 30.5q0 19 -21 29t-56 9l63 89h48z" />
    <glyph glyph-name="onesuperior" unicode="&#xb9;" horiz-adv-x="372" 
d="M115 380l11 52h103l59 274l13 34l-31 -27l-85 -47l-18 40l169 101h30l-80 -375h91l-11 -52h-251z" />
    <glyph glyph-name="ordmasculine" unicode="&#xba;" horiz-adv-x="375" 
d="M60 488q0 109 56.5 166.5t126.5 57.5q55 0 83.5 -31t28.5 -88q0 -102 -52.5 -161.5t-131.5 -59.5q-50 0 -80.5 31t-30.5 85zM120 497q0 -73 62 -73q47 0 80 45.5t33 121.5q0 69 -63 69q-45 0 -78.5 -48.5t-33.5 -114.5z" />
    <glyph glyph-name="guillemotright" unicode="&#xbb;" horiz-adv-x="451" 
d="M170 489l110 -221l-200 -230l-40 42l127 149l56 38l-35 44l-70 146zM341 489l110 -221l-200 -230l-40 42l127 149l56 38l-35 44l-70 146z" />
    <glyph glyph-name="onequarter" unicode="&#xbc;" horiz-adv-x="787" 
d="M726 152l-11 -52h-80l-22 -100h-57l22 100h-192l6 30l280 307h34l-60 -285h80zM589 152l29 138l17 48h-2l-31 -46l-103 -113l-38 -31l49 4h79zM169 280l69 326l14 34l-31 -27l-85 -47l-21 43l172 98h30l-91 -427h-57zM144 21l500 691l44 -32l-499 -692z" />
    <glyph glyph-name="onehalf" unicode="&#xbd;" horiz-adv-x="797" 
d="M750 334q0 -58 -52.5 -126.5t-131.5 -133.5l-50 -33v-2l57 15h138l-12 -54h-271l5 24q34 26 71 57.5t82.5 75.5t74.5 88.5t29 77.5q0 48 -57 48q-46 0 -98 -31l-9 49q55 38 128 38q39 0 67.5 -21.5t28.5 -71.5zM169 280l69 326l14 34l-31 -27l-85 -47l-21 43l172 98h30
l-91 -427h-57zM144 21l500 691l44 -32l-499 -692z" />
    <glyph glyph-name="threequarters" unicode="&#xbe;" horiz-adv-x="826" 
d="M765 152l-11 -52h-80l-22 -100h-57l22 100h-192l6 30l280 307h34l-60 -285h80zM628 152l29 138l17 48h-2l-31 -46l-103 -113l-38 -31l49 4h79zM190 325q55 0 85 28.5t30 71.5q0 30 -18 44t-64 14h-55l4 19l122 125l37 27l-47 -6h-124l12 52h237l-6 -26l-129 -132l-24 -17
v-2l20 3q39 0 65.5 -25t26.5 -66q0 -32 -9 -59.5t-28.5 -51.5t-57 -37.5t-88.5 -13.5q-47 0 -94 18l23 53q38 -19 82 -19zM183 21l500 691l44 -32l-499 -692z" />
    <glyph glyph-name="questiondown" unicode="&#xbf;" horiz-adv-x="409" 
d="M246 330h54q-6 -54 -33.5 -100.5t-61.5 -80.5l-69 -65q-34 -32 -57 -72t-23 -85q0 -43 22 -63t75 -20q54 0 132 42l17 -50q-46 -26 -81.5 -37t-92.5 -11q-69 0 -104.5 32.5t-35.5 87.5q0 60 24 109t59 83.5t71.5 66t66 73.5t37.5 90zM239 458q0 25 14.5 39.5t38.5 14.5
t38.5 -14.5t14.5 -39.5q0 -24 -14.5 -39t-38.5 -15t-38.5 15t-14.5 39z" />
    <glyph glyph-name="Agrave" unicode="&#xc0;" horiz-adv-x="552" 
d="M437 0l-29 203h-253l-114 -203h-73l407 712h24l104 -712h-66zM319 490l-129 -225h209l-32 227l-2 105h-1zM319 870l90 -118h-57l-129 99l4 19h92z" />
    <glyph glyph-name="Aacute" unicode="&#xc1;" horiz-adv-x="552" 
d="M437 0l-29 203h-253l-114 -203h-73l407 712h24l104 -712h-66zM319 490l-129 -225h209l-32 227l-2 105h-1zM373 752l140 118h106l-4 -19l-176 -99h-66z" />
    <glyph glyph-name="Acircumflex" unicode="&#xc2;" horiz-adv-x="552" 
d="M437 0l-29 203h-253l-114 -203h-73l407 712h24l104 -712h-66zM319 490l-129 -225h209l-32 227l-2 105h-1zM245 767l148 103h39l99 -104l-3 -17h-64l-46 51l-10 35l-24 -34l-72 -52h-71z" />
    <glyph glyph-name="Atilde" unicode="&#xc3;" horiz-adv-x="552" 
d="M437 0l-29 203h-253l-114 -203h-73l407 712h24l104 -712h-66zM319 490l-129 -225h209l-32 227l-2 105h-1zM274 746l-15 36q61 53 110 53q24 0 60.5 -15.5t54.5 -15.5q27 0 51 19l17 -37q-56 -44 -99 -44q-23 0 -59 15.5t-55 15.5q-32 0 -65 -27z" />
    <glyph glyph-name="Adieresis" unicode="&#xc4;" horiz-adv-x="552" 
d="M437 0l-29 203h-253l-114 -203h-73l407 712h24l104 -712h-66zM319 490l-129 -225h209l-32 227l-2 105h-1zM266 793q0 19 13 32t33 13t33 -13t13 -32q0 -18 -13 -31t-33 -13t-33 13t-13 31zM444 793q0 19 13 32t33 13t33 -13t13 -32q0 -18 -13 -31t-33 -13t-33 13t-13 31z
" />
    <glyph glyph-name="Aring" unicode="&#xc5;" horiz-adv-x="552" 
d="M298 767q0 38 25.5 61t74.5 23q46 0 73.5 -22t27.5 -62q0 -36 -25.5 -58.5t-70.5 -23.5l100 -685h-66l-29 203h-253l-114 -203h-73l394 689q-64 16 -64 78zM319 490l-129 -225h209l-32 227l-2 105h-1zM354 767q0 -18 11 -30t33 -12q21 0 33 11.5t12 30.5q0 44 -45 44
q-21 0 -32.5 -12t-11.5 -32z" />
    <glyph glyph-name="AE" unicode="&#xc6;" horiz-adv-x="800" 
d="M463 615h-2l-52 -103l-188 -247h168zM333 0l43 203h-205l-152 -203h-80l540 700h357l-13 -62h-287l-52 -246h263l-13 -62h-263l-57 -268h292l-13 -62h-360z" />
    <glyph glyph-name="Ccedilla" unicode="&#xc7;" horiz-adv-x="545" 
d="M472 87l7 -58q-59 -40 -150 -41l-24 -31q26 -3 43 -21t17 -49q0 -47 -34 -71t-84 -24q-28 0 -52 4l17 37q1 0 7.5 -0.5t11.5 -0.5q32 0 52.5 10.5t20.5 30.5q0 19 -21 29t-56 9l56 80q-96 13 -152.5 90.5t-56.5 192.5q0 108 33 194t87.5 138t120 79t135.5 27
q90 0 150 -27l-32 -63q-47 26 -129 26q-121 0 -207 -101t-86 -265q0 -102 51 -166t140 -64q76 0 135 35z" />
    <glyph glyph-name="Egrave" unicode="&#xc8;" horiz-adv-x="512" 
d="M45 0l148 700h355l-13 -62h-287l-52 -246h263l-13 -62h-263l-57 -268h292l-13 -62h-360zM326 870l90 -118h-57l-129 99l4 19h92z" />
    <glyph glyph-name="Eacute" unicode="&#xc9;" horiz-adv-x="512" 
d="M45 0l148 700h355l-13 -62h-287l-52 -246h263l-13 -62h-263l-57 -268h292l-13 -62h-360zM318 752l140 118h106l-4 -19l-176 -99h-66z" />
    <glyph glyph-name="Ecircumflex" unicode="&#xca;" horiz-adv-x="512" 
d="M45 0l148 700h355l-13 -62h-287l-52 -246h263l-13 -62h-263l-57 -268h292l-13 -62h-360zM238 767l148 103h39l99 -104l-3 -17h-64l-46 51l-10 35l-24 -34l-72 -52h-71z" />
    <glyph glyph-name="Edieresis" unicode="&#xcb;" horiz-adv-x="512" 
d="M45 0l148 700h355l-13 -62h-287l-52 -246h263l-13 -62h-263l-57 -268h292l-13 -62h-360zM247 793q0 19 13 32t33 13t33 -13t13 -32q0 -18 -13 -31t-33 -13t-33 13t-13 31zM425 793q0 19 13 32t33 13t33 -13t13 -32q0 -18 -13 -31t-33 -13t-33 13t-13 31z" />
    <glyph glyph-name="Igrave" unicode="&#xcc;" horiz-adv-x="277" 
d="M69 0l148 700h68l-148 -700h-68zM202 870l90 -118h-57l-129 99l4 19h92z" />
    <glyph glyph-name="Iacute" unicode="&#xcd;" horiz-adv-x="277" 
d="M69 0l148 700h68l-148 -700h-68zM211 752l140 118h106l-4 -19l-176 -99h-66z" />
    <glyph glyph-name="Icircumflex" unicode="&#xce;" horiz-adv-x="277" 
d="M119 767l148 103h39l99 -104l-3 -17h-64l-46 51l-10 35l-24 -34l-72 -52h-71zM69 0l148 700h68l-148 -700h-68z" />
    <glyph glyph-name="Idieresis" unicode="&#xcf;" horiz-adv-x="277" 
d="M130 793q0 19 13 32t33 13t33 -13t13 -32q0 -18 -13 -31t-33 -13t-33 13t-13 31zM308 793q0 19 13 32t33 13t33 -13t13 -32q0 -18 -13 -31t-33 -13t-33 13t-13 31zM69 0l148 700h68l-148 -700h-68z" />
    <glyph glyph-name="Eth" unicode="&#xd0;" horiz-adv-x="623" 
d="M30 334l11 56h86l66 310q56 8 170 8q121 0 187.5 -65t66.5 -193q0 -58 -11.5 -116.5t-41 -121.5t-74 -111t-117.5 -79t-164 -31q-116 0 -164 8l70 335h-85zM248 639l-52 -249h139l-11 -56h-140l-58 -275q26 -4 90 -4q86 0 152 36.5t103 95t55.5 123.5t18.5 130
q0 204 -187 204q-75 0 -110 -5z" />
    <glyph glyph-name="Ntilde" unicode="&#xd1;" horiz-adv-x="644" 
d="M489 -12l-229 491l-34 101h-3l-12 -101l-101 -479h-65l151 712h28l229 -488l33 -96h4l9 96l102 476h65l-151 -712h-26zM310 746l-15 36q61 53 110 53q24 0 60.5 -15.5t54.5 -15.5q27 0 51 19l17 -37q-56 -44 -99 -44q-23 0 -59 15.5t-55 15.5q-32 0 -65 -27z" />
    <glyph glyph-name="Ograve" unicode="&#xd2;" horiz-adv-x="653" 
d="M76 255q-1 123 42.5 226.5t125 167t185.5 63.5q101 0 159.5 -62.5t58.5 -200.5q0 -125 -42.5 -230t-120 -168t-174.5 -63q-232 0 -234 267zM148 255q-1 -98 41.5 -151.5t120.5 -53.5q114 0 189.5 116t75.5 281q0 203 -160 203q-115 0 -190 -116t-77 -279zM412 870
l90 -118h-57l-129 99l4 19h92z" />
    <glyph glyph-name="Oacute" unicode="&#xd3;" horiz-adv-x="653" 
d="M76 255q-1 123 42.5 226.5t125 167t185.5 63.5q101 0 159.5 -62.5t58.5 -200.5q0 -125 -42.5 -230t-120 -168t-174.5 -63q-232 0 -234 267zM148 255q-1 -98 41.5 -151.5t120.5 -53.5q114 0 189.5 116t75.5 281q0 203 -160 203q-115 0 -190 -116t-77 -279zM403 752
l140 118h106l-4 -19l-176 -99h-66z" />
    <glyph glyph-name="Ocircumflex" unicode="&#xd4;" horiz-adv-x="653" 
d="M76 255q-1 123 42.5 226.5t125 167t185.5 63.5q101 0 159.5 -62.5t58.5 -200.5q0 -125 -42.5 -230t-120 -168t-174.5 -63q-232 0 -234 267zM148 255q-1 -98 41.5 -151.5t120.5 -53.5q114 0 189.5 116t75.5 281q0 203 -160 203q-115 0 -190 -116t-77 -279zM306 767
l148 103h39l99 -104l-3 -17h-64l-46 51l-10 35l-24 -34l-72 -52h-71z" />
    <glyph glyph-name="Otilde" unicode="&#xd5;" horiz-adv-x="653" 
d="M76 255q-1 123 42.5 226.5t125 167t185.5 63.5q101 0 159.5 -62.5t58.5 -200.5q0 -125 -42.5 -230t-120 -168t-174.5 -63q-232 0 -234 267zM148 255q-1 -98 41.5 -151.5t120.5 -53.5q114 0 189.5 116t75.5 281q0 203 -160 203q-115 0 -190 -116t-77 -279zM320 746l-15 36
q61 53 110 53q24 0 60.5 -15.5t54.5 -15.5q27 0 51 19l17 -37q-56 -44 -99 -44q-23 0 -59 15.5t-55 15.5q-32 0 -65 -27z" />
    <glyph glyph-name="Odieresis" unicode="&#xd6;" horiz-adv-x="653" 
d="M76 255q-1 123 42.5 226.5t125 167t185.5 63.5q101 0 159.5 -62.5t58.5 -200.5q0 -125 -42.5 -230t-120 -168t-174.5 -63q-232 0 -234 267zM148 255q-1 -98 41.5 -151.5t120.5 -53.5q114 0 189.5 116t75.5 281q0 203 -160 203q-115 0 -190 -116t-77 -279zM316 793
q0 19 13 32t33 13t33 -13t13 -32q0 -18 -13 -31t-33 -13t-33 13t-13 31zM494 793q0 19 13 32t33 13t33 -13t13 -32q0 -18 -13 -31t-33 -13t-33 13t-13 31z" />
    <glyph glyph-name="multiply" unicode="&#xd7;" horiz-adv-x="475" 
d="M92 464l45 46l126 -126l126 126l45 -46l-126 -125l126 -126l-45 -46l-126 126l-127 -127l-46 45l128 128z" />
    <glyph glyph-name="Oslash" unicode="&#xd8;" horiz-adv-x="653" 
d="M75 255v3q0 188 99 321t254 133q79 0 132 -38l29 39l44 -32l-34 -47q47 -66 47 -185q0 -125 -42.5 -230t-120 -168t-174.5 -63q-90 0 -146 41l-29 -41l-45 33l35 48q-49 69 -49 186zM552 569l-347 -483q39 -36 104 -36q114 0 189.5 116t75.5 281q0 75 -22 122zM170 133
l348 482q-39 35 -104 35q-115 0 -190 -116t-77 -279v-8q0 -68 23 -114z" />
    <glyph glyph-name="Ugrave" unicode="&#xd9;" horiz-adv-x="622" 
d="M489 256l94 444h65l-99 -470q-27 -127 -86 -182.5t-174 -55.5q-197 0 -197 172q0 41 11 94l94 442h68l-93 -444q-10 -46 -10 -84q0 -63 33 -89.5t104 -26.5q82 0 124.5 46t65.5 154zM411 870l90 -118h-57l-129 99l4 19h92z" />
    <glyph glyph-name="Uacute" unicode="&#xda;" horiz-adv-x="622" 
d="M489 256l94 444h65l-99 -470q-27 -127 -86 -182.5t-174 -55.5q-197 0 -197 172q0 41 11 94l94 442h68l-93 -444q-10 -46 -10 -84q0 -63 33 -89.5t104 -26.5q82 0 124.5 46t65.5 154zM373 752l140 118h106l-4 -19l-176 -99h-66z" />
    <glyph glyph-name="Ucircumflex" unicode="&#xdb;" horiz-adv-x="622" 
d="M489 256l94 444h65l-99 -470q-27 -127 -86 -182.5t-174 -55.5q-197 0 -197 172q0 41 11 94l94 442h68l-93 -444q-10 -46 -10 -84q0 -63 33 -89.5t104 -26.5q82 0 124.5 46t65.5 154zM292 767l148 103h39l99 -104l-3 -17h-64l-46 51l-10 35l-24 -34l-72 -52h-71z" />
    <glyph glyph-name="Udieresis" unicode="&#xdc;" horiz-adv-x="622" 
d="M489 256l94 444h65l-99 -470q-27 -127 -86 -182.5t-174 -55.5q-197 0 -197 172q0 41 11 94l94 442h68l-93 -444q-10 -46 -10 -84q0 -63 33 -89.5t104 -26.5q82 0 124.5 46t65.5 154zM305 793q0 19 13 32t33 13t33 -13t13 -32q0 -18 -13 -31t-33 -13t-33 13t-13 31z
M483 793q0 19 13 32t33 13t33 -13t13 -32q0 -18 -13 -31t-33 -13t-33 13t-13 31z" />
    <glyph glyph-name="Yacute" unicode="&#xdd;" horiz-adv-x="523" 
d="M184 0l59 282l-134 418h74l94 -316l4 -58h1l30 60l226 314h77l-303 -417l-60 -283h-68zM340 752l140 118h106l-4 -19l-176 -99h-66z" />
    <glyph glyph-name="Thorn" unicode="&#xde;" horiz-adv-x="528" 
d="M45 0l170 800h68l-21 -95q44 3 87 3q96 0 154 -43.5t58 -134.5q0 -72 -27 -125t-73.5 -82t-99 -42t-113.5 -13t-78 4l-57 -272h-68zM248 640l-64 -305q15 -5 73 -5q48 0 88 10t73 31.5t52 60.5t19 92q0 122 -157 122q-56 0 -84 -6z" />
    <glyph glyph-name="germandbls" unicode="&#xdf;" horiz-adv-x="548" 
d="M178 528q38 178 205 178q74 0 110 -33.5t36 -81.5q0 -32 -12.5 -58t-31.5 -42t-41.5 -32t-41.5 -28t-31.5 -29t-12.5 -37q0 -21 16 -35t39 -24t46.5 -23.5t39.5 -40.5t16 -67q0 -77 -64.5 -132t-150.5 -55q-69 0 -113 26l32 58q38 -24 88 -24q51 0 95.5 33.5t44.5 88.5
q0 27 -16.5 45.5t-39.5 30t-46 24.5t-39.5 36.5t-16.5 57.5q0 33 18 59t43 43l50 34q26 17 44 37.5t18 44.5q0 64 -90 64q-108 0 -136 -146l-97 -500q-23 -118 -53.5 -163t-99.5 -45q-57 0 -96 18l19 48q30 -10 77 -10q36 0 56 38.5t34 113.5l84 444h-87l12 56h87z" />
    <glyph glyph-name="agrave" unicode="&#xe0;" horiz-adv-x="483" 
d="M471 489l-64 -293q-14 -66 -14 -141q0 -33 3 -57h-49l-14 87h-4q-29 -40 -72 -68.5t-92 -28.5q-117 0 -117 155q0 65 16.5 128t48.5 118.5t88 89.5t128 34q63 0 142 -24zM182 44q45 0 88.5 38.5t66.5 81.5l58 278q-30 15 -81 15q-62 0 -108.5 -48.5t-68 -119.5
t-21.5 -151q0 -42 17 -68t49 -26zM323 720l30 -148h-37l-79 129l4 19h82z" />
    <glyph glyph-name="aacute" unicode="&#xe1;" horiz-adv-x="483" 
d="M471 489l-64 -293q-14 -66 -14 -141q0 -33 3 -57h-49l-14 87h-4q-29 -40 -72 -68.5t-92 -28.5q-117 0 -117 155q0 65 16.5 128t48.5 118.5t88 89.5t128 34q63 0 142 -24zM182 44q45 0 88.5 38.5t66.5 81.5l58 278q-30 15 -81 15q-62 0 -108.5 -48.5t-68 -119.5
t-21.5 -151q0 -42 17 -68t49 -26zM305 572l89 148h75l-4 -19l-121 -129h-39z" />
    <glyph glyph-name="acircumflex" unicode="&#xe2;" horiz-adv-x="483" 
d="M471 489l-64 -293q-14 -66 -14 -141q0 -33 3 -57h-49l-14 87h-4q-29 -40 -72 -68.5t-92 -28.5q-117 0 -117 155q0 65 16.5 128t48.5 118.5t88 89.5t128 34q63 0 142 -24zM182 44q45 0 88.5 38.5t66.5 81.5l58 278q-30 15 -81 15q-62 0 -108.5 -48.5t-68 -119.5
t-21.5 -151q0 -42 17 -68t49 -26zM205 550l156 182h19l66 -182h-56l-24 66l-7 60l-35 -60l-57 -66h-62z" />
    <glyph glyph-name="atilde" unicode="&#xe3;" horiz-adv-x="483" 
d="M471 489l-64 -293q-14 -66 -14 -141q0 -33 3 -57h-49l-14 87h-4q-29 -40 -72 -68.5t-92 -28.5q-117 0 -117 155q0 65 16.5 128t48.5 118.5t88 89.5t128 34q63 0 142 -24zM182 44q45 0 88.5 38.5t66.5 81.5l58 278q-30 15 -81 15q-62 0 -108.5 -48.5t-68 -119.5
t-21.5 -151q0 -42 17 -68t49 -26zM237 619l-15 36q56 56 95 56q19 0 47 -19t45 -19q23 0 51 23l17 -37q-50 -50 -85 -50q-19 0 -47.5 19t-46.5 19q-26 0 -61 -28z" />
    <glyph glyph-name="adieresis" unicode="&#xe4;" horiz-adv-x="483" 
d="M471 489l-64 -293q-14 -66 -14 -141q0 -33 3 -57h-49l-14 87h-4q-29 -40 -72 -68.5t-92 -28.5q-117 0 -117 155q0 65 16.5 128t48.5 118.5t88 89.5t128 34q63 0 142 -24zM182 44q45 0 88.5 38.5t66.5 81.5l58 278q-30 15 -81 15q-62 0 -108.5 -48.5t-68 -119.5
t-21.5 -151q0 -42 17 -68t49 -26zM188 654q0 19 11.5 32.5t30.5 13.5t30.5 -13.5t11.5 -32.5t-11.5 -32t-30.5 -13t-30.5 13t-11.5 32zM366 654q0 19 11.5 32.5t30.5 13.5t30.5 -13.5t11.5 -32.5t-11.5 -32t-30.5 -13t-30.5 13t-11.5 32z" />
    <glyph glyph-name="aring" unicode="&#xe5;" horiz-adv-x="483" 
d="M471 489l-64 -293q-14 -66 -14 -141q0 -33 3 -57h-49l-14 87h-4q-29 -40 -72 -68.5t-92 -28.5q-117 0 -117 155q0 65 16.5 128t48.5 118.5t88 89.5t128 34q63 0 142 -24zM182 44q45 0 88.5 38.5t66.5 81.5l58 278q-30 15 -81 15q-62 0 -108.5 -48.5t-68 -119.5
t-21.5 -151q0 -42 17 -68t49 -26zM251 642q0 41 26 65.5t68 24.5t68.5 -23t26.5 -67q0 -39 -27.5 -64t-67.5 -25q-41 0 -67.5 23.5t-26.5 65.5zM301 642q0 -19 13.5 -31.5t30.5 -12.5q20 0 32.5 11t12.5 33q0 21 -13 33t-32 12t-31.5 -11.5t-12.5 -33.5z" />
    <glyph glyph-name="ae" unicode="&#xe6;" horiz-adv-x="756" 
d="M172 48q50 0 94.5 39t67.5 75l8 71q-32 2 -48 2q-88 0 -142 -27t-54 -84q0 -76 74 -76zM343 89h-7q-34 -43 -83 -70t-103 -27q-59 0 -89.5 34.5t-30.5 83.5q0 178 275 178q31 0 47 -1q21 67 21 104q0 33 -19.5 47t-65.5 14q-32 0 -76.5 -10.5t-72.5 -25.5l-11 53
q72 39 191 39q103 0 115 -68q30 36 76 54t90 18q68 0 106 -31.5t38 -79.5q0 -41 -16.5 -70t-43 -46.5t-72 -28t-92.5 -14.5t-115 -5q-8 -38 -8 -68q0 -125 129 -125q30 0 65 12.5t57 29.5l15 -47q-72 -51 -171 -51q-57 0 -96.5 27t-52.5 74zM590 456q-127 0 -174 -163
q62 0 102 2.5t79.5 12t59 30.5t19.5 54q0 64 -86 64z" />
    <glyph glyph-name="ccedilla" unicode="&#xe7;" horiz-adv-x="422" 
d="M346 87l18 -43q-52 -45 -130 -54l-25 -33q26 -3 43 -21t17 -49q0 -47 -34 -71t-84 -24q-28 0 -52 4l17 37q1 0 7.5 -0.5t11.5 -0.5q32 0 52.5 10.5t20.5 30.5q0 19 -21 29t-56 9l55 78q-51 5 -82.5 33.5t-40.5 59t-9 64.5q0 163 81.5 264.5t193.5 101.5q49 0 103 -22
l-24 -54q-34 20 -99 20q-71 0 -129 -87t-58 -194q0 -65 27.5 -97.5t76.5 -32.5q60 0 120 42z" />
    <glyph glyph-name="egrave" unicode="&#xe8;" horiz-adv-x="463" 
d="M363 90l23 -41q-71 -61 -174 -61q-78 0 -118 45t-40 128q0 157 79 254t183 97q67 0 101 -33.5t34 -83.5q0 -70 -68 -109.5t-196 -39.5q-19 0 -59 2q-8 -37 -8 -72q0 -60 26 -96t78 -36q83 0 139 46zM305 456q-120 0 -164 -157h29q42 0 71.5 2.5t66 11t56 29t19.5 52.5
q0 25 -18 43.5t-60 18.5zM307 720l30 -148h-37l-79 129l4 19h82z" />
    <glyph glyph-name="eacute" unicode="&#xe9;" horiz-adv-x="463" 
d="M363 90l23 -41q-71 -61 -174 -61q-78 0 -118 45t-40 128q0 157 79 254t183 97q67 0 101 -33.5t34 -83.5q0 -70 -68 -109.5t-196 -39.5q-19 0 -59 2q-8 -37 -8 -72q0 -60 26 -96t78 -36q83 0 139 46zM305 456q-120 0 -164 -157h29q42 0 71.5 2.5t66 11t56 29t19.5 52.5
q0 25 -18 43.5t-60 18.5zM287 572l89 148h75l-4 -19l-121 -129h-39z" />
    <glyph glyph-name="ecircumflex" unicode="&#xea;" horiz-adv-x="463" 
d="M363 90l23 -41q-71 -61 -174 -61q-78 0 -118 45t-40 128q0 157 79 254t183 97q67 0 101 -33.5t34 -83.5q0 -70 -68 -109.5t-196 -39.5q-19 0 -59 2q-8 -37 -8 -72q0 -60 26 -96t78 -36q83 0 139 46zM305 456q-120 0 -164 -157h29q42 0 71.5 2.5t66 11t56 29t19.5 52.5
q0 25 -18 43.5t-60 18.5zM190 550l156 182h19l66 -182h-56l-24 66l-7 60l-35 -60l-57 -66h-62z" />
    <glyph glyph-name="edieresis" unicode="&#xeb;" horiz-adv-x="463" 
d="M363 90l23 -41q-71 -61 -174 -61q-78 0 -118 45t-40 128q0 157 79 254t183 97q67 0 101 -33.5t34 -83.5q0 -70 -68 -109.5t-196 -39.5q-19 0 -59 2q-8 -37 -8 -72q0 -60 26 -96t78 -36q83 0 139 46zM305 456q-120 0 -164 -157h29q42 0 71.5 2.5t66 11t56 29t19.5 52.5
q0 25 -18 43.5t-60 18.5zM202 654q0 19 11.5 32.5t30.5 13.5t30.5 -13.5t11.5 -32.5t-11.5 -32t-30.5 -13t-30.5 13t-11.5 32zM380 654q0 19 11.5 32.5t30.5 13.5t30.5 -13.5t11.5 -32.5t-11.5 -32t-30.5 -13t-30.5 13t-11.5 32z" />
    <glyph glyph-name="igrave" unicode="&#xec;" horiz-adv-x="261" 
d="M60 0l106 500h65l-106 -500h-65zM213 720l30 -148h-37l-79 129l4 19h82z" />
    <glyph glyph-name="iacute" unicode="&#xed;" horiz-adv-x="261" 
d="M60 0l106 500h65l-106 -500h-65zM181 572l89 148h75l-4 -19l-121 -129h-39z" />
    <glyph glyph-name="icircumflex" unicode="&#xee;" horiz-adv-x="261" 
d="M84 550l156 182h19l66 -182h-56l-24 66l-7 60l-35 -60l-57 -66h-62zM60 0l106 500h65l-106 -500h-65z" />
    <glyph glyph-name="idieresis" unicode="&#xef;" horiz-adv-x="261" 
d="M97 654q0 19 11.5 32.5t30.5 13.5t30.5 -13.5t11.5 -32.5t-11.5 -32t-30.5 -13t-30.5 13t-11.5 32zM275 654q0 19 11.5 32.5t30.5 13.5t30.5 -13.5t11.5 -32.5t-11.5 -32t-30.5 -13t-30.5 13t-11.5 32zM60 0l106 500h65l-106 -500h-65z" />
    <glyph glyph-name="eth" unicode="&#xf0;" horiz-adv-x="493" 
d="M288 551l-36 22l56 75q-40 15 -100 12l11 52q75 0 124 -18l48 63l35 -24l-44 -58q87 -56 87 -219q0 -121 -23 -214t-61.5 -147t-84 -80.5t-94.5 -26.5q-75 0 -113.5 47t-38.5 118q0 92 31.5 173.5t90.5 133.5t132 52q40 0 60.5 -10t38.5 -30q3 109 -61 156zM122 161
q0 -55 24.5 -86t61.5 -31q53 0 92.5 36t60 92.5t30.5 111.5t10 105q-8 30 -35 48.5t-64 18.5q-75 0 -127.5 -94.5t-52.5 -200.5z" />
    <glyph glyph-name="ntilde" unicode="&#xf1;" horiz-adv-x="522" 
d="M391 0h-64l67 317q10 52 10 71q0 68 -69 68q-51 0 -100 -40.5t-76 -91.5l-67 -324h-64l106 500h43l-4 -85h4q81 97 183 97q110 0 110 -109q0 -31 -9 -73zM239 619l-15 36q56 56 95 56q19 0 47 -19t45 -19q23 0 51 23l17 -37q-50 -50 -85 -50q-19 0 -47.5 19t-46.5 19
q-26 0 -61 -28z" />
    <glyph glyph-name="ograve" unicode="&#xf2;" horiz-adv-x="499" 
d="M54 155q0 155 75 256t184 101q77 0 113.5 -46.5t36.5 -119.5q0 -149 -72 -253.5t-178 -104.5q-82 0 -120.5 48.5t-38.5 118.5zM122 173q0 -129 99 -129q70 0 122 89.5t52 206.5q0 57 -22 86.5t-74 29.5q-70 0 -123.5 -85.5t-53.5 -197.5zM320 720l30 -148h-37l-79 129
l4 19h82z" />
    <glyph glyph-name="oacute" unicode="&#xf3;" horiz-adv-x="499" 
d="M54 155q0 155 75 256t184 101q77 0 113.5 -46.5t36.5 -119.5q0 -149 -72 -253.5t-178 -104.5q-82 0 -120.5 48.5t-38.5 118.5zM122 173q0 -129 99 -129q70 0 122 89.5t52 206.5q0 57 -22 86.5t-74 29.5q-70 0 -123.5 -85.5t-53.5 -197.5zM289 572l89 148h75l-4 -19
l-121 -129h-39z" />
    <glyph glyph-name="ocircumflex" unicode="&#xf4;" horiz-adv-x="499" 
d="M191 550l156 182h19l66 -182h-56l-24 66l-7 60l-35 -60l-57 -66h-62zM54 155q0 155 75 256t184 101q77 0 113.5 -46.5t36.5 -119.5q0 -149 -72 -253.5t-178 -104.5q-82 0 -120.5 48.5t-38.5 118.5zM122 173q0 -129 99 -129q70 0 122 89.5t52 206.5q0 57 -22 86.5
t-74 29.5q-70 0 -123.5 -85.5t-53.5 -197.5z" />
    <glyph glyph-name="otilde" unicode="&#xf5;" horiz-adv-x="499" 
d="M54 155q0 155 75 256t184 101q77 0 113.5 -46.5t36.5 -119.5q0 -149 -72 -253.5t-178 -104.5q-82 0 -120.5 48.5t-38.5 118.5zM122 173q0 -129 99 -129q70 0 122 89.5t52 206.5q0 57 -22 86.5t-74 29.5q-70 0 -123.5 -85.5t-53.5 -197.5zM213 619l-15 36q56 56 95 56
q19 0 47 -19t45 -19q23 0 51 23l17 -37q-50 -50 -85 -50q-19 0 -47.5 19t-46.5 19q-26 0 -61 -28z" />
    <glyph glyph-name="odieresis" unicode="&#xf6;" horiz-adv-x="499" 
d="M54 155q0 155 75 256t184 101q77 0 113.5 -46.5t36.5 -119.5q0 -149 -72 -253.5t-178 -104.5q-82 0 -120.5 48.5t-38.5 118.5zM122 173q0 -129 99 -129q70 0 122 89.5t52 206.5q0 57 -22 86.5t-74 29.5q-70 0 -123.5 -85.5t-53.5 -197.5zM207 654q0 19 11.5 32.5
t30.5 13.5t30.5 -13.5t11.5 -32.5t-11.5 -32t-30.5 -13t-30.5 13t-11.5 32zM385 654q0 19 11.5 32.5t30.5 13.5t30.5 -13.5t11.5 -32.5t-11.5 -32t-30.5 -13t-30.5 13t-11.5 32z" />
    <glyph glyph-name="divide" unicode="&#xf7;" horiz-adv-x="475" 
d="M213 514q0 25 14.5 39.5t38.5 14.5t38.5 -14.5t14.5 -39.5q0 -24 -14.5 -39t-38.5 -15t-38.5 15t-14.5 39zM213 162q0 25 14.5 39.5t38.5 14.5t38.5 -14.5t14.5 -39.5q0 -24 -14.5 -39t-38.5 -15t-38.5 15t-14.5 39zM55 306v64h420v-64h-420z" />
    <glyph glyph-name="oslash" unicode="&#xf8;" horiz-adv-x="499" 
d="M94 34l-42 -46l-36 33l51 57q-13 31 -13 77q0 155 75 256t184 101q69 0 107 -40l36 40l36 -32l-44 -50q15 -38 15 -84q0 -149 -72 -253.5t-178 -104.5q-78 0 -119 46zM393 370l-253 -284q23 -42 81 -42q70 0 122 89.5t52 206.5q0 10 -2 30zM124 140l252 283
q-24 33 -77 33q-70 0 -123.5 -85.5t-53.5 -197.5q0 -23 2 -33z" />
    <glyph glyph-name="ugrave" unicode="&#xf9;" horiz-adv-x="511" 
d="M143 500h65l-72 -339q-6 -27 -6 -50q0 -67 54 -67q48 0 98 41.5t80 94.5l67 320h64l-63 -297q-27 -129 -24 -203h-49v96h-4q-34 -45 -82.5 -76.5t-103.5 -31.5q-103 0 -103 108q0 35 10 78zM334 720l30 -148h-37l-79 129l4 19h82z" />
    <glyph glyph-name="uacute" unicode="&#xfa;" horiz-adv-x="511" 
d="M143 500h65l-72 -339q-6 -27 -6 -50q0 -67 54 -67q48 0 98 41.5t80 94.5l67 320h64l-63 -297q-27 -129 -24 -203h-49v96h-4q-34 -45 -82.5 -76.5t-103.5 -31.5q-103 0 -103 108q0 35 10 78zM293 572l89 148h75l-4 -19l-121 -129h-39z" />
    <glyph glyph-name="ucircumflex" unicode="&#xfb;" horiz-adv-x="511" 
d="M143 500h65l-72 -339q-6 -27 -6 -50q0 -67 54 -67q48 0 98 41.5t80 94.5l67 320h64l-63 -297q-27 -129 -24 -203h-49v96h-4q-34 -45 -82.5 -76.5t-103.5 -31.5q-103 0 -103 108q0 35 10 78zM205 550l156 182h19l66 -182h-56l-24 66l-7 60l-35 -60l-57 -66h-62z" />
    <glyph glyph-name="udieresis" unicode="&#xfc;" horiz-adv-x="511" 
d="M143 500h65l-72 -339q-6 -27 -6 -50q0 -67 54 -67q48 0 98 41.5t80 94.5l67 320h64l-63 -297q-27 -129 -24 -203h-49v96h-4q-34 -45 -82.5 -76.5t-103.5 -31.5q-103 0 -103 108q0 35 10 78zM218 654q0 19 11.5 32.5t30.5 13.5t30.5 -13.5t11.5 -32.5t-11.5 -32t-30.5 -13
t-30.5 13t-11.5 32zM396 654q0 19 11.5 32.5t30.5 13.5t30.5 -13.5t11.5 -32.5t-11.5 -32t-30.5 -13t-30.5 13t-11.5 32z" />
    <glyph glyph-name="yacute" unicode="&#xfd;" horiz-adv-x="436" 
d="M135 500l53 -333l7 -100h5l42 101l172 332h67l-234 -445l-34 -65l-33 -58q-22 -37 -37 -55.5t-35.5 -41t-40 -31.5t-39.5 -9q-32 0 -48 8l21 60q16 -4 23 -4q31 0 60.5 32.5t68.5 108.5l-84 500h66zM249 572l89 148h75l-4 -19l-121 -129h-39z" />
    <glyph glyph-name="thorn" unicode="&#xfe;" horiz-adv-x="508" 
d="M0 -200l193 900h64l-61 -275h4q70 87 161 87q52 0 84.5 -35t32.5 -116q0 -168 -84 -270.5t-186 -102.5q-72 0 -100 21l-44 -209h-64zM341 456q-53 0 -97 -45t-72 -100l-50 -243q33 -24 78 -24q85 0 147.5 87t62.5 228q0 43 -18 70t-51 27z" />
    <glyph glyph-name="ydieresis" unicode="&#xff;" horiz-adv-x="436" 
d="M135 500l53 -333l7 -100h5l42 101l172 332h67l-234 -445l-34 -65l-33 -58q-22 -37 -37 -55.5t-35.5 -41t-40 -31.5t-39.5 -9q-32 0 -48 8l21 60q16 -4 23 -4q31 0 60.5 32.5t68.5 108.5l-84 500h66zM154 654q0 19 11.5 32.5t30.5 13.5t30.5 -13.5t11.5 -32.5t-11.5 -32
t-30.5 -13t-30.5 13t-11.5 32zM332 654q0 19 11.5 32.5t30.5 13.5t30.5 -13.5t11.5 -32.5t-11.5 -32t-30.5 -13t-30.5 13t-11.5 32z" />
    <glyph glyph-name="Amacron" unicode="&#x100;" horiz-adv-x="552" 
d="M437 0l-29 203h-253l-114 -203h-73l407 712h24l104 -712h-66zM319 490l-129 -225h209l-32 227l-2 105h-1zM247 764l12 56h295l-12 -56h-295z" />
    <glyph glyph-name="amacron" unicode="&#x101;" horiz-adv-x="483" 
d="M471 489l-64 -293q-14 -66 -14 -141q0 -33 3 -57h-49l-14 87h-4q-29 -40 -72 -68.5t-92 -28.5q-117 0 -117 155q0 65 16.5 128t48.5 118.5t88 89.5t128 34q63 0 142 -24zM182 44q45 0 88.5 38.5t66.5 81.5l58 278q-30 15 -81 15q-62 0 -108.5 -48.5t-68 -119.5
t-21.5 -151q0 -42 17 -68t49 -26zM196 584l12 56h276l-12 -56h-276z" />
    <glyph glyph-name="Abreve" unicode="&#x102;" horiz-adv-x="552" 
d="M437 0l-29 203h-253l-114 -203h-73l407 712h24l104 -712h-66zM319 490l-129 -225h209l-32 227l-2 105h-1zM257 849l37 21q8 -36 33.5 -56t63.5 -20q41 0 71.5 12t44.5 25.5t32 38.5l39 -16q-48 -124 -189 -124q-57 0 -93 35.5t-39 83.5z" />
    <glyph glyph-name="abreve" unicode="&#x103;" horiz-adv-x="483" 
d="M471 489l-64 -293q-14 -66 -14 -141q0 -33 3 -57h-49l-14 87h-4q-29 -40 -72 -68.5t-92 -28.5q-117 0 -117 155q0 65 16.5 128t48.5 118.5t88 89.5t128 34q63 0 142 -24zM182 44q45 0 88.5 38.5t66.5 81.5l58 278q-30 15 -81 15q-62 0 -108.5 -48.5t-68 -119.5
t-21.5 -151q0 -42 17 -68t49 -26zM217 699l44 21q19 -81 80 -81q76 0 127 81l32 -16q-16 -51 -64 -90t-101 -39q-51 0 -84 34t-34 90z" />
    <glyph glyph-name="Aogonek" unicode="&#x104;" horiz-adv-x="552" 
d="M503 0h-26q-67 -37 -67 -101q0 -41 41 -41q15 0 42 8v-39q-32 -21 -80 -21q-33 0 -54 18t-21 54q0 40 28 72t71 50l-29 203h-253l-114 -203h-73l407 712h24zM319 490l-129 -225h209l-32 227l-2 105h-1z" />
    <glyph glyph-name="aogonek" unicode="&#x105;" horiz-adv-x="483" 
d="M471 489l-64 -293q-21 -102 -11 -198h-9q-91 -44 -91 -109q0 -41 41 -41q15 0 42 8v-39q-32 -21 -80 -21q-33 0 -54 18t-21 54q0 45 36.5 80.5t86.5 50.5l-14 86h-4q-29 -40 -72 -68.5t-92 -28.5q-117 0 -117 155q0 65 16.5 128t48.5 118.5t88 89.5t128 34q63 0 142 -24z
M182 44q45 0 88.5 38.5t66.5 81.5l58 278q-30 15 -81 15q-62 0 -108.5 -48.5t-68 -119.5t-21.5 -151q0 -42 17 -68t49 -26z" />
    <glyph glyph-name="Cacute" unicode="&#x106;" horiz-adv-x="545" 
d="M472 87l7 -58q-61 -41 -159 -41q-112 0 -179 80.5t-67 205.5q0 108 33 194t87.5 138t120 79t135.5 27q90 0 150 -27l-32 -63q-47 26 -129 26q-121 0 -207 -101t-86 -265q0 -102 51 -166t140 -64q76 0 135 35zM402 752l140 118h106l-4 -19l-176 -99h-66z" />
    <glyph glyph-name="cacute" unicode="&#x107;" horiz-adv-x="422" 
d="M346 86l18 -42q-30 -25 -73 -40.5t-79 -15.5q-47 0 -80 15.5t-49 41t-22.5 50.5t-6.5 51q0 163 81.5 264.5t193.5 101.5q49 0 103 -22l-24 -54q-34 20 -99 20q-71 0 -129 -87t-58 -194q0 -66 27.5 -98.5t76.5 -32.5q60 0 120 42zM302 572l89 148h75l-4 -19l-121 -129h-39
z" />
    <glyph glyph-name="Ccircumflex" unicode="&#x108;" horiz-adv-x="545" 
d="M314 767l148 103h39l99 -104l-3 -17h-64l-46 51l-10 35l-24 -34l-72 -52h-71zM472 87l7 -58q-61 -41 -159 -41q-112 0 -179 80.5t-67 205.5q0 108 33 194t87.5 138t120 79t135.5 27q90 0 150 -27l-32 -63q-47 26 -129 26q-121 0 -207 -101t-86 -265q0 -102 51 -166
t140 -64q76 0 135 35z" />
    <glyph glyph-name="ccircumflex" unicode="&#x109;" horiz-adv-x="422" 
d="M185 550l156 182h19l66 -182h-56l-24 66l-7 60l-35 -60l-57 -66h-62zM346 86l18 -42q-30 -25 -73 -40.5t-79 -15.5q-47 0 -80 15.5t-49 41t-22.5 50.5t-6.5 51q0 163 81.5 264.5t193.5 101.5q49 0 103 -22l-24 -54q-34 20 -99 20q-71 0 -129 -87t-58 -194
q0 -66 27.5 -98.5t76.5 -32.5q60 0 120 42z" />
    <glyph glyph-name="Cdotaccent" unicode="&#x10a;" horiz-adv-x="545" 
d="M472 87l7 -58q-61 -41 -159 -41q-112 0 -179 80.5t-67 205.5q0 108 33 194t87.5 138t120 79t135.5 27q90 0 150 -27l-32 -63q-47 26 -129 26q-121 0 -207 -101t-86 -265q0 -102 51 -166t140 -64q76 0 135 35zM421 796q0 21 15.5 36t38.5 15t39 -15t16 -36q0 -20 -16 -35
t-39 -15t-38.5 14.5t-15.5 35.5z" />
    <glyph glyph-name="cdotaccent" unicode="&#x10b;" horiz-adv-x="422" 
d="M346 86l18 -42q-30 -25 -73 -40.5t-79 -15.5q-47 0 -80 15.5t-49 41t-22.5 50.5t-6.5 51q0 163 81.5 264.5t193.5 101.5q49 0 103 -22l-24 -54q-34 20 -99 20q-71 0 -129 -87t-58 -194q0 -66 27.5 -98.5t76.5 -32.5q60 0 120 42zM298 656q0 21 14 36t35 15t35.5 -15
t14.5 -36t-14.5 -36t-35.5 -15t-35 15t-14 36z" />
    <glyph glyph-name="Ccaron" unicode="&#x10c;" horiz-adv-x="545" 
d="M472 87l7 -58q-61 -41 -159 -41q-112 0 -179 80.5t-67 205.5q0 108 33 194t87.5 138t120 79t135.5 27q90 0 150 -27l-32 -63q-47 26 -129 26q-121 0 -207 -101t-86 -265q0 -102 51 -166t140 -64q76 0 135 35zM624 852l-149 -104h-38l-97 105l3 17h61l47 -51l8 -35l24 34
l73 52h71z" />
    <glyph glyph-name="ccaron" unicode="&#x10d;" horiz-adv-x="422" 
d="M478 732l-156 -182h-23l-71 182h65l23 -66l8 -60l35 60l56 66h63zM346 86l18 -42q-30 -25 -73 -40.5t-79 -15.5q-47 0 -80 15.5t-49 41t-22.5 50.5t-6.5 51q0 163 81.5 264.5t193.5 101.5q49 0 103 -22l-24 -54q-34 20 -99 20q-71 0 -129 -87t-58 -194q0 -66 27.5 -98.5
t76.5 -32.5q60 0 120 42z" />
    <glyph glyph-name="Dcaron" unicode="&#x10e;" horiz-adv-x="623" 
d="M45 -1l148 701q56 8 170 8q121 0 187.5 -65t66.5 -193q0 -58 -11.5 -116.5t-41 -121.5t-74 -111t-117.5 -79t-164 -31q-116 0 -164 8zM358 644q-75 0 -110 -5l-122 -580q26 -4 90 -4q86 0 152 36.5t103 95t55.5 123.5t18.5 130q0 204 -187 204zM548 852l-149 -104h-38
l-97 105l3 17h61l47 -51l8 -35l24 34l73 52h71z" />
    <glyph glyph-name="dcaron" unicode="&#x10f;" horiz-adv-x="509" 
d="M527 700l-112 -529q-15 -68 -15 -130q0 -17 2 -43h-43l-14 87h-4q-28 -39 -74 -68t-95 -29q-118 0 -118 171q0 58 17 118t48 112.5t83.5 85.5t115.5 33q56 0 101 -17l44 209h64zM196 44q41 0 86 39t67 81l57 268q-33 20 -100 20q-54 0 -97 -43.5t-65 -112t-22 -146.5
q0 -46 18.5 -76t55.5 -30zM599 700h69q-13 -52 -51 -107.5t-65 -80.5l-22 15q47 71 69 173z" />
    <glyph glyph-name="Dcroat" unicode="&#x110;" horiz-adv-x="623" 
d="M30 334l11 56h86l66 310q56 8 170 8q121 0 187.5 -65t66.5 -193q0 -58 -11.5 -116.5t-41 -121.5t-74 -111t-117.5 -79t-164 -31q-116 0 -164 8l70 335h-85zM248 639l-52 -249h139l-11 -56h-140l-58 -275q26 -4 90 -4q86 0 152 36.5t103 95t55.5 123.5t18.5 130
q0 204 -187 204q-75 0 -110 -5z" />
    <glyph glyph-name="dcroat" unicode="&#x111;" horiz-adv-x="509" 
d="M527 700l-15 -70h82l-11 -56h-83l-85 -403q-15 -68 -15 -130q0 -17 2 -43h-43l-14 87h-4q-28 -39 -74 -68t-95 -29q-118 0 -118 171q0 58 17 118t48 112.5t83.5 85.5t115.5 33q56 0 101 -17l17 83h-147l11 56h148l15 70h64zM196 44q41 0 86 39t67 81l57 268
q-33 20 -100 20q-54 0 -97 -43.5t-65 -112t-22 -146.5q0 -46 18.5 -76t55.5 -30z" />
    <glyph glyph-name="Emacron" unicode="&#x112;" horiz-adv-x="512" 
d="M45 0l148 700h355l-13 -62h-287l-52 -246h263l-13 -62h-263l-57 -268h292l-13 -62h-360zM228 764l12 56h295l-12 -56h-295z" />
    <glyph glyph-name="emacron" unicode="&#x113;" horiz-adv-x="463" 
d="M363 90l23 -41q-71 -61 -174 -61q-78 0 -118 45t-40 128q0 157 79 254t183 97q67 0 101 -33.5t34 -83.5q0 -70 -68 -109.5t-196 -39.5q-19 0 -59 2q-8 -37 -8 -72q0 -60 26 -96t78 -36q83 0 139 46zM305 456q-120 0 -164 -157h29q42 0 71.5 2.5t66 11t56 29t19.5 52.5
q0 25 -18 43.5t-60 18.5zM181 584l12 56h276l-12 -56h-276z" />
    <glyph glyph-name="Ebreve" unicode="&#x114;" horiz-adv-x="512" 
d="M45 0l148 700h355l-13 -62h-287l-52 -246h263l-13 -62h-263l-57 -268h292l-13 -62h-360zM245 849l37 21q8 -36 33.5 -56t63.5 -20q41 0 71.5 12t44.5 25.5t32 38.5l39 -16q-48 -124 -189 -124q-57 0 -93 35.5t-39 83.5z" />
    <glyph glyph-name="ebreve" unicode="&#x115;" horiz-adv-x="463" 
d="M363 90l23 -41q-71 -61 -174 -61q-78 0 -118 45t-40 128q0 157 79 254t183 97q67 0 101 -33.5t34 -83.5q0 -70 -68 -109.5t-196 -39.5q-19 0 -59 2q-8 -37 -8 -72q0 -60 26 -96t78 -36q83 0 139 46zM305 456q-120 0 -164 -157h29q42 0 71.5 2.5t66 11t56 29t19.5 52.5
q0 25 -18 43.5t-60 18.5zM202 699l44 21q19 -81 80 -81q76 0 127 81l32 -16q-16 -51 -64 -90t-101 -39q-51 0 -84 34t-34 90z" />
    <glyph glyph-name="Edotaccent" unicode="&#x116;" horiz-adv-x="512" 
d="M45 0l148 700h355l-13 -62h-287l-52 -246h263l-13 -62h-263l-57 -268h292l-13 -62h-360zM335 796q0 21 15.5 36t38.5 15t39 -15t16 -36q0 -20 -16 -35t-39 -15t-38.5 14.5t-15.5 35.5z" />
    <glyph glyph-name="edotaccent" unicode="&#x117;" horiz-adv-x="463" 
d="M363 90l23 -41q-71 -61 -174 -61q-78 0 -118 45t-40 128q0 157 79 254t183 97q67 0 101 -33.5t34 -83.5q0 -70 -68 -109.5t-196 -39.5q-19 0 -59 2q-8 -37 -8 -72q0 -60 26 -96t78 -36q83 0 139 46zM305 456q-120 0 -164 -157h29q42 0 71.5 2.5t66 11t56 29t19.5 52.5
q0 25 -18 43.5t-60 18.5zM293 656q0 21 14 36t35 15t35.5 -15t14.5 -36t-14.5 -36t-35.5 -15t-35 15t-14 36z" />
    <glyph glyph-name="Eogonek" unicode="&#x118;" horiz-adv-x="512" 
d="M45 0l148 700h355l-13 -62h-287l-52 -246h263l-13 -62h-263l-57 -268h292l-13 -62h-29q-76 -40 -76 -101q0 -41 41 -41q15 0 42 8v-39q-31 -21 -80 -21q-33 0 -54 18t-21 54q0 39 27.5 71.5t70.5 50.5h-281z" />
    <glyph glyph-name="eogonek" unicode="&#x119;" horiz-adv-x="463" 
d="M363 90l23 -41q-37 -31 -84 -47q-82 -44 -82 -108q0 -15 10 -26.5t30 -11.5q19 0 43 10v-39q-30 -21 -81 -21q-74 0 -74 68q0 66 79 115q-5 -1 -15 -1q-78 0 -118 45t-40 128q0 157 79 254t183 97q67 0 101 -33.5t34 -83.5q0 -70 -68 -109.5t-196 -39.5q-19 0 -59 2
q-8 -37 -8 -72q0 -60 26 -96t78 -36q83 0 139 46zM305 456q-120 0 -164 -157h29q42 0 71.5 2.5t66 11t56 29t19.5 52.5q0 25 -18 43.5t-60 18.5z" />
    <glyph glyph-name="Ecaron" unicode="&#x11a;" horiz-adv-x="512" 
d="M45 0l148 700h355l-13 -62h-287l-52 -246h263l-13 -62h-263l-57 -268h292l-13 -62h-360zM538 852l-149 -104h-38l-97 105l3 17h61l47 -51l8 -35l24 34l73 52h71z" />
    <glyph glyph-name="ecaron" unicode="&#x11b;" horiz-adv-x="463" 
d="M363 90l23 -41q-71 -61 -174 -61q-78 0 -118 45t-40 128q0 157 79 254t183 97q67 0 101 -33.5t34 -83.5q0 -70 -68 -109.5t-196 -39.5q-19 0 -59 2q-8 -37 -8 -72q0 -60 26 -96t78 -36q83 0 139 46zM305 456q-120 0 -164 -157h29q42 0 71.5 2.5t66 11t56 29t19.5 52.5
q0 25 -18 43.5t-60 18.5zM484 732l-156 -182h-23l-71 182h65l23 -66l8 -60l35 60l56 66h63z" />
    <glyph glyph-name="Gcircumflex" unicode="&#x11c;" horiz-adv-x="582" 
d="M368 306l8 40h179l-65 -307q-68 -51 -170 -51q-103 0 -174.5 74.5t-71.5 210.5q0 95 24.5 172t64 126t91 81.5t102 46t101.5 13.5q94 0 152 -26l-32 -63q-42 25 -129 25q-125 0 -213.5 -97t-88.5 -270q0 -98 48 -163.5t140 -65.5q55 0 105 25l44 209zM324 767l148 103h39
l99 -104l-3 -17h-64l-46 51l-10 35l-24 -34l-72 -52h-71z" />
    <glyph glyph-name="gcircumflex" unicode="&#x11d;" horiz-adv-x="505" 
d="M487 478l-107 -506q-39 -184 -201 -184q-84 0 -171 45l31 48q1 0 8.5 -4.5t10.5 -5.5l12 -6q9 -5 16 -7t18.5 -5t22.5 -4.5t26 -3t31 -1.5q104 0 138 156l18 85h-4q-70 -97 -164 -97q-55 0 -87.5 39.5t-32.5 111.5q0 53 11 104.5t34.5 99.5t56.5 84.5t80.5 58.5t102.5 22
q85 0 150 -30zM193 44q50 0 96 44t72 98l53 250q-27 16 -92 16q-85 0 -143.5 -90.5t-58.5 -212.5q0 -48 20 -76.5t53 -28.5zM214 550l156 182h19l66 -182h-56l-24 66l-7 60l-35 -60l-57 -66h-62z" />
    <glyph glyph-name="Gbreve" unicode="&#x11e;" horiz-adv-x="582" 
d="M368 306l8 40h179l-65 -307q-68 -51 -170 -51q-103 0 -174.5 74.5t-71.5 210.5q0 95 24.5 172t64 126t91 81.5t102 46t101.5 13.5q94 0 152 -26l-32 -63q-42 25 -129 25q-125 0 -213.5 -97t-88.5 -270q0 -98 48 -163.5t140 -65.5q55 0 105 25l44 209zM331 849l37 21
q8 -36 33.5 -56t63.5 -20q41 0 71.5 12t44.5 25.5t32 38.5l39 -16q-48 -124 -189 -124q-57 0 -93 35.5t-39 83.5z" />
    <glyph glyph-name="gbreve" unicode="&#x11f;" horiz-adv-x="505" 
d="M487 478l-107 -506q-39 -184 -201 -184q-84 0 -171 45l31 48q1 0 8.5 -4.5t10.5 -5.5l12 -6q9 -5 16 -7t18.5 -5t22.5 -4.5t26 -3t31 -1.5q104 0 138 156l18 85h-4q-70 -97 -164 -97q-55 0 -87.5 39.5t-32.5 111.5q0 53 11 104.5t34.5 99.5t56.5 84.5t80.5 58.5t102.5 22
q85 0 150 -30zM193 44q50 0 96 44t72 98l53 250q-27 16 -92 16q-85 0 -143.5 -90.5t-58.5 -212.5q0 -48 20 -76.5t53 -28.5zM226 699l44 21q19 -81 80 -81q76 0 127 81l32 -16q-16 -51 -64 -90t-101 -39q-51 0 -84 34t-34 90z" />
    <glyph glyph-name="Gdotaccent" unicode="&#x120;" horiz-adv-x="582" 
d="M368 306l8 40h179l-65 -307q-68 -51 -170 -51q-103 0 -174.5 74.5t-71.5 210.5q0 95 24.5 172t64 126t91 81.5t102 46t101.5 13.5q94 0 152 -26l-32 -63q-42 25 -129 25q-125 0 -213.5 -97t-88.5 -270q0 -98 48 -163.5t140 -65.5q55 0 105 25l44 209zM430 796
q0 21 15.5 36t38.5 15t39 -15t16 -36q0 -20 -16 -35t-39 -15t-38.5 14.5t-15.5 35.5z" />
    <glyph glyph-name="gdotaccent" unicode="&#x121;" horiz-adv-x="505" 
d="M487 478l-107 -506q-39 -184 -201 -184q-84 0 -171 45l31 48q1 0 8.5 -4.5t10.5 -5.5l12 -6q9 -5 16 -7t18.5 -5t22.5 -4.5t26 -3t31 -1.5q104 0 138 156l18 85h-4q-70 -97 -164 -97q-55 0 -87.5 39.5t-32.5 111.5q0 53 11 104.5t34.5 99.5t56.5 84.5t80.5 58.5t102.5 22
q85 0 150 -30zM193 44q50 0 96 44t72 98l53 250q-27 16 -92 16q-85 0 -143.5 -90.5t-58.5 -212.5q0 -48 20 -76.5t53 -28.5zM298 656q0 21 14 36t35 15t35.5 -15t14.5 -36t-14.5 -36t-35.5 -15t-35 15t-14 36z" />
    <glyph glyph-name="Gcommaaccent" unicode="&#x122;" horiz-adv-x="582" 
d="M368 306l8 40h179l-65 -307q-68 -51 -170 -51q-103 0 -174.5 74.5t-71.5 210.5q0 95 24.5 172t64 126t91 81.5t102 46t101.5 13.5q94 0 152 -26l-32 -63q-42 25 -129 25q-125 0 -213.5 -97t-88.5 -270q0 -98 48 -163.5t140 -65.5q55 0 105 25l44 209zM261 -103
q0 19 16 32t36 13q45 0 45 -53q0 -47 -33.5 -82.5t-62.5 -45.5l-18 28q50 25 57 70q-40 -1 -40 38z" />
    <glyph glyph-name="gcommaaccent" unicode="&#x123;" horiz-adv-x="505" 
d="M487 478l-107 -506q-39 -184 -201 -184q-84 0 -171 45l31 48q1 0 8.5 -4.5t10.5 -5.5l12 -6q9 -5 16 -7t18.5 -5t22.5 -4.5t26 -3t31 -1.5q104 0 138 156l18 85h-4q-70 -97 -164 -97q-55 0 -87.5 39.5t-32.5 111.5q0 53 11 104.5t34.5 99.5t56.5 84.5t80.5 58.5t102.5 22
q85 0 150 -30zM193 44q50 0 96 44t72 98l53 250q-27 16 -92 16q-85 0 -143.5 -90.5t-58.5 -212.5q0 -48 20 -76.5t53 -28.5zM402 609q0 -19 -16 -32t-36 -13q-45 0 -45 53q0 47 33.5 82.5t62.5 45.5l18 -28q-50 -25 -57 -70q40 1 40 -38z" />
    <glyph glyph-name="Hcircumflex" unicode="&#x124;" horiz-adv-x="642" 
d="M448 0l69 327h-335l-69 -327h-68l148 700h68l-65 -309h335l65 309h68l-148 -700h-68zM301 767l148 103h39l99 -104l-3 -17h-64l-46 51l-10 35l-24 -34l-72 -52h-71z" />
    <glyph glyph-name="hcircumflex" unicode="&#x125;" horiz-adv-x="530" 
d="M413 0h-64l60 285q14 65 14 100q0 38 -16 54.5t-51 16.5q-52 0 -108.5 -47.5t-79.5 -101.5l-64 -307h-64l148 700h64l-61 -285h4q83 97 188 97q53 0 79.5 -24t26.5 -84q0 -43 -13 -104zM94 767l148 103h39l99 -104l-3 -17h-64l-46 51l-10 35l-24 -34l-72 -52h-71z" />
    <glyph glyph-name="Hbar" unicode="&#x126;" horiz-adv-x="642" 
d="M81 524l13 60h74l25 116h68l-25 -116h335l25 116h68l-25 -116h79l-13 -60h-78l-111 -524h-68l69 327h-335l-69 -327h-68l111 524h-75zM196 391h335l28 133h-335z" />
    <glyph glyph-name="hbar" unicode="&#x127;" horiz-adv-x="530" 
d="M84 574l11 56h78l15 70h64l-15 -70h152l-11 -56h-153l-34 -159h4q83 97 188 97q53 0 79.5 -24t26.5 -84q0 -43 -13 -104l-63 -300h-64l60 285q14 65 14 100q0 38 -16 54.5t-51 16.5q-52 0 -108.5 -47.5t-79.5 -101.5l-64 -307h-64l121 574h-77z" />
    <glyph glyph-name="Itilde" unicode="&#x128;" horiz-adv-x="277" 
d="M135 746l-15 36q61 53 110 53q24 0 60.5 -15.5t54.5 -15.5q27 0 51 19l17 -37q-56 -44 -99 -44q-23 0 -59 15.5t-55 15.5q-32 0 -65 -27zM69 0l148 700h68l-148 -700h-68z" />
    <glyph glyph-name="itilde" unicode="&#x129;" horiz-adv-x="261" 
d="M120 619l-15 36q56 56 95 56q19 0 47 -19t45 -19q23 0 51 23l17 -37q-50 -50 -85 -50q-19 0 -47.5 19t-46.5 19q-26 0 -61 -28zM60 0l106 500h65l-106 -500h-65z" />
    <glyph glyph-name="Imacron" unicode="&#x12a;" horiz-adv-x="277" 
d="M69 0l148 700h68l-148 -700h-68zM111 764l12 56h295l-12 -56h-295z" />
    <glyph glyph-name="imacron" unicode="&#x12b;" horiz-adv-x="261" 
d="M60 0l106 500h65l-106 -500h-65zM79 584l12 56h276l-12 -56h-276z" />
    <glyph glyph-name="Ibreve" unicode="&#x12c;" horiz-adv-x="277" 
d="M69 0l148 700h68l-148 -700h-68zM116 849l37 21q8 -36 33.5 -56t63.5 -20q41 0 71.5 12t44.5 25.5t32 38.5l39 -16q-48 -124 -189 -124q-57 0 -93 35.5t-39 83.5z" />
    <glyph glyph-name="ibreve" unicode="&#x12d;" horiz-adv-x="261" 
d="M60 0l106 500h65l-106 -500h-65zM100 699l44 21q19 -81 80 -81q76 0 127 81l32 -16q-16 -51 -64 -90t-101 -39q-51 0 -84 34t-34 90z" />
    <glyph glyph-name="Iogonek" unicode="&#x12e;" horiz-adv-x="277" 
d="M-30 -122q0 40 28 72t71 50l148 700h68l-148 -700h-19q-76 -40 -76 -101q0 -41 41 -41q15 0 42 8v-39q-32 -21 -80 -21q-33 0 -54 18t-21 54z" />
    <glyph glyph-name="iogonek" unicode="&#x12f;" horiz-adv-x="261" 
d="M125 0h-20q-76 -40 -76 -101q0 -41 41 -41q15 0 42 8v-39q-32 -21 -80 -21q-33 0 -54 18t-21 54q0 41 29.5 74t73.5 50l106 498h65zM183 656q0 21 14 36t35 15t35.5 -15t14.5 -36t-14.5 -36t-35.5 -15t-35 15t-14 36z" />
    <glyph glyph-name="Idotaccent" unicode="&#x130;" horiz-adv-x="277" 
d="M69 0l148 700h68l-148 -700h-68zM214 796q0 21 15.5 36t38.5 15t39 -15t16 -36q0 -20 -16 -35t-39 -15t-38.5 14.5t-15.5 35.5z" />
    <glyph glyph-name="dotlessi" unicode="&#x131;" horiz-adv-x="261" 
d="M60 0l106 500h65l-106 -500h-65z" />
    <glyph glyph-name="Jcircumflex" unicode="&#x134;" horiz-adv-x="268" 
d="M105 163l114 537h68l-117 -553q-18 -83 -54 -119.5t-109 -36.5q-48 0 -70 14l25 62q19 -12 54 -12q39 0 58 26t31 82zM114 767l148 103h39l99 -104l-3 -17h-64l-46 51l-10 35l-24 -34l-72 -52h-71z" />
    <glyph glyph-name="jcircumflex" unicode="&#x135;" horiz-adv-x="250" 
d="M75 550l156 182h19l66 -182h-56l-24 66l-7 60l-35 -60l-57 -66h-62zM47 0l106 500h65l-112 -528q-20 -94 -61.5 -137t-111.5 -43q-16 0 -25 1l13 55q57 0 82 34t44 118z" />
    <glyph glyph-name="Kcommaaccent" unicode="&#x136;" horiz-adv-x="572" 
d="M420 0l-185 329h-53l-69 -329h-68l148 700h68l-70 -329l41 14l298 315h87l-293 -306l-44 -30l38 -40l180 -324h-78zM169 -103q0 19 16 32t36 13q45 0 45 -53q0 -47 -33.5 -82.5t-62.5 -45.5l-18 28q50 25 57 70q-40 -1 -40 38z" />
    <glyph glyph-name="kcommaaccent" unicode="&#x137;" horiz-adv-x="446" 
d="M332 0l-122 229h-58l-48 -229h-64l148 700h64l-91 -429l44 11l189 218h82l-185 -203l-44 -32l37 -40l119 -225h-71zM115 -103q0 19 16 32t36 13q45 0 45 -53q0 -47 -33.5 -82.5t-62.5 -45.5l-18 28q50 25 57 70q-40 -1 -40 38z" />
    <glyph glyph-name="kgreenlandic" unicode="&#x138;" horiz-adv-x="462" 
d="M330 0l-122 229h-56l-48 -229h-64l106 500h64l-49 -229l42 13l197 216h80l-191 -203l-44 -32l39 -40l119 -225h-73z" />
    <glyph glyph-name="Lacute" unicode="&#x139;" horiz-adv-x="492" 
d="M445 64l-13 -64h-387l148 700h68l-135 -636h319zM221 752l140 118h106l-4 -19l-176 -99h-66z" />
    <glyph glyph-name="lacute" unicode="&#x13a;" horiz-adv-x="269" 
d="M249 700l-124 -587q-7 -33 0 -49t21 -16q37 0 69 11l1 -50q-36 -17 -88 -17q-74 0 -74 73q0 21 6 49l124 586h65zM191 752l140 118h106l-4 -19l-176 -99h-66z" />
    <glyph glyph-name="Lcommaaccent" unicode="&#x13b;" horiz-adv-x="492" 
d="M445 64l-13 -64h-387l148 700h68l-135 -636h319zM160 -103q0 19 16 32t36 13q45 0 45 -53q0 -47 -33.5 -82.5t-62.5 -45.5l-18 28q50 25 57 70q-40 -1 -40 38z" />
    <glyph glyph-name="lcommaaccent" unicode="&#x13c;" horiz-adv-x="269" 
d="M249 700l-124 -587q-7 -33 0 -49t21 -16q37 0 69 11l1 -50q-36 -17 -88 -17q-74 0 -74 73q0 21 6 49l124 586h65zM44 -103q0 19 16 32t36 13q45 0 45 -53q0 -47 -33.5 -82.5t-62.5 -45.5l-18 28q50 25 57 70q-40 -1 -40 38z" />
    <glyph glyph-name="Lcaron" unicode="&#x13d;" horiz-adv-x="492" 
d="M445 64l-13 -64h-387l148 700h68l-135 -636h319zM440 700h69q-13 -52 -51 -107.5t-65 -80.5l-22 15q47 71 69 173z" />
    <glyph glyph-name="lcaron" unicode="&#x13e;" horiz-adv-x="269" 
d="M249 700l-124 -587q-7 -33 0 -49t21 -16q37 0 69 11l1 -50q-36 -17 -88 -17q-74 0 -74 73q0 21 6 49l124 586h65zM324 700h69q-13 -52 -51 -107.5t-65 -80.5l-22 15q47 71 69 173z" />
    <glyph glyph-name="Ldot" unicode="&#x13f;" horiz-adv-x="492" 
d="M350 395q0 21 14 36.5t33 15.5q20 0 35 -15.5t15 -36.5t-15 -35.5t-35 -14.5t-33.5 14.5t-13.5 35.5zM445 64l-13 -64h-387l148 700h68l-135 -636h319z" />
    <glyph glyph-name="ldot" unicode="&#x140;" horiz-adv-x="269" 
d="M237 385q0 21 14 36t33 15q20 0 34 -15t14 -36t-14 -35.5t-34 -14.5t-33.5 14.5t-13.5 35.5zM249 700l-124 -587q-7 -33 0 -49t21 -16q37 0 69 11l1 -50q-36 -17 -88 -17q-74 0 -74 73q0 21 6 49l124 586h65z" />
    <glyph glyph-name="Lslash" unicode="&#x141;" horiz-adv-x="492" 
d="M24 214l14 66l78 57l77 363h68l-65 -305l123 89l-15 -70l-123 -88l-55 -262h319l-13 -64h-387l57 269z" />
    <glyph glyph-name="lslash" unicode="&#x142;" horiz-adv-x="269" 
d="M9 214l14 66l85 62l76 358h65l-64 -303l119 87l-15 -70l-119 -85l-45 -216q-7 -33 0 -49t21 -16q37 0 69 11l1 -50q-36 -17 -88 -17q-74 0 -74 73q0 21 6 49l34 160z" />
    <glyph glyph-name="Nacute" unicode="&#x143;" horiz-adv-x="644" 
d="M489 -12l-229 491l-34 101h-3l-12 -101l-101 -479h-65l151 712h28l229 -488l33 -96h4l9 96l102 476h65l-151 -712h-26zM392 752l140 118h106l-4 -19l-176 -99h-66z" />
    <glyph glyph-name="nacute" unicode="&#x144;" horiz-adv-x="522" 
d="M391 0h-64l67 317q10 52 10 71q0 68 -69 68q-51 0 -100 -40.5t-76 -91.5l-67 -324h-64l106 500h43l-4 -85h4q81 97 183 97q110 0 110 -109q0 -31 -9 -73zM315 572l89 148h75l-4 -19l-121 -129h-39z" />
    <glyph glyph-name="Ncommaaccent" unicode="&#x145;" horiz-adv-x="644" 
d="M489 -12l-229 491l-34 101h-3l-12 -101l-101 -479h-65l151 712h28l229 -488l33 -96h4l9 96l102 476h65l-151 -712h-26zM211 -103q0 19 16 32t36 13q45 0 45 -53q0 -47 -33.5 -82.5t-62.5 -45.5l-18 28q50 25 57 70q-40 -1 -40 38z" />
    <glyph glyph-name="ncommaaccent" unicode="&#x146;" horiz-adv-x="522" 
d="M391 0h-64l67 317q10 52 10 71q0 68 -69 68q-51 0 -100 -40.5t-76 -91.5l-67 -324h-64l106 500h43l-4 -85h4q81 97 183 97q110 0 110 -109q0 -31 -9 -73zM149 -103q0 19 16 32t36 13q45 0 45 -53q0 -47 -33.5 -82.5t-62.5 -45.5l-18 28q50 25 57 70q-40 -1 -40 38z" />
    <glyph glyph-name="Ncaron" unicode="&#x147;" horiz-adv-x="644" 
d="M489 -12l-229 491l-34 101h-3l-12 -101l-101 -479h-65l151 712h28l229 -488l33 -96h4l9 96l102 476h65l-151 -712h-26zM605 852l-149 -104h-38l-97 105l3 17h61l47 -51l8 -35l24 34l73 52h71z" />
    <glyph glyph-name="ncaron" unicode="&#x148;" horiz-adv-x="522" 
d="M391 0h-64l67 317q10 52 10 71q0 68 -69 68q-51 0 -100 -40.5t-76 -91.5l-67 -324h-64l106 500h43l-4 -85h4q81 97 183 97q110 0 110 -109q0 -31 -9 -73zM501 732l-156 -182h-23l-71 182h65l23 -66l8 -60l35 60l56 66h63z" />
    <glyph glyph-name="napostrophe" unicode="&#x149;" horiz-adv-x="522" 
d="M391 0h-64l67 317q10 52 10 71q0 68 -69 68q-51 0 -100 -40.5t-76 -91.5l-67 -324h-64l106 500h43l-4 -85h4q81 97 183 97q110 0 110 -109q0 -31 -9 -73zM54 662q1 20 17 33t33 13q28 0 38.5 -13.5t10.5 -42.5q-1 -56 -36.5 -93.5t-69.5 -50.5l-15 30q55 28 62 80
q-42 2 -40 44z" />
    <glyph glyph-name="Eng" unicode="&#x14a;" horiz-adv-x="644" 
d="M457 0l8 38l-205 442l-35 99h-2l-12 -98l-101 -481h-65l151 712h28l230 -490l32 -93h4l9 93l102 478h65l-154 -728q-21 -95 -59.5 -140t-102.5 -45q-14 0 -21 1l13 60q51 0 73.5 33.5t41.5 118.5z" />
    <glyph glyph-name="eng" unicode="&#x14b;" horiz-adv-x="522" 
d="M92 0h-64l106 500h43l-4 -85h4q81 97 183 97q110 0 110 -109q0 -31 -9 -73l-75 -358q-38 -185 -164 -185q-14 0 -21 1l13 60q51 0 73 33.5t40 118.5l67 317q10 52 10 71q0 68 -69 68q-51 0 -100 -40.5t-76 -91.5z" />
    <glyph glyph-name="Omacron" unicode="&#x14c;" horiz-adv-x="653" 
d="M76 255q-1 123 42.5 226.5t125 167t185.5 63.5q101 0 159.5 -62.5t58.5 -200.5q0 -125 -42.5 -230t-120 -168t-174.5 -63q-232 0 -234 267zM148 255q-1 -98 41.5 -151.5t120.5 -53.5q114 0 189.5 116t75.5 281q0 203 -160 203q-115 0 -190 -116t-77 -279zM304 764l12 56
h295l-12 -56h-295z" />
    <glyph glyph-name="omacron" unicode="&#x14d;" horiz-adv-x="499" 
d="M54 155q0 155 75 256t184 101q77 0 113.5 -46.5t36.5 -119.5q0 -149 -72 -253.5t-178 -104.5q-82 0 -120.5 48.5t-38.5 118.5zM122 173q0 -129 99 -129q70 0 122 89.5t52 206.5q0 57 -22 86.5t-74 29.5q-70 0 -123.5 -85.5t-53.5 -197.5zM192 584l12 56h276l-12 -56h-276
z" />
    <glyph glyph-name="Obreve" unicode="&#x14e;" horiz-adv-x="653" 
d="M76 255q-1 123 42.5 226.5t125 167t185.5 63.5q101 0 159.5 -62.5t58.5 -200.5q0 -125 -42.5 -230t-120 -168t-174.5 -63q-232 0 -234 267zM148 255q-1 -98 41.5 -151.5t120.5 -53.5q114 0 189.5 116t75.5 281q0 203 -160 203q-115 0 -190 -116t-77 -279zM318 849l37 21
q8 -36 33.5 -56t63.5 -20q41 0 71.5 12t44.5 25.5t32 38.5l39 -16q-48 -124 -189 -124q-57 0 -93 35.5t-39 83.5z" />
    <glyph glyph-name="obreve" unicode="&#x14f;" horiz-adv-x="499" 
d="M54 155q0 155 75 256t184 101q77 0 113.5 -46.5t36.5 -119.5q0 -149 -72 -253.5t-178 -104.5q-82 0 -120.5 48.5t-38.5 118.5zM122 173q0 -129 99 -129q70 0 122 89.5t52 206.5q0 57 -22 86.5t-74 29.5q-70 0 -123.5 -85.5t-53.5 -197.5zM213 699l44 21q19 -81 80 -81
q76 0 127 81l32 -16q-16 -51 -64 -90t-101 -39q-51 0 -84 34t-34 90z" />
    <glyph glyph-name="Ohungarumlaut" unicode="&#x150;" horiz-adv-x="653" 
d="M76 255q-1 123 42.5 226.5t125 167t185.5 63.5q101 0 159.5 -62.5t58.5 -200.5q0 -125 -42.5 -230t-120 -168t-174.5 -63q-232 0 -234 267zM148 255q-1 -98 41.5 -151.5t120.5 -53.5q114 0 189.5 116t75.5 281q0 203 -160 203q-115 0 -190 -116t-77 -279zM352 741l85 109
h79l-3 -16l-115 -93h-46zM462 741l121 109h85l-3 -16l-156 -93h-47z" />
    <glyph glyph-name="ohungarumlaut" unicode="&#x151;" horiz-adv-x="499" 
d="M54 155q0 155 75 256t184 101q77 0 113.5 -46.5t36.5 -119.5q0 -149 -72 -253.5t-178 -104.5q-82 0 -120.5 48.5t-38.5 118.5zM122 173q0 -129 99 -129q70 0 122 89.5t52 206.5q0 57 -22 86.5t-74 29.5q-70 0 -123.5 -85.5t-53.5 -197.5zM246 571l60 129h65l-3 -16
l-90 -113h-32zM341 571l97 129h73l-3 -16l-131 -113h-36z" />
    <glyph glyph-name="OE" unicode="&#x152;" horiz-adv-x="891" 
d="M438 66l119 564q-46 20 -131 20q-88 0 -153 -57t-95.5 -145t-30.5 -193q0 -35 6.5 -67t23.5 -65t51.5 -53t84.5 -20q69 0 125 16zM424 0q-54 -12 -110 -12q-106 0 -172.5 62.5t-66.5 204.5q0 127 42 229.5t125.5 165t194.5 62.5q60 0 135 -12h355l-13 -62h-287l-52 -246
h263l-13 -62h-263l-57 -268h292l-13 -62h-360z" />
    <glyph glyph-name="oe" unicode="&#x153;" horiz-adv-x="788" 
d="M122 173q0 -129 99 -129q70 0 122 89.5t52 206.5q0 57 -22 86.5t-74 29.5q-70 0 -123.5 -85.5t-53.5 -197.5zM391 102q-30 -51 -79 -82.5t-99 -31.5q-82 0 -120.5 48.5t-38.5 118.5q0 155 75 256t184 101q116 0 138 -117q34 56 85 86.5t105 30.5q67 0 101 -33.5t34 -83.5
q0 -70 -68 -109.5t-196 -39.5q-19 0 -59 2q-8 -37 -8 -72q0 -60 26 -96t78 -36q83 0 139 46l23 -41q-71 -61 -174 -61q-56 0 -95.5 32.5t-50.5 81.5zM466 299h29q42 0 71.5 2.5t66 11t56 29t19.5 52.5q0 25 -18 43.5t-60 18.5q-120 0 -164 -157z" />
    <glyph glyph-name="Racute" unicode="&#x154;" horiz-adv-x="564" 
d="M45 0l147 693q81 15 153 15q81 0 136.5 -41.5t55.5 -128.5q0 -86 -51.5 -145t-151.5 -76l36 -38l110 -279h-74l-126 308l-99 16l-68 -324h-68zM341 646q-59 0 -92 -6l-58 -270h73q40 0 74 8t63.5 26t46.5 52t17 81q0 42 -32 75.5t-92 33.5zM306 752l140 118h106l-4 -19
l-176 -99h-66z" />
    <glyph glyph-name="racute" unicode="&#x155;" horiz-adv-x="323" 
d="M377 500l-17 -57q-17 4 -36 4q-50 0 -88.5 -31.5t-61.5 -83.5l-70 -332h-64l106 500h43v-85h4q59 92 139 92q23 0 45 -7zM216 572l89 148h75l-4 -19l-121 -129h-39z" />
    <glyph glyph-name="Rcommaaccent" unicode="&#x156;" horiz-adv-x="564" 
d="M45 0l147 693q81 15 153 15q81 0 136.5 -41.5t55.5 -128.5q0 -86 -51.5 -145t-151.5 -76l36 -38l110 -279h-74l-126 308l-99 16l-68 -324h-68zM341 646q-59 0 -92 -6l-58 -270h73q40 0 74 8t63.5 26t46.5 52t17 81q0 42 -32 75.5t-92 33.5zM169 -103q0 19 16 32t36 13
q45 0 45 -53q0 -47 -33.5 -82.5t-62.5 -45.5l-18 28q50 25 57 70q-40 -1 -40 38z" />
    <glyph glyph-name="rcommaaccent" unicode="&#x157;" horiz-adv-x="323" 
d="M377 500l-17 -57q-17 4 -36 4q-50 0 -88.5 -31.5t-61.5 -83.5l-70 -332h-64l106 500h43v-85h4q59 92 139 92q23 0 45 -7zM21 -103q0 19 16 32t36 13q45 0 45 -53q0 -47 -33.5 -82.5t-62.5 -45.5l-18 28q50 25 57 70q-40 -1 -40 38z" />
    <glyph glyph-name="Rcaron" unicode="&#x158;" horiz-adv-x="564" 
d="M45 0l147 693q81 15 153 15q81 0 136.5 -41.5t55.5 -128.5q0 -86 -51.5 -145t-151.5 -76l36 -38l110 -279h-74l-126 308l-99 16l-68 -324h-68zM341 646q-59 0 -92 -6l-58 -270h73q40 0 74 8t63.5 26t46.5 52t17 81q0 42 -32 75.5t-92 33.5zM519 852l-149 -104h-38
l-97 105l3 17h61l47 -51l8 -35l24 34l73 52h71z" />
    <glyph glyph-name="rcaron" unicode="&#x159;" horiz-adv-x="323" 
d="M377 500l-17 -57q-17 4 -36 4q-50 0 -88.5 -31.5t-61.5 -83.5l-70 -332h-64l106 500h43v-85h4q59 92 139 92q23 0 45 -7zM421 732l-156 -182h-23l-71 182h65l23 -66l8 -60l35 60l56 66h63z" />
    <glyph glyph-name="Sacute" unicode="&#x15a;" horiz-adv-x="504" 
d="M396 178q0 35 -18.5 64t-47.5 47l-61 41q-32 23 -60.5 45t-47 59t-18.5 83q0 99 68 147t177 48q114 0 171 -31l-34 -61q-54 30 -154 30q-71 0 -113.5 -33.5t-42.5 -91.5q0 -32 14 -57.5t36.5 -44t49.5 -35.5t53.5 -35.5t49 -40t36.5 -54t14 -72.5q0 -93 -69 -145.5
t-198 -52.5q-117 0 -180 36l36 64q63 -38 156 -38q75 0 129 30t54 98zM335 752l140 118h106l-4 -19l-176 -99h-66z" />
    <glyph glyph-name="sacute" unicode="&#x15b;" horiz-adv-x="398" 
d="M267 140q0 25 -13.5 46t-33.5 34l-44 29q-24 16 -44 31.5t-33.5 41.5t-13.5 58q0 55 51 93.5t125 38.5q80 0 129 -27l-23 -52q-40 23 -110 23q-46 0 -75 -19.5t-29 -56.5q0 -29 28.5 -54.5t62.5 -43.5t62.5 -53t28.5 -82q0 -76 -51.5 -117.5t-140.5 -41.5q-88 0 -139 32
l25 55q47 -31 121 -31q54 0 85.5 24t31.5 72zM245 572l89 148h75l-4 -19l-121 -129h-39z" />
    <glyph glyph-name="Scircumflex" unicode="&#x15c;" horiz-adv-x="504" 
d="M396 178q0 35 -18.5 64t-47.5 47l-61 41q-32 23 -60.5 45t-47 59t-18.5 83q0 99 68 147t177 48q114 0 171 -31l-34 -61q-54 30 -154 30q-71 0 -113.5 -33.5t-42.5 -91.5q0 -32 14 -57.5t36.5 -44t49.5 -35.5t53.5 -35.5t49 -40t36.5 -54t14 -72.5q0 -93 -69 -145.5
t-198 -52.5q-117 0 -180 36l36 64q63 -38 156 -38q75 0 129 30t54 98zM247 767l148 103h39l99 -104l-3 -17h-64l-46 51l-10 35l-24 -34l-72 -52h-71z" />
    <glyph glyph-name="scircumflex" unicode="&#x15d;" horiz-adv-x="398" 
d="M267 140q0 25 -13.5 46t-33.5 34l-44 29q-24 16 -44 31.5t-33.5 41.5t-13.5 58q0 55 51 93.5t125 38.5q80 0 129 -27l-23 -52q-40 23 -110 23q-46 0 -75 -19.5t-29 -56.5q0 -29 28.5 -54.5t62.5 -43.5t62.5 -53t28.5 -82q0 -76 -51.5 -117.5t-140.5 -41.5q-88 0 -139 32
l25 55q47 -31 121 -31q54 0 85.5 24t31.5 72zM148 550l156 182h19l66 -182h-56l-24 66l-7 60l-35 -60l-57 -66h-62z" />
    <glyph glyph-name="Scedilla" unicode="&#x15e;" horiz-adv-x="504" 
d="M21 24l36 64q63 -38 156 -38q75 0 129 30t54 98q0 35 -18.5 64t-46.5 47l-61 41q-33 23 -61.5 45t-47 59t-18.5 83q0 99 68 147t177 48q114 0 171 -31l-34 -61q-54 30 -154 30q-71 0 -113.5 -33.5t-42.5 -91.5q0 -32 14 -57.5t36.5 -44t49.5 -35.5t53.5 -35.5t49 -40
t36.5 -54t14 -72.5q0 -86 -59.5 -137.5t-170.5 -58.5l-25 -33q26 -3 43 -21t17 -49q0 -47 -34 -71t-84 -24q-28 0 -52 4l17 37q1 0 7.5 -0.5t11.5 -0.5q32 0 52.5 10.5t20.5 30.5q0 19 -21 29t-56 9l54 77q-111 3 -168 36z" />
    <glyph glyph-name="scedilla" unicode="&#x15f;" horiz-adv-x="398" 
d="M4 20l25 56q47 -31 121 -31q54 0 85.5 23.5t31.5 71.5q0 25 -13.5 46t-33.5 34l-44 29q-24 16 -44 31.5t-33.5 41.5t-13.5 58q0 55 51 93.5t125 38.5q80 0 129 -27l-23 -52q-40 23 -110 23q-46 0 -75 -19.5t-29 -56.5q0 -29 28.5 -54.5t62.5 -43.5t62.5 -53t28.5 -82
q0 -71 -44.5 -111.5t-123.5 -46.5l-24 -32q26 -3 43 -21t17 -49q0 -47 -34 -71t-84 -24q-28 0 -52 4l17 37q1 0 7.5 -0.5t11.5 -0.5q32 0 52.5 10.5t20.5 30.5q0 19 -21 29t-56 9l55 78q-76 5 -116 31z" />
    <glyph glyph-name="Scaron" unicode="&#x160;" horiz-adv-x="504" 
d="M396 178q0 35 -18.5 64t-47.5 47l-61 41q-32 23 -60.5 45t-47 59t-18.5 83q0 99 68 147t177 48q114 0 171 -31l-34 -61q-54 30 -154 30q-71 0 -113.5 -33.5t-42.5 -91.5q0 -32 14 -57.5t36.5 -44t49.5 -35.5t53.5 -35.5t49 -40t36.5 -54t14 -72.5q0 -93 -69 -145.5
t-198 -52.5q-117 0 -180 36l36 64q63 -38 156 -38q75 0 129 30t54 98zM567 852l-149 -104h-38l-97 105l3 17h61l47 -51l8 -35l24 34l73 52h71z" />
    <glyph glyph-name="scaron" unicode="&#x161;" horiz-adv-x="398" 
d="M267 140q0 25 -13.5 46t-33.5 34l-44 29q-24 16 -44 31.5t-33.5 41.5t-13.5 58q0 55 51 93.5t125 38.5q80 0 129 -27l-23 -52q-40 23 -110 23q-46 0 -75 -19.5t-29 -56.5q0 -29 28.5 -54.5t62.5 -43.5t62.5 -53t28.5 -82q0 -76 -51.5 -117.5t-140.5 -41.5q-88 0 -139 32
l25 55q47 -31 121 -31q54 0 85.5 24t31.5 72zM432 732l-156 -182h-23l-71 182h65l23 -66l8 -60l35 60l56 66h63z" />
    <glyph glyph-name="Tcedilla" unicode="&#x162;" horiz-adv-x="524" 
d="M612 700l-13 -64h-209l-135 -636h-9l-33 -43q26 -3 43 -21t17 -49q0 -47 -34 -71t-84 -24q-28 0 -52 4l17 37q1 0 7.5 -0.5t11.5 -0.5q32 0 52.5 10.5t20.5 30.5q0 19 -21 29t-56 9l63 89h-11l135 636h-209l13 64h486z" />
    <glyph glyph-name="tcedilla" unicode="&#x163;" horiz-adv-x="311" 
d="M60 444l13 56h76l21 100l69 20l-25 -120h133l-13 -56h-133l-67 -318q-5 -25 -5 -38q0 -44 46 -44q44 0 88 25v-54q-44 -24 -103 -27l-24 -31q26 -3 43 -21t17 -49q0 -47 -34 -71t-84 -24q-28 0 -52 4l17 37q1 0 7.5 -0.5t11.5 -0.5q32 0 52.5 10.5t20.5 30.5q0 19 -21 29
t-56 9l57 81q-54 14 -54 77q0 16 5 41l70 334h-76z" />
    <glyph glyph-name="Tcaron" unicode="&#x164;" horiz-adv-x="524" 
d="M546 852l-149 -104h-38l-97 105l3 17h61l47 -51l8 -35l24 34l73 52h71zM612 700l-13 -64h-209l-135 -636h-68l135 636h-209l13 64h486z" />
    <glyph glyph-name="tcaron" unicode="&#x165;" horiz-adv-x="311" 
d="M60 444l13 56h76l21 100l69 20l-25 -120h133l-13 -56h-133l-67 -318q-5 -25 -5 -38q0 -44 46 -44q44 0 88 25v-54q-50 -27 -114 -27q-88 0 -88 81q0 16 5 41l70 334h-76zM320 712h69q-13 -52 -51 -107.5t-65 -80.5l-22 15q47 71 69 173z" />
    <glyph glyph-name="Tbar" unicode="&#x166;" horiz-adv-x="562" 
d="M631 700l-13 -64h-209l-50 -236h212l-14 -64h-212l-71 -336h-68l71 336h-204l14 64h204l50 236h-209l13 64h486z" />
    <glyph glyph-name="tbar" unicode="&#x167;" horiz-adv-x="347" 
d="M85 444l12 56h76l21 100l69 20l-25 -120h133l-12 -56h-133l-33 -154h133l-12 -58h-133l-19 -89q-6 -29 -6 -48q0 -47 43 -47q33 0 87 21l6 -52q-65 -29 -127 -29q-41 0 -59 18t-18 59q0 29 9 73l19 94h-76l12 58h76l33 154h-76z" />
    <glyph glyph-name="Utilde" unicode="&#x168;" horiz-adv-x="622" 
d="M489 256l94 444h65l-99 -470q-27 -127 -86 -182.5t-174 -55.5q-197 0 -197 172q0 41 11 94l94 442h68l-93 -444q-10 -46 -10 -84q0 -63 33 -89.5t104 -26.5q82 0 124.5 46t65.5 154zM305 746l-15 36q61 53 110 53q24 0 60.5 -15.5t54.5 -15.5q27 0 51 19l17 -37
q-56 -44 -99 -44q-23 0 -59 15.5t-55 15.5q-32 0 -65 -27z" />
    <glyph glyph-name="utilde" unicode="&#x169;" horiz-adv-x="511" 
d="M143 500h65l-72 -339q-6 -27 -6 -50q0 -67 54 -67q48 0 98 41.5t80 94.5l67 320h64l-63 -297q-27 -129 -24 -203h-49v96h-4q-34 -45 -82.5 -76.5t-103.5 -31.5q-103 0 -103 108q0 35 10 78zM237 619l-15 36q56 56 95 56q19 0 47 -19t45 -19q23 0 51 23l17 -37
q-50 -50 -85 -50q-19 0 -47.5 19t-46.5 19q-26 0 -61 -28z" />
    <glyph glyph-name="Umacron" unicode="&#x16a;" horiz-adv-x="622" 
d="M489 256l94 444h65l-99 -470q-27 -127 -86 -182.5t-174 -55.5q-197 0 -197 172q0 41 11 94l94 442h68l-93 -444q-10 -46 -10 -84q0 -63 33 -89.5t104 -26.5q82 0 124.5 46t65.5 154zM283 764l12 56h295l-12 -56h-295z" />
    <glyph glyph-name="umacron" unicode="&#x16b;" horiz-adv-x="511" 
d="M143 500h65l-72 -339q-6 -27 -6 -50q0 -67 54 -67q48 0 98 41.5t80 94.5l67 320h64l-63 -297q-27 -129 -24 -203h-49v96h-4q-34 -45 -82.5 -76.5t-103.5 -31.5q-103 0 -103 108q0 35 10 78zM196 584l12 56h276l-12 -56h-276z" />
    <glyph glyph-name="Ubreve" unicode="&#x16c;" horiz-adv-x="622" 
d="M489 256l94 444h65l-99 -470q-27 -127 -86 -182.5t-174 -55.5q-197 0 -197 172q0 41 11 94l94 442h68l-93 -444q-10 -46 -10 -84q0 -63 33 -89.5t104 -26.5q82 0 124.5 46t65.5 154zM286 849l37 21q8 -36 33.5 -56t63.5 -20q41 0 71.5 12t44.5 25.5t32 38.5l39 -16
q-48 -124 -189 -124q-57 0 -93 35.5t-39 83.5z" />
    <glyph glyph-name="ubreve" unicode="&#x16d;" horiz-adv-x="511" 
d="M143 500h65l-72 -339q-6 -27 -6 -50q0 -67 54 -67q48 0 98 41.5t80 94.5l67 320h64l-63 -297q-27 -129 -24 -203h-49v96h-4q-34 -45 -82.5 -76.5t-103.5 -31.5q-103 0 -103 108q0 35 10 78zM217 699l44 21q19 -81 80 -81q76 0 127 81l32 -16q-16 -51 -64 -90t-101 -39
q-51 0 -84 34t-34 90z" />
    <glyph glyph-name="Uring" unicode="&#x16e;" horiz-adv-x="622" 
d="M489 256l94 444h65l-99 -470q-27 -127 -86 -182.5t-174 -55.5q-197 0 -197 172q0 41 11 94l94 442h68l-93 -444q-10 -46 -10 -84q0 -63 33 -89.5t104 -26.5q82 0 124.5 46t65.5 154zM337 767q0 38 25.5 61t74.5 23q46 0 73.5 -22t27.5 -62q0 -37 -27 -59.5t-74 -22.5
t-73.5 22t-26.5 60zM393 767q0 -18 11 -30t33 -12q21 0 33 11.5t12 30.5q0 44 -45 44q-21 0 -32.5 -12t-11.5 -32z" />
    <glyph glyph-name="uring" unicode="&#x16f;" horiz-adv-x="511" 
d="M143 500h65l-72 -339q-6 -27 -6 -50q0 -67 54 -67q48 0 98 41.5t80 94.5l67 320h64l-63 -297q-27 -129 -24 -203h-49v96h-4q-34 -45 -82.5 -76.5t-103.5 -31.5q-103 0 -103 108q0 35 10 78zM251 642q0 41 26 65.5t68 24.5t68.5 -23t26.5 -67q0 -39 -27.5 -64t-67.5 -25
q-41 0 -67.5 23.5t-26.5 65.5zM301 642q0 -19 13.5 -31.5t30.5 -12.5q20 0 32.5 11t12.5 33q0 21 -13 33t-32 12t-31.5 -11.5t-12.5 -33.5z" />
    <glyph glyph-name="Uhungarumlaut" unicode="&#x170;" horiz-adv-x="622" 
d="M489 256l94 444h65l-99 -470q-27 -127 -86 -182.5t-174 -55.5q-197 0 -197 172q0 41 11 94l94 442h68l-93 -444q-10 -46 -10 -84q0 -63 33 -89.5t104 -26.5q82 0 124.5 46t65.5 154zM322 741l85 109h79l-3 -16l-115 -93h-46zM432 741l121 109h85l-3 -16l-156 -93h-47z
" />
    <glyph glyph-name="uhungarumlaut" unicode="&#x171;" horiz-adv-x="511" 
d="M143 500h65l-72 -339q-6 -27 -6 -50q0 -67 54 -67q48 0 98 41.5t80 94.5l67 320h64l-63 -297q-27 -129 -24 -203h-49v96h-4q-34 -45 -82.5 -76.5t-103.5 -31.5q-103 0 -103 108q0 35 10 78zM250 571l60 129h65l-3 -16l-90 -113h-32zM345 571l97 129h73l-3 -16l-131 -113
h-36z" />
    <glyph glyph-name="Uogonek" unicode="&#x172;" horiz-adv-x="622" 
d="M489 256l94 444h65l-99 -470q-20 -95 -57 -149t-101 -75q-88 -42 -88 -107q0 -41 39 -41q22 0 44 8v-39q-32 -21 -80 -21q-33 0 -54 18t-21 54q0 69 82 115q-8 -1 -24 -1q-197 0 -197 172q0 41 11 94l94 442h68l-93 -444q-10 -46 -10 -84q0 -63 33 -89.5t104 -26.5
q82 0 124.5 46t65.5 154z" />
    <glyph glyph-name="uogonek" unicode="&#x173;" horiz-adv-x="511" 
d="M143 500h65l-72 -339q-6 -27 -6 -50q0 -67 54 -67q48 0 98 41.5t80 94.5l67 320h64l-63 -297q-27 -129 -24 -203h-14q-87 -44 -87 -107q0 -41 41 -41q15 0 42 8v-39q-32 -21 -80 -21q-33 0 -54 18t-21 54q0 46 36.5 81t87.5 50v93h-4q-34 -45 -82.5 -76.5t-103.5 -31.5
q-103 0 -103 108q0 35 10 78z" />
    <glyph glyph-name="Wcircumflex" unicode="&#x174;" horiz-adv-x="780" 
d="M185 700l21 -484l-8 -114h1l39 116l243 482h33l38 -484l-8 -114h1l40 116l224 482h69l-337 -712h-34l-38 487l6 105h-4l-40 -106l-242 -486h-34l-40 712h70zM357 767l148 103h39l99 -104l-3 -17h-64l-46 51l-10 35l-24 -34l-72 -52h-71z" />
    <glyph glyph-name="wcircumflex" unicode="&#x175;" horiz-adv-x="686" 
d="M375 500h48l50 -300l5 -99h1l41 101l153 298h67l-272 -512h-27l-56 341l-2 86h-1l-40 -87l-199 -340h-23l-60 512h65l34 -300l-1 -99h4l41 101zM289 550l156 182h19l66 -182h-56l-24 66l-7 60l-35 -60l-57 -66h-62z" />
    <glyph glyph-name="Ycircumflex" unicode="&#x176;" horiz-adv-x="523" 
d="M184 0l59 282l-134 418h74l94 -316l4 -58h1l30 60l226 314h77l-303 -417l-60 -283h-68zM228 767l148 103h39l99 -104l-3 -17h-64l-46 51l-10 35l-24 -34l-72 -52h-71z" />
    <glyph glyph-name="ycircumflex" unicode="&#x177;" horiz-adv-x="436" 
d="M135 500l53 -333l7 -100h5l42 101l172 332h67l-234 -445l-34 -65l-33 -58q-22 -37 -37 -55.5t-35.5 -41t-40 -31.5t-39.5 -9q-32 0 -48 8l21 60q16 -4 23 -4q31 0 60.5 32.5t68.5 108.5l-84 500h66zM167 550l156 182h19l66 -182h-56l-24 66l-7 60l-35 -60l-57 -66h-62z
" />
    <glyph glyph-name="Ydieresis" unicode="&#x178;" horiz-adv-x="523" 
d="M184 0l59 282l-134 418h74l94 -316l4 -58h1l30 60l226 314h77l-303 -417l-60 -283h-68zM255 793q0 19 13 32t33 13t33 -13t13 -32q0 -18 -13 -31t-33 -13t-33 13t-13 31zM433 793q0 19 13 32t33 13t33 -13t13 -32q0 -18 -13 -31t-33 -13t-33 13t-13 31z" />
    <glyph glyph-name="Zacute" unicode="&#x179;" horiz-adv-x="520" 
d="M1 0l13 64l452 533l47 39h-377l13 64h444l-13 -64l-455 -536l-45 -36h378l-13 -64h-444zM316 752l140 118h106l-4 -19l-176 -99h-66z" />
    <glyph glyph-name="zacute" unicode="&#x17a;" horiz-adv-x="428" 
d="M0 0l12 60l293 337l52 43h-264l13 60h330l-13 -60l-297 -340l-51 -40h267l-12 -60h-330zM249 572l89 148h75l-4 -19l-121 -129h-39z" />
    <glyph glyph-name="Zdotaccent" unicode="&#x17b;" horiz-adv-x="520" 
d="M1 0l13 64l452 533l47 39h-377l13 64h444l-13 -64l-455 -536l-45 -36h378l-13 -64h-444zM335 796q0 21 15.5 36t38.5 15t39 -15t16 -36q0 -20 -16 -35t-39 -15t-38.5 14.5t-15.5 35.5z" />
    <glyph glyph-name="zdotaccent" unicode="&#x17c;" horiz-adv-x="428" 
d="M0 0l12 60l293 337l52 43h-264l13 60h330l-13 -60l-297 -340l-51 -40h267l-12 -60h-330zM235 656q0 21 14 36t35 15t35.5 -15t14.5 -36t-14.5 -36t-35.5 -15t-35 15t-14 36z" />
    <glyph glyph-name="Zcaron" unicode="&#x17d;" horiz-adv-x="520" 
d="M1 0l13 64l452 533l47 39h-377l13 64h444l-13 -64l-455 -536l-45 -36h378l-13 -64h-444zM529 852l-149 -104h-38l-97 105l3 17h61l47 -51l8 -35l24 34l73 52h71z" />
    <glyph glyph-name="zcaron" unicode="&#x17e;" horiz-adv-x="428" 
d="M435 732l-156 -182h-23l-71 182h65l23 -66l8 -60l35 60l56 66h63zM0 0l12 60l293 337l52 43h-264l13 60h330l-13 -60l-297 -340l-51 -40h267l-12 -60h-330z" />
    <glyph glyph-name="longs" unicode="&#x17f;" horiz-adv-x="272" 
d="M76 0l73 444h-76l12 56h76l6 28q20 95 58.5 136.5t113.5 41.5q52 0 93 -19l-27 -51q-28 14 -77 14q-48 0 -69 -36.5t-34 -113.5l-86 -500q-20 -116 -51.5 -162t-101.5 -46q-57 0 -96 18l19 48q30 -10 77 -10q65 0 90 152z" />
    <glyph glyph-name="uni018F" unicode="&#x18f;" horiz-adv-x="597" 
d="M506 326h-364q-15 -60 -15 -105q0 -76 34.5 -123.5t105.5 -47.5q95 0 156 75.5t83 200.5zM91 388h424q3 23 3 49q0 41 -7.5 76t-25 67.5t-50 51t-77.5 18.5q-39 0 -83.5 -13t-73.5 -29l-7 56q86 48 172 48q42 0 77.5 -10.5t70.5 -37t55.5 -81.5t20.5 -134
q0 -125 -36 -228t-112 -168t-180 -65q-98 0 -150.5 60t-52.5 163q0 78 32 177z" />
    <glyph glyph-name="florin" unicode="&#x192;" horiz-adv-x="525" 
d="M447 440h-130l-80 -474q-28 -174 -152 -174q-49 0 -108 24l21 56q48 -20 87 -20q37 0 57 35.5t34 120.5l69 432h-86v60h96l11 67q12 76 44 110.5t99 34.5q55 0 114 -24l-21 -56q-48 20 -92 20q-37 0 -51.5 -23t-24.5 -86l-7 -43h120v-60z" />
    <glyph glyph-name="uni01DD" unicode="&#x1dd;" horiz-adv-x="483" 
d="M126 414l-19 50q67 48 167 48q88 0 130.5 -51t42.5 -119q0 -161 -71 -257.5t-195 -96.5q-61 0 -103 36.5t-42 87.5q0 49 17.5 82.5t50.5 51.5t73 25.5t94 7.5q65 0 107 -7q5 33 5 54q0 66 -35 98t-88 32q-71 0 -134 -42zM196 44q56 0 102 44.5t66 127.5q-63 9 -101 9
q-41 0 -73.5 -7.5t-59 -31t-26.5 -62.5q0 -33 23 -56.5t69 -23.5z" />
    <glyph glyph-name="Gcaron" unicode="&#x1e6;" horiz-adv-x="582" 
d="M368 306l8 40h179l-65 -307q-68 -51 -170 -51q-103 0 -174.5 74.5t-71.5 210.5q0 95 24.5 172t64 126t91 81.5t102 46t101.5 13.5q94 0 152 -26l-32 -63q-42 25 -129 25q-125 0 -213.5 -97t-88.5 -270q0 -98 48 -163.5t140 -65.5q55 0 105 25l44 209zM634 852l-149 -104
h-38l-97 105l3 17h61l47 -51l8 -35l24 34l73 52h71z" />
    <glyph glyph-name="gcaron" unicode="&#x1e7;" horiz-adv-x="505" 
d="M487 478l-107 -506q-39 -184 -201 -184q-84 0 -171 45l31 48q1 0 8.5 -4.5t10.5 -5.5l12 -6q9 -5 16 -7t18.5 -5t22.5 -4.5t26 -3t31 -1.5q104 0 138 156l18 85h-4q-70 -97 -164 -97q-55 0 -87.5 39.5t-32.5 111.5q0 53 11 104.5t34.5 99.5t56.5 84.5t80.5 58.5t102.5 22
q85 0 150 -30zM193 44q50 0 96 44t72 98l53 250q-27 16 -92 16q-85 0 -143.5 -90.5t-58.5 -212.5q0 -48 20 -76.5t53 -28.5zM489 732l-156 -182h-23l-71 182h65l23 -66l8 -60l35 60l56 66h63z" />
    <glyph glyph-name="uni01F4" unicode="&#x1f4;" horiz-adv-x="582" 
d="M368 306l8 40h179l-65 -307q-68 -51 -170 -51q-103 0 -174.5 74.5t-71.5 210.5q0 95 24.5 172t64 126t91 81.5t102 46t101.5 13.5q94 0 152 -26l-32 -63q-42 25 -129 25q-125 0 -213.5 -97t-88.5 -270q0 -98 48 -163.5t140 -65.5q55 0 105 25l44 209zM411 752l140 118
h106l-4 -19l-176 -99h-66z" />
    <glyph glyph-name="uni01F5" unicode="&#x1f5;" horiz-adv-x="505" 
d="M487 478l-107 -506q-39 -184 -201 -184q-84 0 -171 45l31 48q1 0 8.5 -4.5t10.5 -5.5l12 -6q9 -5 16 -7t18.5 -5t22.5 -4.5t26 -3t31 -1.5q104 0 138 156l18 85h-4q-70 -97 -164 -97q-55 0 -87.5 39.5t-32.5 111.5q0 53 11 104.5t34.5 99.5t56.5 84.5t80.5 58.5t102.5 22
q85 0 150 -30zM193 44q50 0 96 44t72 98l53 250q-27 16 -92 16q-85 0 -143.5 -90.5t-58.5 -212.5q0 -48 20 -76.5t53 -28.5zM311 572l89 148h75l-4 -19l-121 -129h-39z" />
    <glyph glyph-name="Aringacute" unicode="&#x1fa;" horiz-adv-x="552" 
d="M298 767q0 38 25.5 61t74.5 23q46 0 73.5 -22t27.5 -62q0 -36 -25.5 -58.5t-70.5 -23.5l100 -685h-66l-29 203h-253l-114 -203h-73l394 689q-64 16 -64 78zM319 490l-129 -225h209l-32 227l-2 105h-1zM354 767q0 -18 11 -30t33 -12q21 0 33 11.5t12 30.5q0 44 -45 44
q-21 0 -32.5 -12t-11.5 -32zM371 882l140 118h106l-4 -19l-176 -99h-66z" />
    <glyph glyph-name="aringacute" unicode="&#x1fb;" horiz-adv-x="483" 
d="M471 489l-64 -293q-14 -66 -14 -141q0 -33 3 -57h-49l-14 87h-4q-29 -40 -72 -68.5t-92 -28.5q-117 0 -117 155q0 65 16.5 128t48.5 118.5t88 89.5t128 34q63 0 142 -24zM182 44q45 0 88.5 38.5t66.5 81.5l58 278q-30 15 -81 15q-62 0 -108.5 -48.5t-68 -119.5
t-21.5 -151q0 -42 17 -68t49 -26zM251 642q0 41 26 65.5t68 24.5t68.5 -23t26.5 -67q0 -39 -27.5 -64t-67.5 -25q-41 0 -67.5 23.5t-26.5 65.5zM301 642q0 -19 13.5 -31.5t30.5 -12.5q20 0 32.5 11t12.5 33q0 21 -13 33t-32 12t-31.5 -11.5t-12.5 -33.5zM321 752l140 118
h106l-4 -19l-176 -99h-66z" />
    <glyph glyph-name="AEacute" unicode="&#x1fc;" horiz-adv-x="800" 
d="M463 615h-2l-52 -103l-188 -247h168zM333 0l43 203h-205l-152 -203h-80l540 700h357l-13 -62h-287l-52 -246h263l-13 -62h-263l-57 -268h292l-13 -62h-360zM516 752l140 118h106l-4 -19l-176 -99h-66z" />
    <glyph glyph-name="aeacute" unicode="&#x1fd;" horiz-adv-x="756" 
d="M172 48q50 0 94.5 39t67.5 75l8 71q-32 2 -48 2q-88 0 -142 -27t-54 -84q0 -76 74 -76zM343 89h-7q-34 -43 -83 -70t-103 -27q-59 0 -89.5 34.5t-30.5 83.5q0 178 275 178q31 0 47 -1q21 67 21 104q0 33 -19.5 47t-65.5 14q-32 0 -76.5 -10.5t-72.5 -25.5l-11 53
q72 39 191 39q103 0 115 -68q30 36 76 54t90 18q68 0 106 -31.5t38 -79.5q0 -41 -16.5 -70t-43 -46.5t-72 -28t-92.5 -14.5t-115 -5q-8 -38 -8 -68q0 -125 129 -125q30 0 65 12.5t57 29.5l15 -47q-72 -51 -171 -51q-57 0 -96.5 27t-52.5 74zM590 456q-127 0 -174 -163
q62 0 102 2.5t79.5 12t59 30.5t19.5 54q0 64 -86 64zM435 572l89 148h75l-4 -19l-121 -129h-39z" />
    <glyph glyph-name="Oslashacute" unicode="&#x1fe;" horiz-adv-x="653" 
d="M75 255v3q0 188 99 321t254 133q79 0 132 -38l29 39l44 -32l-34 -47q47 -66 47 -185q0 -125 -42.5 -230t-120 -168t-174.5 -63q-90 0 -146 41l-29 -41l-45 33l35 48q-49 69 -49 186zM552 569l-347 -483q39 -36 104 -36q114 0 189.5 116t75.5 281q0 75 -22 122zM170 133
l348 482q-39 35 -104 35q-115 0 -190 -116t-77 -279v-8q0 -68 23 -114zM402 752l140 118h106l-4 -19l-176 -99h-66z" />
    <glyph glyph-name="oslashacute" unicode="&#x1ff;" horiz-adv-x="499" 
d="M94 34l-42 -46l-36 33l51 57q-13 31 -13 77q0 155 75 256t184 101q69 0 107 -40l36 40l36 -32l-44 -50q15 -38 15 -84q0 -149 -72 -253.5t-178 -104.5q-78 0 -119 46zM393 370l-253 -284q23 -42 81 -42q70 0 122 89.5t52 206.5q0 10 -2 30zM124 140l252 283
q-24 33 -77 33q-70 0 -123.5 -85.5t-53.5 -197.5q0 -23 2 -33zM320 572l89 148h75l-4 -19l-121 -129h-39z" />
    <glyph glyph-name="Scommaaccent" unicode="&#x218;" horiz-adv-x="504" 
d="M396 178q0 35 -18.5 64t-47.5 47l-61 41q-32 23 -60.5 45t-47 59t-18.5 83q0 99 68 147t177 48q114 0 171 -31l-34 -61q-54 30 -154 30q-71 0 -113.5 -33.5t-42.5 -91.5q0 -32 14 -57.5t36.5 -44t49.5 -35.5t53.5 -35.5t49 -40t36.5 -54t14 -72.5q0 -93 -69 -145.5
t-198 -52.5q-117 0 -180 36l36 64q63 -38 156 -38q75 0 129 30t54 98zM138 -103q0 19 16 32t36 13q45 0 45 -53q0 -47 -33.5 -82.5t-62.5 -45.5l-18 28q50 25 57 70q-40 -1 -40 38z" />
    <glyph glyph-name="scommaaccent" unicode="&#x219;" horiz-adv-x="398" 
d="M267 140q0 25 -13.5 46t-33.5 34l-44 29q-24 16 -44 31.5t-33.5 41.5t-13.5 58q0 55 51 93.5t125 38.5q80 0 129 -27l-23 -52q-40 23 -110 23q-46 0 -75 -19.5t-29 -56.5q0 -29 28.5 -54.5t62.5 -43.5t62.5 -53t28.5 -82q0 -76 -51.5 -117.5t-140.5 -41.5q-88 0 -139 32
l25 55q47 -31 121 -31q54 0 85.5 24t31.5 72zM79 -103q0 19 16 32t36 13q45 0 45 -53q0 -47 -33.5 -82.5t-62.5 -45.5l-18 28q50 25 57 70q-40 -1 -40 38z" />
    <glyph glyph-name="Tcommaaccent" unicode="&#x21a;" horiz-adv-x="524" 
d="M612 700l-13 -64h-209l-135 -636h-68l135 636h-209l13 64h486zM149 -103q0 19 16 32t36 13q45 0 45 -53q0 -47 -33.5 -82.5t-62.5 -45.5l-18 28q50 25 57 70q-40 -1 -40 38z" />
    <glyph glyph-name="tcommaaccent" unicode="&#x21b;" horiz-adv-x="311" 
d="M60 444l13 56h76l21 100l69 20l-25 -120h133l-13 -56h-133l-67 -318q-5 -25 -5 -38q0 -44 46 -44q44 0 88 25v-54q-50 -27 -114 -27q-88 0 -88 81q0 16 5 41l70 334h-76zM62 -103q0 19 16 32t36 13q45 0 45 -53q0 -47 -33.5 -82.5t-62.5 -45.5l-18 28q50 25 57 70
q-40 -1 -40 38z" />
    <glyph glyph-name="uni0237" unicode="&#x237;" horiz-adv-x="250" 
d="M47 0l106 500h65l-112 -528q-20 -94 -61.5 -137t-111.5 -43q-16 0 -25 1l13 55q57 0 82 34t44 118z" />
    <glyph glyph-name="uni0259" unicode="&#x259;" horiz-adv-x="483" 
d="M126 414l-19 50q67 48 167 48q88 0 130.5 -51t42.5 -119q0 -161 -71 -257.5t-195 -96.5q-61 0 -103 36.5t-42 87.5q0 49 17.5 82.5t50.5 51.5t73 25.5t94 7.5q65 0 107 -7q5 33 5 54q0 66 -35 98t-88 32q-71 0 -134 -42zM196 44q56 0 102 44.5t66 127.5q-63 9 -101 9
q-41 0 -73.5 -7.5t-59 -31t-26.5 -62.5q0 -33 23 -56.5t69 -23.5z" />
    <glyph glyph-name="afii57929" unicode="&#x2bc;" horiz-adv-x="179" 
d="M178 662q1 20 17 33t33 13q28 0 38.5 -13.5t10.5 -42.5q-1 -56 -36.5 -93.5t-69.5 -50.5l-15 30q55 28 62 80q-42 2 -40 44z" />
    <glyph glyph-name="circumflex" unicode="&#x2c6;" horiz-adv-x="431" 
d="M306 550l156 182h19l66 -182h-56l-24 66l-7 60l-35 -60l-57 -66h-62z" />
    <glyph glyph-name="caron" unicode="&#x2c7;" horiz-adv-x="431" 
d="M587 732l-156 -182h-23l-71 182h65l23 -66l8 -60l35 60l56 66h63z" />
    <glyph glyph-name="breve" unicode="&#x2d8;" horiz-adv-x="285" 
d="M279 699l44 21q19 -81 80 -81q76 0 127 81l32 -16q-16 -51 -64 -90t-101 -39q-51 0 -84 34t-34 90z" />
    <glyph glyph-name="dotaccent" unicode="&#x2d9;" horiz-adv-x="266" 
d="M313 656q0 21 14 36t35 15t35.5 -15t14.5 -36t-14.5 -36t-35.5 -15t-35 15t-14 36z" />
    <glyph glyph-name="ring" unicode="&#x2da;" horiz-adv-x="401" 
d="M397 642q0 41 26 65.5t68 24.5t68.5 -23t26.5 -67q0 -39 -27.5 -64t-67.5 -25q-41 0 -67.5 23.5t-26.5 65.5zM447 642q0 -19 13.5 -31.5t30.5 -12.5q20 0 32.5 11t12.5 33q0 21 -13 33t-32 12t-31.5 -11.5t-12.5 -33.5z" />
    <glyph glyph-name="ogonek" unicode="&#x2db;" horiz-adv-x="382" 
d="M370 10h42q-96 -45 -96 -111q0 -41 41 -41q15 0 42 8v-39q-31 -21 -80 -21q-33 0 -54 18t-21 54q0 46 37.5 81.5t88.5 50.5z" />
    <glyph glyph-name="tilde" unicode="&#x2dc;" horiz-adv-x="349" 
d="M344 619l-15 36q56 56 95 56q19 0 47 -19t45 -19q23 0 51 23l17 -37q-50 -50 -85 -50q-19 0 -47.5 19t-46.5 19q-26 0 -61 -28z" />
    <glyph glyph-name="hungarumlaut" unicode="&#x2dd;" horiz-adv-x="475" 
d="M358 571l60 129h65l-3 -16l-90 -113h-32zM453 571l97 129h73l-3 -16l-131 -113h-36z" />
    <glyph glyph-name="gravecomb" unicode="&#x300;" horiz-adv-x="0" 
d="M-195 720l30 -148h-37l-79 129l4 19h82z" />
    <glyph glyph-name="acutecomb" unicode="&#x301;" horiz-adv-x="2" 
d="M-152 572l89 148h75l-4 -19l-121 -129h-39z" />
    <glyph glyph-name="uni0394" unicode="&#x394;" horiz-adv-x="564" 
d="M554 0h-539v30l256 682h24l259 -682v-30zM251 486l-156 -424h374l-165 426l-24 107h-1z" />
    <glyph glyph-name="uni0394" unicode="&#x2206;" horiz-adv-x="564" 
d="M554 0h-539v30l256 682h24l259 -682v-30zM251 486l-156 -424h374l-165 426l-24 107h-1z" />
    <glyph glyph-name="uni03A9" unicode="&#x3a9;" horiz-adv-x="807" 
d="M94 0v62h118l96 -10v26l-55 10q-69 32 -114 108t-45 175q0 158 87 249.5t236 91.5q153 0 238.5 -95t85.5 -250q0 -99 -47 -171t-110 -107l-59 -11v-26l98 10h118v-62h-284v108q34 6 67.5 23t66.5 46.5t53.5 81t20.5 115.5q0 52 -14.5 99.5t-43.5 88t-78.5 64.5t-112.5 24
q-119 0 -182.5 -72t-63.5 -207q0 -121 62.5 -185.5t144.5 -77.5v-108h-283z" />
    <glyph glyph-name="uni03A9" unicode="&#x2126;" horiz-adv-x="807" 
d="M94 0v62h118l96 -10v26l-55 10q-69 32 -114 108t-45 175q0 158 87 249.5t236 91.5q153 0 238.5 -95t85.5 -250q0 -99 -47 -171t-110 -107l-59 -11v-26l98 10h118v-62h-284v108q34 6 67.5 23t66.5 46.5t53.5 81t20.5 115.5q0 52 -14.5 99.5t-43.5 88t-78.5 64.5t-112.5 24
q-119 0 -182.5 -72t-63.5 -207q0 -121 62.5 -185.5t144.5 -77.5v-108h-283z" />
    <glyph glyph-name="pi" unicode="&#x3c0;" horiz-adv-x="624" 
d="M515 438l-71 -331q-11 -50 20 -50q19 0 43 6l8 -46q-53 -20 -85 -20q-58 0 -58 56q0 18 7 53l71 332h-192l-93 -438h-64l93 438h-14q-32 0 -68 -44l-40 28q28 40 58 59t77 19h400l-13 -62h-79z" />
    <glyph glyph-name="afii10023" unicode="&#x401;" horiz-adv-x="512" 
d="M45 0l148 700h355l-13 -62h-287l-52 -246h263l-13 -62h-263l-57 -268h292l-13 -62h-360zM247 793q0 19 13 32t33 13t33 -13t13 -32q0 -18 -13 -31t-33 -13t-33 13t-13 31zM425 793q0 19 13 32t33 13t33 -13t13 -32q0 -18 -13 -31t-33 -13t-33 13t-13 31z" />
    <glyph glyph-name="afii10051" unicode="&#x402;" horiz-adv-x="690" 
d="M328 348l-73 -348h-68l135 636h-209l13 64h486l-13 -64h-209l-48 -225q63 21 130 21q90 0 132 -46.5t42 -120.5q0 -122 -72 -197.5t-200 -75.5q-60 0 -73 3l14 62q26 -3 67 -3q89 0 140.5 58t51.5 143q0 115 -128 115q-48 0 -118 -22z" />
    <glyph glyph-name="afii10052" unicode="&#x403;" horiz-adv-x="416" 
d="M542 700l-13 -64h-281l-135 -636h-68l148 700h349zM301 752l140 118h106l-4 -19l-176 -99h-66z" />
    <glyph glyph-name="afii10053" unicode="&#x404;" horiz-adv-x="555" 
d="M482 87l7 -58q-61 -41 -169 -41q-112 0 -179 80.5t-67 205.5q0 108 33 194t87.5 138t120 79t135.5 27q100 0 160 -27l-32 -63q-47 26 -139 26q-97 0 -175.5 -68.5t-105.5 -186.5h306l-14 -64h-302q-2 -30 -2 -47q0 -102 51 -166t140 -64q86 0 145 35z" />
    <glyph glyph-name="afii10054" unicode="&#x405;" horiz-adv-x="504" 
d="M396 178q0 35 -18.5 64t-47.5 47l-61 41q-32 23 -60.5 45t-47 59t-18.5 83q0 99 68 147t177 48q114 0 171 -31l-34 -61q-54 30 -154 30q-71 0 -113.5 -33.5t-42.5 -91.5q0 -32 14 -57.5t36.5 -44t49.5 -35.5t53.5 -35.5t49 -40t36.5 -54t14 -72.5q0 -93 -69 -145.5
t-198 -52.5q-117 0 -180 36l36 64q63 -38 156 -38q75 0 129 30t54 98z" />
    <glyph glyph-name="afii10055" unicode="&#x406;" horiz-adv-x="277" 
d="M69 0l148 700h68l-148 -700h-68z" />
    <glyph glyph-name="afii10056" unicode="&#x407;" horiz-adv-x="277" 
d="M160 793q0 19 13 32t33 13t33 -13t13 -32q0 -18 -13 -31t-33 -13t-33 13t-13 31zM281 793q0 19 13 32t33 13t33 -13t13 -32q0 -18 -13 -31t-33 -13t-33 13t-13 31zM69 0l148 700h68l-148 -700h-68z" />
    <glyph glyph-name="afii10057" unicode="&#x408;" horiz-adv-x="268" 
d="M105 163l114 537h68l-117 -553q-18 -83 -54 -119.5t-109 -36.5q-48 0 -70 14l25 62q19 -12 54 -12q39 0 58 26t31 82z" />
    <glyph glyph-name="afii10058" unicode="&#x409;" horiz-adv-x="879" 
d="M400 7l133 629h-208q-94 -405 -179 -546q-56 -94 -132 -94q-37 0 -54 8l24 62q14 -4 20 -4q43 -2 82 59q96 150 186 579h343l-58 -276q35 8 91 8q92 0 151 -43t59 -136q0 -128 -85.5 -194.5t-222.5 -66.5q-95 0 -150 15zM543 361l-63 -301q26 -6 86 -6q94 0 157 48.5
t63 145.5q0 60 -41 91t-112 31q-56 0 -90 -9z" />
    <glyph glyph-name="afii10059" unicode="&#x40a;" horiz-adv-x="929" 
d="M450 7l71 335h-335l-73 -342h-68l148 700h68l-62 -294h335l63 294h68l-62 -296q36 8 96 8q94 0 151.5 -44t57.5 -129q0 -122 -80.5 -184.5t-229.5 -62.5q-93 0 -148 15zM589 341l-59 -281q19 -6 85 -6q112 0 166.5 47.5t54.5 132.5q0 63 -40.5 89.5t-114.5 26.5
q-61 0 -92 -9z" />
    <glyph glyph-name="afii10060" unicode="&#x40b;" horiz-adv-x="709" 
d="M324 326l-69 -326h-68l134 636h-208l13 64h486l-13 -64h-210l-51 -242q82 46 169 46q67 0 108 -35.5t41 -107.5q0 -30 -7 -61l-49 -236h-68l48 227q6 30 6 54q0 95 -99 95q-79 0 -163 -50z" />
    <glyph glyph-name="afii10061" unicode="&#x40c;" horiz-adv-x="572" 
d="M420 0l-185 329h-53l-69 -329h-68l148 700h68l-70 -329l41 14l298 315h87l-293 -306l-44 -30l38 -40l180 -324h-78zM326 752l140 118h106l-4 -19l-176 -99h-66z" />
    <glyph glyph-name="afii10062" unicode="&#x40e;" horiz-adv-x="522" 
d="M192 700l97 -382l7 -89h4l39 92l214 379h76l-262 -449q-92 -158 -134 -207t-98 -49q-47 0 -81 22l35 60q28 -18 56 -18q24 0 49.5 32t60.5 94l-135 515h72zM239 849l59 20q0 -38 19.5 -60t53.5 -22q86 0 112 81l63 -17q-18 -53 -64.5 -84.5t-113.5 -31.5q-62 0 -94.5 32
t-34.5 82z" />
    <glyph glyph-name="afii10145" unicode="&#x40f;" horiz-adv-x="630" 
d="M248 0h-203l148 700h68l-135 -636h323l135 636h68l-148 -700h-201l-34 -180h-65z" />
    <glyph glyph-name="afii10017" unicode="&#x410;" horiz-adv-x="552" 
d="M437 0l-29 203h-253l-114 -203h-73l407 712h24l104 -712h-66zM319 490l-129 -225h209l-32 227l-2 105h-1z" />
    <glyph glyph-name="afii10018" unicode="&#x411;" horiz-adv-x="519" 
d="M45 7l146 693h350l-13 -64h-282l-48 -223q50 9 88 9q97 0 151 -44.5t54 -126.5q0 -71 -27 -124t-71.5 -81t-93.5 -41t-102 -13q-97 0 -152 15zM220 54q81 0 140 47t59 140q0 119 -149 119q-54 0 -85 -9l-61 -291q20 -6 96 -6z" />
    <glyph glyph-name="afii10019" unicode="&#x412;" horiz-adv-x="554" 
d="M556 553q0 -79 -45.5 -128t-117.5 -59v-4q48 -9 79.5 -46t31.5 -88q0 -55 -18.5 -97.5t-47.5 -68t-69 -42t-78 -22.5t-80 -6q-118 0 -166 13l146 689q86 14 184 14q76 0 128.5 -40t52.5 -115zM232 54q83 0 141.5 40.5t58.5 122.5q0 109 -179 109h-72l-56 -264
q27 -8 107 -8zM194 386h54q54 0 83 4q153 31 153 152q0 104 -130 104q-80 0 -107 -6z" />
    <glyph glyph-name="afii10020" unicode="&#x413;" horiz-adv-x="416" 
d="M542 700l-13 -64h-281l-135 -636h-68l148 700h349z" />
    <glyph glyph-name="afii10021" unicode="&#x414;" horiz-adv-x="631" 
d="M574 64l-41 -194h-46l13 130h-475l-42 -130h-46l40 194h67q16 18 37.5 53.5t57.5 108.5t72.5 198t63.5 276h346l-135 -636h88zM122 64h296l121 572h-211q-93 -414 -206 -572z" />
    <glyph glyph-name="afii10022" unicode="&#x415;" horiz-adv-x="512" 
d="M45 0l148 700h355l-13 -62h-287l-52 -246h263l-13 -62h-263l-57 -268h292l-13 -62h-360z" />
    <glyph glyph-name="afii10024" unicode="&#x416;" horiz-adv-x="759" 
d="M380 383l67 317h65l-70 -329l38 14l270 315h84l-264 -303l-45 -32l39 -40l151 -325h-77l-154 329h-51l-69 -329h-65l72 341l-37 -14l-291 -327h-87l284 315l52 37l-34 35l-141 313h77l136 -317h50z" />
    <glyph glyph-name="afii10025" unicode="&#x417;" horiz-adv-x="517" 
d="M227 336h-58l13 60h13q33 0 86 5q67 8 117 45t50 104q0 47 -33.5 73.5t-90.5 26.5q-72 0 -148 -24l-8 54q74 32 174 32q78 0 128 -37.5t50 -106.5q0 -84 -49 -132.5t-119 -58.5v-4q50 -11 84 -47.5t34 -106.5q0 -64 -27 -111t-72 -72t-94 -36.5t-102 -11.5
q-109 0 -164 24l31 63q43 -25 150 -25q83 0 144.5 41.5t61.5 127.5q0 104 -126 116q-14 1 -45 1z" />
    <glyph glyph-name="afii10026" unicode="&#x418;" horiz-adv-x="650" 
d="M456 0l103 488l22 78h-3l-58 -81l-435 -485h-40l148 700h68l-105 -498l-23 -73h4l57 78l438 493h40l-148 -700h-68z" />
    <glyph glyph-name="afii10027" unicode="&#x419;" horiz-adv-x="650" 
d="M456 0l103 488l22 78h-3l-58 -81l-435 -485h-40l148 700h68l-105 -498l-23 -73h4l57 78l438 493h40l-148 -700h-68zM321 849l59 20q0 -38 19.5 -60t53.5 -22q86 0 112 81l63 -17q-18 -53 -64.5 -84.5t-113.5 -31.5q-62 0 -94.5 32t-34.5 82z" />
    <glyph glyph-name="afii10028" unicode="&#x41a;" horiz-adv-x="572" 
d="M420 0l-185 329h-53l-69 -329h-68l148 700h68l-70 -329l41 14l298 315h87l-293 -306l-44 -30l38 -40l180 -324h-78z" />
    <glyph glyph-name="afii10029" unicode="&#x41b;" horiz-adv-x="593" 
d="M399 0l135 636h-209q-94 -405 -179 -546q-56 -94 -132 -94q-37 0 -54 8l24 62q14 -4 20 -4h2q42 0 80 59q96 150 186 579h343l-148 -700h-68z" />
    <glyph glyph-name="afii10030" unicode="&#x41c;" horiz-adv-x="750" 
d="M556 0l105 494l28 97h-4l-54 -92l-250 -328h-20l-120 328l-14 92h-4l-8 -96l-105 -495h-65l148 700h43l135 -367l15 -77h1l46 79l281 365h58l-148 -700h-68z" />
    <glyph glyph-name="afii10031" unicode="&#x41d;" horiz-adv-x="642" 
d="M448 0l69 327h-335l-69 -327h-68l148 700h68l-65 -309h335l65 309h68l-148 -700h-68z" />
    <glyph glyph-name="afii10032" unicode="&#x41e;" horiz-adv-x="653" 
d="M76 255q-1 123 42.5 226.5t125 167t185.5 63.5q101 0 159.5 -62.5t58.5 -200.5q0 -125 -42.5 -230t-120 -168t-174.5 -63q-232 0 -234 267zM148 255q-1 -98 41.5 -151.5t120.5 -53.5q114 0 189.5 116t75.5 281q0 203 -160 203q-115 0 -190 -116t-77 -279z" />
    <glyph glyph-name="afii10033" unicode="&#x41f;" horiz-adv-x="630" 
d="M436 0l135 636h-323l-135 -636h-68l148 700h459l-148 -700h-68z" />
    <glyph glyph-name="afii10034" unicode="&#x420;" horiz-adv-x="528" 
d="M45 0l146 693q61 15 158 15q96 0 154 -43.5t58 -134.5q0 -72 -27 -125t-73.5 -82t-99 -42t-113.5 -13t-78 4l-57 -272h-68zM332 646q-56 0 -84 -6l-64 -305q15 -5 73 -5q48 0 88 10t73 31.5t52 60.5t19 92q0 122 -157 122z" />
    <glyph glyph-name="afii10035" unicode="&#x421;" horiz-adv-x="545" 
d="M472 87l7 -58q-61 -41 -159 -41q-112 0 -179 80.5t-67 205.5q0 108 33 194t87.5 138t120 79t135.5 27q90 0 150 -27l-32 -63q-47 26 -129 26q-121 0 -207 -101t-86 -265q0 -102 51 -166t140 -64q76 0 135 35z" />
    <glyph glyph-name="afii10036" unicode="&#x422;" horiz-adv-x="524" 
d="M612 700l-13 -64h-209l-135 -636h-68l135 636h-209l13 64h486z" />
    <glyph glyph-name="afii10037" unicode="&#x423;" horiz-adv-x="522" 
d="M192 700l97 -382l7 -89h4l39 92l214 379h76l-262 -449q-92 -158 -134 -207t-98 -49q-47 0 -81 22l35 60q28 -18 56 -18q24 0 49.5 32t60.5 94l-135 515h72z" />
    <glyph glyph-name="afii10038" unicode="&#x424;" horiz-adv-x="736" 
d="M291 -20l21 101q-37 -8 -73 -8q-29 0 -56.5 9.5t-55 31.5t-44.5 65t-17 103q0 161 82 258.5t221 97.5q35 0 61 -4l19 86h65l-19 -89q29 7 72 7q78 0 126 -49t48 -153q0 -171 -86 -267t-210 -96q-43 0 -67 7l-22 -100h-65zM550 578q-46 0 -68 -7l-92 -435q13 -3 57 -3
q105 0 163.5 87.5t58.5 206.5q0 151 -119 151zM259 133q46 0 66 6l92 435q-21 4 -60 4q-98 0 -158.5 -82.5t-60.5 -211.5q0 -79 35.5 -115t85.5 -36z" />
    <glyph glyph-name="afii10039" unicode="&#x425;" horiz-adv-x="584" 
d="M-3 0l300 358l-134 342h76l90 -245l13 -54l34 54l201 245h83l-283 -339l145 -361h-75l-101 259l-15 57l-37 -57l-214 -259h-83z" />
    <glyph glyph-name="afii10040" unicode="&#x426;" horiz-adv-x="654" 
d="M597 64l-41 -194h-46l13 130h-478l148 700h68l-135 -636h315l135 636h68l-135 -636h88z" />
    <glyph glyph-name="afii10041" unicode="&#x427;" horiz-adv-x="575" 
d="M184 700h68l-48 -227q-6 -30 -6 -53q0 -96 97 -96q98 0 165 50l69 326h68l-148 -700h-68l65 306q-82 -46 -169 -46q-65 0 -107 34t-42 108q0 31 7 63z" />
    <glyph glyph-name="afii10042" unicode="&#x428;" horiz-adv-x="835" 
d="M709 0h-664l148 700h68l-135 -636h230l135 636h68l-135 -636h230l135 636h68z" />
    <glyph glyph-name="afii10043" unicode="&#x429;" horiz-adv-x="867" 
d="M736 0h-691l148 700h68l-135 -636h230l135 636h68l-135 -636h230l135 636h68l-135 -636h88l-41 -194h-46z" />
    <glyph glyph-name="afii10044" unicode="&#x42a;" horiz-adv-x="591" 
d="M112 7l133 629h-151l13 64h220l-59 -276q37 8 93 8q90 0 149.5 -42.5t59.5 -135.5q0 -131 -86 -196.5t-223 -65.5q-94 0 -149 15zM277 54q98 0 159.5 50.5t61.5 142.5q0 65 -42.5 94t-110.5 29q-57 0 -91 -9l-63 -301q22 -6 86 -6z" />
    <glyph glyph-name="afii10045" unicode="&#x42b;" horiz-adv-x="724" 
d="M530 0l148 700h68l-148 -700h-68zM45 7l147 693h68l-58 -276q44 8 86 8q84 0 138 -44t54 -129q0 -70 -26 -123.5t-70 -84t-95.5 -45t-109.5 -14.5q-79 0 -134 15zM198 54q87 0 148.5 52t61.5 146q0 118 -145 118q-43 0 -75 -9l-63 -301q24 -6 73 -6z" />
    <glyph glyph-name="afii10046" unicode="&#x42c;" horiz-adv-x="524" 
d="M45 7l147 693h68l-58 -276q35 8 91 8q92 0 151 -43t59 -136q0 -128 -85.5 -194.5t-222.5 -66.5q-95 0 -150 15zM211 54q94 0 157 48.5t63 145.5q0 60 -41 91t-112 31q-58 0 -90 -9l-63 -301q25 -6 86 -6z" />
    <glyph glyph-name="afii10047" unicode="&#x42d;" horiz-adv-x="553" 
d="M183 326l13 62h283q2 18 2 52q0 210 -186 210q-77 0 -136 -32l-7 56q71 38 160 38q68 0 117 -23.5t74 -63.5t35.5 -82.5t10.5 -90.5q0 -99 -23.5 -182t-70 -146.5t-122.5 -99.5t-174 -36q-88 0 -143 24l32 63q46 -25 125 -25q109 0 192 72.5t105 203.5h-287z" />
    <glyph glyph-name="afii10048" unicode="&#x42e;" horiz-adv-x="860" 
d="M261 700l-65 -309h124q47 162 130 241.5t191 79.5q100 0 156 -57t56 -172q0 -134 -40.5 -245.5t-121 -180.5t-186.5 -69q-101 0 -150 66.5t-49 179.5q0 48 7 93h-131l-69 -327h-68l148 700h68zM377 229q0 -79 35 -129t113 -50q108 0 182 124.5t74 297.5q0 82 -36.5 130
t-103.5 48q-116 0 -190 -122.5t-74 -298.5z" />
    <glyph glyph-name="afii10049" unicode="&#x42f;" horiz-adv-x="539" 
d="M561 693l-147 -693h-68l66 310l-103 -21l-235 -289h-83l204 254l66 45q-48 14 -86 56.5t-38 115.5q0 65 25.5 113t68 74t90.5 38t102 12q83 0 138 -15zM409 646q-39 0 -72.5 -8.5t-63.5 -27.5t-47 -53t-17 -81q0 -58 37.5 -92t104.5 -34h69l62 290q-20 6 -73 6z" />
    <glyph glyph-name="afii10065" unicode="&#x430;" horiz-adv-x="483" 
d="M471 489l-64 -293q-14 -66 -14 -141q0 -33 3 -57h-49l-14 87h-4q-29 -40 -72 -68.5t-92 -28.5q-117 0 -117 155q0 65 16.5 128t48.5 118.5t88 89.5t128 34q63 0 142 -24zM182 44q45 0 88.5 38.5t66.5 81.5l58 278q-30 15 -81 15q-62 0 -108.5 -48.5t-68 -119.5
t-21.5 -151q0 -42 17 -68t49 -26z" />
    <glyph glyph-name="afii10066" unicode="&#x431;" horiz-adv-x="498" 
d="M142 380h7q79 120 198 120q126 0 126 -147q0 -162 -76 -263.5t-180 -101.5q-80 0 -116.5 51t-36.5 130q0 211 73 355t183 163q41 7 96 12.5t83.5 10.5t40.5 15v-61q-35 -25 -166 -35q-39 -3 -67.5 -13t-60 -34.5t-57.5 -75t-47 -126.5zM132 182q0 -65 20 -99.5t79 -34.5
q66 0 120 83t54 208q0 101 -85 101q-71 0 -129.5 -78t-58.5 -180z" />
    <glyph glyph-name="afii10067" unicode="&#x432;" horiz-adv-x="454" 
d="M64 246l8 38q50 223 234 223q69 0 96.5 -24t27.5 -68q0 -53 -35 -93t-94 -56l-1 -4q48 -1 75 -23.5t27 -58.5q0 -88 -65 -137.5t-155 -49.5q-132 0 -132 143q0 43 14 110zM123 225l-1 -8q-10 -50 -10 -78q0 -90 83 -90q58 0 98.5 32t40.5 90q0 32 -32 48.5t-97 11.5z
M134 278l94 9q42 4 89 33t47 74q0 30 -15.5 43.5t-55.5 13.5q-117 0 -153 -149z" />
    <glyph glyph-name="afii10068" unicode="&#x433;" horiz-adv-x="411" 
d="M30 120q0 53 30 89t73.5 54t86.5 33t73 38t30 56t-19 46.5t-65 13.5q-57 0 -113 -27l-16 52q58 31 145 31q136 0 136 -108q0 -53 -30 -87.5t-73.5 -51t-86.5 -31t-73 -39t-30 -63.5q0 -37 24.5 -59.5t62.5 -22.5q35 0 72 13t60 29l18 -42q-30 -25 -73 -40.5t-79 -15.5
q-46 0 -79 13.5t-47.5 36t-20.5 42t-6 40.5z" />
    <glyph glyph-name="afii10069" unicode="&#x434;" horiz-adv-x="494" 
d="M308 506q57 0 90 -24h5q-5 79 -56.5 127t-137.5 47l13 56q56 0 99.5 -15t71 -40t45.5 -61.5t25 -75.5t7 -85q0 -203 -74.5 -325t-189.5 -122q-76 0 -114 48.5t-38 137.5q0 132 70.5 232t183.5 100zM299 450q-68 0 -122.5 -82t-54.5 -203q0 -55 23 -88t68 -33q49 0 87 36
t59.5 93t32 117.5t10.5 118.5q-33 41 -103 41z" />
    <glyph glyph-name="afii10070" unicode="&#x435;" horiz-adv-x="463" 
d="M363 90l23 -41q-71 -61 -174 -61q-78 0 -118 45t-40 128q0 157 79 254t183 97q67 0 101 -33.5t34 -83.5q0 -70 -68 -109.5t-196 -39.5q-19 0 -59 2q-8 -37 -8 -72q0 -60 26 -96t78 -36q83 0 139 46zM305 456q-120 0 -164 -157h29q42 0 71.5 2.5t66 11t56 29t19.5 52.5
q0 25 -18 43.5t-60 18.5z" />
    <glyph glyph-name="afii10072" unicode="&#x436;" horiz-adv-x="692" 
d="M316 229h-97q-34 -130 -81.5 -182t-107.5 -52q-19 0 -42 5l17 60q11 -3 22 -3q96 -2 135 195q12 62 12 100q0 92 -63 94q-6 0 -22 -2l-8 56q30 4 41 4q110 0 110 -136q0 -34 -8 -87h102l47 219h64l-47 -219h95q34 123 79.5 173t102.5 50q21 0 37 -4l-15 -58q-12 2 -17 2
q-41 1 -70.5 -38t-54.5 -137q-14 -53 -14 -101q0 -53 16.5 -86t50.5 -33q10 0 27 5l10 -54q-27 -7 -52 -7q-114 0 -114 159q0 40 6 77h-98l-48 -229h-64z" />
    <glyph glyph-name="afii10073" unicode="&#x437;" horiz-adv-x="420" 
d="M181 228h-57l12 56h68q37 0 77.5 33.5t40.5 72.5q0 34 -21.5 47t-74.5 13q-57 0 -113 -27l-16 52q58 31 155 31q138 0 138 -102q0 -50 -32.5 -85.5t-79.5 -50.5v-4q79 -12 79 -88q0 -85 -64.5 -134.5t-161.5 -49.5q-83 0 -131 34l29 53q47 -31 115 -31q62 0 103.5 32
t41.5 85q0 63 -108 63z" />
    <glyph glyph-name="afii10074" unicode="&#x438;" horiz-adv-x="511" 
d="M143 500h65l-72 -339q-6 -27 -6 -50q0 -67 54 -67q48 0 98 41.5t80 94.5l67 320h64l-63 -297q-27 -129 -24 -203h-49v96h-4q-34 -45 -82.5 -76.5t-103.5 -31.5q-103 0 -103 108q0 35 10 78z" />
    <glyph glyph-name="afii10075" unicode="&#x439;" horiz-adv-x="511" 
d="M143 500h65l-72 -339q-6 -27 -6 -50q0 -67 54 -67q48 0 98 41.5t80 94.5l67 320h64l-63 -297q-27 -129 -24 -203h-49v96h-4q-34 -45 -82.5 -76.5t-103.5 -31.5q-103 0 -103 108q0 35 10 78zM205 678l61 23q-1 -84 73 -84q75 0 109 83l46 -17q-19 -55 -65 -86.5
t-102 -31.5q-54 0 -89.5 29t-32.5 84z" />
    <glyph glyph-name="afii10076" unicode="&#x43a;" horiz-adv-x="462" 
d="M330 0l-122 229h-56l-48 -229h-64l106 500h64l-49 -229l42 13l197 216h80l-191 -203l-44 -32l39 -40l119 -225h-73z" />
    <glyph glyph-name="afii10077" unicode="&#x43b;" horiz-adv-x="487" 
d="M298 0l95 444h-143l-29 -118q-11 -45 -26.5 -98t-28 -84t-29.5 -63t-34 -48t-38.5 -26.5t-46.5 -10.5q-32 0 -48 8l20 56q14 -2 20 -2q33 -1 57 28.5t56.5 126.5t77.5 287h268l-106 -500h-65z" />
    <glyph glyph-name="afii10078" unicode="&#x43c;" horiz-adv-x="617" 
d="M428 0l66 312l25 93h-4l-50 -75l-164 -205h-22l-81 205l-14 75h-4l-13 -92l-66 -313h-61l106 500h57l88 -232l16 -57h1l42 59l178 230h71l-106 -500h-65z" />
    <glyph glyph-name="afii10079" unicode="&#x43d;" horiz-adv-x="522" 
d="M334 0l48 226h-230l-48 -226h-64l106 500h64l-45 -212h230l45 212h64l-106 -500h-64z" />
    <glyph glyph-name="afii10080" unicode="&#x43e;" horiz-adv-x="499" 
d="M54 155q0 155 75 256t184 101q77 0 113.5 -46.5t36.5 -119.5q0 -149 -72 -253.5t-178 -104.5q-82 0 -120.5 48.5t-38.5 118.5zM122 173q0 -129 99 -129q70 0 122 89.5t52 206.5q0 57 -22 86.5t-74 29.5q-70 0 -123.5 -85.5t-53.5 -197.5z" />
    <glyph glyph-name="afii10081" unicode="&#x43f;" horiz-adv-x="522" 
d="M391 0h-64l67 317q10 52 10 71q0 68 -69 68q-51 0 -100 -40.5t-76 -91.5l-67 -324h-64l106 500h43l-4 -85h4q81 97 183 97q110 0 110 -109q0 -31 -9 -73z" />
    <glyph glyph-name="afii10082" unicode="&#x440;" horiz-adv-x="508" 
d="M0 -200l149 700h43l-5 -85h4q78 97 170 97q52 0 84.5 -35t32.5 -116q0 -168 -84 -270.5t-186 -102.5q-72 0 -100 21l-44 -209h-64zM341 456q-53 0 -97 -45t-72 -100l-50 -243q33 -24 78 -24q85 0 147.5 87t62.5 228q0 43 -18 70t-51 27z" />
    <glyph glyph-name="afii10083" unicode="&#x441;" horiz-adv-x="422" 
d="M346 86l18 -42q-30 -25 -73 -40.5t-79 -15.5q-47 0 -80 15.5t-49 41t-22.5 50.5t-6.5 51q0 163 81.5 264.5t193.5 101.5q49 0 103 -22l-24 -54q-34 20 -99 20q-71 0 -129 -87t-58 -194q0 -66 27.5 -98.5t76.5 -32.5q60 0 120 42z" />
    <glyph glyph-name="afii10084" unicode="&#x442;" horiz-adv-x="762" 
d="M375 0h-65l60 285q17 82 17 115q0 56 -46 56q-47 0 -94.5 -43t-75.5 -90l-67 -323h-64l106 500h43l-6 -85h4q31 30 50 46t57 33.5t77 17.5q44 0 60 -26.5t16 -79.5q33 43 82.5 74.5t97.5 31.5t71.5 -22.5t23.5 -78.5q0 -42 -15 -111l-63 -300h-65l64 305q15 73 15 94
q0 57 -51 57q-42 0 -92.5 -46t-73.5 -93z" />
    <glyph glyph-name="afii10085" unicode="&#x443;" horiz-adv-x="436" 
d="M135 500l53 -333l7 -100h5l42 101l172 332h67l-234 -445l-34 -65l-33 -58q-22 -37 -37 -55.5t-35.5 -41t-40 -31.5t-39.5 -9q-32 0 -48 8l21 60q16 -4 23 -4q31 0 60.5 32.5t68.5 108.5l-84 500h66z" />
    <glyph glyph-name="afii10086" unicode="&#x444;" horiz-adv-x="679" 
d="M221 -200l42 196q-36 -8 -49 -8q-80 0 -122 43.5t-42 116.5q0 165 78.5 262.5t196.5 97.5q26 0 46 -4l41 196h60l-42 -197q30 5 58 5q76 0 117.5 -42.5t41.5 -114.5q0 -175 -81.5 -269t-191.5 -94q-34 0 -52 7l-41 -195h-60zM464 452q-18 0 -46 -7l-84 -396q22 -5 43 -5
q77 0 139.5 79t62.5 222q0 107 -115 107zM223 44q16 0 51 7l84 395q-30 6 -47 6q-69 0 -131 -79.5t-62 -210.5q0 -54 27 -86t78 -32z" />
    <glyph glyph-name="afii10087" unicode="&#x445;" horiz-adv-x="481" 
d="M-18 0l229 256l-111 244h75l62 -145l19 -54l40 54l129 145h80l-216 -240l123 -260h-72l-74 159l-21 57l-41 -57l-141 -159h-81z" />
    <glyph glyph-name="afii10088" unicode="&#x446;" horiz-adv-x="529" 
d="M388 -130l34 130q-71 -1 -71 65q0 14 3 31h-4q-81 -108 -183 -108q-103 0 -103 108q0 35 10 78l69 326h65l-72 -339q-6 -27 -6 -50q0 -67 54 -67q48 0 98 41.5t80 94.5l67 320h64l-77 -360q-7 -31 -7 -52q0 -32 26 -32h55l-49 -186h-53z" />
    <glyph glyph-name="afii10089" unicode="&#x447;" horiz-adv-x="466" 
d="M112 500h65l-30 -141q-9 -38 -9 -57q0 -66 70 -66q74 0 127 39l48 225h65l-106 -500h-65l45 213q-58 -33 -130 -33q-120 0 -120 108q0 26 8 64z" />
    <glyph glyph-name="afii10090" unicode="&#x448;" horiz-adv-x="744" 
d="M401 500h65l-60 -285q-16 -74 -16 -112q0 -59 45 -59q34 0 86 45t74 88l67 323h64l-74 -349q-13 -60 -19 -151h-47l-3 85h-4q-78 -97 -174 -97q-37 0 -56.5 28.5t-19.5 77.5q-82 -106 -174 -106q-46 0 -68.5 22.5t-22.5 77.5q0 43 15 112l63 300h65l-64 -305
q-13 -60 -13 -91q0 -60 41 -60q47 0 93.5 44.5t70.5 94.5z" />
    <glyph glyph-name="afii10091" unicode="&#x449;" horiz-adv-x="762" 
d="M584 96q-73 -108 -179 -108q-37 0 -56.5 28.5t-19.5 77.5q-82 -106 -174 -106q-46 0 -68.5 22.5t-22.5 77.5q0 43 15 112l63 300h65l-64 -305q-13 -60 -13 -91q0 -60 41 -60q47 0 93.5 44.5t70.5 94.5l66 317h65l-60 -285q-16 -74 -16 -112q0 -59 45 -59q34 0 86 45
t74 88l67 323h64l-76 -360q-7 -31 -7 -52q0 -32 26 -32h55l-49 -186h-53l34 130q-71 -1 -71 65q0 14 3 31h-4z" />
    <glyph glyph-name="afii10092" unicode="&#x44a;" horiz-adv-x="467" 
d="M179 234l-24 -103q-4 -16 -4 -32q0 -49 55 -49q67 0 112 40t45 98q0 34 -18.5 51.5t-63.5 17.5q-65 0 -102 -23zM246 500l-54 -206q55 19 110 19q58 0 93.5 -27.5t35.5 -82.5q0 -92 -69.5 -150.5t-174.5 -58.5q-51 0 -76 24.5t-25 67.5q0 16 5 39l77 315h-114l13 60h179z
" />
    <glyph glyph-name="afii10093" unicode="&#x44b;" horiz-adv-x="630" 
d="M159 240l-28 -129q-6 -27 5.5 -44t40.5 -17q64 0 110 40.5t46 101.5q0 36 -18.5 50.5t-72.5 14.5q-44 0 -83 -17zM220 500l-48 -200q48 13 96 13q133 0 133 -107q0 -97 -73 -154.5t-164 -57.5q-100 0 -100 84q0 19 4 35l88 387h64zM441 0l106 500h65l-106 -500h-65z" />
    <glyph glyph-name="afii10094" unicode="&#x44c;" horiz-adv-x="445" 
d="M162 240l-28 -112q-18 -78 61 -78q60 0 103 39.5t43 101.5q0 36 -21 51t-71 15q-34 0 -87 -17zM223 500l-48 -200q59 13 93 13q82 0 111.5 -29t29.5 -80q0 -100 -68 -155t-159 -55q-62 0 -89.5 27.5t-27.5 69.5q0 15 3 29l91 380h64z" />
    <glyph glyph-name="afii10095" unicode="&#x44d;" horiz-adv-x="441" 
d="M114 224l12 56h207q4 30 4 42q1 134 -103 134q-75 0 -127 -34l-19 46q69 44 162 44q78 0 116.5 -44t38.5 -113q0 -100 -22.5 -173.5t-61.5 -114.5t-84.5 -60t-97.5 -19q-99 0 -145 29l30 55q41 -28 114 -28q72 0 122 46t69 134h-215z" />
    <glyph glyph-name="afii10096" unicode="&#x44e;" horiz-adv-x="676" 
d="M263 285q28 105 89 166t143 61q77 0 111 -46t34 -120q0 -148 -72 -253t-173 -105q-146 0 -146 167q0 34 5 74h-102l-48 -229h-64l106 500h64l-45 -215h98zM313 173q0 -65 20 -97t70 -32q66 0 117.5 90t51.5 206q0 58 -19.5 87t-71.5 29q-69 0 -118.5 -85t-49.5 -198z" />
    <glyph glyph-name="afii10097" unicode="&#x44f;" horiz-adv-x="463" 
d="M279 0l44 211l-80 -12l-170 -199h-85l151 174l48 37q-44 7 -70.5 34t-26.5 73q0 89 67.5 141.5t162.5 52.5q69 0 125 -23l-102 -489h-64zM281 251l51 2l42 191q-12 12 -71 12q-64 0 -104.5 -35.5t-40.5 -93.5q0 -81 123 -76z" />
    <glyph glyph-name="afii10071" unicode="&#x451;" horiz-adv-x="463" 
d="M363 90l23 -41q-71 -61 -174 -61q-78 0 -118 45t-40 128q0 157 79 254t183 97q67 0 101 -33.5t34 -83.5q0 -70 -68 -109.5t-196 -39.5q-19 0 -59 2q-8 -37 -8 -72q0 -60 26 -96t78 -36q83 0 139 46zM305 456q-120 0 -164 -157h29q42 0 71.5 2.5t66 11t56 29t19.5 52.5
q0 25 -18 43.5t-60 18.5zM206 634q0 19 11.5 32.5t30.5 13.5t30.5 -13.5t11.5 -32.5t-11.5 -32t-30.5 -13t-30.5 13t-11.5 32zM384 634q0 19 11.5 32.5t30.5 13.5t30.5 -13.5t11.5 -32.5t-11.5 -32t-30.5 -13t-30.5 13t-11.5 32z" />
    <glyph glyph-name="afii10099" unicode="&#x452;" horiz-adv-x="488" 
d="M57 444l11 56h78l42 200h64l-43 -200h153l-11 -56h-154l-37 -174h4q26 26 48 42.5t60 32t78 15.5q50 0 74 -25t24 -80q0 -40 -14 -107l-31 -148q-25 -113 -64.5 -162t-105.5 -49q-13 0 -20 1l13 60q51 0 73 33t40 117l28 133q15 68 15 101q0 70 -61 70
q-49 0 -105.5 -44.5t-78.5 -97.5l-33 -162h-64l94 444h-77z" />
    <glyph glyph-name="afii10100" unicode="&#x453;" horiz-adv-x="411" 
d="M30 120q0 53 30 89t73.5 54t86.5 33t73 38t30 56t-19 46.5t-65 13.5q-57 0 -113 -27l-16 52q58 31 145 31q136 0 136 -108q0 -53 -30 -87.5t-73.5 -51t-86.5 -31t-73 -39t-30 -63.5q0 -37 24.5 -59.5t62.5 -22.5q35 0 72 13t60 29l18 -42q-30 -25 -73 -40.5t-79 -15.5
q-46 0 -79 13.5t-47.5 36t-20.5 42t-6 40.5zM242 572l89 148h75l-4 -19l-121 -129h-39z" />
    <glyph glyph-name="afii10101" unicode="&#x454;" horiz-adv-x="435" 
d="M373 86l16 -44q-68 -54 -165 -54q-80 0 -125 50t-45 126q0 168 84.5 258t201.5 90q59 0 105 -22l-24 -51q-40 17 -88 17q-68 0 -121 -46t-76 -123h234l-13 -56h-233q-2 -15 -2 -47q0 -140 132 -140q59 0 119 42z" />
    <glyph glyph-name="afii10102" unicode="&#x455;" horiz-adv-x="398" 
d="M267 140q0 25 -13.5 46t-33.5 34l-44 29q-24 16 -44 31.5t-33.5 41.5t-13.5 58q0 55 51 93.5t125 38.5q80 0 129 -27l-23 -52q-40 23 -110 23q-46 0 -75 -19.5t-29 -56.5q0 -29 28.5 -54.5t62.5 -43.5t62.5 -53t28.5 -82q0 -76 -51.5 -117.5t-140.5 -41.5q-88 0 -139 32
l25 55q47 -31 121 -31q54 0 85.5 24t31.5 72z" />
    <glyph glyph-name="afii10103" unicode="&#x456;" horiz-adv-x="261" 
d="M60 0l106 500h65l-106 -500h-65zM183 656q0 21 14 36t35 15t35.5 -15t14.5 -36t-14.5 -36t-35.5 -15t-35 15t-14 36z" />
    <glyph glyph-name="afii10104" unicode="&#x457;" horiz-adv-x="252" 
d="M113 655q0 19 11.5 32.5t30.5 13.5t30.5 -13.5t11.5 -32.5t-11.5 -32t-30.5 -13t-30.5 13t-11.5 32zM226 655q0 19 11.5 32.5t30.5 13.5t30.5 -13.5t11.5 -32.5t-11.5 -32t-30.5 -13t-30.5 13t-11.5 32zM40 0l106 500h65l-106 -500h-65z" />
    <glyph glyph-name="afii10105" unicode="&#x458;" horiz-adv-x="250" 
d="M47 0l106 500h65l-112 -528q-20 -94 -61.5 -137t-111.5 -43q-16 0 -25 1l13 55q57 0 82 34t44 118zM169 656q0 21 14 36t35 15t35.5 -15t14.5 -36t-14.5 -36t-35.5 -15t-35 15t-14 36z" />
    <glyph glyph-name="afii10106" unicode="&#x459;" horiz-adv-x="690" 
d="M407 240l-28 -112q-20 -78 61 -78q60 0 103 39.5t43 101.5q0 36 -21 51t-71 15q-34 0 -87 -17zM313 120l74 324h-137l-29 -117q-11 -46 -26.5 -99t-28 -84t-29.5 -63t-34 -48t-38.5 -26.5t-46.5 -10.5q-32 0 -48 8l20 55q31 -5 50.5 4t44.5 52t52 135t64 250h262
l-43 -200q58 13 93 13q82 0 111.5 -29t29.5 -80q0 -100 -68 -155t-159 -55q-73 0 -99 38t-15 88z" />
    <glyph glyph-name="afii10107" unicode="&#x45a;" horiz-adv-x="725" 
d="M494 500l-43 -201q63 14 97 14q82 0 111.5 -29t29.5 -80q0 -100 -68 -155t-159 -55q-61 0 -89 27.5t-28 68.5q0 15 3 30l24 109h-219l-49 -229h-64l106 500h64l-46 -215h219l46 215h65zM442 240l-28 -112q-18 -78 61 -78q60 0 103 39.5t43 101.5q0 36 -21 51t-71 15
q-34 0 -87 -17z" />
    <glyph glyph-name="afii10108" unicode="&#x45b;" horiz-adv-x="487" 
d="M57 444l11 56h78l42 200h64l-43 -200h153l-11 -56h-154l-35 -164h4q82 80 183 80q48 0 73 -24.5t25 -84.5q0 -44 -13 -103l-31 -148h-64l28 133q14 64 14 103q0 35 -13.5 51.5t-45.5 16.5q-57 0 -109 -41.5t-74 -90.5l-35 -172h-64l94 444h-77z" />
    <glyph glyph-name="afii10109" unicode="&#x45c;" horiz-adv-x="462" 
d="M330 0l-122 229h-56l-48 -229h-64l106 500h64l-49 -229l42 13l197 216h80l-191 -203l-44 -32l39 -40l119 -225h-73zM272 572l89 148h75l-4 -19l-121 -129h-39z" />
    <glyph glyph-name="afii10110" unicode="&#x45e;" horiz-adv-x="436" 
d="M135 500l53 -333l7 -100h5l42 101l172 332h67l-234 -445l-34 -65l-33 -58q-22 -37 -37 -55.5t-35.5 -41t-40 -31.5t-39.5 -9q-32 0 -48 8l21 60q16 -4 23 -4q31 0 60.5 32.5t68.5 108.5l-84 500h66zM178 678l61 23q-1 -84 73 -84q75 0 109 83l46 -17q-19 -55 -65 -86.5
t-102 -31.5q-54 0 -89.5 29t-32.5 84z" />
    <glyph glyph-name="afii10193" unicode="&#x45f;" horiz-adv-x="511" 
d="M204 -40h55l-24 -160h-71zM143 500h65l-72 -339q-6 -27 -6 -50q0 -67 54 -67q48 0 98 41.5t80 94.5l67 320h64l-63 -297q-27 -129 -24 -203h-49v96h-4q-34 -45 -82.5 -76.5t-103.5 -31.5q-103 0 -103 108q0 35 10 78z" />
    <glyph glyph-name="afii10146" unicode="&#x462;" horiz-adv-x="583" 
d="M80 554l13 60h141l23 106h68l-23 -106h200l-13 -60h-200l-27 -130q35 8 92 8q94 0 151.5 -44.5t57.5 -135.5q0 -125 -84 -192.5t-224 -67.5q-95 0 -150 15l116 547h-141zM248 361l-63 -301q20 -6 87 -6q93 0 156 49t63 145q0 62 -41.5 92t-112.5 30q-57 0 -89 -9z" />
    <glyph glyph-name="afii10194" unicode="&#x463;" horiz-adv-x="666" 
d="M383 240l-28 -112q-18 -78 61 -78q60 0 103 39.5t43 101.5q0 36 -21 51t-71 15q-34 0 -87 -17zM289 120l47 197q14 59 14 89q0 50 -43 50q-32 0 -70 -40t-66 -92l-67 -324h-64l106 500h43l-5 -77h4q59 89 144 89q42 0 63 -21t21 -69q0 -39 -13 -92l-7 -30q58 13 93 13
q82 0 111.5 -29t29.5 -80q0 -100 -68 -155t-159 -55q-61 0 -89.5 27.5t-28.5 68.5q0 10 4 30z" />
    <glyph glyph-name="afii10147" unicode="&#x472;" horiz-adv-x="653" 
d="M75 255v3q0 123 42.5 225.5t123 165.5t183.5 63q102 0 162 -63t60 -200q0 -125 -41.5 -230t-118 -168t-173.5 -63q-116 0 -176.5 68.5t-61.5 198.5zM562 324h-411q-4 -46 -4 -69v-3q0 -96 44 -149t122 -53q91 0 157.5 76t91.5 198zM162 388h409q3 29 3 59q0 60 -14.5 102
t-40 63t-52 29.5t-57.5 8.5q-89 0 -155 -73t-93 -189z" />
    <glyph glyph-name="afii10195" unicode="&#x473;" horiz-adv-x="499" 
d="M54 155q0 155 75 256t184 101q77 0 113.5 -46.5t36.5 -119.5q0 -149 -72 -253.5t-178 -104.5q-82 0 -120.5 48.5t-38.5 118.5zM135 277h255q5 33 5 63q0 57 -22 86.5t-74 29.5t-97.5 -50.5t-66.5 -128.5zM379 221h-254q-3 -24 -3 -48q0 -129 99 -129q50 0 93.5 49.5
t64.5 127.5z" />
    <glyph glyph-name="afii10148" unicode="&#x474;" horiz-adv-x="559" 
d="M515 522l-276 -534h-25l-109 712h68l72 -495l2 -103h1l39 104l130 262q72 147 116 193t108 46q51 0 82 -22l-34 -60q-27 18 -58 18q-29 0 -55.5 -27.5t-60.5 -93.5z" />
    <glyph glyph-name="afii10196" unicode="&#x475;" horiz-adv-x="480" 
d="M410 362l-226 -374h-23l-97 512h68l56 -300l8 -99h1l46 101l54 90q75 125 102 157q49 58 103 58q31 0 50 -8l-21 -59q-17 2 -32 4.5t-38 -17t-51 -65.5z" />
    <glyph glyph-name="uni048A" unicode="&#x48a;" horiz-adv-x="650" 
d="M456 0l103 488l22 78h-3l-58 -81l-435 -485h-40l148 700h68l-105 -498l-23 -73h4l57 78l438 493h40l-136 -640h95l-4 -20l-121 -170h-43l71 130h-78zM317 849l59 20q0 -38 19.5 -60t53.5 -22q86 0 112 81l63 -17q-18 -53 -64.5 -84.5t-113.5 -31.5q-62 0 -94.5 32
t-34.5 82z" />
    <glyph glyph-name="uni048B" unicode="&#x48b;" horiz-adv-x="529" 
d="M143 500h65l-72 -339q-6 -27 -6 -50q0 -67 54 -67q48 0 98 41.5t80 94.5l67 320h64l-63 -297q-12 -56 -21 -143h96l-4 -20l-121 -170h-43l71 130h-51v96h-4q-34 -45 -82.5 -76.5t-103.5 -31.5q-103 0 -103 108q0 35 10 78zM195 678l61 23q-1 -84 73 -84q75 0 109 83
l46 -17q-19 -55 -65 -86.5t-102 -31.5q-54 0 -89.5 29t-32.5 84z" />
    <glyph glyph-name="uni048C" unicode="&#x48c;" horiz-adv-x="583" 
d="M80 554l13 60h141l23 106h68l-23 -106h200l-13 -60h-200l-27 -130q35 8 92 8q94 0 151.5 -44.5t57.5 -135.5q0 -125 -84 -192.5t-224 -67.5q-95 0 -150 15l116 547h-141zM248 361l-63 -301q20 -6 87 -6q93 0 156 49t63 145q0 62 -41.5 92t-112.5 30q-57 0 -89 -9z" />
    <glyph glyph-name="uni048D" unicode="&#x48d;" horiz-adv-x="445" 
d="M270 700l-48 -200h188l-13 -56h-188l-34 -144q59 13 93 13q82 0 111.5 -29t29.5 -80q0 -100 -68 -155t-159 -55q-61 0 -89 27.5t-28 68.5q0 15 3 30l77 324h-69l13 56h69l48 200h64zM162 240l-28 -112q-3 -14 -3 -24q0 -54 64 -54q60 0 103 39.5t43 101.5q0 36 -21 51
t-71 15q-34 0 -87 -17z" />
    <glyph glyph-name="uni048E" unicode="&#x48e;" horiz-adv-x="528" 
d="M45 0l146 693q61 15 158 15q96 0 154 -43.5t58 -134.5q0 -176 -157 -236l48 -97l-45 -23l-51 105q-48 -11 -108 -11q-61 0 -78 4l-57 -272h-68zM284 434l44 22l49 -106q112 44 112 174q0 122 -157 122q-56 0 -84 -6l-64 -305q15 -5 73 -5q39 0 73 6z" />
    <glyph glyph-name="uni048F" unicode="&#x48f;" horiz-adv-x="508" 
d="M0 -200l149 700h43l-5 -85h4q78 97 170 97q52 0 84.5 -35t32.5 -116q0 -109 -37.5 -192t-98.5 -131l40 -65l-41 -32l-42 70q-46 -23 -91 -23q-72 0 -100 21l-44 -209h-64zM229 126l43 30l39 -66q99 89 99 269q0 43 -18 70t-51 27q-53 0 -97 -45t-72 -100l-50 -243
q33 -24 78 -24q37 0 69 16z" />
    <glyph glyph-name="afii10050" unicode="&#x490;" horiz-adv-x="416" 
d="M569 830l-40 -194h-281l-135 -636h-68l148 700h288l41 130h47z" />
    <glyph glyph-name="afii10098" unicode="&#x491;" horiz-adv-x="379" 
d="M443 630l-39 -186h-206l-94 -444h-64l106 500h209l41 130h47z" />
    <glyph glyph-name="uni0492" unicode="&#x492;" horiz-adv-x="452" 
d="M559 700l-13 -64h-281l-54 -252h202l-13 -60h-201l-69 -324h-68l68 324h-91l13 60h91l67 316h349z" />
    <glyph glyph-name="uni0493" unicode="&#x493;" horiz-adv-x="394" 
d="M430 500l-12 -56h-205l-35 -164h177l-12 -56h-177l-47 -224h-65l47 224h-71l12 56h71l47 220h270z" />
    <glyph glyph-name="uni0494" unicode="&#x494;" horiz-adv-x="547" 
d="M174 288l-61 -288h-68l148 700h349l-13 -64h-281l-61 -285q66 21 132 21q177 0 177 -181q0 -136 -74.5 -227.5t-208.5 -91.5q-59 0 -74 3l14 64q17 -3 73 -3q97 0 147.5 74t50.5 181q0 119 -127 119q-71 0 -123 -22z" />
    <glyph glyph-name="uni0495" unicode="&#x495;" horiz-adv-x="461" 
d="M144 194l-40 -194h-64l106 500h270l-12 -56h-206l-41 -193q2 0 11.5 3.5t19.5 6t25 5.5t34.5 4.5t41.5 1.5q66 0 104 -35.5t38 -98.5q0 -176 -77.5 -261t-198.5 -85q-40 0 -67 6l13 53q17 -3 72 -3q78 0 134 70.5t56 203.5q0 47 -25 70.5t-66 23.5q-62 0 -128 -22z" />
    <glyph glyph-name="uni0496" unicode="&#x496;" horiz-adv-x="770" 
d="M380 383l67 317h65l-70 -329l38 14l270 315h84l-264 -303l-45 -32l39 -40l121 -261h66l-41 -194h-46l13 130h-39l-154 329h-51l-69 -329h-65l72 341l-37 -14l-291 -327h-87l284 315l52 37l-34 35l-141 313h77l136 -317h50z" />
    <glyph glyph-name="uni0497" unicode="&#x497;" horiz-adv-x="692" 
d="M316 229h-97q-34 -130 -81.5 -182t-107.5 -52q-19 0 -42 5l17 60q11 -3 22 -3q96 -2 135 195q12 62 12 100q0 92 -63 94q-6 0 -22 -2l-8 56q30 4 41 4q110 0 110 -136q0 -34 -8 -87h102l47 219h64l-47 -219h95q34 123 79.5 173t102.5 50q21 0 37 -4l-15 -58q-12 2 -17 2
q-41 1 -70.5 -38t-54.5 -137q-14 -53 -14 -101q0 -53 16.5 -86t50.5 -33q13 0 27 5l22 -17l-43 -167h-53l32 123q-114 0 -114 159q0 40 6 77h-98l-48 -229h-64z" />
    <glyph glyph-name="uni0498" unicode="&#x498;" horiz-adv-x="517" 
d="M227 336h-58l13 60h13q33 0 86 5q67 8 117 45t50 104q0 47 -33.5 73.5t-90.5 26.5q-72 0 -148 -24l-8 54q74 32 174 32q78 0 128 -37.5t50 -106.5q0 -84 -49 -132.5t-119 -58.5v-4q50 -11 84 -47.5t34 -106.5q0 -60 -23.5 -105t-64 -70.5t-85 -38.5t-95.5 -16l-32 -169
h-65l41 169q-88 3 -135 23l31 64q43 -25 150 -25q38 0 73 9t66 28t49 53t18 78q0 104 -126 116q-14 1 -45 1z" />
    <glyph glyph-name="uni0499" unicode="&#x499;" horiz-adv-x="420" 
d="M181 228h-57l12 56h68q37 0 77.5 33.5t40.5 72.5q0 34 -21.5 47t-74.5 13q-57 0 -113 -27l-16 52q58 31 155 31q138 0 138 -102q0 -50 -32.5 -85.5t-79.5 -50.5v-4q79 -12 79 -88t-53 -124.5t-136 -57.5l-33 -174h-65l42 173q-75 5 -112 33l29 53q47 -31 115 -31
q62 0 103.5 32t41.5 85q0 63 -108 63z" />
    <glyph glyph-name="uni049A" unicode="&#x49a;" horiz-adv-x="578" 
d="M420 0l-185 329h-53l-69 -329h-68l148 700h68l-70 -329l41 14l298 315h87l-293 -306l-44 -30l38 -40l144 -260h82l-41 -194h-47l14 130h-50z" />
    <glyph glyph-name="uni049B" unicode="&#x49b;" horiz-adv-x="462" 
d="M330 0l-122 229h-56l-48 -229h-64l106 500h64l-49 -229l42 13l197 216h80l-191 -203l-44 -32l39 -40l89 -169h77l-50 -186h-53l34 130h-51z" />
    <glyph glyph-name="uni049C" unicode="&#x49c;" horiz-adv-x="625" 
d="M183 200l27 129h-28l-69 -329h-68l148 700h68l-70 -329l29 4l27 125h57l-25 -118l17 3l281 315h87l-278 -303l-44 -32l38 -40l165 -325h-78l-164 329h-36l-27 -129h-57z" />
    <glyph glyph-name="uni049D" unicode="&#x49d;" horiz-adv-x="505" 
d="M154 100l27 129h-29l-48 -229h-64l106 500h64l-49 -229l30 3l27 126h57l-25 -118l25 3l174 215h74l-164 -203l-52 -32l39 -40l90 -225h-71l-91 229h-36l-27 -129h-57z" />
    <glyph glyph-name="uni049E" unicode="&#x49e;" horiz-adv-x="625" 
d="M81 574l12 60h133l14 66h68l-14 -66h122l-12 -60h-123l-43 -203l41 14l298 315h87l-293 -306l-44 -30l38 -40l180 -324h-78l-185 329h-53l-69 -329h-68l121 574h-132z" />
    <glyph glyph-name="uni049F" unicode="&#x49f;" horiz-adv-x="446" 
d="M80 554l11 56h78l19 90h64l-19 -90h152l-11 -56h-153l-60 -283l44 11l189 218h82l-185 -203l-44 -32l37 -40l119 -225h-71l-122 229h-58l-48 -229h-64l117 554h-77z" />
    <glyph glyph-name="uni04A0" unicode="&#x4a0;" horiz-adv-x="645" 
d="M246 636h-152l13 64h220l-70 -329l40 14l299 315h87l-292 -305l-45 -31l38 -39l180 -325h-78l-185 329h-53l-69 -329h-68z" />
    <glyph glyph-name="uni04A1" unicode="&#x4a1;" horiz-adv-x="481" 
d="M235 500l-49 -229l39 14l207 215h79l-197 -203l-44 -32l39 -40l118 -225h-75l-120 229h-55l-48 -229h-65l94 444h-104l12 56h169z" />
    <glyph glyph-name="uni04A2" unicode="&#x4a2;" horiz-adv-x="669" 
d="M448 0l69 327h-335l-69 -327h-68l148 700h68l-65 -309h335l65 309h68l-135 -636h89l-41 -194h-46l13 130h-96z" />
    <glyph glyph-name="uni04A3" unicode="&#x4a3;" horiz-adv-x="522" 
d="M334 0l48 226h-230l-48 -226h-64l106 500h64l-45 -212h230l45 212h64l-94 -444h70l-50 -186h-53l34 130h-77z" />
    <glyph glyph-name="uni04A4" unicode="&#x4a4;" horiz-adv-x="819" 
d="M945 700l-13 -64h-281l-135 -636h-68l69 327h-335l-69 -327h-68l148 700h68l-65 -309h334l66 309h349z" />
    <glyph glyph-name="uni04A5" unicode="&#x4a5;" horiz-adv-x="673" 
d="M333 0l48 226h-229l-48 -226h-64l106 500h64l-45 -212h229l45 212h270l-13 -60h-205l-93 -440h-65z" />
    <glyph glyph-name="uni04A6" unicode="&#x4a6;" horiz-adv-x="931" 
d="M565 288l-61 -288h-68l134 636h-323l-134 -636h-68l148 700h459l-74 -349q79 21 134 21q83 0 129 -44.5t46 -130.5q0 -145 -74.5 -235t-208.5 -90q-60 0 -74 3l14 64q17 -3 74 -3q99 0 148 74t49 182q0 63 -32.5 90t-93.5 28h-4q-65 0 -120 -22z" />
    <glyph glyph-name="uni04A7" unicode="&#x4a7;" horiz-adv-x="767" 
d="M444 193l-41 -193h-64l67 317q9 47 9 71q0 33 -15 50.5t-53 17.5q-51 0 -100 -40.5t-76 -91.5l-67 -324h-64l106 500h43l-4 -85h4q81 97 183 97q54 0 81.5 -25.5t27.5 -83.5q0 -36 -8 -73l-16 -79q2 1 16 5l24 7q11 3 30.5 6t37.5 3q166 0 166 -147q0 -166 -76.5 -247.5
t-189.5 -81.5q-33 0 -68 7l13 56q24 -7 72 -7q75 0 128 66.5t53 178.5q0 68 -25 93.5t-92 25.5q-33 0 -102 -23z" />
    <glyph glyph-name="uni04A8" unicode="&#x4a8;" horiz-adv-x="757" 
d="M442 712l-13 -62q-121 0 -201.5 -111.5t-80.5 -276.5q0 -106 45 -160t128 -54q22 0 47 9q-27 18 -53.5 77.5t-26.5 144.5q0 98 26.5 177.5t69.5 126.5t92 72t99 25q169 0 169 -208q0 -129 -69 -252t-171 -171q6 -1 20 -1q70 0 117 30l8 -56q-51 -34 -125 -34
q-62 0 -99 26q-48 -26 -117 -26q-67 0 -115 24.5t-72 65.5t-34.5 83.5t-10.5 90.5q0 116 33 207t87 144.5t117 81t130 27.5zM363 286q0 -156 83 -212q102 52 165.5 161.5t63.5 235.5q0 70 -23 108.5t-82 38.5q-74 0 -140.5 -89t-66.5 -243z" />
    <glyph glyph-name="uni04A9" unicode="&#x4a9;" horiz-adv-x="626" 
d="M322 512l-12 -60q-72 0 -130 -76t-58 -192q0 -68 33 -102t89 -34q45 0 75 18q-28 20 -48 66t-20 109q0 97 63.5 178t157.5 81q118 0 118 -150q0 -91 -47.5 -168t-117.5 -122q36 -35 104 -8l21 -44q-25 -20 -79 -20q-73 0 -104 45q-59 -45 -137 -45q-86 0 -131 51.5
t-45 143.5q0 132 77.5 230.5t190.5 98.5zM319 232q0 -100 60 -145q50 23 96.5 97t46.5 149q0 61 -15.5 84t-47.5 23q-60 0 -100 -63t-40 -145z" />
    <glyph glyph-name="uni04AA" unicode="&#x4aa;" horiz-adv-x="545" 
d="M472 87l7 -58q-57 -38 -145 -41l-31 -168h-65l42 171q-95 14 -150.5 92t-55.5 191q0 108 33 194t87.5 138t120 79t135.5 27q90 0 150 -27l-32 -63q-47 26 -129 26q-121 0 -207 -101t-86 -265q0 -102 51 -166t140 -64q76 0 135 35z" />
    <glyph glyph-name="uni04AB" unicode="&#x4ab;" horiz-adv-x="422" 
d="M346 86l18 -42q-53 -45 -129 -54l-32 -170h-65l41 171q-48 6 -78 34.5t-38.5 58t-8.5 62.5q0 163 81.5 264.5t193.5 101.5q49 0 103 -22l-24 -54q-34 20 -99 20q-71 0 -129 -87t-58 -194q0 -66 27.5 -98.5t76.5 -32.5q60 0 120 42z" />
    <glyph glyph-name="uni04AC" unicode="&#x4ac;" horiz-adv-x="524" 
d="M612 700l-13 -64h-209l-121 -572h87l-41 -194h-46l13 130h-95l135 636h-209l13 64h486z" />
    <glyph glyph-name="uni04AD" unicode="&#x4ad;" horiz-adv-x="769" 
d="M375 0h-65l60 285q17 82 17 115q0 56 -46 56q-47 0 -94.5 -43t-75.5 -90l-67 -323h-64l106 500h43l-6 -85h4q31 30 50 46t57 33.5t77 17.5q44 0 60 -26.5t16 -79.5q33 43 82.5 74.5t97.5 31.5t71 -22.5t23 -78.5q0 -47 -14 -111l-51 -244h77l-50 -186h-53l34 130h-85
l64 305q14 68 14 94q0 57 -50 57q-42 0 -92.5 -46t-73.5 -93z" />
    <glyph glyph-name="uni04AE" unicode="&#x4ae;" horiz-adv-x="523" 
d="M184 0l59 282l-134 418h74l94 -316l4 -58h1l30 60l226 314h77l-303 -417l-60 -283h-68z" />
    <glyph glyph-name="uni04AF" unicode="&#x4af;" horiz-adv-x="447" 
d="M146 0l-82 500h70l52 -330l4 -109h1l50 111l180 328h76l-286 -500l-43 -200h-65z" />
    <glyph glyph-name="uni04B0" unicode="&#x4b0;" horiz-adv-x="523" 
d="M100 227l12 56h130l-133 417h74l94 -316l4 -58h1l30 60l226 314h77l-303 -417h152l-12 -56h-152l-48 -227h-68l47 227h-131z" />
    <glyph glyph-name="uni04B1" unicode="&#x4b1;" horiz-adv-x="459" 
d="M30 -56l11 56h117l-82 500h70l52 -330l4 -109h1l50 111l180 328h76l-286 -500h112l-11 -56h-113l-31 -144h-65l31 144h-116z" />
    <glyph glyph-name="uni04B2" unicode="&#x4b2;" horiz-adv-x="603" 
d="M-3 0l300 358l-134 342h76l90 -245l13 -54l34 54l201 245h83l-283 -339l119 -297h80l-41 -194h-46l13 130h-55l-101 259l-15 57l-37 -57l-214 -259h-83z" />
    <glyph glyph-name="uni04B3" unicode="&#x4b3;" horiz-adv-x="481" 
d="M340 0l-74 159l-21 57l-41 -57l-141 -159h-81l229 256l-111 244h75l62 -145l19 -54l40 54l129 145h80l-216 -240l96 -204h65l-50 -186h-53l34 130h-41z" />
    <glyph glyph-name="uni04B4" unicode="&#x4b4;" horiz-adv-x="796" 
d="M739 64l-41 -194h-46l13 130h-478l134 636h-208l13 64h458l-13 -64h-182l-121 -572h315l135 636h68l-135 -636h88z" />
    <glyph glyph-name="uni04B5" unicode="&#x4b5;" horiz-adv-x="529" 
d="M388 -130l34 130q-71 -1 -71 65q0 14 3 31h-4q-81 -108 -183 -108q-103 0 -103 108q0 35 10 78l69 326h65l-72 -339q-6 -27 -6 -50q0 -67 54 -67q48 0 98 41.5t80 94.5l67 320h64l-77 -360q-7 -31 -7 -52q0 -32 26 -32h55l-49 -186h-53zM190 584l12 56h276l-12 -56h-276z
" />
    <glyph glyph-name="uni04B6" unicode="&#x4b6;" horiz-adv-x="602" 
d="M381 0l65 306q-82 -46 -169 -46q-65 0 -107 34t-42 108q0 31 7 63l49 235h68l-48 -227q-6 -30 -6 -53q0 -96 97 -96q98 0 165 50l69 326h68l-135 -636h87l-41 -194h-46l13 130h-94z" />
    <glyph glyph-name="uni04B7" unicode="&#x4b7;" horiz-adv-x="466" 
d="M112 500h65l-30 -141q-9 -38 -9 -57q0 -66 70 -66q74 0 127 39l48 225h65l-94 -444h68l-50 -186h-53l34 130h-76l45 213q-58 -33 -130 -33q-120 0 -120 108q0 26 8 64z" />
    <glyph glyph-name="uni04B8" unicode="&#x4b8;" horiz-adv-x="575" 
d="M184 700h68l-48 -227q-6 -30 -6 -54q0 -89 86 -95l27 126h57l-26 -123q71 11 118 47l69 326h68l-148 -700h-68l65 306q-59 -34 -118 -42l-24 -114h-57l23 110q-62 2 -102 36t-40 105q0 30 7 64z" />
    <glyph glyph-name="uni04B9" unicode="&#x4b9;" horiz-adv-x="466" 
d="M161 70l23 110q-110 0 -110 109q0 29 7 63l31 148h65l-32 -150q-7 -35 -7 -53q0 -57 58 -61l29 134h57l-28 -130q47 9 81 35l48 225h65l-106 -500h-65l45 213q-38 -21 -80 -29l-24 -114h-57z" />
    <glyph glyph-name="uni04BA" unicode="&#x4ba;" horiz-adv-x="575" 
d="M458 0h-68l48 227q6 30 6 53q0 96 -98 96q-82 0 -164 -50l-69 -326h-68l148 700h68l-65 -306q87 46 169 46q65 0 107 -35t42 -108q0 -29 -7 -61z" />
    <glyph glyph-name="uni04BB" unicode="&#x4bb;" horiz-adv-x="530" 
d="M413 0h-64l60 285q14 65 14 100q0 38 -16 54.5t-51 16.5q-52 0 -108.5 -47.5t-79.5 -101.5l-64 -307h-64l148 700h64l-61 -285h4q83 97 188 97q53 0 79.5 -24t26.5 -84q0 -43 -13 -104z" />
    <glyph glyph-name="uni04BC" unicode="&#x4bc;" horiz-adv-x="731" 
d="M698 322h-421q-4 -29 -4 -61q0 -101 43.5 -156t131.5 -55q40 0 84 14t66 31l7 -57q-73 -50 -163 -50q-114 0 -174.5 68t-60.5 201q0 31 3 65h-36q-52 0 -83 26.5t-31 79.5q0 31 12.5 54.5t28.5 34.5h70q-45 -32 -45 -71q0 -11 2 -19.5t10 -21.5t28.5 -18.5t52.5 -3.5
q35 167 123.5 248t202.5 81q91 0 139 -58.5t49 -156.5q0 -83 -35 -175zM288 384h358q21 61 21 115q0 151 -128 151q-92 0 -156 -68t-95 -198z" />
    <glyph glyph-name="uni04BD" unicode="&#x4bd;" horiz-adv-x="531" 
d="M431 90l23 -41q-71 -61 -174 -61q-78 0 -118 45t-40 128q0 49 7 87h-6q-59 0 -85 31t-26 71q0 35 18.5 64t46.5 46h70q-77 -50 -77 -104q0 -62 72 -57q30 99 97 156t145 57q67 0 101 -33.5t34 -83.5q0 -70 -68 -109.5t-196 -39.5q-19 0 -59 2q-8 -37 -8 -72q0 -60 26 -96
t78 -36q83 0 139 46zM373 456q-120 0 -164 -157h29q42 0 71.5 2.5t66 11t56 29t19.5 52.5q0 25 -18 43.5t-60 18.5z" />
    <glyph glyph-name="uni04BE" unicode="&#x4be;" horiz-adv-x="731" 
d="M698 322h-421q-4 -29 -4 -61q0 -101 43.5 -156t131.5 -55q40 0 84 14t66 31l7 -57q-73 -50 -163 -50h-4l-31 -168h-65l42 173q-177 33 -177 264q0 31 3 65h-36q-52 0 -83 26.5t-31 79.5q0 31 12.5 54.5t28.5 34.5h70q-45 -32 -45 -71q0 -11 2 -19.5t10 -21.5t28.5 -18.5
t52.5 -3.5q35 167 123.5 248t202.5 81q91 0 139 -58.5t49 -156.5q0 -83 -35 -175zM288 384h358q21 61 21 115q0 151 -128 151q-92 0 -156 -68t-95 -198z" />
    <glyph glyph-name="uni04BF" unicode="&#x4bf;" horiz-adv-x="531" 
d="M431 90l23 -41q-63 -54 -153 -61l-33 -168h-65l41 171q-122 19 -122 170q0 49 7 87h-6q-59 0 -85 31t-26 71q0 35 18.5 64t46.5 46h70q-77 -50 -77 -104q0 -62 72 -57q30 99 97 156t145 57q67 0 101 -33.5t34 -83.5q0 -70 -68 -109.5t-196 -39.5q-19 0 -59 2
q-8 -37 -8 -72q0 -60 26 -96t78 -36q83 0 139 46zM373 456q-120 0 -164 -157h29q42 0 71.5 2.5t66 11t56 29t19.5 52.5q0 25 -18 43.5t-60 18.5z" />
    <glyph glyph-name="uni04C0" unicode="&#x4c0;" horiz-adv-x="277" 
d="M69 0l148 700h68l-148 -700h-68z" />
    <glyph glyph-name="uni04C3" unicode="&#x4c3;" horiz-adv-x="567" 
d="M409 186q0 87 -41.5 115t-139.5 28h-46l-69 -329h-68l148 700h68l-70 -329l41 14l298 315h87l-278 -287l-61 -38h62q56 -5 98.5 -43.5t42.5 -126.5v-23q0 -102 -30 -190t-94.5 -146t-151.5 -58h-8l14 64q64 1 110 50.5t67 123t21 160.5z" />
    <glyph glyph-name="uni04C4" unicode="&#x4c4;" horiz-adv-x="467" 
d="M150 219l-46 -219h-64l106 500h64l-51 -239l39 14l210 225h79l-200 -213l-38 -25l41 -6q51 -11 74.5 -55t23.5 -103q0 -31 -10 -84q-22 -116 -80.5 -171t-134.5 -55q-10 0 -28 2l13 56q5 -1 16 -1q53 0 92.5 44t55.5 124q10 50 10 80q0 124 -125 126h-47z" />
    <glyph glyph-name="uni04C5" unicode="&#x4c5;" horiz-adv-x="593" 
d="M399 0l135 636h-209q-94 -405 -179 -546q-56 -94 -132 -94q-37 0 -54 8l24 62q14 -4 20 -4h2q42 0 80 59q96 150 186 579h343l-136 -640h96l-4 -20l-121 -170h-43l71 130h-79z" />
    <glyph glyph-name="uni04C6" unicode="&#x4c6;" horiz-adv-x="500" 
d="M298 0l95 444h-143l-29 -118q-11 -45 -26.5 -98t-28 -84t-29.5 -63t-34 -48t-38.5 -26.5t-46.5 -10.5q-32 0 -48 8l20 56q14 -2 20 -2q33 -1 57 28.5t56.5 126.5t77.5 287h268l-94 -440h101l-4 -20l-121 -170h-43l71 130h-81z" />
    <glyph glyph-name="uni04C7" unicode="&#x4c7;" horiz-adv-x="642" 
d="M664 700l-154 -728q-23 -107 -64.5 -150t-120.5 -34l13 60q53 -1 72 30.5t38 121.5l69 327h-335l-69 -327h-68l148 700h68l-65 -309h335l65 309h68z" />
    <glyph glyph-name="uni04C8" unicode="&#x4c8;" horiz-adv-x="522" 
d="M152 226l-48 -226h-64l106 500h64l-45 -212h230l45 212h64l-112 -528q-20 -94 -60 -139.5t-104 -45.5q-14 0 -21 1l13 60q51 0 73.5 33.5t40.5 118.5l48 226h-230z" />
    <glyph glyph-name="uni04C9" unicode="&#x4c9;" horiz-adv-x="642" 
d="M448 0l69 327h-335l-69 -327h-68l148 700h68l-65 -309h335l65 309h68l-136 -640h95l-4 -20l-121 -170h-43l71 130h-78z" />
    <glyph glyph-name="uni04CA" unicode="&#x4ca;" horiz-adv-x="531" 
d="M334 0l48 226h-230l-48 -226h-64l106 500h64l-45 -212h230l45 212h64l-94 -440h97l-4 -20l-121 -170h-43l71 130h-76z" />
    <glyph glyph-name="uni04CB" unicode="&#x4cb;" horiz-adv-x="575" 
d="M184 700h68l-48 -227q-6 -30 -6 -53q0 -96 97 -96q98 0 165 50l69 326h68l-148 -700h-92l-42 -130h-46l40 194h85l52 242q-82 -46 -169 -46q-65 0 -107 34t-42 108q0 31 7 63z" />
    <glyph glyph-name="uni04CC" unicode="&#x4cc;" horiz-adv-x="467" 
d="M290 60l33 153q-58 -33 -136 -33q-58 0 -86.5 23t-28.5 78q0 29 9 71l32 148h65l-30 -141q-8 -34 -8 -57q0 -66 69 -66q74 0 127 39l48 225h65l-106 -500h-77l-32 -130h-63l50 190h69z" />
    <glyph glyph-name="uni04CD" unicode="&#x4cd;" horiz-adv-x="750" 
d="M556 0l105 494l28 97h-4l-54 -92l-250 -328h-20l-120 328l-14 92h-4l-8 -96l-105 -495h-65l148 700h43l135 -367l15 -77h1l46 79l281 365h58l-136 -640h95l-4 -20l-121 -170h-43l71 130h-78z" />
    <glyph glyph-name="uni04CE" unicode="&#x4ce;" horiz-adv-x="625" 
d="M428 0l66 312l25 93h-4l-50 -75l-164 -205h-22l-81 205l-14 75h-4l-13 -92l-66 -313h-61l106 500h57l88 -232l16 -57h1l42 59l178 230h71l-94 -440h96l-4 -20l-121 -170h-43l71 130h-76z" />
    <glyph glyph-name="uni04CF" unicode="&#x4cf;" horiz-adv-x="235" 
d="M40 0l148 700h65l-148 -700h-65z" />
    <glyph glyph-name="uni04D0" unicode="&#x4d0;" horiz-adv-x="552" 
d="M437 0l-29 203h-253l-114 -203h-73l407 712h24l104 -712h-66zM319 490l-129 -225h209l-32 227l-2 105h-1zM263 849l59 20q0 -38 19.5 -60t53.5 -22q86 0 112 81l63 -17q-18 -53 -64.5 -84.5t-113.5 -31.5q-62 0 -94.5 32t-34.5 82z" />
    <glyph glyph-name="uni04D1" unicode="&#x4d1;" horiz-adv-x="483" 
d="M471 489l-64 -293q-14 -66 -14 -141q0 -33 3 -57h-49l-14 87h-4q-29 -40 -72 -68.5t-92 -28.5q-117 0 -117 155q0 65 16.5 128t48.5 118.5t88 89.5t128 34q63 0 142 -24zM182 44q45 0 88.5 38.5t66.5 81.5l58 278q-30 15 -81 15q-62 0 -108.5 -48.5t-68 -119.5
t-21.5 -151q0 -42 17 -68t49 -26zM203 678l61 23q-1 -84 73 -84q75 0 109 83l46 -17q-19 -55 -65 -86.5t-102 -31.5q-54 0 -89.5 29t-32.5 84z" />
    <glyph glyph-name="uni04D2" unicode="&#x4d2;" horiz-adv-x="552" 
d="M437 0l-29 203h-253l-114 -203h-73l407 712h24l104 -712h-66zM319 490l-129 -225h209l-32 227l-2 105h-1zM266 793q0 19 13 32t33 13t33 -13t13 -32q0 -18 -13 -31t-33 -13t-33 13t-13 31zM444 793q0 19 13 32t33 13t33 -13t13 -32q0 -18 -13 -31t-33 -13t-33 13t-13 31z
" />
    <glyph glyph-name="uni04D3" unicode="&#x4d3;" horiz-adv-x="483" 
d="M471 489l-64 -293q-14 -66 -14 -141q0 -33 3 -57h-49l-14 87h-4q-29 -40 -72 -68.5t-92 -28.5q-117 0 -117 155q0 65 16.5 128t48.5 118.5t88 89.5t128 34q63 0 142 -24zM182 44q45 0 88.5 38.5t66.5 81.5l58 278q-30 15 -81 15q-62 0 -108.5 -48.5t-68 -119.5
t-21.5 -151q0 -42 17 -68t49 -26zM206 634q0 19 11.5 32.5t30.5 13.5t30.5 -13.5t11.5 -32.5t-11.5 -32t-30.5 -13t-30.5 13t-11.5 32zM384 634q0 19 11.5 32.5t30.5 13.5t30.5 -13.5t11.5 -32.5t-11.5 -32t-30.5 -13t-30.5 13t-11.5 32z" />
    <glyph glyph-name="uni04D4" unicode="&#x4d4;" horiz-adv-x="800" 
d="M463 615h-2l-52 -103l-188 -247h168zM333 0l43 203h-205l-152 -203h-80l540 700h357l-13 -62h-287l-52 -246h263l-13 -62h-263l-57 -268h292l-13 -62h-360z" />
    <glyph glyph-name="uni04D5" unicode="&#x4d5;" horiz-adv-x="756" 
d="M172 48q50 0 94.5 39t67.5 75l8 71q-32 2 -48 2q-88 0 -142 -27t-54 -84q0 -76 74 -76zM343 89h-7q-34 -43 -83 -70t-103 -27q-59 0 -89.5 34.5t-30.5 83.5q0 178 275 178q31 0 47 -1q21 67 21 104q0 33 -19.5 47t-65.5 14q-32 0 -76.5 -10.5t-72.5 -25.5l-11 53
q72 39 191 39q103 0 115 -68q30 36 76 54t90 18q68 0 106 -31.5t38 -79.5q0 -41 -16.5 -70t-43 -46.5t-72 -28t-92.5 -14.5t-115 -5q-8 -38 -8 -68q0 -125 129 -125q30 0 65 12.5t57 29.5l15 -47q-72 -51 -171 -51q-57 0 -96.5 27t-52.5 74zM590 456q-127 0 -174 -163
q62 0 102 2.5t79.5 12t59 30.5t19.5 54q0 64 -86 64z" />
    <glyph glyph-name="uni04D6" unicode="&#x4d6;" horiz-adv-x="512" 
d="M45 0l148 700h355l-13 -62h-287l-52 -246h263l-13 -62h-263l-57 -268h292l-13 -62h-360zM242 849l59 20q0 -38 19.5 -60t53.5 -22q86 0 112 81l63 -17q-18 -53 -64.5 -84.5t-113.5 -31.5q-62 0 -94.5 32t-34.5 82z" />
    <glyph glyph-name="uni04D7" unicode="&#x4d7;" horiz-adv-x="463" 
d="M363 90l23 -41q-71 -61 -174 -61q-78 0 -118 45t-40 128q0 157 79 254t183 97q67 0 101 -33.5t34 -83.5q0 -70 -68 -109.5t-196 -39.5q-19 0 -59 2q-8 -37 -8 -72q0 -60 26 -96t78 -36q83 0 139 46zM305 456q-120 0 -164 -157h29q42 0 71.5 2.5t66 11t56 29t19.5 52.5
q0 25 -18 43.5t-60 18.5zM203 678l61 23q-1 -84 73 -84q75 0 109 83l46 -17q-19 -55 -65 -86.5t-102 -31.5q-54 0 -89.5 29t-32.5 84z" />
    <glyph glyph-name="uni04D8" unicode="&#x4d8;" horiz-adv-x="597" 
d="M506 326h-364q-15 -60 -15 -105q0 -76 34.5 -123.5t105.5 -47.5q95 0 156 75.5t83 200.5zM91 388h424q3 23 3 49q0 41 -7.5 76t-25 67.5t-50 51t-77.5 18.5q-39 0 -83.5 -13t-73.5 -29l-7 56q86 48 172 48q42 0 77.5 -10.5t70.5 -37t55.5 -81.5t20.5 -134
q0 -125 -36 -228t-112 -168t-180 -65q-98 0 -150.5 60t-52.5 163q0 78 32 177z" />
    <glyph glyph-name="afii10846" unicode="&#x4d9;" horiz-adv-x="483" 
d="M126 414l-19 50q67 48 167 48q88 0 130.5 -51t42.5 -119q0 -161 -71 -257.5t-195 -96.5q-61 0 -103 36.5t-42 87.5q0 49 17.5 82.5t50.5 51.5t73 25.5t94 7.5q65 0 107 -7q5 33 5 54q0 66 -35 98t-88 32q-71 0 -134 -42zM196 44q56 0 102 44.5t66 127.5q-63 9 -101 9
q-41 0 -73.5 -7.5t-59 -31t-26.5 -62.5q0 -33 23 -56.5t69 -23.5z" />
    <glyph glyph-name="uni04DA" unicode="&#x4da;" horiz-adv-x="597" 
d="M506 326h-364q-15 -60 -15 -105q0 -76 34.5 -123.5t105.5 -47.5q95 0 156 75.5t83 200.5zM91 388h424q3 23 3 49q0 41 -7.5 76t-25 67.5t-50 51t-77.5 18.5q-39 0 -83.5 -13t-73.5 -29l-7 56q86 48 172 48q42 0 77.5 -10.5t70.5 -37t55.5 -81.5t20.5 -134
q0 -125 -36 -228t-112 -168t-180 -65q-98 0 -150.5 60t-52.5 163q0 78 32 177zM273 793q0 19 13 32t33 13t33 -13t13 -32q0 -18 -13 -31t-33 -13t-33 13t-13 31zM451 793q0 19 13 32t33 13t33 -13t13 -32q0 -18 -13 -31t-33 -13t-33 13t-13 31z" />
    <glyph glyph-name="uni04DB" unicode="&#x4db;" horiz-adv-x="483" 
d="M126 414l-19 50q67 48 167 48q88 0 130.5 -51t42.5 -119q0 -161 -71 -257.5t-195 -96.5q-61 0 -103 36.5t-42 87.5q0 49 17.5 82.5t50.5 51.5t73 25.5t94 7.5q65 0 107 -7q5 33 5 54q0 66 -35 98t-88 32q-71 0 -134 -42zM196 44q56 0 102 44.5t66 127.5q-63 9 -101 9
q-41 0 -73.5 -7.5t-59 -31t-26.5 -62.5q0 -33 23 -56.5t69 -23.5zM155 634q0 19 11.5 32.5t30.5 13.5t30.5 -13.5t11.5 -32.5t-11.5 -32t-30.5 -13t-30.5 13t-11.5 32zM333 634q0 19 11.5 32.5t30.5 13.5t30.5 -13.5t11.5 -32.5t-11.5 -32t-30.5 -13t-30.5 13t-11.5 32z" />
    </font>
</defs>
</svg>
