<svg xmlns="http://www.w3.org/2000/svg" width="25" height="23" viewBox="0 0 25 23">
    <path fill="#888" fill-rule="nonzero" d="M.595 0A.6.6 0 0 0 0 .605a.6.6 0 0 0 .595.606h3.088l3.134 15.055c.076.372.32.685.623.681h14.881c.315.005.605-.285.605-.605s-.29-.61-.605-.605H7.924L4.753.473A.616.616 0 0 0 4.167 0H.595zm5.953 3.632L8.333 13.71h14.584L25 3.63H6.548zm3.869 15.131c-1.15 0-2.084.949-2.084 2.119 0 1.17.933 2.118 2.084 2.118 1.15 0 2.083-.948 2.083-2.118s-.933-2.119-2.083-2.119zm8.928 0c-1.15 0-2.083.949-2.083 2.119 0 1.17.933 2.118 2.083 2.118 1.15 0 2.084-.948 2.084-2.118s-.933-2.119-2.084-2.119z"/>
</svg>
