<svg xmlns="http://www.w3.org/2000/svg" width="12" height="15" viewBox="0 0 12 15">
    <path fill="#000" fill-rule="nonzero" stroke="#888" stroke-width=".4" d="M5.028 7.585a.57.57 0 0 0 .57-.57V4.503c0-.85-.26-1.67-.733-2.313a3.453 3.453 0 0 0-1.503-1.177.168.168 0 0 0-.126 0A3.452 3.452 0 0 0 1.733 2.19C1.26 2.832 1 3.653 1 4.502v2.514c0 .314.255.57.57.57h.865v.625l-.352 4.928c-.025.35.093.692.324.94.213.23.497.355.8.355h.183c.303 0 .587-.126.8-.355a1.25 1.25 0 0 0 .325-.94L4.163 8.21v-.626h.865zm-.434-5.197c.43.585.668 1.336.668 2.114v2.514a.234.234 0 0 1-.234.233H3.467V1.43c.442.222.82.543 1.127.96zM1.336 7.016V4.502c0-.778.237-1.529.667-2.114a3.137 3.137 0 0 1 1.128-.96V7.25H1.569a.234.234 0 0 1-.233-.233zm2.608 6.834a.754.754 0 0 1-.554.248h-.183a.754.754 0 0 1-.554-.248.914.914 0 0 1-.236-.687l.342-4.779h1.08l.34 4.779a.914.914 0 0 1-.235.687zM3.827 8.05H2.77v-.464h1.057v.464zm7.052-.464c.331 0 .601-.27.601-.601V1.168a.168.168 0 1 0-.336 0v4.307H9.93V1.168a.168.168 0 1 0-.336 0v4.307h-1.31V1.168a.168.168 0 1 0-.336 0v4.307H6.876V1.168a.168.168 0 1 0-.336 0v5.816c0 .331.27.601.602.601h1.004v.626l-.352 4.928c-.025.349.093.692.325.94.213.23.497.355.8.355H9.1c.303 0 .588-.126.8-.355a1.25 1.25 0 0 0 .325-.94L9.874 8.21v-.626h1.005zm-4.003-.601V5.81h4.268v1.173c0 .146-.119.265-.265.265H7.142a.266.266 0 0 1-.266-.265zm2.78 6.866a.753.753 0 0 1-.555.248H8.92a.754.754 0 0 1-.555-.248.914.914 0 0 1-.235-.688l.341-4.778h1.08l.341 4.778a.915.915 0 0 1-.235.688zM9.538 8.05H8.482v-.464h1.056v.464z"/>
</svg>
