<svg xmlns="http://www.w3.org/2000/svg" width="27" height="28" viewBox="0 0 27 28">
    <g fill="none" fill-rule="evenodd">
        <g transform="translate(0 .887)">
            <circle cx="13.5" cy="13.5" r="13.5" fill="#98B927"/>
            <path fill="#FFF" fill-rule="nonzero" d="M19.858 9.46c-.734-.463-1.536-.708-2.319-.708-1.043 0-1.965.424-2.531 1.162-.461.6-.628 1.35-.481 2.13a6.59 6.59 0 0 0-1.313 1.75 9.024 9.024 0 0 0-1.273-2.457c.482-1.162.398-2.35-.245-3.364C10.912 6.737 9.448 6 7.78 6c-.782 0-1.577.162-2.362.48a.305.305 0 0 0-.048.54c.534.335.79 1.065 1.062 1.837.479 1.361 1.074 3.055 3.525 3.055.456 0 .972-.063 1.533-.18 1.644 2.24 1.77 4.825 1.63 6.449a.304.304 0 1 0 .608.052c.068-.801.086-2.083-.247-3.505.004-.01.01-.017.014-.027.276-.853.811-1.584 1.394-2.16.612.247 1.143.368 1.617.368 1.355 0 1.919-.994 2.372-1.793.28-.494.544-.96.931-1.115a.305.305 0 0 0 .05-.54zm-8.363 1.32a9.608 9.608 0 0 0-2.61-2.09.305.305 0 0 0-.296.532 9.131 9.131 0 0 1 2.471 1.973c-.4.07-.771.108-1.103.108-2.02 0-2.471-1.286-2.95-2.648-.227-.645-.46-1.308-.882-1.782a5.49 5.49 0 0 1 1.655-.264c1.459 0 2.73.632 3.401 1.69.475.748.58 1.614.314 2.481zm6.853.035c-.433.764-.842 1.485-1.842 1.485-.318 0-.69-.073-1.105-.216.724-.589 1.428-.927 1.726-.95a.305.305 0 0 0-.045-.607c-.425.032-1.208.4-1.996 1.026-.01-.468.127-.905.405-1.269.443-.578 1.209-.923 2.048-.923.522 0 1.057.13 1.57.379-.313.286-.54.685-.76 1.075z"/>
            <path fill="#FFF" fill-rule="nonzero" d="M20.58 20.272l.537.537-.757.06c-5.325.43-8.013.455-10.109-.842-1.616-.999-1.52-2.304-.082-3.186 1.22-.748 3.146-1.054 4.622-.683 2 .503 3.25 1.582 5.788 4.114zm-5.96-3.434c-1.292-.325-3.024-.05-4.084.6-1.015.623-1.063 1.283.084 1.993 1.838 1.137 4.14 1.116 8.91.797-2.23-2.126-3.196-2.959-4.91-3.39z"/>
        </g>
        <path fill="#FFF" fill-rule="nonzero" d="M13.75 20.221c-1.225 0-2.27-.373-2.27-1.11 0-.738 1.045-.924 2.27-.924s2.087.452 2.087 1.189c0 .737-.862.845-2.087.845zm0-.5c.984 0 1.587.022 1.587-.345s-.603-.69-1.587-.69-1.77.057-1.77.425c0 .367.786.61 1.77.61z"/>
    </g>
</svg>
