<?xml version="1.0" encoding="UTF-8"?>
<svg width="17px" height="16px" viewBox="0 0 17 16" version="1.1" xmlns="http://www.w3.org/2000/svg" xmlns:xlink="http://www.w3.org/1999/xlink">
    <!-- Generator: Sketch 50.2 (55047) - http://www.bohemiancoding.com/sketch -->
    <title>core plant icon</title>
    <desc>Created with Sketch.</desc>
    <defs></defs>
    <g id="Symbols" stroke="none" stroke-width="1" fill="none" fill-rule="evenodd">
        <g id="core-plant-icon" transform="translate(-5.000000, -6.000000)" fill="#FFFFFF" fill-rule="nonzero">
            <g transform="translate(5.000000, 6.886598)">
                <path d="M14.8580613,3.46090872 C14.1242638,2.9973748 13.3224761,2.75222008 12.5392823,2.75222008 C11.4962755,2.75222008 10.573547,3.17563083 10.0076571,3.91374446 C9.54676471,4.5149496 9.3802025,5.26331982 9.52652424,6.04352363 C9.02189796,6.53114349 8.55176883,7.12163038 8.21372484,7.79316646 C7.93606091,6.97504736 7.52892222,6.13687672 6.94062327,5.33678194 C7.42338261,4.17511705 7.33928827,2.98786086 6.69552883,1.97277899 C5.91197358,0.737370981 4.44835456,0 2.78046339,0 C1.99803262,0 1.20301179,0.161757159 0.417508806,0.480795506 C0.311547527,0.523889267 0.238657733,0.622601477 0.228698136,0.73648783 C0.218798778,0.850354112 0.273456084,0.96008564 0.370361358,1.02074207 C0.903621482,1.35509506 1.16030199,2.08487897 1.43204237,2.85735521 C1.91072551,4.21807031 2.50635359,5.91153268 4.95663537,5.91183376 C4.95685625,5.91183376 4.95707713,5.91183376 4.95729801,5.91183376 C5.41290942,5.91183376 5.9292824,5.84910996 6.48969046,5.73134978 C8.13356615,7.97264686 8.25952694,10.5574696 8.12093593,12.1810226 C8.10649853,12.3484199 8.23085294,12.4959061 8.39843922,12.5101569 C8.40723419,12.5108996 8.415989,12.5113612 8.42478396,12.5113612 C8.58122594,12.5113612 8.71435524,12.3915337 8.72788904,12.2327672 C8.7961404,11.4319097 8.81385081,10.1496746 8.48114806,8.72768086 C8.48516402,8.71844792 8.49156949,8.71088092 8.4948425,8.7010659 C8.77132172,7.84802219 9.30642919,7.1165924 9.88884475,6.54186173 C10.5014604,6.78775911 11.0324113,6.90937303 11.5060946,6.90937303 C12.8608407,6.90937303 13.424823,5.91480436 13.8779847,5.11573323 C14.1577369,4.62231267 14.4220277,4.15641031 14.8091468,4.00075492 C14.9152085,3.95808266 14.9883794,3.85967153 14.9987606,3.74578517 C15.0090415,3.63185868 14.9547657,3.52184615 14.8580613,3.46090872 Z M6.49499154,4.78045694 C5.82900371,4.01380147 4.9767152,3.29780676 3.88551684,2.68993785 C3.73871318,2.60816608 3.55311528,2.66079386 3.47116949,2.80767795 C3.38930401,2.95456204 3.44201357,3.14010407 3.58895779,3.22185576 C4.62312942,3.79793123 5.42989695,4.47213684 6.06026315,5.1952369 C5.65950984,5.26570835 5.28897669,5.30288098 4.95731809,5.30288098 C4.95709721,5.30288098 4.95693657,5.30288098 4.95673577,5.30288098 C2.93790936,5.30257991 2.48565128,4.01663157 2.00682759,2.65545481 C1.77966444,2.00967062 1.54659781,1.34720691 1.12457996,0.872513176 C1.67902431,0.697368249 2.23415138,0.608932706 2.78048347,0.608932706 C4.23860062,0.608932706 5.50983477,1.24060655 6.18104335,2.29896283 C6.65554988,3.04703198 6.76151116,3.91256024 6.49499154,4.78045694 Z M13.3480779,4.81540163 C12.914976,5.5790865 12.5058494,6.30042026 11.5060946,6.30042026 C11.1878292,6.30042026 10.8168945,6.22681764 10.40076,6.0835063 C11.1252002,5.49522728 11.8292795,5.15657897 12.1270433,5.13458047 C12.2947903,5.12209593 12.4207711,4.97609499 12.408422,4.8084167 C12.3959324,4.64071835 12.2506347,4.51480909 12.0821247,4.52713307 C11.657356,4.55864551 10.8743228,4.92659838 10.0859082,5.55263211 C10.0759486,5.08522437 10.2126521,4.64756277 10.4911996,4.28420629 C10.9342611,3.70620395 11.6999051,3.36115278 12.5393225,3.36115278 C13.0611973,3.36115278 13.5960237,3.49093586 14.1086618,3.73952283 C13.7957176,4.02598494 13.5692372,4.42528968 13.3480779,4.81540163 Z" id="Shape"></path>
                <path d="M15.5792483,14.2722668 L16.1171417,14.808777 L15.359886,14.8699032 C10.0354482,15.2996954 7.34746369,15.3237985 5.25127656,14.0273845 C3.63539751,13.0280233 3.7308844,11.7229772 5.16940995,10.8406692 C6.38882115,10.0927532 8.31499703,9.78652204 9.79103503,10.1578888 C11.7902516,10.6608857 13.0401039,11.739652 15.5792483,14.2722668 Z M9.61996363,10.8378309 C8.32835677,10.5128665 6.59578891,10.7883171 5.53598575,11.4383388 C4.52092231,12.0609198 4.47259588,12.7214106 5.62006877,13.43108 C7.458158,14.56787 9.75959578,14.5469427 14.5300761,14.2281814 C12.3000108,12.1022181 11.3339167,11.2690564 9.61996363,10.8378309 Z" id="Path-2"></path>
                <path d="M8.75,13.3345675 C7.52507451,13.3345675 6.4800834,12.9614475 6.4800834,12.2239848 C6.4800834,11.486522 7.52507451,11.3000912 8.75,11.3000912 C9.97492549,11.3000912 10.8367487,11.751946 10.8367487,12.4894087 C10.8367487,13.2268715 9.97492549,13.3345675 8.75,13.3345675 Z M8.75,12.8345675 C9.73421351,12.8345675 10.3367487,12.8565155 10.3367487,12.4894087 C10.3367487,12.122302 9.73421351,11.8000912 8.75,11.8000912 C7.76578649,11.8000912 6.9800834,11.856878 6.9800834,12.2239848 C6.9800834,12.5910915 7.76578649,12.8345675 8.75,12.8345675 Z" id="Oval-4"></path>
            </g>
        </g>
    </g>
</svg>