<svg xmlns="http://www.w3.org/2000/svg" width="54" height="54" viewBox="0 0 54 54">
    <g fill="#BCBCBC" fill-rule="evenodd">
        <path fill-rule="nonzero" d="M47.068 0H6.932A6.94 6.94 0 0 0 0 6.932v40.136A6.94 6.94 0 0 0 6.932 54h40.136A6.94 6.94 0 0 0 54 47.068V6.932A6.94 6.94 0 0 0 47.068 0zM6.932 3.649h40.136a3.288 3.288 0 0 1 3.283 3.283v39.031l-20.93-8.404c-1.213-1.213-3.19-1.204-4.414.02L3.65 45.962V6.933a3.288 3.288 0 0 1 3.283-3.284z"/>
        <path stroke="#BCBCBC" d="M37.765 22.303c-1.215-.767-2.542-1.173-3.838-1.173-1.727 0-3.254.701-4.19 1.923-.764.995-1.04 2.234-.797 3.525-.836.807-1.614 1.785-2.173 2.896a14.938 14.938 0 0 0-2.108-4.066c.8-1.923.66-3.888-.405-5.568-1.298-2.045-3.72-3.266-6.481-3.266-1.295 0-2.611.268-3.912.796a.504.504 0 0 0-.078.894c.883.553 1.308 1.761 1.758 3.04.792 2.253 1.778 5.056 5.834 5.056h.001c.754 0 1.61-.104 2.537-.298 2.72 3.71 2.93 7.988 2.7 10.676a.504.504 0 1 0 1.005.085 18.867 18.867 0 0 0-.409-5.802c.007-.015.018-.027.023-.044.458-1.412 1.343-2.622 2.307-3.574 1.015.407 1.893.609 2.677.609 2.243 0 3.177-1.647 3.927-2.97.463-.816.9-1.587 1.541-1.845a.504.504 0 0 0 .081-.894z"/>
    </g>
</svg>
