<?xml version="1.0" encoding="UTF-8"?>
<svg width="6px" height="12px" viewBox="0 0 6 12" version="1.1" xmlns="http://www.w3.org/2000/svg" xmlns:xlink="http://www.w3.org/1999/xlink">
    <g id="Symbols" stroke="none" stroke-width="1" fill="none" fill-rule="evenodd">
        <g id="footer" transform="translate(-1146.000000, -77.000000)" fill="#CDCDCD">
            <g id="Group-35" transform="translate(1135.000000, 30.000000)">
                <g id="Group-34" transform="translate(1.000000, 40.000000)">
                    <g id="Group-33">
                        <g id="Group-5">
                            <path d="M13.7222222,11.5555556 L15.5277778,11.5555556 L15.3020833,13.3611111 L13.7222222,13.3611111 L13.7222222,18.7777778 L11.3806424,18.7777778 L11.3806424,13.3611111 L10.1111111,13.3611111 L10.1111111,11.5555556 L11.3806424,11.5555556 L11.3806424,10.3424479 C11.3806424,9.55251341 11.578123,8.9553695 11.9730903,8.55099826 C12.3680575,8.14662703 13.0263264,7.94444444 13.9479167,7.94444444 L15.5277778,7.94444444 L15.5277778,9.75 L14.5685764,9.75 C14.2112251,9.75 13.980831,9.80642305 13.8773872,9.91927083 C13.7739433,10.0321186 13.7222222,10.2201954 13.7222222,10.4835069 L13.7222222,11.5555556 Z" id="facebook"></path>
                        </g>
                    </g>
                </g>
            </g>
        </g>
    </g>
</svg>