<svg xmlns="http://www.w3.org/2000/svg" width="28" height="28" viewBox="0 0 28 28">
    <g fill="none" fill-rule="evenodd" stroke="#FFF" transform="translate(1 1)">
        <circle cx="13" cy="13" r="13"/>
        <path fill="#000" fill-rule="nonzero" stroke-width=".4" d="M12.028 12.585a.57.57 0 0 0 .57-.57V9.503c0-.85-.26-1.67-.733-2.313a3.453 3.453 0 0 0-1.503-1.177.168.168 0 0 0-.126 0A3.452 3.452 0 0 0 8.733 7.19C8.26 7.832 8 8.653 8 9.502v2.514c0 .314.255.57.57.57h.865v.625l-.352 4.928c-.025.35.093.692.324.94.213.23.497.355.8.355h.183c.303 0 .587-.126.8-.355a1.25 1.25 0 0 0 .325-.94l-.352-4.928v-.626h.865zm-.434-5.197c.43.585.668 1.336.668 2.114v2.514a.234.234 0 0 1-.234.233h-1.561V6.43c.442.222.82.543 1.127.96zm-3.258 4.628V9.502c0-.778.237-1.529.667-2.114a3.137 3.137 0 0 1 1.128-.96v5.821H8.569a.234.234 0 0 1-.233-.233zm2.608 6.834a.754.754 0 0 1-.554.248h-.183a.754.754 0 0 1-.554-.248.914.914 0 0 1-.236-.687l.342-4.779h1.08l.34 4.779a.914.914 0 0 1-.235.687zm-.117-5.801H9.77v-.464h1.057v.464zm7.052-.464c.331 0 .601-.27.601-.601V6.168a.168.168 0 1 0-.336 0v4.307H16.93V6.168a.168.168 0 1 0-.336 0v4.307h-1.31V6.168a.168.168 0 1 0-.336 0v4.307h-1.072V6.168a.168.168 0 1 0-.336 0v5.816c0 .331.27.601.602.601h1.004v.626l-.352 4.928c-.025.349.093.692.325.94.213.23.497.355.8.355h.182c.303 0 .588-.126.8-.355a1.25 1.25 0 0 0 .325-.94l-.352-4.928v-.626h1.005zm-4.003-.601V10.81h4.268v1.173c0 .146-.119.265-.265.265h-3.737a.266.266 0 0 1-.266-.265zm2.78 6.866a.753.753 0 0 1-.555.248h-.182a.754.754 0 0 1-.555-.248.914.914 0 0 1-.235-.688l.341-4.778h1.08l.341 4.778a.915.915 0 0 1-.235.688zm-.118-5.801h-1.056v-.464h1.056v.464z"/>
    </g>
</svg>
