<svg xmlns="http://www.w3.org/2000/svg" width="52" height="69" viewBox="0 0 52 69">
    <g fill="none" fill-rule="evenodd">
        <path fill="#FFF" d="M18.563 60.469l1.345 6.17 1.34-6.17h1.878V69h-1.442v-2.309l.132-3.556L20.392 69h-.978l-1.423-5.865.132 3.556V69h-1.437v-8.531h1.877zm9.116 6.785h-1.96L25.336 69h-1.521l2.225-8.531h1.315L29.596 69h-1.535l-.382-1.746zm-1.648-1.436h1.33l-.665-3.04-.665 3.04zM31.7 66v3h-1.438v-8.531h2.426c.704 0 1.266.261 1.685.785.419.523.628 1.203.628 2.039 0 .836-.207 1.496-.621 1.98-.414.485-.988.727-1.721.727h-.959zm0-1.436h.988a.73.73 0 0 0 .636-.322c.15-.215.225-.527.225-.937 0-.426-.077-.765-.23-1.017-.154-.252-.359-.38-.616-.384h-1.003v2.66zM3.229 50.75V55H.97V42.914H4.78c1.105 0 1.987.37 2.645 1.112.657.742.986 1.705.986 2.889 0 1.184-.325 2.12-.975 2.806-.65.686-1.55 1.029-2.703 1.029H3.23zm0-2.034h1.55c.43 0 .763-.152.999-.456.235-.305.353-.747.353-1.328 0-.604-.12-1.084-.361-1.44-.24-.357-.563-.539-.967-.544H3.229v3.768zm8.945 4.259h3.961V55H9.916V42.914h2.258v10.06zm10.603-.449h-3.079L19.1 55h-2.388l3.494-12.086h2.065L25.787 55h-2.411l-.599-2.474zm-2.587-2.033h2.088l-1.044-4.308-1.044 4.308zM34.647 55H32.39l-3.302-7.927V55h-2.257V42.914h2.257l3.31 7.936v-7.936h2.25V55zM43.7 44.948h-2.764V55H38.67V44.948h-2.718v-2.034H43.7v2.034zm6.02 6.881c0-.492-.117-.865-.35-1.116-.233-.252-.656-.514-1.27-.785-1.121-.46-1.928-.997-2.42-1.614-.49-.617-.736-1.346-.736-2.188 0-1.018.334-1.835 1.002-2.452.668-.617 1.516-.926 2.545-.926.686 0 1.298.156 1.835.469.538.313.951.754 1.24 1.324.29.57.434 1.217.434 1.942h-2.25c0-.564-.111-.994-.334-1.29-.222-.296-.544-.444-.963-.444-.394 0-.702.125-.922.377-.22.252-.33.591-.33 1.017 0 .332.123.632.369.9.245.27.68.547 1.305.835 1.09.426 1.882.949 2.376 1.569s.741 1.408.741 2.365c0 1.052-.31 1.874-.929 2.466-.62.592-1.461.888-2.526.888-.722 0-1.38-.16-1.973-.481a3.453 3.453 0 0 1-1.394-1.378c-.335-.598-.503-1.304-.503-2.117h2.265c0 .697.126 1.204.377 1.519.25.315.66.473 1.228.473.788 0 1.183-.45 1.183-1.353z"/>
        <g stroke="#FFF">
            <path d="M47.189 37.594c-10.677-8.76-19.931-11.529-27.761-8.305-11.746 4.836 1.092 7.75 8.805 8.305 5.142.37 11.461.37 18.956 0z"/>
            <path d="M27.367 33.015c-1.891-3.512-3.558-6.048-5-7.61-1.443-1.56-3.887-3.472-7.332-5.735M26.297 15.546V31.14M35.178 18.317c-2.25 1.047-3.86 1.95-4.83 2.709-.968.759-2.312 2.36-4.031 4.802"/>
            <path d="M19.746 9c-3.501 3.058-5.389 5.294-5.662 6.709-.411 2.123.687 4.826 3.382 5.708 2.695.882 5.68 1.089 6.377-2.514.465-2.402-.9-5.703-4.097-9.903z"/>
            <path d="M8.337 3.746c-.637 4.604-.594 7.53.128 8.778 1.082 1.871 3.685 3.192 6.297 2.09 2.612-1.103 5.001-2.906 3.163-6.082-1.225-2.118-4.42-3.713-9.588-4.786zM26.72.977c-2.526 2.406-4.289 4.564-5.288 6.474-1.499 2.865.323 4.282 1.499 6.413 1.175 2.132 4.669 2.35 7.147-1.013 1.652-2.243.533-6.201-3.358-11.874z"/>
            <path d="M30.689 2.45c-1.84 2.824-2.865 5.308-3.076 7.453-.317 3.217-.983 5.518 3.076 8.422 4.059 2.904 7.105-1.96 7.462-4.698.237-1.826-2.25-5.551-7.462-11.176zM4.274 15.236c1.588 3.386 2.899 5.341 3.932 5.866 1.55.789 3.885.539 5.164-1.35 1.28-1.887 2.101-4.15-.53-5.488-1.754-.892-4.61-.568-8.566.972z"/>
            <path d="M43.846 23.725c-.976-3.61-1.927-5.763-2.853-6.46-1.39-1.045-3.732-1.205-5.32.433-1.588 1.637-2.79 3.723-.43 5.497 1.572 1.183 4.44 1.36 8.603.53zM8.683 27.105c3.578 1.086 5.909 1.42 6.99 1.003 1.624-.624 3-2.526 2.453-4.74-.547-2.214-1.68-4.339-4.434-3.279-1.837.707-3.506 3.046-5.01 7.016zM43.89 1.465c-3.701.528-5.955 1.21-6.76 2.045-1.206 1.252-1.65 3.557-.218 5.333 1.431 1.775 3.355 3.222 5.404 1.097 1.365-1.417 1.89-4.242 1.574-8.475z"/>
            <path d="M47.616 11.213c-3.305-1.748-5.529-2.521-6.67-2.319-1.713.304-3.427 1.908-3.312 4.186.115 2.278.82 4.58 3.726 4.064 1.938-.343 4.023-2.32 6.256-5.931z"/>
        </g>
    </g>
</svg>
