<?xml version="1.0" encoding="UTF-8"?>
<svg width="16px" height="10px" viewBox="0 0 16 10" version="1.1" xmlns="http://www.w3.org/2000/svg" xmlns:xlink="http://www.w3.org/1999/xlink">
    <!-- Generator: Sketch 50.2 (55047) - http://www.bohemiancoding.com/sketch -->
    <title>g+</title>
    <desc>Created with Sketch.</desc>
    <defs></defs>
    <g id="Symbols" stroke="none" stroke-width="1" fill="none" fill-rule="evenodd">
        <g id="footer" transform="translate(-1141.000000, -121.000000)" fill="#CDCDCD" fill-rule="nonzero">
            <g id="Group-35" transform="translate(1135.000000, 30.000000)">
                <g id="Group-34" transform="translate(1.000000, 40.000000)">
                    <g id="Group-33">
                        <g id="Group-7" transform="translate(0.000000, 43.000000)">
                            <path d="M10.4722222,12.1333333 L15.1666667,12.1333333 L15.1666667,13 C15.1666667,15.3894 13.0607389,17.3333333 10.4722222,17.3333333 C7.88370556,17.3333333 5.77777778,15.3894 5.77777778,13 C5.77777778,10.6106 7.88370556,8.66666667 10.4722222,8.66666667 C11.5998278,8.66666667 12.6851833,9.04106667 13.5301833,9.72053333 L12.2964833,11.0274667 C11.7932389,10.6227333 11.1454056,10.4 10.4722222,10.4 C8.9193,10.4 7.65555556,11.5665333 7.65555556,13 C7.65555556,14.4334667 8.9193,15.6 10.4722222,15.6 C11.6965333,15.6 12.7405778,14.8754667 13.1283389,13.8666667 L10.4722222,13.8666667 L10.4722222,12.1333333 Z M18.4888889,11.8444444 L20.2222222,11.8444444 L20.2222222,12.7111111 L18.4888889,12.7111111 L18.4888889,14.4444444 L17.6222222,14.4444444 L17.6222222,12.7111111 L15.8888889,12.7111111 L15.8888889,11.8444444 L17.6222222,11.8444444 L17.6222222,10.1111111 L18.4888889,10.1111111 L18.4888889,11.8444444 Z" id="g+"></path>
                        </g>
                    </g>
                </g>
            </g>
        </g>
    </g>
</svg>