<?xml version="1.0" encoding="UTF-8"?>
<svg width="12px" height="12px" viewBox="0 0 12 12" version="1.1" xmlns="http://www.w3.org/2000/svg" xmlns:xlink="http://www.w3.org/1999/xlink">
    <!-- Generator: Sketch 50.2 (55047) - http://www.bohemiancoding.com/sketch -->
    <title>insta</title>
    <desc>Created with Sketch.</desc>
    <defs></defs>
    <g id="Symbols" stroke="none" stroke-width="1" fill="none" fill-rule="evenodd">
        <g id="footer" transform="translate(-1286.000000, -77.000000)" fill="#CDCDCD">
            <g id="Group-35" transform="translate(1135.000000, 30.000000)">
                <g id="Group-34" transform="translate(1.000000, 40.000000)">
                    <g id="Group-33-Copy" transform="translate(100.000000, 0.000000)">
                        <g id="Group-4" transform="translate(43.000000, 0.000000)">
                            <path d="M18.0555556,9.20833333 L18.0555556,16.8179977 C18.0555556,17.1515256 17.9326787,17.4411639 17.6869213,17.6869213 C17.4411639,17.9326787 17.1427487,18.0555556 16.7916667,18.0555556 L9.20833333,18.0555556 C8.85725133,18.0555556 8.55883611,17.9326787 8.3130787,17.6869213 C8.0673213,17.4411639 7.94444444,17.1515256 7.94444444,16.8179977 L7.94444444,9.20833333 C7.94444444,8.85725133 8.0673213,8.55883611 8.3130787,8.3130787 C8.55883611,8.0673213 8.85725133,7.94444444 9.20833333,7.94444444 L16.7916667,7.94444444 C17.1427487,7.94444444 17.4411639,8.0673213 17.6869213,8.3130787 C17.9326787,8.55883611 18.0555556,8.85725133 18.0555556,9.20833333 Z M13,10.8333333 C12.4041637,10.8333333 11.8940993,11.045484 11.4697917,11.4697917 C11.045484,11.8940993 10.8333333,12.4041637 10.8333333,13 C10.8333333,13.5958363 11.045484,14.1059007 11.4697917,14.5302083 C11.8940993,14.954516 12.4041637,15.1666667 13,15.1666667 C13.5958363,15.1666667 14.1059007,14.954516 14.5302083,14.5302083 C14.954516,14.1059007 15.1666667,13.5958363 15.1666667,13 C15.1666667,12.4041637 14.954516,11.8940993 14.5302083,11.4697917 C14.1059007,11.045484 13.5958363,10.8333333 13,10.8333333 Z M17.3333333,10.4 L17.3333333,9.1 C17.3333333,8.81110967 17.1888903,8.66666667 16.9,8.66666667 L15.6,8.66666667 C15.3111097,8.66666667 15.1666667,8.81110967 15.1666667,9.1 L15.1666667,10.4 C15.1666667,10.6888903 15.3111097,10.8333333 15.6,10.8333333 L16.9,10.8333333 C17.1888903,10.8333333 17.3333333,10.6888903 17.3333333,10.4 Z M16.9270833,17.3333333 C17.197918,17.3333333 17.3333333,17.1929026 17.3333333,16.912037 L17.3333333,12.2777778 L15.925,12.2777778 C15.9972226,12.5059811 16.0333333,12.7868425 16.0333333,13.1203704 C16.0333333,13.9454131 15.7444473,14.6387896 15.1666667,15.2005208 C14.5708304,15.7798061 13.8486154,16.0694444 13,16.0694444 C12.1694403,16.0694444 11.456253,15.7798061 10.8604167,15.2005208 C10.2645804,14.6212355 9.96666667,13.927859 9.96666667,13.1203704 C9.96666667,12.8570589 10.0118051,12.5761975 10.1020833,12.2777778 L8.66666667,12.2777778 L8.66666667,16.912037 C8.66666667,17.0349157 8.7118051,17.1358503 8.80208333,17.2148438 C8.89236156,17.2938372 9.00069381,17.3333333 9.12708333,17.3333333 L16.9270833,17.3333333 Z" id="insta"></path>
                        </g>
                    </g>
                </g>
            </g>
        </g>
    </g>
</svg>