<svg xmlns="http://www.w3.org/2000/svg" width="19" height="16" viewBox="0 0 19 16">
    <path fill="#888" fill-rule="nonzero" stroke="#979797" stroke-width=".2" d="M17.837 4.983c-.845-.534-1.767-.816-2.669-.816-1.2 0-2.262.487-2.913 1.337-.53.692-.722 1.553-.554 2.45a7.584 7.584 0 0 0-1.51 2.014 10.385 10.385 0 0 0-1.466-2.826c.556-1.337.46-2.704-.282-3.872C7.542 1.85 5.857 1 3.938 1c-.9 0-1.815.186-2.72.553a.35.35 0 0 0-.054.622c.614.384.91 1.224 1.222 2.113.551 1.566 1.236 3.515 4.056 3.515h.001c.524 0 1.119-.072 1.763-.207 1.892 2.579 2.037 5.553 1.878 7.422a.35.35 0 1 0 .698.06c.079-.922.099-2.398-.284-4.034.005-.01.012-.02.016-.03.318-.983.934-1.824 1.604-2.486.705.283 1.316.423 1.861.423 1.56 0 2.208-1.144 2.73-2.064.322-.568.626-1.104 1.071-1.283a.35.35 0 0 0 .057-.621zM8.213 6.5C7.446 5.62 6.465 4.795 5.21 4.096a.35.35 0 0 0-.342.612c1.19.663 2.119 1.438 2.844 2.27a7.422 7.422 0 0 1-1.269.125c-2.324 0-2.844-1.48-3.395-3.047-.262-.743-.53-1.506-1.016-2.052a6.317 6.317 0 0 1 1.906-.303c1.678 0 3.14.727 3.913 1.945.546.86.668 1.857.362 2.855zm7.886.04c-.498.88-.97 1.71-2.12 1.71-.366 0-.793-.085-1.272-.25.834-.677 1.644-1.067 1.987-1.092a.35.35 0 0 0-.052-.7c-.489.037-1.39.46-2.297 1.18a2.285 2.285 0 0 1 .466-1.459c.51-.665 1.391-1.062 2.357-1.062.6 0 1.216.15 1.806.435-.36.33-.62.79-.875 1.239z"/>
</svg>
