<?xml version="1.0" encoding="UTF-8"?>
<svg width="13px" height="13px" viewBox="0 0 13 13" version="1.1" xmlns="http://www.w3.org/2000/svg" xmlns:xlink="http://www.w3.org/1999/xlink">
    <!-- Generator: Sketch 50.2 (55047) - http://www.bohemiancoding.com/sketch -->
    <title>дштлувшт</title>
    <desc>Created with Sketch.</desc>
    <defs></defs>
    <g id="Symbols" stroke="none" stroke-width="1" fill="none" fill-rule="evenodd">
        <g id="footer" transform="translate(-1186.000000, -118.000000)" fill="#CDCDCD" fill-rule="nonzero">
            <g id="Group-35" transform="translate(1135.000000, 30.000000)">
                <g id="Group-34" transform="translate(1.000000, 40.000000)">
                    <g id="Group-33">
                        <g id="Group-8" transform="translate(43.000000, 43.000000)">
                            <path d="M7.37507729,9.61569683 L10.0302014,9.61569683 L10.0302014,17.5890725 L7.37507729,17.5890725 L7.37507729,9.61569683 Z M8.71873081,5.77777778 C9.16390992,5.77777778 9.52074083,5.90783422 9.78882901,6.16803164 C10.0569454,6.4281727 10.1938217,6.7566251 10.1991761,7.15361428 C10.2045024,7.54519267 10.0690915,7.87237691 9.7928871,8.13513883 C9.51668273,8.39804165 9.15322923,8.52939443 8.70261114,8.52939443 L8.68651965,8.52939443 C8.24669498,8.52939443 7.89262583,8.39792892 7.62450948,8.13513883 C7.35630858,7.87237691 7.22222222,7.54507994 7.22222222,7.15361428 C7.22222222,6.75659692 7.36028214,6.4281727 7.63657105,6.16803164 C7.91288815,5.90794694 8.27357989,5.77777778 8.71873081,5.77777778 Z M18.7438983,10.3440129 C19.3018024,10.9526432 19.5805149,11.8442978 19.5807122,13.0191175 L19.5807122,17.5888752 L16.9336198,17.5888752 L16.9336198,13.3246585 C16.9336198,12.7614282 16.8250092,12.3202226 16.6078164,12.0010982 C16.390539,11.6819456 16.0511523,11.5223834 15.5899944,11.5223834 C15.2519604,11.5223834 14.9691052,11.6149025 14.7410344,11.8001096 C14.5129355,11.9850913 14.3428053,12.214233 14.2300803,12.4879292 C14.1709561,12.648985 14.1416194,12.8661779 14.1416194,13.1396768 L14.1416194,17.5891289 L11.494527,17.5891289 C11.5052922,15.4489043 11.5106466,13.7137288 11.5106466,12.3834332 C11.5106466,11.0532503 11.5079694,10.259441 11.5025304,10.0018926 L11.4944142,9.61564047 L14.1416194,9.61564047 L14.1416194,10.7494283 C14.2437482,10.5883725 14.3484134,10.4460008 14.4554457,10.3237788 C14.5680016,10.1951032 14.7196167,10.0556624 14.909981,9.90545638 C15.100458,9.75525035 15.3337424,9.63860818 15.6099467,9.55547352 C15.8862356,9.47228248 16.1934112,9.43071515 16.5313325,9.43071515 C17.4484911,9.43071515 18.1861633,9.73518531 18.7438983,10.3440129 Z" id="дштлувшт"></path>
                        </g>
                    </g>
                </g>
            </g>
        </g>
    </g>
</svg>