<svg xmlns="http://www.w3.org/2000/svg" xmlns:xlink="http://www.w3.org/1999/xlink" width="30" height="30" viewBox="0 0 30 30">
    <defs>
        <circle id="a" cx="14" cy="14" r="14"/>
    </defs>
    <g fill="none" fill-rule="evenodd" transform="translate(1 1)">
        <mask id="b" fill="#fff">
            <use xlink:href="#a"/>
        </mask>
        <use fill="#FFF" stroke="#979797" xlink:href="#a"/>
        <path fill="#888" fill-rule="nonzero" d="M22.773 23.58c-.596-.289-2.107-.559-3.52-.96.002-.002-.254-.081-.77-.236-.152-.051-.3-.105-.443-.16a7.648 7.648 0 0 1-.487-.209 5.083 5.083 0 0 1-.406-.216 3.25 3.25 0 0 1-.35-.245 1.839 1.839 0 0 1-.267-.266 1.256 1.256 0 0 1-.104-.15 1.07 1.07 0 0 1-.112-.286.984.984 0 0 1-.024-.194v-.879c.9-.704 1.56-1.789 1.814-3.049.478.006.853-.761.89-1.709.02-.554-.08-1.045-.252-1.358.257-.493.503-1.198.558-2.145 0 0 .265-6.084-5.482-4.132 0 0-5.586-1.952-5.386 4.244a4.97 4.97 0 0 0 .545 2.06c-.162.315-.256.794-.235 1.331.036.948.411 1.715.84 1.715.303 1.255.963 2.34 1.863 3.043v.879a.905.905 0 0 1-.052.297 1.114 1.114 0 0 1-.172.316 2.01 2.01 0 0 1-.11.126 2.598 2.598 0 0 1-.31.262 3.172 3.172 0 0 1-.37.23 6.947 6.947 0 0 1-.69.317l-.155.058-1.103.357c-1.413.4-2.924.67-3.52.958-.395.19-.73.467-.963.877C4 24.457 10.87 32 13.818 32c2.42 0 5.813-2.425 10.182-7.276-.232-.408-.834-.955-1.227-1.145z" mask="url(#b)"/>
    </g>
</svg>
