<svg xmlns="http://www.w3.org/2000/svg" width="20" height="22" viewBox="0 0 20 22">
    <path fill="#888" fill-rule="nonzero" d="M3.34 7.744c0-3.66 2.521-4.912 4.462-5.335-.005-.069-.022-.135-.022-.206C7.78.987 8.777 0 10.004 0c1.227 0 2.224.987 2.224 2.203 0 .071-.014.137-.022.206 1.94.423 4.462 1.675 4.462 5.335 0 5.951 3.332 7.662 3.332 7.662v2.2H0v-2.2c.008 0 3.34-1.711 3.34-7.662zm7.783-5.541c0-.61-.5-1.106-1.116-1.106-.616 0-1.116.495-1.116 1.106 0 .01.005.022.008.035.658-.063 1.108-.038 1.108-.038s.45-.025 1.108.038c0-.013.008-.022.008-.035zm2.047 16.594H6.928C7.383 20.076 7.78 22 10.048 22c2.27 0 2.666-1.921 3.122-3.203z"/>
</svg>
