<?xml version="1.0" encoding="UTF-8"?>
<svg width="12px" height="16px" viewBox="0 0 12 16" version="1.1" xmlns="http://www.w3.org/2000/svg" xmlns:xlink="http://www.w3.org/1999/xlink">
    <!-- Generator: Sketch 50.2 (55047) - http://www.bohemiancoding.com/sketch -->
    <title>pinterest</title>
    <desc>Created with Sketch.</desc>
    <defs></defs>
    <g id="Symbols" stroke="none" stroke-width="1" fill="none" fill-rule="evenodd">
        <g id="footer" transform="translate(-1243.000000, -118.000000)" fill="#CDCDCD" fill-rule="nonzero">
            <g id="Group-35" transform="translate(1135.000000, 30.000000)">
                <g id="Group-34" transform="translate(1.000000, 40.000000)">
                    <g id="Group-33-Copy" transform="translate(100.000000, 0.000000)">
                        <g id="Group-9" transform="translate(0.000000, 43.000000)">
                            <path d="M17.2791329,7.28438915 C16.2671066,6.31285907 14.8665726,5.77777778 13.3355402,5.77777778 C10.996812,5.77777778 9.55838978,6.73645718 8.76354464,7.54064396 C7.78395325,8.53171086 7.22222222,9.84764854 7.22222222,11.1511149 C7.22222222,12.787703 7.90676968,14.0438448 9.05313534,14.5111636 C9.13009714,14.5426976 9.20753313,14.5585831 9.2834517,14.5585831 C9.52529099,14.5585831 9.71691307,14.4003443 9.78330032,14.1465079 C9.82199461,14.0008827 9.91166482,13.6416328 9.95064363,13.4856702 C10.0341019,13.1776808 9.96667141,13.0295423 9.78467549,12.8150641 C9.45311856,12.4227628 9.29872077,11.9588581 9.29872077,11.3551135 C9.29872077,9.56180398 10.634053,7.65587327 13.1089699,7.65587327 C15.072705,7.65587327 16.2925708,8.77198531 16.2925708,10.5686141 C16.2925708,11.7023662 16.0483606,12.7523281 15.6047989,13.525218 C15.2965723,14.0622435 14.7545678,14.7024064 13.9224983,14.7024064 C13.5626794,14.7024064 13.2394683,14.5545999 13.0355172,14.2969225 C12.8428519,14.0533287 12.7793572,13.7386531 12.8568406,13.4107 C12.944377,13.0401643 13.0637318,12.6536482 13.1792456,12.2799828 C13.3899303,11.5975218 13.5890921,10.9529489 13.5890921,10.4386848 C13.5890921,9.55905365 13.0483204,8.96801739 12.2435646,8.96801739 C11.2208215,8.96801739 10.4195748,10.0067883 10.4195748,11.3328737 C10.4195748,11.9832317 10.5924187,12.4696607 10.6706608,12.6564459 C10.5418221,13.2023389 9.77609256,16.4477748 9.63084673,17.0597704 C9.54686685,17.4170287 9.04094854,20.2387242 9.87832894,20.4637296 C10.8191786,20.7165228 11.6601629,17.9683749 11.745755,17.6578248 C11.8151297,17.4052687 12.05787,16.450288 12.2066249,15.863235 C12.6608085,16.300727 13.3921116,16.5964822 14.1036881,16.5964822 C15.4451375,16.5964822 16.6515362,15.9928324 17.5006766,14.8968262 C18.3242106,13.8337765 18.7777778,12.3521078 18.7777778,10.7249561 C18.7777778,9.45288146 18.2315055,8.19882619 17.2791329,7.28438915 Z" id="pinterest"></path>
                        </g>
                    </g>
                </g>
            </g>
        </g>
    </g>
</svg>