<svg xmlns="http://www.w3.org/2000/svg" width="19" height="15" viewBox="0 0 19 15">
    <path fill="#FFF" fill-rule="nonzero" stroke="#FFF" stroke-width=".4" d="M16.17 14.576H1.18a.18.18 0 1 1 0-.361h14.99a.18.18 0 1 1 0 .361zm-1.235 0a.18.18 0 0 1-.18-.18v-4.21a.18.18 0 1 1 .361 0v4.21c0 .1-.08.18-.18.18zm2.884-3.423a.181.181 0 0 1-.092-.026 5.5 5.5 0 0 0-5.583 0 .18.18 0 0 1-.252-.24l1.591-3.023a5.297 5.297 0 0 0-1.243.533.181.181 0 0 1-.245-.253l2.03-3.209a3.03 3.03 0 0 0-.673.293.181.181 0 0 1-.258-.228l1.675-3.9c.057-.133.275-.133.333 0L16.777 5a.18.18 0 0 1-.258.228 3.039 3.039 0 0 0-.672-.293l2.029 3.21a.18.18 0 0 1-.245.252 5.297 5.297 0 0 0-1.243-.533l1.591 3.023a.18.18 0 0 1-.16.266zm-2.884-1.149c.838 0 1.676.18 2.454.538L15.88 7.678a.18.18 0 0 1 .197-.262c.394.081.775.203 1.14.363l-1.91-3.02a.18.18 0 0 1 .181-.276c.267.043.522.114.764.211l-1.317-3.065-1.316 3.065c.242-.097.497-.168.763-.211a.18.18 0 1 1 .182.275l-1.91 3.02a5.67 5.67 0 0 1 1.14-.362.18.18 0 0 1 .196.261l-1.508 2.865a5.857 5.857 0 0 1 2.453-.538zm-8.754.131c.003-.134.002-1.142-.864-1.759l-.08.08a.775.775 0 0 1-.559.217c-.285 0-.598-.125-.856-.368a4.727 4.727 0 0 1-.109-.105c-.96-.96-1.032-2.412-1.035-2.473a.18.18 0 0 1 .189-.189c.061.003 1.513.075 2.473 1.035l.105.108c.426.453.492 1.075.151 1.415l-.02.021c.595.446.826 1.049.914 1.486a1.32 1.32 0 0 1 .569-.396c.06-.022.104-.046.15-.071.036-.02.073-.04.118-.06a.18.18 0 1 1 .154.327c-.037.017-.069.034-.1.05a1.35 1.35 0 0 1-.2.095c-.404.143-.671.545-.797 1.193.77.16 1.401.885 1.661 1.642.225-.11.467-.168.714-.168.965 0 1.713 1.172 1.713 2.18a.18.18 0 1 1-.361 0c0-.818-.624-1.819-1.352-1.819-.253 0-.502.08-.72.229a.182.182 0 0 1-.278-.107c-.193-.8-.879-1.628-1.694-1.628-.868 0-1.587.677-1.71 1.61a.18.18 0 0 1-.282.125 1.273 1.273 0 0 0-.72-.229c-.728 0-1.352 1-1.352 1.82a.18.18 0 1 1-.361 0c0-1.01.748-2.181 1.713-2.181.238 0 .473.054.692.157.234-.963 1.027-1.642 1.974-1.663.04-.212.093-.403.16-.574zM3.06 5.921c.056.417.252 1.367.908 2.023l.1.098c.305.285.714.357.912.158l.36-.36c.198-.198.127-.607-.16-.91a4.821 4.821 0 0 0-.097-.101c-.656-.656-1.606-.852-2.023-.908zm5.292 4.063a1.04 1.04 0 0 1-.75-.291l-.52-.52c-.461-.46-.364-1.31.22-1.932.046-.048.095-.1.15-.155 1.365-1.364 3.433-1.468 3.52-1.471.056-.004.1.016.136.052a.18.18 0 0 1 .053.136c-.004.087-.107 2.155-1.472 3.52a6.14 6.14 0 0 1-.155.15c-.358.337-.79.511-1.182.511zm2.429-3.99c-.546.063-2.05.325-3.072 1.348-.053.052-.1.1-.143.147-.443.47-.545 1.112-.228 1.43l.52.518c.317.318.958.215 1.429-.227.046-.043.094-.09.147-.143 1.023-1.023 1.284-2.527 1.347-3.072z"/>
</svg>
