<?xml version="1.0" encoding="UTF-8"?>
<svg width="46px" height="39px" viewBox="0 0 46 39" version="1.1" xmlns="http://www.w3.org/2000/svg" xmlns:xlink="http://www.w3.org/1999/xlink">
    <!-- Generator: Sketch 50.2 (55047) - http://www.bohemiancoding.com/sketch -->
    <title>Group</title>
    <desc>Created with Sketch.</desc>
    <defs></defs>
    <g id="Symbols" stroke="none" stroke-width="1" fill="none" fill-rule="evenodd">
        <g id="footer" transform="translate(-150.000000, -35.000000)" stroke="#FFFFFF">
            <g id="Group-11" transform="translate(135.000000, 33.000000)">
                <g id="Group-2" transform="translate(12.000000, 0.000000)">
                    <g id="Group" transform="translate(3.000000, 0.000000)">
                        <path d="M44.1889429,39.5944735 C33.5115491,30.8335749 24.2577694,28.0651247 16.4276037,31.2891229 C4.68235526,36.1251201 17.5200615,39.0395317 25.2333166,39.5944735 C30.3754868,39.9644346 36.6940289,39.9644346 44.1889429,39.5944735 Z" id="Path-2"></path>
                        <path d="M24.3667964,35.0154479 C22.4756246,31.5034466 20.8087509,28.9668783 19.3661751,27.4057429 C17.9235993,25.8446075 15.4798801,23.9327493 12.0350174,21.6701684" id="Path-3"></path>
                        <path d="M23.2967046,17.5456113 L23.2967046,33.1405824" id="Path-4"></path>
                        <path d="M32.178294,20.3172849 C29.9273624,21.3641656 28.3174619,22.2670763 27.3485926,23.026017 C26.3797232,23.7849577 25.0358509,25.3855923 23.3169758,27.827921" id="Path-5"></path>
                        <path d="M16.7464135,11 C13.2449563,14.0576475 11.3573517,16.2939875 11.0835994,17.7090199 C10.6729711,19.8315686 11.7710776,22.5351788 14.4658539,23.4170336 C17.1606301,24.2988884 20.1460559,24.5055004 20.8430424,20.9027588 C21.3077001,18.5009312 19.9421571,15.2000115 16.7464135,11 Z" id="Path-6"></path>
                        <path d="M9.77986001,4.66826076 C6.27840286,7.72590825 4.39079817,9.96224822 4.11704593,11.3772807 C3.70641758,13.4998293 4.80452411,16.2034395 7.49930036,17.0852944 C10.1940766,17.9671492 13.1795024,18.1737611 13.8764889,14.5710196 C14.3411466,12.1691919 12.9756036,8.8682723 9.77986001,4.66826076 Z" id="Path-6-Copy" transform="translate(8.999206, 11.148622) rotate(-41.000000) translate(-8.999206, -11.148622) "></path>
                        <path d="M18.1609389,4.93362657 C17.9546009,8.41665405 18.1372782,11.1973179 18.7089707,13.2756182 C19.5665096,16.3930686 21.8657084,16.1866139 24.1789671,16.9436186 C26.4922259,17.7006233 29.1966642,15.4782944 28.7146025,11.3279349 C28.3932281,8.56102857 24.8753402,6.42959246 18.1609389,4.93362657 Z" id="Path-6-Copy-3" transform="translate(23.424905, 11.011867) rotate(43.000000) translate(-23.424905, -11.011867) "></path>
                        <path d="M24.6505811,5.84415465 C23.9447059,9.13868884 23.8776146,11.8251061 24.4493072,13.9034063 C25.306846,17.0208567 25.5090925,19.4071028 30.339224,20.663576 C35.1693555,21.9200492 36.2703666,16.2875093 35.6217556,13.6034743 C35.1893483,11.8141176 31.5322901,9.22767774 24.6505811,5.84415465 Z" id="Path-6-Copy-3" transform="translate(29.928353, 13.343953) rotate(21.000000) translate(-29.928353, -13.343953) "></path>
                        <path d="M6.73995052,14.0637598 C3.92333527,16.5233691 2.40492282,18.3223085 2.18471315,19.460578 C1.85439864,21.1679823 2.73772906,23.3427996 4.90544026,24.0521745 C7.07315145,24.7615494 9.47466471,24.9277506 10.0353293,22.0296609 C10.4091056,20.0976012 9.31064604,17.4423008 6.73995052,14.0637598 Z" id="Path-6-Copy-2" transform="translate(6.111983, 19.276642) rotate(-74.000000) translate(-6.111983, -19.276642) "></path>
                        <path d="M37.0643571,17.6625438 C34.2477418,20.1221531 32.7293294,21.9210925 32.5091197,23.059362 C32.1788052,24.7667663 33.0621356,26.9415836 35.2298468,27.6509585 C37.397558,28.3603334 39.7990713,28.5265346 40.3597358,25.6284449 C40.7335122,23.6963852 39.6350526,21.0410848 37.0643571,17.6625438 Z" id="Path-6-Copy-4" transform="translate(36.436389, 22.875426) rotate(116.000000) translate(-36.436389, -22.875426) "></path>
                        <path d="M11.0643571,21.6625438 C8.24774182,24.1221531 6.72932936,25.9210925 6.50911969,27.059362 C6.17880519,28.7667663 7.06213561,30.9415836 9.22984681,31.6509585 C11.397558,32.3603334 13.7990713,32.5265346 14.3597358,29.6284449 C14.7335122,27.6963852 13.6350526,25.0410848 11.0643571,21.6625438 Z" id="Path-6-Copy-5" transform="translate(10.436389, 26.875426) rotate(238.000000) translate(-10.436389, -26.875426) "></path>
                        <path d="M38.1526271,2.28170577 C35.3360118,4.74131507 33.8175994,6.54025447 33.5973897,7.67852399 C33.2670752,9.38592826 34.1504056,11.5607456 36.3181168,12.2701205 C38.485828,12.9794954 40.8873413,13.1456966 41.4480058,10.2476069 C41.8217822,8.31554716 40.7233226,5.66024678 38.1526271,2.28170577 Z" id="Path-6-Copy-4" transform="translate(37.524659, 7.494588) rotate(33.000000) translate(-37.524659, -7.494588) "></path>
                        <path d="M40.1526271,9.28170577 C37.3360118,11.7413151 35.8175994,13.5402545 35.5973897,14.678524 C35.2670752,16.3859283 36.1504056,18.5607456 38.3181168,19.2701205 C40.485828,19.9794954 42.8873413,20.1456966 43.4480058,17.2476069 C43.8217822,15.3155472 42.7233226,12.6602468 40.1526271,9.28170577 Z" id="Path-6-Copy-4" transform="translate(39.524659, 14.494588) rotate(69.000000) translate(-39.524659, -14.494588) "></path>
                    </g>
                </g>
            </g>
        </g>
    </g>
</svg>