<svg xmlns="http://www.w3.org/2000/svg" width="12" height="12" viewBox="0 0 12 12">
    <path fill="#888" fill-rule="evenodd" d="M8.563 7.531L12 10.97 10.969 12 7.563 8.562v-.53l-.22-.188a4.351 4.351 0 0 1-2.905 1.062c-1.23 0-2.277-.432-3.141-1.297C.432 6.745 0 5.698 0 4.47c0-1.23.432-2.281 1.297-3.157C2.16.438 3.197 0 4.407 0c1.228 0 2.275.437 3.14 1.313.864.875 1.297 1.927 1.297 3.156A4.351 4.351 0 0 1 7.78 7.375L8 7.531h.563zm-4.126 0c.855 0 1.584-.297 2.188-.89a2.93 2.93 0 0 0 .906-2.172 2.98 2.98 0 0 0-.906-2.188 2.98 2.98 0 0 0-2.188-.906 2.93 2.93 0 0 0-2.171.906 3.007 3.007 0 0 0-.891 2.188c0 .854.297 1.578.89 2.172.594.593 1.318.89 2.172.89z"/>
</svg>
