<svg xmlns="http://www.w3.org/2000/svg" width="23" height="23" viewBox="0 0 23 23">
    <path fill="#888" fill-rule="evenodd" d="M16.411 14.435L23 21.023 21.023 23l-6.528-6.589v-1.018l-.42-.36c-1.597 1.358-3.453 2.037-5.57 2.037-2.356 0-4.362-.828-6.02-2.485C.83 12.928 0 10.92 0 8.565c0-2.356.829-4.372 2.486-6.05C4.143.84 6.129 0 8.446 0c2.355 0 4.362.839 6.019 2.516s2.486 3.693 2.486 6.05c0 2.115-.68 3.972-2.037 5.57l.42.299h1.077zm-7.906 0c1.637 0 3.035-.57 4.193-1.707 1.158-1.138 1.737-2.526 1.737-4.163 0-1.637-.58-3.035-1.737-4.193-1.158-1.158-2.556-1.737-4.193-1.737-1.637 0-3.025.58-4.163 1.737C3.204 5.53 2.635 6.928 2.635 8.565c0 1.637.57 3.025 1.707 4.163 1.138 1.138 2.526 1.707 4.163 1.707z"/>
</svg>
