<?xml version="1.0" encoding="UTF-8"?>
<svg width="14px" height="12px" viewBox="0 0 14 12" version="1.1" xmlns="http://www.w3.org/2000/svg" xmlns:xlink="http://www.w3.org/1999/xlink">
    <!-- Generator: Sketch 50.2 (55047) - http://www.bohemiancoding.com/sketch -->
    <title>twitter</title>
    <desc>Created with Sketch.</desc>
    <defs></defs>
    <g id="Symbols" stroke="none" stroke-width="1" fill="none" fill-rule="evenodd">
        <g id="footer" transform="translate(-1185.000000, -77.000000)" fill="#FFFFFF" fill-rule="nonzero">
            <g id="Group-35" transform="translate(1135.000000, 30.000000)">
                <g id="Group-34" transform="translate(1.000000, 40.000000)">
                    <g id="Group-33">
                        <g id="Group-6" transform="translate(43.000000, 0.000000)">
                            <path d="M19.8368251,9.22619824 C19.3459551,9.44370653 18.8192586,9.59121815 18.2658666,9.65707428 C18.8309174,9.31870627 19.2634497,8.78200715 19.4684492,8.14445356 C18.9384185,8.45780409 18.3533624,8.6853368 17.7299738,8.80868084 C17.2307791,8.27614403 16.5207227,7.94444444 15.7331514,7.94444444 C14.2222087,7.94444444 12.9971147,9.16953844 12.9971147,10.679653 C12.9971147,10.8938271 13.0212823,11.1030108 13.0679613,11.3030417 C10.7944647,11.1888504 8.77848698,10.0996092 7.42922084,8.44446724 C7.19336349,8.84784148 7.05918871,9.31785638 7.05918871,9.81957897 C7.05918871,10.7688269 7.54256224,11.6063896 8.27595807,12.0964097 C7.82758287,12.0814167 7.40588136,11.9580726 7.03669913,11.7530513 L7.03669913,11.7872215 C7.03669913,13.1123201 7.98010671,14.2182323 9.2310245,14.4699326 C9.00183558,14.5316047 8.76015971,14.5657749 8.51013741,14.5657749 C8.33346777,14.5657749 8.16261666,14.5482757 7.99509976,14.5149336 C8.34344862,15.6025186 9.35354043,16.3934023 10.5503045,16.4150856 C9.61439347,17.1484814 8.43430044,17.5843479 7.15254664,17.5843479 C6.93170415,17.5843479 6.71417407,17.5710111 6.5,17.5468435 C7.71092904,18.3244122 9.14854089,18.7777778 10.6936538,18.7777778 C15.7265266,18.7777778 18.4775781,14.6091196 18.4775781,10.9938535 L18.4684036,10.6396643 C19.0059308,10.2562735 19.4709553,9.77457801 19.8368251,9.22619824 Z" id="twitter"></path>
                        </g>
                    </g>
                </g>
            </g>
        </g>
    </g>
</svg>