<svg xmlns="http://www.w3.org/2000/svg" width="17" height="10" viewBox="0 0 17 10">
    <path fill="#888" fill-rule="nonzero" stroke="#FFF" stroke-width=".4" d="M8.823 2.108a2.827 2.827 0 0 0-2.824 2.824 2.827 2.827 0 0 0 2.824 2.824 2.827 2.827 0 0 0 2.824-2.824 2.827 2.827 0 0 0-2.824-2.824zm0 4.326A1.504 1.504 0 0 1 7.32 4.932a1.504 1.504 0 0 1 3.004 0c0 .828-.673 1.502-1.501 1.502zm7.55-1.885C14.506 1.927 11.754.424 8.822.424c-2.933 0-5.685 1.503-7.55 4.125L1 4.932l.273.383C3.138 7.937 5.89 9.44 8.823 9.44c2.932 0 5.684-1.503 7.55-4.125l.272-.383-.273-.383zm-7.55 3.57c-2.356 0-4.586-1.156-6.186-3.187 1.6-2.031 3.83-3.186 6.186-3.186 2.355 0 4.585 1.155 6.186 3.186-1.6 2.031-3.831 3.186-6.186 3.186z"/>
</svg>
