<?xml version="1.0" encoding="UTF-8"?>
<svg width="12px" height="10px" viewBox="0 0 12 10" version="1.1" xmlns="http://www.w3.org/2000/svg" xmlns:xlink="http://www.w3.org/1999/xlink">
    <!-- Generator: Sketch 50.2 (55047) - http://www.bohemiancoding.com/sketch -->
    <title>youtube</title>
    <desc>Created with Sketch.</desc>
    <defs></defs>
    <g id="Symbols" stroke="none" stroke-width="1" fill="none" fill-rule="evenodd">
        <g id="footer" transform="translate(-1243.000000, -78.000000)" fill="#D2D2D2">
            <g id="Group-35" transform="translate(1135.000000, 30.000000)">
                <g id="Group-34" transform="translate(1.000000, 40.000000)">
                    <g id="Group-33-Copy" transform="translate(100.000000, 0.000000)">
                        <g id="Group-3">
                            <path d="M18.7100694,10.5850694 C18.7552086,11.3975735 18.7777778,12.2025423 18.7777778,13 C18.7777778,13.7974577 18.7552086,14.6024265 18.7100694,15.4149306 C18.7100694,15.9265072 18.5483234,16.3590839 18.2248264,16.7126736 C17.9013294,17.0662633 17.5063681,17.2430556 17.0399306,17.2430556 C15.8813599,17.303241 14.5347299,17.3333333 13,17.3333333 C11.4652701,17.3333333 10.1186401,17.303241 8.96006944,17.2430556 C8.49363193,17.2430556 8.0986706,17.0662633 7.77517361,16.7126736 C7.45167662,16.3590839 7.28993056,15.9265072 7.28993056,15.4149306 C7.24479144,14.6024265 7.22222222,13.7974577 7.22222222,13 C7.22222222,12.473377 7.25231451,11.6684082 7.3125,10.5850694 C7.3125,10.0734928 7.47048453,9.64091612 7.78645833,9.28732639 C8.10243214,8.93373666 8.49363193,8.75694444 8.96006944,8.75694444 C10.0584546,8.69675896 11.337377,8.66666667 12.796875,8.66666667 L13.203125,8.66666667 C14.662623,8.66666667 15.9415454,8.69675896 17.0399306,8.75694444 C17.5063681,8.75694444 17.9013294,8.93373666 18.2248264,9.28732639 C18.5483234,9.64091612 18.7100694,10.0734928 18.7100694,10.5850694 Z M11.8940972,15.2118056 L15.1666667,13 L11.8940972,10.765625 L11.8940972,15.2118056 Z" id="youtube"></path>
                        </g>
                    </g>
                </g>
            </g>
        </g>
    </g>
</svg>