<svg width="351" height="63" viewBox="0 0 351 63" fill="none" xmlns="http://www.w3.org/2000/svg">
<path fill-rule="evenodd" clip-rule="evenodd" d="M24.5572 9.77487C24.814 9.63407 24.7773 9.36257 24.4463 8.96095C24.1314 8.70548 24.1266 8.45596 24.433 8.21356C24.7857 7.87789 24.7799 7.45727 24.4147 6.95228C24.3482 6.85544 24.3085 6.74553 24.2956 6.62255C24.2129 6.23044 24.2126 5.93575 24.2945 5.73791C24.8673 5.24124 24.8996 4.85092 24.3919 4.56634C23.8511 4.1873 23.225 4.0245 22.513 4.07797C20.6429 3.97757 19.2434 3.78865 18.3143 3.5112C18.2019 3.46308 18.0542 3.47375 17.8716 3.54326C16.8402 3.37156 15.9405 3.04957 15.1722 2.57725C15.0598 2.4917 15.0793 2.35624 15.2303 2.17029C15.5349 2.30099 15.7843 2.36457 15.9791 2.3616C16.0555 2.3414 16.1135 2.30634 16.1536 2.25703C16.2039 2.18989 16.3119 2.15366 16.4773 2.14831C16.8439 2.14891 17.0386 2.12513 17.0614 2.0776C17.1026 1.76689 17.1232 1.61124 17.1232 1.61124C17.3212 1.60768 17.42 1.60588 17.42 1.60588C18.088 1.72173 18.4362 1.78352 18.4649 1.79125C18.6387 1.85303 18.8419 1.77582 19.0744 1.55838C19.253 1.44431 19.4664 1.40628 19.7148 1.44549C20.238 1.52154 20.5286 1.5554 20.5863 1.5447C20.7028 1.58748 20.9915 1.33677 21.4519 0.792568C22.5218 1.1223 23.0567 1.28685 23.0567 1.28685C23.2489 1.35755 23.4833 1.36112 23.7588 1.29874C24.6017 1.09318 25.0231 0.990991 25.0231 0.990991C25.0767 0.561451 25.1035 0.346987 25.1035 0.346987C25.1263 0.143801 25.2641 0.0338787 25.5169 0.0148672C25.6194 0.00536148 25.7803 0.00118822 25.9996 0C26.219 0.00118822 26.3799 0.00595559 26.4824 0.0148672C26.7352 0.0332846 26.873 0.143801 26.8957 0.346987C26.8957 0.346987 26.9226 0.561451 26.9762 0.990991C26.9762 0.990991 27.3976 1.09318 28.2408 1.29874C28.5164 1.36112 28.7507 1.35814 28.9429 1.28685C28.9429 1.28685 29.4779 1.1223 30.5477 0.792568C31.0081 1.33677 31.2969 1.58748 31.4133 1.5447C31.471 1.5554 31.7613 1.52154 32.2848 1.44549C32.5332 1.40688 32.7467 1.44431 32.9252 1.55838C33.1578 1.77523 33.3613 1.85303 33.5347 1.79125C33.5634 1.78352 33.9117 1.72232 34.5796 1.60588C34.5796 1.60588 34.6785 1.60768 34.8765 1.61124C34.8765 1.61124 34.897 1.76689 34.9382 2.0776C34.9613 2.12513 35.1561 2.14891 35.5224 2.14831C35.6881 2.15366 35.7961 2.1893 35.8464 2.25703C35.8861 2.30634 35.9442 2.3414 36.0206 2.3616C36.2153 2.36457 36.4648 2.3004 36.7697 2.17029C36.9207 2.35624 36.9402 2.4917 36.8278 2.57725C36.0595 3.04957 35.1598 3.37156 34.1284 3.54326C33.9455 3.47375 33.7981 3.46308 33.6857 3.5112C32.7566 3.78865 31.3571 3.97757 29.487 4.07797C28.775 4.0245 28.1486 4.18789 27.6081 4.56634C27.1 4.85092 27.1327 5.24124 27.7051 5.73791C27.7871 5.93575 27.7867 6.23044 27.7044 6.62255C27.6912 6.74553 27.6515 6.85544 27.585 6.95228C27.2198 7.45727 27.2139 7.87789 27.5666 8.21356C27.8727 8.45596 27.8683 8.70548 27.553 8.96095C27.222 9.36257 27.1853 9.63407 27.4421 9.77487H43.0703C43.789 9.73626 44.4558 10.1795 45.0709 11.1063L51.7705 21.9066C52.0765 22.3855 52.0765 22.8631 51.7705 23.3419L32.74 45.687C46.5276 47.758 52.5769 51.5289 50.888 57C50.6697 57 50.0833 57 49.1288 57C51.9016 52.9809 46.0801 49.6342 31.6639 46.9602L31.1723 47.5418C32.9627 49.2617 33.858 50.122 33.858 50.122C34.3786 51.7516 33.98 53.0456 32.6614 54.0033C31.0595 55.1339 28.8389 55.7167 26 55.7512C23.1611 55.7161 20.9405 55.1339 19.3386 54.0033C18.02 53.0456 17.621 51.7516 18.142 50.122C18.142 50.122 19.0373 49.2617 20.8277 47.5418L19.174 45.5872C5.05722 42.218 -0.205833 36.0381 3.38481 27.0468L0.229536 23.3426C-0.0765119 22.8637 -0.0765119 22.386 0.229536 21.9072L6.92879 11.1069C7.54382 10.1795 8.21103 9.73628 8.92931 9.77549H24.5572V9.77487ZM7.30904 11.3701L0.611628 22.1674L0.609789 22.1698C0.411391 22.4799 0.406259 22.7467 0.594002 23.0538L3.91643 26.9541L3.80659 27.2286C2.86016 29.5985 2.36929 32.2114 3.10777 34.7197C4.96684 41.0387 13.8408 43.8262 19.2758 45.1232L19.4198 45.1582L21.4651 47.5757L21.1374 47.8899C20.2718 48.7211 19.4062 49.5534 18.5402 50.3846C18.1453 51.7279 18.4491 52.7907 19.5973 53.6118C21.4056 54.9046 23.854 55.2492 25.9993 55.2759C28.1445 55.2492 30.5926 54.9046 32.4013 53.6118C33.5494 52.7907 33.8533 51.7279 33.4583 50.3846C32.5927 49.5534 31.7271 48.7211 30.8611 47.8899L30.5338 47.5757L31.4901 46.4451L31.744 46.492C34.3709 46.9792 37.0015 47.5352 39.584 48.2357C41.4982 48.7549 43.4462 49.3627 45.27 50.1642C47.1008 50.9686 50.0767 52.5103 50.2494 54.8909C50.2913 55.4696 50.1627 56.0173 49.9316 56.5253C50.1359 56.5253 50.3402 56.5253 50.5444 56.5253C50.7179 55.8314 50.7656 55.1173 50.6208 54.4073C50.1362 52.0273 47.6438 50.4832 45.6815 49.56C43.9334 48.7377 42.0427 48.1371 40.1847 47.6505C37.7176 47.0041 35.1917 46.5365 32.6746 46.1581L31.8358 46.0322L51.4053 23.0538C51.593 22.7461 51.5875 22.4799 51.3895 22.1698L51.3876 22.1674L44.6906 11.3701C44.3298 10.8282 43.7879 10.2121 43.0946 10.2496L43.0825 10.2502H27.3285L27.2279 10.1949C27.0703 10.1082 26.9428 9.97926 26.8726 9.80697C26.7007 9.38693 26.9486 8.96391 27.2058 8.652L27.2356 8.61577L27.2716 8.58666C27.2731 8.58487 27.2753 8.58369 27.2771 8.58191L27.2727 8.57835L27.2573 8.5641C26.6705 8.00505 26.7704 7.29032 27.2146 6.67245C27.2352 6.64096 27.2451 6.60888 27.2495 6.57026L27.2521 6.54531L27.2573 6.52037C27.2815 6.4057 27.3241 6.16152 27.3043 6.00527C26.9986 5.71535 26.7245 5.32977 26.8068 4.87884C26.8671 4.54792 27.0982 4.31738 27.3704 4.16054C28.0082 3.71971 28.7287 3.55039 29.4907 3.60207C30.2876 3.5587 31.0889 3.49694 31.8803 3.3906C32.4321 3.31574 33.0038 3.2189 33.5399 3.06087C33.743 2.98304 33.9576 2.99669 34.1622 3.0555C34.6494 2.96876 35.13 2.84163 35.5922 2.66221C35.579 2.65092 35.5661 2.63964 35.5536 2.62657C35.5404 2.62538 35.5268 2.62477 35.5154 2.62417C35.1888 2.62477 34.7005 2.64558 34.5293 2.29089L34.4951 2.2208L34.4848 2.14237C34.483 2.12989 34.4815 2.11742 34.4797 2.10495C34.2034 2.15069 33.9212 2.19526 33.6501 2.2517C33.283 2.36576 32.9366 2.19404 32.6588 1.94808C32.5644 1.89936 32.4524 1.90055 32.3502 1.91541C32.1423 1.94689 31.9328 1.9772 31.7238 2.00037C31.6397 2.00987 31.5361 2.02237 31.4413 2.02118C31.2091 2.04554 30.9919 1.90649 30.8159 1.75321C30.6712 1.62785 30.5323 1.4823 30.4004 1.33377C29.9614 1.46923 29.5223 1.60412 29.0833 1.73957C28.7779 1.8483 28.4491 1.83699 28.1379 1.76213C27.7154 1.66054 27.2929 1.55835 26.8708 1.4526L26.5632 1.37834L26.5225 1.05158C26.4993 0.86444 26.4736 0.676109 26.4515 0.48837C26.4508 0.48837 26.4501 0.48837 26.4493 0.48837C26.3005 0.476488 26.1492 0.4747 26 0.4747C25.8508 0.4747 25.6995 0.477082 25.5507 0.48837C25.5499 0.48837 25.5492 0.48837 25.5485 0.48837C25.5261 0.676109 25.5007 0.86444 25.4775 1.05158L25.4371 1.37536L25.1315 1.4526C24.7093 1.55895 24.2853 1.66054 23.8621 1.76213C23.5509 1.83699 23.2221 1.8483 22.9167 1.73957C22.4777 1.60412 22.0386 1.46923 21.5996 1.33377C21.4677 1.4823 21.3285 1.62785 21.1841 1.75321C21.0081 1.90649 20.7913 2.04554 20.5591 2.02118C20.4643 2.02237 20.3603 2.00928 20.2762 2.00037C20.0672 1.9772 19.8581 1.94689 19.6502 1.91541C19.5477 1.90055 19.436 1.89936 19.3415 1.94808C19.0638 2.19404 18.7173 2.36576 18.3503 2.2517C18.0788 2.19526 17.797 2.15069 17.5203 2.10495C17.5188 2.11742 17.517 2.12989 17.5155 2.14237L17.5052 2.2208L17.4715 2.29089C17.3002 2.64558 16.812 2.62477 16.485 2.62417C16.474 2.62477 16.4604 2.62538 16.4468 2.62657C16.4343 2.63904 16.4214 2.65092 16.4082 2.66221C16.8704 2.84163 17.3513 2.96876 17.8385 3.0555C18.0431 2.99609 18.2577 2.98304 18.4609 3.06087C18.9973 3.2189 19.569 3.31574 20.1208 3.3906C20.9122 3.49754 21.7135 3.5587 22.5104 3.60207C23.2724 3.55039 23.9932 3.71971 24.6307 4.16054C24.9029 4.31738 25.134 4.54792 25.1943 4.87884C25.2762 5.33037 25.0021 5.71535 24.6968 6.00527C24.6766 6.16152 24.7196 6.4057 24.7435 6.52037L24.7486 6.54531L24.7512 6.57026C24.7552 6.60828 24.7652 6.64096 24.7861 6.67245C25.2299 7.29032 25.3302 8.00445 24.7431 8.5641L24.7277 8.57835L24.7233 8.58191C24.7251 8.58369 24.7269 8.58487 24.7288 8.58666L24.7648 8.61577L24.7946 8.652C25.0521 8.96391 25.3001 9.38693 25.1278 9.80697C25.0576 9.97926 24.9298 10.1088 24.7725 10.1949L24.6722 10.2502H8.91791L8.90578 10.2496C8.21139 10.2121 7.66983 10.8282 7.30904 11.3701ZM42.2742 11.9826H28.5509L36.7719 20.451L42.2742 11.9826ZM48.7508 21.3772H38.8937L44.1266 13.3229L48.7508 21.3772ZM28.7375 21.3772H34.2993L28.0321 14.9169C27.9711 14.8979 27.9226 14.9026 27.8863 14.9324C27.7463 15.8978 27.9704 16.761 28.5579 17.5209C28.7879 17.733 28.7875 17.9486 28.5571 18.1673C27.7048 19.0834 27.7646 20.1534 28.7375 21.3772ZM29.5142 27.6938C29.6149 27.9059 29.6616 28.0705 29.6542 28.1869C29.5539 28.4578 29.2192 28.7341 28.6516 29.0139C28.1159 29.8516 28.304 30.5728 29.2166 31.1782C29.4077 31.2899 29.4786 31.4367 29.4301 31.6161C29.3599 31.7866 29.3305 31.95 29.3408 32.1057C29.3401 32.5709 29.1773 32.9125 28.8521 33.1317C28.793 33.1584 28.7537 33.2024 28.735 33.2648C28.6574 34.9205 28.5428 36.0975 28.3903 36.795C28.0578 38.6094 28.0501 40.3816 28.3672 42.1128L35.184 23.639L35.2024 23.5897H27.5986C27.5934 23.8921 27.6048 24.0834 27.632 24.1648C27.6625 24.2729 27.7158 24.3597 27.7918 24.4256C28.0233 24.6704 28.1309 25.0346 28.1144 25.52C28.0986 25.7404 28.1262 25.902 28.1978 26.0047C28.268 26.1123 28.3617 26.2192 28.4796 26.3262C28.5806 26.3844 28.6934 26.382 28.8169 26.3214C28.8735 26.284 28.9334 26.2335 28.9969 26.1657C29.0642 26.0879 29.2291 25.9685 29.4914 25.8075C29.7777 26.06 30.03 26.4473 30.249 26.9702C30.249 26.9702 30.0455 27.1264 29.6391 27.4378C29.5238 27.5031 29.4822 27.5886 29.5142 27.6938ZM37.6599 23.5891H48.4521L30.4834 45.0162C29.8386 45.3976 29.591 45.3507 29.7405 44.8766L37.6599 23.5891ZM9.72509 11.9826H23.4484L15.2273 20.451L9.72509 11.9826ZM3.24777 21.3772H13.1048L7.87192 13.3229L3.24777 21.3772ZM23.2614 21.3772H17.6996L23.9668 14.9169C24.0278 14.8979 24.0766 14.9026 24.1126 14.9324C24.2526 15.8978 24.0285 16.761 23.4407 17.5209C23.211 17.733 23.211 17.9486 23.4418 18.1673C24.2945 19.0834 24.2343 20.1534 23.2614 21.3772ZM23.6321 42.1122C23.9495 40.381 23.9414 38.6088 23.6089 36.7944C23.4568 36.0963 23.3418 34.9199 23.2643 33.2641C23.2452 33.2024 23.2063 33.1578 23.1471 33.1311C22.8223 32.9124 22.6592 32.5708 22.6585 32.105C22.6691 31.9488 22.6394 31.786 22.5692 31.6155C22.5207 31.4355 22.5916 31.2894 22.7826 31.1777C23.6953 30.5723 23.8837 29.8516 23.3477 29.0133C22.7797 28.7335 22.4454 28.4572 22.3451 28.1863C22.3373 28.0699 22.384 27.9053 22.4847 27.6932C22.3902 27.5334 22.2771 27.4538 22.1445 27.4538C22.0728 27.5298 21.9714 27.4716 21.8406 27.2791C21.5548 26.9815 21.3116 26.8419 21.1113 26.8591C21.0118 26.8597 20.9089 26.767 20.802 26.581C20.371 26.4022 20.0646 26.1842 19.8835 25.9257C19.3621 25.4273 18.9006 25.1035 18.4987 24.9562C17.9222 24.7126 17.3546 24.2563 16.7969 23.5885L23.6321 42.1122ZM5.64985 26.0962L21.5162 45.0168C22.161 45.3983 22.4086 45.3513 22.2591 44.8772L14.3393 23.5897H9.37055C7.68674 24.0495 6.44638 24.8854 5.64985 26.0962ZM23.5197 26.3262C23.3415 26.2982 23.2261 26.221 23.1739 26.0951C23.2136 25.9964 23.1221 25.9222 22.9006 25.8729C22.5251 25.716 22.3057 25.5384 22.2425 25.3405C22.204 25.2455 22.0816 25.1831 21.8751 25.1546C21.5485 24.8124 21.2351 24.605 20.935 24.5331C20.2891 24.2307 19.8221 23.9164 19.5337 23.5897H24.401C24.4062 23.8921 24.3948 24.0834 24.3673 24.1648C24.3368 24.2729 24.2835 24.3597 24.2074 24.4256C23.976 24.6704 23.8683 25.0346 23.8849 25.52C23.9007 25.7404 23.8727 25.902 23.8011 26.0047C23.7309 26.1117 23.6372 26.2192 23.5197 26.3262ZM4.72252 24.9906L3.54718 23.5897H6.20353C5.46284 24.2777 4.96905 24.7452 4.72252 24.9906ZM4.4918 28.3473L17.571 43.7056C6.61392 40.7559 2.25394 35.637 4.4918 28.3473Z" fill="black"/>
<path fill-rule="evenodd" clip-rule="evenodd" d="M73.0023 7.48418C72.9753 7.72162 73.1851 7.88301 73.6323 7.96706C78.2746 8.16217 80.9496 8.75975 81.6569 9.75859V36.3231H93.9012C123.877 36.3231 123.878 7.00133 93.9012 7.00133C82.9052 7.00133 110.561 8.25051 109.542 22.0085C108.889 30.7043 103.027 34.7002 91.9573 33.9953C91.5083 33.9671 91.215 33.9315 90.7801 33.8462C89.5208 33.5996 88.5627 33.2406 87.9051 32.7682V7.00133C78.4948 7.00133 73.7893 7.00133 73.7893 7.00133C73.2403 6.98354 72.9784 7.14428 73.0023 7.48418ZM131.233 32.4805C131.233 32.9093 131.377 33.286 131.664 33.6093C131.963 33.94 132.456 34.2039 133.165 34.3953C133.586 34.5008 134.264 34.6131 135.22 34.7321C137.955 35.0911 137.646 34.4695 137.646 36.3237H118.407C118.407 34.6021 118.03 34.9585 120.76 34.818C121.778 34.772 122.497 34.6929 122.918 34.5874C123.586 34.4217 124.069 34.191 124.367 33.9008C124.665 33.6094 124.819 33.2069 124.819 32.6915L124.902 7.00197H131.15L131.233 32.4805ZM163.371 7.00316C168.8 16.7775 174.228 26.5506 179.656 36.3249H172.911L172.552 35.6788L160.691 14.3227L150.607 32.4799C150.607 32.9087 150.751 33.2854 151.038 33.6087C151.337 33.9394 151.829 34.2033 152.538 34.3947C152.96 34.5002 153.638 34.6125 154.594 34.7315C157.33 35.0905 157.019 34.4689 157.019 36.3231H141.228C141.228 34.6015 140.851 34.9579 143.582 34.8174C149.134 33.5535 158.889 11.5636 161.422 7.00316H163.371ZM220.612 7.00316H232.589C232.589 8.85667 232.899 8.23576 230.164 8.59469C229.208 8.71371 228.53 8.826 228.108 8.93153C227.399 9.12356 226.906 9.38739 226.608 9.71748C226.32 10.0402 226.177 10.4175 226.177 10.847L226.12 36.3249H219.832V14.3227L207.306 36.3249H205.356L192.832 14.3227V32.4817C192.832 32.9112 192.975 33.2879 193.263 33.6112C193.561 33.9413 194.055 34.2057 194.764 34.3972C195.185 34.5027 195.864 34.6143 196.819 34.734C199.554 35.0929 199.245 34.4714 199.245 36.3255H183.239C183.239 34.472 182.928 35.0929 185.664 34.734C186.62 34.6149 187.298 34.5027 187.718 34.3972C188.428 34.2051 188.921 33.9413 189.219 33.6112C189.507 33.2885 189.651 32.9112 189.651 32.4817V7.0038H195.362L207.986 29.1808L220.612 7.00316ZM249.405 8.57016C257.559 8.57016 264.168 14.2687 264.168 21.2981C264.168 28.3274 257.559 34.0259 249.405 34.0259C241.251 34.0259 234.641 28.3274 234.641 21.2981C234.641 14.2687 241.251 8.57016 249.405 8.57016ZM250.84 7.00133C260.92 7.00133 269.09 13.565 269.09 21.6625C269.09 29.76 260.92 36.3237 250.84 36.3237C240.759 36.3237 232.589 29.76 232.589 21.6625C232.589 13.565 240.76 7.00133 250.84 7.00133ZM307.619 7.48418C307.593 7.72162 307.803 7.88301 308.249 7.96706C312.891 8.16217 315.567 8.75975 316.274 9.75859V36.3231H328.518C358.493 36.3231 358.495 7.00133 328.518 7.00133C317.522 7.00133 345.177 8.25051 344.159 22.0085C343.506 30.7043 337.645 34.7002 326.575 33.9953C326.126 33.9671 325.832 33.9315 325.397 33.8462C324.138 33.5996 323.179 33.2406 322.521 32.7682V7.00133C313.11 7.00133 308.405 7.00133 308.405 7.00133C307.857 6.98354 307.595 7.14428 307.619 7.48418ZM269.09 7.00133H278.562L300.856 26.6469V7.00133H304.037V36.3231L278.626 13.9313V32.4799C278.626 32.9087 278.769 33.2854 279.057 33.6087C279.355 33.9394 279.849 34.2033 280.558 34.3947C280.98 34.5002 281.658 34.6125 282.613 34.7315C285.348 35.0905 285.039 34.4689 285.039 36.3231H269.033C269.033 34.4696 268.722 35.0905 271.457 34.7315C272.414 34.6131 273.092 34.5002 273.514 34.3947C274.221 34.2027 274.715 33.9394 275.013 33.6087C275.301 33.2854 275.445 32.9087 275.445 32.4799V11.128C274.455 9.89848 273.125 9.05241 271.457 8.59225C268.723 8.23394 269.09 8.85545 269.09 7.00133Z" fill="black"/>
<path fill-rule="evenodd" clip-rule="evenodd" d="M212.29 40.7427H216.098V51.6637C217.23 53.8148 219.994 54.8339 224.392 54.7216V57.1678C217.366 57.1788 213.333 55.475 212.29 52.057V40.7427H212.29ZM238.158 45.5479C244.672 45.5479 249.953 48.1493 249.953 51.3582C249.953 54.567 244.672 57.1684 238.158 57.1684C231.643 57.1684 226.362 54.5676 226.362 51.3582C226.361 48.15 231.643 45.5479 238.158 45.5479ZM238.158 47.9947C242.569 47.9947 246.146 49.5004 246.146 51.3582C246.146 53.216 242.569 54.7216 238.158 54.7216C233.746 54.7216 230.169 53.216 230.169 51.3582C230.169 49.5004 233.745 47.9947 238.158 47.9947ZM271.221 45.5479H275.028V51.3582C275.028 54.567 269.747 57.1684 263.233 57.1684C256.718 57.1684 251.437 54.5676 251.437 51.3582V45.5479H255.244V51.3582C255.244 53.216 258.821 54.7216 263.233 54.7216C267.644 54.7216 271.221 53.216 271.22 51.3582V45.5479H271.221ZM280.69 57.1684H276.882V51.3582C276.882 48.15 282.163 45.5479 288.678 45.5479C295.192 45.5479 300.473 48.1493 300.473 51.3582V57.1684H296.666V51.3582C296.666 49.5004 293.09 47.9947 288.678 47.9947C284.267 47.9947 280.689 49.5004 280.69 51.3582V57.1684H280.69ZM339.205 45.5479C345.719 45.5479 351 48.1493 351 51.3582C351 51.922 350.837 52.4668 350.533 52.9816H346.203H332.207C333.567 54.0191 336.192 54.7216 339.205 54.7216C340.952 54.7216 342.566 54.4854 343.882 54.0853H349.622C347.638 55.9192 343.718 57.1678 339.205 57.1678C332.691 57.1678 327.409 54.5669 327.409 51.3575C327.409 48.1499 332.691 45.5479 339.205 45.5479ZM339.205 47.9947C343.472 47.9947 346.959 49.42 347.184 51.1931L347.186 51.2103H331.225L331.233 51.1459C331.494 49.3868 334.945 47.9947 339.205 47.9947ZM313.857 45.5479C320.371 45.5479 325.653 48.1493 325.653 51.3582V57.8893C324.611 61.3073 320.577 63.0111 313.551 63.0001V60.5539C317.948 60.6662 320.714 59.6465 321.845 57.496V55.6339C319.744 56.5874 316.938 57.169 313.857 57.169C307.343 57.169 302.062 54.5682 302.062 51.3588C302.062 48.1499 307.344 45.5479 313.857 45.5479ZM313.857 47.9947C318.27 47.9947 321.846 49.5004 321.846 51.3582C321.846 53.216 318.27 54.7216 313.857 54.7216C309.446 54.7216 305.869 53.216 305.869 51.3582C305.869 49.5004 309.446 47.9947 313.857 47.9947Z" fill="black"/>
</svg>
