<svg width="394" height="60" viewBox="0 0 394 60" fill="none" xmlns="http://www.w3.org/2000/svg">
<path d="M96.5351 19.9199L103.864 30.0955H99.3001L92.9403 21.2099H88.101V30.0955H84.0922V10.0303H88.101V19.0592H92.6638L99.0235 10.0303H103.449L96.5351 19.9199Z" fill="#007A33"/>
<path d="M122.07 30.0955V13.7561H121.794L111.424 30.0955H106.17V10.0303H110.179V26.3697H110.455L120.825 10.0303H126.079V30.0955H122.07Z" fill="#007A33"/>
<path d="M131.282 5.8738C131.282 6.44711 131.093 6.94912 130.715 7.37839C130.337 7.80909 129.835 8.02372 129.209 8.02372C128.582 8.02372 128.079 7.80909 127.701 7.37839C127.323 6.94912 127.135 6.44711 127.135 5.8738C127.135 5.30121 127.323 4.79919 127.701 4.36921C128.079 3.93851 128.582 3.72388 129.209 3.72388C129.817 3.72388 130.314 3.93851 130.702 4.36921C131.089 4.79919 131.282 5.30121 131.282 5.8738Z" fill="#007A33"/>
<path d="M134.181 10.0295H130.171V30.0948H134.181V10.0295Z" fill="#007A33"/>
<path d="M137.089 5.8738C137.089 6.44711 136.9 6.94912 136.523 7.37839C136.145 7.80909 135.641 8.02372 135.015 8.02372C134.388 8.02372 133.885 7.80909 133.509 7.37839C133.131 6.94912 132.941 6.44711 132.941 5.8738C132.941 5.30121 133.13 4.79919 133.509 4.36921C133.885 3.93851 134.389 3.72388 135.015 3.72388C135.624 3.72388 136.122 3.93851 136.508 4.36921C136.896 4.79919 137.089 5.30121 137.089 5.8738Z" fill="#007A33"/>
<path d="M138.216 10.0295H147.618C149.037 10.0295 150.267 10.1592 151.309 10.417C152.35 10.6742 153.212 11.0379 153.895 11.5068C154.577 11.9735 155.084 12.5338 155.416 13.182C155.748 13.8324 155.913 14.5491 155.913 15.332C155.913 16.3453 155.637 17.224 155.084 17.9702C154.531 18.7142 153.701 19.2695 152.594 19.6325C153.978 19.9192 155.061 20.4781 155.844 21.3085C156.628 22.1404 157.02 23.2056 157.02 24.505C157.02 26.2256 156.332 27.5861 154.96 28.5894C153.585 29.5935 151.415 30.0948 148.447 30.0948H138.215V10.0295H138.216ZM147.618 18.7726C150.29 18.7726 151.627 17.6259 151.627 15.3327C151.627 14.3207 151.29 13.5414 150.618 12.9969C149.945 12.4517 148.946 12.1802 147.618 12.1802H142.225V18.7726H147.618ZM142.226 20.9225V27.9456H148.448C149.83 27.9456 150.89 27.6589 151.628 27.0863C152.365 26.5123 152.734 25.653 152.734 24.5057C152.734 23.2827 152.365 22.381 151.628 21.7961C150.89 21.2142 149.83 20.9225 148.448 20.9225H142.226Z" fill="#007A33"/>
<path d="M172.513 19.9199L179.841 30.0955H175.278L168.918 21.2099H164.079V30.0955H160.07V10.0303H164.079V19.0592H168.641L175.002 10.0303H179.426L172.513 19.9199Z" fill="#007A33"/>
<path d="M191.247 9.4563C192.906 9.4563 194.413 9.68606 195.767 10.1449C197.123 10.6044 198.284 11.2828 199.251 12.1803C200.219 13.0784 200.97 14.1868 201.505 15.5049C202.039 16.8236 202.306 18.3426 202.306 20.0626C202.306 21.7832 202.039 23.3022 201.505 24.6203C200.97 25.939 200.219 27.0468 199.251 27.9456C198.283 28.8445 197.123 29.5215 195.767 29.9803C194.413 30.4391 192.906 30.6689 191.247 30.6689C189.587 30.6689 188.075 30.4391 186.711 29.9803C185.346 29.5208 184.18 28.8445 183.213 27.9456C182.245 27.0468 181.499 25.939 180.973 24.6203C180.448 23.3022 180.185 21.7832 180.185 20.0626C180.185 18.3426 180.448 16.8236 180.973 15.5049C181.499 14.1868 182.246 13.0784 183.213 12.1803C184.181 11.2828 185.347 10.6044 186.711 10.1449C188.074 9.68606 189.587 9.4563 191.247 9.4563ZM191.247 11.4629C190.305 11.4629 189.426 11.635 188.605 11.9793C187.785 12.3243 187.071 12.8486 186.462 13.5559C185.854 14.2625 185.369 15.157 185.01 16.2359C184.65 17.3163 184.47 18.5918 184.47 20.0626C184.47 21.534 184.65 22.8096 185.01 23.8892C185.369 24.9696 185.854 25.862 186.462 26.5692C187.071 27.2765 187.785 27.8023 188.605 28.1458C189.426 28.4901 190.306 28.6623 191.247 28.6623C192.187 28.6623 193.067 28.4901 193.887 28.1458C194.708 27.8016 195.422 27.2765 196.03 26.5692C196.639 25.8627 197.123 24.9696 197.482 23.8892C197.841 22.8096 198.021 21.5333 198.021 20.0626C198.021 18.5918 197.841 17.3163 197.482 16.2359C197.123 15.157 196.639 14.2632 196.03 13.5559C195.423 12.8486 194.708 12.3236 193.887 11.9793C193.067 11.635 192.187 11.4629 191.247 11.4629Z" fill="#007A33"/>
<path d="M218.592 27.2296H218.867L226.058 10.0295H232.003V30.0948H227.994V14.0427H227.717L221.08 30.0948H216.379L209.743 14.0427H209.466V30.0948H205.456V10.0295H211.402L218.592 27.2296Z" fill="#007A33"/>
<path d="M255.898 10.0295L245.528 30.0948H241.242L244.284 24.2183H242.072L234.192 10.0295H238.755L245.252 21.7824H245.529L251.613 10.0295H255.898Z" fill="#007A33"/>
<path d="M277.56 10.0295V30.0948H273.551V21.3517H262.213V30.0948H258.204V10.0295H262.213V19.2018H273.551V10.0295H277.56Z" fill="#007A33"/>
<path d="M292.338 28.5189C293.591 28.5189 294.795 28.2942 295.947 27.8448C297.099 27.3961 298.201 26.665 299.251 25.6524L300.634 27.3723C299.583 28.385 298.311 29.1873 296.818 29.7794C295.325 30.3714 293.739 30.6689 292.061 30.6689C290.329 30.6689 288.766 30.4391 287.374 29.9803C285.982 29.5208 284.793 28.8445 283.807 27.9456C282.82 27.0468 282.059 25.939 281.526 24.6203C280.99 23.3022 280.723 21.7832 280.723 20.0626C280.723 18.3426 280.986 16.8236 281.511 15.5049C282.037 14.1868 282.785 13.0784 283.752 12.1803C284.72 11.2828 285.886 10.6044 287.25 10.1449C288.614 9.68606 290.126 9.4563 291.785 9.4563C293.461 9.4563 295.047 9.75376 296.541 10.3458C298.035 10.9378 299.306 11.7402 300.358 12.7536L298.974 14.4735C297.924 13.4608 296.822 12.7291 295.67 12.2804C294.517 11.8309 293.315 11.6062 292.061 11.6062C291.066 11.6062 290.135 11.7733 289.269 12.1075C288.402 12.4424 287.656 12.9531 287.03 13.6416C286.402 14.3294 285.908 15.2038 285.549 16.2647C285.189 17.3264 285.01 18.5918 285.01 20.0626C285.01 21.534 285.189 22.8002 285.549 23.8604C285.908 24.9206 286.415 25.7964 287.07 26.4835C287.724 27.1721 288.498 27.6835 289.393 28.0177C290.287 28.3518 291.269 28.5189 292.338 28.5189Z" fill="#007A33"/>
<path d="M307.1 12.1802V18.7726H317.193V20.9225H307.1V27.9456H319.958V30.0948H303.09V10.0295H319.958V12.1795H307.1V12.1802Z" fill="#007A33"/>
<path d="M332.502 10.0295C333.886 10.0295 335.128 10.1865 336.226 10.502C337.326 10.8175 338.252 11.2763 339.009 11.8784C339.767 12.4798 340.348 13.2151 340.755 14.0845C341.161 14.9553 341.365 15.9441 341.365 17.0511C341.365 18.1603 341.162 19.1492 340.754 20.0185C340.348 20.8886 339.766 21.624 339.009 22.2254C338.252 22.8268 337.323 23.2856 336.224 23.601C335.126 23.9165 333.884 24.0735 332.498 24.0735H326.541V30.0933H322.532V10.0281H332.502V10.0295ZM326.542 12.1802V21.9257H332.487C333.943 21.9257 335.073 21.5296 335.874 20.7359C336.677 19.9436 337.078 18.7149 337.078 17.0526C337.078 15.3903 336.677 14.1623 335.874 13.3707C335.073 12.577 333.943 12.1809 332.487 12.1809H326.542V12.1802Z" fill="#007A33"/>
<path d="M344.073 10.0295H353.476C354.895 10.0295 356.126 10.1592 357.167 10.417C358.208 10.6742 359.071 11.0379 359.753 11.5068C360.435 11.9735 360.942 12.5338 361.274 13.182C361.606 13.8324 361.771 14.5491 361.771 15.332C361.771 16.3453 361.495 17.224 360.942 17.9702C360.388 18.7142 359.559 19.2695 358.453 19.6325C359.836 19.9192 360.919 20.4781 361.702 21.3085C362.486 22.1404 362.878 23.2056 362.878 24.505C362.878 26.2256 362.191 27.5861 360.818 28.5894C359.445 29.5935 357.274 30.0948 354.305 30.0948H344.074V10.0295H344.073ZM353.476 18.7726C356.148 18.7726 357.485 17.6259 357.485 15.3327C357.485 14.3207 357.148 13.5414 356.476 12.9969C355.803 12.4517 354.804 12.1802 353.476 12.1802H348.083V18.7726H353.476ZM348.083 20.9225V27.9456H354.305C355.688 27.9456 356.748 27.6589 357.486 27.0863C358.223 26.5123 358.592 25.653 358.592 24.5057C358.592 23.2827 358.223 22.381 357.486 21.7961C356.748 21.2142 355.688 20.9225 354.305 20.9225H348.083Z" fill="#007A33"/>
<path d="M369.981 30.0955H365.972V10.0303H369.981V30.0955Z" fill="#007A33"/>
<path d="M384.784 28.5189C386.037 28.5189 387.24 28.2942 388.392 27.8448C389.545 27.3961 390.646 26.665 391.698 25.6524L393.08 27.3723C392.029 28.385 390.757 29.1873 389.263 29.7794C387.771 30.3714 386.185 30.6689 384.506 30.6689C382.774 30.6689 381.211 30.4391 379.82 29.9803C378.427 29.5208 377.238 28.8445 376.253 27.9456C375.266 27.0468 374.506 25.939 373.972 24.6203C373.437 23.3022 373.17 21.7832 373.17 20.0626C373.17 18.3426 373.433 16.8236 373.958 15.5049C374.484 14.1868 375.231 13.0784 376.197 12.1803C377.165 11.2828 378.332 10.6044 379.696 10.1449C381.059 9.68606 382.571 9.4563 384.231 9.4563C385.907 9.4563 387.493 9.75376 388.987 10.3458C390.482 10.9378 391.753 11.7402 392.804 12.7536L391.421 14.4735C390.369 13.4608 389.267 12.7291 388.116 12.2804C386.963 11.8309 385.76 11.6062 384.506 11.6062C383.512 11.6062 382.58 11.7733 381.714 12.1075C380.848 12.4424 380.101 12.9531 379.475 13.6416C378.848 14.3294 378.354 15.2038 377.995 16.2647C377.635 17.3264 377.455 18.5918 377.455 20.0626C377.455 21.534 377.635 22.8002 377.995 23.8604C378.354 24.9206 378.861 25.7964 379.516 26.4835C380.17 27.1721 380.943 27.6835 381.839 28.0177C382.732 28.3518 383.715 28.5189 384.784 28.5189Z" fill="#007A33"/>
<path d="M20.2096 1.50704C20.2096 1.50704 17.6938 13.324 14.774 21.7696C22.4726 14.8005 30.0244 12.3625 29.4503 6.57323C29.0953 3.00731 22.0383 0.788237 20.2096 1.50704Z" fill="url(#paint0_linear)"/>
<path d="M17.5231 17.627C17.5231 17.627 17.6312 17.5794 17.7918 17.5398C17.871 17.5297 17.9653 17.5002 18.064 17.5009C18.1627 17.4995 18.2678 17.4988 18.373 17.4973C18.4774 17.5124 18.5811 17.5283 18.6784 17.5427C18.7756 17.5571 18.8649 17.5974 18.9427 17.6183C19.0961 17.6795 19.197 17.7407 19.197 17.7407L19.1955 17.7631C19.1955 17.7631 18.7763 17.74 18.3579 17.717C17.9401 17.6824 17.5217 17.6486 17.5217 17.6486L17.5231 17.627Z" fill="#006838"/>
<path d="M20.4099 13.2557C20.4099 13.2557 20.6677 13.2182 21.0523 13.1945C21.2439 13.1923 21.4686 13.1729 21.7063 13.1822C21.9454 13.1916 22.1997 13.2002 22.4539 13.2096C22.7074 13.2355 22.9602 13.2615 23.1979 13.2859C23.4356 13.3097 23.6553 13.3601 23.844 13.3882C24.2214 13.4653 24.4713 13.5373 24.4713 13.5373L24.4699 13.5596C24.4699 13.5596 23.4536 13.4941 22.4381 13.4293C21.4232 13.3537 20.4084 13.2773 20.4084 13.2773L20.4099 13.2557Z" fill="#006838"/>
<path d="M23.2973 8.88516C23.2973 8.88516 23.4716 8.84195 23.7309 8.80954C23.8598 8.80306 24.0118 8.77785 24.1717 8.78289C24.3323 8.78649 24.503 8.78937 24.6737 8.79297C24.8437 8.81313 25.0136 8.83403 25.1728 8.85275C25.332 8.87076 25.4789 8.91614 25.6057 8.9399C25.8578 9.00833 26.0249 9.07459 26.0249 9.07459L26.0234 9.09692C26.0234 9.09692 25.3413 9.05513 24.6593 9.01336C23.9779 8.9615 23.2966 8.90821 23.2966 8.90821L23.2973 8.88516Z" fill="#006838"/>
<path d="M18.9564 15.4583C18.9564 15.4583 18.8304 15.3236 18.6712 15.109C18.5999 14.9973 18.5019 14.8742 18.4249 14.7287C18.3464 14.5839 18.2628 14.4298 18.1793 14.2749C18.1108 14.1129 18.0424 13.9515 17.9783 13.8003C17.9135 13.649 17.8782 13.4956 17.835 13.3696C17.7666 13.111 17.7399 12.9295 17.7399 12.9295L17.7601 12.9194C17.7601 12.9194 18.0691 13.5496 18.378 14.1791C18.6769 14.8144 18.9759 15.4489 18.9759 15.4489L18.9564 15.4583Z" fill="#006838"/>
<path d="M21.8424 11.0863C21.8424 11.0863 21.6501 10.8141 21.3916 10.3927C21.2713 10.1774 21.1143 9.93393 20.9752 9.65951C20.8348 9.38582 20.685 9.09413 20.5352 8.80171C20.4005 8.50281 20.2658 8.20318 20.1398 7.92229C20.013 7.64212 19.9194 7.36771 19.8265 7.14011C19.6594 6.67483 19.5657 6.35505 19.5657 6.35505L19.5859 6.34497C19.5859 6.34497 20.1599 7.52544 20.734 8.7052C21.2979 9.89071 21.8619 11.0755 21.8619 11.0755L21.8424 11.0863Z" fill="#006838"/>
<path d="M24.4382 7.18777C24.4382 7.18777 24.297 7.42184 24.0492 7.83238C23.7971 8.2386 23.4601 8.83568 23.0135 9.52351C22.1284 10.9042 20.9472 12.7451 19.7667 14.5854C18.5336 16.3917 17.3006 18.1981 16.3758 19.5522C15.917 20.2314 15.5 20.7751 15.2241 21.1662C14.9432 21.5544 14.7833 21.7763 14.7833 21.7763L14.7653 21.7633L24.4209 7.1748L24.4382 7.18777Z" fill="#006838"/>
<path d="M45.2705 31.5051C43.5339 22.6094 47.9865 17.7528 45.3043 9.43688C43.3928 3.51001 38.5513 1.72092 37.0222 0.93442C34.5518 -0.336807 23.5011 -0.46141 20.2089 1.50701C21.8518 1.41698 22.5987 2.74727 23.5199 4.97714C24.4288 7.18108 24.9841 13.0705 26.8488 16.4643C29.6578 21.5758 38.6522 24.3927 45.2705 31.5051Z" fill="url(#paint1_linear)"/>
<path d="M27.2522 0.37263C27.2522 0.37263 27.2298 0.464824 27.1751 0.616795C27.1124 0.763005 27.049 0.989873 26.9259 1.23043C26.8027 1.47099 26.6803 1.76486 26.5103 2.05511C26.349 2.35041 26.1523 2.64859 25.9586 2.94893C25.7512 3.23991 25.5459 3.53233 25.332 3.79161C25.1238 4.05522 24.897 4.27923 24.7191 4.48234C24.5404 4.68472 24.3546 4.82805 24.2415 4.94112C24.1213 5.04772 24.0435 5.1039 24.0435 5.1039L24.0067 5.07869C24.0067 5.07869 24.7997 3.89029 25.5927 2.70117C26.4037 1.52502 27.2147 0.348145 27.2147 0.348145L27.2522 0.37263Z" fill="#006838"/>
<path d="M32.4912 3.83042C32.4912 3.83042 32.4184 4.00184 32.2766 4.29137C32.1267 4.57587 31.938 4.99865 31.6651 5.47617C31.3899 5.95153 31.0982 6.52557 30.7324 7.10608C30.3694 7.68876 29.9819 8.30888 29.5951 8.92973C29.1795 9.53185 28.7639 10.134 28.375 10.6987C27.9868 11.264 27.5777 11.7617 27.2507 12.2032C26.9216 12.6426 26.609 12.9847 26.4087 13.2361C26.1999 13.4824 26.0724 13.6164 26.0724 13.6164L26.0349 13.5926C26.0349 13.5926 27.631 11.1402 29.2271 8.68773C30.8411 6.24683 32.4552 3.80737 32.4552 3.80737L32.4912 3.83042Z" fill="#006838"/>
<path d="M35.5789 10.4552C35.5789 10.4552 35.5126 10.6122 35.3815 10.8758C35.2425 11.1351 35.0696 11.5218 34.8161 11.9561C34.5619 12.3897 34.2875 12.909 33.954 13.4406C33.6292 13.9764 33.2582 14.5324 32.8895 15.0899C32.5077 15.638 32.1282 16.1876 31.7501 16.6889C31.3791 17.1937 30.9988 17.6424 30.6899 18.0386C30.3802 18.4347 30.0856 18.7387 29.8962 18.9634C29.6995 19.183 29.5785 19.3033 29.5785 19.3033L29.5418 19.2781C29.5418 19.2781 31.0327 17.0605 32.5243 14.8422C34.0332 12.6361 35.5428 10.4307 35.5428 10.4307L35.5789 10.4552Z" fill="#006838"/>
<path d="M38.6709 17.0813C38.6709 17.0813 38.637 17.1908 38.5614 17.3723C38.4786 17.5481 38.3857 17.8174 38.2286 18.1091C38.0709 18.4001 37.9081 18.7545 37.6949 19.1088C37.4897 19.4682 37.247 19.8348 37.0064 20.2036C36.7529 20.563 36.5015 20.9238 36.2436 21.2472C35.9923 21.5749 35.7251 21.8587 35.5119 22.113C35.2987 22.3672 35.0833 22.553 34.9508 22.6956C34.8097 22.8325 34.7211 22.9052 34.7211 22.9052L34.6843 22.88C34.6843 22.88 35.6624 21.4186 36.6412 19.9558C37.638 18.506 38.6349 17.0562 38.6349 17.0562L38.6709 17.0813Z" fill="#006838"/>
<path d="M41.76 23.7083C41.76 23.7083 41.7585 23.7702 41.7398 23.8682C41.7139 23.9611 41.7016 24.1109 41.6411 24.2593C41.5806 24.4077 41.5309 24.5949 41.4395 24.77C41.3559 24.95 41.2421 25.1257 41.1312 25.3029C41.0073 25.4707 40.8849 25.6414 40.7487 25.7855C40.6191 25.9346 40.4643 26.0505 40.349 26.1615C40.2323 26.2717 40.0984 26.3386 40.022 26.3977C39.9378 26.451 39.8809 26.4755 39.8809 26.4755L39.8441 26.4503C39.8441 26.4503 40.3051 25.7524 40.7653 25.0544C41.2443 24.3688 41.7232 23.6831 41.7232 23.6831L41.76 23.7083Z" fill="#006838"/>
<path d="M31.5261 1.97212C31.5261 1.97212 31.6463 1.95195 31.8559 1.93466C32.0641 1.92674 32.3659 1.88496 32.721 1.88928C33.076 1.89577 33.4931 1.87632 33.9353 1.90297C34.3782 1.91881 34.8478 1.96563 35.3167 2.00884C35.7849 2.0679 36.253 2.1248 36.6888 2.20403C37.1252 2.27605 37.5293 2.38337 37.8772 2.45468C38.225 2.52742 38.5095 2.63186 38.7119 2.68443C38.9129 2.74637 39.0267 2.79175 39.0267 2.79175L39.0216 2.83568C39.0216 2.83568 37.1454 2.64121 35.2692 2.44747C33.3951 2.23067 31.521 2.0146 31.521 2.0146L31.5261 1.97212Z" fill="#006838"/>
<path d="M34.0188 7.10969C34.0188 7.10969 34.1866 7.09384 34.4783 7.08376C34.7686 7.08304 35.1871 7.05134 35.6833 7.06863C36.1796 7.08663 36.7615 7.08232 37.3795 7.12337C37.9989 7.15506 38.6565 7.21844 39.3148 7.27822C39.9716 7.35384 40.6278 7.42731 41.2407 7.52238C41.8543 7.60953 42.4233 7.73126 42.9124 7.81481C43.4014 7.8998 43.8047 8.01503 44.0892 8.07481C44.373 8.14395 44.5336 8.19365 44.5336 8.19365L44.5293 8.23758C44.5293 8.23758 41.899 7.97758 39.2694 7.71685C36.6419 7.43452 34.0138 7.1529 34.0138 7.1529L34.0188 7.10969Z" fill="#006838"/>
<path d="M37.1079 13.7345C37.1079 13.7345 37.2527 13.7129 37.5033 13.6935C37.754 13.6834 38.1141 13.6387 38.5419 13.6402C38.9698 13.6423 39.4703 13.6193 40.0033 13.6409C40.537 13.6524 41.1046 13.6942 41.6714 13.7331C42.2375 13.7878 42.8036 13.8397 43.3323 13.9153C43.8616 13.983 44.3521 14.0853 44.7742 14.1537C45.1962 14.2228 45.5448 14.3244 45.7897 14.3755C46.0346 14.4353 46.1736 14.4807 46.1736 14.4807L46.17 14.5246C46.17 14.5246 43.9027 14.3496 41.6354 14.1746C39.3695 13.9773 37.1036 13.7792 37.1036 13.7792L37.1079 13.7345Z" fill="#006838"/>
<path d="M40.1992 20.3607C40.1992 20.3607 40.2799 20.3363 40.4182 20.3125C40.555 20.2974 40.7552 20.2455 40.9886 20.239C41.222 20.2325 41.4971 20.2001 41.7866 20.2109C42.0776 20.2124 42.3844 20.2433 42.6912 20.2707C42.9966 20.3139 43.302 20.355 43.5858 20.4198C43.8703 20.476 44.1303 20.5696 44.3564 20.6287C44.5819 20.6892 44.7648 20.7842 44.8959 20.8296C45.0255 20.8844 45.0983 20.9261 45.0983 20.9261L45.0933 20.9701C45.0933 20.9701 43.8674 20.8397 42.6415 20.7093C41.4179 20.5574 40.1949 20.4047 40.1949 20.4047L40.1992 20.3607Z" fill="#006838"/>
<path d="M43.454 26.9948C43.454 26.9969 43.4727 26.9631 43.5037 26.9264C43.5339 26.899 43.58 26.8284 43.6297 26.7996C43.6794 26.7722 43.7399 26.7139 43.7997 26.6973C43.8609 26.6714 43.9229 26.6728 43.9855 26.6714C44.0467 26.6858 44.1072 26.6973 44.1627 26.7355C44.2182 26.765 44.2657 26.8327 44.3089 26.8709C44.3521 26.9091 44.3831 26.9861 44.4069 27.0193C44.4299 27.0618 44.4415 27.0978 44.4415 27.0956L44.4371 27.1396C44.4371 27.1396 44.1886 27.1252 43.9409 27.1107C43.6953 27.0747 43.4489 27.038 43.4489 27.038L43.454 26.9948Z" fill="#006838"/>
<path d="M44.8001 30.3087C44.8001 30.3087 44.561 29.8499 44.1425 29.0482C43.7313 28.2423 43.1097 27.1072 42.4255 25.7164C41.7427 24.3242 40.9137 22.7159 40.084 20.9657C39.2514 19.2162 38.3626 17.3508 37.4738 15.4853C36.616 13.6055 35.7582 11.7257 34.9537 9.96326C34.1478 8.20155 33.447 6.53347 32.8196 5.11604C32.1945 3.69716 31.7241 2.4922 31.3705 1.6596C31.0248 0.823399 30.8274 0.345161 30.8274 0.345161L30.8678 0.327148L44.8397 30.2914L44.8001 30.3087Z" fill="#006838"/>
<path d="M9.04157 60.0001C9.04157 60.0001 20.3566 56.3089 29.0045 54.6588C19.2243 51.3587 13.3745 45.923 8.73403 49.324C5.87539 51.4192 7.5161 58.7491 9.04157 60.0001Z" fill="url(#paint2_linear)"/>
<path d="M24.1025 54.3074C24.1025 54.3074 24.0067 54.2346 23.8922 54.1129C23.844 54.0474 23.7719 53.9789 23.723 53.8918C23.6725 53.8054 23.6185 53.7132 23.5652 53.621C23.5263 53.5209 23.4882 53.4222 23.4521 53.3286C23.4154 53.2357 23.4061 53.1363 23.3859 53.0578C23.3621 52.8928 23.365 52.7725 23.365 52.7725L23.3852 52.7625C23.3852 52.7625 23.5746 53.1435 23.764 53.5252C23.9433 53.9112 24.1227 54.2966 24.1227 54.2966L24.1025 54.3074Z" fill="#006838"/>
<path d="M18.942 53.9486C18.942 53.9486 18.7799 53.7397 18.5667 53.4135C18.4688 53.2457 18.3391 53.0577 18.2282 52.8423C18.1166 52.6277 17.997 52.3987 17.8775 52.1696C17.773 51.9334 17.6686 51.6971 17.5714 51.476C17.4727 51.2542 17.4064 51.0367 17.3366 50.8552C17.2141 50.4843 17.1515 50.2286 17.1515 50.2286L17.1709 50.2185C17.1709 50.2185 17.6232 51.1462 18.0762 52.0738C18.5192 53.0066 18.9614 53.9385 18.9614 53.9385L18.942 53.9486Z" fill="#006838"/>
<path d="M13.7771 53.5899C13.7771 53.5899 13.6525 53.4574 13.4941 53.2449C13.4242 53.1347 13.3263 53.0137 13.2499 52.8697C13.1729 52.7264 13.09 52.5744 13.0072 52.4217C12.9395 52.2618 12.8718 52.1026 12.8091 51.9528C12.745 51.803 12.7105 51.651 12.6687 51.5271C12.6017 51.2715 12.5758 51.0921 12.5758 51.0921L12.5952 51.082C12.5952 51.082 12.9006 51.7043 13.206 52.3266C13.5013 52.9532 13.7966 53.5798 13.7966 53.5798L13.7771 53.5899Z" fill="#006838"/>
<path d="M21.5406 54.1294C21.5406 54.1294 21.4902 54.3052 21.3879 54.5522C21.3282 54.6703 21.2734 54.818 21.1884 54.9577C21.1049 55.0989 21.0149 55.2494 20.9255 55.4006C20.8218 55.5418 20.7188 55.683 20.6216 55.8155C20.5251 55.9488 20.412 56.0568 20.3263 56.1583C20.1398 56.3499 19.9979 56.4659 19.9972 56.4659L19.9791 56.4529C19.9791 56.4529 20.3602 55.8666 20.7412 55.2789C21.1315 54.6977 21.5212 54.1165 21.5212 54.1165L21.5406 54.1294Z" fill="#006838"/>
<path d="M16.3779 53.7708C16.3779 53.7708 16.2432 54.074 16.0149 54.5119C15.8925 54.7251 15.7643 54.9837 15.6001 55.2437C15.4373 55.5044 15.2637 55.7824 15.0901 56.0604C14.9029 56.3291 14.7149 56.5978 14.5392 56.8498C14.3641 57.1026 14.1769 57.3216 14.0285 57.5189C13.7152 57.9007 13.4898 58.1441 13.4891 58.1441L13.471 58.1311C13.471 58.1311 14.1884 57.0356 14.9065 55.9387C15.6332 54.8483 16.3599 53.7585 16.3599 53.7585L16.3779 53.7708Z" fill="#006838"/>
<path d="M11.7626 53.4329C11.7626 53.4329 12.0327 53.4408 12.5059 53.4537C12.9784 53.4725 13.6554 53.4717 14.4642 53.5222C16.0826 53.6122 18.2398 53.7332 20.3976 53.8535C22.5504 54.0372 24.7039 54.2201 26.3187 54.3577C27.1261 54.4218 27.7966 54.5168 28.267 54.5644C28.7366 54.617 29.0052 54.6472 29.0052 54.6472L29.0038 54.6695L11.7612 53.4545L11.7626 53.4329Z" fill="#006838"/>
<path d="M22.0405 22.9177C15.3379 28.8936 8.98034 27.3984 3.24289 33.9194C-0.845199 38.5672 0.0529441 43.7284 0.149456 45.4685C0.302868 48.2803 5.72197 58.0828 9.04157 60.0001C8.14342 58.5964 8.90328 57.274 10.3409 55.3466C11.7619 53.4437 16.4968 50.0103 18.453 46.6691C21.3973 41.6397 19.2978 32.3046 22.0405 22.9177Z" fill="url(#paint3_linear)"/>
<path d="M4.55445 54.3614C4.55445 54.3614 4.64521 54.3355 4.80222 54.3081C4.95851 54.2908 5.18467 54.2347 5.45116 54.2231C5.71765 54.2116 6.03095 54.1734 6.36298 54.1778C6.69501 54.1734 7.04793 54.1972 7.40013 54.2188C7.75161 54.2556 8.10309 54.2908 8.43008 54.3492C8.75779 54.3996 9.06029 54.4875 9.32173 54.5429C9.58246 54.5984 9.7971 54.6891 9.94835 54.7324C10.0989 54.7849 10.1846 54.8253 10.1846 54.8253L10.181 54.8692C10.181 54.8692 8.77219 54.7641 7.36411 54.6603C5.95748 54.5329 4.55086 54.4061 4.55086 54.4061L4.55445 54.3614Z" fill="#006838"/>
<path d="M4.87929 48.016C4.87929 48.016 5.06152 47.9943 5.37986 47.9756C5.69677 47.9655 6.15268 47.9216 6.69574 47.9245C7.23808 47.9295 7.87406 47.9007 8.55109 47.9331C9.22811 47.9619 9.95052 47.9929 10.6729 48.0246C11.3932 48.0894 12.1127 48.1542 12.7876 48.2147C13.4631 48.2738 14.089 48.3847 14.6278 48.4517C15.1665 48.5216 15.6123 48.6246 15.9256 48.6764C16.2389 48.7369 16.4168 48.7816 16.4168 48.7816L16.414 48.8255C16.414 48.8255 13.5287 48.6454 10.6441 48.4654C7.76026 48.263 4.87714 48.0599 4.87714 48.0599L4.87929 48.016Z" fill="#006838"/>
<path d="M8.97315 41.9825C8.97315 41.9825 9.14024 41.963 9.43193 41.9465C9.72219 41.94 10.1399 41.8997 10.6362 41.9069C11.1324 41.9141 11.7137 41.8975 12.3324 41.9263C12.9518 41.945 13.6108 41.994 14.2691 42.0401C14.9267 42.1028 15.5842 42.1625 16.1986 42.2447C16.8137 42.3188 17.3841 42.429 17.8753 42.5018C18.3658 42.5767 18.7713 42.6833 19.0565 42.7373C19.3417 42.8007 19.5031 42.8468 19.5031 42.8468L19.4995 42.8907C19.4995 42.8907 16.8663 42.6854 14.2324 42.4802C11.6006 42.2533 8.96883 42.025 8.96883 42.025L8.97315 41.9825Z" fill="#006838"/>
<path d="M13.067 35.9447C13.067 35.9447 13.1779 35.9202 13.3709 35.8965C13.5632 35.8813 13.8398 35.8295 14.1675 35.823C14.4952 35.8165 14.8791 35.7841 15.2875 35.7949C15.6959 35.7971 16.1295 35.8273 16.563 35.8554C16.9959 35.8993 17.4281 35.9404 17.8321 36.0052C18.2362 36.0621 18.61 36.1557 18.9319 36.2155C19.2539 36.276 19.5182 36.3718 19.7055 36.4172C19.892 36.4719 19.9972 36.5144 19.9972 36.5144L19.9936 36.5584C19.9936 36.5584 18.2599 36.4266 16.5263 36.2962C14.7949 36.1421 13.0627 35.9886 13.0627 35.9886L13.067 35.9447Z" fill="#006838"/>
<path d="M17.1608 29.9085C17.1608 29.9085 17.2149 29.8797 17.3085 29.8473C17.4007 29.8242 17.5354 29.7608 17.6931 29.7407C17.8508 29.7205 18.0359 29.6708 18.2304 29.665C18.4263 29.6499 18.6323 29.6614 18.839 29.6708C19.0443 29.6953 19.2495 29.7183 19.4397 29.7659C19.6305 29.8055 19.8056 29.8825 19.9575 29.9286C20.1088 29.9747 20.2319 30.0597 20.3191 30.0965C20.4055 30.1433 20.4545 30.1807 20.4545 30.1807L20.4509 30.2247C20.4509 30.2247 19.6262 30.1678 18.8015 30.1116C17.9783 30.0324 17.1558 29.9531 17.1558 29.9531L17.1608 29.9085Z" fill="#006838"/>
<path d="M3.77875 49.7958C3.77875 49.7958 3.70097 49.6985 3.58069 49.5228C3.46978 49.3427 3.28179 49.0986 3.10821 48.7831C2.93535 48.4669 2.70919 48.1083 2.51041 47.7064C2.30226 47.3073 2.10707 46.8709 1.90973 46.4351C1.72607 45.9929 1.54096 45.5514 1.39115 45.1279C1.23414 44.7073 1.12466 44.2989 1.0123 43.9561C0.900667 43.6132 0.848814 43.3107 0.792636 43.1062C0.74582 42.898 0.728531 42.7756 0.728531 42.7749L0.76959 42.7583C0.76959 42.7583 1.54241 44.5085 2.31523 46.2594C3.06788 48.0182 3.82053 49.7778 3.82053 49.7778L3.77875 49.7958Z" fill="#006838"/>
<path d="M6.90388 45.0291C6.90388 45.0291 6.8052 44.8894 6.65035 44.6373C6.50414 44.3816 6.26647 44.028 6.03311 43.5815C5.79975 43.1349 5.50445 42.625 5.23004 42.0589C4.94698 41.4978 4.67185 40.8863 4.39384 40.2763C4.13023 39.6605 3.86446 39.0447 3.63975 38.4569C3.40783 37.8728 3.22777 37.311 3.05491 36.8385C2.88278 36.3646 2.78121 35.9519 2.69046 35.6718C2.60836 35.3865 2.57018 35.2209 2.5709 35.2209L2.61124 35.2029C2.61124 35.2029 3.70457 37.6503 4.7979 40.0984C5.87106 42.5551 6.94421 45.0111 6.94421 45.0111L6.90388 45.0291Z" fill="#006838"/>
<path d="M10.9992 38.9935C10.9992 38.9935 10.9084 38.8768 10.7651 38.6651C10.6311 38.449 10.4115 38.1544 10.1983 37.777C9.98581 37.3989 9.71427 36.9682 9.46507 36.4878C9.20795 36.0117 8.95946 35.491 8.70882 34.9717C8.47186 34.4459 8.23346 33.9209 8.03395 33.4174C7.82652 32.9176 7.67023 32.4343 7.51754 32.0273C7.36557 31.6219 7.27986 31.2632 7.20063 31.0219C7.13005 30.7763 7.09908 30.6315 7.09908 30.6315L7.13941 30.6135C7.13941 30.6135 8.1247 32.6993 9.10927 34.7852C10.0744 36.8803 11.0395 38.9755 11.0395 38.9755L10.9992 38.9935Z" fill="#006838"/>
<path d="M15.0916 32.9573C15.0916 32.9573 15.0304 32.899 14.9403 32.7888C14.859 32.675 14.7135 32.5245 14.5903 32.3221C14.4679 32.1197 14.3015 31.8928 14.1654 31.6328C14.0206 31.3757 13.8931 31.0897 13.7635 30.806C13.6475 30.515 13.5301 30.2247 13.4444 29.9431C13.3508 29.6644 13.3011 29.3878 13.2391 29.1595C13.1786 28.9305 13.1686 28.7223 13.1426 28.584C13.1253 28.4428 13.1253 28.3579 13.1253 28.3579L13.1664 28.3413C13.1664 28.3413 13.6684 29.4872 14.1704 30.6331C14.6515 31.7876 15.1334 32.9422 15.1334 32.9422L15.0916 32.9573Z" fill="#006838"/>
<path d="M19.1098 26.7717C19.1113 26.7703 19.0731 26.7703 19.0256 26.7616C18.9867 26.7479 18.9024 26.7429 18.8527 26.7134C18.8037 26.6838 18.7223 26.6594 18.6784 26.614C18.6251 26.5729 18.5948 26.5175 18.5624 26.4627C18.5444 26.4022 18.5235 26.3424 18.5293 26.2755C18.5271 26.2121 18.5617 26.1365 18.5732 26.0803C18.5855 26.0234 18.6359 25.9571 18.6525 25.9197C18.6777 25.8779 18.7036 25.8491 18.7014 25.8505L18.7418 25.8325C18.7418 25.8325 18.8541 26.0579 18.9665 26.2841C19.0587 26.5189 19.1502 26.753 19.1502 26.753L19.1098 26.7717Z" fill="#006838"/>
<path d="M21.2597 23.9276C21.2597 23.9276 20.9897 24.3662 20.5165 25.1361C20.0368 25.9003 19.3828 27.0131 18.5416 28.3109C17.6989 29.6081 16.7453 31.1408 15.6707 32.7462C14.599 34.3545 13.4552 36.0701 12.3122 37.785C11.1411 39.4812 9.96924 41.1781 8.87159 42.7684C7.77466 44.3601 6.70511 45.8143 5.81129 47.0754C4.91603 48.3365 4.12448 49.3564 3.5915 50.0846C3.05204 50.8084 2.74378 51.2226 2.74378 51.2226L2.70705 51.1973L21.223 23.9023L21.2597 23.9276Z" fill="#006838"/>
<path d="M63.9427 41.0067C63.9427 41.0067 55.1442 32.8802 49.4147 26.084C51.4976 36.3525 49.7964 44.2254 55.011 46.6159C58.2225 48.0866 63.6402 42.9765 63.9427 41.0067Z" fill="url(#paint4_linear)"/>
<path d="M51.5668 30.5796C51.5668 30.5796 51.5545 30.6984 51.5084 30.8591C51.4775 30.934 51.4559 31.0305 51.4062 31.1169C51.3579 31.204 51.3068 31.2977 51.2556 31.3906C51.1901 31.4741 51.1246 31.5577 51.0626 31.6369C51.0021 31.7154 50.9222 31.7738 50.8653 31.8321C50.7356 31.9373 50.6312 31.9956 50.6312 31.9956L50.6132 31.9826C50.6132 31.9826 50.8422 31.6261 51.0713 31.2689C51.3097 30.9181 51.548 30.5667 51.548 30.5667L51.5668 30.5796Z" fill="#006838"/>
<path d="M53.8427 35.3081C53.8427 35.3081 53.747 35.553 53.5763 35.903C53.4826 36.0723 53.3883 36.2797 53.2608 36.4857C53.134 36.691 52.9993 36.9106 52.8647 37.1303C52.7156 37.3406 52.5665 37.551 52.4275 37.7476C52.2885 37.9442 52.1358 38.1142 52.0162 38.2669C51.7613 38.5607 51.574 38.7458 51.574 38.7458L51.556 38.7329C51.556 38.7329 52.1185 37.8707 52.6817 37.0079C53.2536 36.1522 53.8255 35.2952 53.8255 35.2952L53.8427 35.3081Z" fill="#006838"/>
<path d="M56.1194 40.0379C56.1194 40.0379 56.0704 40.2122 55.9696 40.4563C55.9105 40.573 55.8572 40.7185 55.7737 40.8575C55.6909 40.9972 55.603 41.1456 55.5144 41.2947C55.4121 41.4344 55.3099 41.5741 55.2141 41.7045C55.119 41.8356 55.0067 41.9429 54.9224 42.0423C54.7373 42.231 54.5968 42.3455 54.5961 42.3455L54.5781 42.3326C54.5781 42.3326 54.9541 41.7528 55.3308 41.173C55.7161 40.5989 56.1021 40.0249 56.1021 40.0249L56.1194 40.0379Z" fill="#006838"/>
<path d="M52.6968 32.9269C52.6968 32.9269 52.8733 32.8837 53.1355 32.852C53.2658 32.8455 53.4192 32.8203 53.5813 32.8254C53.7441 32.829 53.9169 32.8326 54.0898 32.8362C54.2619 32.8563 54.4341 32.8772 54.5954 32.8959C54.7567 32.914 54.9051 32.9593 55.0333 32.9838C55.2883 33.0522 55.4575 33.1185 55.4575 33.1185L55.4561 33.1408C55.4561 33.1408 54.7654 33.0984 54.0747 33.0566C53.3847 33.0033 52.6947 32.9507 52.6947 32.9507L52.6968 32.9269Z" fill="#006838"/>
<path d="M54.9721 37.6553C54.9721 37.6553 55.2991 37.6229 55.7867 37.6063C56.0301 37.6085 56.3146 37.5919 56.6178 37.607C56.921 37.6207 57.2444 37.6344 57.5678 37.6488C57.8905 37.6798 58.2125 37.7107 58.5142 37.7395C58.8167 37.7676 59.0969 37.8216 59.3382 37.8541C59.8186 37.9383 60.1377 38.0154 60.1377 38.0154L60.1362 38.0377C60.1362 38.0377 58.8441 37.9534 57.5527 37.8692C56.2613 37.7734 54.9706 37.6783 54.9706 37.6783L54.9721 37.6553Z" fill="#006838"/>
<path d="M56.9924 41.8918C56.9924 41.8918 56.8634 41.6498 56.638 41.2263C56.4176 40.7999 56.0777 40.2035 55.7161 39.4667C54.9836 37.9953 54.007 36.0333 53.0303 34.0721C52.1106 32.0828 51.1901 30.0942 50.5001 28.6019C50.1515 27.8579 49.898 27.2197 49.7035 26.7826C49.5141 26.3418 49.4061 26.0897 49.4061 26.0897L49.4255 26.0796L57.0125 41.8817L56.9924 41.8918Z" fill="#006838"/>
<path d="M25.8837 48.0917C34.3206 51.0101 36.2278 57.3612 44.646 59.156C50.6449 60.4345 54.5875 57.0616 56.0229 56.1087C58.3392 54.5667 63.9715 44.8902 63.9427 41.0067C63.1965 42.4983 61.692 42.4918 59.3339 42.1886C57.0025 41.8868 51.713 39.4322 47.8928 39.3782C42.1395 39.2968 35.244 45.815 25.8837 48.0917Z" fill="url(#paint5_linear)"/>
<path d="M61.3859 47.7791C61.3859 47.7791 61.3181 47.7121 61.2159 47.5868C61.1222 47.4571 60.9602 47.2864 60.8161 47.0574C60.6728 46.8284 60.4827 46.5712 60.3206 46.2766C60.1499 45.9857 59.9936 45.663 59.8359 45.3418C59.6918 45.014 59.5464 44.6871 59.4326 44.3695C59.3123 44.0547 59.2366 43.745 59.1531 43.4872C59.0703 43.23 59.0422 42.9952 59.0033 42.8411C58.973 42.6819 58.9651 42.5868 58.9651 42.5868L59.0054 42.5688C59.0054 42.5688 59.6205 43.8617 60.2356 45.1552C60.8305 46.4581 61.4255 47.7603 61.4255 47.7603L61.3859 47.7791Z" fill="#006838"/>
<path d="M55.8241 50.6665C55.8241 50.6665 55.7147 50.5159 55.5389 50.2444C55.3718 49.9693 55.1046 49.5897 54.8345 49.11C54.5673 48.6289 54.223 48.083 53.9119 47.4708C53.5979 46.8593 53.263 46.2075 52.928 45.5549C52.6234 44.888 52.3187 44.221 52.0335 43.5966C51.7468 42.9721 51.5293 42.3642 51.3169 41.8565C51.1073 41.3473 50.974 40.9029 50.8617 40.6011C50.7572 40.2957 50.7068 40.1164 50.7068 40.1164L50.7471 40.0969C50.7471 40.0969 52.0364 42.7294 53.3256 45.3633C54.5947 48.0052 55.8645 50.6477 55.8645 50.6477L55.8241 50.6665Z" fill="#006838"/>
<path d="M48.6419 50.0752C48.6419 50.0752 48.5411 49.9384 48.3812 49.6891C48.2299 49.4356 47.9857 49.0885 47.743 48.6477C47.501 48.2062 47.1949 47.702 46.9097 47.1424C46.6151 46.5871 46.3277 45.9821 46.0382 45.3778C45.7624 44.767 45.4844 44.1584 45.2481 43.5757C45.004 42.9959 44.8131 42.4392 44.6309 41.9696C44.4494 41.5007 44.3392 41.0895 44.2427 40.8115C44.1548 40.5291 44.1137 40.3635 44.1137 40.3635L44.1541 40.3455C44.1541 40.3455 45.2964 42.7684 46.4387 45.192C47.5608 47.6249 48.6829 50.0579 48.6829 50.0579L48.6419 50.0752Z" fill="#006838"/>
<path d="M41.4575 49.4868C41.4575 49.4868 41.3811 49.4011 41.263 49.2433C41.1542 49.0806 40.9699 48.863 40.7999 48.5771C40.6299 48.2912 40.4095 47.9685 40.2143 47.6033C40.0105 47.2425 39.8197 46.8449 39.6266 46.4481C39.4473 46.0447 39.2665 45.6436 39.1203 45.2553C38.9669 44.8715 38.861 44.4948 38.7508 44.1815C38.6421 43.8667 38.5924 43.5866 38.5383 43.3993C38.493 43.207 38.4764 43.0932 38.4764 43.0932L38.5167 43.0752C38.5167 43.0752 39.2723 44.6684 40.0278 46.2623C40.7632 47.8655 41.4985 49.468 41.4985 49.468L41.4575 49.4868Z" fill="#006838"/>
<path d="M34.2723 48.896C34.2723 48.896 34.2198 48.8629 34.1456 48.7967C34.0793 48.7261 33.9562 48.6389 33.8596 48.5107C33.7638 48.3818 33.6277 48.2428 33.5247 48.075C33.4124 47.91 33.3195 47.7228 33.2244 47.5355C33.143 47.3418 33.0595 47.1502 33.0054 46.9586C32.9442 46.7699 32.9233 46.5776 32.8866 46.4213C32.8513 46.2643 32.8621 46.1145 32.8513 46.0187C32.8484 45.9186 32.8564 45.8566 32.8564 45.8566L32.8967 45.8386C32.8967 45.8386 33.2604 46.5934 33.6249 47.349C33.9691 48.1139 34.3134 48.878 34.3134 48.878L34.2723 48.896Z" fill="#006838"/>
<path d="M57.8898 50.7457C57.8898 50.7457 57.8473 50.8624 57.758 51.0554C57.6607 51.2426 57.5477 51.5279 57.3669 51.8376C57.1854 52.148 56.9938 52.524 56.7511 52.9006C56.5163 53.2817 56.2426 53.672 55.9711 54.0638C55.6866 54.447 55.4035 54.8309 55.1169 55.1759C54.8374 55.5245 54.5428 55.827 54.3073 56.0985C54.0711 56.3693 53.8377 56.5681 53.6915 56.7201C53.5374 56.8663 53.4409 56.9441 53.4409 56.9441L53.4048 56.9189C53.4048 56.9189 54.5083 55.3631 55.6109 53.8067C56.7324 52.2639 57.8531 50.7212 57.8531 50.7212L57.8898 50.7457Z" fill="#006838"/>
<path d="M52.2712 50.3741C52.2712 50.3741 52.202 50.5297 52.0652 50.7911C51.9211 51.0468 51.7404 51.4314 51.4782 51.8592C51.2153 52.2871 50.9294 52.8013 50.5851 53.3249C50.2487 53.8543 49.8663 54.4031 49.4867 54.9527C49.0942 55.4936 48.7031 56.0352 48.3149 56.5286C47.9339 57.0255 47.5442 57.467 47.2273 57.8567C46.9097 58.2463 46.6086 58.5445 46.4149 58.7656C46.2132 58.981 46.0901 59.0984 46.0901 59.0984L46.054 59.0732C46.054 59.0732 47.5903 56.8858 49.1273 54.6984C50.6816 52.524 52.2366 50.3496 52.2366 50.3496L52.2712 50.3741Z" fill="#006838"/>
<path d="M45.0875 49.7835C45.0875 49.7835 45.0342 49.9204 44.9262 50.1516C44.8095 50.377 44.6698 50.7162 44.4551 51.0929C44.2398 51.4682 44.0107 51.9205 43.7262 52.38C43.4504 52.8445 43.1313 53.3235 42.8144 53.8039C42.4846 54.2757 42.1568 54.7489 41.8284 55.1774C41.5057 55.6103 41.1716 55.992 40.9022 56.3305C40.6321 56.669 40.3692 56.9247 40.2028 57.1163C40.0285 57.3028 39.9205 57.4029 39.9205 57.4029L39.8838 57.3777C39.8838 57.3777 41.1665 55.4676 42.4492 53.5561C43.75 51.6576 45.0508 49.759 45.0508 49.759L45.0875 49.7835Z" fill="#006838"/>
<path d="M37.9031 49.1944C37.9031 49.1944 37.8843 49.2772 37.8361 49.4112C37.7799 49.5394 37.7259 49.741 37.6157 49.9492C37.5048 50.1581 37.396 50.4159 37.2426 50.6651C37.0964 50.9201 36.9171 51.1758 36.7399 51.4322C36.5505 51.6792 36.3625 51.9277 36.1651 52.1459C35.9743 52.3685 35.7632 52.5514 35.599 52.7214C35.4341 52.8907 35.2598 53.0052 35.1554 53.0974C35.043 53.1838 34.971 53.2277 34.971 53.2277L34.935 53.2025C34.935 53.2025 35.6595 52.1877 36.3834 51.1729C37.1252 50.1703 37.8678 49.1692 37.8678 49.1692L37.9031 49.1944Z" fill="#006838"/>
<path d="M30.6279 48.7457C30.6265 48.7442 30.6459 48.7781 30.6625 48.8227C30.6719 48.8631 30.71 48.938 30.71 48.9956C30.71 49.0525 30.7309 49.1346 30.7151 49.1951C30.7071 49.2621 30.6747 49.3161 30.6452 49.3715C30.602 49.4184 30.5617 49.4666 30.5019 49.4969C30.4486 49.5314 30.3658 49.5401 30.3117 49.5595C30.257 49.5783 30.1742 49.5682 30.1331 49.5732C30.0849 49.5732 30.0467 49.5653 30.0488 49.5667L30.0128 49.5415C30.0128 49.5415 30.1482 49.3298 30.2836 49.118C30.4378 48.9192 30.5912 48.7197 30.5912 48.7197L30.6279 48.7457Z" fill="#006838"/>
<path d="M27.1348 48.2759C27.1348 48.2759 27.6447 48.2939 28.5356 48.327C29.4266 48.3688 30.7028 48.389 32.2283 48.4819C33.7538 48.5762 35.5364 48.6511 37.4407 48.7952C39.3457 48.9356 41.3775 49.0854 43.4093 49.236C45.4382 49.4196 47.4672 49.6033 49.3701 49.7754C51.2722 49.9454 53.0433 50.1608 54.5637 50.3171C56.0834 50.4748 57.346 50.662 58.2319 50.7665C59.1171 50.8788 59.6227 50.9437 59.6227 50.9437L59.6191 50.9876L27.1311 48.3198L27.1348 48.2759Z" fill="#006838"/>
<path d="M96.6798 46.6055V46.6206C97.022 46.648 97.3281 46.7402 97.596 46.8979C97.8639 47.0549 98.1131 47.3056 98.345 47.6477C98.5762 47.9905 98.7657 48.3117 98.9147 48.6121C99.0624 48.9124 99.2612 49.346 99.5118 49.91C99.5486 49.9928 99.5767 50.0576 99.5954 50.1044H98.999C98.4812 48.9664 98.1146 48.2448 97.9021 47.9394C97.431 47.2357 96.8289 46.8713 96.0979 46.8432C96.0705 46.8432 96.0431 46.8432 96.0151 46.8432H94.71C94.7388 47.1017 94.7525 47.3574 94.7525 47.6073V50.1051H94.1972V43.4163H94.7525V45.5935C94.7525 45.8629 94.7388 46.1316 94.71 46.3995H95.987C96.2643 46.3995 96.5228 46.344 96.7641 46.2338C97.0054 46.1222 97.2078 45.9925 97.3741 45.8449C97.5412 45.6972 97.7141 45.4812 97.8949 45.1996C98.0757 44.9172 98.219 44.668 98.3256 44.4498C98.4315 44.2323 98.5733 43.9384 98.7491 43.5689C98.7757 43.5048 98.7995 43.4523 98.8182 43.4163H99.4016C99.2064 43.8513 99.0631 44.1703 98.9717 44.3734C98.8787 44.5773 98.7354 44.8452 98.5409 45.1787C98.3457 45.5114 98.1736 45.757 98.0202 45.914C97.8682 46.0718 97.6745 46.2194 97.4383 46.3584C97.2006 46.4946 96.9478 46.5781 96.6798 46.6055Z" fill="#808184"/>
<path d="M109.572 43.2478C110.664 43.2478 111.433 43.5114 111.877 44.0393C112.321 44.5658 112.542 45.4726 112.542 46.7583C112.542 48.0547 112.321 48.9629 111.877 49.4858C111.433 50.0087 110.664 50.2702 109.572 50.2702C108.471 50.2702 107.697 50.0094 107.248 49.4858C106.799 48.9622 106.575 48.0547 106.575 46.7583C106.575 45.4726 106.799 44.5658 107.248 44.0393C107.697 43.5114 108.471 43.2478 109.572 43.2478ZM111.446 44.3987C111.095 43.9644 110.47 43.7477 109.572 43.7477C108.675 43.7477 108.049 43.9652 107.692 44.3987C107.336 44.8338 107.158 45.6203 107.158 46.7575C107.158 47.8962 107.336 48.6856 107.692 49.1243C108.05 49.5643 108.675 49.784 109.572 49.784C110.47 49.784 111.095 49.5643 111.446 49.1243C111.798 48.6856 111.973 47.8962 111.973 46.7575C111.974 45.621 111.798 44.8345 111.446 44.3987Z" fill="#808184"/>
<path d="M126.739 43.4143H127.418C127.595 43.4143 127.683 43.4979 127.683 43.6642L128.016 50.1032H127.489L127.169 43.8724H126.906L124.616 49.2706C124.56 49.4002 124.477 49.4658 124.366 49.4658H123.755C123.654 49.4658 123.574 49.4002 123.519 49.2706L121.229 43.8724H120.965L120.646 50.1032H120.119L120.452 43.6642C120.452 43.4986 120.54 43.4143 120.716 43.4143H121.409C121.53 43.4143 121.614 43.4791 121.659 43.6095L123.561 48.1189C123.709 48.4618 123.834 48.7715 123.936 49.0495H124.2C124.395 48.5403 124.519 48.2306 124.574 48.1189L126.476 43.6095C126.521 43.4791 126.609 43.4143 126.739 43.4143Z" fill="#808184"/>
<path d="M141.408 43.4143L138.437 50.6859C138.077 51.5739 137.679 52.1948 137.244 52.5455C136.708 52.9345 136.046 53.0692 135.26 52.9489L135.301 52.5873C135.968 52.6255 136.513 52.4901 136.939 52.1847C137.29 51.8793 137.623 51.342 137.938 50.5757L138.118 50.1039H137.951C137.832 50.1039 137.748 50.0485 137.701 49.9375L135.036 43.415H135.634L137.84 48.8961L138.132 49.6458H138.312L138.617 48.8817L140.81 43.4143H141.408Z" fill="#808184"/>
<path d="M153.994 43.4143V50.1032H153.438V46.7577H149.136V50.1032H148.582V43.4143H149.136V46.314H153.438V43.4143H153.994Z" fill="#808184"/>
<path d="M161.987 43.9551L161.932 43.5388C163.339 43.3443 164.407 43.2478 165.138 43.2478C166.451 43.2478 167.109 43.8953 167.109 45.1903V50.1031H166.679L166.581 48.8679C166.257 49.192 165.801 49.4945 165.214 49.7775C164.627 50.0599 164.046 50.1996 163.473 50.1996C162.909 50.1996 162.467 50.0505 162.147 49.7487C161.829 49.4484 161.668 49.0205 161.668 48.4652V47.6326C161.668 47.1249 161.811 46.7316 162.099 46.4529C162.385 46.1763 162.797 46.0373 163.334 46.0373H166.553V45.1903C166.553 44.228 166.058 43.7477 165.068 43.7477C164.264 43.7477 163.237 43.8168 161.987 43.9551ZM162.223 47.6744V48.4242C162.223 49.2481 162.658 49.668 163.528 49.6868C163.991 49.6968 164.511 49.5787 165.089 49.3331C165.667 49.0875 166.156 48.78 166.553 48.4098V46.4817L163.389 46.5235C162.611 46.5415 162.223 46.9254 162.223 47.6744Z" fill="#808184"/>
<path d="M180.141 43.4143V50.1032H179.599V43.8724H177.642C177.327 43.8724 177.095 43.948 176.941 44.1007C176.789 44.2534 176.694 44.4918 176.657 44.8159C176.647 44.862 176.622 45.0788 176.58 45.467C176.539 45.8567 176.511 46.1087 176.497 46.224C176.483 46.3392 176.451 46.5589 176.4 46.883C176.349 47.2071 176.302 47.452 176.26 47.6184C176.22 47.7855 176.164 47.9814 176.095 48.2082C176.026 48.4344 175.95 48.6361 175.865 48.8118C175.523 49.5709 174.982 50.0247 174.242 50.1723L174.173 49.728C174.747 49.5054 175.149 49.1359 175.381 48.6181C175.501 48.3674 175.609 48.0419 175.708 47.64C175.803 47.2374 175.871 46.9003 175.907 46.6266C175.945 46.3543 175.989 45.9884 176.04 45.5311C176.09 45.0723 176.121 44.8123 176.13 44.7468C176.184 44.293 176.328 43.9574 176.559 43.7413C176.79 43.5238 177.138 43.415 177.6 43.415H180.141V43.4143Z" fill="#808184"/>
<path d="M188.744 46.2737H190.797C191.742 46.2737 192.391 46.4192 192.748 46.7094C193.104 47.0011 193.282 47.5074 193.282 48.2298C193.282 48.9789 193.101 49.4924 192.741 49.7697C192.38 50.0477 191.75 50.186 190.854 50.186C189.762 50.186 188.877 50.1587 188.202 50.1032V43.4143H188.744V46.2737ZM188.744 46.7173V49.7013C189.049 49.7107 189.734 49.715 190.797 49.715C191.51 49.715 192.005 49.6127 192.283 49.4103C192.561 49.2065 192.699 48.8089 192.699 48.2176C192.699 47.6522 192.566 47.2611 192.297 47.0443C192.028 46.8261 191.529 46.7181 190.797 46.7181H188.744V46.7173Z" fill="#808184"/>
<path d="M206.202 43.4143V50.1032H205.647V46.7577H201.344V50.1032H200.789V43.4143H201.344V46.314H205.647V43.4143H206.202Z" fill="#808184"/>
<path d="M218.054 47.0356H214.487C214.524 48.054 214.738 48.7634 215.126 49.1667C215.515 49.5686 216.143 49.7696 217.013 49.7696C217.799 49.7696 218.562 49.7141 219.302 49.6039L219.373 49.9921C218.837 50.178 218.027 50.2702 216.944 50.2702C215.862 50.2702 215.087 49.9986 214.62 49.4577C214.152 48.9168 213.919 48.0072 213.919 46.7316C213.919 45.4546 214.14 44.555 214.586 44.0321C215.029 43.5092 215.778 43.2478 216.833 43.2478C218.609 43.2478 219.507 43.9047 219.525 45.2184C219.543 45.8284 219.437 46.2843 219.206 46.584C218.973 46.8857 218.59 47.0356 218.054 47.0356ZM214.487 46.5782H217.971C218.656 46.5782 218.988 46.1345 218.97 45.2457C218.96 44.7192 218.785 44.3361 218.444 44.1006C218.1 43.8658 217.574 43.7477 216.861 43.7477C216.002 43.7477 215.393 43.9551 215.036 44.3714C214.679 44.7877 214.496 45.5238 214.487 46.5782Z" fill="#808184"/>
<path d="M241.243 43.4143V50.1032H240.688V43.8854H236.413V50.1032H235.872V43.4143H241.243Z" fill="#808184"/>
<path d="M249.5 40.624H249.751C249.89 40.624 249.959 40.6989 249.959 40.8466V41.6799C249.959 41.8275 249.89 41.9017 249.751 41.9017H249.5C249.362 41.9017 249.293 41.8275 249.293 41.6799V40.8466C249.293 40.6989 249.362 40.624 249.5 40.624ZM249.903 50.1031H249.347V43.4142H249.903V50.1031Z" fill="#808184"/>
<path d="M263.836 49.6451V52.1148H263.447L263.365 50.1032H257.633L257.55 52.1148H257.176V49.6451H257.812C258.545 48.4517 258.96 46.8232 259.063 44.7597C259.117 43.863 259.585 43.4143 260.464 43.4143H263.031V49.6451H263.836ZM262.504 49.6451V43.8717H260.547C259.937 43.8717 259.617 44.1857 259.59 44.8159C259.488 46.87 259.082 48.4798 258.369 49.6451H262.504Z" fill="#808184"/>
<path d="M276.686 43.4143V50.1032H276.132V43.8854H271.857V50.1032H271.315V43.4143H276.686Z" fill="#808184"/>
<path d="M285.18 43.4142L285.25 44.5939C286.194 43.6972 287.119 43.2478 288.025 43.2478C288.876 43.2478 289.487 43.5237 289.857 44.0732C290.228 44.6235 290.412 45.5238 290.412 46.7727C290.412 48.0309 290.222 48.9283 289.842 49.4649C289.464 50.0008 288.84 50.2694 287.969 50.2694C287.099 50.2694 286.196 50.0246 285.264 49.5341C285.29 49.8567 285.304 50.2918 285.304 50.8384V52.9883H284.75V43.4134H285.18V43.4142ZM285.304 45.0102V49.1603C286.397 49.5665 287.258 49.7703 287.885 49.7703C288.599 49.7703 289.102 49.5485 289.399 49.1048C289.696 48.6611 289.842 47.8825 289.842 46.7734C289.842 45.6721 289.697 44.8928 289.406 44.4347C289.115 43.9767 288.621 43.7484 287.928 43.7484C287.512 43.7484 287.107 43.8456 286.713 44.0393C286.321 44.2324 285.852 44.5565 285.304 45.0102Z" fill="#808184"/>
<path d="M303.734 50.1032H303.22V44.898V44.1345H303.206C303.123 44.2728 302.984 44.4824 302.791 44.759L298.628 50.1025H298.155V43.4136H298.682V48.5763C298.682 48.9277 298.678 49.1957 298.668 49.3801H298.682C298.784 49.2151 298.941 48.9976 299.154 48.729L303.262 43.4136H303.733V50.1032H303.734Z" fill="#808184"/>
<path d="M316.627 49.6041L316.71 50.0197C316.1 50.1587 315.381 50.2286 314.559 50.2286C313.421 50.2286 312.623 49.9722 312.165 49.4579C311.707 48.9444 311.479 48.0549 311.479 46.7865C311.479 45.5196 311.707 44.6316 312.165 44.1223C312.623 43.6139 313.421 43.3596 314.559 43.3596C315.401 43.3596 316.096 43.4187 316.641 43.539L316.559 43.9423C315.939 43.8767 315.272 43.845 314.559 43.845C313.672 43.845 313.04 44.0395 312.665 44.4285C312.291 44.8167 312.085 45.5016 312.048 46.4826H315.559V46.9119H312.048C312.058 47.967 312.247 48.7002 312.616 49.1122C312.988 49.5242 313.635 49.7294 314.559 49.7294C315.326 49.7287 316.015 49.6869 316.627 49.6041Z" fill="#808184"/>
<path d="M330.615 43.4143H331.294C331.471 43.4143 331.559 43.4979 331.559 43.6642L331.893 50.1032H331.363L331.046 43.8724H330.782L328.493 49.2706C328.436 49.4002 328.354 49.4658 328.241 49.4658H327.632C327.53 49.4658 327.45 49.4002 327.395 49.2706L325.105 43.8724H324.841L324.523 50.1032H323.995L324.329 43.6642C324.329 43.4986 324.417 43.4143 324.593 43.4143H325.286C325.406 43.4143 325.489 43.4791 325.537 43.6095L327.438 48.1189C327.585 48.4618 327.71 48.7715 327.812 49.0495H328.077C328.272 48.5403 328.395 48.2306 328.451 48.1189L330.353 43.6095C330.398 43.4791 330.484 43.4143 330.615 43.4143Z" fill="#808184"/>
<path d="M344.563 49.6171L344.632 50.0061C343.975 50.1811 343.276 50.2697 342.536 50.2697C341.409 50.2697 340.612 50.0061 340.15 49.4781C339.687 48.9502 339.455 48.0441 339.455 46.7578C339.455 45.4721 339.687 44.5654 340.15 44.0389C340.613 43.5116 341.409 43.2473 342.536 43.2473C343.332 43.2473 343.98 43.3352 344.479 43.5109L344.382 43.8855C343.891 43.794 343.304 43.7479 342.619 43.7479C341.657 43.7479 340.984 43.9618 340.6 44.3925C340.217 44.8232 340.024 45.6119 340.024 46.7585C340.024 47.9066 340.217 48.6945 340.6 49.1252C340.984 49.5552 341.657 49.7705 342.619 49.7705C343.397 49.7698 344.044 49.7194 344.563 49.6171Z" fill="#808184"/>
<path d="M356.97 43.8998H354.361V50.1032H353.792V43.8998H351.183V43.4143H356.97V43.8998Z" fill="#808184"/>
<path d="M367.959 46.6475V46.6756C368.571 46.721 369.002 46.8902 369.257 47.1819C369.512 47.4729 369.64 47.8964 369.64 48.4517C369.64 49.1179 369.446 49.5739 369.064 49.818C368.68 50.0636 367.997 50.1861 367.015 50.1861C365.841 50.1861 364.893 50.1587 364.172 50.1032V43.428C364.799 43.3726 365.623 43.3445 366.642 43.3445C367.678 43.3445 368.397 43.4698 368.799 43.7197C369.203 43.9696 369.403 44.4414 369.403 45.135C369.403 45.6075 369.288 45.9676 369.057 46.2175C368.825 46.4667 368.459 46.6108 367.959 46.6475ZM364.698 46.453H366.863C367.622 46.4444 368.145 46.3544 368.432 46.1829C368.718 46.0122 368.862 45.6716 368.862 45.1638C368.862 44.6272 368.7 44.2678 368.376 44.0871C368.053 43.907 367.469 43.817 366.628 43.817C365.786 43.799 365.142 43.799 364.698 43.817V46.453ZM364.698 46.8701V49.7143C365.021 49.7237 365.775 49.7287 366.961 49.7287C367.756 49.7287 368.31 49.6365 368.62 49.4514C368.929 49.2663 369.084 48.9055 369.084 48.3682C369.084 47.7949 368.922 47.4023 368.598 47.1884C368.275 46.9759 367.697 46.8701 366.864 46.8701H364.698Z" fill="#808184"/>
<path d="M380.006 43.2478C381.099 43.2478 381.865 43.5114 382.309 44.0393C382.753 44.5658 382.975 45.4726 382.975 46.7583C382.975 48.0547 382.753 48.9629 382.309 49.4858C381.865 50.0087 381.098 50.2702 380.006 50.2702C378.904 50.2702 378.13 50.0094 377.681 49.4858C377.231 48.9622 377.009 48.0547 377.009 46.7583C377.009 45.4726 377.232 44.5658 377.681 44.0393C378.13 43.5114 378.904 43.2478 380.006 43.2478ZM381.879 44.3987C381.529 43.9644 380.904 43.7477 380.006 43.7477C379.11 43.7477 378.482 43.9652 378.125 44.3987C377.77 44.8338 377.591 45.6203 377.591 46.7575C377.591 47.8962 377.77 48.6856 378.125 49.1243C378.482 49.5643 379.11 49.784 380.006 49.784C380.903 49.784 381.528 49.5643 381.879 49.1243C382.232 48.6856 382.407 47.8962 382.407 46.7575C382.407 45.621 382.232 44.8345 381.879 44.3987Z" fill="#808184"/>
<defs>
<linearGradient id="paint0_linear" x1="17.203" y1="11.4072" x2="23.1255" y2="12.377" gradientUnits="userSpaceOnUse">
<stop stop-color="#65C08A"/>
<stop offset="0.5" stop-color="#00A551"/>
<stop offset="1" stop-color="#00914D"/>
</linearGradient>
<linearGradient id="paint1_linear" x1="28.5737" y1="18.4005" x2="45.6756" y2="10.567" gradientUnits="userSpaceOnUse">
<stop stop-color="#65C08A"/>
<stop offset="0.25" stop-color="#00A551"/>
<stop offset="0.5" stop-color="#00914D"/>
<stop offset="0.75" stop-color="#00A551"/>
<stop offset="1" stop-color="#65C08A"/>
</linearGradient>
<linearGradient id="paint2_linear" x1="18.9644" y1="57.6723" x2="16.8195" y2="51.9958" gradientUnits="userSpaceOnUse">
<stop stop-color="#65C08A"/>
<stop offset="0.5" stop-color="#00A551"/>
<stop offset="1" stop-color="#00914D"/>
</linearGradient>
<linearGradient id="paint3_linear" x1="19.3245" y1="44.1582" x2="3.93081" y2="33.2226" gradientUnits="userSpaceOnUse">
<stop stop-color="#65C08A"/>
<stop offset="0.25" stop-color="#00A551"/>
<stop offset="0.5" stop-color="#00914D"/>
<stop offset="0.75" stop-color="#00A551"/>
<stop offset="1" stop-color="#65C08A"/>
</linearGradient>
<linearGradient id="paint4_linear" x1="57.1002" y1="33.3323" x2="53.2053" y2="38.0908" gradientUnits="userSpaceOnUse">
<stop stop-color="#65C08A"/>
<stop offset="0.5" stop-color="#00A551"/>
<stop offset="1" stop-color="#00914D"/>
</linearGradient>
<linearGradient id="paint5_linear" x1="45.3616" y1="39.9118" x2="43.5685" y2="58.9114" gradientUnits="userSpaceOnUse">
<stop stop-color="#65C08A"/>
<stop offset="0.25" stop-color="#00A551"/>
<stop offset="0.5" stop-color="#00914D"/>
<stop offset="0.75" stop-color="#00A551"/>
<stop offset="1" stop-color="#65C08A"/>
</linearGradient>
</defs>
</svg>
