<?xml version="1.0" encoding="utf-8"?>
<!-- Generator: Adobe Illustrator 23.0.4, SVG Export Plug-In . SVG Version: 6.00 Build 0)  -->
<svg version="1.1" id="Слой_1" xmlns="http://www.w3.org/2000/svg" xmlns:xlink="http://www.w3.org/1999/xlink" x="0px" y="0px"
	 viewBox="0 0 554.3 121.2" style="enable-background:new 0 0 554.3 121.2;" xml:space="preserve">
<style type="text/css">
	.st0{fill:#FF0000;}
</style>
<title>Лого_красн</title>
<g id="XMLID_1_">
	<g>
		<path class="st0" d="M554.3,47.7c0,4.1-1.7,8.2-5,12.4c-3.3,4-7.3,7.5-11.9,10.1c-4.6,2.7-8.3,4-11.3,4c-2.3,0-5.2-1.3-8.7-4
			c-0.9,2.4-1.4,4.9-1.4,7.4c0,3.3,1.3,5,3.8,5c3.6-0.1,7.1-1.1,10.3-2.8c2.1-1,3.7-1.8,4.9-2.4c1.2-0.6,2.1-1,2.8-1.3
			c0.5-0.2,1-0.4,1.6-0.4c0.9,0,1.7,0.4,2.3,1c0.8,0.9,1.2,2.1,1.1,3.3c0.1,2.1-0.1,4.2-0.5,6.2c-0.2,1.2-0.7,2.3-1.5,3.2
			c-1.1,1.1-2.3,2-3.6,2.8c-6,3.9-13,6.1-20.1,6.2c-5.9,0-10.5-1.7-14.1-5c-3.5-3.3-5.3-8.1-5.2-14.1c0.1-5.8,1.4-11.4,3.8-16.7
			c2.5-5.8,5.8-11.2,9.8-16.1c3.7-4.5,8.1-8.5,13-11.7c4.7-2.9,9-4.4,12.9-4.4c3,0,6,0.8,8.6,2.5c2.6,1.6,4.7,3.9,6.2,6.5
			C553.5,41.9,554.3,44.8,554.3,47.7z M537,48.6c0.2-1.2-0.6-2.3-1.8-2.5c-0.2,0-0.4,0-0.6,0c-1.1,0-2.5,0.8-4.3,2.4
			c-3.6,3.5-6.5,7.7-8.6,12.3v0c2.3-0.5,4.5-1.4,6.6-2.7c2.3-1.2,4.4-2.8,6.2-4.7C536.1,51.6,537,50,537,48.6z"/>
		<path class="st0" d="M501.3,39c0.3,0.7,0.5,1.4,0.4,2.1c-0.2,2.4-1,4.6-2.5,6.5c-1.9,2.7-4,5.1-6.5,7.3c-2.7,2.4-5.5,4.7-8.6,6.6
			c-2.6,1.8-5.4,3.2-8.4,4.4c1,6.1,2.2,10.6,3.5,13.5c1.5,3.2,3.1,6.3,4.9,9.4c2,3.3,2.9,5.9,2.9,7.7c0,0.7-0.4,1.4-1.1,1.6
			c-1.1,0.4-2.2,0.6-3.4,0.6c-0.9,0.1-1.8,0.2-2.7,0.3c-1,0.2-1.9,0.6-2.8,1c-1,0.5-2.1,0.8-3.2,0.8c-3.6,0-6.4-2.7-8.4-8
			c-2.4-6.6-4.1-13.4-5.2-20.3l-0.6-0.3c-0.4,1.1-1.3,3.7-2.7,8c-1.4,4.3-2.6,7.6-3.6,10.2c-0.9,2.3-2.1,4.5-3.5,6.4
			c-1.3,1.8-2.8,2.7-4.5,2.6c-1,0-2.5-0.7-4.4-2.1c-1.9-1.4-3.6-3.1-5-5c-1.2-1.4-2-3.2-2.2-5.1c0-1,1.4-4.6,4.2-10.7
			c2.8-6.2,5.1-11.3,7-15.5c1.9-4.2,4.9-11.9,9.1-23c1.2-3.2,2.9-7.7,4.9-13.5s3.5-9.8,4.3-12.1c0.8-2,1.8-3.8,3-5.5
			c0.8-1.3,2.2-2.1,3.8-2.2c1.6,0.2,3.1,0.7,4.5,1.6c1.8,0.9,3.5,2.1,5,3.5c1.4,1.3,2.1,2.5,2.1,3.6c-0.1,1.7-0.4,3.4-1.1,5.1
			c-0.7,2-2.5,6.7-5.5,14s-5.6,14.1-7.9,20.3c4.5-2.8,7.7-4.9,9.6-6.3c2.6-2.1,5-4.4,7.1-6.9c1.3-1.5,2.6-3,3.9-4.5
			c1.1-1.2,2.2-2.3,3.4-3.3c0.7-0.6,1.6-1,2.5-1.1c0.8,0,1.5,0.3,2.1,0.7c0.6,0.5,1.2,1.2,1.6,1.9l1.2,2.1c0.2,0.3,0.6,0.8,1.2,1.5
			C500.4,37.7,500.9,38.3,501.3,39z"/>
		<path class="st0" d="M447.8,11.3c-0.1,2.2-0.7,4.3-1.7,6.2c-1.1,2.3-2.6,4.4-4.4,6.3c-1.7,1.8-3.2,2.6-4.7,2.6
			c-1.6-0.1-3.1-0.7-4.3-1.7c-1.7-1.1-3.2-2.6-4.4-4.3c-1.1-1.5-1.8-3.2-1.8-5.1c0-2.6,1.1-5.8,3.3-9.5c2.2-3.8,4.5-5.7,6.9-5.7
			c1.7,0.1,3.3,0.8,4.7,1.8c1.8,1.2,3.3,2.7,4.6,4.5C447,7.7,447.7,9.4,447.8,11.3z"/>
		<path class="st0" d="M438.3,41.6c0,0.9-0.2,1.8-0.6,2.6c-0.4,1.1-0.9,2.1-1.5,3.2l-2.4,4.4c-3.6,6.8-7.2,16.6-11,29.5
			c-0.8,3.4-1.6,6.5-2.3,9.1c-0.5,2.3-1.3,4.5-2.4,6.6c-0.9,1.8-2.1,2.7-3.5,2.7c-0.5,0-1.1-0.1-1.6-0.3c-0.9-0.4-1.7-0.8-2.5-1.2
			l-2.2-1.2c-0.1-0.1-0.8-0.4-2-1c-1.1-0.5-2.1-1-3-1.7c-0.7-0.5-1.3-1.2-1.8-2c-0.5-0.8-0.7-1.8-0.7-2.8c0-3.1,1.1-7.4,3.4-13
			c0.5-1.2,2.1-5.3,4.8-12.3c2.7-6.9,5.1-12.6,7.1-17c1.8-4,3.9-7.8,6.4-11.4c2.2-3.1,4.4-4.7,6.4-4.7c1.6,0.1,3,0.7,4.1,1.8
			c1.4,1.2,2.6,2.7,3.6,4.3C437.7,38.4,438.2,40,438.3,41.6z"/>
		<path class="st0" d="M415.5,16c0,1.2-1.1,4.1-3.4,8.5c-5.2,9.6-9.7,19.5-13.7,29.7c-3.2,8.6-6.1,17.1-8.5,25.4
			c-2.5,8.3-4.2,13.8-5.4,16.3c-1.2,2.5-2.9,3.8-5.1,3.8c-0.7,0-1.4-0.1-2.1-0.3c-0.7-0.2-1.4-0.5-2.1-0.8c-0.7-0.3-1.4-0.8-2.2-1.2
			c-1.1-0.5-2-1-2.7-1.4c-0.7-0.4-1.4-0.8-2-1.3c-0.6-0.5-1.1-1.1-1.4-1.8c-0.4-0.8-0.6-1.8-0.6-2.7c0-2.2,1.4-7.3,4.2-15.3
			s6-16.2,9.4-24.7c3.4-8.6,5.9-14.4,7.3-17.4c3.2-7,5.8-12.4,7.7-16.1c1.5-3.1,3.4-5.9,5.5-8.5c1.7-2,3.5-3,5.3-3
			c1.6,0.2,3.1,0.9,4.2,2c1.5,1.3,2.8,2.9,3.9,4.6C414.8,13,415.4,14.4,415.5,16z"/>
		<path class="st0" d="M368,34.3c0.8,0.9,1.1,2.1,1.1,3.3c0,1-0.2,2-0.6,3c-0.4,0.9-1.4,2.8-3,5.7c-1.6,2.9-3,5.9-4.3,8.8
			c-1.6,3.6-2.9,7.2-4.1,10.9c-2.5,8.1-4,16.6-4.5,25.1c-0.1,2.4-0.5,4.8-1.2,7.2c-0.5,1.7-2.1,2.9-3.9,2.7c-0.2,0-2.1-0.4-5.9-1.3
			l-2.3-0.5c-1.1-0.2-2.2-0.5-3.2-1c-0.8-0.4-1.4-1-1.8-1.7c-0.6-0.9-0.8-2-0.8-3.1c0-0.8,0.2-1.6,0.4-2.4l-0.6-0.1
			c-4.2,5.1-8.7,7.6-13.4,7.6s-8.4-2.1-11-6.4c-2.6-4.4-3.9-9.4-3.8-14.5c0-4.8,1.1-9.6,3-14c2.2-4.9,5.1-9.4,8.7-13.3
			c2.6-2.8,5.3-5.3,8.2-7.6c3.6-3,7.4-5.7,11.4-8.1c3.7-2.3,6.6-3.4,8.6-3.4c2.3,0,4.5,1.2,6.6,3.7c2-4.5,4.2-6.7,6.7-6.7
			c1,0,2,0.3,2.8,0.8c1.1,0.8,2.2,1.6,3.3,2.5C365.7,32.2,366.9,33.2,368,34.3z M343.3,51.1L343.3,51.1c-3.3,1.4-6.2,3.4-8.7,6
			c-2.9,2.8-5.3,6.1-7.2,9.6c-1.7,3-2.7,6.3-2.8,9.8c0,2.1,0.6,3.2,1.8,3.2c1.1,0,2.5-0.9,4.4-2.7c1.9-1.8,3.9-4.9,6.1-9.2
			C339.6,62.5,341.7,56.9,343.3,51.1z"/>
		<path class="st0" d="M305.4,38.2c0.7,1.8,1.1,3.6,1.1,5.5c-0.1,1.4-0.6,2.7-1.5,3.8c-1.7,2.3-3.6,4.4-5.6,6.4
			c-2.8,2.8-7.3,7.2-13.6,13.2c-7.1,6.8-11.5,11.1-13.2,13c3.9-0.3,7.9-0.5,12-0.5c4.7,0,8.2,0.6,10.5,1.7c2.3,1.2,3.5,3.7,3.4,7.7
			c0,2.1-0.9,4.2-2.5,5.6c-1.8,1.6-4.2,2.5-6.6,2.3c-0.9,0-2.2-0.1-4-0.3c-2.5-0.2-4.9-0.3-7.4-0.3c-4.1,0-8.2,0.4-12.2,1.1
			c-2.2,0.4-4.4,1.1-6.5,2.1c-1.3,0.8-2.8,1.2-4.4,1.4c-1.7-0.1-3.2-0.8-4.4-1.9c-1.4-1.4-2.6-3-3.5-4.8c-0.8-1.5-1.2-3.2-1.3-4.9
			c0-3.6,4.4-9.7,13.2-18.2c11.7-11.3,20.4-19.1,26.2-23.2l-0.3-0.5c-3.2,1.2-6.6,2.2-9.9,3.1c-2.7,0.8-5.5,1.4-8.3,1.7
			c-1.6,0-2.7-0.6-3.2-1.7c-0.6-1.7-1.1-3.5-1.4-5.3c-0.2-1.1-0.4-2.2-0.7-3.3c-0.2-0.8-0.4-1.6-0.5-2.4c-0.2-2.1,1.1-4,3.1-4.6
			c3.6-1,7.2-1.8,10.9-2.2c4.3-0.8,7.6-1.3,9.9-1.7c3-0.4,6-0.6,9-0.5c2.7-0.1,5.3,0.7,7.4,2.3C303.2,34.1,304.6,36,305.4,38.2z"/>
		<path class="st0" d="M246.8,38.2c0.7,1.8,1.1,3.6,1.1,5.5c-0.1,1.4-0.6,2.7-1.5,3.8c-1.7,2.3-3.6,4.4-5.6,6.4
			c-2.8,2.8-7.3,7.2-13.6,13.3c-7.1,6.8-11.5,11.1-13.2,13c3.9-0.3,7.9-0.5,12-0.5c4.7,0,8.2,0.6,10.5,1.7c2.3,1.2,3.5,3.7,3.5,7.7
			c0,2.1-0.9,4.2-2.5,5.6c-1.8,1.6-4.2,2.5-6.6,2.3c-0.9,0-2.2-0.1-4-0.3c-2.5-0.2-4.9-0.3-7.4-0.3c-4.1,0-8.2,0.4-12.2,1.1
			c-2.2,0.4-4.4,1.1-6.4,2.1c-1.3,0.8-2.8,1.2-4.4,1.4c-1.6-0.1-3.2-0.8-4.4-1.9c-1.4-1.4-2.6-3-3.5-4.8c-0.8-1.5-1.2-3.2-1.3-4.8
			c0-3.6,4.4-9.7,13.2-18.2c11.7-11.3,20.4-19.1,26.2-23.2l-0.3-0.5c-3.2,1.2-6.6,2.2-9.9,3.1c-2.7,0.8-5.5,1.4-8.3,1.7
			c-1.6,0-2.7-0.6-3.2-1.7c-0.6-1.7-1.1-3.5-1.4-5.3c-0.2-1.1-0.4-2.2-0.7-3.3c-0.2-0.8-0.4-1.6-0.5-2.4c-0.2-2.1,1.1-4,3.1-4.6
			c3.6-1,7.2-1.8,10.9-2.2c4.3-0.8,7.6-1.3,9.9-1.7c3-0.4,6-0.6,9-0.5c2.7-0.1,5.3,0.7,7.4,2.4C244.6,34.2,246,36,246.8,38.2z"/>
		<path class="st0" d="M205.1,11.3c-0.1,2.2-0.7,4.3-1.7,6.2c-1.1,2.3-2.6,4.4-4.4,6.3c-1.7,1.8-3.2,2.6-4.7,2.6
			c-1.6-0.1-3-0.7-4.3-1.7c-1.7-1.1-3.2-2.6-4.4-4.3c-1.1-1.5-1.8-3.3-1.8-5.1c0-2.6,1.1-5.8,3.3-9.5c2.2-3.8,4.5-5.7,6.9-5.7
			c1.7,0.1,3.3,0.8,4.7,1.8c1.8,1.2,3.3,2.7,4.6,4.5C204.4,7.7,205,9.4,205.1,11.3z"/>
		<path class="st0" d="M195.6,41.6c0,0.9-0.2,1.8-0.6,2.6c-0.4,1.1-0.9,2.1-1.5,3.2l-2.4,4.4c-3.6,6.8-7.2,16.6-11,29.5
			c-0.8,3.4-1.6,6.5-2.3,9.1c-0.5,2.3-1.3,4.5-2.4,6.6c-0.9,1.8-2,2.7-3.5,2.7c-0.5,0-1.1-0.1-1.6-0.3c-0.9-0.4-1.7-0.8-2.4-1.2
			l-2.1-1.2c-0.1-0.1-0.8-0.4-2-1c-1.1-0.5-2.1-1-3-1.7c-0.7-0.5-1.3-1.2-1.8-2c-0.5-0.8-0.7-1.8-0.7-2.8c0-3.1,1.1-7.4,3.4-13
			c0.5-1.2,2.1-5.3,4.8-12.3c2.7-6.9,5.1-12.6,7.1-17c1.8-4,3.9-7.8,6.4-11.4c2.2-3.1,4.4-4.7,6.3-4.7c1.6,0.1,3,0.7,4.1,1.8
			c1.4,1.2,2.6,2.7,3.6,4.3C195,38.4,195.5,40,195.6,41.6z"/>
		<path class="st0" d="M158.9,52.2c0,5.6-2.2,12.1-6.7,19.4c-4.2,7-9.4,13.4-15.6,18.9c-6,5.3-10.9,8-14.6,8c-0.9,0-1.8-0.3-2.4-0.8
			c-0.8-0.8-1.5-1.7-2.1-2.7c-0.5-0.9-1.1-1.7-1.7-2.5c-1.4,3.2-3,7.5-5,13c-1.4,4.1-3.1,8.1-5,12c-1.3,2.5-2.8,3.7-4.4,3.7
			c-1,0-2.6-0.7-4.9-2c-2.1-1.3-4.1-2.8-5.9-4.5c-1.7-1.7-2.6-3.1-2.6-4.3c0.1-0.8,0.3-1.6,0.6-2.3c0.4-1,1.1-2.7,2.2-5.1l5.9-12.9
			c0.9-1.9,1.8-4,2.7-6.3c1-2.2,2.2-5.1,3.6-8.7c1.5-3.6,2.9-7.2,4.4-11l3.7-9.2c-1.3-1.8-2.2-3.8-2.5-5.9c-0.5-2.1-0.8-4.3-0.9-6.5
			c0-1.7,1-3.3,2.9-4.6c1.9-1.4,4.1-2.4,6.4-3c0.2-0.4,0.6-2.1,1.3-5c0.4-2.2,1.2-4.4,2.2-6.5c0.6-1.3,1.9-2.1,3.4-2.1
			c1.9,0,3.8,0.4,5.6,1.2c1.8,0.7,3.6,1.7,5.1,2.9c1.4,1.1,2.1,2.1,2.1,3.1c-0.2,1.4-0.5,2.7-0.8,4.1c2.7-1.2,5.6-1.8,8.5-1.8
			c2.8,0,5.5,1.2,7.4,3.2c2.3,2.3,4,5.1,5.1,8.2C158.3,45.5,158.9,48.8,158.9,52.2z M139.2,61.2c1.8-3.3,2.7-6.1,2.7-8.3
			c0-2.5-1.1-3.7-3.4-3.7c-2.4,0-4.7,0.7-6.6,2c-5.8,15.1-9.1,24-9.9,26.6c3.7-1.7,7-4.1,9.9-7C134.7,67.9,137.2,64.7,139.2,61.2z"
			/>
		<path class="st0" d="M94.4,30.6c6.1,0.6,8.6,3.1,7.4,7.3c-1,3.2-6.3,6.2-15.8,8.8c-3,0.9-7.5,1.8-13.4,2.9c-1,1.7-1.8,3.4-2.5,5.3
			c-1,2.7-1.9,4.7-2.5,6c2.3-0.7,3.9-1.2,5-1.5c1.7-0.4,3.4-0.7,5.1-0.8c5.5-0.6,9.9-0.5,13.2,0.5c4.2,1.2,5.8,3.7,4.8,7.3
			c-1.8,6-7,10.3-13.1,10.9c-2.3,0.1-4.6-0.4-6.6-1.6c-1-0.6-2.1-0.9-3.2-0.8l-12.4,2.3c-0.3,0.5-2.3,4.7-5.9,12.4
			c-2.1,4.2-3.7,7.4-4.8,9.8c-2.5,5.1-3.9,7.8-4.1,8.2c-1.8,2.7-4,4-6.5,4c-1.3,0-2.5-0.5-3.4-1.4c-1-0.9-1.4-2.3-1-3.5
			c0.4-1.8,2.3-6.8,5.8-15.1c1.2-2.8,2.9-6.9,5.2-12.3c-3.8,0.8-7.1,1.6-9.9,2.2c-2.8,0.6-7,1.7-12.6,3.3c0.1,0.3,0.1,0.7-0.1,1.1
			c-0.8,2.5-1.8,5-3.2,7.3c-1.4,2.7-3,5.3-4.6,7.8l-3.3,6.6c-1.4,2.1-3.7,3.1-7.1,3.1c-1.1-0.1-2.2-0.7-2.9-1.6
			c-0.6-0.5-0.9-1.2-0.8-2c0.2-0.9,1.6-4.2,4.3-10c0.8-1.9,1.7-3.7,2.8-5.4c-0.7,0.3-1.4,0.5-2.2,0.7c-0.6,0.1-1.2,0.2-1.8,0.3
			c-1,0-1.8,0-2.4,0c-1,0.1-1.5-0.5-1.7-1.8c-0.1-1.4,0-2.9,0.3-4.3c0.6-2.8,3.2-5.3,8-7.6c1.6-0.8,4-1.8,7.2-3
			c0.4-1.8,1-3.5,1.7-5.2c0.8-1.8,1.7-3.9,2.7-6.2c-2,0.8-4.1,1.6-6.5,2.3c-2.1,0.6-4.2,1.1-6.4,1.4c-0.8,0-1.6-0.2-2.2-0.6
			c-0.6-0.5-0.9-1.4-0.7-2.2c0.7-3.5,3.7-6.6,9-9.5l13.5-6.4c3-5.7,5.9-10.9,8.7-15.8C41,23.9,45.4,18.6,48.6,18
			c1.3-0.4,2.6,0.4,3,1.6c0.4,0.8,0.6,1.7,0.4,2.6c-0.8,3.4-1.9,6.7-3.2,9.9c-1.3,3-2.9,6.4-4.9,10.2c3.6-0.6,7.2-1.6,10.7-2.8
			c4.3-1.4,7.6-2.5,9.8-3.1c2.7-4.5,5.3-9,8.1-13.7c1.6-2.1,3.8-3.4,6.4-3.9c4.6-0.9,6.5,0.1,5.7,3c-0.1,0.6-0.2,1.2-0.3,1.8
			c-0.7,2.6-1.9,5.1-3.4,7.3C88.8,30.6,93.4,30.5,94.4,30.6z M55.6,53.5L55.6,53.5L55.6,53.5L55.6,53.5l-20.5,5.3l-4.8,11.5
			c2.8-0.6,6-1.4,9.6-2.4l11.5-3c1.1-2.5,2-4.6,2.6-6.3C54.6,57,55.2,55.2,55.6,53.5z"/>
		<polygon class="st0" points="55.6,53.5 55.6,53.5 55.6,53.5 		"/>
	</g>
	<g>
	</g>
</g>
</svg>
