<svg width="112" height="60" viewBox="0 0 112 60" fill="none" xmlns="http://www.w3.org/2000/svg">
<g clip-path="url(#clip0)">
<path d="M20.5767 24.6522V45.7174H16.3441V34.6304L11.1348 41.1522H9.76737L4.55807 34.6304V45.6522H0.390625V24.6522H1.75807L10.4836 35.8696L19.2092 24.6522H20.5767Z" fill="black"/>
<path d="M36.2051 43.0435H27.74L26.5679 45.7174H22.0098L31.2563 24.6522H32.6888L41.8702 45.7174H37.3121L36.2051 43.0435ZM32.0377 32.6087L29.3028 39.5217H34.7726L32.0377 32.6087Z" fill="black"/>
<path d="M56.5213 45.7168L47.7306 34.9559V45.7168H43.498V25.0429H47.7306V34.6298L55.6097 25.0429H60.6236L52.6794 34.7603L61.6004 45.7168H56.5213Z" fill="black"/>
<path d="M67.3947 41.869H76.4458V45.7168H63.1621V25.0429H67.3947V41.869Z" fill="black"/>
<path d="M92.2038 28.8907H82.5665V33.0646H89.6642V36.6516H82.5665V41.869H92.5945V45.7168H78.334V25.0429H92.2038V28.8907Z" fill="black"/>
<path d="M106.987 45.7168L101.647 38.4124H98.5216V45.7168H94.2891V25.0429H102.038C104.252 25.0429 106.01 25.6298 107.377 26.869C108.745 28.1081 109.461 29.6733 109.461 31.695C109.461 32.9994 109.136 34.1733 108.484 35.2168C107.833 36.2603 106.922 37.0429 105.815 37.5646L111.675 45.7168H106.987ZM98.5867 34.6951H102.103C103.08 34.6951 103.861 34.4342 104.382 33.9124C104.903 33.3907 105.229 32.6733 105.229 31.7603C105.229 30.9124 104.968 30.1951 104.382 29.6081C103.796 29.0864 103.08 28.8255 102.103 28.8255H98.5867V34.6951Z" fill="black"/>
<path d="M28.2598 59.2826V54.4565C28.2598 53.9348 28.5202 53.6087 29.1063 53.6087H30.1481C30.6691 53.6087 30.9946 53.8696 30.9946 54.4565V56.0217H30.2784V54.4565C30.2784 54.3261 30.2132 54.2609 30.083 54.2609H29.2365C29.1063 54.2609 29.0412 54.3261 29.0412 54.4565V59.1522C29.0412 59.2826 29.1063 59.3478 29.2365 59.3478H30.2784V57.3913H29.6272V56.7391H30.9946V60H30.2784V59.6087L29.8877 60.0652H29.1063C28.5202 60.0652 28.2598 59.8043 28.2598 59.2826Z" fill="#9E9E9E"/>
<path d="M46.3628 53.6738H47.5349L48.5116 60.0651H47.7954L47.6 58.6303H46.3628L46.1675 60.0651H45.4512L46.3628 53.6738ZM47.4698 57.9129L46.9488 54.3912L46.4279 57.9129H47.4698Z" fill="#9E9E9E"/>
<path d="M62.9675 53.6738H64.1396L64.9209 59.1521L65.7023 53.6738H66.9396V60.0651H66.2233V54.8477L65.3768 60.0651H64.4651L63.6186 54.8477V60.0651H62.9023V53.6738H62.9675Z" fill="#9E9E9E"/>
<path d="M81.6543 53.6738H83.8682V54.3912H82.3706V56.4781H83.8031V57.1955H82.3706V59.3477H83.8682V60.0651H81.6543V53.6738Z" fill="#9E9E9E"/>
<path d="M37.2461 5.15218L49.0321 18.2609L56.0647 10.8913L41.1531 2.6087L37.2461 5.15218Z" fill="#2D9EEC"/>
<path d="M70.9761 2.6087L56.0645 10.8913L63.097 18.2609L74.8831 5.15218L70.9761 2.6087Z" fill="#2D9EEC"/>
<g filter="url(#filter0_d)">
<path d="M37.2461 2.54348L49.0321 15.6522L56.0647 8.28261L41.1531 0L37.2461 2.54348Z" fill="white"/>
</g>
<g filter="url(#filter1_d)">
<path d="M70.9761 0L56.0645 8.28261L63.097 15.6522L74.8831 2.54348L70.9761 0Z" fill="white"/>
</g>
</g>
<defs>
<filter id="filter0_d" x="33.2461" y="0" width="26.8186" height="23.6522" filterUnits="userSpaceOnUse" color-interpolation-filters="sRGB">
<feFlood flood-opacity="0" result="BackgroundImageFix"/>
<feColorMatrix in="SourceAlpha" type="matrix" values="0 0 0 0 0 0 0 0 0 0 0 0 0 0 0 0 0 0 127 0"/>
<feOffset dy="4"/>
<feGaussianBlur stdDeviation="2"/>
<feColorMatrix type="matrix" values="0 0 0 0 0 0 0 0 0 0 0 0 0 0 0 0 0 0 0.25 0"/>
<feBlend mode="normal" in2="BackgroundImageFix" result="effect1_dropShadow"/>
<feBlend mode="normal" in="SourceGraphic" in2="effect1_dropShadow" result="shape"/>
</filter>
<filter id="filter1_d" x="52.0645" y="0" width="26.8186" height="23.6522" filterUnits="userSpaceOnUse" color-interpolation-filters="sRGB">
<feFlood flood-opacity="0" result="BackgroundImageFix"/>
<feColorMatrix in="SourceAlpha" type="matrix" values="0 0 0 0 0 0 0 0 0 0 0 0 0 0 0 0 0 0 127 0"/>
<feOffset dy="4"/>
<feGaussianBlur stdDeviation="2"/>
<feColorMatrix type="matrix" values="0 0 0 0 0 0 0 0 0 0 0 0 0 0 0 0 0 0 0.25 0"/>
<feBlend mode="normal" in2="BackgroundImageFix" result="effect1_dropShadow"/>
<feBlend mode="normal" in="SourceGraphic" in2="effect1_dropShadow" result="shape"/>
</filter>
<clipPath id="clip0">
<rect width="112" height="60" fill="white"/>
</clipPath>
</defs>
</svg>
