<?xml version="1.0" encoding="utf-8"?>
<!-- Generator: Adobe Illustrator 21.1.0, SVG Export Plug-In . SVG Version: 6.00 Build 0)  -->
<svg version="1.1" id="Layer_1" xmlns="http://www.w3.org/2000/svg" xmlns:xlink="http://www.w3.org/1999/xlink" x="0px" y="0px"
	 viewBox="0 0 30 30" style="enable-background:new 0 0 30 30;" xml:space="preserve">
<style type="text/css">
	.st0{fill:#ffe000;}
</style>
<g>
	<g>
		<path class="st0" d="M15.2,30c-0.7,0-1.4-0.5-1.8-1.3v0c-4.8-10-7.4-15.5-7.6-16.2c-0.2-0.8-0.3-1.6-0.3-2.3
			c0-5.3,4.3-9.6,9.6-9.6s9.6,4.3,9.6,9.6c0,1.1-0.2,2.1-0.5,3.2l0,0.1C24.1,14,19.1,24.3,17,28.7C16.6,29.6,16,30,15.2,30
			C15.2,30,15.2,30,15.2,30z M15.4,28.1L15.4,28.1C15.4,28.1,15.4,28.1,15.4,28.1z M15.2,2.6C11,2.6,7.6,6,7.6,10.2
			c0,0.6,0.1,1.2,0.2,1.8c0.2,0.7,3.1,6.9,7.4,15.8c3.3-6.9,7-14.5,7.2-15c0.3-0.9,0.5-1.7,0.5-2.6C22.9,6,19.4,2.6,15.2,2.6z"/>
	</g>
	<g>
		<path class="st0" d="M15.2,16.1c-3.2,0-5.9-2.6-5.9-5.9c0-3.2,2.6-5.9,5.9-5.9c3.2,0,5.9,2.6,5.9,5.9S18.5,16.1,15.2,16.1z
			 M15.2,6.3c-2.1,0-3.9,1.7-3.9,3.9c0,2.1,1.7,3.9,3.9,3.9c2.1,0,3.9-1.7,3.9-3.9C19.1,8.1,17.4,6.3,15.2,6.3z"/>
	</g>
	<g>
		<path class="st0" d="M15.2,5.3"/>
	</g>
</g>
</svg>
