<svg width="167" height="60" viewBox="0 0 167 60" fill="none" xmlns="http://www.w3.org/2000/svg">
<path d="M0 59.7076L3.22879 39.4584H10.2936C12.7325 39.4584 14.6112 39.9291 15.9292 40.8703C17.2475 41.8115 17.7682 43.1905 17.492 45.0077C17.324 45.9719 16.9339 46.8139 16.322 47.5321C15.7097 48.2504 14.8851 48.7906 13.8487 49.152C15.1419 49.393 16.0531 49.9449 16.5812 50.8069C17.1095 51.6695 17.2896 52.6707 17.1219 53.8113C16.7959 55.823 15.8824 57.309 14.3818 58.2685C12.8808 59.2284 10.8664 59.7076 8.33901 59.7076H0ZM5.74649 50.7509L4.81329 56.5923H8.84201C9.94755 56.5923 10.849 56.356 11.5451 55.8829C12.2411 55.4102 12.6633 54.7194 12.8116 53.8109C12.9596 52.7915 12.7866 52.0264 12.2932 51.516C11.7993 51.0059 10.9452 50.7509 9.73079 50.7509H5.74649ZM6.20541 47.942H9.2565C10.323 47.9234 11.1967 47.6873 11.8781 47.2323C12.5594 46.7785 12.9693 46.1434 13.1075 45.3276C13.2655 44.354 13.0705 43.654 12.5227 43.2275C11.9746 42.8009 11.0685 42.5878 9.8046 42.5878H7.06446L6.20541 47.942Z" fill="black"/>
<path d="M23.9492 59.7076H19.6242L22.853 39.4584H27.178L23.9492 59.7076Z" fill="black"/>
<path d="M45.5727 42.5878H39.3967L36.6716 59.7076H32.3466L35.0721 42.5878H29.0143L29.5033 39.4584H46.0621L45.5727 42.5878Z" fill="black"/>
<path d="M57.2 54.3809L57.2889 54.395L65.2127 39.4584H70.8554L67.6269 59.7076H63.3019L65.494 45.8976L65.4198 45.8838L57.8811 59.7076H54.9485L51.8233 45.856H51.7344L49.5277 59.7076H45.2027L48.4318 39.4584H54.1042L57.2 54.3809Z" fill="black"/>
<path d="M90.3764 51.405C89.9515 53.9913 88.7889 56.0708 86.8884 57.6426C84.9876 59.214 82.6843 59.9997 79.9789 59.9997C77.4211 59.9997 75.4171 59.1812 73.9659 57.545C72.5143 55.9084 71.9856 53.862 72.3811 51.405L72.9589 47.761C73.363 45.1927 74.511 43.1181 76.4021 41.5375C78.2932 39.9566 80.5865 39.1667 83.2819 39.1667C85.859 39.1667 87.878 39.9894 89.3393 41.6348C90.8009 43.2805 91.339 45.323 90.9539 47.761L90.3764 51.405ZM86.6439 47.7332C86.9011 46.1015 86.691 44.7943 86.0147 43.8115C85.3383 42.8284 84.2545 42.3373 82.7638 42.3373C81.3517 42.3373 80.1442 42.8471 79.1422 43.8668C78.1399 44.8866 77.5153 46.1755 77.2685 47.7332L76.6907 51.405C76.4248 53.0645 76.6172 54.3858 77.2685 55.3686C77.9201 56.351 78.9913 56.8428 80.4829 56.8428C81.9044 56.8428 83.1239 56.3327 84.1412 55.3126C85.1579 54.2928 85.8002 52.9899 86.0664 51.4047L86.6439 47.7332Z" fill="black"/>
<path d="M109.897 59.7076H105.573L99.0407 46.0508L98.9518 46.0648L96.7895 59.7076H92.4645L95.6937 39.4584H100.018L106.535 53.1018L106.624 53.0877L108.801 39.4584H113.126L109.897 59.7076Z" fill="black"/>
<path d="M127.611 50.8066H119.613L118.68 56.5923H128.204L127.7 59.7076H113.867L117.095 39.4584H130.899L130.41 42.5878H120.917L120.102 47.6778H128.115L127.611 50.8066Z" fill="black"/>
<path d="M140.082 48.7765L140.171 48.7903L146.377 39.4584H151.116L141.637 52.5734L140.497 59.7076H136.172L137.342 52.3786L132.129 39.4584H136.868L140.082 48.7765Z" fill="black"/>
<path d="M162.21 54.7983C162.348 53.9082 162.136 53.2197 161.573 52.7329C161.01 52.2461 159.944 51.7383 158.374 51.2099C155.905 50.4779 154.076 49.5878 152.886 48.5401C151.696 47.4922 151.24 46.1156 151.516 44.4093C151.773 42.778 152.661 41.496 154.182 40.5642C155.703 39.6322 157.549 39.1667 159.721 39.1667C162.131 39.1667 164.017 39.7183 165.379 40.8216C166.741 41.9245 167.245 43.4406 166.89 45.3695L166.86 45.453H162.668C162.807 44.5164 162.557 43.7559 161.92 43.1715C161.283 42.5878 160.383 42.2957 159.217 42.2957C158.359 42.2957 157.606 42.4951 156.958 42.8935C156.312 43.2926 155.944 43.7883 155.855 44.3818C155.717 45.2529 155.939 45.9113 156.522 46.3562C157.104 46.8018 158.324 47.3207 160.18 47.9145C162.51 48.6282 164.221 49.5062 165.312 50.5496C166.403 51.5929 166.81 52.9997 166.534 54.7705C166.257 56.4771 165.364 57.7748 163.853 58.6646C162.343 59.5548 160.466 60 158.225 60C155.875 60 153.89 59.4971 152.271 58.4911C150.651 57.4851 150.039 55.9205 150.434 53.7975L150.464 53.7137H154.656C154.468 54.8729 154.791 55.6911 155.626 56.1684C156.459 56.646 157.489 56.8847 158.713 56.8847C159.582 56.8847 160.358 56.6879 161.039 56.2941C161.721 55.8996 162.111 55.4007 162.21 54.7983Z" fill="black"/>
<path d="M8.06746 0H38.5183C40.9185 0.173001 42.5377 0.938004 43.3761 2.29401C44.2147 3.65101 44.3443 5.39735 43.7668 7.53202C43.333 9.26336 42.9348 10.613 42.5741 11.58C42.2124 12.5474 41.8366 13.2757 41.4465 13.766C41.0561 14.2574 40.6363 14.5744 40.1887 14.7184C39.7398 14.8634 39.1974 14.9641 38.5621 15.0217C39.3711 15.3677 39.8988 16.0897 40.1449 17.1861C40.3904 18.2831 40.4268 19.5094 40.2535 20.8661C40.0801 22.2227 39.7618 23.6144 39.2992 25.0434C38.8367 26.4721 38.3016 27.7054 37.6944 28.7444C37.5487 28.9761 37.2966 29.2574 36.9352 29.5891C36.5731 29.9211 36.1469 30.1588 35.6556 30.3034H0L4.98797 11.2987C5.73947 11.3277 6.43386 11.342 7.07014 11.342C7.70574 11.342 8.4215 11.342 9.21709 11.342C10.012 11.342 10.829 11.342 11.6683 11.342C13.6343 11.342 15.8757 11.3277 18.3914 11.2987C17.8417 13.146 17.3357 14.8204 16.8734 16.3207C16.6707 16.9554 16.4753 17.5831 16.2876 18.2031C16.0989 18.8241 15.9258 19.3867 15.7669 19.8917C15.6072 20.3971 15.4773 20.8084 15.3764 21.1251C15.2749 21.4431 15.2244 21.6304 15.2244 21.6884C15.1667 21.9194 15.1957 22.1861 15.3113 22.4891C15.4265 22.7921 15.6002 22.9437 15.8323 22.9437C16.0341 22.9437 16.5404 22.9437 17.3504 22.9437C18.1593 22.9437 19.1069 22.9437 20.1914 22.9437C21.2759 22.9437 22.4178 22.9437 23.6182 22.9437C24.818 22.9437 25.9021 22.9371 26.8717 22.9221C27.84 22.9081 28.6135 22.9004 29.1924 22.9004C29.7702 22.9004 30.0017 22.8861 29.8864 22.8571C30.4068 22.8861 30.8403 22.8141 31.1877 22.6407C31.5347 22.4677 31.8089 22.2661 32.0113 22.0347C32.2134 21.8044 32.365 21.5517 32.4669 21.2771C32.5681 21.0031 32.6189 20.7651 32.6189 20.5627C32.6767 19.7554 32.6189 19.1344 32.4455 18.7017C32.2719 18.2687 31.7652 18.0524 30.9272 18.0524H19.1286L21.5578 11.299H33.7465C34.4115 11.299 34.9609 11.1047 35.3948 10.7147C35.8286 10.3254 36.0745 9.92904 36.1322 9.52403C36.2194 9.0047 36.1393 8.56503 35.8938 8.20403C35.6479 7.84336 35.2932 7.66269 34.831 7.66269L5.9853 7.61936L8.06746 0Z" fill="#9C1A05"/>
<path d="M56.3026 0C56.6496 0 56.9973 0.0800018 57.344 0.238002C57.691 0.397003 58.0013 0.606002 58.2762 0.86567C58.5507 1.12567 58.7899 1.42167 58.9919 1.75301C59.194 2.08534 59.339 2.41034 59.4258 2.72701L62.7221 16.6667L78.0344 0H94.1272L84.7575 30.3034H70.7468L73.6098 20.3897L64.6309 30.3034H51.0541L44.027 0H56.3026Z" fill="#7B8255"/>
</svg>
