<?xml version="1.0" encoding="utf-8"?>
<!-- Generator: Adobe Illustrator 21.1.0, SVG Export Plug-In . SVG Version: 6.00 Build 0)  -->
<svg version="1.1" id="Layer_1" xmlns="http://www.w3.org/2000/svg" xmlns:xlink="http://www.w3.org/1999/xlink" x="0px" y="0px"
	 viewBox="0 0 30 30" style="enable-background:new 0 0 30 30;" xml:space="preserve">
<style type="text/css">
	.st0{fill:#ffe000;}
</style>
<path class="st0" d="M27.4,5.8H3.3c-0.6,0-1,0.4-1,1v16.8c0,0.6,0.4,1,1,1h24.1c0.6,0,1-0.4,1-1V6.8C28.4,6.2,28,5.8,27.4,5.8z
	 M26.4,7.8v0.1c0,0,0,0,0,0l-11.1,8.8l-11-8.8c0,0,0,0,0,0V7.8H26.4z M4.3,22.6V10.5l10.4,8.3C14.8,19,15,19,15.3,19
	c0.2,0,0.4-0.1,0.6-0.2l10.5-8.4v12.2H4.3z"/>
</svg>
